%TF.GenerationSoftware,KiCad,Pcbnew,8.0.4*%
%TF.CreationDate,2024-11-25T16:05:12+13:00*%
%TF.ProjectId,CDRC,43445243-2e6b-4696-9361-645f70636258,B*%
%TF.SameCoordinates,Original*%
%TF.FileFunction,Paste,Top*%
%TF.FilePolarity,Positive*%
%FSLAX46Y46*%
G04 Gerber Fmt 4.6, Leading zero omitted, Abs format (unit mm)*
G04 Created by KiCad (PCBNEW 8.0.4) date 2024-11-25 16:05:12*
%MOMM*%
%LPD*%
G01*
G04 APERTURE LIST*
G04 Aperture macros list*
%AMRoundRect*
0 Rectangle with rounded corners*
0 $1 Rounding radius*
0 $2 $3 $4 $5 $6 $7 $8 $9 X,Y pos of 4 corners*
0 Add a 4 corners polygon primitive as box body*
4,1,4,$2,$3,$4,$5,$6,$7,$8,$9,$2,$3,0*
0 Add four circle primitives for the rounded corners*
1,1,$1+$1,$2,$3*
1,1,$1+$1,$4,$5*
1,1,$1+$1,$6,$7*
1,1,$1+$1,$8,$9*
0 Add four rect primitives between the rounded corners*
20,1,$1+$1,$2,$3,$4,$5,0*
20,1,$1+$1,$4,$5,$6,$7,0*
20,1,$1+$1,$6,$7,$8,$9,0*
20,1,$1+$1,$8,$9,$2,$3,0*%
G04 Aperture macros list end*
%ADD10RoundRect,0.237500X0.300000X0.237500X-0.300000X0.237500X-0.300000X-0.237500X0.300000X-0.237500X0*%
%ADD11RoundRect,0.237500X0.237500X-0.300000X0.237500X0.300000X-0.237500X0.300000X-0.237500X-0.300000X0*%
%ADD12RoundRect,0.237500X-0.237500X0.250000X-0.237500X-0.250000X0.237500X-0.250000X0.237500X0.250000X0*%
%ADD13RoundRect,0.237500X0.250000X0.237500X-0.250000X0.237500X-0.250000X-0.237500X0.250000X-0.237500X0*%
%ADD14RoundRect,0.250000X-0.625000X0.400000X-0.625000X-0.400000X0.625000X-0.400000X0.625000X0.400000X0*%
%ADD15RoundRect,0.250000X-0.475000X0.337500X-0.475000X-0.337500X0.475000X-0.337500X0.475000X0.337500X0*%
%ADD16RoundRect,0.237500X-0.250000X-0.237500X0.250000X-0.237500X0.250000X0.237500X-0.250000X0.237500X0*%
%ADD17R,1.500000X0.900000*%
%ADD18R,0.900000X1.500000*%
%ADD19R,0.900000X0.900000*%
%ADD20RoundRect,0.150000X0.587500X0.150000X-0.587500X0.150000X-0.587500X-0.150000X0.587500X-0.150000X0*%
%ADD21RoundRect,0.237500X0.237500X-0.250000X0.237500X0.250000X-0.237500X0.250000X-0.237500X-0.250000X0*%
%ADD22RoundRect,0.250000X-1.500000X0.250000X-1.500000X-0.250000X1.500000X-0.250000X1.500000X0.250000X0*%
%ADD23RoundRect,0.250001X-1.449999X0.499999X-1.449999X-0.499999X1.449999X-0.499999X1.449999X0.499999X0*%
%ADD24R,1.000000X0.250000*%
%ADD25R,1.000000X0.450000*%
%ADD26RoundRect,0.150000X-0.825000X-0.150000X0.825000X-0.150000X0.825000X0.150000X-0.825000X0.150000X0*%
%ADD27R,2.500000X1.000000*%
%ADD28RoundRect,0.237500X-0.287500X-0.237500X0.287500X-0.237500X0.287500X0.237500X-0.287500X0.237500X0*%
%ADD29RoundRect,0.250001X-0.624999X0.462499X-0.624999X-0.462499X0.624999X-0.462499X0.624999X0.462499X0*%
%ADD30RoundRect,0.150000X0.150000X-0.512500X0.150000X0.512500X-0.150000X0.512500X-0.150000X-0.512500X0*%
%ADD31RoundRect,0.250000X0.650000X-1.500000X0.650000X1.500000X-0.650000X1.500000X-0.650000X-1.500000X0*%
%ADD32RoundRect,0.164042X-1.335958X-0.335958X1.335958X-0.335958X1.335958X0.335958X-1.335958X0.335958X0*%
%ADD33R,3.700000X1.900000*%
%ADD34RoundRect,0.250000X0.337500X0.475000X-0.337500X0.475000X-0.337500X-0.475000X0.337500X-0.475000X0*%
%ADD35RoundRect,0.237500X-0.300000X-0.237500X0.300000X-0.237500X0.300000X0.237500X-0.300000X0.237500X0*%
%ADD36RoundRect,0.150000X-0.587500X-0.150000X0.587500X-0.150000X0.587500X0.150000X-0.587500X0.150000X0*%
%ADD37RoundRect,0.250000X0.650000X-0.412500X0.650000X0.412500X-0.650000X0.412500X-0.650000X-0.412500X0*%
G04 APERTURE END LIST*
D10*
%TO.C,C503*%
X25362500Y-11000000D03*
X23637500Y-11000000D03*
%TD*%
D11*
%TO.C,C401*%
X31000000Y-15862500D03*
X31000000Y-14137500D03*
%TD*%
D12*
%TO.C,R305*%
X54000000Y-24087500D03*
X54000000Y-25912500D03*
%TD*%
D13*
%TO.C,R505*%
X25412500Y-20000000D03*
X23587500Y-20000000D03*
%TD*%
D14*
%TO.C,R516*%
X14250000Y-23200000D03*
X14250000Y-26300000D03*
%TD*%
D15*
%TO.C,C205*%
X68000000Y-29462500D03*
X68000000Y-31537500D03*
%TD*%
%TO.C,C204*%
X70500000Y-29462500D03*
X70500000Y-31537500D03*
%TD*%
D13*
%TO.C,R512*%
X25412500Y-39000000D03*
X23587500Y-39000000D03*
%TD*%
D10*
%TO.C,C501*%
X25362500Y-33000000D03*
X23637500Y-33000000D03*
%TD*%
D13*
%TO.C,R304*%
X65162500Y-24250000D03*
X63337500Y-24250000D03*
%TD*%
%TO.C,R515*%
X25412500Y-14000000D03*
X23587500Y-14000000D03*
%TD*%
D16*
%TO.C,R302*%
X63337500Y-22250000D03*
X65162500Y-22250000D03*
%TD*%
D10*
%TO.C,C505*%
X25362500Y-37500000D03*
X23637500Y-37500000D03*
%TD*%
D17*
%TO.C,U401*%
X33350000Y-13260000D03*
X33350000Y-14530000D03*
X33350000Y-15800000D03*
X33350000Y-17070000D03*
X33350000Y-18340000D03*
X33350000Y-19610000D03*
X33350000Y-20880000D03*
X33350000Y-22150000D03*
X33350000Y-23420000D03*
X33350000Y-24690000D03*
X33350000Y-25960000D03*
X33350000Y-27230000D03*
X33350000Y-28500000D03*
X33350000Y-29770000D03*
D18*
X36385000Y-31020000D03*
X37655000Y-31020000D03*
X38925000Y-31020000D03*
X40195000Y-31020000D03*
X41465000Y-31020000D03*
X42735000Y-31020000D03*
X44005000Y-31020000D03*
X45275000Y-31020000D03*
X46545000Y-31020000D03*
X47815000Y-31020000D03*
D17*
X50850000Y-29770000D03*
X50850000Y-28500000D03*
X50850000Y-27230000D03*
X50850000Y-25960000D03*
X50850000Y-24690000D03*
X50850000Y-23420000D03*
X50850000Y-22150000D03*
X50850000Y-20880000D03*
X50850000Y-19610000D03*
X50850000Y-18340000D03*
X50850000Y-17070000D03*
X50850000Y-15800000D03*
X50850000Y-14530000D03*
X50850000Y-13260000D03*
D19*
X39200000Y-19200000D03*
X39200000Y-20600000D03*
X39200000Y-22000000D03*
X40600000Y-19200000D03*
X40600000Y-20600000D03*
X40600000Y-22000000D03*
X42000000Y-19200000D03*
X42000000Y-20600000D03*
X42000000Y-22000000D03*
%TD*%
D20*
%TO.C,Q501*%
X21437500Y-21950000D03*
X21437500Y-20050000D03*
X19562500Y-21000000D03*
%TD*%
D21*
%TO.C,R301*%
X31250000Y-29162500D03*
X31250000Y-27337500D03*
%TD*%
D16*
%TO.C,R504*%
X23587500Y-30000000D03*
X25412500Y-30000000D03*
%TD*%
D22*
%TO.C,J502*%
X9600000Y-21000000D03*
X9600000Y-23000000D03*
D23*
X3850000Y-18650000D03*
X3850000Y-25350000D03*
%TD*%
D24*
%TO.C,U501*%
X15375000Y-31500000D03*
X15375000Y-32000000D03*
D25*
X15450000Y-32500000D03*
D24*
X15375000Y-33000000D03*
X15375000Y-33500000D03*
X16525000Y-33500000D03*
X16525000Y-33000000D03*
D25*
X16575000Y-32500000D03*
D24*
X16525000Y-32000000D03*
X16525000Y-31500000D03*
%TD*%
D26*
%TO.C,IC301*%
X56025000Y-21345000D03*
X56025000Y-22615000D03*
X56025000Y-23885000D03*
X56025000Y-25155000D03*
X60975000Y-25155000D03*
X60975000Y-23885000D03*
X60975000Y-22615000D03*
X60975000Y-21345000D03*
%TD*%
D21*
%TO.C,R509*%
X22000000Y-4912500D03*
X22000000Y-3087500D03*
%TD*%
D10*
%TO.C,C502*%
X25362500Y-28500000D03*
X23637500Y-28500000D03*
%TD*%
%TO.C,C506*%
X25362500Y-15500000D03*
X23637500Y-15500000D03*
%TD*%
D16*
%TO.C,R513*%
X23587500Y-40500000D03*
X25412500Y-40500000D03*
%TD*%
%TO.C,R511*%
X23587500Y-5000000D03*
X25412500Y-5000000D03*
%TD*%
D13*
%TO.C,R503*%
X25412500Y-22000000D03*
X23587500Y-22000000D03*
%TD*%
D27*
%TO.C,J101*%
X74025000Y-29620000D03*
X74025000Y-27080000D03*
X74025000Y-24540000D03*
X74025000Y-22000000D03*
X74025000Y-19460000D03*
X74025000Y-16920000D03*
X74025000Y-14380000D03*
%TD*%
D13*
%TO.C,R502*%
X25412500Y-34500000D03*
X23587500Y-34500000D03*
%TD*%
D11*
%TO.C,C201*%
X62500000Y-35612500D03*
X62500000Y-33887500D03*
%TD*%
D28*
%TO.C,D401*%
X23625000Y-18000000D03*
X25375000Y-18000000D03*
%TD*%
D13*
%TO.C,R201*%
X62412500Y-27000000D03*
X60587500Y-27000000D03*
%TD*%
D29*
%TO.C,F201*%
X76500000Y-33012500D03*
X76500000Y-35987500D03*
%TD*%
D30*
%TO.C,U201*%
X64050000Y-36637500D03*
X65000000Y-36637500D03*
X65950000Y-36637500D03*
X65950000Y-34362500D03*
X65000000Y-34362500D03*
X64050000Y-34362500D03*
%TD*%
D31*
%TO.C,D202*%
X73500000Y-39000000D03*
X73500000Y-34000000D03*
%TD*%
D32*
%TO.C,C206*%
X58000000Y-39250000D03*
X58000000Y-36750000D03*
%TD*%
D33*
%TO.C,L201*%
X64500000Y-31850000D03*
X64500000Y-29150000D03*
%TD*%
D16*
%TO.C,R508*%
X23587500Y-8000000D03*
X25412500Y-8000000D03*
%TD*%
%TO.C,R514*%
X23587500Y-12500000D03*
X25412500Y-12500000D03*
%TD*%
%TO.C,R401*%
X37087500Y-9000000D03*
X38912500Y-9000000D03*
%TD*%
D34*
%TO.C,C402*%
X35037500Y-9000000D03*
X32962500Y-9000000D03*
%TD*%
D35*
%TO.C,C301*%
X61137500Y-19500000D03*
X62862500Y-19500000D03*
%TD*%
D36*
%TO.C,D301*%
X68562500Y-22300000D03*
X68562500Y-24200000D03*
X70437500Y-23250000D03*
%TD*%
D10*
%TO.C,C504*%
X25362500Y-6500000D03*
X23637500Y-6500000D03*
%TD*%
D22*
%TO.C,J504*%
X9600000Y-6000000D03*
X9600000Y-8000000D03*
X9600000Y-10000000D03*
X9600000Y-12000000D03*
X9600000Y-14000000D03*
D23*
X3850000Y-3650000D03*
X3850000Y-16350000D03*
%TD*%
D13*
%TO.C,R510*%
X25412500Y-9500000D03*
X23587500Y-9500000D03*
%TD*%
D21*
%TO.C,R501*%
X14250000Y-25662500D03*
X14250000Y-23837500D03*
%TD*%
D16*
%TO.C,R506*%
X23587500Y-31500000D03*
X25412500Y-31500000D03*
%TD*%
D24*
%TO.C,U502*%
X15425000Y-10500000D03*
X15425000Y-11000000D03*
D25*
X15500000Y-11500000D03*
D24*
X15425000Y-12000000D03*
X15425000Y-12500000D03*
X16575000Y-12500000D03*
X16575000Y-12000000D03*
D25*
X16625000Y-11500000D03*
D24*
X16575000Y-11000000D03*
X16575000Y-10500000D03*
%TD*%
D37*
%TO.C,C203*%
X68000000Y-37062500D03*
X68000000Y-33937500D03*
%TD*%
D22*
%TO.C,J501*%
X9600000Y-30000000D03*
X9600000Y-32000000D03*
X9600000Y-34000000D03*
X9600000Y-36000000D03*
X9600000Y-38000000D03*
D23*
X3850000Y-27650000D03*
X3850000Y-40350000D03*
%TD*%
D12*
%TO.C,R303*%
X66750000Y-22337500D03*
X66750000Y-24162500D03*
%TD*%
D16*
%TO.C,R403*%
X57587500Y-28500000D03*
X59412500Y-28500000D03*
%TD*%
D37*
%TO.C,C202*%
X70500000Y-37062500D03*
X70500000Y-33937500D03*
%TD*%
D16*
%TO.C,R507*%
X23587500Y-36000000D03*
X25412500Y-36000000D03*
%TD*%
D21*
%TO.C,R402*%
X27500000Y-21912500D03*
X27500000Y-20087500D03*
%TD*%
D10*
%TO.C,C403*%
X34862500Y-11000000D03*
X33137500Y-11000000D03*
%TD*%
M02*
