%TF.GenerationSoftware,KiCad,Pcbnew,8.0.4*%
%TF.CreationDate,2024-11-25T16:05:12+13:00*%
%TF.ProjectId,CDRC,43445243-2e6b-4696-9361-645f70636258,B*%
%TF.SameCoordinates,Original*%
%TF.FileFunction,Copper,L2,Bot*%
%TF.FilePolarity,Positive*%
%FSLAX46Y46*%
G04 Gerber Fmt 4.6, Leading zero omitted, Abs format (unit mm)*
G04 Created by KiCad (PCBNEW 8.0.4) date 2024-11-25 16:05:12*
%MOMM*%
%LPD*%
G01*
G04 APERTURE LIST*
%TA.AperFunction,ComponentPad*%
%ADD10C,2.000000*%
%TD*%
%TA.AperFunction,HeatsinkPad*%
%ADD11C,0.600000*%
%TD*%
%TA.AperFunction,ComponentPad*%
%ADD12R,1.700000X1.700000*%
%TD*%
%TA.AperFunction,ComponentPad*%
%ADD13O,1.700000X1.700000*%
%TD*%
%TA.AperFunction,ComponentPad*%
%ADD14C,3.100000*%
%TD*%
%TA.AperFunction,ConnectorPad*%
%ADD15C,4.500000*%
%TD*%
%TA.AperFunction,ViaPad*%
%ADD16C,0.600000*%
%TD*%
%TA.AperFunction,ViaPad*%
%ADD17C,0.700000*%
%TD*%
%TA.AperFunction,ViaPad*%
%ADD18C,0.800000*%
%TD*%
%TA.AperFunction,Conductor*%
%ADD19C,0.150000*%
%TD*%
G04 APERTURE END LIST*
D10*
%TO.P,TP101,1,1*%
%TO.N,GND*%
X69500000Y-19500000D03*
%TD*%
D11*
%TO.P,U401,39,GND*%
%TO.N,GND*%
X39200000Y-19900000D03*
X39200000Y-21300000D03*
X39900000Y-19200000D03*
X39900000Y-20600000D03*
X39900000Y-22000000D03*
X40600000Y-19900000D03*
X40600000Y-21300000D03*
X41300000Y-19200000D03*
X41300000Y-20600000D03*
X41300000Y-22000000D03*
X42000000Y-19900000D03*
X42000000Y-21300000D03*
%TD*%
D12*
%TO.P,J301,1,Pin_1*%
%TO.N,VCC*%
X65500000Y-4750000D03*
D13*
%TO.P,J301,2,Pin_2*%
%TO.N,GND*%
X62960000Y-4750000D03*
%TO.P,J301,3,Pin_3*%
%TO.N,/MCU/ESP_RXD0*%
X60420000Y-4750000D03*
%TO.P,J301,4,Pin_4*%
%TO.N,/MCU/ESP_TXD0*%
X57880000Y-4750000D03*
%TO.P,J301,5,Pin_5*%
%TO.N,/MCU/ESP_BOOT0*%
X55340000Y-4750000D03*
%TO.P,J301,6,Pin_6*%
%TO.N,/MCU/ESP_EN*%
X52800000Y-4750000D03*
%TD*%
D10*
%TO.P,TP508,1,1*%
%TO.N,GND*%
X16000000Y-15500000D03*
%TD*%
D14*
%TO.P,H104,1*%
%TO.N,N/C*%
X83500000Y-38500000D03*
D15*
X83500000Y-38500000D03*
%TD*%
D14*
%TO.P,H102,1*%
%TO.N,N/C*%
X83500000Y-5500000D03*
D15*
X83500000Y-5500000D03*
%TD*%
D14*
%TO.P,H103,1*%
%TO.N,N/C*%
X16000000Y-5500000D03*
D15*
X16000000Y-5500000D03*
%TD*%
D14*
%TO.P,H101,1*%
%TO.N,N/C*%
X16000000Y-38500000D03*
D15*
X16000000Y-38500000D03*
%TD*%
D16*
%TO.N,GND*%
X49250000Y-9250000D03*
D17*
X56000000Y-6500000D03*
X46000000Y-8250000D03*
X48000000Y-7250000D03*
D18*
X79500000Y-43000000D03*
X29500000Y-4500000D03*
X64000000Y-7000000D03*
X35000000Y-29000000D03*
X19500000Y-34500000D03*
X1000000Y-12000000D03*
X7000000Y-33000000D03*
X35000000Y-30500000D03*
X88000000Y-12000000D03*
X88000000Y-42000000D03*
X82000000Y-9500000D03*
X29500000Y-43000000D03*
X52000000Y-37000000D03*
D17*
X22500000Y-33000000D03*
D18*
X37000000Y-22000000D03*
X24500000Y-43000000D03*
X14500000Y-17000000D03*
X17000000Y-24500000D03*
X47000000Y-19500000D03*
X44500000Y-11000000D03*
X82000000Y-32000000D03*
X32000000Y-34500000D03*
X44500000Y-14500000D03*
X69500000Y-1000000D03*
X71750000Y-22750000D03*
X34500000Y-37000000D03*
X58000000Y-18000000D03*
X88000000Y-17000000D03*
X59500000Y-43000000D03*
X7000000Y-31000000D03*
X19500000Y-29500000D03*
X62862500Y-20387500D03*
X77000000Y-9500000D03*
X42000000Y-11000000D03*
X34500000Y-1000000D03*
X69500000Y-14500000D03*
X54500000Y-1000000D03*
X35000000Y-33000000D03*
X1000000Y-27000000D03*
X47000000Y-37000000D03*
X51250000Y-9250000D03*
X14500000Y-9500000D03*
X27000000Y-4500000D03*
X49500000Y-43000000D03*
X64000000Y-9500000D03*
X31500000Y-12000000D03*
X84500000Y-32000000D03*
X30250000Y-11000000D03*
X19500000Y-4500000D03*
X47000000Y-22000000D03*
X13500000Y-12000000D03*
X14500000Y-29500000D03*
X67000000Y-12000000D03*
X58000000Y-16000000D03*
X42000000Y-24500000D03*
X31000000Y-12750000D03*
X69500000Y-7000000D03*
X44500000Y-19500000D03*
X82000000Y-12000000D03*
X74500000Y-43000000D03*
X64000000Y-16000000D03*
X72000000Y-7000000D03*
X37000000Y-19500000D03*
X69500000Y-12000000D03*
X11000000Y-4500000D03*
X77000000Y-7000000D03*
X79500000Y-4500000D03*
X79500000Y-9500000D03*
X22250000Y-6500000D03*
X37000000Y-24500000D03*
X77000000Y-27000000D03*
X1000000Y-42000000D03*
X44500000Y-24500000D03*
X34500000Y-43000000D03*
X4500000Y-1000000D03*
X47000000Y-29500000D03*
X29500000Y-7000000D03*
X64500000Y-1000000D03*
X67000000Y-9500000D03*
X67000000Y-7000000D03*
X13500000Y-32750000D03*
D17*
X22500000Y-37500000D03*
D18*
X14500000Y-19500000D03*
X64500000Y-43000000D03*
X72000000Y-12000000D03*
X84500000Y-1000000D03*
X22000000Y-14500000D03*
X1000000Y-32000000D03*
X47000000Y-14500000D03*
D17*
X22000000Y-18000000D03*
D18*
X52750000Y-20500000D03*
X19500000Y-9500000D03*
X79500000Y-24500000D03*
X9500000Y-1000000D03*
X39500000Y-34500000D03*
X31500000Y-9000000D03*
X74500000Y-1000000D03*
X42000000Y-17000000D03*
X69500000Y-9500000D03*
X54500000Y-43000000D03*
X79500000Y-12000000D03*
X88000000Y-32000000D03*
X79500000Y-14500000D03*
X62405000Y-25155000D03*
X79500000Y-19500000D03*
X36500000Y-29000000D03*
X69250000Y-31500000D03*
X79500000Y-29500000D03*
X22250000Y-8500000D03*
X44500000Y-1000000D03*
X32000000Y-7000000D03*
X9500000Y-43000000D03*
X77000000Y-14500000D03*
X60000000Y-16000000D03*
X39500000Y-37000000D03*
X79500000Y-37000000D03*
X74000000Y-18250000D03*
X47000000Y-17000000D03*
X84500000Y-34500000D03*
X61000000Y-32000000D03*
X10000000Y-4500000D03*
X19500000Y-37000000D03*
X69500000Y-17000000D03*
X71750000Y-23750000D03*
X17000000Y-34500000D03*
X62000000Y-16000000D03*
X19500000Y-43000000D03*
X36500000Y-33000000D03*
X61000000Y-34000000D03*
X44500000Y-34500000D03*
X64500000Y-19500000D03*
X72000000Y-14500000D03*
X67000000Y-19500000D03*
X39500000Y-43000000D03*
X79500000Y-39500000D03*
X17000000Y-9500000D03*
X14500000Y-1000000D03*
X14500000Y-43000000D03*
X12000000Y-19500000D03*
X70500000Y-32750000D03*
X42000000Y-34500000D03*
X26500000Y-21000000D03*
X1000000Y-37000000D03*
X7000000Y-36000000D03*
X17000000Y-29500000D03*
X61000000Y-30000000D03*
D17*
X22000000Y-15500000D03*
D18*
X24500000Y-1000000D03*
X39500000Y-17000000D03*
X19500000Y-17000000D03*
X68000000Y-32750000D03*
X44500000Y-17000000D03*
X42000000Y-29500000D03*
X57500000Y-26500000D03*
X49500000Y-1000000D03*
X74500000Y-7000000D03*
X37000000Y-37000000D03*
X32000000Y-32000000D03*
X84500000Y-43000000D03*
X47000000Y-24500000D03*
X54250000Y-20500000D03*
X37000000Y-17000000D03*
X4500000Y-43000000D03*
X42000000Y-14500000D03*
X67000000Y-4500000D03*
X69500000Y-43000000D03*
X1000000Y-2000000D03*
X7000000Y-35000000D03*
X64000000Y-12000000D03*
X69250000Y-34000000D03*
X77000000Y-17000000D03*
X59500000Y-1000000D03*
X47000000Y-11000000D03*
X13000000Y-4500000D03*
X77000000Y-24500000D03*
D17*
X22500000Y-11000000D03*
D18*
X88000000Y-37000000D03*
X88000000Y-27000000D03*
X79500000Y-1000000D03*
X67000000Y-14500000D03*
X39500000Y-24500000D03*
D17*
X57500000Y-22600000D03*
D18*
X44500000Y-43000000D03*
X84500000Y-9500000D03*
X49500000Y-37000000D03*
X19500000Y-7000000D03*
X7000000Y-32000000D03*
X67000000Y-17000000D03*
X12000000Y-4500000D03*
X29500000Y-1000000D03*
D17*
X22500000Y-28500000D03*
D18*
X35000000Y-32000000D03*
X57500000Y-24500000D03*
X1000000Y-22000000D03*
X58000000Y-20000000D03*
X1000000Y-17000000D03*
X69250000Y-32750000D03*
X44500000Y-29500000D03*
X74500000Y-12000000D03*
X74500000Y-9500000D03*
X84500000Y-12000000D03*
X74000000Y-20750000D03*
X17000000Y-19500000D03*
X52500000Y-13250000D03*
X79500000Y-7000000D03*
X19500000Y-1000000D03*
X52500000Y-14750000D03*
X19500000Y-14500000D03*
X77000000Y-12000000D03*
X88000000Y-2000000D03*
X58000000Y-14500000D03*
X72000000Y-9500000D03*
X22250000Y-7500000D03*
X82000000Y-34500000D03*
X61000000Y-7250000D03*
X52500000Y-16000000D03*
X47000000Y-34500000D03*
X7000000Y-37000000D03*
X88000000Y-7000000D03*
X1000000Y-7000000D03*
X79500000Y-22000000D03*
X39500000Y-1000000D03*
X77000000Y-22000000D03*
X53500000Y-9000000D03*
X32000000Y-4500000D03*
X52000000Y-11000000D03*
X39500000Y-29500000D03*
X88000000Y-22000000D03*
X50500000Y-11000000D03*
X19500000Y-24500000D03*
X12000000Y-17000000D03*
X42000000Y-37000000D03*
D17*
X54000000Y-27000000D03*
D18*
X77000000Y-19500000D03*
X44500000Y-22000000D03*
X79500000Y-27000000D03*
X34500000Y-34500000D03*
X26500000Y-18750000D03*
X79500000Y-17000000D03*
X22000000Y-17000000D03*
X32000000Y-37000000D03*
X31500000Y-11000000D03*
X44500000Y-37000000D03*
X74000000Y-15750000D03*
X14500000Y-34500000D03*
D17*
%TO.N,/MCU/ESP_RXD0*%
X47000000Y-8250000D03*
X48500000Y-10500000D03*
%TO.N,/MCU/ESP_EN*%
X56750000Y-6000000D03*
%TO.N,/MCU/ESP_TXD0*%
X48000000Y-6250000D03*
X50250000Y-9250000D03*
%TO.N,/MCU/IO25*%
X35000000Y-20500000D03*
X31750000Y-20250000D03*
%TD*%
D19*
%TO.N,/MCU/ESP_RXD0*%
X47000000Y-8250000D02*
X47500000Y-8250000D01*
X47500000Y-8250000D02*
X48500000Y-9250000D01*
X48500000Y-9250000D02*
X48500000Y-10500000D01*
%TO.N,/MCU/ESP_TXD0*%
X48000000Y-6250000D02*
X48075000Y-6175000D01*
X48075000Y-6175000D02*
X49175000Y-6175000D01*
X49175000Y-6175000D02*
X50250000Y-7250000D01*
X50250000Y-7250000D02*
X50250000Y-9250000D01*
%TO.N,/MCU/ESP_EN*%
X52800000Y-4750000D02*
X52800000Y-3950000D01*
X53125000Y-3625000D02*
X55875000Y-3625000D01*
X56750000Y-4500000D02*
X56750000Y-6000000D01*
X55875000Y-3625000D02*
X56750000Y-4500000D01*
X52800000Y-3950000D02*
X53125000Y-3625000D01*
%TO.N,/MCU/IO25*%
X31750000Y-20250000D02*
X34750000Y-20250000D01*
X34750000Y-20250000D02*
X35000000Y-20500000D01*
%TD*%
%TA.AperFunction,Conductor*%
%TO.N,GND*%
G36*
X88006922Y-401279D02*
G01*
X88119518Y-413966D01*
X88146583Y-420143D01*
X88246927Y-455255D01*
X88271941Y-467301D01*
X88361955Y-523860D01*
X88383662Y-541172D01*
X88458827Y-616337D01*
X88476140Y-638046D01*
X88532697Y-728056D01*
X88544745Y-753074D01*
X88579855Y-853414D01*
X88586033Y-880484D01*
X88598720Y-993077D01*
X88599500Y-1006961D01*
X88599500Y-42993038D01*
X88598720Y-43006922D01*
X88586033Y-43119515D01*
X88579855Y-43146585D01*
X88544745Y-43246925D01*
X88532697Y-43271943D01*
X88476140Y-43361953D01*
X88458827Y-43383662D01*
X88383662Y-43458827D01*
X88361953Y-43476140D01*
X88271943Y-43532697D01*
X88246925Y-43544745D01*
X88146585Y-43579855D01*
X88119516Y-43586033D01*
X88034855Y-43595572D01*
X88006921Y-43598720D01*
X87993039Y-43599500D01*
X1006961Y-43599500D01*
X993077Y-43598720D01*
X880484Y-43586033D01*
X853414Y-43579855D01*
X753074Y-43544745D01*
X728056Y-43532697D01*
X638046Y-43476140D01*
X616337Y-43458827D01*
X541172Y-43383662D01*
X523859Y-43361953D01*
X467302Y-43271943D01*
X455254Y-43246925D01*
X420144Y-43146585D01*
X413966Y-43119514D01*
X401280Y-43006921D01*
X400500Y-42993038D01*
X400500Y-38499994D01*
X13594754Y-38499994D01*
X13594754Y-38500005D01*
X13613718Y-38801446D01*
X13613719Y-38801453D01*
X13670320Y-39098164D01*
X13763659Y-39385431D01*
X13763661Y-39385436D01*
X13892265Y-39658732D01*
X13892268Y-39658738D01*
X14054111Y-39913763D01*
X14246652Y-40146505D01*
X14466836Y-40353272D01*
X14466846Y-40353280D01*
X14711193Y-40530808D01*
X14711198Y-40530810D01*
X14711205Y-40530816D01*
X14975896Y-40676332D01*
X14975901Y-40676334D01*
X14975903Y-40676335D01*
X14975904Y-40676336D01*
X15256734Y-40787524D01*
X15256737Y-40787525D01*
X15354259Y-40812564D01*
X15549302Y-40862642D01*
X15696039Y-40881179D01*
X15848963Y-40900499D01*
X15848969Y-40900499D01*
X15848973Y-40900500D01*
X15848975Y-40900500D01*
X16151025Y-40900500D01*
X16151027Y-40900500D01*
X16151032Y-40900499D01*
X16151036Y-40900499D01*
X16230591Y-40890448D01*
X16450698Y-40862642D01*
X16743262Y-40787525D01*
X16743265Y-40787524D01*
X17024095Y-40676336D01*
X17024096Y-40676335D01*
X17024094Y-40676335D01*
X17024104Y-40676332D01*
X17288795Y-40530816D01*
X17533162Y-40353274D01*
X17753349Y-40146504D01*
X17945885Y-39913768D01*
X18107733Y-39658736D01*
X18236341Y-39385430D01*
X18329681Y-39098160D01*
X18386280Y-38801457D01*
X18405246Y-38500000D01*
X18405246Y-38499994D01*
X81094754Y-38499994D01*
X81094754Y-38500005D01*
X81113718Y-38801446D01*
X81113719Y-38801453D01*
X81170320Y-39098164D01*
X81263659Y-39385431D01*
X81263661Y-39385436D01*
X81392265Y-39658732D01*
X81392268Y-39658738D01*
X81554111Y-39913763D01*
X81746652Y-40146505D01*
X81966836Y-40353272D01*
X81966846Y-40353280D01*
X82211193Y-40530808D01*
X82211198Y-40530810D01*
X82211205Y-40530816D01*
X82475896Y-40676332D01*
X82475901Y-40676334D01*
X82475903Y-40676335D01*
X82475904Y-40676336D01*
X82756734Y-40787524D01*
X82756737Y-40787525D01*
X82854259Y-40812564D01*
X83049302Y-40862642D01*
X83196039Y-40881179D01*
X83348963Y-40900499D01*
X83348969Y-40900499D01*
X83348973Y-40900500D01*
X83348975Y-40900500D01*
X83651025Y-40900500D01*
X83651027Y-40900500D01*
X83651032Y-40900499D01*
X83651036Y-40900499D01*
X83730591Y-40890448D01*
X83950698Y-40862642D01*
X84243262Y-40787525D01*
X84243265Y-40787524D01*
X84524095Y-40676336D01*
X84524096Y-40676335D01*
X84524094Y-40676335D01*
X84524104Y-40676332D01*
X84788795Y-40530816D01*
X85033162Y-40353274D01*
X85253349Y-40146504D01*
X85445885Y-39913768D01*
X85607733Y-39658736D01*
X85736341Y-39385430D01*
X85829681Y-39098160D01*
X85886280Y-38801457D01*
X85905246Y-38500000D01*
X85886280Y-38198543D01*
X85829681Y-37901840D01*
X85736341Y-37614570D01*
X85607733Y-37341264D01*
X85445885Y-37086232D01*
X85253349Y-36853496D01*
X85033162Y-36646726D01*
X85033159Y-36646724D01*
X85033153Y-36646719D01*
X84788806Y-36469191D01*
X84788799Y-36469186D01*
X84788795Y-36469184D01*
X84524104Y-36323668D01*
X84524101Y-36323666D01*
X84524096Y-36323664D01*
X84524095Y-36323663D01*
X84243265Y-36212475D01*
X84243262Y-36212474D01*
X83950695Y-36137357D01*
X83651036Y-36099500D01*
X83651027Y-36099500D01*
X83348973Y-36099500D01*
X83348963Y-36099500D01*
X83049304Y-36137357D01*
X82756737Y-36212474D01*
X82756734Y-36212475D01*
X82475904Y-36323663D01*
X82475903Y-36323664D01*
X82211205Y-36469184D01*
X82211193Y-36469191D01*
X81966846Y-36646719D01*
X81966836Y-36646727D01*
X81746652Y-36853494D01*
X81554111Y-37086236D01*
X81392268Y-37341261D01*
X81392265Y-37341267D01*
X81263661Y-37614563D01*
X81263659Y-37614568D01*
X81170320Y-37901835D01*
X81113719Y-38198546D01*
X81113718Y-38198553D01*
X81094754Y-38499994D01*
X18405246Y-38499994D01*
X18386280Y-38198543D01*
X18329681Y-37901840D01*
X18236341Y-37614570D01*
X18107733Y-37341264D01*
X17945885Y-37086232D01*
X17753349Y-36853496D01*
X17533162Y-36646726D01*
X17533159Y-36646724D01*
X17533153Y-36646719D01*
X17288806Y-36469191D01*
X17288799Y-36469186D01*
X17288795Y-36469184D01*
X17024104Y-36323668D01*
X17024101Y-36323666D01*
X17024096Y-36323664D01*
X17024095Y-36323663D01*
X16743265Y-36212475D01*
X16743262Y-36212474D01*
X16450695Y-36137357D01*
X16151036Y-36099500D01*
X16151027Y-36099500D01*
X15848973Y-36099500D01*
X15848963Y-36099500D01*
X15549304Y-36137357D01*
X15256737Y-36212474D01*
X15256734Y-36212475D01*
X14975904Y-36323663D01*
X14975903Y-36323664D01*
X14711205Y-36469184D01*
X14711193Y-36469191D01*
X14466846Y-36646719D01*
X14466836Y-36646727D01*
X14246652Y-36853494D01*
X14054111Y-37086236D01*
X13892268Y-37341261D01*
X13892265Y-37341267D01*
X13763661Y-37614563D01*
X13763659Y-37614568D01*
X13670320Y-37901835D01*
X13613719Y-38198546D01*
X13613718Y-38198553D01*
X13594754Y-38499994D01*
X400500Y-38499994D01*
X400500Y-22648446D01*
X39428328Y-22648446D01*
X39550697Y-22725336D01*
X39720858Y-22784877D01*
X39720861Y-22784878D01*
X39899997Y-22805062D01*
X39900003Y-22805062D01*
X40079138Y-22784878D01*
X40079141Y-22784877D01*
X40249304Y-22725335D01*
X40249310Y-22725332D01*
X40371670Y-22648447D01*
X40371670Y-22648446D01*
X40828328Y-22648446D01*
X40950697Y-22725336D01*
X41120858Y-22784877D01*
X41120861Y-22784878D01*
X41299997Y-22805062D01*
X41300003Y-22805062D01*
X41479138Y-22784878D01*
X41479141Y-22784877D01*
X41649304Y-22725335D01*
X41649310Y-22725332D01*
X41771670Y-22648447D01*
X41771670Y-22648446D01*
X41300001Y-22176776D01*
X41300000Y-22176776D01*
X40828328Y-22648446D01*
X40371670Y-22648446D01*
X39900001Y-22176776D01*
X39900000Y-22176776D01*
X39428328Y-22648446D01*
X400500Y-22648446D01*
X400500Y-21948446D01*
X38728328Y-21948446D01*
X38850697Y-22025336D01*
X39020859Y-22084878D01*
X39021644Y-22085057D01*
X39022099Y-22085311D01*
X39027430Y-22087177D01*
X39027103Y-22088110D01*
X39082623Y-22119166D01*
X39111952Y-22172875D01*
X39112823Y-22172571D01*
X39114672Y-22177855D01*
X39114940Y-22178346D01*
X39115120Y-22179137D01*
X39174664Y-22349304D01*
X39251551Y-22471670D01*
X39251552Y-22471671D01*
X39723223Y-22000000D01*
X39723223Y-21999999D01*
X39703333Y-21980109D01*
X39800000Y-21980109D01*
X39800000Y-22019891D01*
X39815224Y-22056645D01*
X39843355Y-22084776D01*
X39880109Y-22100000D01*
X39919891Y-22100000D01*
X39956645Y-22084776D01*
X39984776Y-22056645D01*
X40000000Y-22019891D01*
X40000000Y-22000000D01*
X40076776Y-22000000D01*
X40548446Y-22471670D01*
X40586113Y-22467426D01*
X40613884Y-22467426D01*
X40651553Y-22471670D01*
X41123223Y-22000001D01*
X41123223Y-21999999D01*
X41103333Y-21980109D01*
X41200000Y-21980109D01*
X41200000Y-22019891D01*
X41215224Y-22056645D01*
X41243355Y-22084776D01*
X41280109Y-22100000D01*
X41319891Y-22100000D01*
X41356645Y-22084776D01*
X41384776Y-22056645D01*
X41400000Y-22019891D01*
X41400000Y-22000000D01*
X41476776Y-22000000D01*
X41948446Y-22471670D01*
X41948447Y-22471670D01*
X42025332Y-22349310D01*
X42025335Y-22349304D01*
X42084876Y-22179144D01*
X42085056Y-22178358D01*
X42085311Y-22177901D01*
X42087177Y-22172570D01*
X42088110Y-22172896D01*
X42119164Y-22117379D01*
X42172875Y-22088049D01*
X42172570Y-22087177D01*
X42177870Y-22085322D01*
X42178358Y-22085056D01*
X42179144Y-22084876D01*
X42349304Y-22025335D01*
X42349310Y-22025332D01*
X42471670Y-21948447D01*
X42471670Y-21948446D01*
X42000000Y-21476776D01*
X41476776Y-22000000D01*
X41400000Y-22000000D01*
X41400000Y-21980109D01*
X41384776Y-21943355D01*
X41356645Y-21915224D01*
X41319891Y-21900000D01*
X41280109Y-21900000D01*
X41243355Y-21915224D01*
X41215224Y-21943355D01*
X41200000Y-21980109D01*
X41103333Y-21980109D01*
X40600000Y-21476776D01*
X40076776Y-22000000D01*
X40000000Y-22000000D01*
X40000000Y-21980109D01*
X39984776Y-21943355D01*
X39956645Y-21915224D01*
X39919891Y-21900000D01*
X39880109Y-21900000D01*
X39843355Y-21915224D01*
X39815224Y-21943355D01*
X39800000Y-21980109D01*
X39703333Y-21980109D01*
X39372527Y-21649303D01*
X39200001Y-21476776D01*
X39200000Y-21476776D01*
X38728328Y-21948446D01*
X400500Y-21948446D01*
X400500Y-21299997D01*
X38394938Y-21299997D01*
X38394938Y-21300002D01*
X38415121Y-21479138D01*
X38415122Y-21479141D01*
X38474664Y-21649303D01*
X38551551Y-21771670D01*
X38551552Y-21771671D01*
X39023223Y-21300000D01*
X39023223Y-21299999D01*
X39003333Y-21280109D01*
X39100000Y-21280109D01*
X39100000Y-21319891D01*
X39115224Y-21356645D01*
X39143355Y-21384776D01*
X39180109Y-21400000D01*
X39219891Y-21400000D01*
X39256645Y-21384776D01*
X39284776Y-21356645D01*
X39300000Y-21319891D01*
X39300000Y-21300000D01*
X39376776Y-21300000D01*
X39553553Y-21476777D01*
X39900000Y-21823223D01*
X40246447Y-21476777D01*
X40423223Y-21300000D01*
X40423223Y-21299999D01*
X40403333Y-21280109D01*
X40500000Y-21280109D01*
X40500000Y-21319891D01*
X40515224Y-21356645D01*
X40543355Y-21384776D01*
X40580109Y-21400000D01*
X40619891Y-21400000D01*
X40656645Y-21384776D01*
X40684776Y-21356645D01*
X40700000Y-21319891D01*
X40700000Y-21300000D01*
X40776776Y-21300000D01*
X40953553Y-21476777D01*
X41300000Y-21823223D01*
X41646447Y-21476777D01*
X41823223Y-21300000D01*
X41823223Y-21299999D01*
X41803333Y-21280109D01*
X41900000Y-21280109D01*
X41900000Y-21319891D01*
X41915224Y-21356645D01*
X41943355Y-21384776D01*
X41980109Y-21400000D01*
X42019891Y-21400000D01*
X42056645Y-21384776D01*
X42084776Y-21356645D01*
X42100000Y-21319891D01*
X42100000Y-21299999D01*
X42176776Y-21299999D01*
X42176776Y-21300000D01*
X42648446Y-21771670D01*
X42648447Y-21771670D01*
X42725332Y-21649310D01*
X42725336Y-21649303D01*
X42784877Y-21479141D01*
X42784878Y-21479138D01*
X42805062Y-21300002D01*
X42805062Y-21299997D01*
X42784878Y-21120861D01*
X42784877Y-21120858D01*
X42725336Y-20950697D01*
X42648446Y-20828328D01*
X42176776Y-21299999D01*
X42100000Y-21299999D01*
X42100000Y-21280109D01*
X42084776Y-21243355D01*
X42056645Y-21215224D01*
X42019891Y-21200000D01*
X41980109Y-21200000D01*
X41943355Y-21215224D01*
X41915224Y-21243355D01*
X41900000Y-21280109D01*
X41803333Y-21280109D01*
X41300000Y-20776776D01*
X40776776Y-21300000D01*
X40700000Y-21300000D01*
X40700000Y-21280109D01*
X40684776Y-21243355D01*
X40656645Y-21215224D01*
X40619891Y-21200000D01*
X40580109Y-21200000D01*
X40543355Y-21215224D01*
X40515224Y-21243355D01*
X40500000Y-21280109D01*
X40403333Y-21280109D01*
X39900000Y-20776776D01*
X39376776Y-21300000D01*
X39300000Y-21300000D01*
X39300000Y-21280109D01*
X39284776Y-21243355D01*
X39256645Y-21215224D01*
X39219891Y-21200000D01*
X39180109Y-21200000D01*
X39143355Y-21215224D01*
X39115224Y-21243355D01*
X39100000Y-21280109D01*
X39003333Y-21280109D01*
X38551552Y-20828327D01*
X38551551Y-20828327D01*
X38474664Y-20950695D01*
X38415122Y-21120858D01*
X38415121Y-21120861D01*
X38394938Y-21299997D01*
X400500Y-21299997D01*
X400500Y-20250000D01*
X31244353Y-20250000D01*
X31264834Y-20392456D01*
X31279457Y-20424475D01*
X31324623Y-20523373D01*
X31418872Y-20632143D01*
X31539947Y-20709953D01*
X31539950Y-20709954D01*
X31539949Y-20709954D01*
X31678036Y-20750499D01*
X31678038Y-20750500D01*
X31678039Y-20750500D01*
X31821962Y-20750500D01*
X31821962Y-20750499D01*
X31960053Y-20709953D01*
X32081128Y-20632143D01*
X32175377Y-20523373D01*
X32175377Y-20523371D01*
X32179775Y-20518297D01*
X32238553Y-20480523D01*
X32273488Y-20475500D01*
X34383384Y-20475500D01*
X34450423Y-20495185D01*
X34496178Y-20547989D01*
X34506121Y-20581851D01*
X34508385Y-20597596D01*
X34514834Y-20642456D01*
X34545660Y-20709954D01*
X34574623Y-20773373D01*
X34668872Y-20882143D01*
X34789947Y-20959953D01*
X34789950Y-20959954D01*
X34789949Y-20959954D01*
X34897107Y-20991417D01*
X34926336Y-21000000D01*
X34928036Y-21000499D01*
X34928038Y-21000500D01*
X34928039Y-21000500D01*
X35071962Y-21000500D01*
X35071962Y-21000499D01*
X35210053Y-20959953D01*
X35331128Y-20882143D01*
X35425377Y-20773373D01*
X35485165Y-20642457D01*
X35498681Y-20548447D01*
X38728327Y-20548447D01*
X38732572Y-20586116D01*
X38732572Y-20613882D01*
X38728327Y-20651551D01*
X39200000Y-21123223D01*
X39549851Y-20773373D01*
X39723223Y-20600000D01*
X39723223Y-20599999D01*
X39703333Y-20580109D01*
X39800000Y-20580109D01*
X39800000Y-20619891D01*
X39815224Y-20656645D01*
X39843355Y-20684776D01*
X39880109Y-20700000D01*
X39919891Y-20700000D01*
X39956645Y-20684776D01*
X39984776Y-20656645D01*
X40000000Y-20619891D01*
X40000000Y-20600000D01*
X40076776Y-20600000D01*
X40250149Y-20773373D01*
X40600000Y-21123223D01*
X40949851Y-20773373D01*
X41123223Y-20600000D01*
X41123223Y-20599999D01*
X41103333Y-20580109D01*
X41200000Y-20580109D01*
X41200000Y-20619891D01*
X41215224Y-20656645D01*
X41243355Y-20684776D01*
X41280109Y-20700000D01*
X41319891Y-20700000D01*
X41356645Y-20684776D01*
X41384776Y-20656645D01*
X41400000Y-20619891D01*
X41400000Y-20600000D01*
X41476776Y-20600000D01*
X41650149Y-20773373D01*
X42000000Y-21123223D01*
X42000001Y-21123223D01*
X42471670Y-20651553D01*
X42467426Y-20613884D01*
X42467426Y-20586113D01*
X42471670Y-20548446D01*
X42000000Y-20076776D01*
X41476776Y-20600000D01*
X41400000Y-20600000D01*
X41400000Y-20580109D01*
X41384776Y-20543355D01*
X41356645Y-20515224D01*
X41319891Y-20500000D01*
X41280109Y-20500000D01*
X41243355Y-20515224D01*
X41215224Y-20543355D01*
X41200000Y-20580109D01*
X41103333Y-20580109D01*
X40600000Y-20076776D01*
X40076776Y-20600000D01*
X40000000Y-20600000D01*
X40000000Y-20580109D01*
X39984776Y-20543355D01*
X39956645Y-20515224D01*
X39919891Y-20500000D01*
X39880109Y-20500000D01*
X39843355Y-20515224D01*
X39815224Y-20543355D01*
X39800000Y-20580109D01*
X39703333Y-20580109D01*
X39372527Y-20249303D01*
X39200001Y-20076776D01*
X39200000Y-20076776D01*
X38728327Y-20548447D01*
X35498681Y-20548447D01*
X35505647Y-20500000D01*
X35485165Y-20357543D01*
X35425377Y-20226627D01*
X35331128Y-20117857D01*
X35210053Y-20040047D01*
X35210051Y-20040046D01*
X35210049Y-20040045D01*
X35210050Y-20040045D01*
X35071963Y-19999500D01*
X35071961Y-19999500D01*
X34928039Y-19999500D01*
X34871662Y-20016053D01*
X34852734Y-20021611D01*
X34807068Y-20023651D01*
X34807068Y-20024499D01*
X34690711Y-20024499D01*
X34690703Y-20024500D01*
X32273488Y-20024500D01*
X32206449Y-20004815D01*
X32179775Y-19981703D01*
X32175376Y-19976626D01*
X32108977Y-19899997D01*
X38394938Y-19899997D01*
X38394938Y-19900002D01*
X38415121Y-20079138D01*
X38415122Y-20079141D01*
X38474664Y-20249303D01*
X38551551Y-20371670D01*
X38551552Y-20371671D01*
X39023223Y-19900000D01*
X39023223Y-19899999D01*
X39003333Y-19880109D01*
X39100000Y-19880109D01*
X39100000Y-19919891D01*
X39115224Y-19956645D01*
X39143355Y-19984776D01*
X39180109Y-20000000D01*
X39219891Y-20000000D01*
X39256645Y-19984776D01*
X39284776Y-19956645D01*
X39300000Y-19919891D01*
X39300000Y-19900000D01*
X39376776Y-19900000D01*
X39553553Y-20076777D01*
X39900000Y-20423223D01*
X40246447Y-20076777D01*
X40423223Y-19900000D01*
X40423223Y-19899999D01*
X40403333Y-19880109D01*
X40500000Y-19880109D01*
X40500000Y-19919891D01*
X40515224Y-19956645D01*
X40543355Y-19984776D01*
X40580109Y-20000000D01*
X40619891Y-20000000D01*
X40656645Y-19984776D01*
X40684776Y-19956645D01*
X40700000Y-19919891D01*
X40700000Y-19900000D01*
X40776776Y-19900000D01*
X40953553Y-20076777D01*
X41300000Y-20423223D01*
X41646447Y-20076777D01*
X41823223Y-19900000D01*
X41823223Y-19899999D01*
X41803333Y-19880109D01*
X41900000Y-19880109D01*
X41900000Y-19919891D01*
X41915224Y-19956645D01*
X41943355Y-19984776D01*
X41980109Y-20000000D01*
X42019891Y-20000000D01*
X42056645Y-19984776D01*
X42084776Y-19956645D01*
X42100000Y-19919891D01*
X42100000Y-19899999D01*
X42176776Y-19899999D01*
X42176776Y-19900000D01*
X42648446Y-20371670D01*
X42648447Y-20371670D01*
X42725332Y-20249310D01*
X42725336Y-20249303D01*
X42784877Y-20079141D01*
X42784878Y-20079138D01*
X42805062Y-19900002D01*
X42805062Y-19899997D01*
X42784878Y-19720861D01*
X42784877Y-19720858D01*
X42725336Y-19550697D01*
X42693477Y-19499994D01*
X67994859Y-19499994D01*
X67994859Y-19500005D01*
X68015385Y-19747729D01*
X68015387Y-19747738D01*
X68076412Y-19988717D01*
X68176266Y-20216364D01*
X68312237Y-20424483D01*
X68353699Y-20469521D01*
X68353701Y-20469521D01*
X69069270Y-19753952D01*
X69099901Y-19807007D01*
X69192993Y-19900099D01*
X69246046Y-19930729D01*
X68530537Y-20646238D01*
X68530537Y-20646239D01*
X68676769Y-20760056D01*
X68676771Y-20760057D01*
X68895385Y-20878364D01*
X68895396Y-20878369D01*
X69130506Y-20959083D01*
X69375707Y-21000000D01*
X69624293Y-21000000D01*
X69869493Y-20959083D01*
X70104603Y-20878369D01*
X70104614Y-20878364D01*
X70323228Y-20760057D01*
X70323231Y-20760055D01*
X70469461Y-20646238D01*
X69753952Y-19930729D01*
X69807007Y-19900099D01*
X69900099Y-19807007D01*
X69930729Y-19753953D01*
X70646298Y-20469522D01*
X70687769Y-20424475D01*
X70823732Y-20216367D01*
X70923587Y-19988717D01*
X70984612Y-19747738D01*
X70984614Y-19747729D01*
X71005141Y-19500005D01*
X71005141Y-19499994D01*
X70984614Y-19252270D01*
X70984612Y-19252261D01*
X70923587Y-19011282D01*
X70823733Y-18783635D01*
X70687766Y-18575522D01*
X70687757Y-18575510D01*
X70646299Y-18530477D01*
X70646297Y-18530477D01*
X69930729Y-19246046D01*
X69900099Y-19192993D01*
X69807007Y-19099901D01*
X69753952Y-19069270D01*
X70469461Y-18353760D01*
X70469461Y-18353759D01*
X70323236Y-18239947D01*
X70323231Y-18239944D01*
X70104614Y-18121635D01*
X70104603Y-18121630D01*
X69869493Y-18040916D01*
X69624293Y-18000000D01*
X69375707Y-18000000D01*
X69130506Y-18040916D01*
X68895396Y-18121630D01*
X68895385Y-18121635D01*
X68676768Y-18239944D01*
X68676765Y-18239946D01*
X68530537Y-18353759D01*
X68530537Y-18353760D01*
X69246047Y-19069270D01*
X69192993Y-19099901D01*
X69099901Y-19192993D01*
X69069270Y-19246047D01*
X68353700Y-18530477D01*
X68353699Y-18530477D01*
X68312232Y-18575521D01*
X68176267Y-18783632D01*
X68076412Y-19011282D01*
X68015387Y-19252261D01*
X68015385Y-19252270D01*
X67994859Y-19499994D01*
X42693477Y-19499994D01*
X42648446Y-19428328D01*
X42176776Y-19899999D01*
X42100000Y-19899999D01*
X42100000Y-19880109D01*
X42084776Y-19843355D01*
X42056645Y-19815224D01*
X42019891Y-19800000D01*
X41980109Y-19800000D01*
X41943355Y-19815224D01*
X41915224Y-19843355D01*
X41900000Y-19880109D01*
X41803333Y-19880109D01*
X41300000Y-19376776D01*
X40776776Y-19900000D01*
X40700000Y-19900000D01*
X40700000Y-19880109D01*
X40684776Y-19843355D01*
X40656645Y-19815224D01*
X40619891Y-19800000D01*
X40580109Y-19800000D01*
X40543355Y-19815224D01*
X40515224Y-19843355D01*
X40500000Y-19880109D01*
X40403333Y-19880109D01*
X39900000Y-19376776D01*
X39376776Y-19900000D01*
X39300000Y-19900000D01*
X39300000Y-19880109D01*
X39284776Y-19843355D01*
X39256645Y-19815224D01*
X39219891Y-19800000D01*
X39180109Y-19800000D01*
X39143355Y-19815224D01*
X39115224Y-19843355D01*
X39100000Y-19880109D01*
X39003333Y-19880109D01*
X38551552Y-19428327D01*
X38551551Y-19428327D01*
X38474664Y-19550695D01*
X38415122Y-19720858D01*
X38415121Y-19720861D01*
X38394938Y-19899997D01*
X32108977Y-19899997D01*
X32081128Y-19867857D01*
X31960053Y-19790047D01*
X31960051Y-19790046D01*
X31960049Y-19790045D01*
X31960050Y-19790045D01*
X31821963Y-19749500D01*
X31821961Y-19749500D01*
X31678039Y-19749500D01*
X31678036Y-19749500D01*
X31539949Y-19790045D01*
X31418873Y-19867856D01*
X31324623Y-19976626D01*
X31324622Y-19976628D01*
X31264834Y-20107543D01*
X31244353Y-20250000D01*
X400500Y-20250000D01*
X400500Y-19251551D01*
X38728327Y-19251551D01*
X38728327Y-19251552D01*
X39199999Y-19723223D01*
X39546447Y-19376777D01*
X39723223Y-19200000D01*
X39723223Y-19199999D01*
X39703333Y-19180109D01*
X39800000Y-19180109D01*
X39800000Y-19219891D01*
X39815224Y-19256645D01*
X39843355Y-19284776D01*
X39880109Y-19300000D01*
X39919891Y-19300000D01*
X39956645Y-19284776D01*
X39984776Y-19256645D01*
X40000000Y-19219891D01*
X40000000Y-19199999D01*
X40076776Y-19199999D01*
X40076776Y-19200000D01*
X40253553Y-19376777D01*
X40600000Y-19723223D01*
X40946447Y-19376777D01*
X41123223Y-19200000D01*
X41123223Y-19199999D01*
X41103333Y-19180109D01*
X41200000Y-19180109D01*
X41200000Y-19219891D01*
X41215224Y-19256645D01*
X41243355Y-19284776D01*
X41280109Y-19300000D01*
X41319891Y-19300000D01*
X41356645Y-19284776D01*
X41384776Y-19256645D01*
X41400000Y-19219891D01*
X41400000Y-19199999D01*
X41476776Y-19199999D01*
X41476776Y-19200000D01*
X41653553Y-19376777D01*
X42000000Y-19723223D01*
X42000001Y-19723223D01*
X42471671Y-19251552D01*
X42471670Y-19251551D01*
X42349304Y-19174664D01*
X42179137Y-19115120D01*
X42178346Y-19114940D01*
X42177886Y-19114683D01*
X42172571Y-19112823D01*
X42172896Y-19111891D01*
X42117370Y-19080827D01*
X42088049Y-19027124D01*
X42087177Y-19027430D01*
X42085322Y-19022130D01*
X42085057Y-19021644D01*
X42084878Y-19020859D01*
X42025336Y-18850697D01*
X41948446Y-18728328D01*
X41476776Y-19199999D01*
X41400000Y-19199999D01*
X41400000Y-19180109D01*
X41384776Y-19143355D01*
X41356645Y-19115224D01*
X41319891Y-19100000D01*
X41280109Y-19100000D01*
X41243355Y-19115224D01*
X41215224Y-19143355D01*
X41200000Y-19180109D01*
X41103333Y-19180109D01*
X40651551Y-18728327D01*
X40613882Y-18732572D01*
X40586116Y-18732572D01*
X40548447Y-18728327D01*
X40076776Y-19199999D01*
X40000000Y-19199999D01*
X40000000Y-19180109D01*
X39984776Y-19143355D01*
X39956645Y-19115224D01*
X39919891Y-19100000D01*
X39880109Y-19100000D01*
X39843355Y-19115224D01*
X39815224Y-19143355D01*
X39800000Y-19180109D01*
X39703333Y-19180109D01*
X39251552Y-18728327D01*
X39251551Y-18728327D01*
X39174664Y-18850695D01*
X39115119Y-19020866D01*
X39114939Y-19021656D01*
X39114682Y-19022113D01*
X39112823Y-19027429D01*
X39111891Y-19027103D01*
X39080824Y-19082631D01*
X39027124Y-19111952D01*
X39027429Y-19112823D01*
X39022145Y-19114671D01*
X39021656Y-19114939D01*
X39020866Y-19115119D01*
X38850695Y-19174664D01*
X38728327Y-19251551D01*
X400500Y-19251551D01*
X400500Y-18551551D01*
X39428327Y-18551551D01*
X39428327Y-18551552D01*
X39900000Y-19023223D01*
X39900001Y-19023223D01*
X40371671Y-18551552D01*
X40371670Y-18551551D01*
X40828327Y-18551551D01*
X40828327Y-18551552D01*
X41300000Y-19023223D01*
X41300001Y-19023223D01*
X41771671Y-18551552D01*
X41771670Y-18551551D01*
X41649304Y-18474664D01*
X41479141Y-18415122D01*
X41479138Y-18415121D01*
X41300003Y-18394938D01*
X41299997Y-18394938D01*
X41120861Y-18415121D01*
X41120858Y-18415122D01*
X40950695Y-18474664D01*
X40828327Y-18551551D01*
X40371670Y-18551551D01*
X40249304Y-18474664D01*
X40079141Y-18415122D01*
X40079138Y-18415121D01*
X39900003Y-18394938D01*
X39899997Y-18394938D01*
X39720861Y-18415121D01*
X39720858Y-18415122D01*
X39550695Y-18474664D01*
X39428327Y-18551551D01*
X400500Y-18551551D01*
X400500Y-15499994D01*
X14494859Y-15499994D01*
X14494859Y-15500005D01*
X14515385Y-15747729D01*
X14515387Y-15747738D01*
X14576412Y-15988717D01*
X14676266Y-16216364D01*
X14812237Y-16424483D01*
X14853699Y-16469521D01*
X14853701Y-16469521D01*
X15569270Y-15753952D01*
X15599901Y-15807007D01*
X15692993Y-15900099D01*
X15746046Y-15930729D01*
X15030537Y-16646238D01*
X15030537Y-16646239D01*
X15176769Y-16760056D01*
X15176771Y-16760057D01*
X15395385Y-16878364D01*
X15395396Y-16878369D01*
X15630506Y-16959083D01*
X15875707Y-17000000D01*
X16124293Y-17000000D01*
X16369493Y-16959083D01*
X16604603Y-16878369D01*
X16604614Y-16878364D01*
X16823228Y-16760057D01*
X16823231Y-16760055D01*
X16969461Y-16646238D01*
X16253952Y-15930729D01*
X16307007Y-15900099D01*
X16400099Y-15807007D01*
X16430729Y-15753953D01*
X17146298Y-16469522D01*
X17187769Y-16424475D01*
X17323732Y-16216367D01*
X17423587Y-15988717D01*
X17484612Y-15747738D01*
X17484614Y-15747729D01*
X17505141Y-15500005D01*
X17505141Y-15499994D01*
X17484614Y-15252270D01*
X17484612Y-15252261D01*
X17423587Y-15011282D01*
X17323733Y-14783635D01*
X17187766Y-14575522D01*
X17187757Y-14575510D01*
X17146299Y-14530477D01*
X17146297Y-14530477D01*
X16430729Y-15246046D01*
X16400099Y-15192993D01*
X16307007Y-15099901D01*
X16253952Y-15069270D01*
X16969461Y-14353760D01*
X16969461Y-14353759D01*
X16823236Y-14239947D01*
X16823231Y-14239944D01*
X16604614Y-14121635D01*
X16604603Y-14121630D01*
X16369493Y-14040916D01*
X16124293Y-14000000D01*
X15875707Y-14000000D01*
X15630506Y-14040916D01*
X15395396Y-14121630D01*
X15395385Y-14121635D01*
X15176768Y-14239944D01*
X15176765Y-14239946D01*
X15030537Y-14353759D01*
X15030537Y-14353760D01*
X15746047Y-15069270D01*
X15692993Y-15099901D01*
X15599901Y-15192993D01*
X15569270Y-15246047D01*
X14853700Y-14530477D01*
X14853699Y-14530477D01*
X14812232Y-14575521D01*
X14676267Y-14783632D01*
X14576412Y-15011282D01*
X14515387Y-15252261D01*
X14515385Y-15252270D01*
X14494859Y-15499994D01*
X400500Y-15499994D01*
X400500Y-12386831D01*
X54522050Y-12386831D01*
X54522050Y-12613168D01*
X54557458Y-12836722D01*
X54557458Y-12836725D01*
X54627398Y-13051978D01*
X54627400Y-13051981D01*
X54730155Y-13253650D01*
X54863193Y-13436761D01*
X55023239Y-13596807D01*
X55206350Y-13729845D01*
X55408019Y-13832600D01*
X55408021Y-13832601D01*
X55608801Y-13897837D01*
X55623279Y-13902542D01*
X55846831Y-13937950D01*
X55846832Y-13937950D01*
X56073168Y-13937950D01*
X56073169Y-13937950D01*
X56296721Y-13902542D01*
X56296724Y-13902541D01*
X56296725Y-13902541D01*
X56511978Y-13832601D01*
X56511978Y-13832600D01*
X56511981Y-13832600D01*
X56713650Y-13729845D01*
X56896761Y-13596807D01*
X57056807Y-13436761D01*
X57189845Y-13253650D01*
X57292600Y-13051981D01*
X57317476Y-12975420D01*
X57362541Y-12836725D01*
X57362541Y-12836724D01*
X57362542Y-12836721D01*
X57397950Y-12613169D01*
X57397950Y-12426540D01*
X57754200Y-12426540D01*
X57754200Y-12573459D01*
X57782858Y-12717534D01*
X57782861Y-12717544D01*
X57839078Y-12853266D01*
X57839083Y-12853275D01*
X57920698Y-12975419D01*
X57920701Y-12975423D01*
X58024576Y-13079298D01*
X58024580Y-13079301D01*
X58146724Y-13160916D01*
X58146730Y-13160919D01*
X58146731Y-13160920D01*
X58282458Y-13217140D01*
X58426540Y-13245799D01*
X58426544Y-13245800D01*
X58426545Y-13245800D01*
X58573456Y-13245800D01*
X58573457Y-13245799D01*
X58717542Y-13217140D01*
X58853269Y-13160920D01*
X58975420Y-13079301D01*
X59079301Y-12975420D01*
X59160920Y-12853269D01*
X59217140Y-12717542D01*
X59245800Y-12573455D01*
X59245800Y-12426545D01*
X59237901Y-12386831D01*
X59602050Y-12386831D01*
X59602050Y-12613168D01*
X59637458Y-12836722D01*
X59637458Y-12836725D01*
X59707398Y-13051978D01*
X59707400Y-13051981D01*
X59810155Y-13253650D01*
X59943193Y-13436761D01*
X60103239Y-13596807D01*
X60286350Y-13729845D01*
X60488019Y-13832600D01*
X60488021Y-13832601D01*
X60688801Y-13897837D01*
X60703279Y-13902542D01*
X60926831Y-13937950D01*
X60926832Y-13937950D01*
X61153168Y-13937950D01*
X61153169Y-13937950D01*
X61376721Y-13902542D01*
X61376724Y-13902541D01*
X61376725Y-13902541D01*
X61591978Y-13832601D01*
X61591978Y-13832600D01*
X61591981Y-13832600D01*
X61793650Y-13729845D01*
X61976761Y-13596807D01*
X62136807Y-13436761D01*
X62269845Y-13253650D01*
X62372600Y-13051981D01*
X62397476Y-12975420D01*
X62442541Y-12836725D01*
X62442541Y-12836724D01*
X62442542Y-12836721D01*
X62477950Y-12613169D01*
X62477950Y-12386831D01*
X62442542Y-12163279D01*
X62442541Y-12163275D01*
X62442541Y-12163274D01*
X62372601Y-11948021D01*
X62372599Y-11948018D01*
X62358681Y-11920701D01*
X62269845Y-11746350D01*
X62136807Y-11563239D01*
X61976761Y-11403193D01*
X61793650Y-11270155D01*
X61591981Y-11167400D01*
X61591978Y-11167398D01*
X61376723Y-11097458D01*
X61227686Y-11073852D01*
X61153169Y-11062050D01*
X60926831Y-11062050D01*
X60852313Y-11073852D01*
X60703277Y-11097458D01*
X60703274Y-11097458D01*
X60488021Y-11167398D01*
X60488018Y-11167400D01*
X60286349Y-11270155D01*
X60181878Y-11346058D01*
X60103239Y-11403193D01*
X60103237Y-11403195D01*
X60103236Y-11403195D01*
X59943195Y-11563236D01*
X59943195Y-11563237D01*
X59943193Y-11563239D01*
X59886058Y-11641878D01*
X59810155Y-11746349D01*
X59707400Y-11948018D01*
X59707398Y-11948021D01*
X59637458Y-12163274D01*
X59637458Y-12163277D01*
X59602050Y-12386831D01*
X59237901Y-12386831D01*
X59217140Y-12282458D01*
X59160920Y-12146731D01*
X59160919Y-12146730D01*
X59160916Y-12146724D01*
X59079301Y-12024580D01*
X59079298Y-12024576D01*
X58975423Y-11920701D01*
X58975419Y-11920698D01*
X58853275Y-11839083D01*
X58853266Y-11839078D01*
X58717544Y-11782861D01*
X58717545Y-11782861D01*
X58717542Y-11782860D01*
X58717538Y-11782859D01*
X58717534Y-11782858D01*
X58573459Y-11754200D01*
X58573455Y-11754200D01*
X58426545Y-11754200D01*
X58426540Y-11754200D01*
X58282465Y-11782858D01*
X58282455Y-11782861D01*
X58146733Y-11839078D01*
X58146724Y-11839083D01*
X58024580Y-11920698D01*
X58024576Y-11920701D01*
X57920701Y-12024576D01*
X57920698Y-12024580D01*
X57839083Y-12146724D01*
X57839078Y-12146733D01*
X57782861Y-12282455D01*
X57782858Y-12282465D01*
X57754200Y-12426540D01*
X57397950Y-12426540D01*
X57397950Y-12386831D01*
X57362542Y-12163279D01*
X57362541Y-12163275D01*
X57362541Y-12163274D01*
X57292601Y-11948021D01*
X57292599Y-11948018D01*
X57278681Y-11920701D01*
X57189845Y-11746350D01*
X57056807Y-11563239D01*
X56896761Y-11403193D01*
X56713650Y-11270155D01*
X56511981Y-11167400D01*
X56511978Y-11167398D01*
X56296723Y-11097458D01*
X56147686Y-11073852D01*
X56073169Y-11062050D01*
X55846831Y-11062050D01*
X55772313Y-11073852D01*
X55623277Y-11097458D01*
X55623274Y-11097458D01*
X55408021Y-11167398D01*
X55408018Y-11167400D01*
X55206349Y-11270155D01*
X55101878Y-11346058D01*
X55023239Y-11403193D01*
X55023237Y-11403195D01*
X55023236Y-11403195D01*
X54863195Y-11563236D01*
X54863195Y-11563237D01*
X54863193Y-11563239D01*
X54806058Y-11641878D01*
X54730155Y-11746349D01*
X54627400Y-11948018D01*
X54627398Y-11948021D01*
X54557458Y-12163274D01*
X54557458Y-12163277D01*
X54522050Y-12386831D01*
X400500Y-12386831D01*
X400500Y-5499994D01*
X13594754Y-5499994D01*
X13594754Y-5500005D01*
X13613718Y-5801446D01*
X13613719Y-5801453D01*
X13670320Y-6098164D01*
X13763659Y-6385431D01*
X13763661Y-6385436D01*
X13892265Y-6658732D01*
X13892268Y-6658738D01*
X14054111Y-6913763D01*
X14246652Y-7146505D01*
X14466836Y-7353272D01*
X14466846Y-7353280D01*
X14711193Y-7530808D01*
X14711198Y-7530810D01*
X14711205Y-7530816D01*
X14975896Y-7676332D01*
X14975901Y-7676334D01*
X14975903Y-7676335D01*
X14975904Y-7676336D01*
X15256734Y-7787524D01*
X15256737Y-7787525D01*
X15354259Y-7812564D01*
X15549302Y-7862642D01*
X15696039Y-7881179D01*
X15848963Y-7900499D01*
X15848969Y-7900499D01*
X15848973Y-7900500D01*
X15848975Y-7900500D01*
X16151025Y-7900500D01*
X16151027Y-7900500D01*
X16151032Y-7900499D01*
X16151036Y-7900499D01*
X16230591Y-7890448D01*
X16450698Y-7862642D01*
X16743262Y-7787525D01*
X16743265Y-7787524D01*
X17024095Y-7676336D01*
X17024096Y-7676335D01*
X17024094Y-7676335D01*
X17024104Y-7676332D01*
X17288795Y-7530816D01*
X17533162Y-7353274D01*
X17753349Y-7146504D01*
X17945885Y-6913768D01*
X18107733Y-6658736D01*
X18182429Y-6499998D01*
X42594645Y-6499998D01*
X42594645Y-6500001D01*
X42614039Y-6771160D01*
X42614040Y-6771167D01*
X42671823Y-7036793D01*
X42671825Y-7036801D01*
X42712743Y-7146505D01*
X42766830Y-7291519D01*
X42897109Y-7530107D01*
X42897110Y-7530108D01*
X42897113Y-7530113D01*
X43060029Y-7747742D01*
X43060033Y-7747746D01*
X43060038Y-7747752D01*
X43252247Y-7939961D01*
X43252253Y-7939966D01*
X43252258Y-7939971D01*
X43469887Y-8102887D01*
X43469891Y-8102889D01*
X43469892Y-8102890D01*
X43708481Y-8233169D01*
X43708480Y-8233169D01*
X43708484Y-8233170D01*
X43708487Y-8233172D01*
X43963199Y-8328175D01*
X44228840Y-8385961D01*
X44480605Y-8403967D01*
X44499999Y-8405355D01*
X44500000Y-8405355D01*
X44500001Y-8405355D01*
X44518100Y-8404060D01*
X44771160Y-8385961D01*
X45036801Y-8328175D01*
X45246396Y-8250000D01*
X46494353Y-8250000D01*
X46514834Y-8392456D01*
X46520725Y-8405355D01*
X46574623Y-8523373D01*
X46668872Y-8632143D01*
X46789947Y-8709953D01*
X46789950Y-8709954D01*
X46789949Y-8709954D01*
X46928036Y-8750499D01*
X46928038Y-8750500D01*
X46928039Y-8750500D01*
X47071962Y-8750500D01*
X47071962Y-8750499D01*
X47210053Y-8709953D01*
X47331128Y-8632143D01*
X47351666Y-8608440D01*
X47410439Y-8570668D01*
X47480309Y-8570666D01*
X47533058Y-8601963D01*
X48238181Y-9307086D01*
X48271666Y-9368409D01*
X48274500Y-9394767D01*
X48274500Y-9982265D01*
X48254815Y-10049304D01*
X48217540Y-10086579D01*
X48192309Y-10102794D01*
X48168873Y-10117856D01*
X48074623Y-10226626D01*
X48074622Y-10226628D01*
X48014834Y-10357543D01*
X47994353Y-10500000D01*
X48014834Y-10642456D01*
X48021751Y-10657601D01*
X48074623Y-10773373D01*
X48168872Y-10882143D01*
X48289947Y-10959953D01*
X48289950Y-10959954D01*
X48289949Y-10959954D01*
X48428036Y-11000499D01*
X48428038Y-11000500D01*
X48428039Y-11000500D01*
X48571962Y-11000500D01*
X48571962Y-11000499D01*
X48710053Y-10959953D01*
X48831128Y-10882143D01*
X48925377Y-10773373D01*
X48985165Y-10642457D01*
X49005647Y-10500000D01*
X48985165Y-10357543D01*
X48925377Y-10226627D01*
X48831128Y-10117857D01*
X48782460Y-10086580D01*
X48736706Y-10033777D01*
X48725500Y-9982265D01*
X48725500Y-9309297D01*
X48725501Y-9309288D01*
X48725501Y-9205147D01*
X48725501Y-9205146D01*
X48691170Y-9122265D01*
X48691170Y-9122264D01*
X48627736Y-9058830D01*
X48620671Y-9051765D01*
X48620664Y-9051759D01*
X47708610Y-8139705D01*
X47691170Y-8122264D01*
X47627736Y-8058830D01*
X47627735Y-8058829D01*
X47603457Y-8048772D01*
X47603457Y-8048771D01*
X47544858Y-8024500D01*
X47544856Y-8024499D01*
X47544855Y-8024499D01*
X47523487Y-8024499D01*
X47456448Y-8004814D01*
X47429774Y-7981701D01*
X47331129Y-7867858D01*
X47331128Y-7867857D01*
X47210053Y-7790047D01*
X47210051Y-7790046D01*
X47210049Y-7790045D01*
X47210050Y-7790045D01*
X47071963Y-7749500D01*
X47071961Y-7749500D01*
X46928039Y-7749500D01*
X46928036Y-7749500D01*
X46789949Y-7790045D01*
X46668873Y-7867856D01*
X46574623Y-7976626D01*
X46574622Y-7976628D01*
X46514834Y-8107543D01*
X46494353Y-8250000D01*
X45246396Y-8250000D01*
X45291513Y-8233172D01*
X45291517Y-8233169D01*
X45291519Y-8233169D01*
X45414898Y-8165799D01*
X45530113Y-8102887D01*
X45747742Y-7939971D01*
X45939971Y-7747742D01*
X46102887Y-7530113D01*
X46199449Y-7353272D01*
X46233169Y-7291519D01*
X46233169Y-7291517D01*
X46233172Y-7291513D01*
X46328175Y-7036801D01*
X46385961Y-6771160D01*
X46405355Y-6500000D01*
X46387474Y-6250000D01*
X47494353Y-6250000D01*
X47514834Y-6392456D01*
X47545660Y-6459954D01*
X47574623Y-6523373D01*
X47668872Y-6632143D01*
X47789947Y-6709953D01*
X47789950Y-6709954D01*
X47789949Y-6709954D01*
X47928036Y-6750499D01*
X47928038Y-6750500D01*
X47928039Y-6750500D01*
X48071962Y-6750500D01*
X48071962Y-6750499D01*
X48210053Y-6709953D01*
X48331128Y-6632143D01*
X48425377Y-6523373D01*
X48448387Y-6472989D01*
X48494141Y-6420185D01*
X48561181Y-6400500D01*
X49030233Y-6400500D01*
X49097272Y-6420185D01*
X49117914Y-6436819D01*
X49988181Y-7307086D01*
X50021666Y-7368409D01*
X50024500Y-7394767D01*
X50024500Y-8732265D01*
X50004815Y-8799304D01*
X49967540Y-8836579D01*
X49942309Y-8852794D01*
X49918873Y-8867856D01*
X49824623Y-8976626D01*
X49824622Y-8976628D01*
X49764834Y-9107543D01*
X49744353Y-9250000D01*
X49764834Y-9392456D01*
X49785711Y-9438169D01*
X49824623Y-9523373D01*
X49918872Y-9632143D01*
X50039947Y-9709953D01*
X50039950Y-9709954D01*
X50039949Y-9709954D01*
X50178036Y-9750499D01*
X50178038Y-9750500D01*
X50178039Y-9750500D01*
X50321962Y-9750500D01*
X50321962Y-9750499D01*
X50460053Y-9709953D01*
X50581128Y-9632143D01*
X50675377Y-9523373D01*
X50735165Y-9392457D01*
X50755647Y-9250000D01*
X50750159Y-9211831D01*
X54522050Y-9211831D01*
X54522050Y-9438168D01*
X54557458Y-9661722D01*
X54557458Y-9661725D01*
X54627398Y-9876978D01*
X54627400Y-9876981D01*
X54730155Y-10078650D01*
X54863193Y-10261761D01*
X55023239Y-10421807D01*
X55206350Y-10554845D01*
X55408019Y-10657600D01*
X55408021Y-10657601D01*
X55608801Y-10722837D01*
X55623279Y-10727542D01*
X55846831Y-10762950D01*
X55846832Y-10762950D01*
X56073168Y-10762950D01*
X56073169Y-10762950D01*
X56296721Y-10727542D01*
X56296724Y-10727541D01*
X56296725Y-10727541D01*
X56511978Y-10657601D01*
X56511978Y-10657600D01*
X56511981Y-10657600D01*
X56713650Y-10554845D01*
X56896761Y-10421807D01*
X57056807Y-10261761D01*
X57189845Y-10078650D01*
X57292600Y-9876981D01*
X57333696Y-9750500D01*
X57362541Y-9661725D01*
X57362541Y-9661724D01*
X57362542Y-9661721D01*
X57397950Y-9438169D01*
X57397950Y-9211831D01*
X59602050Y-9211831D01*
X59602050Y-9438168D01*
X59637458Y-9661722D01*
X59637458Y-9661725D01*
X59707398Y-9876978D01*
X59707400Y-9876981D01*
X59810155Y-10078650D01*
X59943193Y-10261761D01*
X60103239Y-10421807D01*
X60286350Y-10554845D01*
X60488019Y-10657600D01*
X60488021Y-10657601D01*
X60688801Y-10722837D01*
X60703279Y-10727542D01*
X60926831Y-10762950D01*
X60926832Y-10762950D01*
X61153168Y-10762950D01*
X61153169Y-10762950D01*
X61376721Y-10727542D01*
X61376724Y-10727541D01*
X61376725Y-10727541D01*
X61591978Y-10657601D01*
X61591978Y-10657600D01*
X61591981Y-10657600D01*
X61793650Y-10554845D01*
X61976761Y-10421807D01*
X62136807Y-10261761D01*
X62269845Y-10078650D01*
X62372600Y-9876981D01*
X62413696Y-9750500D01*
X62442541Y-9661725D01*
X62442541Y-9661724D01*
X62442542Y-9661721D01*
X62477950Y-9438169D01*
X62477950Y-9211831D01*
X62442542Y-8988279D01*
X62442541Y-8988275D01*
X62442541Y-8988274D01*
X62372601Y-8773021D01*
X62372599Y-8773018D01*
X62361126Y-8750499D01*
X62269845Y-8571350D01*
X62136807Y-8388239D01*
X61976761Y-8228193D01*
X61793650Y-8095155D01*
X61591981Y-7992400D01*
X61591978Y-7992398D01*
X61376723Y-7922458D01*
X61227686Y-7898852D01*
X61153169Y-7887050D01*
X60926831Y-7887050D01*
X60852313Y-7898852D01*
X60703277Y-7922458D01*
X60703274Y-7922458D01*
X60488021Y-7992398D01*
X60488018Y-7992400D01*
X60286349Y-8095155D01*
X60181878Y-8171058D01*
X60103239Y-8228193D01*
X60103237Y-8228195D01*
X60103236Y-8228195D01*
X59943195Y-8388236D01*
X59943195Y-8388237D01*
X59943193Y-8388239D01*
X59886058Y-8466878D01*
X59810155Y-8571349D01*
X59707400Y-8773018D01*
X59707398Y-8773021D01*
X59637458Y-8988274D01*
X59637458Y-8988277D01*
X59602050Y-9211831D01*
X57397950Y-9211831D01*
X57362542Y-8988279D01*
X57362541Y-8988275D01*
X57362541Y-8988274D01*
X57292601Y-8773021D01*
X57292599Y-8773018D01*
X57281126Y-8750499D01*
X57189845Y-8571350D01*
X57056807Y-8388239D01*
X56896761Y-8228193D01*
X56713650Y-8095155D01*
X56511981Y-7992400D01*
X56511978Y-7992398D01*
X56296723Y-7922458D01*
X56147686Y-7898852D01*
X56073169Y-7887050D01*
X55846831Y-7887050D01*
X55772313Y-7898852D01*
X55623277Y-7922458D01*
X55623274Y-7922458D01*
X55408021Y-7992398D01*
X55408018Y-7992400D01*
X55206349Y-8095155D01*
X55101878Y-8171058D01*
X55023239Y-8228193D01*
X55023237Y-8228195D01*
X55023236Y-8228195D01*
X54863195Y-8388236D01*
X54863195Y-8388237D01*
X54863193Y-8388239D01*
X54806058Y-8466878D01*
X54730155Y-8571349D01*
X54627400Y-8773018D01*
X54627398Y-8773021D01*
X54557458Y-8988274D01*
X54557458Y-8988277D01*
X54522050Y-9211831D01*
X50750159Y-9211831D01*
X50735165Y-9107543D01*
X50675377Y-8976627D01*
X50581128Y-8867857D01*
X50532460Y-8836580D01*
X50486706Y-8783777D01*
X50475500Y-8732265D01*
X50475500Y-7346540D01*
X56738200Y-7346540D01*
X56738200Y-7493459D01*
X56766858Y-7637534D01*
X56766861Y-7637544D01*
X56823078Y-7773266D01*
X56823083Y-7773275D01*
X56904698Y-7895419D01*
X56904701Y-7895423D01*
X57008576Y-7999298D01*
X57008580Y-7999301D01*
X57130724Y-8080916D01*
X57130730Y-8080919D01*
X57130731Y-8080920D01*
X57266458Y-8137140D01*
X57410540Y-8165799D01*
X57410544Y-8165800D01*
X57410545Y-8165800D01*
X57557456Y-8165800D01*
X57557457Y-8165799D01*
X57701542Y-8137140D01*
X57837269Y-8080920D01*
X57959420Y-7999301D01*
X58063301Y-7895420D01*
X58144920Y-7773269D01*
X58201140Y-7637542D01*
X58229800Y-7493455D01*
X58229800Y-7346545D01*
X58229799Y-7346540D01*
X58770200Y-7346540D01*
X58770200Y-7493459D01*
X58798858Y-7637534D01*
X58798861Y-7637544D01*
X58855078Y-7773266D01*
X58855083Y-7773275D01*
X58936698Y-7895419D01*
X58936701Y-7895423D01*
X59040576Y-7999298D01*
X59040580Y-7999301D01*
X59162724Y-8080916D01*
X59162730Y-8080919D01*
X59162731Y-8080920D01*
X59298458Y-8137140D01*
X59442540Y-8165799D01*
X59442544Y-8165800D01*
X59442545Y-8165800D01*
X59589456Y-8165800D01*
X59589457Y-8165799D01*
X59733542Y-8137140D01*
X59869269Y-8080920D01*
X59991420Y-7999301D01*
X60095301Y-7895420D01*
X60176920Y-7773269D01*
X60233140Y-7637542D01*
X60261800Y-7493455D01*
X60261800Y-7346545D01*
X60233140Y-7202458D01*
X60176920Y-7066731D01*
X60176919Y-7066730D01*
X60176916Y-7066724D01*
X60095301Y-6944580D01*
X60095298Y-6944576D01*
X59991423Y-6840701D01*
X59991419Y-6840698D01*
X59869275Y-6759083D01*
X59869266Y-6759078D01*
X59733544Y-6702861D01*
X59733545Y-6702861D01*
X59733542Y-6702860D01*
X59733538Y-6702859D01*
X59733534Y-6702858D01*
X59589459Y-6674200D01*
X59589455Y-6674200D01*
X59442545Y-6674200D01*
X59442540Y-6674200D01*
X59298465Y-6702858D01*
X59298455Y-6702861D01*
X59162733Y-6759078D01*
X59162724Y-6759083D01*
X59040580Y-6840698D01*
X59040576Y-6840701D01*
X58936701Y-6944576D01*
X58936698Y-6944580D01*
X58855083Y-7066724D01*
X58855078Y-7066733D01*
X58798861Y-7202455D01*
X58798858Y-7202465D01*
X58770200Y-7346540D01*
X58229799Y-7346540D01*
X58201140Y-7202458D01*
X58144920Y-7066731D01*
X58144919Y-7066730D01*
X58144916Y-7066724D01*
X58063301Y-6944580D01*
X58063298Y-6944576D01*
X57959423Y-6840701D01*
X57959419Y-6840698D01*
X57837275Y-6759083D01*
X57837266Y-6759078D01*
X57701544Y-6702861D01*
X57701545Y-6702861D01*
X57701542Y-6702860D01*
X57701538Y-6702859D01*
X57701534Y-6702858D01*
X57557459Y-6674200D01*
X57557455Y-6674200D01*
X57410545Y-6674200D01*
X57410540Y-6674200D01*
X57266465Y-6702858D01*
X57266455Y-6702861D01*
X57130733Y-6759078D01*
X57130724Y-6759083D01*
X57008580Y-6840698D01*
X57008576Y-6840701D01*
X56904701Y-6944576D01*
X56904698Y-6944580D01*
X56823083Y-7066724D01*
X56823078Y-7066733D01*
X56766861Y-7202455D01*
X56766858Y-7202465D01*
X56738200Y-7346540D01*
X50475500Y-7346540D01*
X50475500Y-7309297D01*
X50475501Y-7309288D01*
X50475501Y-7205147D01*
X50475501Y-7205146D01*
X50441170Y-7122265D01*
X50441170Y-7122264D01*
X50377736Y-7058830D01*
X50370671Y-7051765D01*
X50370664Y-7051759D01*
X49383610Y-6064705D01*
X49366170Y-6047264D01*
X49302736Y-5983830D01*
X49302735Y-5983829D01*
X49278457Y-5973772D01*
X49278457Y-5973771D01*
X49219858Y-5949500D01*
X49219856Y-5949499D01*
X49219855Y-5949499D01*
X49130145Y-5949499D01*
X49115711Y-5949499D01*
X49115703Y-5949500D01*
X48458501Y-5949500D01*
X48391462Y-5929815D01*
X48364788Y-5906703D01*
X48331128Y-5867857D01*
X48210053Y-5790047D01*
X48210051Y-5790046D01*
X48210049Y-5790045D01*
X48210050Y-5790045D01*
X48071963Y-5749500D01*
X48071961Y-5749500D01*
X47928039Y-5749500D01*
X47928036Y-5749500D01*
X47789949Y-5790045D01*
X47668873Y-5867856D01*
X47574623Y-5976626D01*
X47574622Y-5976628D01*
X47514834Y-6107543D01*
X47494353Y-6250000D01*
X46387474Y-6250000D01*
X46385961Y-6228840D01*
X46328175Y-5963199D01*
X46233172Y-5708487D01*
X46233170Y-5708484D01*
X46233169Y-5708480D01*
X46102890Y-5469892D01*
X46102889Y-5469891D01*
X46102887Y-5469887D01*
X45939971Y-5252258D01*
X45939966Y-5252253D01*
X45939961Y-5252247D01*
X45747752Y-5060038D01*
X45747746Y-5060033D01*
X45747742Y-5060029D01*
X45530113Y-4897113D01*
X45530108Y-4897110D01*
X45530107Y-4897109D01*
X45291518Y-4766830D01*
X45291519Y-4766830D01*
X45246397Y-4750000D01*
X51794659Y-4750000D01*
X51813975Y-4946129D01*
X51813976Y-4946132D01*
X51858491Y-5092879D01*
X51871188Y-5134733D01*
X51964086Y-5308532D01*
X51964090Y-5308539D01*
X52089116Y-5460883D01*
X52241460Y-5585909D01*
X52241467Y-5585913D01*
X52415266Y-5678811D01*
X52415269Y-5678811D01*
X52415273Y-5678814D01*
X52603868Y-5736024D01*
X52800000Y-5755341D01*
X52996132Y-5736024D01*
X53184727Y-5678814D01*
X53222317Y-5658722D01*
X53298771Y-5617856D01*
X53358538Y-5585910D01*
X53510883Y-5460883D01*
X53635910Y-5308538D01*
X53714032Y-5162382D01*
X53728811Y-5134733D01*
X53728812Y-5134731D01*
X53728814Y-5134727D01*
X53786024Y-4946132D01*
X53805341Y-4750000D01*
X53786024Y-4553868D01*
X53728814Y-4365273D01*
X53728811Y-4365269D01*
X53728811Y-4365266D01*
X53635913Y-4191467D01*
X53635909Y-4191460D01*
X53522413Y-4053165D01*
X53495100Y-3988855D01*
X53506891Y-3919987D01*
X53554043Y-3868427D01*
X53618266Y-3850500D01*
X54521734Y-3850500D01*
X54588773Y-3870185D01*
X54634528Y-3922989D01*
X54644472Y-3992147D01*
X54617587Y-4053165D01*
X54504090Y-4191460D01*
X54504086Y-4191467D01*
X54411188Y-4365266D01*
X54353975Y-4553870D01*
X54334659Y-4750000D01*
X54353975Y-4946129D01*
X54353976Y-4946132D01*
X54398491Y-5092879D01*
X54411188Y-5134733D01*
X54504086Y-5308532D01*
X54504090Y-5308539D01*
X54629116Y-5460883D01*
X54781460Y-5585909D01*
X54781467Y-5585913D01*
X54955266Y-5678811D01*
X54955269Y-5678811D01*
X54955273Y-5678814D01*
X55143868Y-5736024D01*
X55340000Y-5755341D01*
X55536132Y-5736024D01*
X55724727Y-5678814D01*
X55762317Y-5658722D01*
X55838771Y-5617856D01*
X55898538Y-5585910D01*
X56050883Y-5460883D01*
X56175910Y-5308538D01*
X56254032Y-5162382D01*
X56268812Y-5134731D01*
X56268812Y-5134730D01*
X56268814Y-5134727D01*
X56281839Y-5091786D01*
X56320137Y-5033349D01*
X56383949Y-5004893D01*
X56453016Y-5015453D01*
X56505410Y-5061677D01*
X56524500Y-5127783D01*
X56524500Y-5482265D01*
X56504815Y-5549304D01*
X56467540Y-5586579D01*
X56445737Y-5600592D01*
X56418873Y-5617856D01*
X56324623Y-5726626D01*
X56324622Y-5726628D01*
X56264834Y-5857543D01*
X56244353Y-6000000D01*
X56264834Y-6142456D01*
X56304285Y-6228839D01*
X56324623Y-6273373D01*
X56418872Y-6382143D01*
X56539947Y-6459953D01*
X56539950Y-6459954D01*
X56539949Y-6459954D01*
X56647107Y-6491417D01*
X56676336Y-6500000D01*
X56678036Y-6500499D01*
X56678038Y-6500500D01*
X56678039Y-6500500D01*
X56821962Y-6500500D01*
X56821962Y-6500499D01*
X56960053Y-6459953D01*
X57081128Y-6382143D01*
X57175377Y-6273373D01*
X57235165Y-6142457D01*
X57255647Y-6000000D01*
X57235165Y-5857543D01*
X57209546Y-5801446D01*
X57195679Y-5771081D01*
X57185735Y-5701922D01*
X57214760Y-5638366D01*
X57273538Y-5600592D01*
X57343408Y-5600592D01*
X57366922Y-5610209D01*
X57495273Y-5678814D01*
X57683868Y-5736024D01*
X57880000Y-5755341D01*
X58076132Y-5736024D01*
X58264727Y-5678814D01*
X58302317Y-5658722D01*
X58378771Y-5617856D01*
X58438538Y-5585910D01*
X58590883Y-5460883D01*
X58715910Y-5308538D01*
X58794032Y-5162382D01*
X58808811Y-5134733D01*
X58808812Y-5134731D01*
X58808814Y-5134727D01*
X58866024Y-4946132D01*
X58885341Y-4750000D01*
X59414659Y-4750000D01*
X59433975Y-4946129D01*
X59433976Y-4946132D01*
X59478491Y-5092879D01*
X59491188Y-5134733D01*
X59584086Y-5308532D01*
X59584090Y-5308539D01*
X59709116Y-5460883D01*
X59861460Y-5585909D01*
X59861467Y-5585913D01*
X60035266Y-5678811D01*
X60035269Y-5678811D01*
X60035273Y-5678814D01*
X60223868Y-5736024D01*
X60420000Y-5755341D01*
X60616132Y-5736024D01*
X60804727Y-5678814D01*
X60842317Y-5658722D01*
X60918771Y-5617856D01*
X60978538Y-5585910D01*
X61130883Y-5460883D01*
X61255910Y-5308538D01*
X61334032Y-5162382D01*
X61348812Y-5134731D01*
X61348812Y-5134730D01*
X61348814Y-5134727D01*
X61390900Y-4995988D01*
X61429197Y-4937551D01*
X61493009Y-4909095D01*
X61562076Y-4919655D01*
X61614470Y-4965879D01*
X61629335Y-4999891D01*
X61686567Y-5213486D01*
X61686570Y-5213492D01*
X61786399Y-5427578D01*
X61921894Y-5621082D01*
X62088917Y-5788105D01*
X62282421Y-5923600D01*
X62496507Y-6023429D01*
X62496516Y-6023433D01*
X62724678Y-6084568D01*
X62835000Y-6094219D01*
X62835000Y-5234144D01*
X62894174Y-5250000D01*
X63025826Y-5250000D01*
X63085000Y-5234144D01*
X63085000Y-6094219D01*
X63195320Y-6084568D01*
X63195323Y-6084568D01*
X63423483Y-6023433D01*
X63423492Y-6023429D01*
X63637578Y-5923600D01*
X63831082Y-5788105D01*
X63998105Y-5621082D01*
X64133600Y-5427578D01*
X64233429Y-5213492D01*
X64233433Y-5213483D01*
X64255725Y-5130289D01*
X64292090Y-5070628D01*
X64354937Y-5040099D01*
X64424312Y-5048394D01*
X64478190Y-5092879D01*
X64499465Y-5159431D01*
X64499500Y-5162382D01*
X64499500Y-5614820D01*
X64499500Y-5614822D01*
X64499499Y-5614822D01*
X64508231Y-5658717D01*
X64508234Y-5658724D01*
X64541495Y-5708503D01*
X64541496Y-5708504D01*
X64591278Y-5741767D01*
X64591281Y-5741767D01*
X64591282Y-5741768D01*
X64635177Y-5750500D01*
X64635180Y-5750500D01*
X66364822Y-5750500D01*
X66408717Y-5741768D01*
X66408717Y-5741767D01*
X66408722Y-5741767D01*
X66458504Y-5708504D01*
X66491767Y-5658722D01*
X66495816Y-5638366D01*
X66500500Y-5614822D01*
X66500500Y-5499994D01*
X81094754Y-5499994D01*
X81094754Y-5500005D01*
X81113718Y-5801446D01*
X81113719Y-5801453D01*
X81170320Y-6098164D01*
X81263659Y-6385431D01*
X81263661Y-6385436D01*
X81392265Y-6658732D01*
X81392268Y-6658738D01*
X81554111Y-6913763D01*
X81746652Y-7146505D01*
X81966836Y-7353272D01*
X81966846Y-7353280D01*
X82211193Y-7530808D01*
X82211198Y-7530810D01*
X82211205Y-7530816D01*
X82475896Y-7676332D01*
X82475901Y-7676334D01*
X82475903Y-7676335D01*
X82475904Y-7676336D01*
X82756734Y-7787524D01*
X82756737Y-7787525D01*
X82854259Y-7812564D01*
X83049302Y-7862642D01*
X83196039Y-7881179D01*
X83348963Y-7900499D01*
X83348969Y-7900499D01*
X83348973Y-7900500D01*
X83348975Y-7900500D01*
X83651025Y-7900500D01*
X83651027Y-7900500D01*
X83651032Y-7900499D01*
X83651036Y-7900499D01*
X83730591Y-7890448D01*
X83950698Y-7862642D01*
X84243262Y-7787525D01*
X84243265Y-7787524D01*
X84524095Y-7676336D01*
X84524096Y-7676335D01*
X84524094Y-7676335D01*
X84524104Y-7676332D01*
X84788795Y-7530816D01*
X85033162Y-7353274D01*
X85253349Y-7146504D01*
X85445885Y-6913768D01*
X85607733Y-6658736D01*
X85736341Y-6385430D01*
X85829681Y-6098160D01*
X85886280Y-5801457D01*
X85888934Y-5759272D01*
X85905246Y-5500005D01*
X85905246Y-5499994D01*
X85886281Y-5198553D01*
X85886280Y-5198546D01*
X85886280Y-5198543D01*
X85829681Y-4901840D01*
X85736341Y-4614570D01*
X85607733Y-4341264D01*
X85445885Y-4086232D01*
X85253349Y-3853496D01*
X85252634Y-3852825D01*
X85033163Y-3646727D01*
X85033153Y-3646719D01*
X84788806Y-3469191D01*
X84788799Y-3469186D01*
X84788795Y-3469184D01*
X84524104Y-3323668D01*
X84524101Y-3323666D01*
X84524096Y-3323664D01*
X84524095Y-3323663D01*
X84243265Y-3212475D01*
X84243262Y-3212474D01*
X83950695Y-3137357D01*
X83651036Y-3099500D01*
X83651027Y-3099500D01*
X83348973Y-3099500D01*
X83348963Y-3099500D01*
X83049304Y-3137357D01*
X82756737Y-3212474D01*
X82756734Y-3212475D01*
X82475904Y-3323663D01*
X82475903Y-3323664D01*
X82211205Y-3469184D01*
X82211193Y-3469191D01*
X81966846Y-3646719D01*
X81966836Y-3646727D01*
X81746652Y-3853494D01*
X81554111Y-4086236D01*
X81392268Y-4341261D01*
X81392265Y-4341267D01*
X81263661Y-4614563D01*
X81263659Y-4614568D01*
X81170320Y-4901835D01*
X81113719Y-5198546D01*
X81113718Y-5198553D01*
X81094754Y-5499994D01*
X66500500Y-5499994D01*
X66500500Y-3885177D01*
X66491768Y-3841282D01*
X66491767Y-3841281D01*
X66491767Y-3841278D01*
X66458504Y-3791496D01*
X66458503Y-3791495D01*
X66408724Y-3758234D01*
X66408717Y-3758231D01*
X66364822Y-3749500D01*
X66364820Y-3749500D01*
X64635180Y-3749500D01*
X64635178Y-3749500D01*
X64591282Y-3758231D01*
X64591275Y-3758234D01*
X64541496Y-3791495D01*
X64541495Y-3791496D01*
X64508234Y-3841275D01*
X64508231Y-3841282D01*
X64499500Y-3885177D01*
X64499500Y-4337617D01*
X64479815Y-4404656D01*
X64427011Y-4450411D01*
X64357853Y-4460355D01*
X64294297Y-4431330D01*
X64256523Y-4372552D01*
X64255725Y-4369711D01*
X64233432Y-4286513D01*
X64233429Y-4286507D01*
X64133600Y-4072422D01*
X64133599Y-4072420D01*
X63998113Y-3878926D01*
X63998108Y-3878920D01*
X63831082Y-3711894D01*
X63637578Y-3576399D01*
X63423492Y-3476570D01*
X63423483Y-3476566D01*
X63195326Y-3415432D01*
X63195316Y-3415430D01*
X63085000Y-3405778D01*
X63085000Y-4265855D01*
X63025826Y-4250000D01*
X62894174Y-4250000D01*
X62835000Y-4265855D01*
X62835000Y-3405778D01*
X62724683Y-3415430D01*
X62724673Y-3415432D01*
X62496516Y-3476566D01*
X62496507Y-3476570D01*
X62282422Y-3576399D01*
X62282420Y-3576400D01*
X62088926Y-3711886D01*
X62088920Y-3711891D01*
X61921891Y-3878920D01*
X61921886Y-3878926D01*
X61786400Y-4072420D01*
X61786399Y-4072422D01*
X61686570Y-4286507D01*
X61686567Y-4286513D01*
X61629335Y-4500108D01*
X61592970Y-4559768D01*
X61530123Y-4590297D01*
X61460747Y-4582002D01*
X61406869Y-4537517D01*
X61390900Y-4504013D01*
X61348814Y-4365273D01*
X61348811Y-4365269D01*
X61348811Y-4365266D01*
X61255913Y-4191467D01*
X61255909Y-4191460D01*
X61130883Y-4039116D01*
X60978539Y-3914090D01*
X60978532Y-3914086D01*
X60804733Y-3821188D01*
X60804727Y-3821186D01*
X60616132Y-3763976D01*
X60616129Y-3763975D01*
X60420000Y-3744659D01*
X60223870Y-3763975D01*
X60035266Y-3821188D01*
X59861467Y-3914086D01*
X59861460Y-3914090D01*
X59709116Y-4039116D01*
X59584090Y-4191460D01*
X59584086Y-4191467D01*
X59491188Y-4365266D01*
X59433975Y-4553870D01*
X59414659Y-4750000D01*
X58885341Y-4750000D01*
X58866024Y-4553868D01*
X58808814Y-4365273D01*
X58808811Y-4365269D01*
X58808811Y-4365266D01*
X58715913Y-4191467D01*
X58715909Y-4191460D01*
X58590883Y-4039116D01*
X58438539Y-3914090D01*
X58438532Y-3914086D01*
X58264733Y-3821188D01*
X58264727Y-3821186D01*
X58076132Y-3763976D01*
X58076129Y-3763975D01*
X57880000Y-3744659D01*
X57683870Y-3763975D01*
X57495266Y-3821188D01*
X57321467Y-3914086D01*
X57321460Y-3914090D01*
X57169116Y-4039116D01*
X57044090Y-4191460D01*
X57044086Y-4191467D01*
X57024076Y-4228904D01*
X56975114Y-4278748D01*
X56906976Y-4294209D01*
X56841297Y-4270377D01*
X56827037Y-4258132D01*
X56083610Y-3514705D01*
X56066170Y-3497264D01*
X56002736Y-3433830D01*
X56002735Y-3433829D01*
X55978457Y-3423772D01*
X55978457Y-3423771D01*
X55919858Y-3399500D01*
X55919856Y-3399499D01*
X55919855Y-3399499D01*
X55830145Y-3399499D01*
X55815711Y-3399499D01*
X55815703Y-3399500D01*
X53169854Y-3399500D01*
X53080145Y-3399500D01*
X53080143Y-3399500D01*
X53080141Y-3399501D01*
X52997266Y-3433827D01*
X52705401Y-3725692D01*
X52644078Y-3759177D01*
X52629876Y-3761414D01*
X52603871Y-3763975D01*
X52415266Y-3821188D01*
X52241467Y-3914086D01*
X52241460Y-3914090D01*
X52089116Y-4039116D01*
X51964090Y-4191460D01*
X51964086Y-4191467D01*
X51871188Y-4365266D01*
X51813975Y-4553870D01*
X51794659Y-4750000D01*
X45246397Y-4750000D01*
X45241920Y-4748330D01*
X45036801Y-4671825D01*
X45036794Y-4671823D01*
X45036793Y-4671823D01*
X44771167Y-4614040D01*
X44771160Y-4614039D01*
X44500001Y-4594645D01*
X44499999Y-4594645D01*
X44228839Y-4614039D01*
X44228832Y-4614040D01*
X43963206Y-4671823D01*
X43963202Y-4671824D01*
X43963199Y-4671825D01*
X43835843Y-4719326D01*
X43708480Y-4766830D01*
X43469892Y-4897109D01*
X43469891Y-4897110D01*
X43252259Y-5060028D01*
X43252247Y-5060038D01*
X43060038Y-5252247D01*
X43060028Y-5252259D01*
X42897110Y-5469891D01*
X42897109Y-5469892D01*
X42766830Y-5708480D01*
X42732156Y-5801446D01*
X42671825Y-5963199D01*
X42671824Y-5963202D01*
X42671823Y-5963206D01*
X42614040Y-6228832D01*
X42614039Y-6228839D01*
X42594645Y-6499998D01*
X18182429Y-6499998D01*
X18236341Y-6385430D01*
X18329681Y-6098160D01*
X18386280Y-5801457D01*
X18388934Y-5759272D01*
X18405246Y-5500005D01*
X18405246Y-5499994D01*
X18386281Y-5198553D01*
X18386280Y-5198546D01*
X18386280Y-5198543D01*
X18329681Y-4901840D01*
X18236341Y-4614570D01*
X18107733Y-4341264D01*
X17945885Y-4086232D01*
X17753349Y-3853496D01*
X17752634Y-3852825D01*
X17533163Y-3646727D01*
X17533153Y-3646719D01*
X17288806Y-3469191D01*
X17288799Y-3469186D01*
X17288795Y-3469184D01*
X17024104Y-3323668D01*
X17024101Y-3323666D01*
X17024096Y-3323664D01*
X17024095Y-3323663D01*
X16743265Y-3212475D01*
X16743262Y-3212474D01*
X16450695Y-3137357D01*
X16151036Y-3099500D01*
X16151027Y-3099500D01*
X15848973Y-3099500D01*
X15848963Y-3099500D01*
X15549304Y-3137357D01*
X15256737Y-3212474D01*
X15256734Y-3212475D01*
X14975904Y-3323663D01*
X14975903Y-3323664D01*
X14711205Y-3469184D01*
X14711193Y-3469191D01*
X14466846Y-3646719D01*
X14466836Y-3646727D01*
X14246652Y-3853494D01*
X14054111Y-4086236D01*
X13892268Y-4341261D01*
X13892265Y-4341267D01*
X13763661Y-4614563D01*
X13763659Y-4614568D01*
X13670320Y-4901835D01*
X13613719Y-5198546D01*
X13613718Y-5198553D01*
X13594754Y-5499994D01*
X400500Y-5499994D01*
X400500Y-1006961D01*
X401280Y-993078D01*
X413966Y-880485D01*
X413967Y-880484D01*
X413966Y-880481D01*
X420142Y-853418D01*
X455256Y-753068D01*
X467299Y-728062D01*
X523863Y-638040D01*
X541168Y-616341D01*
X616341Y-541168D01*
X638040Y-523863D01*
X728062Y-467299D01*
X753068Y-455256D01*
X853418Y-420142D01*
X880481Y-413966D01*
X977769Y-403004D01*
X993078Y-401280D01*
X1006961Y-400500D01*
X1057583Y-400500D01*
X87942417Y-400500D01*
X87993039Y-400500D01*
X88006922Y-401279D01*
G37*
%TD.AperFunction*%
%TD*%
M02*
