%TF.GenerationSoftware,KiCad,Pcbnew,8.0.4*%
%TF.CreationDate,2024-11-19T13:09:34+13:00*%
%TF.ProjectId,CDRC,43445243-2e6b-4696-9361-645f70636258,B*%
%TF.SameCoordinates,Original*%
%TF.FileFunction,Soldermask,Bot*%
%TF.FilePolarity,Negative*%
%FSLAX46Y46*%
G04 Gerber Fmt 4.6, Leading zero omitted, Abs format (unit mm)*
G04 Created by KiCad (PCBNEW 8.0.4) date 2024-11-19 13:09:34*
%MOMM*%
%LPD*%
G01*
G04 APERTURE LIST*
%ADD10C,2.000000*%
%ADD11R,1.700000X1.700000*%
%ADD12O,1.700000X1.700000*%
%ADD13C,2.374900*%
%ADD14C,0.990600*%
%ADD15C,3.100000*%
%ADD16C,4.500000*%
G04 APERTURE END LIST*
D10*
%TO.C,TP101*%
X67500000Y-17500000D03*
%TD*%
D11*
%TO.C,J301*%
X63500000Y-2750000D03*
D12*
X60960000Y-2750000D03*
X58420000Y-2750000D03*
X55880000Y-2750000D03*
X53340000Y-2750000D03*
X50800000Y-2750000D03*
%TD*%
D13*
%TO.C,J401*%
X53960000Y-10500000D03*
D14*
X56500000Y-10500000D03*
D13*
X59040000Y-10500000D03*
X53960000Y-7325000D03*
X59040000Y-7325000D03*
D14*
X55484000Y-5420000D03*
X57516000Y-5420000D03*
%TD*%
D10*
%TO.C,TP508*%
X14000000Y-13500000D03*
%TD*%
D15*
%TO.C,H104*%
X81500000Y-36500000D03*
D16*
X81500000Y-36500000D03*
%TD*%
D15*
%TO.C,H102*%
X81500000Y-3500000D03*
D16*
X81500000Y-3500000D03*
%TD*%
D15*
%TO.C,H103*%
X14000000Y-3500000D03*
D16*
X14000000Y-3500000D03*
%TD*%
D15*
%TO.C,H101*%
X14000000Y-36500000D03*
D16*
X14000000Y-36500000D03*
%TD*%
G36*
X86976326Y1133053D02*
G01*
X86997978Y1082539D01*
X86999978Y1000899D01*
X87000000Y999087D01*
X87000000Y-40999086D01*
X86999978Y-41000898D01*
X86997978Y-41082538D01*
X86975029Y-41134318D01*
X86922188Y-41154704D01*
X86870408Y-41131755D01*
X86850000Y-41080726D01*
X86850000Y1080727D01*
X86871674Y1133053D01*
X86924000Y1154727D01*
X86976326Y1133053D01*
G37*
G36*
X86000898Y1999978D02*
G01*
X86091882Y1997750D01*
X86104507Y1996350D01*
X86283838Y1960678D01*
X86297719Y1956467D01*
X86465802Y1886845D01*
X86478596Y1880007D01*
X86629867Y1778931D01*
X86641081Y1769728D01*
X86769727Y1641082D01*
X86778930Y1629868D01*
X86880006Y1478597D01*
X86886844Y1465803D01*
X86956466Y1297720D01*
X86960677Y1283839D01*
X86996349Y1104508D01*
X86997749Y1091883D01*
X86999978Y1000899D01*
X87000000Y999087D01*
X87000000Y-40999086D01*
X86999978Y-41000898D01*
X86997749Y-41091882D01*
X86996349Y-41104507D01*
X86960677Y-41283838D01*
X86956466Y-41297719D01*
X86886844Y-41465802D01*
X86880006Y-41478596D01*
X86778930Y-41629867D01*
X86769727Y-41641081D01*
X86641081Y-41769727D01*
X86629867Y-41778930D01*
X86478596Y-41880006D01*
X86465802Y-41886844D01*
X86297719Y-41956466D01*
X86283838Y-41960677D01*
X86104507Y-41996349D01*
X86091882Y-41997749D01*
X86000898Y-41999978D01*
X85999086Y-42000000D01*
X-999086Y-42000000D01*
X-1000898Y-41999978D01*
X-1091883Y-41997749D01*
X-1104508Y-41996349D01*
X-1283839Y-41960677D01*
X-1297720Y-41956466D01*
X-1465803Y-41886844D01*
X-1478597Y-41880006D01*
X-1629868Y-41778930D01*
X-1641082Y-41769727D01*
X-1769728Y-41641081D01*
X-1778931Y-41629867D01*
X-1880007Y-41478596D01*
X-1886845Y-41465802D01*
X-1956467Y-41297719D01*
X-1960678Y-41283838D01*
X-1996350Y-41104507D01*
X-1997750Y-41091882D01*
X-1999978Y-41000898D01*
X-2000000Y-40999086D01*
X-2000000Y-40250000D01*
X-250000Y-40250000D01*
X85250000Y-40250000D01*
X85250000Y250000D01*
X-250000Y250000D01*
X-250000Y-40250000D01*
X-2000000Y-40250000D01*
X-2000000Y999087D01*
X-1999978Y1000899D01*
X-1997750Y1091883D01*
X-1996350Y1104508D01*
X-1960678Y1283839D01*
X-1956467Y1297720D01*
X-1886845Y1465803D01*
X-1880007Y1478597D01*
X-1778931Y1629868D01*
X-1769728Y1641082D01*
X-1641082Y1769728D01*
X-1629868Y1778931D01*
X-1478597Y1880007D01*
X-1465803Y1886845D01*
X-1297720Y1956467D01*
X-1283839Y1960678D01*
X-1104508Y1996350D01*
X-1091883Y1997750D01*
X-1000898Y1999978D01*
X-999086Y2000000D01*
X85999086Y2000000D01*
X86000898Y1999978D01*
G37*
M02*
