M48
; DRILL file {KiCad 8.0.4} date 2024-11-19T13:09:34+1300
; FORMAT={-:-/ absolute / inch / decimal}
; #@! TF.CreationDate,2024-11-19T13:09:34+13:00
; #@! TF.GenerationSoftware,Kicad,Pcbnew,8.0.4
; #@! TF.FileFunction,Plated,1,2,PTH
FMAT,2
INCH
; #@! TA.AperFunction,Plated,PTH,ComponentDrill
T1C0.0079
; #@! TA.AperFunction,Plated,PTH,ViaDrill
T2C0.0118
; #@! TA.AperFunction,Plated,PTH,ViaDrill
T3C0.0157
; #@! TA.AperFunction,Plated,PTH,ComponentDrill
T4C0.0394
; #@! TA.AperFunction,Plated,PTH,ComponentDrill
T5C0.1063
%
G90
G05
T1
X1.4646Y-0.7047
X1.4646Y-0.7598
X1.4921Y-0.6772
X1.4921Y-0.7323
X1.4921Y-0.7874
X1.5197Y-0.7047
X1.5197Y-0.7598
X1.5472Y-0.6772
X1.5472Y-0.7323
X1.5472Y-0.7874
X1.5748Y-0.7047
X1.5748Y-0.7598
T2
X0.7874Y-0.5315
X0.7874Y-0.6299
X0.8071Y-0.3543
X0.8071Y-1.0433
X0.8071Y-1.2205
X0.8071Y-1.3976
X1.1713Y-0.7185
X1.2992Y-0.7283
X1.7717Y-0.251
X1.811Y-0.2165
X1.8307Y-0.3346
X1.8701Y-0.2854
X2.0472Y-0.9843
X2.1555Y-0.1575
X2.187Y-0.8114
T3
X-0.0394Y0.0
X-0.0394Y-0.1969
X-0.0394Y-0.3937
X-0.0394Y-0.5906
X-0.0394Y-0.7874
X-0.0394Y-0.9843
X-0.0394Y-1.1811
X-0.0394Y-1.378
X-0.0394Y-1.5748
X0.0984Y0.0394
X0.0984Y-1.6142
X0.1969Y-1.1417
X0.1969Y-1.1811
X0.1969Y-1.2205
X0.1969Y-1.2992
X0.1969Y-1.3386
X0.1969Y-1.378
X0.2953Y0.0394
X0.2953Y-1.6142
X0.315Y-0.0984
X0.3543Y-0.0984
X0.3937Y-0.0984
X0.3937Y-0.5906
X0.3937Y-0.689
X0.4331Y-0.0984
X0.4331Y-0.3937
X0.4528Y-1.2106
X0.4921Y0.0394
X0.4921Y-0.2953
X0.4921Y-0.5906
X0.4921Y-0.689
X0.4921Y-1.0827
X0.4921Y-1.2795
X0.4921Y-1.6142
X0.5906Y-0.2953
X0.5906Y-0.689
X0.5906Y-0.8858
X0.5906Y-1.0827
X0.5906Y-1.2795
X0.689Y0.0394
X0.689Y-0.0984
X0.689Y-0.1969
X0.689Y-0.2953
X0.689Y-0.4921
X0.689Y-0.5906
X0.689Y-0.8858
X0.689Y-1.0827
X0.689Y-1.2795
X0.689Y-1.378
X0.689Y-1.6142
X0.7874Y-0.4921
X0.7874Y-0.5906
X0.7972Y-0.1772
X0.7972Y-0.2165
X0.7972Y-0.2559
X0.8858Y0.0394
X0.8858Y-1.6142
X0.9646Y-0.6594
X0.9646Y-0.748
X0.9843Y-0.0984
X1.0827Y0.0394
X1.0827Y-0.0984
X1.0827Y-0.1969
X1.0827Y-1.6142
X1.1122Y-0.3543
X1.1417Y-0.4232
X1.1614Y-0.2756
X1.1614Y-0.3543
X1.1614Y-0.3937
X1.1811Y-0.0984
X1.1811Y-0.1969
X1.1811Y-1.1811
X1.1811Y-1.2795
X1.1811Y-1.378
X1.2795Y0.0394
X1.2795Y-1.2795
X1.2795Y-1.378
X1.2795Y-1.6142
X1.2992Y-1.063
X1.2992Y-1.122
X1.2992Y-1.1811
X1.2992Y-1.2205
X1.3583Y-1.063
X1.3583Y-1.2205
X1.378Y-0.5906
X1.378Y-0.689
X1.378Y-0.7874
X1.378Y-0.8858
X1.378Y-1.378
X1.4764Y0.0394
X1.4764Y-0.5906
X1.4764Y-0.8858
X1.4764Y-1.0827
X1.4764Y-1.2795
X1.4764Y-1.378
X1.4764Y-1.6142
X1.5748Y-0.3543
X1.5748Y-0.4921
X1.5748Y-0.5906
X1.5748Y-0.8858
X1.5748Y-1.0827
X1.5748Y-1.2795
X1.5748Y-1.378
X1.6732Y0.0394
X1.6732Y-0.3543
X1.6732Y-0.4921
X1.6732Y-0.5906
X1.6732Y-0.689
X1.6732Y-0.7874
X1.6732Y-0.8858
X1.6732Y-1.0827
X1.6732Y-1.2795
X1.6732Y-1.378
X1.6732Y-1.6142
X1.7717Y-0.3543
X1.7717Y-0.4921
X1.7717Y-0.5906
X1.7717Y-0.689
X1.7717Y-0.7874
X1.7717Y-0.8858
X1.7717Y-1.0827
X1.7717Y-1.2795
X1.7717Y-1.378
X1.8701Y0.0394
X1.8701Y-1.378
X1.8701Y-1.6142
X1.9094Y-0.2756
X1.9094Y-0.3543
X1.9685Y-0.2756
X1.9685Y-0.3543
X1.9685Y-1.378
X1.9882Y-0.4429
X1.9882Y-0.502
X1.9882Y-0.5512
X1.998Y-0.7283
X2.0276Y-0.2756
X2.0571Y-0.7283
X2.0669Y0.0394
X2.0669Y-1.6142
X2.185Y-0.8858
X2.185Y-0.9646
X2.2047Y-0.4921
X2.2047Y-0.5512
X2.2047Y-0.6299
X2.2047Y-0.7087
X2.2638Y0.0394
X2.2638Y-1.6142
X2.2835Y-0.5512
X2.3228Y-0.2067
X2.3622Y-0.5512
X2.3781Y-0.9116
X2.3962Y-0.7239
X2.4409Y-0.1969
X2.4409Y-0.2953
X2.4409Y-0.3937
X2.4409Y-0.5512
X2.4606Y0.0394
X2.4606Y-0.689
X2.4606Y-1.6142
X2.5591Y-0.0984
X2.5591Y-0.1969
X2.5591Y-0.2953
X2.5591Y-0.3937
X2.5591Y-0.4921
X2.5591Y-0.5906
X2.5591Y-0.689
X2.5984Y-1.2106
X2.6476Y-1.1614
X2.6476Y-1.2106
X2.6476Y-1.2598
X2.6575Y0.0394
X2.6575Y-0.1969
X2.6575Y-0.2953
X2.6575Y-0.3937
X2.6575Y-0.4921
X2.6575Y-0.5906
X2.6575Y-1.6142
X2.6969Y-1.2106
X2.7461Y-0.8169
X2.7461Y-0.8563
X2.7559Y-0.1969
X2.7559Y-0.2953
X2.7559Y-0.3937
X2.7559Y-0.4921
X2.8346Y-0.5413
X2.8346Y-0.6398
X2.8346Y-0.7382
X2.8543Y0.0394
X2.8543Y-0.1969
X2.8543Y-0.2953
X2.8543Y-0.3937
X2.8543Y-1.6142
X2.9134Y-0.5906
X2.9134Y-0.689
X2.9528Y-0.1969
X2.9528Y-0.2953
X2.9528Y-0.3937
X2.9528Y-0.4921
X2.9528Y-0.5906
X2.9528Y-0.689
X2.9528Y-0.7874
X2.9528Y-0.8858
X2.9528Y-0.9843
X3.0512Y0.0394
X3.0512Y-0.0984
X3.0512Y-0.1969
X3.0512Y-0.2953
X3.0512Y-0.3937
X3.0512Y-0.4921
X3.0512Y-0.5906
X3.0512Y-0.689
X3.0512Y-0.7874
X3.0512Y-0.8858
X3.0512Y-0.9843
X3.0512Y-1.0827
X3.0512Y-1.378
X3.0512Y-1.4764
X3.0512Y-1.6142
X3.1496Y-0.2953
X3.1496Y-0.3937
X3.1496Y-1.1811
X3.1496Y-1.2795
X3.248Y0.0394
X3.248Y-0.2953
X3.248Y-0.3937
X3.248Y-1.1811
X3.248Y-1.2795
X3.248Y-1.6142
X3.3858Y0.0
X3.3858Y-0.1969
X3.3858Y-0.3937
X3.3858Y-0.5906
X3.3858Y-0.7874
X3.3858Y-0.9843
X3.3858Y-1.1811
X3.3858Y-1.378
X3.3858Y-1.5748
T4
X0.5512Y-0.5315
X2.0Y-0.1083
X2.1Y-0.1083
X2.2Y-0.1083
X2.3Y-0.1083
X2.4Y-0.1083
X2.5Y-0.1083
X2.6575Y-0.689
T5
X0.5512Y-0.1378
X0.5512Y-1.437
X3.2087Y-0.1378
X3.2087Y-1.437
M30
