%TF.GenerationSoftware,KiCad,Pcbnew,8.0.4*%
%TF.CreationDate,2024-09-01T09:58:53+12:00*%
%TF.ProjectId,CDRC,43445243-2e6b-4696-9361-645f70636258,A*%
%TF.SameCoordinates,Original*%
%TF.FileFunction,Copper,L1,Top*%
%TF.FilePolarity,Positive*%
%FSLAX46Y46*%
G04 Gerber Fmt 4.6, Leading zero omitted, Abs format (unit mm)*
G04 Created by KiCad (PCBNEW 8.0.4) date 2024-09-01 09:58:53*
%MOMM*%
%LPD*%
G01*
G04 APERTURE LIST*
G04 Aperture macros list*
%AMRoundRect*
0 Rectangle with rounded corners*
0 $1 Rounding radius*
0 $2 $3 $4 $5 $6 $7 $8 $9 X,Y pos of 4 corners*
0 Add a 4 corners polygon primitive as box body*
4,1,4,$2,$3,$4,$5,$6,$7,$8,$9,$2,$3,0*
0 Add four circle primitives for the rounded corners*
1,1,$1+$1,$2,$3*
1,1,$1+$1,$4,$5*
1,1,$1+$1,$6,$7*
1,1,$1+$1,$8,$9*
0 Add four rect primitives between the rounded corners*
20,1,$1+$1,$2,$3,$4,$5,0*
20,1,$1+$1,$4,$5,$6,$7,0*
20,1,$1+$1,$6,$7,$8,$9,0*
20,1,$1+$1,$8,$9,$2,$3,0*%
%AMFreePoly0*
4,1,19,0.550000,-0.750000,0.000000,-0.750000,0.000000,-0.744911,-0.071157,-0.744911,-0.207708,-0.704816,-0.327430,-0.627875,-0.420627,-0.520320,-0.479746,-0.390866,-0.500000,-0.250000,-0.500000,0.250000,-0.479746,0.390866,-0.420627,0.520320,-0.327430,0.627875,-0.207708,0.704816,-0.071157,0.744911,0.000000,0.744911,0.000000,0.750000,0.550000,0.750000,0.550000,-0.750000,0.550000,-0.750000,
$1*%
%AMFreePoly1*
4,1,19,0.000000,0.744911,0.071157,0.744911,0.207708,0.704816,0.327430,0.627875,0.420627,0.520320,0.479746,0.390866,0.500000,0.250000,0.500000,-0.250000,0.479746,-0.390866,0.420627,-0.520320,0.327430,-0.627875,0.207708,-0.704816,0.071157,-0.744911,0.000000,-0.744911,0.000000,-0.750000,-0.550000,-0.750000,-0.550000,0.750000,0.000000,0.750000,0.000000,0.744911,0.000000,0.744911,
$1*%
G04 Aperture macros list end*
%TA.AperFunction,EtchedComponent*%
%ADD10C,0.000000*%
%TD*%
%TA.AperFunction,SMDPad,CuDef*%
%ADD11RoundRect,0.237500X-0.237500X0.300000X-0.237500X-0.300000X0.237500X-0.300000X0.237500X0.300000X0*%
%TD*%
%TA.AperFunction,ComponentPad*%
%ADD12C,2.000000*%
%TD*%
%TA.AperFunction,SMDPad,CuDef*%
%ADD13C,1.500000*%
%TD*%
%TA.AperFunction,SMDPad,CuDef*%
%ADD14RoundRect,0.237500X0.300000X0.237500X-0.300000X0.237500X-0.300000X-0.237500X0.300000X-0.237500X0*%
%TD*%
%TA.AperFunction,SMDPad,CuDef*%
%ADD15RoundRect,0.237500X0.237500X-0.250000X0.237500X0.250000X-0.237500X0.250000X-0.237500X-0.250000X0*%
%TD*%
%TA.AperFunction,SMDPad,CuDef*%
%ADD16RoundRect,0.237500X-0.237500X0.250000X-0.237500X-0.250000X0.237500X-0.250000X0.237500X0.250000X0*%
%TD*%
%TA.AperFunction,SMDPad,CuDef*%
%ADD17RoundRect,0.250000X-0.337500X-0.475000X0.337500X-0.475000X0.337500X0.475000X-0.337500X0.475000X0*%
%TD*%
%TA.AperFunction,SMDPad,CuDef*%
%ADD18RoundRect,0.237500X0.250000X0.237500X-0.250000X0.237500X-0.250000X-0.237500X0.250000X-0.237500X0*%
%TD*%
%TA.AperFunction,SMDPad,CuDef*%
%ADD19RoundRect,0.237500X-0.250000X-0.237500X0.250000X-0.237500X0.250000X0.237500X-0.250000X0.237500X0*%
%TD*%
%TA.AperFunction,SMDPad,CuDef*%
%ADD20RoundRect,0.237500X0.237500X-0.300000X0.237500X0.300000X-0.237500X0.300000X-0.237500X-0.300000X0*%
%TD*%
%TA.AperFunction,SMDPad,CuDef*%
%ADD21RoundRect,0.250000X-0.475000X0.337500X-0.475000X-0.337500X0.475000X-0.337500X0.475000X0.337500X0*%
%TD*%
%TA.AperFunction,SMDPad,CuDef*%
%ADD22R,1.500000X0.900000*%
%TD*%
%TA.AperFunction,SMDPad,CuDef*%
%ADD23R,0.900000X1.500000*%
%TD*%
%TA.AperFunction,SMDPad,CuDef*%
%ADD24R,0.900000X0.900000*%
%TD*%
%TA.AperFunction,HeatsinkPad*%
%ADD25C,0.600000*%
%TD*%
%TA.AperFunction,SMDPad,CuDef*%
%ADD26R,3.800000X3.800000*%
%TD*%
%TA.AperFunction,SMDPad,CuDef*%
%ADD27RoundRect,0.150000X0.150000X-0.587500X0.150000X0.587500X-0.150000X0.587500X-0.150000X-0.587500X0*%
%TD*%
%TA.AperFunction,SMDPad,CuDef*%
%ADD28RoundRect,0.250000X0.475000X-0.337500X0.475000X0.337500X-0.475000X0.337500X-0.475000X-0.337500X0*%
%TD*%
%TA.AperFunction,ComponentPad*%
%ADD29RoundRect,0.250000X0.625000X-0.350000X0.625000X0.350000X-0.625000X0.350000X-0.625000X-0.350000X0*%
%TD*%
%TA.AperFunction,ComponentPad*%
%ADD30O,1.750000X1.200000*%
%TD*%
%TA.AperFunction,SMDPad,CuDef*%
%ADD31R,0.250000X1.000000*%
%TD*%
%TA.AperFunction,SMDPad,CuDef*%
%ADD32R,0.450000X1.000000*%
%TD*%
%TA.AperFunction,SMDPad,CuDef*%
%ADD33RoundRect,0.150000X-0.825000X-0.150000X0.825000X-0.150000X0.825000X0.150000X-0.825000X0.150000X0*%
%TD*%
%TA.AperFunction,SMDPad,CuDef*%
%ADD34FreePoly0,270.000000*%
%TD*%
%TA.AperFunction,SMDPad,CuDef*%
%ADD35R,1.500000X1.000000*%
%TD*%
%TA.AperFunction,SMDPad,CuDef*%
%ADD36FreePoly1,270.000000*%
%TD*%
%TA.AperFunction,ComponentPad*%
%ADD37R,1.700000X1.700000*%
%TD*%
%TA.AperFunction,ComponentPad*%
%ADD38O,1.700000X1.700000*%
%TD*%
%TA.AperFunction,SMDPad,CuDef*%
%ADD39RoundRect,0.237500X0.287500X0.237500X-0.287500X0.237500X-0.287500X-0.237500X0.287500X-0.237500X0*%
%TD*%
%TA.AperFunction,SMDPad,CuDef*%
%ADD40RoundRect,0.093750X-0.093750X-0.106250X0.093750X-0.106250X0.093750X0.106250X-0.093750X0.106250X0*%
%TD*%
%TA.AperFunction,HeatsinkPad*%
%ADD41C,0.500000*%
%TD*%
%TA.AperFunction,HeatsinkPad*%
%ADD42R,1.000000X1.600000*%
%TD*%
%TA.AperFunction,SMDPad,CuDef*%
%ADD43RoundRect,0.250001X-0.624999X0.462499X-0.624999X-0.462499X0.624999X-0.462499X0.624999X0.462499X0*%
%TD*%
%TA.AperFunction,SMDPad,CuDef*%
%ADD44RoundRect,0.237500X0.237500X-0.287500X0.237500X0.287500X-0.237500X0.287500X-0.237500X-0.287500X0*%
%TD*%
%TA.AperFunction,SMDPad,CuDef*%
%ADD45RoundRect,0.150000X0.512500X0.150000X-0.512500X0.150000X-0.512500X-0.150000X0.512500X-0.150000X0*%
%TD*%
%TA.AperFunction,SMDPad,CuDef*%
%ADD46RoundRect,0.250000X-0.650000X1.500000X-0.650000X-1.500000X0.650000X-1.500000X0.650000X1.500000X0*%
%TD*%
%TA.AperFunction,SMDPad,CuDef*%
%ADD47R,1.500000X2.500000*%
%TD*%
%TA.AperFunction,SMDPad,CuDef*%
%ADD48RoundRect,0.237500X-0.300000X-0.237500X0.300000X-0.237500X0.300000X0.237500X-0.300000X0.237500X0*%
%TD*%
%TA.AperFunction,SMDPad,CuDef*%
%ADD49RoundRect,0.150000X-0.587500X-0.150000X0.587500X-0.150000X0.587500X0.150000X-0.587500X0.150000X0*%
%TD*%
%TA.AperFunction,ConnectorPad*%
%ADD50C,0.787400*%
%TD*%
%TA.AperFunction,ComponentPad*%
%ADD51RoundRect,0.250000X-0.350000X-0.625000X0.350000X-0.625000X0.350000X0.625000X-0.350000X0.625000X0*%
%TD*%
%TA.AperFunction,ComponentPad*%
%ADD52O,1.200000X1.750000*%
%TD*%
%TA.AperFunction,SMDPad,CuDef*%
%ADD53RoundRect,0.250000X0.412500X0.650000X-0.412500X0.650000X-0.412500X-0.650000X0.412500X-0.650000X0*%
%TD*%
%TA.AperFunction,ComponentPad*%
%ADD54RoundRect,0.250000X0.350000X0.625000X-0.350000X0.625000X-0.350000X-0.625000X0.350000X-0.625000X0*%
%TD*%
%TA.AperFunction,SMDPad,CuDef*%
%ADD55RoundRect,0.250000X0.250000X0.250000X-0.250000X0.250000X-0.250000X-0.250000X0.250000X-0.250000X0*%
%TD*%
%TA.AperFunction,ViaPad*%
%ADD56C,0.800000*%
%TD*%
%TA.AperFunction,ViaPad*%
%ADD57C,0.600000*%
%TD*%
%TA.AperFunction,ViaPad*%
%ADD58C,0.700000*%
%TD*%
%TA.AperFunction,Conductor*%
%ADD59C,0.200000*%
%TD*%
%TA.AperFunction,Conductor*%
%ADD60C,0.900000*%
%TD*%
%TA.AperFunction,Conductor*%
%ADD61C,0.400000*%
%TD*%
%TA.AperFunction,Conductor*%
%ADD62C,0.600000*%
%TD*%
%TA.AperFunction,Conductor*%
%ADD63C,0.150000*%
%TD*%
G04 APERTURE END LIST*
D10*
%TA.AperFunction,EtchedComponent*%
%TO.C,JP304*%
G36*
X144550000Y-63850000D02*
G01*
X144150000Y-63850000D01*
X144150000Y-63350000D01*
X144550000Y-63350000D01*
X144550000Y-63850000D01*
G37*
%TD.AperFunction*%
%TA.AperFunction,EtchedComponent*%
G36*
X145350000Y-63850000D02*
G01*
X144950000Y-63850000D01*
X144950000Y-63350000D01*
X145350000Y-63350000D01*
X145350000Y-63850000D01*
G37*
%TD.AperFunction*%
%TD*%
D11*
%TO.P,C503,1*%
%TO.N,/MCU/GPIO39*%
X112014000Y-61367500D03*
%TO.P,C503,2*%
%TO.N,GND*%
X112014000Y-63092500D03*
%TD*%
D12*
%TO.P,TP101,1,1*%
%TO.N,GND*%
X163500000Y-59000000D03*
%TD*%
D13*
%TO.P,TP401,1,1*%
%TO.N,Net-(U401-IO13)*%
X130500000Y-78000000D03*
%TD*%
%TO.P,TP505,1,1*%
%TO.N,/MCU/GPIO36*%
X114000000Y-62250000D03*
%TD*%
D14*
%TO.P,C401,1*%
%TO.N,/MCU/ESP_EN*%
X118862500Y-55250000D03*
%TO.P,C401,2*%
%TO.N,GND*%
X117137500Y-55250000D03*
%TD*%
D15*
%TO.P,R305,1*%
%TO.N,/MCU/IO19*%
X142250000Y-65412500D03*
%TO.P,R305,2*%
%TO.N,GND*%
X142250000Y-63587500D03*
%TD*%
D16*
%TO.P,R505,1*%
%TO.N,GND*%
X96500000Y-69837500D03*
%TO.P,R505,2*%
%TO.N,Net-(Q501-G)*%
X96500000Y-71662500D03*
%TD*%
D13*
%TO.P,TP204,1,1*%
%TO.N,Net-(D202-K)*%
X158250000Y-67750000D03*
%TD*%
D17*
%TO.P,C205,1*%
%TO.N,+5V*%
X146462500Y-72250000D03*
%TO.P,C205,2*%
%TO.N,GND*%
X148537500Y-72250000D03*
%TD*%
%TO.P,C204,1*%
%TO.N,+5V*%
X146462500Y-70250000D03*
%TO.P,C204,2*%
%TO.N,GND*%
X148537500Y-70250000D03*
%TD*%
D18*
%TO.P,R512,1*%
%TO.N,/MCU/IO33*%
X110386500Y-75692000D03*
%TO.P,R512,2*%
%TO.N,/USER_INTERFACE/ENC_1_SW*%
X108561500Y-75692000D03*
%TD*%
D11*
%TO.P,C501,1*%
%TO.N,/MCU/IO32*%
X112014000Y-72035500D03*
%TO.P,C501,2*%
%TO.N,GND*%
X112014000Y-73760500D03*
%TD*%
D13*
%TO.P,TP307,1,1*%
%TO.N,GND*%
X158000000Y-59500000D03*
%TD*%
D18*
%TO.P,R304,1*%
%TO.N,/DSP_RS485_A{slash}Y*%
X158912500Y-63750000D03*
%TO.P,R304,2*%
%TO.N,/RS485/RS485_A*%
X157087500Y-63750000D03*
%TD*%
D13*
%TO.P,TP203,1,1*%
%TO.N,+5V*%
X144250000Y-71250000D03*
%TD*%
D18*
%TO.P,R515,1*%
%TO.N,/MCU/IO34*%
X110386500Y-65024000D03*
%TO.P,R515,2*%
%TO.N,/USER_INTERFACE/ENC_2_SW*%
X108561500Y-65024000D03*
%TD*%
D19*
%TO.P,R302,1*%
%TO.N,/RS485/RS485_B*%
X157087500Y-61750000D03*
%TO.P,R302,2*%
%TO.N,/DSP_RS485_B{slash}Z*%
X158912500Y-61750000D03*
%TD*%
D20*
%TO.P,C505,1*%
%TO.N,/MCU/IO33*%
X112014000Y-77316500D03*
%TO.P,C505,2*%
%TO.N,GND*%
X112014000Y-75591500D03*
%TD*%
D21*
%TO.P,C206,1*%
%TO.N,+5V*%
X143500000Y-73962500D03*
%TO.P,C206,2*%
%TO.N,GND*%
X143500000Y-76037500D03*
%TD*%
D22*
%TO.P,U401,1,GND*%
%TO.N,GND*%
X117250000Y-57510000D03*
%TO.P,U401,2,VDD*%
%TO.N,VCC*%
X117250000Y-58780000D03*
%TO.P,U401,3,EN*%
%TO.N,/MCU/ESP_EN*%
X117250000Y-60050000D03*
%TO.P,U401,4,SENSOR_VP*%
%TO.N,/MCU/GPIO36*%
X117250000Y-61320000D03*
%TO.P,U401,5,SENSOR_VN*%
%TO.N,/MCU/GPIO39*%
X117250000Y-62590000D03*
%TO.P,U401,6,IO34*%
%TO.N,/MCU/IO34*%
X117250000Y-63860000D03*
%TO.P,U401,7,IO35*%
%TO.N,/MCU/IO35*%
X117250000Y-65130000D03*
%TO.P,U401,8,IO32*%
%TO.N,/MCU/IO32*%
X117250000Y-66400000D03*
%TO.P,U401,9,IO33*%
%TO.N,/MCU/IO33*%
X117250000Y-67670000D03*
%TO.P,U401,10,IO25*%
%TO.N,/MCU/IO25*%
X117250000Y-68940000D03*
%TO.P,U401,11,IO26*%
%TO.N,Net-(U401-IO26)*%
X117250000Y-70210000D03*
%TO.P,U401,12,IO27*%
%TO.N,Net-(U401-IO27)*%
X117250000Y-71480000D03*
%TO.P,U401,13,IO14*%
%TO.N,unconnected-(U401-IO14-Pad13)*%
X117250000Y-72750000D03*
%TO.P,U401,14,IO12*%
%TO.N,unconnected-(U401-IO12-Pad14)*%
X117250000Y-74020000D03*
D23*
%TO.P,U401,15,GND*%
%TO.N,GND*%
X120285000Y-75270000D03*
%TO.P,U401,16,IO13*%
%TO.N,Net-(U401-IO13)*%
X121555000Y-75270000D03*
%TO.P,U401,17,NC*%
%TO.N,unconnected-(U401-NC-Pad17)*%
X122825000Y-75270000D03*
%TO.P,U401,18,NC*%
%TO.N,unconnected-(U401-NC-Pad18)*%
X124095000Y-75270000D03*
%TO.P,U401,19,NC*%
%TO.N,unconnected-(U401-NC-Pad19)*%
X125365000Y-75270000D03*
%TO.P,U401,20,NC*%
%TO.N,unconnected-(U401-NC-Pad20)*%
X126635000Y-75270000D03*
%TO.P,U401,21,NC*%
%TO.N,unconnected-(U401-NC-Pad21)*%
X127905000Y-75270000D03*
%TO.P,U401,22,NC*%
%TO.N,unconnected-(U401-NC-Pad22)*%
X129175000Y-75270000D03*
%TO.P,U401,23,IO15*%
%TO.N,unconnected-(U401-IO15-Pad23)*%
X130445000Y-75270000D03*
%TO.P,U401,24,IO2*%
%TO.N,unconnected-(U401-IO2-Pad24)*%
X131715000Y-75270000D03*
D22*
%TO.P,U401,25,IO0*%
%TO.N,/MCU/ESP_BOOT0*%
X134750000Y-74020000D03*
%TO.P,U401,26,IO4*%
%TO.N,unconnected-(U401-IO4-Pad26)*%
X134750000Y-72750000D03*
%TO.P,U401,27,NC*%
%TO.N,unconnected-(U401-NC-Pad27)*%
X134750000Y-71480000D03*
%TO.P,U401,28,IO17*%
%TO.N,unconnected-(U401-IO17-Pad28)*%
X134750000Y-70210000D03*
%TO.P,U401,29,IO5*%
%TO.N,/MCU/DSP_EN*%
X134750000Y-68940000D03*
%TO.P,U401,30,IO18*%
%TO.N,/MCU/IO18*%
X134750000Y-67670000D03*
%TO.P,U401,31,IO19*%
%TO.N,/MCU/IO19*%
X134750000Y-66400000D03*
%TO.P,U401,32,NC*%
%TO.N,unconnected-(U401-NC-Pad32)*%
X134750000Y-65130000D03*
%TO.P,U401,33,IO21*%
%TO.N,/MCU/IO21*%
X134750000Y-63860000D03*
%TO.P,U401,34,RXD0/IO3*%
%TO.N,/MCU/ESP_RXD0*%
X134750000Y-62590000D03*
%TO.P,U401,35,TXD0/IO1*%
%TO.N,/MCU/ESP_TXD0*%
X134750000Y-61320000D03*
%TO.P,U401,36,IO22*%
%TO.N,unconnected-(U401-IO22-Pad36)*%
X134750000Y-60050000D03*
%TO.P,U401,37,IO23*%
%TO.N,unconnected-(U401-IO23-Pad37)*%
X134750000Y-58780000D03*
%TO.P,U401,38,GND*%
%TO.N,GND*%
X134750000Y-57510000D03*
D24*
%TO.P,U401,39,GND*%
X123100000Y-63450000D03*
D25*
X123100000Y-64150000D03*
D24*
X123100000Y-64850000D03*
D25*
X123100000Y-65550000D03*
D24*
X123100000Y-66250000D03*
D25*
X123800000Y-63450000D03*
X123800000Y-64850000D03*
X123800000Y-66250000D03*
D24*
X124500000Y-63450000D03*
D25*
X124500000Y-64150000D03*
D24*
X124500000Y-64850000D03*
D26*
X124500000Y-64850000D03*
D25*
X124500000Y-65550000D03*
D24*
X124500000Y-66250000D03*
D25*
X125200000Y-63450000D03*
X125200000Y-64850000D03*
X125200000Y-66250000D03*
D24*
X125900000Y-63450000D03*
D25*
X125900000Y-64150000D03*
D24*
X125900000Y-64850000D03*
D25*
X125900000Y-65550000D03*
D24*
X125900000Y-66250000D03*
%TD*%
D27*
%TO.P,Q501,1,G*%
%TO.N,Net-(Q501-G)*%
X98300000Y-71937500D03*
%TO.P,Q501,2,S*%
%TO.N,GND*%
X100200000Y-71937500D03*
%TO.P,Q501,3,D*%
%TO.N,Net-(J502-Pin_1)*%
X99250000Y-70062500D03*
%TD*%
D18*
%TO.P,R301,1*%
%TO.N,VCC*%
X149412500Y-58750000D03*
%TO.P,R301,2*%
%TO.N,/MCU/IO21*%
X147587500Y-58750000D03*
%TD*%
D13*
%TO.P,TP304,1,1*%
%TO.N,Net-(U401-IO26)*%
X120500000Y-77750000D03*
%TD*%
D19*
%TO.P,R504,1*%
%TO.N,/USER_INTERFACE/ENC_1_A*%
X108561500Y-68580000D03*
%TO.P,R504,2*%
%TO.N,/MCU/IO35*%
X110386500Y-68580000D03*
%TD*%
D28*
%TO.P,C207,1*%
%TO.N,GND*%
X137500000Y-76037500D03*
%TO.P,C207,2*%
%TO.N,Net-(D201-A)*%
X137500000Y-73962500D03*
%TD*%
D13*
%TO.P,TP202,1,1*%
%TO.N,GND*%
X135000000Y-77750000D03*
%TD*%
D29*
%TO.P,J502,1,Pin_1*%
%TO.N,Net-(J502-Pin_1)*%
X103750000Y-67250000D03*
D30*
%TO.P,J502,2,Pin_2*%
%TO.N,Net-(J502-Pin_2)*%
X103750000Y-65250000D03*
%TD*%
D31*
%TO.P,U501,1*%
%TO.N,/USER_INTERFACE/ENC_1_A*%
X101500000Y-72625000D03*
%TO.P,U501,2*%
%TO.N,/USER_INTERFACE/ENC_1_B*%
X102000000Y-72625000D03*
D32*
%TO.P,U501,3,VSS*%
%TO.N,GND*%
X102500000Y-72550000D03*
D31*
%TO.P,U501,4*%
%TO.N,/USER_INTERFACE/ENC_1_SW*%
X103000000Y-72625000D03*
%TO.P,U501,5*%
%TO.N,unconnected-(U501-Pad5)*%
X103500000Y-72625000D03*
%TO.P,U501,6*%
%TO.N,unconnected-(U501-Pad5)_1*%
X103500000Y-71475000D03*
%TO.P,U501,7*%
%TO.N,/USER_INTERFACE/ENC_1_SW*%
X103000000Y-71475000D03*
D32*
%TO.P,U501,8,VSS*%
%TO.N,GND*%
X102500000Y-71425000D03*
D31*
%TO.P,U501,9*%
%TO.N,/USER_INTERFACE/ENC_1_B*%
X102000000Y-71475000D03*
%TO.P,U501,10*%
%TO.N,/USER_INTERFACE/ENC_1_A*%
X101500000Y-71475000D03*
%TD*%
D33*
%TO.P,IC301,1,R*%
%TO.N,/MCU/IO21*%
X149025000Y-60845000D03*
%TO.P,IC301,2,~{RE}*%
%TO.N,/RS485/~{RE}*%
X149025000Y-62115000D03*
%TO.P,IC301,3,DE*%
%TO.N,/MCU/IO19*%
X149025000Y-63385000D03*
%TO.P,IC301,4,D*%
%TO.N,/MCU/IO18*%
X149025000Y-64655000D03*
%TO.P,IC301,5,GND*%
%TO.N,GND*%
X153975000Y-64655000D03*
%TO.P,IC301,6,A*%
%TO.N,/RS485/RS485_A*%
X153975000Y-63385000D03*
%TO.P,IC301,7,B*%
%TO.N,/RS485/RS485_B*%
X153975000Y-62115000D03*
%TO.P,IC301,8,VCC*%
%TO.N,VCC*%
X153975000Y-60845000D03*
%TD*%
D13*
%TO.P,TP303,1,1*%
%TO.N,/MCU/IO21*%
X140250000Y-62750000D03*
%TD*%
D19*
%TO.P,R509,1*%
%TO.N,/USER_INTERFACE/ENC_2_A*%
X108561500Y-59690000D03*
%TO.P,R509,2*%
%TO.N,VCC*%
X110386500Y-59690000D03*
%TD*%
D20*
%TO.P,C502,1*%
%TO.N,/MCU/IO35*%
X112014000Y-70204500D03*
%TO.P,C502,2*%
%TO.N,GND*%
X112014000Y-68479500D03*
%TD*%
%TO.P,C506,1*%
%TO.N,/MCU/IO34*%
X112014000Y-66648500D03*
%TO.P,C506,2*%
%TO.N,GND*%
X112014000Y-64923500D03*
%TD*%
D19*
%TO.P,R513,1*%
%TO.N,/USER_INTERFACE/ENC_1_SW*%
X108561500Y-77470000D03*
%TO.P,R513,2*%
%TO.N,VCC*%
X110386500Y-77470000D03*
%TD*%
D34*
%TO.P,JP304,1,A*%
%TO.N,GND*%
X144750000Y-62950000D03*
D35*
%TO.P,JP304,2,C*%
%TO.N,/RS485/~{RE}*%
X144750000Y-64250000D03*
D36*
%TO.P,JP304,3,B*%
%TO.N,/MCU/IO19*%
X144750000Y-65550000D03*
%TD*%
D19*
%TO.P,R511,1*%
%TO.N,/USER_INTERFACE/ENC_2_A*%
X108587500Y-58000000D03*
%TO.P,R511,2*%
%TO.N,/MCU/GPIO36*%
X110412500Y-58000000D03*
%TD*%
D16*
%TO.P,R503,1*%
%TO.N,/MCU/IO25*%
X113750000Y-75337500D03*
%TO.P,R503,2*%
%TO.N,Net-(Q501-G)*%
X113750000Y-77162500D03*
%TD*%
D37*
%TO.P,J101,1,Pin_1*%
%TO.N,unconnected-(J101-Pin_1-Pad1)*%
X167250000Y-56510000D03*
D38*
%TO.P,J101,2,Pin_2*%
%TO.N,GND*%
X167250000Y-59050000D03*
%TO.P,J101,3,Pin_3*%
X167250000Y-61590000D03*
%TO.P,J101,4,Pin_4*%
%TO.N,/DSP_RS485_B{slash}Z*%
X167250000Y-64130000D03*
%TO.P,J101,5,Pin_5*%
%TO.N,/DSP_RS485_A{slash}Y*%
X167250000Y-66670000D03*
%TO.P,J101,6,Pin_6*%
%TO.N,/DSP_POWER_EN*%
X167250000Y-69210000D03*
%TO.P,J101,7,Pin_7*%
%TO.N,/DSP_CONST_12V*%
X167250000Y-71750000D03*
%TD*%
D18*
%TO.P,R502,1*%
%TO.N,/MCU/IO32*%
X110386500Y-72136000D03*
%TO.P,R502,2*%
%TO.N,/USER_INTERFACE/ENC_1_B*%
X108561500Y-72136000D03*
%TD*%
D13*
%TO.P,TP302,1,1*%
%TO.N,/MCU/IO19*%
X138000000Y-65000000D03*
%TD*%
D14*
%TO.P,C201,1*%
%TO.N,Net-(U201-BST)*%
X153862500Y-78000000D03*
%TO.P,C201,2*%
%TO.N,Net-(U201-SW)*%
X152137500Y-78000000D03*
%TD*%
D39*
%TO.P,D401,1,K*%
%TO.N,GND*%
X126875000Y-77724000D03*
%TO.P,D401,2,A*%
%TO.N,Net-(D401-A)*%
X125125000Y-77724000D03*
%TD*%
D40*
%TO.P,U202,1,OUT*%
%TO.N,Net-(D201-A)*%
X139612500Y-73850000D03*
%TO.P,U202,2,SNS*%
X139612500Y-74500000D03*
%TO.P,U202,3,GND*%
%TO.N,GND*%
X139612500Y-75150000D03*
%TO.P,U202,4,EN*%
%TO.N,+5V*%
X141387500Y-75150000D03*
%TO.P,U202,5,GND*%
%TO.N,GND*%
X141387500Y-74500000D03*
%TO.P,U202,6,IN*%
%TO.N,+5V*%
X141387500Y-73850000D03*
D41*
%TO.P,U202,7,PAD*%
%TO.N,GND*%
X140500000Y-73950000D03*
D42*
X140500000Y-74500000D03*
D41*
X140500000Y-75050000D03*
%TD*%
D13*
%TO.P,TP305,1,1*%
%TO.N,VCC*%
X150250000Y-56750000D03*
%TD*%
D43*
%TO.P,F201,1*%
%TO.N,/DSP_CONST_12V*%
X161500000Y-72512500D03*
%TO.P,F201,2*%
%TO.N,Net-(D202-A)*%
X161500000Y-75487500D03*
%TD*%
D44*
%TO.P,F202,1*%
%TO.N,Net-(D201-A)*%
X137500000Y-71875000D03*
%TO.P,F202,2*%
%TO.N,Net-(F202-Pad2)*%
X137500000Y-70125000D03*
%TD*%
D13*
%TO.P,TP506,1,1*%
%TO.N,/MCU/IO34*%
X114000000Y-66750000D03*
%TD*%
%TO.P,TP501,1,1*%
%TO.N,/MCU/IO32*%
X114000000Y-71250000D03*
%TD*%
%TO.P,TP103,1,1*%
%TO.N,/DSP_POWER_EN*%
X155750000Y-66750000D03*
%TD*%
D45*
%TO.P,U201,1,FB*%
%TO.N,+5V*%
X154887500Y-75950000D03*
%TO.P,U201,2,EN*%
%TO.N,Net-(D202-K)*%
X154887500Y-75000000D03*
%TO.P,U201,3,IN*%
X154887500Y-74050000D03*
%TO.P,U201,4,GND*%
%TO.N,GND*%
X152612500Y-74050000D03*
%TO.P,U201,5,SW*%
%TO.N,Net-(U201-SW)*%
X152612500Y-75000000D03*
%TO.P,U201,6,BST*%
%TO.N,Net-(U201-BST)*%
X152612500Y-75950000D03*
%TD*%
D46*
%TO.P,D202,1,K*%
%TO.N,Net-(D202-K)*%
X158250000Y-71500000D03*
%TO.P,D202,2,A*%
%TO.N,Net-(D202-A)*%
X158250000Y-76500000D03*
%TD*%
D13*
%TO.P,TP201,1,1*%
%TO.N,GND*%
X150250000Y-68250000D03*
%TD*%
D47*
%TO.P,L201,1*%
%TO.N,Net-(U201-SW)*%
X150350000Y-76000000D03*
%TO.P,L201,2*%
%TO.N,+5V*%
X146650000Y-76000000D03*
%TD*%
D19*
%TO.P,R508,1*%
%TO.N,/USER_INTERFACE/ENC_2_B*%
X108561500Y-63246000D03*
%TO.P,R508,2*%
%TO.N,VCC*%
X110386500Y-63246000D03*
%TD*%
%TO.P,R514,1*%
%TO.N,/USER_INTERFACE/ENC_2_SW*%
X108561500Y-66802000D03*
%TO.P,R514,2*%
%TO.N,VCC*%
X110386500Y-66802000D03*
%TD*%
%TO.P,R401,1*%
%TO.N,VCC*%
X113587500Y-60250000D03*
%TO.P,R401,2*%
%TO.N,/MCU/ESP_EN*%
X115412500Y-60250000D03*
%TD*%
D28*
%TO.P,C402,1*%
%TO.N,VCC*%
X113500000Y-58537500D03*
%TO.P,C402,2*%
%TO.N,GND*%
X113500000Y-56462500D03*
%TD*%
D13*
%TO.P,TP301,1,1*%
%TO.N,/MCU/IO18*%
X140250000Y-66250000D03*
%TD*%
D48*
%TO.P,C301,1*%
%TO.N,VCC*%
X153887500Y-59250000D03*
%TO.P,C301,2*%
%TO.N,GND*%
X155612500Y-59250000D03*
%TD*%
D49*
%TO.P,D301,1,A1*%
%TO.N,/DSP_RS485_B{slash}Z*%
X162562500Y-64550000D03*
%TO.P,D301,2,A2*%
%TO.N,/DSP_RS485_A{slash}Y*%
X162562500Y-66450000D03*
%TO.P,D301,3,common*%
%TO.N,GND*%
X164437500Y-65500000D03*
%TD*%
D13*
%TO.P,TP503,1,1*%
%TO.N,/MCU/IO33*%
X114000000Y-73500000D03*
%TD*%
%TO.P,TP502,1,1*%
%TO.N,/MCU/IO35*%
X114000000Y-69000000D03*
%TD*%
D50*
%TO.P,J401,1,VCC*%
%TO.N,VCC*%
X141635000Y-58480000D03*
%TO.P,J401,2,SWDIO*%
%TO.N,/MCU/ESP_RXD0*%
X140365000Y-58480000D03*
%TO.P,J401,3,~{RESET}*%
%TO.N,/MCU/ESP_EN*%
X141635000Y-57210000D03*
%TO.P,J401,4,SWCLK*%
%TO.N,/MCU/ESP_TXD0*%
X140365000Y-57210000D03*
%TO.P,J401,5,GND*%
%TO.N,GND*%
X141635000Y-55940000D03*
%TO.P,J401,6,SWO*%
%TO.N,/MCU/ESP_BOOT0*%
X140365000Y-55940000D03*
%TD*%
D15*
%TO.P,R201,1*%
%TO.N,Net-(F202-Pad2)*%
X142748000Y-69492500D03*
%TO.P,R201,2*%
%TO.N,VCC*%
X142748000Y-67667500D03*
%TD*%
D13*
%TO.P,TP102,1,1*%
%TO.N,/DSP_CONST_12V*%
X164000000Y-71750000D03*
%TD*%
%TO.P,TP504,1,1*%
%TO.N,/MCU/GPIO39*%
X114000000Y-64500000D03*
%TD*%
D14*
%TO.P,C504,1*%
%TO.N,/MCU/GPIO36*%
X110336500Y-56388000D03*
%TO.P,C504,2*%
%TO.N,GND*%
X108611500Y-56388000D03*
%TD*%
D51*
%TO.P,J504,1,Pin_1*%
%TO.N,/USER_INTERFACE/ENC_1_A*%
X97250000Y-76500000D03*
D52*
%TO.P,J504,2,Pin_2*%
%TO.N,GND*%
X99250000Y-76500000D03*
%TO.P,J504,3,Pin_3*%
%TO.N,/USER_INTERFACE/ENC_1_B*%
X101250000Y-76500000D03*
%TO.P,J504,4,Pin_4*%
%TO.N,GND*%
X103250000Y-76500000D03*
%TO.P,J504,5,Pin_5*%
%TO.N,/USER_INTERFACE/ENC_1_SW*%
X105250000Y-76500000D03*
%TD*%
D18*
%TO.P,R510,1*%
%TO.N,/MCU/GPIO39*%
X110386500Y-61468000D03*
%TO.P,R510,2*%
%TO.N,/USER_INTERFACE/ENC_2_B*%
X108561500Y-61468000D03*
%TD*%
D19*
%TO.P,R501,1*%
%TO.N,+5V*%
X96877500Y-61214000D03*
%TO.P,R501,2*%
%TO.N,Net-(J502-Pin_2)*%
X98702500Y-61214000D03*
%TD*%
D13*
%TO.P,TP507,1,1*%
%TO.N,GND*%
X106000000Y-72500000D03*
%TD*%
D19*
%TO.P,R506,1*%
%TO.N,/USER_INTERFACE/ENC_1_A*%
X108561500Y-70358000D03*
%TO.P,R506,2*%
%TO.N,VCC*%
X110386500Y-70358000D03*
%TD*%
D31*
%TO.P,U502,1*%
%TO.N,/USER_INTERFACE/ENC_2_A*%
X103500000Y-59675000D03*
%TO.P,U502,2*%
%TO.N,/USER_INTERFACE/ENC_2_B*%
X103000000Y-59675000D03*
D32*
%TO.P,U502,3,VSS*%
%TO.N,GND*%
X102500000Y-59750000D03*
D31*
%TO.P,U502,4*%
%TO.N,/USER_INTERFACE/ENC_2_SW*%
X102000000Y-59675000D03*
%TO.P,U502,5*%
%TO.N,unconnected-(U502-Pad5)*%
X101500000Y-59675000D03*
%TO.P,U502,6*%
%TO.N,unconnected-(U502-Pad5)_1*%
X101500000Y-60825000D03*
%TO.P,U502,7*%
%TO.N,/USER_INTERFACE/ENC_2_SW*%
X102000000Y-60825000D03*
D32*
%TO.P,U502,8,VSS*%
%TO.N,GND*%
X102500000Y-60875000D03*
D31*
%TO.P,U502,9*%
%TO.N,/USER_INTERFACE/ENC_2_B*%
X103000000Y-60825000D03*
%TO.P,U502,10*%
%TO.N,/USER_INTERFACE/ENC_2_A*%
X103500000Y-60825000D03*
%TD*%
D13*
%TO.P,TP306,1,1*%
%TO.N,Net-(U401-IO27)*%
X117500000Y-77750000D03*
%TD*%
D53*
%TO.P,C203,1*%
%TO.N,Net-(D202-K)*%
X155562500Y-72000000D03*
%TO.P,C203,2*%
%TO.N,GND*%
X152437500Y-72000000D03*
%TD*%
D54*
%TO.P,J501,1,Pin_1*%
%TO.N,/USER_INTERFACE/ENC_2_A*%
X105250000Y-56000000D03*
D52*
%TO.P,J501,2,Pin_2*%
%TO.N,GND*%
X103250000Y-56000000D03*
%TO.P,J501,3,Pin_3*%
%TO.N,/USER_INTERFACE/ENC_2_B*%
X101250000Y-56000000D03*
%TO.P,J501,4,Pin_4*%
%TO.N,GND*%
X99250000Y-56000000D03*
%TO.P,J501,5,Pin_5*%
%TO.N,/USER_INTERFACE/ENC_2_SW*%
X97250000Y-56000000D03*
%TD*%
D16*
%TO.P,R303,1*%
%TO.N,/DSP_RS485_B{slash}Z*%
X160750000Y-63587500D03*
%TO.P,R303,2*%
%TO.N,/DSP_RS485_A{slash}Y*%
X160750000Y-65412500D03*
%TD*%
D19*
%TO.P,R403,1*%
%TO.N,/MCU/DSP_EN*%
X137587500Y-68250000D03*
%TO.P,R403,2*%
%TO.N,/DSP_POWER_EN*%
X139412500Y-68250000D03*
%TD*%
D53*
%TO.P,C202,1*%
%TO.N,Net-(D202-K)*%
X155562500Y-69500000D03*
%TO.P,C202,2*%
%TO.N,GND*%
X152437500Y-69500000D03*
%TD*%
D55*
%TO.P,D201,1,K*%
%TO.N,+5V*%
X141750000Y-72000000D03*
%TO.P,D201,2,A*%
%TO.N,Net-(D201-A)*%
X139250000Y-72000000D03*
%TD*%
D19*
%TO.P,R507,1*%
%TO.N,/USER_INTERFACE/ENC_1_B*%
X108561500Y-73914000D03*
%TO.P,R507,2*%
%TO.N,VCC*%
X110386500Y-73914000D03*
%TD*%
D16*
%TO.P,R402,1*%
%TO.N,/MCU/IO25*%
X115250000Y-75337500D03*
%TO.P,R402,2*%
%TO.N,Net-(D401-A)*%
X115250000Y-77162500D03*
%TD*%
D20*
%TO.P,C403,1*%
%TO.N,VCC*%
X115500000Y-58612500D03*
%TO.P,C403,2*%
%TO.N,GND*%
X115500000Y-56887500D03*
%TD*%
D12*
%TO.P,TP508,1,1*%
%TO.N,GND*%
X105750000Y-60500000D03*
%TD*%
D56*
%TO.N,GND*%
X142000000Y-77000000D03*
X137000000Y-78000000D03*
X120285000Y-74035000D03*
X159750000Y-59500000D03*
X150000000Y-73000000D03*
X139000000Y-78000000D03*
D57*
X165500000Y-66250000D03*
D56*
X141000000Y-78000000D03*
D57*
X165500000Y-64750000D03*
D56*
X140000000Y-77000000D03*
D57*
X100200000Y-70800000D03*
D56*
X113750000Y-55250000D03*
X119270000Y-75270000D03*
X151000000Y-72000000D03*
D57*
X165500000Y-65500000D03*
D56*
X140000000Y-78000000D03*
X128250000Y-77724000D03*
D58*
X112014000Y-64008000D03*
D56*
X114750000Y-55250000D03*
D58*
X112014000Y-74676000D03*
D56*
X143000000Y-78000000D03*
X142000000Y-78000000D03*
X154000000Y-65500000D03*
X150000000Y-70000000D03*
D58*
X111252000Y-67564000D03*
D56*
X155500000Y-64655000D03*
X151000000Y-73000000D03*
X134750000Y-56500000D03*
D57*
X97412500Y-69837500D03*
D56*
X150000000Y-72000000D03*
D57*
X108611500Y-55472500D03*
D56*
X115750000Y-55250000D03*
D57*
X140500000Y-71750000D03*
D56*
X138000000Y-78000000D03*
X143500000Y-54500000D03*
X142250000Y-62675000D03*
X151000000Y-70000000D03*
X105000000Y-71500000D03*
X135990000Y-57510000D03*
X133510000Y-57510000D03*
D57*
X140500000Y-72500000D03*
D56*
X150000000Y-71000000D03*
X151000000Y-71000000D03*
X139000000Y-77000000D03*
X141000000Y-77000000D03*
%TD*%
D59*
%TO.N,GND*%
X96500000Y-69837500D02*
X97412500Y-69837500D01*
X142250000Y-63587500D02*
X142250000Y-62675000D01*
D60*
X120285000Y-75270000D02*
X119270000Y-75270000D01*
D61*
X158000000Y-59500000D02*
X159750000Y-59500000D01*
D59*
X141635000Y-55885000D02*
X142015000Y-55885000D01*
D61*
X135250000Y-78000000D02*
X138000000Y-78000000D01*
X155612500Y-59250000D02*
X157750000Y-59250000D01*
D59*
X112014000Y-68326000D02*
X111252000Y-67564000D01*
D61*
X103250000Y-76250000D02*
X103250000Y-74454596D01*
X105000000Y-71500000D02*
X106000000Y-72500000D01*
X141387500Y-74500000D02*
X140500000Y-74500000D01*
D60*
X134750000Y-57510000D02*
X135990000Y-57510000D01*
D59*
X144750000Y-62950000D02*
X143275000Y-62950000D01*
X112014000Y-74676000D02*
X112014000Y-73760500D01*
D62*
X100200000Y-70800000D02*
X100200000Y-71937500D01*
X165500000Y-64750000D02*
X165500000Y-66250000D01*
D61*
X150250000Y-70000000D02*
X151000000Y-70000000D01*
D62*
X153975000Y-65475000D02*
X154000000Y-65500000D01*
D59*
X143400000Y-54500000D02*
X143500000Y-54500000D01*
D61*
X151937500Y-70000000D02*
X152437500Y-69500000D01*
D62*
X153975000Y-64655000D02*
X155500000Y-64655000D01*
X153975000Y-64655000D02*
X153975000Y-65475000D01*
D60*
X134750000Y-57510000D02*
X133510000Y-57510000D01*
D59*
X112014000Y-64008000D02*
X112014000Y-64923500D01*
D60*
X120285000Y-75270000D02*
X120285000Y-74035000D01*
D61*
X151000000Y-70000000D02*
X151937500Y-70000000D01*
D63*
X102500000Y-59750000D02*
X102500000Y-58750000D01*
D61*
X103250000Y-74454596D02*
X102500000Y-73704596D01*
D59*
X142250000Y-62675000D02*
X143000000Y-62675000D01*
D62*
X165500000Y-65500000D02*
X164437500Y-65500000D01*
D61*
X150250000Y-68250000D02*
X150250000Y-70000000D01*
D59*
X128250000Y-77724000D02*
X126875000Y-77724000D01*
X102500000Y-71425000D02*
X102500000Y-72550000D01*
D61*
X102500000Y-57750000D02*
X103250000Y-57000000D01*
D59*
X143275000Y-62950000D02*
X143000000Y-62675000D01*
D61*
X102500000Y-73704596D02*
X102500000Y-73500000D01*
D59*
X112014000Y-64008000D02*
X112014000Y-63092500D01*
X142015000Y-55885000D02*
X143400000Y-54500000D01*
D60*
X134750000Y-57510000D02*
X134750000Y-56500000D01*
D63*
X102500000Y-72550000D02*
X102500000Y-73500000D01*
X102500000Y-60875000D02*
X102500000Y-59750000D01*
D61*
X102500000Y-58750000D02*
X102500000Y-57750000D01*
X103250000Y-57000000D02*
X103250000Y-56000000D01*
D59*
X112014000Y-74676000D02*
X112014000Y-75591500D01*
X108611500Y-56388000D02*
X108611500Y-55472500D01*
D63*
%TO.N,/DSP_POWER_EN*%
X144500000Y-67750000D02*
X148500000Y-67750000D01*
X160225000Y-66725000D02*
X162710000Y-69210000D01*
X141402000Y-68250000D02*
X141652000Y-68500000D01*
X143750000Y-68500000D02*
X144500000Y-67750000D01*
X149500000Y-66750000D02*
X155250000Y-66750000D01*
X155775000Y-66725000D02*
X160225000Y-66725000D01*
X139412500Y-68250000D02*
X141402000Y-68250000D01*
X141652000Y-68500000D02*
X143750000Y-68500000D01*
X162710000Y-69210000D02*
X167250000Y-69210000D01*
X148500000Y-67750000D02*
X149500000Y-66750000D01*
D59*
%TO.N,/DSP_RS485_A{slash}Y*%
X164850000Y-66850000D02*
X164500000Y-66500000D01*
D63*
X164500000Y-66500000D02*
X164450000Y-66450000D01*
D59*
X162562500Y-66450000D02*
X161612500Y-66450000D01*
D63*
X162562500Y-66450000D02*
X161787500Y-66450000D01*
D59*
X164450000Y-66450000D02*
X164850000Y-66850000D01*
X161612500Y-66450000D02*
X158912500Y-63750000D01*
D63*
X160575000Y-65412500D02*
X158912500Y-63750000D01*
X161787500Y-66450000D02*
X160750000Y-65412500D01*
D59*
X167070000Y-66850000D02*
X164850000Y-66850000D01*
X162562500Y-66450000D02*
X164450000Y-66450000D01*
%TO.N,/DSP_RS485_B{slash}Z*%
X162562500Y-64550000D02*
X161712500Y-64550000D01*
X162562500Y-64550000D02*
X164450000Y-64550000D01*
X161712500Y-64550000D02*
X158912500Y-61750000D01*
X164450000Y-64550000D02*
X164870000Y-64130000D01*
X164870000Y-64130000D02*
X167250000Y-64130000D01*
D63*
%TO.N,/MCU/IO21*%
X146405000Y-61190000D02*
X146405000Y-59095000D01*
X145595000Y-62000000D02*
X146405000Y-61190000D01*
X145595000Y-62000000D02*
X141000000Y-62000000D01*
X134750000Y-63860000D02*
X139140000Y-63860000D01*
X146405000Y-59095000D02*
X146750000Y-58750000D01*
X146750000Y-58750000D02*
X147587500Y-58750000D01*
X141000000Y-62000000D02*
X140250000Y-62750000D01*
X139140000Y-63860000D02*
X140250000Y-62750000D01*
X149025000Y-60845000D02*
X146405000Y-60845000D01*
%TO.N,/MCU/IO18*%
X149025000Y-64655000D02*
X147595000Y-64655000D01*
X141750000Y-66250000D02*
X142000000Y-66500000D01*
X136080000Y-67670000D02*
X137500000Y-66250000D01*
X137500000Y-66250000D02*
X140250000Y-66250000D01*
X140250000Y-66250000D02*
X141750000Y-66250000D01*
X147250000Y-66250000D02*
X147000000Y-66500000D01*
X147595000Y-64655000D02*
X147250000Y-65000000D01*
X147250000Y-65000000D02*
X147250000Y-66250000D01*
X134750000Y-67670000D02*
X136080000Y-67670000D01*
X142000000Y-66500000D02*
X147000000Y-66500000D01*
%TO.N,/MCU/IO19*%
X146865000Y-63385000D02*
X146500000Y-63750000D01*
X134750000Y-66400000D02*
X136600000Y-66400000D01*
X149025000Y-63385000D02*
X146865000Y-63385000D01*
X142250000Y-65412500D02*
X144612500Y-65412500D01*
X136600000Y-66400000D02*
X138000000Y-65000000D01*
X146200000Y-65550000D02*
X144750000Y-65550000D01*
X146500000Y-65250000D02*
X146200000Y-65550000D01*
X141250000Y-65550000D02*
X144750000Y-65550000D01*
X146500000Y-63750000D02*
X146500000Y-65250000D01*
X140700000Y-65000000D02*
X141250000Y-65550000D01*
X138000000Y-65000000D02*
X140700000Y-65000000D01*
D59*
%TO.N,/RS485/RS485_B*%
X156722500Y-62115000D02*
X157087500Y-61750000D01*
X155250000Y-62115000D02*
X156000000Y-62115000D01*
X156000000Y-62115000D02*
X156722500Y-62115000D01*
D63*
X153975000Y-62115000D02*
X155250000Y-62115000D01*
D59*
X153975000Y-62115000D02*
X156000000Y-62115000D01*
D63*
%TO.N,/RS485/RS485_A*%
X155250000Y-63385000D02*
X153975000Y-63385000D01*
D59*
X153975000Y-63385000D02*
X155500000Y-63385000D01*
X155500000Y-63385000D02*
X156722500Y-63385000D01*
X155250000Y-63385000D02*
X155500000Y-63385000D01*
X156722500Y-63385000D02*
X157087500Y-63750000D01*
D63*
%TO.N,/MCU/ESP_BOOT0*%
X132750000Y-55000000D02*
X132250000Y-55500000D01*
X140365000Y-55940000D02*
X140040000Y-55940000D01*
X132250000Y-55500000D02*
X132250000Y-73500000D01*
X132250000Y-73500000D02*
X132770000Y-74020000D01*
X139100000Y-55000000D02*
X132750000Y-55000000D01*
X132770000Y-74020000D02*
X134750000Y-74020000D01*
X140040000Y-55940000D02*
X139100000Y-55000000D01*
%TO.N,/MCU/ESP_RXD0*%
X134750000Y-62590000D02*
X136160000Y-62590000D01*
X140100000Y-60900000D02*
X140100000Y-58745000D01*
X136160000Y-62590000D02*
X137250000Y-61500000D01*
X137250000Y-61500000D02*
X139500000Y-61500000D01*
X139500000Y-61500000D02*
X140100000Y-60900000D01*
X140100000Y-58745000D02*
X140365000Y-58480000D01*
D59*
%TO.N,VCC*%
X110386500Y-66802000D02*
X109526000Y-66802000D01*
X141950000Y-60850000D02*
X141950000Y-58795000D01*
X109474000Y-66802000D02*
X109474000Y-66750000D01*
X145125000Y-61375000D02*
X142475000Y-61375000D01*
X109474000Y-66750000D02*
X109474000Y-63250000D01*
X110386500Y-59690000D02*
X109534000Y-59690000D01*
X147250000Y-56750000D02*
X150250000Y-56750000D01*
D61*
X149000000Y-66000000D02*
X150000000Y-66000000D01*
D59*
X109474000Y-63250000D02*
X109474000Y-59750000D01*
X109474000Y-70250000D02*
X109474000Y-74000000D01*
D61*
X151500000Y-59250000D02*
X151500000Y-58750000D01*
D62*
X143340500Y-67075000D02*
X142748000Y-67667500D01*
D59*
X145750000Y-58250000D02*
X145750000Y-60750000D01*
X149456250Y-58706250D02*
X151456250Y-58706250D01*
D61*
X150250000Y-53500000D02*
X149750000Y-53000000D01*
D60*
X115425000Y-58537500D02*
X115500000Y-58612500D01*
D61*
X110236000Y-53000000D02*
X113750000Y-53000000D01*
X112362500Y-58612500D02*
X112000000Y-58250000D01*
D62*
X149000000Y-66000000D02*
X147925000Y-67075000D01*
D61*
X117250000Y-58780000D02*
X113742500Y-58780000D01*
D59*
X109720000Y-77470000D02*
X110386500Y-77470000D01*
D61*
X150000000Y-66000000D02*
X151000000Y-66000000D01*
X113742500Y-58780000D02*
X113500000Y-58537500D01*
D63*
X110386500Y-70358000D02*
X109582000Y-70358000D01*
D59*
X109526000Y-66802000D02*
X109474000Y-66750000D01*
X109474000Y-77224000D02*
X109720000Y-77470000D01*
D62*
X147925000Y-67075000D02*
X143340500Y-67075000D01*
D59*
X109478000Y-63246000D02*
X109474000Y-63250000D01*
D61*
X151500000Y-58750000D02*
X151500000Y-58000000D01*
D62*
X151500000Y-58000000D02*
X150250000Y-56750000D01*
D61*
X153975000Y-59250000D02*
X153975000Y-60845000D01*
X151500000Y-65250000D02*
X151500000Y-59250000D01*
D59*
X147250000Y-56750000D02*
X145750000Y-58250000D01*
D61*
X112000000Y-53000000D02*
X113750000Y-53000000D01*
D62*
X151500000Y-65250000D02*
X151500000Y-58000000D01*
D61*
X112000000Y-58250000D02*
X112000000Y-53000000D01*
D59*
X109728000Y-53000000D02*
X110236000Y-53000000D01*
D61*
X113112500Y-58612500D02*
X112362500Y-58612500D01*
D62*
X149000000Y-66000000D02*
X151000000Y-66000000D01*
D59*
X109474000Y-66802000D02*
X109474000Y-70250000D01*
X109534000Y-59690000D02*
X109474000Y-59750000D01*
X113587500Y-60250000D02*
X113587500Y-58775000D01*
X151456250Y-58706250D02*
X151500000Y-58750000D01*
X145750000Y-60750000D02*
X145125000Y-61375000D01*
X142475000Y-61375000D02*
X141950000Y-60850000D01*
X141950000Y-58795000D02*
X141635000Y-58480000D01*
D62*
X151500000Y-65500000D02*
X151500000Y-65250000D01*
D59*
X109560000Y-73914000D02*
X109474000Y-74000000D01*
X109474000Y-74000000D02*
X109474000Y-77224000D01*
D61*
X149750000Y-53000000D02*
X113750000Y-53000000D01*
D62*
X151000000Y-66000000D02*
X151500000Y-65500000D01*
D61*
X150250000Y-56750000D02*
X150250000Y-53500000D01*
X153975000Y-59250000D02*
X151500000Y-59250000D01*
D59*
X110386500Y-73914000D02*
X109560000Y-73914000D01*
D60*
X113187500Y-58537500D02*
X113500000Y-58537500D01*
D59*
X110386500Y-63246000D02*
X109478000Y-63246000D01*
X109474000Y-53254000D02*
X109728000Y-53000000D01*
X109474000Y-59750000D02*
X109474000Y-53254000D01*
D63*
%TO.N,/MCU/ESP_EN*%
X118862500Y-55250000D02*
X118862500Y-59912500D01*
X118750000Y-60050000D02*
X117250000Y-60050000D01*
X118862500Y-54387500D02*
X118862500Y-55250000D01*
X118862500Y-59937500D02*
X118750000Y-60050000D01*
X145500000Y-57750000D02*
X145500000Y-54000000D01*
X145500000Y-54000000D02*
X145000000Y-53500000D01*
X119250000Y-54000000D02*
X118862500Y-54387500D01*
X139000000Y-54000000D02*
X119250000Y-54000000D01*
X117250000Y-60050000D02*
X115612500Y-60050000D01*
X118862500Y-59912500D02*
X118862500Y-59937500D01*
X141635000Y-57210000D02*
X142662550Y-58237550D01*
X139500000Y-53500000D02*
X139000000Y-54000000D01*
X145012450Y-58237550D02*
X145500000Y-57750000D01*
X142662550Y-58237550D02*
X145012450Y-58237550D01*
X145000000Y-53500000D02*
X139500000Y-53500000D01*
%TO.N,/MCU/ESP_TXD0*%
X136500000Y-58750000D02*
X137100000Y-58150000D01*
X139425000Y-58150000D02*
X140365000Y-57210000D01*
X136500000Y-60750000D02*
X136500000Y-58750000D01*
X137100000Y-58150000D02*
X139425000Y-58150000D01*
X135930000Y-61320000D02*
X136500000Y-60750000D01*
X134750000Y-61320000D02*
X135930000Y-61320000D01*
D59*
%TO.N,Net-(Q501-G)*%
X96500000Y-71662500D02*
X96500000Y-73750000D01*
X96500000Y-71662500D02*
X98025000Y-71662500D01*
X113750000Y-78750000D02*
X113750000Y-77162500D01*
X96500000Y-79000000D02*
X113500000Y-79000000D01*
X96000000Y-74250000D02*
X96000000Y-78500000D01*
X113500000Y-79000000D02*
X113750000Y-78750000D01*
X98025000Y-71662500D02*
X98300000Y-71937500D01*
X96000000Y-78500000D02*
X96500000Y-79000000D01*
X96500000Y-73750000D02*
X96000000Y-74250000D01*
D63*
%TO.N,Net-(U401-IO13)*%
X129250000Y-76750000D02*
X130500000Y-78000000D01*
X121555000Y-75270000D02*
X121555000Y-76555000D01*
X121555000Y-76555000D02*
X121750000Y-76750000D01*
X121750000Y-76750000D02*
X129250000Y-76750000D01*
%TO.N,/USER_INTERFACE/ENC_1_A*%
X101750000Y-69750000D02*
X106125000Y-69750000D01*
X101500000Y-71475000D02*
X101500000Y-70000000D01*
X108561500Y-68580000D02*
X108561500Y-70358000D01*
X97250000Y-76500000D02*
X97250000Y-74250000D01*
X97250000Y-74250000D02*
X97500000Y-74000000D01*
X108561500Y-68580000D02*
X107295000Y-68580000D01*
X101500000Y-70000000D02*
X101750000Y-69750000D01*
X97500000Y-74000000D02*
X100750000Y-74000000D01*
X106125000Y-69750000D02*
X107295000Y-68580000D01*
X101500000Y-73250000D02*
X101500000Y-71475000D01*
X100750000Y-74000000D02*
X101500000Y-73250000D01*
%TO.N,/USER_INTERFACE/ENC_1_SW*%
X108561500Y-75692000D02*
X107692000Y-75692000D01*
X103000000Y-72625000D02*
X103000000Y-71475000D01*
X105250000Y-74750000D02*
X105000000Y-74500000D01*
X103000000Y-70800000D02*
X103000000Y-71475000D01*
X103000000Y-73250000D02*
X103000000Y-72625000D01*
X107250000Y-72200000D02*
X105750000Y-70700000D01*
X107692000Y-75692000D02*
X107250000Y-75250000D01*
X107250000Y-75250000D02*
X107250000Y-72200000D01*
X104250000Y-74500000D02*
X103000000Y-73250000D01*
X105000000Y-74500000D02*
X104250000Y-74500000D01*
X105250000Y-76500000D02*
X105250000Y-74750000D01*
X103100000Y-70700000D02*
X103000000Y-70800000D01*
X105750000Y-70700000D02*
X103100000Y-70700000D01*
X108561500Y-75692000D02*
X108561500Y-77470000D01*
%TO.N,/USER_INTERFACE/ENC_1_B*%
X102250000Y-70250000D02*
X102000000Y-70500000D01*
X102000000Y-70500000D02*
X102000000Y-71475000D01*
X108561500Y-72136000D02*
X107886000Y-72136000D01*
X108561500Y-73914000D02*
X108561500Y-72136000D01*
X107886000Y-72136000D02*
X106000000Y-70250000D01*
X102000000Y-73500000D02*
X102000000Y-72625000D01*
X101250000Y-74250000D02*
X102000000Y-73500000D01*
X106000000Y-70250000D02*
X102250000Y-70250000D01*
X101250000Y-76500000D02*
X101250000Y-74250000D01*
X102000000Y-72625000D02*
X102000000Y-71475000D01*
%TO.N,/USER_INTERFACE/ENC_2_B*%
X103250000Y-58755025D02*
X103250000Y-58000000D01*
X104250000Y-57000000D02*
X104250000Y-54750000D01*
X103000000Y-59675000D02*
X103000000Y-59005025D01*
X103250000Y-63000000D02*
X106218000Y-63000000D01*
X103000000Y-62750000D02*
X103250000Y-63000000D01*
X107750000Y-61468000D02*
X108561500Y-61468000D01*
X103250000Y-58000000D02*
X104250000Y-57000000D01*
X103000000Y-59675000D02*
X103000000Y-62750000D01*
X106218000Y-63000000D02*
X107750000Y-61468000D01*
X104000000Y-54500000D02*
X101500000Y-54500000D01*
X103000000Y-59005025D02*
X103250000Y-58755025D01*
X101250000Y-54750000D02*
X101250000Y-56000000D01*
X104250000Y-54750000D02*
X104000000Y-54500000D01*
X108561500Y-63246000D02*
X108561500Y-61468000D01*
X101500000Y-54500000D02*
X101250000Y-54750000D01*
%TO.N,/USER_INTERFACE/ENC_2_SW*%
X102000000Y-59675000D02*
X102000000Y-59000000D01*
X108561500Y-66802000D02*
X108561500Y-65024000D01*
X97750000Y-58750000D02*
X101750000Y-58750000D01*
X102000000Y-63000000D02*
X102000000Y-59675000D01*
X102000000Y-59000000D02*
X101750000Y-58750000D01*
X108561500Y-65024000D02*
X107274000Y-65024000D01*
X105750000Y-63500000D02*
X102500000Y-63500000D01*
X102500000Y-63500000D02*
X102000000Y-63000000D01*
X97250000Y-56000000D02*
X97250000Y-58250000D01*
X97250000Y-58250000D02*
X97750000Y-58750000D01*
X107274000Y-65024000D02*
X105750000Y-63500000D01*
D59*
%TO.N,Net-(U201-SW)*%
X150350000Y-76000000D02*
X150350000Y-77850000D01*
X150350000Y-77850000D02*
X150500000Y-78000000D01*
X150500000Y-78000000D02*
X152137500Y-78000000D01*
%TO.N,Net-(U201-BST)*%
X152612500Y-75950000D02*
X153450000Y-75950000D01*
X153862500Y-78000000D02*
X153862500Y-76362500D01*
X153862500Y-76362500D02*
X153500000Y-76000000D01*
X153450000Y-75950000D02*
X153500000Y-76000000D01*
D61*
%TO.N,+5V*%
X95504000Y-61214000D02*
X94742000Y-61976000D01*
D63*
X144750000Y-79472000D02*
X144750000Y-72750000D01*
D61*
X96877500Y-61214000D02*
X95504000Y-61214000D01*
X144532000Y-79750000D02*
X144780000Y-79502000D01*
D63*
X144750000Y-79472000D02*
X144750000Y-79250000D01*
X144750000Y-79250000D02*
X154500000Y-79250000D01*
X142000000Y-75000000D02*
X142000000Y-73750000D01*
X144780000Y-79502000D02*
X144750000Y-79472000D01*
D61*
X94742000Y-61976000D02*
X94742000Y-78994000D01*
D63*
X141387500Y-75150000D02*
X141850000Y-75150000D01*
X144750000Y-72750000D02*
X145250000Y-72250000D01*
D61*
X95498000Y-79750000D02*
X144532000Y-79750000D01*
X94742000Y-78994000D02*
X95498000Y-79750000D01*
D63*
X154887500Y-78862500D02*
X154500000Y-79250000D01*
X145250000Y-72250000D02*
X146462500Y-72250000D01*
X141850000Y-75150000D02*
X142000000Y-75000000D01*
D61*
X144780000Y-79502000D02*
X144780000Y-73944000D01*
D63*
X154887500Y-75950000D02*
X154887500Y-78862500D01*
X142000000Y-73750000D02*
X143287500Y-73750000D01*
D61*
%TO.N,Net-(D202-K)*%
X158250000Y-67750000D02*
X158250000Y-71500000D01*
D63*
%TO.N,/USER_INTERFACE/ENC_2_A*%
X103500000Y-62250000D02*
X103750000Y-62500000D01*
X107750000Y-58000000D02*
X108587500Y-58000000D01*
X105250000Y-57250000D02*
X105250000Y-56000000D01*
X103500000Y-59675000D02*
X103500000Y-62250000D01*
X107500000Y-58250000D02*
X107750000Y-58000000D01*
X107500000Y-61000000D02*
X107500000Y-58250000D01*
X108561500Y-59690000D02*
X108561500Y-58026000D01*
X103750000Y-62500000D02*
X106000000Y-62500000D01*
X106000000Y-62500000D02*
X107500000Y-61000000D01*
X103500000Y-59000000D02*
X105250000Y-57250000D01*
X103500000Y-59675000D02*
X103500000Y-59000000D01*
%TO.N,/MCU/GPIO36*%
X111500000Y-56750000D02*
X111500000Y-59584634D01*
X110336500Y-56388000D02*
X111138000Y-56388000D01*
X114930000Y-61320000D02*
X117250000Y-61320000D01*
X110336500Y-56388000D02*
X110336500Y-57924000D01*
X111500000Y-59584634D02*
X114000000Y-62084634D01*
X114000000Y-62250000D02*
X114930000Y-61320000D01*
X111138000Y-56388000D02*
X111500000Y-56750000D01*
%TO.N,/MCU/IO35*%
X115750000Y-66925026D02*
X115750000Y-65500000D01*
X112014000Y-70204500D02*
X112795500Y-70204500D01*
X116120000Y-65130000D02*
X115750000Y-65500000D01*
X112795500Y-70204500D02*
X114000000Y-69000000D01*
X112011000Y-70204500D02*
X110386500Y-68580000D01*
X117250000Y-65130000D02*
X116120000Y-65130000D01*
X114000000Y-68675026D02*
X115750000Y-66925026D01*
%TO.N,/MCU/IO33*%
X112014000Y-77316500D02*
X112421500Y-77316500D01*
X112011000Y-77316500D02*
X110386500Y-75692000D01*
X112776000Y-76962000D02*
X112776000Y-74724000D01*
X115250000Y-73500000D02*
X115500000Y-73250000D01*
X115500000Y-68500000D02*
X116330000Y-67670000D01*
X114000000Y-73500000D02*
X115250000Y-73500000D01*
X112776000Y-74724000D02*
X114000000Y-73500000D01*
X112421500Y-77316500D02*
X112776000Y-76962000D01*
X116330000Y-67670000D02*
X116830000Y-67670000D01*
X115500000Y-73250000D02*
X115500000Y-68500000D01*
%TO.N,/MCU/GPIO39*%
X112014000Y-61367500D02*
X110487000Y-61367500D01*
X115910000Y-62590000D02*
X117250000Y-62590000D01*
X112776000Y-62129500D02*
X112014000Y-61367500D01*
X112776000Y-63276000D02*
X112776000Y-62129500D01*
X114000000Y-64500000D02*
X112776000Y-63276000D01*
X114000000Y-64500000D02*
X115910000Y-62590000D01*
%TO.N,/MCU/IO34*%
X115750000Y-64000000D02*
X115750000Y-65000000D01*
X117250000Y-63860000D02*
X115890000Y-63860000D01*
X115750000Y-65000000D02*
X114000000Y-66750000D01*
X112014000Y-66648500D02*
X113898500Y-66648500D01*
X112011000Y-66648500D02*
X110386500Y-65024000D01*
X115890000Y-63860000D02*
X115750000Y-64000000D01*
%TO.N,/MCU/IO32*%
X116100000Y-66650000D02*
X116350000Y-66400000D01*
X114000000Y-71250000D02*
X114750000Y-71250000D01*
X114750000Y-71250000D02*
X115150000Y-70850000D01*
X115150000Y-70850000D02*
X115150000Y-68020000D01*
X115150000Y-68020000D02*
X116100000Y-67070000D01*
X116100000Y-67070000D02*
X116100000Y-66650000D01*
X110386500Y-72136000D02*
X113114000Y-72136000D01*
X116350000Y-66400000D02*
X116770000Y-66400000D01*
X113114000Y-72136000D02*
X114000000Y-71250000D01*
D61*
%TO.N,Net-(J502-Pin_2)*%
X101171000Y-62055000D02*
X101171000Y-64671000D01*
X100330000Y-61214000D02*
X101171000Y-62055000D01*
X101171000Y-64671000D02*
X101750000Y-65250000D01*
X101750000Y-65250000D02*
X103750000Y-65250000D01*
X98702500Y-61214000D02*
X100330000Y-61214000D01*
%TO.N,Net-(J502-Pin_1)*%
X102500000Y-67250000D02*
X103750000Y-67250000D01*
X99250000Y-69750000D02*
X100000000Y-69750000D01*
X100000000Y-69750000D02*
X102500000Y-67250000D01*
D59*
%TO.N,Net-(D401-A)*%
X125125000Y-77724000D02*
X125125000Y-78625000D01*
X115250000Y-77162500D02*
X115250000Y-78750000D01*
X125125000Y-78625000D02*
X124750000Y-79000000D01*
X115500000Y-79000000D02*
X124750000Y-79000000D01*
X115250000Y-78750000D02*
X115500000Y-79000000D01*
D63*
%TO.N,/RS485/~{RE}*%
X146000000Y-62500000D02*
X146000000Y-64100000D01*
X145850000Y-64250000D02*
X144750000Y-64250000D01*
X146385000Y-62115000D02*
X146000000Y-62500000D01*
X146000000Y-64100000D02*
X145850000Y-64250000D01*
X149025000Y-62115000D02*
X146385000Y-62115000D01*
%TO.N,/MCU/DSP_EN*%
X135935000Y-68940000D02*
X136625000Y-68250000D01*
X136625000Y-68250000D02*
X137587500Y-68250000D01*
X134750000Y-68940000D02*
X135935000Y-68940000D01*
D59*
%TO.N,/MCU/IO25*%
X116000000Y-74587500D02*
X115250000Y-75337500D01*
X113750000Y-75337500D02*
X115250000Y-75337500D01*
X116000000Y-69250000D02*
X116000000Y-74587500D01*
X116310000Y-68940000D02*
X116000000Y-69250000D01*
X117250000Y-68940000D02*
X116310000Y-68940000D01*
D63*
%TO.N,Net-(U401-IO26)*%
X119000000Y-70500000D02*
X119000000Y-74500000D01*
X119000000Y-74500000D02*
X118545000Y-74955000D01*
X118710000Y-70210000D02*
X119000000Y-70500000D01*
X117250000Y-70210000D02*
X118710000Y-70210000D01*
X118545000Y-74955000D02*
X118545000Y-76295000D01*
X118545000Y-76295000D02*
X120000000Y-77750000D01*
X120000000Y-77750000D02*
X120500000Y-77750000D01*
%TO.N,Net-(U401-IO27)*%
X118500000Y-71750000D02*
X118500000Y-74500000D01*
X118230000Y-71480000D02*
X118500000Y-71750000D01*
X118500000Y-74500000D02*
X117500000Y-75500000D01*
X117500000Y-75500000D02*
X117500000Y-77750000D01*
X117250000Y-71480000D02*
X118230000Y-71480000D01*
%TD*%
%TA.AperFunction,Conductor*%
%TO.N,Net-(D202-A)*%
G36*
X162443039Y-74769685D02*
G01*
X162488794Y-74822489D01*
X162500000Y-74874000D01*
X162500000Y-78126000D01*
X162480315Y-78193039D01*
X162427511Y-78238794D01*
X162376000Y-78250000D01*
X156624000Y-78250000D01*
X156556961Y-78230315D01*
X156511206Y-78177511D01*
X156500000Y-78126000D01*
X156500000Y-75423122D01*
X156501262Y-75405475D01*
X156505500Y-75376000D01*
X156505500Y-74874000D01*
X156525185Y-74806961D01*
X156577989Y-74761206D01*
X156629500Y-74750000D01*
X162376000Y-74750000D01*
X162443039Y-74769685D01*
G37*
%TD.AperFunction*%
%TD*%
%TA.AperFunction,Conductor*%
%TO.N,GND*%
G36*
X153443039Y-68519685D02*
G01*
X153488794Y-68572489D01*
X153500000Y-68624000D01*
X153500000Y-74126000D01*
X153480315Y-74193039D01*
X153427511Y-74238794D01*
X153376000Y-74250000D01*
X151624000Y-74250000D01*
X151556961Y-74230315D01*
X151511206Y-74177511D01*
X151500000Y-74126000D01*
X151500000Y-73500000D01*
X147879500Y-73500000D01*
X147812461Y-73480315D01*
X147766706Y-73427511D01*
X147755500Y-73376000D01*
X147755500Y-69624127D01*
X147775185Y-69557088D01*
X147827989Y-69511333D01*
X147879618Y-69500128D01*
X151497148Y-69503701D01*
X151499649Y-68623648D01*
X151519523Y-68556664D01*
X151572457Y-68511060D01*
X151623648Y-68500000D01*
X153376000Y-68500000D01*
X153443039Y-68519685D01*
G37*
%TD.AperFunction*%
%TD*%
%TA.AperFunction,Conductor*%
%TO.N,+5V*%
G36*
X145750000Y-74250000D02*
G01*
X144500000Y-74250000D01*
X142250000Y-74250000D01*
X141871881Y-74250000D01*
X141804842Y-74230315D01*
X141770307Y-74197125D01*
X141767595Y-74193252D01*
X141767594Y-74193250D01*
X141681750Y-74107406D01*
X141681744Y-74107402D01*
X141571729Y-74056102D01*
X141571724Y-74056100D01*
X141571723Y-74056100D01*
X141571720Y-74056099D01*
X141571718Y-74056099D01*
X141521601Y-74049501D01*
X141521596Y-74049500D01*
X141521591Y-74049500D01*
X141521584Y-74049500D01*
X141374500Y-74049500D01*
X141307461Y-74029815D01*
X141261706Y-73977011D01*
X141250500Y-73925500D01*
X141250500Y-73674336D01*
X141250000Y-73664158D01*
X141250000Y-71378000D01*
X141269685Y-71310961D01*
X141322489Y-71265206D01*
X141374000Y-71254000D01*
X143500000Y-71254000D01*
X143500000Y-70673122D01*
X143501262Y-70655475D01*
X143505500Y-70626000D01*
X143505500Y-69374000D01*
X143525185Y-69306961D01*
X143577989Y-69261206D01*
X143629500Y-69250000D01*
X145750000Y-69250000D01*
X145750000Y-74250000D01*
G37*
%TD.AperFunction*%
%TD*%
%TA.AperFunction,Conductor*%
%TO.N,GND*%
G36*
X140937539Y-71269685D02*
G01*
X140983294Y-71322489D01*
X140994500Y-71374000D01*
X140994500Y-73543437D01*
X140982882Y-73595841D01*
X140956102Y-73653270D01*
X140956099Y-73653281D01*
X140949501Y-73703398D01*
X140949500Y-73703415D01*
X140949500Y-73996592D01*
X140956099Y-74046719D01*
X140956101Y-74046726D01*
X140988382Y-74115952D01*
X141000000Y-74168357D01*
X141000000Y-74831642D01*
X140988382Y-74884046D01*
X140956102Y-74953270D01*
X140956099Y-74953281D01*
X140949501Y-75003398D01*
X140949500Y-75003415D01*
X140949500Y-75296592D01*
X140956099Y-75346719D01*
X140956101Y-75346726D01*
X140988382Y-75415952D01*
X141000000Y-75468357D01*
X141000000Y-75750000D01*
X142250000Y-75750000D01*
X144126000Y-75750000D01*
X144193039Y-75769685D01*
X144238794Y-75822489D01*
X144250000Y-75874000D01*
X144250000Y-78856000D01*
X144230315Y-78923039D01*
X144177511Y-78968794D01*
X144126000Y-78980000D01*
X136374000Y-78980000D01*
X136306961Y-78960315D01*
X136261206Y-78907511D01*
X136250000Y-78856000D01*
X136250000Y-75129500D01*
X136269685Y-75062461D01*
X136322489Y-75016706D01*
X136374000Y-75005500D01*
X139306641Y-75005500D01*
X139306643Y-75005500D01*
X139350131Y-75000736D01*
X139363631Y-75000000D01*
X140000000Y-75000000D01*
X140000000Y-74818357D01*
X140011618Y-74765952D01*
X140017180Y-74754025D01*
X140043900Y-74696723D01*
X140050500Y-74646591D01*
X140050499Y-74353410D01*
X140049757Y-74347776D01*
X140043900Y-74303279D01*
X140043900Y-74303277D01*
X140030797Y-74275178D01*
X140016617Y-74244766D01*
X140005000Y-74192363D01*
X140005000Y-74157634D01*
X140016618Y-74105229D01*
X140043900Y-74046723D01*
X140050500Y-73996591D01*
X140050499Y-73703410D01*
X140050497Y-73703398D01*
X140047199Y-73678343D01*
X140043900Y-73653277D01*
X140043897Y-73653270D01*
X140017118Y-73595841D01*
X140005500Y-73543437D01*
X140005500Y-71374000D01*
X140025185Y-71306961D01*
X140077989Y-71261206D01*
X140129500Y-71250000D01*
X140870500Y-71250000D01*
X140937539Y-71269685D01*
G37*
%TD.AperFunction*%
%TD*%
%TA.AperFunction,Conductor*%
%TO.N,/DSP_CONST_12V*%
G36*
X168693039Y-70519685D02*
G01*
X168738794Y-70572489D01*
X168750000Y-70624000D01*
X168750000Y-72876000D01*
X168730315Y-72943039D01*
X168677511Y-72988794D01*
X168626000Y-73000000D01*
X162500000Y-73000000D01*
X162500000Y-73126000D01*
X162480315Y-73193039D01*
X162427511Y-73238794D01*
X162376000Y-73250000D01*
X160379500Y-73250000D01*
X160312461Y-73230315D01*
X160266706Y-73177511D01*
X160255500Y-73126000D01*
X160255500Y-70624000D01*
X160275185Y-70556961D01*
X160327989Y-70511206D01*
X160379500Y-70500000D01*
X168626000Y-70500000D01*
X168693039Y-70519685D01*
G37*
%TD.AperFunction*%
%TD*%
%TA.AperFunction,Conductor*%
%TO.N,Net-(F202-Pad2)*%
G36*
X143193039Y-69019685D02*
G01*
X143238794Y-69072489D01*
X143250000Y-69124000D01*
X143250000Y-70626000D01*
X143230315Y-70693039D01*
X143177511Y-70738794D01*
X143126000Y-70750000D01*
X140500000Y-70750000D01*
X136374000Y-70750000D01*
X136306961Y-70730315D01*
X136261206Y-70677511D01*
X136250000Y-70626000D01*
X136250000Y-69136689D01*
X136269685Y-69069650D01*
X136286319Y-69049008D01*
X136299008Y-69036319D01*
X136360331Y-69002834D01*
X136386689Y-69000000D01*
X143126000Y-69000000D01*
X143193039Y-69019685D01*
G37*
%TD.AperFunction*%
%TD*%
%TA.AperFunction,Conductor*%
%TO.N,Net-(D202-K)*%
G36*
X159943039Y-68519685D02*
G01*
X159988794Y-68572489D01*
X160000000Y-68624000D01*
X160000000Y-73126000D01*
X159980315Y-73193039D01*
X159927511Y-73238794D01*
X159876000Y-73250000D01*
X156250000Y-73250000D01*
X156250000Y-75376000D01*
X156230315Y-75443039D01*
X156177511Y-75488794D01*
X156126000Y-75500000D01*
X155717240Y-75500000D01*
X155650201Y-75480315D01*
X155644358Y-75476321D01*
X155638345Y-75471953D01*
X155638342Y-75471950D01*
X155561517Y-75432805D01*
X155525301Y-75414352D01*
X155431524Y-75399500D01*
X154624000Y-75399500D01*
X154556961Y-75379815D01*
X154511206Y-75327011D01*
X154500000Y-75275500D01*
X154500000Y-68624000D01*
X154519685Y-68556961D01*
X154572489Y-68511206D01*
X154624000Y-68500000D01*
X159876000Y-68500000D01*
X159943039Y-68519685D01*
G37*
%TD.AperFunction*%
%TD*%
%TA.AperFunction,Conductor*%
%TO.N,GND*%
G36*
X116051522Y-54769685D02*
G01*
X116097277Y-54822489D01*
X116107841Y-54886603D01*
X116100000Y-54963345D01*
X116100000Y-55000000D01*
X117263500Y-55000000D01*
X117330539Y-55019685D01*
X117376294Y-55072489D01*
X117387500Y-55124000D01*
X117387500Y-56224999D01*
X117486640Y-56224999D01*
X117486654Y-56224998D01*
X117587652Y-56214680D01*
X117751300Y-56160453D01*
X117751307Y-56160450D01*
X117810902Y-56123691D01*
X117878294Y-56105250D01*
X117944958Y-56126172D01*
X117989728Y-56179813D01*
X118000000Y-56229229D01*
X118000000Y-57876000D01*
X117980315Y-57943039D01*
X117927511Y-57988794D01*
X117876000Y-58000000D01*
X116624000Y-58000000D01*
X116556961Y-57980315D01*
X116511206Y-57927511D01*
X116500000Y-57876000D01*
X116500000Y-57500000D01*
X112874000Y-57500000D01*
X112806961Y-57480315D01*
X112761206Y-57427511D01*
X112750000Y-57376000D01*
X112750000Y-55536654D01*
X116100001Y-55536654D01*
X116110319Y-55637652D01*
X116164546Y-55801300D01*
X116164551Y-55801311D01*
X116255052Y-55948034D01*
X116255055Y-55948038D01*
X116376961Y-56069944D01*
X116376965Y-56069947D01*
X116523688Y-56160448D01*
X116523699Y-56160453D01*
X116687347Y-56214680D01*
X116788351Y-56224999D01*
X116887500Y-56224998D01*
X116887500Y-55500000D01*
X116100001Y-55500000D01*
X116100001Y-55536654D01*
X112750000Y-55536654D01*
X112750000Y-54874000D01*
X112769685Y-54806961D01*
X112822489Y-54761206D01*
X112874000Y-54750000D01*
X115984483Y-54750000D01*
X116051522Y-54769685D01*
G37*
%TD.AperFunction*%
%TD*%
%TA.AperFunction,Conductor*%
%TO.N,Net-(U201-SW)*%
G36*
X152943039Y-74669685D02*
G01*
X152988794Y-74722489D01*
X153000000Y-74774000D01*
X153000000Y-75275500D01*
X152980315Y-75342539D01*
X152927511Y-75388294D01*
X152876000Y-75399500D01*
X152068482Y-75399500D01*
X151987519Y-75412323D01*
X151974696Y-75414354D01*
X151865731Y-75469874D01*
X151861656Y-75471951D01*
X151855642Y-75476321D01*
X151789835Y-75499798D01*
X151782760Y-75500000D01*
X151500000Y-75500000D01*
X151500000Y-77126000D01*
X151480315Y-77193039D01*
X151427511Y-77238794D01*
X151376000Y-77250000D01*
X149624000Y-77250000D01*
X149556961Y-77230315D01*
X149511206Y-77177511D01*
X149500000Y-77126000D01*
X149500000Y-74774000D01*
X149519685Y-74706961D01*
X149572489Y-74661206D01*
X149624000Y-74650000D01*
X152876000Y-74650000D01*
X152943039Y-74669685D01*
G37*
%TD.AperFunction*%
%TD*%
%TA.AperFunction,Conductor*%
%TO.N,Net-(D201-A)*%
G36*
X139693039Y-71269685D02*
G01*
X139738794Y-71322489D01*
X139750000Y-71374000D01*
X139750000Y-73664158D01*
X139749500Y-73674336D01*
X139749500Y-74575500D01*
X139729815Y-74642539D01*
X139677011Y-74688294D01*
X139625501Y-74699500D01*
X139478407Y-74699500D01*
X139428280Y-74706099D01*
X139428273Y-74706101D01*
X139376347Y-74730315D01*
X139359046Y-74738382D01*
X139306643Y-74750000D01*
X136374000Y-74750000D01*
X136306961Y-74730315D01*
X136261206Y-74677511D01*
X136250000Y-74626000D01*
X136250000Y-71374000D01*
X136269685Y-71306961D01*
X136322489Y-71261206D01*
X136374000Y-71250000D01*
X139626000Y-71250000D01*
X139693039Y-71269685D01*
G37*
%TD.AperFunction*%
%TD*%
%TA.AperFunction,Conductor*%
%TO.N,+5V*%
G36*
X147443039Y-69269685D02*
G01*
X147488794Y-69322489D01*
X147500000Y-69374000D01*
X147500000Y-77126000D01*
X147480315Y-77193039D01*
X147427511Y-77238794D01*
X147376000Y-77250000D01*
X145874000Y-77250000D01*
X145806961Y-77230315D01*
X145761206Y-77177511D01*
X145750000Y-77126000D01*
X145750000Y-74250000D01*
X145750000Y-69250000D01*
X147376000Y-69250000D01*
X147443039Y-69269685D01*
G37*
%TD.AperFunction*%
%TD*%
M02*
