%TF.GenerationSoftware,KiCad,Pcbnew,8.0.4*%
%TF.CreationDate,2024-11-19T13:09:34+13:00*%
%TF.ProjectId,CDRC,43445243-2e6b-4696-9361-645f70636258,B*%
%TF.SameCoordinates,Original*%
%TF.FileFunction,Paste,Top*%
%TF.FilePolarity,Positive*%
%FSLAX46Y46*%
G04 Gerber Fmt 4.6, Leading zero omitted, Abs format (unit mm)*
G04 Created by KiCad (PCBNEW 8.0.4) date 2024-11-19 13:09:34*
%MOMM*%
%LPD*%
G01*
G04 APERTURE LIST*
G04 Aperture macros list*
%AMRoundRect*
0 Rectangle with rounded corners*
0 $1 Rounding radius*
0 $2 $3 $4 $5 $6 $7 $8 $9 X,Y pos of 4 corners*
0 Add a 4 corners polygon primitive as box body*
4,1,4,$2,$3,$4,$5,$6,$7,$8,$9,$2,$3,0*
0 Add four circle primitives for the rounded corners*
1,1,$1+$1,$2,$3*
1,1,$1+$1,$4,$5*
1,1,$1+$1,$6,$7*
1,1,$1+$1,$8,$9*
0 Add four rect primitives between the rounded corners*
20,1,$1+$1,$2,$3,$4,$5,0*
20,1,$1+$1,$4,$5,$6,$7,0*
20,1,$1+$1,$6,$7,$8,$9,0*
20,1,$1+$1,$8,$9,$2,$3,0*%
G04 Aperture macros list end*
%ADD10RoundRect,0.237500X0.300000X0.237500X-0.300000X0.237500X-0.300000X-0.237500X0.300000X-0.237500X0*%
%ADD11RoundRect,0.237500X0.237500X-0.300000X0.237500X0.300000X-0.237500X0.300000X-0.237500X-0.300000X0*%
%ADD12RoundRect,0.237500X-0.237500X0.250000X-0.237500X-0.250000X0.237500X-0.250000X0.237500X0.250000X0*%
%ADD13RoundRect,0.237500X0.250000X0.237500X-0.250000X0.237500X-0.250000X-0.237500X0.250000X-0.237500X0*%
%ADD14RoundRect,0.250000X-0.625000X0.400000X-0.625000X-0.400000X0.625000X-0.400000X0.625000X0.400000X0*%
%ADD15RoundRect,0.250000X-0.475000X0.337500X-0.475000X-0.337500X0.475000X-0.337500X0.475000X0.337500X0*%
%ADD16RoundRect,0.237500X-0.250000X-0.237500X0.250000X-0.237500X0.250000X0.237500X-0.250000X0.237500X0*%
%ADD17R,1.500000X0.900000*%
%ADD18R,0.900000X1.500000*%
%ADD19R,0.900000X0.900000*%
%ADD20RoundRect,0.150000X0.587500X0.150000X-0.587500X0.150000X-0.587500X-0.150000X0.587500X-0.150000X0*%
%ADD21RoundRect,0.237500X0.237500X-0.250000X0.237500X0.250000X-0.237500X0.250000X-0.237500X-0.250000X0*%
%ADD22RoundRect,0.250000X-1.500000X0.250000X-1.500000X-0.250000X1.500000X-0.250000X1.500000X0.250000X0*%
%ADD23RoundRect,0.250001X-1.449999X0.499999X-1.449999X-0.499999X1.449999X-0.499999X1.449999X0.499999X0*%
%ADD24R,1.000000X0.250000*%
%ADD25R,1.000000X0.450000*%
%ADD26RoundRect,0.150000X-0.825000X-0.150000X0.825000X-0.150000X0.825000X0.150000X-0.825000X0.150000X0*%
%ADD27R,2.500000X1.000000*%
%ADD28RoundRect,0.237500X-0.287500X-0.237500X0.287500X-0.237500X0.287500X0.237500X-0.287500X0.237500X0*%
%ADD29RoundRect,0.250001X-0.624999X0.462499X-0.624999X-0.462499X0.624999X-0.462499X0.624999X0.462499X0*%
%ADD30RoundRect,0.150000X0.150000X-0.512500X0.150000X0.512500X-0.150000X0.512500X-0.150000X-0.512500X0*%
%ADD31RoundRect,0.250000X0.650000X-1.500000X0.650000X1.500000X-0.650000X1.500000X-0.650000X-1.500000X0*%
%ADD32RoundRect,0.250000X1.500000X0.550000X-1.500000X0.550000X-1.500000X-0.550000X1.500000X-0.550000X0*%
%ADD33R,3.700000X1.900000*%
%ADD34RoundRect,0.250000X0.337500X0.475000X-0.337500X0.475000X-0.337500X-0.475000X0.337500X-0.475000X0*%
%ADD35RoundRect,0.237500X-0.300000X-0.237500X0.300000X-0.237500X0.300000X0.237500X-0.300000X0.237500X0*%
%ADD36RoundRect,0.150000X-0.587500X-0.150000X0.587500X-0.150000X0.587500X0.150000X-0.587500X0.150000X0*%
%ADD37RoundRect,0.250000X0.650000X-0.412500X0.650000X0.412500X-0.650000X0.412500X-0.650000X-0.412500X0*%
G04 APERTURE END LIST*
D10*
%TO.C,C503*%
X23362500Y-9000000D03*
X21637500Y-9000000D03*
%TD*%
D11*
%TO.C,C401*%
X29000000Y-13862500D03*
X29000000Y-12137500D03*
%TD*%
D12*
%TO.C,R305*%
X52000000Y-22087500D03*
X52000000Y-23912500D03*
%TD*%
D13*
%TO.C,R505*%
X23412500Y-18000000D03*
X21587500Y-18000000D03*
%TD*%
D14*
%TO.C,R516*%
X12250000Y-21200000D03*
X12250000Y-24300000D03*
%TD*%
D15*
%TO.C,C205*%
X66000000Y-27462500D03*
X66000000Y-29537500D03*
%TD*%
%TO.C,C204*%
X68500000Y-27462500D03*
X68500000Y-29537500D03*
%TD*%
D13*
%TO.C,R512*%
X23412500Y-37000000D03*
X21587500Y-37000000D03*
%TD*%
D10*
%TO.C,C501*%
X23362500Y-31000000D03*
X21637500Y-31000000D03*
%TD*%
D13*
%TO.C,R304*%
X63162500Y-22250000D03*
X61337500Y-22250000D03*
%TD*%
%TO.C,R515*%
X23412500Y-12000000D03*
X21587500Y-12000000D03*
%TD*%
D16*
%TO.C,R302*%
X61337500Y-20250000D03*
X63162500Y-20250000D03*
%TD*%
D10*
%TO.C,C505*%
X23362500Y-35500000D03*
X21637500Y-35500000D03*
%TD*%
D17*
%TO.C,U401*%
X31350000Y-11260000D03*
X31350000Y-12530000D03*
X31350000Y-13800000D03*
X31350000Y-15070000D03*
X31350000Y-16340000D03*
X31350000Y-17610000D03*
X31350000Y-18880000D03*
X31350000Y-20150000D03*
X31350000Y-21420000D03*
X31350000Y-22690000D03*
X31350000Y-23960000D03*
X31350000Y-25230000D03*
X31350000Y-26500000D03*
X31350000Y-27770000D03*
D18*
X34385000Y-29020000D03*
X35655000Y-29020000D03*
X36925000Y-29020000D03*
X38195000Y-29020000D03*
X39465000Y-29020000D03*
X40735000Y-29020000D03*
X42005000Y-29020000D03*
X43275000Y-29020000D03*
X44545000Y-29020000D03*
X45815000Y-29020000D03*
D17*
X48850000Y-27770000D03*
X48850000Y-26500000D03*
X48850000Y-25230000D03*
X48850000Y-23960000D03*
X48850000Y-22690000D03*
X48850000Y-21420000D03*
X48850000Y-20150000D03*
X48850000Y-18880000D03*
X48850000Y-17610000D03*
X48850000Y-16340000D03*
X48850000Y-15070000D03*
X48850000Y-13800000D03*
X48850000Y-12530000D03*
X48850000Y-11260000D03*
D19*
X37200000Y-17200000D03*
X37200000Y-18600000D03*
X37200000Y-20000000D03*
X38600000Y-17200000D03*
X38600000Y-18600000D03*
X38600000Y-20000000D03*
X40000000Y-17200000D03*
X40000000Y-18600000D03*
X40000000Y-20000000D03*
%TD*%
D20*
%TO.C,Q501*%
X19437500Y-19950000D03*
X19437500Y-18050000D03*
X17562500Y-19000000D03*
%TD*%
D21*
%TO.C,R301*%
X29250000Y-27162500D03*
X29250000Y-25337500D03*
%TD*%
D16*
%TO.C,R504*%
X21587500Y-28000000D03*
X23412500Y-28000000D03*
%TD*%
D22*
%TO.C,J502*%
X7600000Y-19000000D03*
X7600000Y-21000000D03*
D23*
X1850000Y-16650000D03*
X1850000Y-23350000D03*
%TD*%
D24*
%TO.C,U501*%
X13375000Y-29500000D03*
X13375000Y-30000000D03*
D25*
X13450000Y-30500000D03*
D24*
X13375000Y-31000000D03*
X13375000Y-31500000D03*
X14525000Y-31500000D03*
X14525000Y-31000000D03*
D25*
X14575000Y-30500000D03*
D24*
X14525000Y-30000000D03*
X14525000Y-29500000D03*
%TD*%
D26*
%TO.C,IC301*%
X54025000Y-19345000D03*
X54025000Y-20615000D03*
X54025000Y-21885000D03*
X54025000Y-23155000D03*
X58975000Y-23155000D03*
X58975000Y-21885000D03*
X58975000Y-20615000D03*
X58975000Y-19345000D03*
%TD*%
D21*
%TO.C,R509*%
X20000000Y-2912500D03*
X20000000Y-1087500D03*
%TD*%
D10*
%TO.C,C502*%
X23362500Y-26500000D03*
X21637500Y-26500000D03*
%TD*%
%TO.C,C506*%
X23362500Y-13500000D03*
X21637500Y-13500000D03*
%TD*%
D16*
%TO.C,R513*%
X21587500Y-38500000D03*
X23412500Y-38500000D03*
%TD*%
%TO.C,R511*%
X21587500Y-3000000D03*
X23412500Y-3000000D03*
%TD*%
D13*
%TO.C,R503*%
X23412500Y-20000000D03*
X21587500Y-20000000D03*
%TD*%
D27*
%TO.C,J101*%
X72025000Y-27620000D03*
X72025000Y-25080000D03*
X72025000Y-22540000D03*
X72025000Y-20000000D03*
X72025000Y-17460000D03*
X72025000Y-14920000D03*
X72025000Y-12380000D03*
%TD*%
D13*
%TO.C,R502*%
X23412500Y-32500000D03*
X21587500Y-32500000D03*
%TD*%
D11*
%TO.C,C201*%
X60500000Y-33612500D03*
X60500000Y-31887500D03*
%TD*%
D28*
%TO.C,D401*%
X21625000Y-16000000D03*
X23375000Y-16000000D03*
%TD*%
D13*
%TO.C,R201*%
X60412500Y-25000000D03*
X58587500Y-25000000D03*
%TD*%
D29*
%TO.C,F201*%
X74500000Y-31012500D03*
X74500000Y-33987500D03*
%TD*%
D30*
%TO.C,U201*%
X62050000Y-34637500D03*
X63000000Y-34637500D03*
X63950000Y-34637500D03*
X63950000Y-32362500D03*
X63000000Y-32362500D03*
X62050000Y-32362500D03*
%TD*%
D31*
%TO.C,D202*%
X71500000Y-37000000D03*
X71500000Y-32000000D03*
%TD*%
D32*
%TO.C,C206*%
X58700000Y-36500000D03*
X53300000Y-36500000D03*
%TD*%
D33*
%TO.C,L201*%
X62500000Y-29850000D03*
X62500000Y-27150000D03*
%TD*%
D16*
%TO.C,R508*%
X21587500Y-6000000D03*
X23412500Y-6000000D03*
%TD*%
%TO.C,R514*%
X21587500Y-10500000D03*
X23412500Y-10500000D03*
%TD*%
%TO.C,R401*%
X35087500Y-7000000D03*
X36912500Y-7000000D03*
%TD*%
D34*
%TO.C,C402*%
X33037500Y-7000000D03*
X30962500Y-7000000D03*
%TD*%
D35*
%TO.C,C301*%
X59137500Y-17500000D03*
X60862500Y-17500000D03*
%TD*%
D36*
%TO.C,D301*%
X66562500Y-20300000D03*
X66562500Y-22200000D03*
X68437500Y-21250000D03*
%TD*%
D10*
%TO.C,C504*%
X23362500Y-4500000D03*
X21637500Y-4500000D03*
%TD*%
D22*
%TO.C,J504*%
X7600000Y-4000000D03*
X7600000Y-6000000D03*
X7600000Y-8000000D03*
X7600000Y-10000000D03*
X7600000Y-12000000D03*
D23*
X1850000Y-1650000D03*
X1850000Y-14350000D03*
%TD*%
D13*
%TO.C,R510*%
X23412500Y-7500000D03*
X21587500Y-7500000D03*
%TD*%
D21*
%TO.C,R501*%
X12250000Y-23662500D03*
X12250000Y-21837500D03*
%TD*%
D16*
%TO.C,R506*%
X21587500Y-29500000D03*
X23412500Y-29500000D03*
%TD*%
D24*
%TO.C,U502*%
X13425000Y-8500000D03*
X13425000Y-9000000D03*
D25*
X13500000Y-9500000D03*
D24*
X13425000Y-10000000D03*
X13425000Y-10500000D03*
X14575000Y-10500000D03*
X14575000Y-10000000D03*
D25*
X14625000Y-9500000D03*
D24*
X14575000Y-9000000D03*
X14575000Y-8500000D03*
%TD*%
D37*
%TO.C,C203*%
X66000000Y-35062500D03*
X66000000Y-31937500D03*
%TD*%
D22*
%TO.C,J501*%
X7600000Y-28000000D03*
X7600000Y-30000000D03*
X7600000Y-32000000D03*
X7600000Y-34000000D03*
X7600000Y-36000000D03*
D23*
X1850000Y-25650000D03*
X1850000Y-38350000D03*
%TD*%
D12*
%TO.C,R303*%
X64750000Y-20337500D03*
X64750000Y-22162500D03*
%TD*%
D16*
%TO.C,R403*%
X55587500Y-26500000D03*
X57412500Y-26500000D03*
%TD*%
D37*
%TO.C,C202*%
X68500000Y-35062500D03*
X68500000Y-31937500D03*
%TD*%
D16*
%TO.C,R507*%
X21587500Y-34000000D03*
X23412500Y-34000000D03*
%TD*%
D21*
%TO.C,R402*%
X25500000Y-19912500D03*
X25500000Y-18087500D03*
%TD*%
D10*
%TO.C,C403*%
X32862500Y-9000000D03*
X31137500Y-9000000D03*
%TD*%
M02*
