%TF.GenerationSoftware,KiCad,Pcbnew,8.0.4*%
%TF.CreationDate,2024-11-19T13:09:34+13:00*%
%TF.ProjectId,CDRC,43445243-2e6b-4696-9361-645f70636258,B*%
%TF.SameCoordinates,Original*%
%TF.FileFunction,Copper,L2,Bot*%
%TF.FilePolarity,Positive*%
%FSLAX46Y46*%
G04 Gerber Fmt 4.6, Leading zero omitted, Abs format (unit mm)*
G04 Created by KiCad (PCBNEW 8.0.4) date 2024-11-19 13:09:34*
%MOMM*%
%LPD*%
G01*
G04 APERTURE LIST*
%TA.AperFunction,ComponentPad*%
%ADD10C,2.000000*%
%TD*%
%TA.AperFunction,HeatsinkPad*%
%ADD11C,0.600000*%
%TD*%
%TA.AperFunction,ComponentPad*%
%ADD12R,1.700000X1.700000*%
%TD*%
%TA.AperFunction,ComponentPad*%
%ADD13O,1.700000X1.700000*%
%TD*%
%TA.AperFunction,ComponentPad*%
%ADD14C,3.100000*%
%TD*%
%TA.AperFunction,ConnectorPad*%
%ADD15C,4.500000*%
%TD*%
%TA.AperFunction,ViaPad*%
%ADD16C,0.800000*%
%TD*%
%TA.AperFunction,ViaPad*%
%ADD17C,0.700000*%
%TD*%
%TA.AperFunction,Conductor*%
%ADD18C,0.150000*%
%TD*%
G04 APERTURE END LIST*
D10*
%TO.P,TP101,1,1*%
%TO.N,GND*%
X67500000Y-17500000D03*
%TD*%
D11*
%TO.P,U401,39,GND*%
%TO.N,GND*%
X37200000Y-17900000D03*
X37200000Y-19300000D03*
X37900000Y-17200000D03*
X37900000Y-18600000D03*
X37900000Y-20000000D03*
X38600000Y-17900000D03*
X38600000Y-19300000D03*
X39300000Y-17200000D03*
X39300000Y-18600000D03*
X39300000Y-20000000D03*
X40000000Y-17900000D03*
X40000000Y-19300000D03*
%TD*%
D12*
%TO.P,J301,1,Pin_1*%
%TO.N,VCC*%
X63500000Y-2750000D03*
D13*
%TO.P,J301,2,Pin_2*%
%TO.N,GND*%
X60960000Y-2750000D03*
%TO.P,J301,3,Pin_3*%
%TO.N,/MCU/ESP_RXD0*%
X58420000Y-2750000D03*
%TO.P,J301,4,Pin_4*%
%TO.N,/MCU/ESP_TXD0*%
X55880000Y-2750000D03*
%TO.P,J301,5,Pin_5*%
%TO.N,/MCU/ESP_BOOT0*%
X53340000Y-2750000D03*
%TO.P,J301,6,Pin_6*%
%TO.N,/MCU/ESP_EN*%
X50800000Y-2750000D03*
%TD*%
D10*
%TO.P,TP508,1,1*%
%TO.N,GND*%
X14000000Y-13500000D03*
%TD*%
D14*
%TO.P,H104,1*%
%TO.N,N/C*%
X81500000Y-36500000D03*
D15*
X81500000Y-36500000D03*
%TD*%
D14*
%TO.P,H102,1*%
%TO.N,N/C*%
X81500000Y-3500000D03*
D15*
X81500000Y-3500000D03*
%TD*%
D14*
%TO.P,H103,1*%
%TO.N,N/C*%
X14000000Y-3500000D03*
D15*
X14000000Y-3500000D03*
%TD*%
D14*
%TO.P,H101,1*%
%TO.N,N/C*%
X14000000Y-36500000D03*
D15*
X14000000Y-36500000D03*
%TD*%
D16*
%TO.N,GND*%
X77500000Y-41000000D03*
X27500000Y-2500000D03*
X62000000Y-5000000D03*
X33000000Y-27000000D03*
X17500000Y-32500000D03*
X-1000000Y-10000000D03*
X5000000Y-31000000D03*
X33000000Y-28500000D03*
X86000000Y-10000000D03*
X86000000Y-40000000D03*
X80000000Y-7500000D03*
X27500000Y-41000000D03*
X50000000Y-35000000D03*
D17*
X20500000Y-31000000D03*
D16*
X35000000Y-20000000D03*
X22500000Y-41000000D03*
X12500000Y-15000000D03*
X15000000Y-22500000D03*
X45000000Y-17500000D03*
X42500000Y-9000000D03*
X80000000Y-30000000D03*
X30000000Y-32500000D03*
X42500000Y-12500000D03*
X67500000Y1000000D03*
X69750000Y-20750000D03*
X32500000Y-35000000D03*
X56000000Y-16000000D03*
X86000000Y-15000000D03*
X57500000Y-41000000D03*
X5000000Y-29000000D03*
X17500000Y-27500000D03*
X60862500Y-18387500D03*
X75000000Y-7500000D03*
X40000000Y-9000000D03*
X32500000Y1000000D03*
X67500000Y-12500000D03*
X52500000Y1000000D03*
X33000000Y-31000000D03*
X-1000000Y-25000000D03*
X45000000Y-35000000D03*
X50000000Y-7000000D03*
X12500000Y-7500000D03*
X25000000Y-2500000D03*
X47500000Y-41000000D03*
X62000000Y-7500000D03*
X29500000Y-10000000D03*
X82500000Y-30000000D03*
X28250000Y-9000000D03*
X17500000Y-2500000D03*
X45000000Y-20000000D03*
X11000000Y-10000000D03*
X12500000Y-27500000D03*
X65000000Y-10000000D03*
X56000000Y-14000000D03*
X40000000Y-22500000D03*
X29000000Y-10750000D03*
X67500000Y-5000000D03*
X42500000Y-17500000D03*
X80000000Y-10000000D03*
X72500000Y-41000000D03*
X62000000Y-14000000D03*
X70000000Y-5000000D03*
X35000000Y-17500000D03*
X67500000Y-10000000D03*
X9000000Y-2500000D03*
X75000000Y-5000000D03*
X77500000Y-2500000D03*
X77500000Y-7500000D03*
X20250000Y-4500000D03*
X35000000Y-22500000D03*
X75000000Y-25000000D03*
X-1000000Y-40000000D03*
X42500000Y-22500000D03*
X32500000Y-41000000D03*
X2500000Y1000000D03*
X45000000Y-27500000D03*
X27500000Y-5000000D03*
X62500000Y1000000D03*
X65000000Y-7500000D03*
X65000000Y-5000000D03*
X11500000Y-30750000D03*
D17*
X20500000Y-35500000D03*
D16*
X12500000Y-17500000D03*
X62500000Y-41000000D03*
X70000000Y-10000000D03*
X82500000Y1000000D03*
X20000000Y-12500000D03*
X-1000000Y-30000000D03*
X45000000Y-12500000D03*
D17*
X20000000Y-16000000D03*
D16*
X50750000Y-18500000D03*
X17500000Y-7500000D03*
X77500000Y-22500000D03*
X7500000Y1000000D03*
X37500000Y-32500000D03*
X29500000Y-7000000D03*
X72500000Y1000000D03*
X40000000Y-15000000D03*
X67500000Y-7500000D03*
X52500000Y-41000000D03*
X77500000Y-10000000D03*
X86000000Y-30000000D03*
X77500000Y-12500000D03*
X60405000Y-23155000D03*
X77500000Y-17500000D03*
X34500000Y-27000000D03*
X67250000Y-29500000D03*
X77500000Y-27500000D03*
X20250000Y-6500000D03*
X42500000Y1000000D03*
X30000000Y-5000000D03*
X7500000Y-41000000D03*
X75000000Y-12500000D03*
X58000000Y-14000000D03*
X37500000Y-35000000D03*
X77500000Y-35000000D03*
X72000000Y-16250000D03*
X45000000Y-15000000D03*
X82500000Y-32500000D03*
X8000000Y-2500000D03*
X17500000Y-35000000D03*
X67500000Y-15000000D03*
X69750000Y-21750000D03*
X15000000Y-32500000D03*
X60000000Y-14000000D03*
X17500000Y-41000000D03*
X34500000Y-31000000D03*
X42500000Y-32500000D03*
X62500000Y-17500000D03*
X70000000Y-12500000D03*
X65000000Y-17500000D03*
X37500000Y-41000000D03*
X77500000Y-37500000D03*
X15000000Y-7500000D03*
X12500000Y1000000D03*
X12500000Y-41000000D03*
X48500000Y-7000000D03*
X10000000Y-17500000D03*
X68500000Y-30750000D03*
X40000000Y-32500000D03*
X24500000Y-19000000D03*
X-1000000Y-35000000D03*
X5000000Y-34000000D03*
X15000000Y-27500000D03*
D17*
X20000000Y-13500000D03*
D16*
X22500000Y1000000D03*
X37500000Y-15000000D03*
X17500000Y-15000000D03*
X66000000Y-30750000D03*
X42500000Y-15000000D03*
X40000000Y-27500000D03*
X55500000Y-24500000D03*
X47500000Y1000000D03*
X72500000Y-5000000D03*
X35000000Y-35000000D03*
X30000000Y-30000000D03*
X82500000Y-41000000D03*
X45000000Y-22500000D03*
X52250000Y-18500000D03*
X35000000Y-15000000D03*
X2500000Y-41000000D03*
X40000000Y-12500000D03*
X65000000Y-2500000D03*
X67500000Y-41000000D03*
X-1000000Y0D03*
X5000000Y-33000000D03*
X62000000Y-10000000D03*
X67250000Y-32000000D03*
X75000000Y-15000000D03*
X57500000Y1000000D03*
X45000000Y-9000000D03*
X11000000Y-2500000D03*
X75000000Y-22500000D03*
D17*
X20500000Y-9000000D03*
D16*
X86000000Y-35000000D03*
X86000000Y-25000000D03*
X77500000Y1000000D03*
X65000000Y-12500000D03*
X37500000Y-22500000D03*
D17*
X55549999Y-20608463D03*
D16*
X42500000Y-41000000D03*
X82500000Y-7500000D03*
X47500000Y-35000000D03*
X17500000Y-5000000D03*
X5000000Y-30000000D03*
X65000000Y-15000000D03*
X10000000Y-2500000D03*
X27500000Y1000000D03*
D17*
X20500000Y-26500000D03*
D16*
X33000000Y-30000000D03*
X55500000Y-22500000D03*
X-1000000Y-20000000D03*
X56000000Y-18000000D03*
X74000000Y-17500000D03*
X-1000000Y-15000000D03*
X67250000Y-30750000D03*
X42500000Y-27500000D03*
X72500000Y-10000000D03*
X72500000Y-7500000D03*
X82500000Y-10000000D03*
X72000000Y-18750000D03*
X15000000Y-17500000D03*
X50500000Y-11250000D03*
X77500000Y-5000000D03*
X17500000Y1000000D03*
X50500000Y-12750000D03*
X17500000Y-12500000D03*
X75000000Y-10000000D03*
X86000000Y0D03*
X56000000Y-12500000D03*
X70000000Y-7500000D03*
X20250000Y-5500000D03*
X74000000Y-15000000D03*
X80000000Y-32500000D03*
X59000000Y-5250000D03*
X50500000Y-14000000D03*
X45000000Y-32500000D03*
X5000000Y-35000000D03*
X86000000Y-5000000D03*
X-1000000Y-5000000D03*
X77500000Y-20000000D03*
X37500000Y1000000D03*
X75000000Y-20000000D03*
X51500000Y-7000000D03*
X30000000Y-2500000D03*
X50000000Y-9000000D03*
X37500000Y-27500000D03*
X86000000Y-20000000D03*
X48500000Y-9000000D03*
X17500000Y-22500000D03*
X10000000Y-15000000D03*
X40000000Y-35000000D03*
D17*
X52000000Y-25000000D03*
D16*
X75000000Y-17500000D03*
X42500000Y-20000000D03*
X77500000Y-25000000D03*
X32500000Y-32500000D03*
X24500000Y-16750000D03*
X77500000Y-15000000D03*
X20000000Y-15000000D03*
X30000000Y-35000000D03*
X29500000Y-9000000D03*
X42500000Y-35000000D03*
X72000000Y-13750000D03*
X12500000Y-32500000D03*
D17*
%TO.N,/MCU/ESP_RXD0*%
X45000000Y-6375000D03*
X46500000Y-8500000D03*
%TO.N,/MCU/ESP_EN*%
X54750000Y-4000000D03*
%TO.N,/MCU/ESP_TXD0*%
X46000000Y-5500000D03*
X47500000Y-7250000D03*
%TO.N,/MCU/IO25*%
X33000000Y-18500000D03*
X29750000Y-18250000D03*
%TD*%
D18*
%TO.N,/MCU/ESP_RXD0*%
X46500000Y-7250000D02*
X46500000Y-8500000D01*
X45000000Y-6375000D02*
X45625000Y-6375000D01*
X45625000Y-6375000D02*
X46500000Y-7250000D01*
%TO.N,/MCU/ESP_EN*%
X50800000Y-2750000D02*
X50800000Y-1950000D01*
X51125000Y-1625000D02*
X53875000Y-1625000D01*
X54750000Y-2500000D02*
X54750000Y-4000000D01*
X53875000Y-1625000D02*
X54750000Y-2500000D01*
X50800000Y-1950000D02*
X51125000Y-1625000D01*
%TO.N,/MCU/ESP_TXD0*%
X46000000Y-5500000D02*
X47500000Y-7000000D01*
X47500000Y-7000000D02*
X47500000Y-7250000D01*
%TO.N,/MCU/IO25*%
X29750000Y-18250000D02*
X32750000Y-18250000D01*
X32750000Y-18250000D02*
X33000000Y-18500000D01*
%TD*%
%TA.AperFunction,Conductor*%
%TO.N,GND*%
G36*
X86004126Y1599035D02*
G01*
X86017425Y1597537D01*
X86125126Y1585402D01*
X86141265Y1581718D01*
X86252240Y1542886D01*
X86267169Y1535697D01*
X86366721Y1473145D01*
X86379677Y1462813D01*
X86462812Y1379678D01*
X86473144Y1366722D01*
X86535696Y1267170D01*
X86542885Y1252241D01*
X86561386Y1199367D01*
X86581715Y1141272D01*
X86585402Y1125121D01*
X86599035Y1004127D01*
X86599500Y995841D01*
X86599500Y-40995840D01*
X86599035Y-41004126D01*
X86585402Y-41125120D01*
X86581714Y-41141275D01*
X86542885Y-41252240D01*
X86535696Y-41267169D01*
X86473144Y-41366721D01*
X86462812Y-41379677D01*
X86379677Y-41462812D01*
X86366721Y-41473144D01*
X86267169Y-41535696D01*
X86252240Y-41542885D01*
X86162670Y-41574227D01*
X86141273Y-41581714D01*
X86125120Y-41585402D01*
X86004127Y-41599035D01*
X85995841Y-41599500D01*
X-995841Y-41599500D01*
X-1004127Y-41599035D01*
X-1125121Y-41585402D01*
X-1141272Y-41581715D01*
X-1199367Y-41561386D01*
X-1252241Y-41542885D01*
X-1267170Y-41535696D01*
X-1366722Y-41473144D01*
X-1379678Y-41462812D01*
X-1462813Y-41379677D01*
X-1473145Y-41366721D01*
X-1535697Y-41267169D01*
X-1542886Y-41252240D01*
X-1581718Y-41141265D01*
X-1585402Y-41125126D01*
X-1599035Y-41004125D01*
X-1599500Y-40995840D01*
X-1599500Y-40000000D01*
X0Y-40000000D01*
X85000000Y-40000000D01*
X85000000Y0D01*
X0Y0D01*
X0Y-40000000D01*
X-1599500Y-40000000D01*
X-1599500Y995841D01*
X-1599035Y1004126D01*
X-1593559Y1052727D01*
X-1585402Y1125129D01*
X-1581718Y1141264D01*
X-1542885Y1252245D01*
X-1535697Y1267170D01*
X-1497506Y1327951D01*
X-1473141Y1366728D01*
X-1462817Y1379674D01*
X-1379674Y1462817D01*
X-1366728Y1473141D01*
X-1267169Y1535698D01*
X-1252245Y1542885D01*
X-1141264Y1581718D01*
X-1125129Y1585402D01*
X-1015982Y1597700D01*
X-1004126Y1599035D01*
X-995841Y1599500D01*
X-942417Y1599500D01*
X85942417Y1599500D01*
X85995841Y1599500D01*
X86004126Y1599035D01*
G37*
%TD.AperFunction*%
%TD*%
%TA.AperFunction,Conductor*%
%TO.N,GND*%
G36*
X85000000Y-40000000D02*
G01*
X0Y-40000000D01*
X0Y-36499994D01*
X11594754Y-36499994D01*
X11594754Y-36500005D01*
X11613718Y-36801446D01*
X11613719Y-36801453D01*
X11670320Y-37098164D01*
X11763659Y-37385431D01*
X11763661Y-37385436D01*
X11892265Y-37658732D01*
X11892268Y-37658738D01*
X12054111Y-37913763D01*
X12246652Y-38146505D01*
X12466836Y-38353272D01*
X12466846Y-38353280D01*
X12711193Y-38530808D01*
X12711198Y-38530810D01*
X12711205Y-38530816D01*
X12975896Y-38676332D01*
X12975901Y-38676334D01*
X12975903Y-38676335D01*
X12975904Y-38676336D01*
X13256734Y-38787524D01*
X13256737Y-38787525D01*
X13354259Y-38812564D01*
X13549302Y-38862642D01*
X13696039Y-38881179D01*
X13848963Y-38900499D01*
X13848969Y-38900499D01*
X13848973Y-38900500D01*
X13848975Y-38900500D01*
X14151025Y-38900500D01*
X14151027Y-38900500D01*
X14151032Y-38900499D01*
X14151036Y-38900499D01*
X14230591Y-38890448D01*
X14450698Y-38862642D01*
X14743262Y-38787525D01*
X14743265Y-38787524D01*
X15024095Y-38676336D01*
X15024096Y-38676335D01*
X15024094Y-38676335D01*
X15024104Y-38676332D01*
X15288795Y-38530816D01*
X15533162Y-38353274D01*
X15753349Y-38146504D01*
X15945885Y-37913768D01*
X16107733Y-37658736D01*
X16236341Y-37385430D01*
X16329681Y-37098160D01*
X16386280Y-36801457D01*
X16405246Y-36500000D01*
X16405246Y-36499994D01*
X79094754Y-36499994D01*
X79094754Y-36500005D01*
X79113718Y-36801446D01*
X79113719Y-36801453D01*
X79170320Y-37098164D01*
X79263659Y-37385431D01*
X79263661Y-37385436D01*
X79392265Y-37658732D01*
X79392268Y-37658738D01*
X79554111Y-37913763D01*
X79746652Y-38146505D01*
X79966836Y-38353272D01*
X79966846Y-38353280D01*
X80211193Y-38530808D01*
X80211198Y-38530810D01*
X80211205Y-38530816D01*
X80475896Y-38676332D01*
X80475901Y-38676334D01*
X80475903Y-38676335D01*
X80475904Y-38676336D01*
X80756734Y-38787524D01*
X80756737Y-38787525D01*
X80854259Y-38812564D01*
X81049302Y-38862642D01*
X81196039Y-38881179D01*
X81348963Y-38900499D01*
X81348969Y-38900499D01*
X81348973Y-38900500D01*
X81348975Y-38900500D01*
X81651025Y-38900500D01*
X81651027Y-38900500D01*
X81651032Y-38900499D01*
X81651036Y-38900499D01*
X81730591Y-38890448D01*
X81950698Y-38862642D01*
X82243262Y-38787525D01*
X82243265Y-38787524D01*
X82524095Y-38676336D01*
X82524096Y-38676335D01*
X82524094Y-38676335D01*
X82524104Y-38676332D01*
X82788795Y-38530816D01*
X83033162Y-38353274D01*
X83253349Y-38146504D01*
X83445885Y-37913768D01*
X83607733Y-37658736D01*
X83736341Y-37385430D01*
X83829681Y-37098160D01*
X83886280Y-36801457D01*
X83905246Y-36500000D01*
X83886280Y-36198543D01*
X83829681Y-35901840D01*
X83736341Y-35614570D01*
X83607733Y-35341264D01*
X83445885Y-35086232D01*
X83253349Y-34853496D01*
X83033162Y-34646726D01*
X83033159Y-34646724D01*
X83033153Y-34646719D01*
X82788806Y-34469191D01*
X82788799Y-34469186D01*
X82788795Y-34469184D01*
X82524104Y-34323668D01*
X82524101Y-34323666D01*
X82524096Y-34323664D01*
X82524095Y-34323663D01*
X82243265Y-34212475D01*
X82243262Y-34212474D01*
X81950695Y-34137357D01*
X81651036Y-34099500D01*
X81651027Y-34099500D01*
X81348973Y-34099500D01*
X81348963Y-34099500D01*
X81049304Y-34137357D01*
X80756737Y-34212474D01*
X80756734Y-34212475D01*
X80475904Y-34323663D01*
X80475903Y-34323664D01*
X80211205Y-34469184D01*
X80211193Y-34469191D01*
X79966846Y-34646719D01*
X79966836Y-34646727D01*
X79746652Y-34853494D01*
X79554111Y-35086236D01*
X79392268Y-35341261D01*
X79392265Y-35341267D01*
X79263661Y-35614563D01*
X79263659Y-35614568D01*
X79170320Y-35901835D01*
X79113719Y-36198546D01*
X79113718Y-36198553D01*
X79094754Y-36499994D01*
X16405246Y-36499994D01*
X16386280Y-36198543D01*
X16329681Y-35901840D01*
X16236341Y-35614570D01*
X16107733Y-35341264D01*
X15945885Y-35086232D01*
X15753349Y-34853496D01*
X15533162Y-34646726D01*
X15533159Y-34646724D01*
X15533153Y-34646719D01*
X15288806Y-34469191D01*
X15288799Y-34469186D01*
X15288795Y-34469184D01*
X15024104Y-34323668D01*
X15024101Y-34323666D01*
X15024096Y-34323664D01*
X15024095Y-34323663D01*
X14743265Y-34212475D01*
X14743262Y-34212474D01*
X14450695Y-34137357D01*
X14151036Y-34099500D01*
X14151027Y-34099500D01*
X13848973Y-34099500D01*
X13848963Y-34099500D01*
X13549304Y-34137357D01*
X13256737Y-34212474D01*
X13256734Y-34212475D01*
X12975904Y-34323663D01*
X12975903Y-34323664D01*
X12711205Y-34469184D01*
X12711193Y-34469191D01*
X12466846Y-34646719D01*
X12466836Y-34646727D01*
X12246652Y-34853494D01*
X12054111Y-35086236D01*
X11892268Y-35341261D01*
X11892265Y-35341267D01*
X11763661Y-35614563D01*
X11763659Y-35614568D01*
X11670320Y-35901835D01*
X11613719Y-36198546D01*
X11613718Y-36198553D01*
X11594754Y-36499994D01*
X0Y-36499994D01*
X0Y-20648446D01*
X37428328Y-20648446D01*
X37550697Y-20725336D01*
X37720858Y-20784877D01*
X37720861Y-20784878D01*
X37899997Y-20805062D01*
X37900003Y-20805062D01*
X38079138Y-20784878D01*
X38079141Y-20784877D01*
X38249304Y-20725335D01*
X38249310Y-20725332D01*
X38371670Y-20648447D01*
X38371670Y-20648446D01*
X38828328Y-20648446D01*
X38950697Y-20725336D01*
X39120858Y-20784877D01*
X39120861Y-20784878D01*
X39299997Y-20805062D01*
X39300003Y-20805062D01*
X39479138Y-20784878D01*
X39479141Y-20784877D01*
X39649304Y-20725335D01*
X39649310Y-20725332D01*
X39771670Y-20648447D01*
X39771670Y-20648446D01*
X39300001Y-20176776D01*
X39300000Y-20176776D01*
X38828328Y-20648446D01*
X38371670Y-20648446D01*
X37900001Y-20176776D01*
X37900000Y-20176776D01*
X37428328Y-20648446D01*
X0Y-20648446D01*
X0Y-19948446D01*
X36728328Y-19948446D01*
X36850697Y-20025336D01*
X37020859Y-20084878D01*
X37021644Y-20085057D01*
X37022099Y-20085311D01*
X37027430Y-20087177D01*
X37027103Y-20088110D01*
X37082623Y-20119166D01*
X37111952Y-20172875D01*
X37112823Y-20172571D01*
X37114672Y-20177855D01*
X37114940Y-20178346D01*
X37115120Y-20179137D01*
X37174664Y-20349304D01*
X37251551Y-20471670D01*
X37251552Y-20471671D01*
X37723223Y-20000000D01*
X37723223Y-19999999D01*
X37703333Y-19980109D01*
X37800000Y-19980109D01*
X37800000Y-20019891D01*
X37815224Y-20056645D01*
X37843355Y-20084776D01*
X37880109Y-20100000D01*
X37919891Y-20100000D01*
X37956645Y-20084776D01*
X37984776Y-20056645D01*
X38000000Y-20019891D01*
X38000000Y-20000000D01*
X38076776Y-20000000D01*
X38548446Y-20471670D01*
X38586113Y-20467426D01*
X38613884Y-20467426D01*
X38651553Y-20471670D01*
X39123223Y-20000001D01*
X39123223Y-19999999D01*
X39103333Y-19980109D01*
X39200000Y-19980109D01*
X39200000Y-20019891D01*
X39215224Y-20056645D01*
X39243355Y-20084776D01*
X39280109Y-20100000D01*
X39319891Y-20100000D01*
X39356645Y-20084776D01*
X39384776Y-20056645D01*
X39400000Y-20019891D01*
X39400000Y-20000000D01*
X39476776Y-20000000D01*
X39948446Y-20471670D01*
X39948447Y-20471670D01*
X40025332Y-20349310D01*
X40025335Y-20349304D01*
X40084876Y-20179144D01*
X40085056Y-20178358D01*
X40085311Y-20177901D01*
X40087177Y-20172570D01*
X40088110Y-20172896D01*
X40119164Y-20117379D01*
X40172875Y-20088049D01*
X40172570Y-20087177D01*
X40177870Y-20085322D01*
X40178358Y-20085056D01*
X40179144Y-20084876D01*
X40349304Y-20025335D01*
X40349310Y-20025332D01*
X40471670Y-19948447D01*
X40471670Y-19948446D01*
X40000000Y-19476776D01*
X39476776Y-20000000D01*
X39400000Y-20000000D01*
X39400000Y-19980109D01*
X39384776Y-19943355D01*
X39356645Y-19915224D01*
X39319891Y-19900000D01*
X39280109Y-19900000D01*
X39243355Y-19915224D01*
X39215224Y-19943355D01*
X39200000Y-19980109D01*
X39103333Y-19980109D01*
X38600000Y-19476776D01*
X38076776Y-20000000D01*
X38000000Y-20000000D01*
X38000000Y-19980109D01*
X37984776Y-19943355D01*
X37956645Y-19915224D01*
X37919891Y-19900000D01*
X37880109Y-19900000D01*
X37843355Y-19915224D01*
X37815224Y-19943355D01*
X37800000Y-19980109D01*
X37703333Y-19980109D01*
X37372527Y-19649303D01*
X37200001Y-19476776D01*
X37200000Y-19476776D01*
X36728328Y-19948446D01*
X0Y-19948446D01*
X0Y-19299997D01*
X36394938Y-19299997D01*
X36394938Y-19300002D01*
X36415121Y-19479138D01*
X36415122Y-19479141D01*
X36474664Y-19649303D01*
X36551551Y-19771670D01*
X36551552Y-19771671D01*
X37023223Y-19300000D01*
X37023223Y-19299999D01*
X37003333Y-19280109D01*
X37100000Y-19280109D01*
X37100000Y-19319891D01*
X37115224Y-19356645D01*
X37143355Y-19384776D01*
X37180109Y-19400000D01*
X37219891Y-19400000D01*
X37256645Y-19384776D01*
X37284776Y-19356645D01*
X37300000Y-19319891D01*
X37300000Y-19300000D01*
X37376776Y-19300000D01*
X37553553Y-19476777D01*
X37900000Y-19823223D01*
X38246447Y-19476777D01*
X38423223Y-19300000D01*
X38423223Y-19299999D01*
X38403333Y-19280109D01*
X38500000Y-19280109D01*
X38500000Y-19319891D01*
X38515224Y-19356645D01*
X38543355Y-19384776D01*
X38580109Y-19400000D01*
X38619891Y-19400000D01*
X38656645Y-19384776D01*
X38684776Y-19356645D01*
X38700000Y-19319891D01*
X38700000Y-19300000D01*
X38776776Y-19300000D01*
X38953553Y-19476777D01*
X39300000Y-19823223D01*
X39646447Y-19476777D01*
X39823223Y-19300000D01*
X39823223Y-19299999D01*
X39803333Y-19280109D01*
X39900000Y-19280109D01*
X39900000Y-19319891D01*
X39915224Y-19356645D01*
X39943355Y-19384776D01*
X39980109Y-19400000D01*
X40019891Y-19400000D01*
X40056645Y-19384776D01*
X40084776Y-19356645D01*
X40100000Y-19319891D01*
X40100000Y-19299999D01*
X40176776Y-19299999D01*
X40176776Y-19300000D01*
X40648446Y-19771670D01*
X40648447Y-19771670D01*
X40725332Y-19649310D01*
X40725336Y-19649303D01*
X40784877Y-19479141D01*
X40784878Y-19479138D01*
X40805062Y-19300002D01*
X40805062Y-19299997D01*
X40784878Y-19120861D01*
X40784877Y-19120858D01*
X40725336Y-18950697D01*
X40648446Y-18828328D01*
X40176776Y-19299999D01*
X40100000Y-19299999D01*
X40100000Y-19280109D01*
X40084776Y-19243355D01*
X40056645Y-19215224D01*
X40019891Y-19200000D01*
X39980109Y-19200000D01*
X39943355Y-19215224D01*
X39915224Y-19243355D01*
X39900000Y-19280109D01*
X39803333Y-19280109D01*
X39300000Y-18776776D01*
X38776776Y-19300000D01*
X38700000Y-19300000D01*
X38700000Y-19280109D01*
X38684776Y-19243355D01*
X38656645Y-19215224D01*
X38619891Y-19200000D01*
X38580109Y-19200000D01*
X38543355Y-19215224D01*
X38515224Y-19243355D01*
X38500000Y-19280109D01*
X38403333Y-19280109D01*
X37900000Y-18776776D01*
X37376776Y-19300000D01*
X37300000Y-19300000D01*
X37300000Y-19280109D01*
X37284776Y-19243355D01*
X37256645Y-19215224D01*
X37219891Y-19200000D01*
X37180109Y-19200000D01*
X37143355Y-19215224D01*
X37115224Y-19243355D01*
X37100000Y-19280109D01*
X37003333Y-19280109D01*
X36551552Y-18828327D01*
X36551551Y-18828327D01*
X36474664Y-18950695D01*
X36415122Y-19120858D01*
X36415121Y-19120861D01*
X36394938Y-19299997D01*
X0Y-19299997D01*
X0Y-18250000D01*
X29244353Y-18250000D01*
X29264834Y-18392456D01*
X29279457Y-18424475D01*
X29324623Y-18523373D01*
X29418872Y-18632143D01*
X29539947Y-18709953D01*
X29539950Y-18709954D01*
X29539949Y-18709954D01*
X29678036Y-18750499D01*
X29678038Y-18750500D01*
X29678039Y-18750500D01*
X29821962Y-18750500D01*
X29821962Y-18750499D01*
X29960053Y-18709953D01*
X30081128Y-18632143D01*
X30175377Y-18523373D01*
X30175377Y-18523371D01*
X30179775Y-18518297D01*
X30238553Y-18480523D01*
X30273488Y-18475500D01*
X32383384Y-18475500D01*
X32450423Y-18495185D01*
X32496178Y-18547989D01*
X32506121Y-18581851D01*
X32508385Y-18597596D01*
X32514834Y-18642456D01*
X32545660Y-18709954D01*
X32574623Y-18773373D01*
X32668872Y-18882143D01*
X32789947Y-18959953D01*
X32789950Y-18959954D01*
X32789949Y-18959954D01*
X32897107Y-18991417D01*
X32926336Y-19000000D01*
X32928036Y-19000499D01*
X32928038Y-19000500D01*
X32928039Y-19000500D01*
X33071962Y-19000500D01*
X33071962Y-19000499D01*
X33210053Y-18959953D01*
X33331128Y-18882143D01*
X33425377Y-18773373D01*
X33485165Y-18642457D01*
X33498681Y-18548447D01*
X36728327Y-18548447D01*
X36732572Y-18586116D01*
X36732572Y-18613882D01*
X36728327Y-18651551D01*
X37200000Y-19123223D01*
X37549851Y-18773373D01*
X37723223Y-18600000D01*
X37723223Y-18599999D01*
X37703333Y-18580109D01*
X37800000Y-18580109D01*
X37800000Y-18619891D01*
X37815224Y-18656645D01*
X37843355Y-18684776D01*
X37880109Y-18700000D01*
X37919891Y-18700000D01*
X37956645Y-18684776D01*
X37984776Y-18656645D01*
X38000000Y-18619891D01*
X38000000Y-18600000D01*
X38076776Y-18600000D01*
X38250149Y-18773373D01*
X38600000Y-19123223D01*
X38949851Y-18773373D01*
X39123223Y-18600000D01*
X39123223Y-18599999D01*
X39103333Y-18580109D01*
X39200000Y-18580109D01*
X39200000Y-18619891D01*
X39215224Y-18656645D01*
X39243355Y-18684776D01*
X39280109Y-18700000D01*
X39319891Y-18700000D01*
X39356645Y-18684776D01*
X39384776Y-18656645D01*
X39400000Y-18619891D01*
X39400000Y-18600000D01*
X39476776Y-18600000D01*
X39650149Y-18773373D01*
X40000000Y-19123223D01*
X40000001Y-19123223D01*
X40471670Y-18651553D01*
X40467426Y-18613884D01*
X40467426Y-18586113D01*
X40471670Y-18548446D01*
X40000000Y-18076776D01*
X39476776Y-18600000D01*
X39400000Y-18600000D01*
X39400000Y-18580109D01*
X39384776Y-18543355D01*
X39356645Y-18515224D01*
X39319891Y-18500000D01*
X39280109Y-18500000D01*
X39243355Y-18515224D01*
X39215224Y-18543355D01*
X39200000Y-18580109D01*
X39103333Y-18580109D01*
X38600000Y-18076776D01*
X38076776Y-18600000D01*
X38000000Y-18600000D01*
X38000000Y-18580109D01*
X37984776Y-18543355D01*
X37956645Y-18515224D01*
X37919891Y-18500000D01*
X37880109Y-18500000D01*
X37843355Y-18515224D01*
X37815224Y-18543355D01*
X37800000Y-18580109D01*
X37703333Y-18580109D01*
X37372527Y-18249303D01*
X37200001Y-18076776D01*
X37200000Y-18076776D01*
X36728327Y-18548447D01*
X33498681Y-18548447D01*
X33505647Y-18500000D01*
X33485165Y-18357543D01*
X33425377Y-18226627D01*
X33331128Y-18117857D01*
X33210053Y-18040047D01*
X33210051Y-18040046D01*
X33210049Y-18040045D01*
X33210050Y-18040045D01*
X33071963Y-17999500D01*
X33071961Y-17999500D01*
X32928039Y-17999500D01*
X32871662Y-18016053D01*
X32852734Y-18021611D01*
X32807068Y-18023651D01*
X32807068Y-18024499D01*
X32690711Y-18024499D01*
X32690703Y-18024500D01*
X30273488Y-18024500D01*
X30206449Y-18004815D01*
X30179775Y-17981703D01*
X30175376Y-17976626D01*
X30108977Y-17899997D01*
X36394938Y-17899997D01*
X36394938Y-17900002D01*
X36415121Y-18079138D01*
X36415122Y-18079141D01*
X36474664Y-18249303D01*
X36551551Y-18371670D01*
X36551552Y-18371671D01*
X37023223Y-17900000D01*
X37023223Y-17899999D01*
X37003333Y-17880109D01*
X37100000Y-17880109D01*
X37100000Y-17919891D01*
X37115224Y-17956645D01*
X37143355Y-17984776D01*
X37180109Y-18000000D01*
X37219891Y-18000000D01*
X37256645Y-17984776D01*
X37284776Y-17956645D01*
X37300000Y-17919891D01*
X37300000Y-17900000D01*
X37376776Y-17900000D01*
X37553553Y-18076777D01*
X37900000Y-18423223D01*
X38246447Y-18076777D01*
X38423223Y-17900000D01*
X38423223Y-17899999D01*
X38403333Y-17880109D01*
X38500000Y-17880109D01*
X38500000Y-17919891D01*
X38515224Y-17956645D01*
X38543355Y-17984776D01*
X38580109Y-18000000D01*
X38619891Y-18000000D01*
X38656645Y-17984776D01*
X38684776Y-17956645D01*
X38700000Y-17919891D01*
X38700000Y-17900000D01*
X38776776Y-17900000D01*
X38953553Y-18076777D01*
X39300000Y-18423223D01*
X39646447Y-18076777D01*
X39823223Y-17900000D01*
X39823223Y-17899999D01*
X39803333Y-17880109D01*
X39900000Y-17880109D01*
X39900000Y-17919891D01*
X39915224Y-17956645D01*
X39943355Y-17984776D01*
X39980109Y-18000000D01*
X40019891Y-18000000D01*
X40056645Y-17984776D01*
X40084776Y-17956645D01*
X40100000Y-17919891D01*
X40100000Y-17899999D01*
X40176776Y-17899999D01*
X40176776Y-17900000D01*
X40648446Y-18371670D01*
X40648447Y-18371670D01*
X40725332Y-18249310D01*
X40725336Y-18249303D01*
X40784877Y-18079141D01*
X40784878Y-18079138D01*
X40805062Y-17900002D01*
X40805062Y-17899997D01*
X40784878Y-17720861D01*
X40784877Y-17720858D01*
X40725336Y-17550697D01*
X40693477Y-17499994D01*
X65994859Y-17499994D01*
X65994859Y-17500005D01*
X66015385Y-17747729D01*
X66015387Y-17747738D01*
X66076412Y-17988717D01*
X66176266Y-18216364D01*
X66312237Y-18424483D01*
X66353699Y-18469521D01*
X66353701Y-18469521D01*
X67069270Y-17753952D01*
X67099901Y-17807007D01*
X67192993Y-17900099D01*
X67246046Y-17930729D01*
X66530537Y-18646238D01*
X66530537Y-18646239D01*
X66676769Y-18760056D01*
X66676771Y-18760057D01*
X66895385Y-18878364D01*
X66895396Y-18878369D01*
X67130506Y-18959083D01*
X67375707Y-19000000D01*
X67624293Y-19000000D01*
X67869493Y-18959083D01*
X68104603Y-18878369D01*
X68104614Y-18878364D01*
X68323228Y-18760057D01*
X68323231Y-18760055D01*
X68469461Y-18646238D01*
X67753952Y-17930729D01*
X67807007Y-17900099D01*
X67900099Y-17807007D01*
X67930729Y-17753953D01*
X68646298Y-18469522D01*
X68687769Y-18424475D01*
X68823732Y-18216367D01*
X68923587Y-17988717D01*
X68984612Y-17747738D01*
X68984614Y-17747729D01*
X69005141Y-17500005D01*
X69005141Y-17499994D01*
X68984614Y-17252270D01*
X68984612Y-17252261D01*
X68923587Y-17011282D01*
X68823733Y-16783635D01*
X68687766Y-16575522D01*
X68687757Y-16575510D01*
X68646299Y-16530477D01*
X68646297Y-16530477D01*
X67930729Y-17246046D01*
X67900099Y-17192993D01*
X67807007Y-17099901D01*
X67753952Y-17069270D01*
X68469461Y-16353760D01*
X68469461Y-16353759D01*
X68323236Y-16239947D01*
X68323231Y-16239944D01*
X68104614Y-16121635D01*
X68104603Y-16121630D01*
X67869493Y-16040916D01*
X67624293Y-16000000D01*
X67375707Y-16000000D01*
X67130506Y-16040916D01*
X66895396Y-16121630D01*
X66895385Y-16121635D01*
X66676768Y-16239944D01*
X66676765Y-16239946D01*
X66530537Y-16353759D01*
X66530537Y-16353760D01*
X67246047Y-17069270D01*
X67192993Y-17099901D01*
X67099901Y-17192993D01*
X67069270Y-17246047D01*
X66353700Y-16530477D01*
X66353699Y-16530477D01*
X66312232Y-16575521D01*
X66176267Y-16783632D01*
X66076412Y-17011282D01*
X66015387Y-17252261D01*
X66015385Y-17252270D01*
X65994859Y-17499994D01*
X40693477Y-17499994D01*
X40648446Y-17428328D01*
X40176776Y-17899999D01*
X40100000Y-17899999D01*
X40100000Y-17880109D01*
X40084776Y-17843355D01*
X40056645Y-17815224D01*
X40019891Y-17800000D01*
X39980109Y-17800000D01*
X39943355Y-17815224D01*
X39915224Y-17843355D01*
X39900000Y-17880109D01*
X39803333Y-17880109D01*
X39300000Y-17376776D01*
X38776776Y-17900000D01*
X38700000Y-17900000D01*
X38700000Y-17880109D01*
X38684776Y-17843355D01*
X38656645Y-17815224D01*
X38619891Y-17800000D01*
X38580109Y-17800000D01*
X38543355Y-17815224D01*
X38515224Y-17843355D01*
X38500000Y-17880109D01*
X38403333Y-17880109D01*
X37900000Y-17376776D01*
X37376776Y-17900000D01*
X37300000Y-17900000D01*
X37300000Y-17880109D01*
X37284776Y-17843355D01*
X37256645Y-17815224D01*
X37219891Y-17800000D01*
X37180109Y-17800000D01*
X37143355Y-17815224D01*
X37115224Y-17843355D01*
X37100000Y-17880109D01*
X37003333Y-17880109D01*
X36551552Y-17428327D01*
X36551551Y-17428327D01*
X36474664Y-17550695D01*
X36415122Y-17720858D01*
X36415121Y-17720861D01*
X36394938Y-17899997D01*
X30108977Y-17899997D01*
X30081128Y-17867857D01*
X29960053Y-17790047D01*
X29960051Y-17790046D01*
X29960049Y-17790045D01*
X29960050Y-17790045D01*
X29821963Y-17749500D01*
X29821961Y-17749500D01*
X29678039Y-17749500D01*
X29678036Y-17749500D01*
X29539949Y-17790045D01*
X29418873Y-17867856D01*
X29324623Y-17976626D01*
X29324622Y-17976628D01*
X29264834Y-18107543D01*
X29244353Y-18250000D01*
X0Y-18250000D01*
X0Y-17251551D01*
X36728327Y-17251551D01*
X36728327Y-17251552D01*
X37199999Y-17723223D01*
X37546447Y-17376777D01*
X37723223Y-17200000D01*
X37723223Y-17199999D01*
X37703333Y-17180109D01*
X37800000Y-17180109D01*
X37800000Y-17219891D01*
X37815224Y-17256645D01*
X37843355Y-17284776D01*
X37880109Y-17300000D01*
X37919891Y-17300000D01*
X37956645Y-17284776D01*
X37984776Y-17256645D01*
X38000000Y-17219891D01*
X38000000Y-17199999D01*
X38076776Y-17199999D01*
X38076776Y-17200000D01*
X38253553Y-17376777D01*
X38600000Y-17723223D01*
X38946447Y-17376777D01*
X39123223Y-17200000D01*
X39123223Y-17199999D01*
X39103333Y-17180109D01*
X39200000Y-17180109D01*
X39200000Y-17219891D01*
X39215224Y-17256645D01*
X39243355Y-17284776D01*
X39280109Y-17300000D01*
X39319891Y-17300000D01*
X39356645Y-17284776D01*
X39384776Y-17256645D01*
X39400000Y-17219891D01*
X39400000Y-17199999D01*
X39476776Y-17199999D01*
X39476776Y-17200000D01*
X39653553Y-17376777D01*
X40000000Y-17723223D01*
X40000001Y-17723223D01*
X40471671Y-17251552D01*
X40471670Y-17251551D01*
X40349304Y-17174664D01*
X40179137Y-17115120D01*
X40178346Y-17114940D01*
X40177886Y-17114683D01*
X40172571Y-17112823D01*
X40172896Y-17111891D01*
X40117370Y-17080827D01*
X40088049Y-17027124D01*
X40087177Y-17027430D01*
X40085322Y-17022130D01*
X40085057Y-17021644D01*
X40084878Y-17020859D01*
X40025336Y-16850697D01*
X39948446Y-16728328D01*
X39476776Y-17199999D01*
X39400000Y-17199999D01*
X39400000Y-17180109D01*
X39384776Y-17143355D01*
X39356645Y-17115224D01*
X39319891Y-17100000D01*
X39280109Y-17100000D01*
X39243355Y-17115224D01*
X39215224Y-17143355D01*
X39200000Y-17180109D01*
X39103333Y-17180109D01*
X38651551Y-16728327D01*
X38613882Y-16732572D01*
X38586116Y-16732572D01*
X38548447Y-16728327D01*
X38076776Y-17199999D01*
X38000000Y-17199999D01*
X38000000Y-17180109D01*
X37984776Y-17143355D01*
X37956645Y-17115224D01*
X37919891Y-17100000D01*
X37880109Y-17100000D01*
X37843355Y-17115224D01*
X37815224Y-17143355D01*
X37800000Y-17180109D01*
X37703333Y-17180109D01*
X37251552Y-16728327D01*
X37251551Y-16728327D01*
X37174664Y-16850695D01*
X37115119Y-17020866D01*
X37114939Y-17021656D01*
X37114682Y-17022113D01*
X37112823Y-17027429D01*
X37111891Y-17027103D01*
X37080824Y-17082631D01*
X37027124Y-17111952D01*
X37027429Y-17112823D01*
X37022145Y-17114671D01*
X37021656Y-17114939D01*
X37020866Y-17115119D01*
X36850695Y-17174664D01*
X36728327Y-17251551D01*
X0Y-17251551D01*
X0Y-16551551D01*
X37428327Y-16551551D01*
X37428327Y-16551552D01*
X37900000Y-17023223D01*
X37900001Y-17023223D01*
X38371671Y-16551552D01*
X38371670Y-16551551D01*
X38828327Y-16551551D01*
X38828327Y-16551552D01*
X39300000Y-17023223D01*
X39300001Y-17023223D01*
X39771671Y-16551552D01*
X39771670Y-16551551D01*
X39649304Y-16474664D01*
X39479141Y-16415122D01*
X39479138Y-16415121D01*
X39300003Y-16394938D01*
X39299997Y-16394938D01*
X39120861Y-16415121D01*
X39120858Y-16415122D01*
X38950695Y-16474664D01*
X38828327Y-16551551D01*
X38371670Y-16551551D01*
X38249304Y-16474664D01*
X38079141Y-16415122D01*
X38079138Y-16415121D01*
X37900003Y-16394938D01*
X37899997Y-16394938D01*
X37720861Y-16415121D01*
X37720858Y-16415122D01*
X37550695Y-16474664D01*
X37428327Y-16551551D01*
X0Y-16551551D01*
X0Y-13499994D01*
X12494859Y-13499994D01*
X12494859Y-13500005D01*
X12515385Y-13747729D01*
X12515387Y-13747738D01*
X12576412Y-13988717D01*
X12676266Y-14216364D01*
X12812237Y-14424483D01*
X12853699Y-14469521D01*
X12853701Y-14469521D01*
X13569270Y-13753952D01*
X13599901Y-13807007D01*
X13692993Y-13900099D01*
X13746046Y-13930729D01*
X13030537Y-14646238D01*
X13030537Y-14646239D01*
X13176769Y-14760056D01*
X13176771Y-14760057D01*
X13395385Y-14878364D01*
X13395396Y-14878369D01*
X13630506Y-14959083D01*
X13875707Y-15000000D01*
X14124293Y-15000000D01*
X14369493Y-14959083D01*
X14604603Y-14878369D01*
X14604614Y-14878364D01*
X14823228Y-14760057D01*
X14823231Y-14760055D01*
X14969461Y-14646238D01*
X14253952Y-13930729D01*
X14307007Y-13900099D01*
X14400099Y-13807007D01*
X14430729Y-13753953D01*
X15146298Y-14469522D01*
X15187769Y-14424475D01*
X15323732Y-14216367D01*
X15423587Y-13988717D01*
X15484612Y-13747738D01*
X15484614Y-13747729D01*
X15505141Y-13500005D01*
X15505141Y-13499994D01*
X15484614Y-13252270D01*
X15484612Y-13252261D01*
X15423587Y-13011282D01*
X15323733Y-12783635D01*
X15187766Y-12575522D01*
X15187757Y-12575510D01*
X15146299Y-12530477D01*
X15146297Y-12530477D01*
X14430729Y-13246046D01*
X14400099Y-13192993D01*
X14307007Y-13099901D01*
X14253952Y-13069270D01*
X14969461Y-12353760D01*
X14969461Y-12353759D01*
X14823236Y-12239947D01*
X14823231Y-12239944D01*
X14604614Y-12121635D01*
X14604603Y-12121630D01*
X14369493Y-12040916D01*
X14124293Y-12000000D01*
X13875707Y-12000000D01*
X13630506Y-12040916D01*
X13395396Y-12121630D01*
X13395385Y-12121635D01*
X13176768Y-12239944D01*
X13176765Y-12239946D01*
X13030537Y-12353759D01*
X13030537Y-12353760D01*
X13746047Y-13069270D01*
X13692993Y-13099901D01*
X13599901Y-13192993D01*
X13569270Y-13246047D01*
X12853700Y-12530477D01*
X12853699Y-12530477D01*
X12812232Y-12575521D01*
X12676267Y-12783632D01*
X12576412Y-13011282D01*
X12515387Y-13252261D01*
X12515385Y-13252270D01*
X12494859Y-13499994D01*
X0Y-13499994D01*
X0Y-10386831D01*
X52522050Y-10386831D01*
X52522050Y-10613168D01*
X52557458Y-10836722D01*
X52557458Y-10836725D01*
X52627398Y-11051978D01*
X52627400Y-11051981D01*
X52730155Y-11253650D01*
X52863193Y-11436761D01*
X53023239Y-11596807D01*
X53206350Y-11729845D01*
X53408019Y-11832600D01*
X53408021Y-11832601D01*
X53608801Y-11897837D01*
X53623279Y-11902542D01*
X53846831Y-11937950D01*
X53846832Y-11937950D01*
X54073168Y-11937950D01*
X54073169Y-11937950D01*
X54296721Y-11902542D01*
X54296724Y-11902541D01*
X54296725Y-11902541D01*
X54511978Y-11832601D01*
X54511978Y-11832600D01*
X54511981Y-11832600D01*
X54713650Y-11729845D01*
X54896761Y-11596807D01*
X55056807Y-11436761D01*
X55189845Y-11253650D01*
X55292600Y-11051981D01*
X55317476Y-10975420D01*
X55362541Y-10836725D01*
X55362541Y-10836724D01*
X55362542Y-10836721D01*
X55397950Y-10613169D01*
X55397950Y-10426540D01*
X55754200Y-10426540D01*
X55754200Y-10573459D01*
X55782858Y-10717534D01*
X55782861Y-10717544D01*
X55839078Y-10853266D01*
X55839083Y-10853275D01*
X55920698Y-10975419D01*
X55920701Y-10975423D01*
X56024576Y-11079298D01*
X56024580Y-11079301D01*
X56146724Y-11160916D01*
X56146730Y-11160919D01*
X56146731Y-11160920D01*
X56282458Y-11217140D01*
X56426540Y-11245799D01*
X56426544Y-11245800D01*
X56426545Y-11245800D01*
X56573456Y-11245800D01*
X56573457Y-11245799D01*
X56717542Y-11217140D01*
X56853269Y-11160920D01*
X56975420Y-11079301D01*
X57079301Y-10975420D01*
X57160920Y-10853269D01*
X57217140Y-10717542D01*
X57245800Y-10573455D01*
X57245800Y-10426545D01*
X57237901Y-10386831D01*
X57602050Y-10386831D01*
X57602050Y-10613168D01*
X57637458Y-10836722D01*
X57637458Y-10836725D01*
X57707398Y-11051978D01*
X57707400Y-11051981D01*
X57810155Y-11253650D01*
X57943193Y-11436761D01*
X58103239Y-11596807D01*
X58286350Y-11729845D01*
X58488019Y-11832600D01*
X58488021Y-11832601D01*
X58688801Y-11897837D01*
X58703279Y-11902542D01*
X58926831Y-11937950D01*
X58926832Y-11937950D01*
X59153168Y-11937950D01*
X59153169Y-11937950D01*
X59376721Y-11902542D01*
X59376724Y-11902541D01*
X59376725Y-11902541D01*
X59591978Y-11832601D01*
X59591978Y-11832600D01*
X59591981Y-11832600D01*
X59793650Y-11729845D01*
X59976761Y-11596807D01*
X60136807Y-11436761D01*
X60269845Y-11253650D01*
X60372600Y-11051981D01*
X60397476Y-10975420D01*
X60442541Y-10836725D01*
X60442541Y-10836724D01*
X60442542Y-10836721D01*
X60477950Y-10613169D01*
X60477950Y-10386831D01*
X60442542Y-10163279D01*
X60442541Y-10163275D01*
X60442541Y-10163274D01*
X60372601Y-9948021D01*
X60372599Y-9948018D01*
X60358681Y-9920701D01*
X60269845Y-9746350D01*
X60136807Y-9563239D01*
X59976761Y-9403193D01*
X59793650Y-9270155D01*
X59591981Y-9167400D01*
X59591978Y-9167398D01*
X59376723Y-9097458D01*
X59227686Y-9073852D01*
X59153169Y-9062050D01*
X58926831Y-9062050D01*
X58852313Y-9073852D01*
X58703277Y-9097458D01*
X58703274Y-9097458D01*
X58488021Y-9167398D01*
X58488018Y-9167400D01*
X58286349Y-9270155D01*
X58181878Y-9346058D01*
X58103239Y-9403193D01*
X58103237Y-9403195D01*
X58103236Y-9403195D01*
X57943195Y-9563236D01*
X57943195Y-9563237D01*
X57943193Y-9563239D01*
X57886058Y-9641878D01*
X57810155Y-9746349D01*
X57707400Y-9948018D01*
X57707398Y-9948021D01*
X57637458Y-10163274D01*
X57637458Y-10163277D01*
X57602050Y-10386831D01*
X57237901Y-10386831D01*
X57217140Y-10282458D01*
X57160920Y-10146731D01*
X57160919Y-10146730D01*
X57160916Y-10146724D01*
X57079301Y-10024580D01*
X57079298Y-10024576D01*
X56975423Y-9920701D01*
X56975419Y-9920698D01*
X56853275Y-9839083D01*
X56853266Y-9839078D01*
X56717544Y-9782861D01*
X56717545Y-9782861D01*
X56717542Y-9782860D01*
X56717538Y-9782859D01*
X56717534Y-9782858D01*
X56573459Y-9754200D01*
X56573455Y-9754200D01*
X56426545Y-9754200D01*
X56426540Y-9754200D01*
X56282465Y-9782858D01*
X56282455Y-9782861D01*
X56146733Y-9839078D01*
X56146724Y-9839083D01*
X56024580Y-9920698D01*
X56024576Y-9920701D01*
X55920701Y-10024576D01*
X55920698Y-10024580D01*
X55839083Y-10146724D01*
X55839078Y-10146733D01*
X55782861Y-10282455D01*
X55782858Y-10282465D01*
X55754200Y-10426540D01*
X55397950Y-10426540D01*
X55397950Y-10386831D01*
X55362542Y-10163279D01*
X55362541Y-10163275D01*
X55362541Y-10163274D01*
X55292601Y-9948021D01*
X55292599Y-9948018D01*
X55278681Y-9920701D01*
X55189845Y-9746350D01*
X55056807Y-9563239D01*
X54896761Y-9403193D01*
X54713650Y-9270155D01*
X54511981Y-9167400D01*
X54511978Y-9167398D01*
X54296723Y-9097458D01*
X54147686Y-9073852D01*
X54073169Y-9062050D01*
X53846831Y-9062050D01*
X53772313Y-9073852D01*
X53623277Y-9097458D01*
X53623274Y-9097458D01*
X53408021Y-9167398D01*
X53408018Y-9167400D01*
X53206349Y-9270155D01*
X53101878Y-9346058D01*
X53023239Y-9403193D01*
X53023237Y-9403195D01*
X53023236Y-9403195D01*
X52863195Y-9563236D01*
X52863195Y-9563237D01*
X52863193Y-9563239D01*
X52806058Y-9641878D01*
X52730155Y-9746349D01*
X52627400Y-9948018D01*
X52627398Y-9948021D01*
X52557458Y-10163274D01*
X52557458Y-10163277D01*
X52522050Y-10386831D01*
X0Y-10386831D01*
X0Y-3499994D01*
X11594754Y-3499994D01*
X11594754Y-3500005D01*
X11613718Y-3801446D01*
X11613719Y-3801453D01*
X11670320Y-4098164D01*
X11763659Y-4385431D01*
X11763661Y-4385436D01*
X11892265Y-4658732D01*
X11892268Y-4658738D01*
X12054111Y-4913763D01*
X12054114Y-4913767D01*
X12054115Y-4913768D01*
X12158580Y-5040045D01*
X12246652Y-5146505D01*
X12466836Y-5353272D01*
X12466846Y-5353280D01*
X12711193Y-5530808D01*
X12711198Y-5530810D01*
X12711205Y-5530816D01*
X12975896Y-5676332D01*
X12975901Y-5676334D01*
X12975903Y-5676335D01*
X12975904Y-5676336D01*
X13256734Y-5787524D01*
X13256737Y-5787525D01*
X13354259Y-5812564D01*
X13549302Y-5862642D01*
X13696039Y-5881179D01*
X13848963Y-5900499D01*
X13848969Y-5900499D01*
X13848973Y-5900500D01*
X13848975Y-5900500D01*
X14151025Y-5900500D01*
X14151027Y-5900500D01*
X14151032Y-5900499D01*
X14151036Y-5900499D01*
X14230591Y-5890448D01*
X14450698Y-5862642D01*
X14743262Y-5787525D01*
X14779006Y-5773373D01*
X15024095Y-5676336D01*
X15024096Y-5676335D01*
X15024094Y-5676335D01*
X15024104Y-5676332D01*
X15288795Y-5530816D01*
X15533162Y-5353274D01*
X15753349Y-5146504D01*
X15945885Y-4913768D01*
X16107733Y-4658736D01*
X16182429Y-4499998D01*
X40594645Y-4499998D01*
X40594645Y-4500001D01*
X40614039Y-4771160D01*
X40614040Y-4771167D01*
X40671823Y-5036793D01*
X40671825Y-5036801D01*
X40712743Y-5146505D01*
X40766830Y-5291519D01*
X40897109Y-5530107D01*
X40897110Y-5530108D01*
X40897113Y-5530113D01*
X41060029Y-5747742D01*
X41060033Y-5747746D01*
X41060038Y-5747752D01*
X41252247Y-5939961D01*
X41252253Y-5939966D01*
X41252258Y-5939971D01*
X41469887Y-6102887D01*
X41469891Y-6102889D01*
X41469892Y-6102890D01*
X41708481Y-6233169D01*
X41708480Y-6233169D01*
X41708484Y-6233170D01*
X41708487Y-6233172D01*
X41963199Y-6328175D01*
X42228840Y-6385961D01*
X42480605Y-6403967D01*
X42499999Y-6405355D01*
X42500000Y-6405355D01*
X42500001Y-6405355D01*
X42518100Y-6404060D01*
X42771160Y-6385961D01*
X42821547Y-6375000D01*
X44494353Y-6375000D01*
X44514834Y-6517456D01*
X44539447Y-6571349D01*
X44574623Y-6648373D01*
X44668872Y-6757143D01*
X44789947Y-6834953D01*
X44789950Y-6834954D01*
X44789949Y-6834954D01*
X44928036Y-6875499D01*
X44928038Y-6875500D01*
X44928039Y-6875500D01*
X45071962Y-6875500D01*
X45071962Y-6875499D01*
X45210053Y-6834953D01*
X45331128Y-6757143D01*
X45409694Y-6666471D01*
X45468471Y-6628697D01*
X45538341Y-6628697D01*
X45591088Y-6659993D01*
X46238181Y-7307086D01*
X46271666Y-7368409D01*
X46274500Y-7394767D01*
X46274500Y-7982265D01*
X46254815Y-8049304D01*
X46217540Y-8086579D01*
X46192309Y-8102794D01*
X46168873Y-8117856D01*
X46074623Y-8226626D01*
X46074622Y-8226628D01*
X46014834Y-8357543D01*
X45994353Y-8500000D01*
X46014834Y-8642456D01*
X46021751Y-8657601D01*
X46074623Y-8773373D01*
X46168872Y-8882143D01*
X46289947Y-8959953D01*
X46289950Y-8959954D01*
X46289949Y-8959954D01*
X46428036Y-9000499D01*
X46428038Y-9000500D01*
X46428039Y-9000500D01*
X46571962Y-9000500D01*
X46571962Y-9000499D01*
X46710053Y-8959953D01*
X46831128Y-8882143D01*
X46925377Y-8773373D01*
X46985165Y-8642457D01*
X47005647Y-8500000D01*
X46985165Y-8357543D01*
X46925377Y-8226627D01*
X46831128Y-8117857D01*
X46782460Y-8086580D01*
X46736706Y-8033777D01*
X46725500Y-7982265D01*
X46725500Y-7309297D01*
X46725501Y-7309288D01*
X46725501Y-7205146D01*
X46725501Y-7205145D01*
X46691170Y-7122265D01*
X46691170Y-7122264D01*
X46627736Y-7058830D01*
X46620671Y-7051765D01*
X46620664Y-7051759D01*
X45833610Y-6264705D01*
X45816170Y-6247264D01*
X45763860Y-6194954D01*
X45730376Y-6133630D01*
X45731146Y-6122862D01*
X45697516Y-6144476D01*
X45662581Y-6149499D01*
X45565711Y-6149499D01*
X45565703Y-6149500D01*
X45523488Y-6149500D01*
X45456449Y-6129815D01*
X45429775Y-6106703D01*
X45407434Y-6080920D01*
X45331128Y-5992857D01*
X45210053Y-5915047D01*
X45210051Y-5915046D01*
X45210049Y-5915045D01*
X45210050Y-5915045D01*
X45071963Y-5874500D01*
X45071961Y-5874500D01*
X44928039Y-5874500D01*
X44928036Y-5874500D01*
X44789949Y-5915045D01*
X44668873Y-5992856D01*
X44574623Y-6101626D01*
X44574622Y-6101628D01*
X44514834Y-6232543D01*
X44494353Y-6375000D01*
X42821547Y-6375000D01*
X43036801Y-6328175D01*
X43291513Y-6233172D01*
X43291517Y-6233169D01*
X43291519Y-6233169D01*
X43523124Y-6106703D01*
X43530113Y-6102887D01*
X43747742Y-5939971D01*
X43939971Y-5747742D01*
X44102887Y-5530113D01*
X44119330Y-5500000D01*
X45494353Y-5500000D01*
X45514834Y-5642456D01*
X45574578Y-5773275D01*
X45574623Y-5773373D01*
X45668872Y-5882143D01*
X45720069Y-5915045D01*
X45729620Y-5921183D01*
X45775375Y-5973987D01*
X45780111Y-6006930D01*
X45842697Y-5983589D01*
X45886474Y-5988295D01*
X45928039Y-6000500D01*
X46071962Y-6000500D01*
X46086115Y-5996344D01*
X46155985Y-5996342D01*
X46208734Y-6027639D01*
X47039796Y-6858702D01*
X47073281Y-6920025D01*
X47068297Y-6989717D01*
X47064910Y-6997894D01*
X47014834Y-7107545D01*
X46994353Y-7250000D01*
X47014834Y-7392456D01*
X47035711Y-7438169D01*
X47074623Y-7523373D01*
X47168872Y-7632143D01*
X47289947Y-7709953D01*
X47289950Y-7709954D01*
X47289949Y-7709954D01*
X47428036Y-7750499D01*
X47428038Y-7750500D01*
X47428039Y-7750500D01*
X47571962Y-7750500D01*
X47571962Y-7750499D01*
X47710053Y-7709953D01*
X47831128Y-7632143D01*
X47925377Y-7523373D01*
X47985165Y-7392457D01*
X48005647Y-7250000D01*
X48000159Y-7211831D01*
X52522050Y-7211831D01*
X52522050Y-7438168D01*
X52557458Y-7661722D01*
X52557458Y-7661725D01*
X52627398Y-7876978D01*
X52627400Y-7876981D01*
X52730155Y-8078650D01*
X52863193Y-8261761D01*
X53023239Y-8421807D01*
X53206350Y-8554845D01*
X53408019Y-8657600D01*
X53408021Y-8657601D01*
X53608801Y-8722837D01*
X53623279Y-8727542D01*
X53846831Y-8762950D01*
X53846832Y-8762950D01*
X54073168Y-8762950D01*
X54073169Y-8762950D01*
X54296721Y-8727542D01*
X54296724Y-8727541D01*
X54296725Y-8727541D01*
X54511978Y-8657601D01*
X54511978Y-8657600D01*
X54511981Y-8657600D01*
X54713650Y-8554845D01*
X54896761Y-8421807D01*
X55056807Y-8261761D01*
X55189845Y-8078650D01*
X55292600Y-7876981D01*
X55333696Y-7750500D01*
X55362541Y-7661725D01*
X55362541Y-7661724D01*
X55362542Y-7661721D01*
X55397950Y-7438169D01*
X55397950Y-7211831D01*
X57602050Y-7211831D01*
X57602050Y-7438168D01*
X57637458Y-7661722D01*
X57637458Y-7661725D01*
X57707398Y-7876978D01*
X57707400Y-7876981D01*
X57810155Y-8078650D01*
X57943193Y-8261761D01*
X58103239Y-8421807D01*
X58286350Y-8554845D01*
X58488019Y-8657600D01*
X58488021Y-8657601D01*
X58688801Y-8722837D01*
X58703279Y-8727542D01*
X58926831Y-8762950D01*
X58926832Y-8762950D01*
X59153168Y-8762950D01*
X59153169Y-8762950D01*
X59376721Y-8727542D01*
X59376724Y-8727541D01*
X59376725Y-8727541D01*
X59591978Y-8657601D01*
X59591978Y-8657600D01*
X59591981Y-8657600D01*
X59793650Y-8554845D01*
X59976761Y-8421807D01*
X60136807Y-8261761D01*
X60269845Y-8078650D01*
X60372600Y-7876981D01*
X60413696Y-7750500D01*
X60442541Y-7661725D01*
X60442541Y-7661724D01*
X60442542Y-7661721D01*
X60477950Y-7438169D01*
X60477950Y-7211831D01*
X60442542Y-6988279D01*
X60442541Y-6988275D01*
X60442541Y-6988274D01*
X60372601Y-6773021D01*
X60372599Y-6773018D01*
X60364511Y-6757143D01*
X60269845Y-6571350D01*
X60136807Y-6388239D01*
X59976761Y-6228193D01*
X59793650Y-6095155D01*
X59591981Y-5992400D01*
X59591978Y-5992398D01*
X59376723Y-5922458D01*
X59227686Y-5898852D01*
X59153169Y-5887050D01*
X58926831Y-5887050D01*
X58852313Y-5898852D01*
X58703277Y-5922458D01*
X58703274Y-5922458D01*
X58488021Y-5992398D01*
X58488018Y-5992400D01*
X58286349Y-6095155D01*
X58181878Y-6171058D01*
X58103239Y-6228193D01*
X58103237Y-6228195D01*
X58103236Y-6228195D01*
X57943195Y-6388236D01*
X57943195Y-6388237D01*
X57943193Y-6388239D01*
X57886058Y-6466878D01*
X57810155Y-6571349D01*
X57707400Y-6773018D01*
X57707398Y-6773021D01*
X57637458Y-6988274D01*
X57637458Y-6988277D01*
X57602050Y-7211831D01*
X55397950Y-7211831D01*
X55362542Y-6988279D01*
X55362541Y-6988275D01*
X55362541Y-6988274D01*
X55292601Y-6773021D01*
X55292599Y-6773018D01*
X55284511Y-6757143D01*
X55189845Y-6571350D01*
X55056807Y-6388239D01*
X54896761Y-6228193D01*
X54713650Y-6095155D01*
X54511981Y-5992400D01*
X54511978Y-5992398D01*
X54296723Y-5922458D01*
X54147686Y-5898852D01*
X54073169Y-5887050D01*
X53846831Y-5887050D01*
X53772313Y-5898852D01*
X53623277Y-5922458D01*
X53623274Y-5922458D01*
X53408021Y-5992398D01*
X53408018Y-5992400D01*
X53206349Y-6095155D01*
X53101878Y-6171058D01*
X53023239Y-6228193D01*
X53023237Y-6228195D01*
X53023236Y-6228195D01*
X52863195Y-6388236D01*
X52863195Y-6388237D01*
X52863193Y-6388239D01*
X52806058Y-6466878D01*
X52730155Y-6571349D01*
X52627400Y-6773018D01*
X52627398Y-6773021D01*
X52557458Y-6988274D01*
X52557458Y-6988277D01*
X52522050Y-7211831D01*
X48000159Y-7211831D01*
X47985165Y-7107543D01*
X47925377Y-6976627D01*
X47831128Y-6867857D01*
X47710053Y-6790047D01*
X47710051Y-6790046D01*
X47710049Y-6790045D01*
X47710050Y-6790045D01*
X47597295Y-6756938D01*
X47544548Y-6725642D01*
X46526063Y-5707158D01*
X46492578Y-5645835D01*
X46491006Y-5601830D01*
X46505647Y-5500000D01*
X46485165Y-5357543D01*
X46480140Y-5346540D01*
X54738200Y-5346540D01*
X54738200Y-5493459D01*
X54766858Y-5637534D01*
X54766860Y-5637542D01*
X54768896Y-5642457D01*
X54823078Y-5773266D01*
X54823083Y-5773275D01*
X54904698Y-5895419D01*
X54904701Y-5895423D01*
X55008576Y-5999298D01*
X55008580Y-5999301D01*
X55130724Y-6080916D01*
X55130730Y-6080919D01*
X55130731Y-6080920D01*
X55266458Y-6137140D01*
X55410540Y-6165799D01*
X55410544Y-6165800D01*
X55410545Y-6165800D01*
X55557456Y-6165800D01*
X55557457Y-6165799D01*
X55701542Y-6137140D01*
X55837269Y-6080920D01*
X55959420Y-5999301D01*
X56063301Y-5895420D01*
X56144920Y-5773269D01*
X56201140Y-5637542D01*
X56229800Y-5493455D01*
X56229800Y-5346545D01*
X56229799Y-5346540D01*
X56770200Y-5346540D01*
X56770200Y-5493459D01*
X56798858Y-5637534D01*
X56798860Y-5637542D01*
X56800896Y-5642457D01*
X56855078Y-5773266D01*
X56855083Y-5773275D01*
X56936698Y-5895419D01*
X56936701Y-5895423D01*
X57040576Y-5999298D01*
X57040580Y-5999301D01*
X57162724Y-6080916D01*
X57162730Y-6080919D01*
X57162731Y-6080920D01*
X57298458Y-6137140D01*
X57442540Y-6165799D01*
X57442544Y-6165800D01*
X57442545Y-6165800D01*
X57589456Y-6165800D01*
X57589457Y-6165799D01*
X57733542Y-6137140D01*
X57869269Y-6080920D01*
X57991420Y-5999301D01*
X58095301Y-5895420D01*
X58176920Y-5773269D01*
X58233140Y-5637542D01*
X58261800Y-5493455D01*
X58261800Y-5346545D01*
X58233140Y-5202458D01*
X58176920Y-5066731D01*
X58176919Y-5066730D01*
X58176916Y-5066724D01*
X58095301Y-4944580D01*
X58095298Y-4944576D01*
X57991423Y-4840701D01*
X57991419Y-4840698D01*
X57869275Y-4759083D01*
X57869266Y-4759078D01*
X57733544Y-4702861D01*
X57733545Y-4702861D01*
X57733542Y-4702860D01*
X57733538Y-4702859D01*
X57733534Y-4702858D01*
X57589459Y-4674200D01*
X57589455Y-4674200D01*
X57442545Y-4674200D01*
X57442540Y-4674200D01*
X57298465Y-4702858D01*
X57298455Y-4702861D01*
X57162733Y-4759078D01*
X57162724Y-4759083D01*
X57040580Y-4840698D01*
X57040576Y-4840701D01*
X56936701Y-4944576D01*
X56936698Y-4944580D01*
X56855083Y-5066724D01*
X56855078Y-5066733D01*
X56798861Y-5202455D01*
X56798858Y-5202465D01*
X56770200Y-5346540D01*
X56229799Y-5346540D01*
X56201140Y-5202458D01*
X56144920Y-5066731D01*
X56144919Y-5066730D01*
X56144916Y-5066724D01*
X56063301Y-4944580D01*
X56063298Y-4944576D01*
X55959423Y-4840701D01*
X55959419Y-4840698D01*
X55837275Y-4759083D01*
X55837266Y-4759078D01*
X55701544Y-4702861D01*
X55701545Y-4702861D01*
X55701542Y-4702860D01*
X55701538Y-4702859D01*
X55701534Y-4702858D01*
X55557459Y-4674200D01*
X55557455Y-4674200D01*
X55410545Y-4674200D01*
X55410540Y-4674200D01*
X55266465Y-4702858D01*
X55266455Y-4702861D01*
X55130733Y-4759078D01*
X55130724Y-4759083D01*
X55008580Y-4840698D01*
X55008576Y-4840701D01*
X54904701Y-4944576D01*
X54904698Y-4944580D01*
X54823083Y-5066724D01*
X54823078Y-5066733D01*
X54766861Y-5202455D01*
X54766858Y-5202465D01*
X54738200Y-5346540D01*
X46480140Y-5346540D01*
X46425377Y-5226627D01*
X46331128Y-5117857D01*
X46210053Y-5040047D01*
X46210051Y-5040046D01*
X46210049Y-5040045D01*
X46210050Y-5040045D01*
X46071963Y-4999500D01*
X46071961Y-4999500D01*
X45928039Y-4999500D01*
X45928036Y-4999500D01*
X45789949Y-5040045D01*
X45668873Y-5117856D01*
X45574623Y-5226626D01*
X45574622Y-5226628D01*
X45514834Y-5357543D01*
X45494353Y-5500000D01*
X44119330Y-5500000D01*
X44199449Y-5353272D01*
X44233169Y-5291519D01*
X44233169Y-5291517D01*
X44233172Y-5291513D01*
X44328175Y-5036801D01*
X44385961Y-4771160D01*
X44405355Y-4500000D01*
X44385961Y-4228840D01*
X44328175Y-3963199D01*
X44233172Y-3708487D01*
X44233170Y-3708484D01*
X44233169Y-3708480D01*
X44102890Y-3469892D01*
X44102889Y-3469891D01*
X44102887Y-3469887D01*
X43939971Y-3252258D01*
X43939966Y-3252253D01*
X43939961Y-3252247D01*
X43747752Y-3060038D01*
X43747746Y-3060033D01*
X43747742Y-3060029D01*
X43530113Y-2897113D01*
X43530108Y-2897110D01*
X43530107Y-2897109D01*
X43291518Y-2766830D01*
X43291519Y-2766830D01*
X43246397Y-2750000D01*
X49794659Y-2750000D01*
X49813975Y-2946129D01*
X49813976Y-2946132D01*
X49858491Y-3092879D01*
X49871188Y-3134733D01*
X49964086Y-3308532D01*
X49964090Y-3308539D01*
X50089116Y-3460883D01*
X50241460Y-3585909D01*
X50241467Y-3585913D01*
X50415266Y-3678811D01*
X50415269Y-3678811D01*
X50415273Y-3678814D01*
X50603868Y-3736024D01*
X50800000Y-3755341D01*
X50996132Y-3736024D01*
X51184727Y-3678814D01*
X51222317Y-3658722D01*
X51298771Y-3617856D01*
X51358538Y-3585910D01*
X51510883Y-3460883D01*
X51635910Y-3308538D01*
X51714032Y-3162382D01*
X51728811Y-3134733D01*
X51728812Y-3134731D01*
X51728814Y-3134727D01*
X51786024Y-2946132D01*
X51805341Y-2750000D01*
X51786024Y-2553868D01*
X51728814Y-2365273D01*
X51728811Y-2365269D01*
X51728811Y-2365266D01*
X51635913Y-2191467D01*
X51635909Y-2191460D01*
X51522413Y-2053165D01*
X51495100Y-1988855D01*
X51506891Y-1919987D01*
X51554043Y-1868427D01*
X51618266Y-1850500D01*
X52521734Y-1850500D01*
X52588773Y-1870185D01*
X52634528Y-1922989D01*
X52644472Y-1992147D01*
X52617587Y-2053165D01*
X52504090Y-2191460D01*
X52504086Y-2191467D01*
X52411188Y-2365266D01*
X52353975Y-2553870D01*
X52334659Y-2750000D01*
X52353975Y-2946129D01*
X52353976Y-2946132D01*
X52398491Y-3092879D01*
X52411188Y-3134733D01*
X52504086Y-3308532D01*
X52504090Y-3308539D01*
X52629116Y-3460883D01*
X52781460Y-3585909D01*
X52781467Y-3585913D01*
X52955266Y-3678811D01*
X52955269Y-3678811D01*
X52955273Y-3678814D01*
X53143868Y-3736024D01*
X53340000Y-3755341D01*
X53536132Y-3736024D01*
X53724727Y-3678814D01*
X53762317Y-3658722D01*
X53838771Y-3617856D01*
X53898538Y-3585910D01*
X54050883Y-3460883D01*
X54175910Y-3308538D01*
X54254032Y-3162382D01*
X54268812Y-3134731D01*
X54268812Y-3134730D01*
X54268814Y-3134727D01*
X54281839Y-3091786D01*
X54320137Y-3033349D01*
X54383949Y-3004893D01*
X54453016Y-3015453D01*
X54505410Y-3061677D01*
X54524500Y-3127783D01*
X54524500Y-3482265D01*
X54504815Y-3549304D01*
X54467540Y-3586579D01*
X54445737Y-3600592D01*
X54418873Y-3617856D01*
X54324623Y-3726626D01*
X54324622Y-3726628D01*
X54264834Y-3857543D01*
X54244353Y-4000000D01*
X54264834Y-4142456D01*
X54304285Y-4228839D01*
X54324623Y-4273373D01*
X54418872Y-4382143D01*
X54539947Y-4459953D01*
X54539950Y-4459954D01*
X54539949Y-4459954D01*
X54647107Y-4491417D01*
X54676336Y-4500000D01*
X54678036Y-4500499D01*
X54678038Y-4500500D01*
X54678039Y-4500500D01*
X54821962Y-4500500D01*
X54821962Y-4500499D01*
X54960053Y-4459953D01*
X55081128Y-4382143D01*
X55175377Y-4273373D01*
X55235165Y-4142457D01*
X55255647Y-4000000D01*
X55235165Y-3857543D01*
X55209546Y-3801446D01*
X55195679Y-3771081D01*
X55185735Y-3701922D01*
X55214760Y-3638366D01*
X55273538Y-3600592D01*
X55343408Y-3600592D01*
X55366922Y-3610209D01*
X55495273Y-3678814D01*
X55683868Y-3736024D01*
X55880000Y-3755341D01*
X56076132Y-3736024D01*
X56264727Y-3678814D01*
X56302317Y-3658722D01*
X56378771Y-3617856D01*
X56438538Y-3585910D01*
X56590883Y-3460883D01*
X56715910Y-3308538D01*
X56794032Y-3162382D01*
X56808811Y-3134733D01*
X56808812Y-3134731D01*
X56808814Y-3134727D01*
X56866024Y-2946132D01*
X56885341Y-2750000D01*
X57414659Y-2750000D01*
X57433975Y-2946129D01*
X57433976Y-2946132D01*
X57478491Y-3092879D01*
X57491188Y-3134733D01*
X57584086Y-3308532D01*
X57584090Y-3308539D01*
X57709116Y-3460883D01*
X57861460Y-3585909D01*
X57861467Y-3585913D01*
X58035266Y-3678811D01*
X58035269Y-3678811D01*
X58035273Y-3678814D01*
X58223868Y-3736024D01*
X58420000Y-3755341D01*
X58616132Y-3736024D01*
X58804727Y-3678814D01*
X58842317Y-3658722D01*
X58918771Y-3617856D01*
X58978538Y-3585910D01*
X59130883Y-3460883D01*
X59255910Y-3308538D01*
X59334032Y-3162382D01*
X59348812Y-3134731D01*
X59348812Y-3134730D01*
X59348814Y-3134727D01*
X59390900Y-2995988D01*
X59429197Y-2937551D01*
X59493009Y-2909095D01*
X59562076Y-2919655D01*
X59614470Y-2965879D01*
X59629335Y-2999891D01*
X59686567Y-3213486D01*
X59686570Y-3213492D01*
X59786399Y-3427578D01*
X59921894Y-3621082D01*
X60088917Y-3788105D01*
X60282421Y-3923600D01*
X60496507Y-4023429D01*
X60496516Y-4023433D01*
X60724678Y-4084568D01*
X60835000Y-4094219D01*
X60835000Y-3234144D01*
X60894174Y-3250000D01*
X61025826Y-3250000D01*
X61085000Y-3234144D01*
X61085000Y-4094219D01*
X61195320Y-4084568D01*
X61195323Y-4084568D01*
X61423483Y-4023433D01*
X61423492Y-4023429D01*
X61637578Y-3923600D01*
X61831082Y-3788105D01*
X61998105Y-3621082D01*
X62133600Y-3427578D01*
X62233429Y-3213492D01*
X62233433Y-3213483D01*
X62255725Y-3130289D01*
X62292090Y-3070628D01*
X62354937Y-3040099D01*
X62424312Y-3048394D01*
X62478190Y-3092879D01*
X62499465Y-3159431D01*
X62499500Y-3162382D01*
X62499500Y-3614820D01*
X62499500Y-3614822D01*
X62499499Y-3614822D01*
X62508231Y-3658717D01*
X62508234Y-3658724D01*
X62541495Y-3708503D01*
X62541496Y-3708504D01*
X62591278Y-3741767D01*
X62591281Y-3741767D01*
X62591282Y-3741768D01*
X62635177Y-3750500D01*
X62635180Y-3750500D01*
X64364822Y-3750500D01*
X64408717Y-3741768D01*
X64408717Y-3741767D01*
X64408722Y-3741767D01*
X64458504Y-3708504D01*
X64491767Y-3658722D01*
X64495816Y-3638366D01*
X64500500Y-3614822D01*
X64500500Y-3499994D01*
X79094754Y-3499994D01*
X79094754Y-3500005D01*
X79113718Y-3801446D01*
X79113719Y-3801453D01*
X79170320Y-4098164D01*
X79263659Y-4385431D01*
X79263661Y-4385436D01*
X79392265Y-4658732D01*
X79392268Y-4658738D01*
X79554111Y-4913763D01*
X79554114Y-4913767D01*
X79554115Y-4913768D01*
X79658580Y-5040045D01*
X79746652Y-5146505D01*
X79966836Y-5353272D01*
X79966846Y-5353280D01*
X80211193Y-5530808D01*
X80211198Y-5530810D01*
X80211205Y-5530816D01*
X80475896Y-5676332D01*
X80475901Y-5676334D01*
X80475903Y-5676335D01*
X80475904Y-5676336D01*
X80756734Y-5787524D01*
X80756737Y-5787525D01*
X80854259Y-5812564D01*
X81049302Y-5862642D01*
X81196039Y-5881179D01*
X81348963Y-5900499D01*
X81348969Y-5900499D01*
X81348973Y-5900500D01*
X81348975Y-5900500D01*
X81651025Y-5900500D01*
X81651027Y-5900500D01*
X81651032Y-5900499D01*
X81651036Y-5900499D01*
X81730591Y-5890448D01*
X81950698Y-5862642D01*
X82243262Y-5787525D01*
X82279006Y-5773373D01*
X82524095Y-5676336D01*
X82524096Y-5676335D01*
X82524094Y-5676335D01*
X82524104Y-5676332D01*
X82788795Y-5530816D01*
X83033162Y-5353274D01*
X83253349Y-5146504D01*
X83445885Y-4913768D01*
X83607733Y-4658736D01*
X83736341Y-4385430D01*
X83829681Y-4098160D01*
X83886280Y-3801457D01*
X83888934Y-3759272D01*
X83905246Y-3500005D01*
X83905246Y-3499994D01*
X83886281Y-3198553D01*
X83886280Y-3198546D01*
X83886280Y-3198543D01*
X83829681Y-2901840D01*
X83736341Y-2614570D01*
X83607733Y-2341264D01*
X83445885Y-2086232D01*
X83253349Y-1853496D01*
X83252634Y-1852825D01*
X83033163Y-1646727D01*
X83033153Y-1646719D01*
X82788806Y-1469191D01*
X82788799Y-1469186D01*
X82788795Y-1469184D01*
X82524104Y-1323668D01*
X82524101Y-1323666D01*
X82524096Y-1323664D01*
X82524095Y-1323663D01*
X82243265Y-1212475D01*
X82243262Y-1212474D01*
X81950695Y-1137357D01*
X81651036Y-1099500D01*
X81651027Y-1099500D01*
X81348973Y-1099500D01*
X81348963Y-1099500D01*
X81049304Y-1137357D01*
X80756737Y-1212474D01*
X80756734Y-1212475D01*
X80475904Y-1323663D01*
X80475903Y-1323664D01*
X80211205Y-1469184D01*
X80211193Y-1469191D01*
X79966846Y-1646719D01*
X79966836Y-1646727D01*
X79746652Y-1853494D01*
X79554111Y-2086236D01*
X79392268Y-2341261D01*
X79392265Y-2341267D01*
X79263661Y-2614563D01*
X79263659Y-2614568D01*
X79170320Y-2901835D01*
X79113719Y-3198546D01*
X79113718Y-3198553D01*
X79094754Y-3499994D01*
X64500500Y-3499994D01*
X64500500Y-1885177D01*
X64491768Y-1841282D01*
X64491767Y-1841281D01*
X64491767Y-1841278D01*
X64458504Y-1791496D01*
X64458503Y-1791495D01*
X64408724Y-1758234D01*
X64408717Y-1758231D01*
X64364822Y-1749500D01*
X64364820Y-1749500D01*
X62635180Y-1749500D01*
X62635178Y-1749500D01*
X62591282Y-1758231D01*
X62591275Y-1758234D01*
X62541496Y-1791495D01*
X62541495Y-1791496D01*
X62508234Y-1841275D01*
X62508231Y-1841282D01*
X62499500Y-1885177D01*
X62499500Y-2337617D01*
X62479815Y-2404656D01*
X62427011Y-2450411D01*
X62357853Y-2460355D01*
X62294297Y-2431330D01*
X62256523Y-2372552D01*
X62255725Y-2369711D01*
X62233432Y-2286513D01*
X62233429Y-2286507D01*
X62133600Y-2072422D01*
X62133599Y-2072420D01*
X61998113Y-1878926D01*
X61998108Y-1878920D01*
X61831082Y-1711894D01*
X61637578Y-1576399D01*
X61423492Y-1476570D01*
X61423483Y-1476566D01*
X61195326Y-1415432D01*
X61195316Y-1415430D01*
X61085000Y-1405778D01*
X61085000Y-2265855D01*
X61025826Y-2250000D01*
X60894174Y-2250000D01*
X60835000Y-2265855D01*
X60835000Y-1405778D01*
X60724683Y-1415430D01*
X60724673Y-1415432D01*
X60496516Y-1476566D01*
X60496507Y-1476570D01*
X60282422Y-1576399D01*
X60282420Y-1576400D01*
X60088926Y-1711886D01*
X60088920Y-1711891D01*
X59921891Y-1878920D01*
X59921886Y-1878926D01*
X59786400Y-2072420D01*
X59786399Y-2072422D01*
X59686570Y-2286507D01*
X59686567Y-2286513D01*
X59629335Y-2500108D01*
X59592970Y-2559768D01*
X59530123Y-2590297D01*
X59460747Y-2582002D01*
X59406869Y-2537517D01*
X59390900Y-2504013D01*
X59348814Y-2365273D01*
X59348811Y-2365269D01*
X59348811Y-2365266D01*
X59255913Y-2191467D01*
X59255909Y-2191460D01*
X59130883Y-2039116D01*
X58978539Y-1914090D01*
X58978532Y-1914086D01*
X58804733Y-1821188D01*
X58804727Y-1821186D01*
X58616132Y-1763976D01*
X58616129Y-1763975D01*
X58420000Y-1744659D01*
X58223870Y-1763975D01*
X58035266Y-1821188D01*
X57861467Y-1914086D01*
X57861460Y-1914090D01*
X57709116Y-2039116D01*
X57584090Y-2191460D01*
X57584086Y-2191467D01*
X57491188Y-2365266D01*
X57433975Y-2553870D01*
X57414659Y-2750000D01*
X56885341Y-2750000D01*
X56866024Y-2553868D01*
X56808814Y-2365273D01*
X56808811Y-2365269D01*
X56808811Y-2365266D01*
X56715913Y-2191467D01*
X56715909Y-2191460D01*
X56590883Y-2039116D01*
X56438539Y-1914090D01*
X56438532Y-1914086D01*
X56264733Y-1821188D01*
X56264727Y-1821186D01*
X56076132Y-1763976D01*
X56076129Y-1763975D01*
X55880000Y-1744659D01*
X55683870Y-1763975D01*
X55495266Y-1821188D01*
X55321467Y-1914086D01*
X55321460Y-1914090D01*
X55169116Y-2039116D01*
X55044090Y-2191460D01*
X55044086Y-2191467D01*
X55024076Y-2228904D01*
X54975114Y-2278748D01*
X54906976Y-2294209D01*
X54841297Y-2270377D01*
X54827037Y-2258132D01*
X54083610Y-1514705D01*
X54066170Y-1497264D01*
X54002736Y-1433830D01*
X54002735Y-1433829D01*
X53978457Y-1423772D01*
X53978457Y-1423771D01*
X53919858Y-1399500D01*
X53919856Y-1399499D01*
X53919855Y-1399499D01*
X53830145Y-1399499D01*
X53815711Y-1399499D01*
X53815703Y-1399500D01*
X51169854Y-1399500D01*
X51080145Y-1399500D01*
X51080143Y-1399500D01*
X51080141Y-1399501D01*
X50997266Y-1433827D01*
X50705401Y-1725692D01*
X50644078Y-1759177D01*
X50629876Y-1761414D01*
X50603871Y-1763975D01*
X50415266Y-1821188D01*
X50241467Y-1914086D01*
X50241460Y-1914090D01*
X50089116Y-2039116D01*
X49964090Y-2191460D01*
X49964086Y-2191467D01*
X49871188Y-2365266D01*
X49813975Y-2553870D01*
X49794659Y-2750000D01*
X43246397Y-2750000D01*
X43241920Y-2748330D01*
X43036801Y-2671825D01*
X43036794Y-2671823D01*
X43036793Y-2671823D01*
X42771167Y-2614040D01*
X42771160Y-2614039D01*
X42500001Y-2594645D01*
X42499999Y-2594645D01*
X42228839Y-2614039D01*
X42228832Y-2614040D01*
X41963206Y-2671823D01*
X41963202Y-2671824D01*
X41963199Y-2671825D01*
X41835843Y-2719326D01*
X41708480Y-2766830D01*
X41469892Y-2897109D01*
X41469891Y-2897110D01*
X41252259Y-3060028D01*
X41252247Y-3060038D01*
X41060038Y-3252247D01*
X41060028Y-3252259D01*
X40897110Y-3469891D01*
X40897109Y-3469892D01*
X40766830Y-3708480D01*
X40737132Y-3788105D01*
X40671825Y-3963199D01*
X40671824Y-3963202D01*
X40671823Y-3963206D01*
X40614040Y-4228832D01*
X40614039Y-4228839D01*
X40594645Y-4499998D01*
X16182429Y-4499998D01*
X16236341Y-4385430D01*
X16329681Y-4098160D01*
X16386280Y-3801457D01*
X16388934Y-3759272D01*
X16405246Y-3500005D01*
X16405246Y-3499994D01*
X16386281Y-3198553D01*
X16386280Y-3198546D01*
X16386280Y-3198543D01*
X16329681Y-2901840D01*
X16236341Y-2614570D01*
X16107733Y-2341264D01*
X15945885Y-2086232D01*
X15753349Y-1853496D01*
X15752634Y-1852825D01*
X15533163Y-1646727D01*
X15533153Y-1646719D01*
X15288806Y-1469191D01*
X15288799Y-1469186D01*
X15288795Y-1469184D01*
X15024104Y-1323668D01*
X15024101Y-1323666D01*
X15024096Y-1323664D01*
X15024095Y-1323663D01*
X14743265Y-1212475D01*
X14743262Y-1212474D01*
X14450695Y-1137357D01*
X14151036Y-1099500D01*
X14151027Y-1099500D01*
X13848973Y-1099500D01*
X13848963Y-1099500D01*
X13549304Y-1137357D01*
X13256737Y-1212474D01*
X13256734Y-1212475D01*
X12975904Y-1323663D01*
X12975903Y-1323664D01*
X12711205Y-1469184D01*
X12711193Y-1469191D01*
X12466846Y-1646719D01*
X12466836Y-1646727D01*
X12246652Y-1853494D01*
X12054111Y-2086236D01*
X11892268Y-2341261D01*
X11892265Y-2341267D01*
X11763661Y-2614563D01*
X11763659Y-2614568D01*
X11670320Y-2901835D01*
X11613719Y-3198546D01*
X11613718Y-3198553D01*
X11594754Y-3499994D01*
X0Y-3499994D01*
X0Y0D01*
X85000000Y0D01*
X85000000Y-40000000D01*
G37*
%TD.AperFunction*%
%TD*%
%TA.AperFunction,Conductor*%
%TO.N,GND*%
G36*
X86004126Y1599035D02*
G01*
X86017425Y1597537D01*
X86125126Y1585402D01*
X86141265Y1581718D01*
X86252240Y1542886D01*
X86267169Y1535697D01*
X86366721Y1473145D01*
X86379677Y1462813D01*
X86462812Y1379678D01*
X86473144Y1366722D01*
X86535696Y1267170D01*
X86542885Y1252241D01*
X86561386Y1199367D01*
X86581715Y1141272D01*
X86585402Y1125121D01*
X86599035Y1004127D01*
X86599500Y995841D01*
X86599500Y-40995840D01*
X86599035Y-41004126D01*
X86585402Y-41125120D01*
X86581714Y-41141275D01*
X86542885Y-41252240D01*
X86535696Y-41267169D01*
X86473144Y-41366721D01*
X86462812Y-41379677D01*
X86379677Y-41462812D01*
X86366721Y-41473144D01*
X86267169Y-41535696D01*
X86252240Y-41542885D01*
X86162670Y-41574227D01*
X86141273Y-41581714D01*
X86125120Y-41585402D01*
X86004127Y-41599035D01*
X85995841Y-41599500D01*
X-995841Y-41599500D01*
X-1004127Y-41599035D01*
X-1125121Y-41585402D01*
X-1141272Y-41581715D01*
X-1199367Y-41561386D01*
X-1252241Y-41542885D01*
X-1267170Y-41535696D01*
X-1366722Y-41473144D01*
X-1379678Y-41462812D01*
X-1462813Y-41379677D01*
X-1473145Y-41366721D01*
X-1535697Y-41267169D01*
X-1542886Y-41252240D01*
X-1581718Y-41141265D01*
X-1585402Y-41125126D01*
X-1599035Y-41004125D01*
X-1599500Y-40995840D01*
X-1599500Y-40000000D01*
X0Y-40000000D01*
X85000000Y-40000000D01*
X85000000Y0D01*
X0Y0D01*
X0Y-40000000D01*
X-1599500Y-40000000D01*
X-1599500Y995841D01*
X-1599035Y1004126D01*
X-1593559Y1052727D01*
X-1585402Y1125129D01*
X-1581718Y1141264D01*
X-1542885Y1252245D01*
X-1535697Y1267170D01*
X-1497506Y1327951D01*
X-1473141Y1366728D01*
X-1462817Y1379674D01*
X-1379674Y1462817D01*
X-1366728Y1473141D01*
X-1267169Y1535698D01*
X-1252245Y1542885D01*
X-1141264Y1581718D01*
X-1125129Y1585402D01*
X-1015982Y1597700D01*
X-1004126Y1599035D01*
X-995841Y1599500D01*
X-942417Y1599500D01*
X85942417Y1599500D01*
X85995841Y1599500D01*
X86004126Y1599035D01*
G37*
%TD.AperFunction*%
%TD*%
M02*
