M48
; DRILL file {KiCad 8.0.4} date 2024-11-25T16:05:12+1300
; FORMAT={-:-/ absolute / inch / decimal}
; #@! TF.CreationDate,2024-11-25T16:05:12+13:00
; #@! TF.GenerationSoftware,Kicad,Pcbnew,8.0.4
; #@! TF.FileFunction,Plated,1,2,PTH
FMAT,2
INCH
; #@! TA.AperFunction,Plated,PTH,ComponentDrill
T1C0.0079
; #@! TA.AperFunction,Plated,PTH,ViaDrill
T2C0.0118
; #@! TA.AperFunction,Plated,PTH,ViaDrill
T3C0.0157
; #@! TA.AperFunction,Plated,PTH,ComponentDrill
T4C0.0394
; #@! TA.AperFunction,Plated,PTH,ComponentDrill
T5C0.1063
%
G90
G05
T1
X1.5433Y-0.7835
X1.5433Y-0.8386
X1.5709Y-0.7559
X1.5709Y-0.811
X1.5709Y-0.8661
X1.5984Y-0.7835
X1.5984Y-0.8386
X1.626Y-0.7559
X1.626Y-0.811
X1.626Y-0.8661
X1.6535Y-0.7835
X1.6535Y-0.8386
T2
X0.8661Y-0.6102
X0.8661Y-0.7087
X0.8858Y-0.4331
X0.8858Y-1.122
X0.8858Y-1.2992
X0.8858Y-1.4764
X1.25Y-0.7972
X1.378Y-0.8071
X1.811Y-0.3248
X1.8504Y-0.3248
X1.8898Y-0.2461
X1.8898Y-0.2854
X1.9094Y-0.4134
X1.939Y-0.3642
X1.9783Y-0.3642
X2.126Y-1.063
X2.2047Y-0.2559
X2.2343Y-0.2362
X2.2638Y-0.8898
T3
X0.0394Y-0.0787
X0.0394Y-0.2756
X0.0394Y-0.4724
X0.0394Y-0.6693
X0.0394Y-0.8661
X0.0394Y-1.063
X0.0394Y-1.2598
X0.0394Y-1.4567
X0.0394Y-1.6535
X0.1772Y-0.0394
X0.1772Y-1.6929
X0.2756Y-1.2205
X0.2756Y-1.2598
X0.2756Y-1.2992
X0.2756Y-1.378
X0.2756Y-1.4173
X0.2756Y-1.4567
X0.374Y-0.0394
X0.374Y-1.6929
X0.3937Y-0.1772
X0.4331Y-0.1772
X0.4724Y-0.1772
X0.4724Y-0.6693
X0.4724Y-0.7677
X0.5118Y-0.1772
X0.5315Y-0.4724
X0.5315Y-1.2894
X0.5709Y-0.0394
X0.5709Y-0.374
X0.5709Y-0.6693
X0.5709Y-0.7677
X0.5709Y-1.1614
X0.5709Y-1.3583
X0.5709Y-1.6929
X0.6693Y-0.374
X0.6693Y-0.7677
X0.6693Y-0.9646
X0.6693Y-1.1614
X0.6693Y-1.3583
X0.7677Y-0.0394
X0.7677Y-0.1772
X0.7677Y-0.2756
X0.7677Y-0.374
X0.7677Y-0.5709
X0.7677Y-0.6693
X0.7677Y-0.9646
X0.7677Y-1.1614
X0.7677Y-1.3583
X0.7677Y-1.4567
X0.7677Y-1.6929
X0.8661Y-0.5709
X0.8661Y-0.6693
X0.876Y-0.2559
X0.876Y-0.2953
X0.876Y-0.3346
X0.9646Y-0.0394
X0.9646Y-1.6929
X1.0433Y-0.7382
X1.0433Y-0.8268
X1.063Y-0.1772
X1.1614Y-0.0394
X1.1614Y-0.1772
X1.1614Y-0.2756
X1.1614Y-1.6929
X1.1909Y-0.4331
X1.2205Y-0.502
X1.2402Y-0.3543
X1.2402Y-0.4331
X1.2402Y-0.4724
X1.2598Y-0.1772
X1.2598Y-0.2756
X1.2598Y-1.2598
X1.2598Y-1.3583
X1.2598Y-1.4567
X1.3583Y-0.0394
X1.3583Y-1.3583
X1.3583Y-1.4567
X1.3583Y-1.6929
X1.378Y-1.1417
X1.378Y-1.2008
X1.378Y-1.2598
X1.378Y-1.2992
X1.437Y-1.1417
X1.437Y-1.2992
X1.4567Y-0.6693
X1.4567Y-0.7677
X1.4567Y-0.8661
X1.4567Y-0.9646
X1.4567Y-1.4567
X1.5551Y-0.0394
X1.5551Y-0.6693
X1.5551Y-0.9646
X1.5551Y-1.1614
X1.5551Y-1.3583
X1.5551Y-1.4567
X1.5551Y-1.6929
X1.6535Y-0.4331
X1.6535Y-0.5709
X1.6535Y-0.6693
X1.6535Y-0.9646
X1.6535Y-1.1614
X1.6535Y-1.3583
X1.6535Y-1.4567
X1.752Y-0.0394
X1.752Y-0.4331
X1.752Y-0.5709
X1.752Y-0.6693
X1.752Y-0.7677
X1.752Y-0.8661
X1.752Y-0.9646
X1.752Y-1.1614
X1.752Y-1.3583
X1.752Y-1.4567
X1.752Y-1.6929
X1.8504Y-0.4331
X1.8504Y-0.5709
X1.8504Y-0.6693
X1.8504Y-0.7677
X1.8504Y-0.8661
X1.8504Y-0.9646
X1.8504Y-1.1614
X1.8504Y-1.3583
X1.8504Y-1.4567
X1.9488Y-0.0394
X1.9488Y-1.4567
X1.9488Y-1.6929
X1.9882Y-0.4331
X2.0177Y-0.3642
X2.0472Y-0.4331
X2.0472Y-1.4567
X2.0669Y-0.5217
X2.0669Y-0.5807
X2.0669Y-0.6299
X2.0768Y-0.8071
X2.1063Y-0.3543
X2.1358Y-0.8071
X2.1457Y-0.0394
X2.1457Y-1.6929
X2.2638Y-0.9646
X2.2638Y-1.0433
X2.2835Y-0.5709
X2.2835Y-0.6299
X2.2835Y-0.7087
X2.2835Y-0.7874
X2.3425Y-0.0394
X2.3425Y-1.6929
X2.3622Y-0.6299
X2.4016Y-0.2854
X2.4016Y-1.1811
X2.4016Y-1.2598
X2.4016Y-1.3386
X2.4409Y-0.6299
X2.4569Y-0.9904
X2.4749Y-0.8027
X2.5197Y-0.2756
X2.5197Y-0.374
X2.5197Y-0.4724
X2.5197Y-0.6299
X2.5394Y-0.0394
X2.5394Y-0.7677
X2.5394Y-1.6929
X2.6378Y-0.1772
X2.6378Y-0.2756
X2.6378Y-0.374
X2.6378Y-0.4724
X2.6378Y-0.5709
X2.6378Y-0.6693
X2.6378Y-0.7677
X2.6772Y-1.2894
X2.7264Y-1.2402
X2.7264Y-1.2894
X2.7264Y-1.3386
X2.7362Y-0.0394
X2.7362Y-0.2756
X2.7362Y-0.374
X2.7362Y-0.4724
X2.7362Y-0.5709
X2.7362Y-0.6693
X2.7362Y-1.6929
X2.7756Y-1.2894
X2.8248Y-0.8957
X2.8248Y-0.935
X2.8346Y-0.2756
X2.8346Y-0.374
X2.8346Y-0.4724
X2.8346Y-0.5709
X2.9134Y-0.6201
X2.9134Y-0.7185
X2.9134Y-0.8169
X2.9331Y-0.0394
X2.9331Y-0.2756
X2.9331Y-0.374
X2.9331Y-0.4724
X2.9331Y-1.6929
X3.0315Y-0.2756
X3.0315Y-0.374
X3.0315Y-0.4724
X3.0315Y-0.5709
X3.0315Y-0.6693
X3.0315Y-0.7677
X3.0315Y-0.8661
X3.0315Y-0.9646
X3.0315Y-1.063
X3.1299Y-0.0394
X3.1299Y-0.1772
X3.1299Y-0.2756
X3.1299Y-0.374
X3.1299Y-0.4724
X3.1299Y-0.5709
X3.1299Y-0.6693
X3.1299Y-0.7677
X3.1299Y-0.8661
X3.1299Y-0.9646
X3.1299Y-1.063
X3.1299Y-1.1614
X3.1299Y-1.4567
X3.1299Y-1.5551
X3.1299Y-1.6929
X3.2283Y-0.374
X3.2283Y-0.4724
X3.2283Y-1.2598
X3.2283Y-1.3583
X3.3268Y-0.0394
X3.3268Y-0.374
X3.3268Y-0.4724
X3.3268Y-1.2598
X3.3268Y-1.3583
X3.3268Y-1.6929
X3.4646Y-0.0787
X3.4646Y-0.2756
X3.4646Y-0.4724
X3.4646Y-0.6693
X3.4646Y-0.8661
X3.4646Y-1.063
X3.4646Y-1.2598
X3.4646Y-1.4567
X3.4646Y-1.6535
T4
X0.6299Y-0.6102
X2.0787Y-0.187
X2.1787Y-0.187
X2.2787Y-0.187
X2.3787Y-0.187
X2.4787Y-0.187
X2.5787Y-0.187
X2.7362Y-0.7677
T5
X0.6299Y-0.2165
X0.6299Y-1.5157
X3.2874Y-0.2165
X3.2874Y-1.5157
M30
