%TF.GenerationSoftware,KiCad,Pcbnew,8.0.4*%
%TF.CreationDate,2024-09-04T11:51:27+12:00*%
%TF.ProjectId,CDRC,43445243-2e6b-4696-9361-645f70636258,A*%
%TF.SameCoordinates,Original*%
%TF.FileFunction,Legend,Top*%
%TF.FilePolarity,Positive*%
%FSLAX46Y46*%
G04 Gerber Fmt 4.6, Leading zero omitted, Abs format (unit mm)*
G04 Created by KiCad (PCBNEW 8.0.4) date 2024-09-04 11:51:27*
%MOMM*%
%LPD*%
G01*
G04 APERTURE LIST*
G04 Aperture macros list*
%AMRoundRect*
0 Rectangle with rounded corners*
0 $1 Rounding radius*
0 $2 $3 $4 $5 $6 $7 $8 $9 X,Y pos of 4 corners*
0 Add a 4 corners polygon primitive as box body*
4,1,4,$2,$3,$4,$5,$6,$7,$8,$9,$2,$3,0*
0 Add four circle primitives for the rounded corners*
1,1,$1+$1,$2,$3*
1,1,$1+$1,$4,$5*
1,1,$1+$1,$6,$7*
1,1,$1+$1,$8,$9*
0 Add four rect primitives between the rounded corners*
20,1,$1+$1,$2,$3,$4,$5,0*
20,1,$1+$1,$4,$5,$6,$7,0*
20,1,$1+$1,$6,$7,$8,$9,0*
20,1,$1+$1,$8,$9,$2,$3,0*%
%AMFreePoly0*
4,1,19,0.550000,-0.750000,0.000000,-0.750000,0.000000,-0.744911,-0.071157,-0.744911,-0.207708,-0.704816,-0.327430,-0.627875,-0.420627,-0.520320,-0.479746,-0.390866,-0.500000,-0.250000,-0.500000,0.250000,-0.479746,0.390866,-0.420627,0.520320,-0.327430,0.627875,-0.207708,0.704816,-0.071157,0.744911,0.000000,0.744911,0.000000,0.750000,0.550000,0.750000,0.550000,-0.750000,0.550000,-0.750000,
$1*%
%AMFreePoly1*
4,1,19,0.000000,0.744911,0.071157,0.744911,0.207708,0.704816,0.327430,0.627875,0.420627,0.520320,0.479746,0.390866,0.500000,0.250000,0.500000,-0.250000,0.479746,-0.390866,0.420627,-0.520320,0.327430,-0.627875,0.207708,-0.704816,0.071157,-0.744911,0.000000,-0.744911,0.000000,-0.750000,-0.550000,-0.750000,-0.550000,0.750000,0.000000,0.750000,0.000000,0.744911,0.000000,0.744911,
$1*%
G04 Aperture macros list end*
%ADD10C,0.100000*%
%ADD11C,0.120000*%
%ADD12C,0.150000*%
%ADD13RoundRect,0.237500X-0.237500X0.300000X-0.237500X-0.300000X0.237500X-0.300000X0.237500X0.300000X0*%
%ADD14C,2.000000*%
%ADD15C,1.500000*%
%ADD16RoundRect,0.237500X0.300000X0.237500X-0.300000X0.237500X-0.300000X-0.237500X0.300000X-0.237500X0*%
%ADD17RoundRect,0.237500X0.237500X-0.250000X0.237500X0.250000X-0.237500X0.250000X-0.237500X-0.250000X0*%
%ADD18RoundRect,0.237500X-0.237500X0.250000X-0.237500X-0.250000X0.237500X-0.250000X0.237500X0.250000X0*%
%ADD19RoundRect,0.250000X0.400000X0.625000X-0.400000X0.625000X-0.400000X-0.625000X0.400000X-0.625000X0*%
%ADD20RoundRect,0.250000X-0.337500X-0.475000X0.337500X-0.475000X0.337500X0.475000X-0.337500X0.475000X0*%
%ADD21RoundRect,0.237500X0.250000X0.237500X-0.250000X0.237500X-0.250000X-0.237500X0.250000X-0.237500X0*%
%ADD22RoundRect,0.237500X-0.250000X-0.237500X0.250000X-0.237500X0.250000X0.237500X-0.250000X0.237500X0*%
%ADD23RoundRect,0.237500X0.237500X-0.300000X0.237500X0.300000X-0.237500X0.300000X-0.237500X-0.300000X0*%
%ADD24R,1.500000X0.900000*%
%ADD25R,0.900000X1.500000*%
%ADD26C,0.600000*%
%ADD27R,3.800000X3.800000*%
%ADD28RoundRect,0.150000X0.150000X-0.587500X0.150000X0.587500X-0.150000X0.587500X-0.150000X-0.587500X0*%
%ADD29C,2.700000*%
%ADD30RoundRect,0.250000X0.625000X-0.350000X0.625000X0.350000X-0.625000X0.350000X-0.625000X-0.350000X0*%
%ADD31O,1.750000X1.200000*%
%ADD32R,0.250000X1.000000*%
%ADD33R,0.450000X1.000000*%
%ADD34RoundRect,0.150000X-0.825000X-0.150000X0.825000X-0.150000X0.825000X0.150000X-0.825000X0.150000X0*%
%ADD35FreePoly0,270.000000*%
%ADD36R,1.500000X1.000000*%
%ADD37FreePoly1,270.000000*%
%ADD38R,1.700000X1.700000*%
%ADD39O,1.700000X1.700000*%
%ADD40RoundRect,0.237500X0.287500X0.237500X-0.287500X0.237500X-0.287500X-0.237500X0.287500X-0.237500X0*%
%ADD41RoundRect,0.250001X-0.624999X0.462499X-0.624999X-0.462499X0.624999X-0.462499X0.624999X0.462499X0*%
%ADD42RoundRect,0.150000X0.512500X0.150000X-0.512500X0.150000X-0.512500X-0.150000X0.512500X-0.150000X0*%
%ADD43RoundRect,0.250000X-0.650000X1.500000X-0.650000X-1.500000X0.650000X-1.500000X0.650000X1.500000X0*%
%ADD44R,1.900000X3.700000*%
%ADD45RoundRect,0.250000X0.475000X-0.337500X0.475000X0.337500X-0.475000X0.337500X-0.475000X-0.337500X0*%
%ADD46RoundRect,0.237500X-0.300000X-0.237500X0.300000X-0.237500X0.300000X0.237500X-0.300000X0.237500X0*%
%ADD47RoundRect,0.150000X-0.587500X-0.150000X0.587500X-0.150000X0.587500X0.150000X-0.587500X0.150000X0*%
%ADD48C,2.374900*%
%ADD49C,0.990600*%
%ADD50C,0.787400*%
%ADD51RoundRect,0.250000X-0.350000X-0.625000X0.350000X-0.625000X0.350000X0.625000X-0.350000X0.625000X0*%
%ADD52O,1.200000X1.750000*%
%ADD53RoundRect,0.250000X0.412500X0.650000X-0.412500X0.650000X-0.412500X-0.650000X0.412500X-0.650000X0*%
%ADD54RoundRect,0.250000X0.350000X0.625000X-0.350000X0.625000X-0.350000X-0.625000X0.350000X-0.625000X0*%
G04 APERTURE END LIST*
D10*
X40750000Y-3250000D02*
X40750000Y-1750000D01*
X42750000Y-3750000D02*
X42500000Y-3500000D01*
X41000000Y-3500000D02*
X40750000Y-3250000D01*
X40750000Y-1750000D02*
X41000000Y-1500000D01*
X42750000Y-9250000D02*
X42750000Y-3750000D01*
X42500000Y-3500000D02*
X41000000Y-3500000D01*
X43000000Y-9500000D02*
X42750000Y-9250000D01*
X51250000Y-1750000D02*
X51250000Y-9250000D01*
X41000000Y-1500000D02*
X43500000Y-1500000D01*
X43500000Y-1500000D02*
X51000000Y-1500000D01*
X51250000Y-9250000D02*
X51000000Y-9500000D01*
X51000000Y-1500000D02*
X51250000Y-1750000D01*
X51000000Y-9500000D02*
X43000000Y-9500000D01*
X1303884Y-6848609D02*
X1637217Y-6848609D01*
X1780074Y-7372419D02*
X1303884Y-7372419D01*
X1303884Y-7372419D02*
X1303884Y-6372419D01*
X1303884Y-6372419D02*
X1780074Y-6372419D01*
X2208646Y-7372419D02*
X2208646Y-6372419D01*
X2208646Y-6372419D02*
X2780074Y-7372419D01*
X2780074Y-7372419D02*
X2780074Y-6372419D01*
X3827693Y-7277180D02*
X3780074Y-7324800D01*
X3780074Y-7324800D02*
X3637217Y-7372419D01*
X3637217Y-7372419D02*
X3541979Y-7372419D01*
X3541979Y-7372419D02*
X3399122Y-7324800D01*
X3399122Y-7324800D02*
X3303884Y-7229561D01*
X3303884Y-7229561D02*
X3256265Y-7134323D01*
X3256265Y-7134323D02*
X3208646Y-6943847D01*
X3208646Y-6943847D02*
X3208646Y-6800990D01*
X3208646Y-6800990D02*
X3256265Y-6610514D01*
X3256265Y-6610514D02*
X3303884Y-6515276D01*
X3303884Y-6515276D02*
X3399122Y-6420038D01*
X3399122Y-6420038D02*
X3541979Y-6372419D01*
X3541979Y-6372419D02*
X3637217Y-6372419D01*
X3637217Y-6372419D02*
X3780074Y-6420038D01*
X3780074Y-6420038D02*
X3827693Y-6467657D01*
X4208646Y-6467657D02*
X4256265Y-6420038D01*
X4256265Y-6420038D02*
X4351503Y-6372419D01*
X4351503Y-6372419D02*
X4589598Y-6372419D01*
X4589598Y-6372419D02*
X4684836Y-6420038D01*
X4684836Y-6420038D02*
X4732455Y-6467657D01*
X4732455Y-6467657D02*
X4780074Y-6562895D01*
X4780074Y-6562895D02*
X4780074Y-6658133D01*
X4780074Y-6658133D02*
X4732455Y-6800990D01*
X4732455Y-6800990D02*
X4161027Y-7372419D01*
X4161027Y-7372419D02*
X4780074Y-7372419D01*
X9857142Y-18457419D02*
X9380952Y-18457419D01*
X9380952Y-18457419D02*
X9380952Y-17457419D01*
X10190476Y-17933609D02*
X10523809Y-17933609D01*
X10666666Y-18457419D02*
X10190476Y-18457419D01*
X10190476Y-18457419D02*
X10190476Y-17457419D01*
X10190476Y-17457419D02*
X10666666Y-17457419D01*
X11095238Y-18457419D02*
X11095238Y-17457419D01*
X11095238Y-17457419D02*
X11333333Y-17457419D01*
X11333333Y-17457419D02*
X11476190Y-17505038D01*
X11476190Y-17505038D02*
X11571428Y-17600276D01*
X11571428Y-17600276D02*
X11619047Y-17695514D01*
X11619047Y-17695514D02*
X11666666Y-17885990D01*
X11666666Y-17885990D02*
X11666666Y-18028847D01*
X11666666Y-18028847D02*
X11619047Y-18219323D01*
X11619047Y-18219323D02*
X11571428Y-18314561D01*
X11571428Y-18314561D02*
X11476190Y-18409800D01*
X11476190Y-18409800D02*
X11333333Y-18457419D01*
X11333333Y-18457419D02*
X11095238Y-18457419D01*
X2511905Y-12457419D02*
X2511905Y-11457419D01*
X2511905Y-11457419D02*
X2845238Y-12171704D01*
X2845238Y-12171704D02*
X3178571Y-11457419D01*
X3178571Y-11457419D02*
X3178571Y-12457419D01*
X3654762Y-12457419D02*
X3654762Y-11457419D01*
X3654762Y-11457419D02*
X4226190Y-12457419D01*
X4226190Y-12457419D02*
X4226190Y-11457419D01*
X4559524Y-11457419D02*
X5130952Y-11457419D01*
X4845238Y-12457419D02*
X4845238Y-11457419D01*
G36*
X77500456Y-14046130D02*
G01*
X77536600Y-14082275D01*
X77575312Y-14159698D01*
X77575312Y-14278948D01*
X77536600Y-14356371D01*
X77500456Y-14392516D01*
X77423033Y-14431228D01*
X77103884Y-14431228D01*
X77103884Y-14007419D01*
X77423033Y-14007419D01*
X77500456Y-14046130D01*
G37*
G36*
X80595947Y-15118530D02*
G01*
X75845154Y-15118530D01*
X75845154Y-14385990D01*
X75956265Y-14385990D01*
X75956265Y-14528847D01*
X75957460Y-14534856D01*
X75957758Y-14540974D01*
X76005377Y-14731450D01*
X76007716Y-14736402D01*
X76009163Y-14741684D01*
X76056781Y-14836921D01*
X76061692Y-14843249D01*
X76066147Y-14849916D01*
X76161386Y-14945155D01*
X76163467Y-14946545D01*
X76163981Y-14947573D01*
X76170946Y-14951543D01*
X76177607Y-14955994D01*
X76178755Y-14955994D01*
X76180930Y-14957234D01*
X76323786Y-15004853D01*
X76331736Y-15005855D01*
X76339598Y-15007419D01*
X76434836Y-15007419D01*
X76442698Y-15005855D01*
X76450647Y-15004853D01*
X76593504Y-14957234D01*
X76595679Y-14955994D01*
X76596828Y-14955994D01*
X76603498Y-14951536D01*
X76610452Y-14947573D01*
X76610964Y-14946547D01*
X76613049Y-14945155D01*
X76660668Y-14897535D01*
X76671506Y-14881314D01*
X76675312Y-14862180D01*
X76675312Y-14528847D01*
X76671506Y-14509713D01*
X76644446Y-14482653D01*
X76625312Y-14478847D01*
X76434836Y-14478847D01*
X76415702Y-14482653D01*
X76388642Y-14509713D01*
X76388642Y-14547981D01*
X76415702Y-14575041D01*
X76434836Y-14578847D01*
X76575312Y-14578847D01*
X76575312Y-14841469D01*
X76550683Y-14866098D01*
X76426723Y-14907419D01*
X76347711Y-14907419D01*
X76223751Y-14866099D01*
X76142595Y-14784942D01*
X76101060Y-14701872D01*
X76056265Y-14522692D01*
X76056265Y-14392145D01*
X76101060Y-14212965D01*
X76142596Y-14129893D01*
X76223749Y-14048739D01*
X76347711Y-14007419D01*
X76470652Y-14007419D01*
X76555332Y-14049759D01*
X76574148Y-14054912D01*
X76610453Y-14042810D01*
X76627567Y-14008582D01*
X76615465Y-13972278D01*
X76600053Y-13960316D01*
X76594259Y-13957419D01*
X77003884Y-13957419D01*
X77003884Y-14957419D01*
X77007690Y-14976553D01*
X77034750Y-15003613D01*
X77073018Y-15003613D01*
X77100078Y-14976553D01*
X77103884Y-14957419D01*
X77103884Y-14531228D01*
X77265946Y-14531228D01*
X77584350Y-14986092D01*
X77598441Y-14999585D01*
X77636127Y-15006235D01*
X77667478Y-14984290D01*
X77674128Y-14946604D01*
X77666274Y-14928746D01*
X77388012Y-14531228D01*
X77434836Y-14531228D01*
X77437292Y-14530739D01*
X77438381Y-14531102D01*
X77446108Y-14528985D01*
X77453970Y-14527422D01*
X77454781Y-14526610D01*
X77457197Y-14525949D01*
X77552434Y-14478331D01*
X77558767Y-14473415D01*
X77565429Y-14468964D01*
X77613048Y-14421346D01*
X77617502Y-14414679D01*
X77622414Y-14408351D01*
X77670033Y-14313113D01*
X77670694Y-14310697D01*
X77671506Y-14309886D01*
X77673069Y-14302024D01*
X77675186Y-14294297D01*
X77674823Y-14293208D01*
X77675312Y-14290752D01*
X77675312Y-14147895D01*
X77674823Y-14145438D01*
X77675186Y-14144350D01*
X77673069Y-14136622D01*
X77671506Y-14128761D01*
X77670694Y-14127949D01*
X77670033Y-14125534D01*
X77622414Y-14030296D01*
X77617502Y-14023967D01*
X77613048Y-14017301D01*
X77565429Y-13969683D01*
X77558767Y-13965231D01*
X77552434Y-13960316D01*
X77546640Y-13957419D01*
X78003884Y-13957419D01*
X78003884Y-14957419D01*
X78007690Y-14976553D01*
X78034750Y-15003613D01*
X78053884Y-15007419D01*
X78530074Y-15007419D01*
X78549208Y-15003613D01*
X78576268Y-14976553D01*
X78576268Y-14938285D01*
X78549208Y-14911225D01*
X78530074Y-14907419D01*
X78103884Y-14907419D01*
X78103884Y-14483609D01*
X78387217Y-14483609D01*
X78406351Y-14479803D01*
X78433411Y-14452743D01*
X78433411Y-14414475D01*
X78406351Y-14387415D01*
X78387217Y-14383609D01*
X78103884Y-14383609D01*
X78103884Y-14007419D01*
X78530074Y-14007419D01*
X78549208Y-14003613D01*
X78576268Y-13976553D01*
X78576268Y-13957419D01*
X78908646Y-13957419D01*
X78908646Y-14957419D01*
X78912452Y-14976553D01*
X78939512Y-15003613D01*
X78958646Y-15007419D01*
X79434836Y-15007419D01*
X79453970Y-15003613D01*
X79481030Y-14976553D01*
X79481030Y-14938285D01*
X79453970Y-14911225D01*
X79434836Y-14907419D01*
X79008646Y-14907419D01*
X79008646Y-14483609D01*
X79291979Y-14483609D01*
X79311113Y-14479803D01*
X79338173Y-14452743D01*
X79338173Y-14414475D01*
X79311113Y-14387415D01*
X79291979Y-14383609D01*
X79008646Y-14383609D01*
X79008646Y-14007419D01*
X79434836Y-14007419D01*
X79453970Y-14003613D01*
X79481030Y-13976553D01*
X79481030Y-13957419D01*
X79813408Y-13957419D01*
X79813408Y-14957419D01*
X79817214Y-14976553D01*
X79844274Y-15003613D01*
X79882542Y-15003613D01*
X79909602Y-14976553D01*
X79913408Y-14957419D01*
X79913408Y-14145697D01*
X80391424Y-14982226D01*
X80404222Y-14996951D01*
X80410846Y-14998757D01*
X80415702Y-15003613D01*
X80428650Y-15003613D01*
X80441142Y-15007020D01*
X80447104Y-15003613D01*
X80453970Y-15003613D01*
X80463123Y-14994459D01*
X80474368Y-14988034D01*
X80476175Y-14981407D01*
X80481030Y-14976553D01*
X80484836Y-14957419D01*
X80484836Y-13957419D01*
X80481030Y-13938285D01*
X80453970Y-13911225D01*
X80415702Y-13911225D01*
X80388642Y-13938285D01*
X80384836Y-13957419D01*
X80384836Y-14769140D01*
X79906820Y-13932612D01*
X79894023Y-13917887D01*
X79887396Y-13916079D01*
X79882542Y-13911225D01*
X79869595Y-13911225D01*
X79857102Y-13907818D01*
X79851140Y-13911225D01*
X79844274Y-13911225D01*
X79835120Y-13920378D01*
X79823876Y-13926804D01*
X79822068Y-13933430D01*
X79817214Y-13938285D01*
X79813408Y-13957419D01*
X79481030Y-13957419D01*
X79481030Y-13938285D01*
X79453970Y-13911225D01*
X79434836Y-13907419D01*
X78958646Y-13907419D01*
X78939512Y-13911225D01*
X78912452Y-13938285D01*
X78908646Y-13957419D01*
X78576268Y-13957419D01*
X78576268Y-13938285D01*
X78549208Y-13911225D01*
X78530074Y-13907419D01*
X78053884Y-13907419D01*
X78034750Y-13911225D01*
X78007690Y-13938285D01*
X78003884Y-13957419D01*
X77546640Y-13957419D01*
X77457197Y-13912698D01*
X77454781Y-13912036D01*
X77453970Y-13911225D01*
X77446108Y-13909661D01*
X77438381Y-13907545D01*
X77437292Y-13907907D01*
X77434836Y-13907419D01*
X77053884Y-13907419D01*
X77034750Y-13911225D01*
X77007690Y-13938285D01*
X77003884Y-13957419D01*
X76594259Y-13957419D01*
X76504816Y-13912698D01*
X76502400Y-13912036D01*
X76501589Y-13911225D01*
X76493727Y-13909661D01*
X76486000Y-13907545D01*
X76484911Y-13907907D01*
X76482455Y-13907419D01*
X76339598Y-13907419D01*
X76331736Y-13908982D01*
X76323786Y-13909985D01*
X76180930Y-13957604D01*
X76178755Y-13958844D01*
X76177607Y-13958844D01*
X76170946Y-13963294D01*
X76163981Y-13967265D01*
X76163467Y-13968292D01*
X76161386Y-13969683D01*
X76066148Y-14064921D01*
X76061696Y-14071582D01*
X76056781Y-14077916D01*
X76009163Y-14173153D01*
X76007716Y-14178434D01*
X76005377Y-14183387D01*
X75957758Y-14373863D01*
X75957460Y-14379980D01*
X75956265Y-14385990D01*
X75845154Y-14385990D01*
X75845154Y-13796308D01*
X80595947Y-13796308D01*
X80595947Y-15118530D01*
G37*
X38833333Y-27612180D02*
X38785714Y-27659800D01*
X38785714Y-27659800D02*
X38642857Y-27707419D01*
X38642857Y-27707419D02*
X38547619Y-27707419D01*
X38547619Y-27707419D02*
X38404762Y-27659800D01*
X38404762Y-27659800D02*
X38309524Y-27564561D01*
X38309524Y-27564561D02*
X38261905Y-27469323D01*
X38261905Y-27469323D02*
X38214286Y-27278847D01*
X38214286Y-27278847D02*
X38214286Y-27135990D01*
X38214286Y-27135990D02*
X38261905Y-26945514D01*
X38261905Y-26945514D02*
X38309524Y-26850276D01*
X38309524Y-26850276D02*
X38404762Y-26755038D01*
X38404762Y-26755038D02*
X38547619Y-26707419D01*
X38547619Y-26707419D02*
X38642857Y-26707419D01*
X38642857Y-26707419D02*
X38785714Y-26755038D01*
X38785714Y-26755038D02*
X38833333Y-26802657D01*
X39261905Y-27707419D02*
X39261905Y-26707419D01*
X39261905Y-26707419D02*
X39500000Y-26707419D01*
X39500000Y-26707419D02*
X39642857Y-26755038D01*
X39642857Y-26755038D02*
X39738095Y-26850276D01*
X39738095Y-26850276D02*
X39785714Y-26945514D01*
X39785714Y-26945514D02*
X39833333Y-27135990D01*
X39833333Y-27135990D02*
X39833333Y-27278847D01*
X39833333Y-27278847D02*
X39785714Y-27469323D01*
X39785714Y-27469323D02*
X39738095Y-27564561D01*
X39738095Y-27564561D02*
X39642857Y-27659800D01*
X39642857Y-27659800D02*
X39500000Y-27707419D01*
X39500000Y-27707419D02*
X39261905Y-27707419D01*
X40833333Y-27707419D02*
X40500000Y-27231228D01*
X40261905Y-27707419D02*
X40261905Y-26707419D01*
X40261905Y-26707419D02*
X40642857Y-26707419D01*
X40642857Y-26707419D02*
X40738095Y-26755038D01*
X40738095Y-26755038D02*
X40785714Y-26802657D01*
X40785714Y-26802657D02*
X40833333Y-26897895D01*
X40833333Y-26897895D02*
X40833333Y-27040752D01*
X40833333Y-27040752D02*
X40785714Y-27135990D01*
X40785714Y-27135990D02*
X40738095Y-27183609D01*
X40738095Y-27183609D02*
X40642857Y-27231228D01*
X40642857Y-27231228D02*
X40261905Y-27231228D01*
X41833333Y-27612180D02*
X41785714Y-27659800D01*
X41785714Y-27659800D02*
X41642857Y-27707419D01*
X41642857Y-27707419D02*
X41547619Y-27707419D01*
X41547619Y-27707419D02*
X41404762Y-27659800D01*
X41404762Y-27659800D02*
X41309524Y-27564561D01*
X41309524Y-27564561D02*
X41261905Y-27469323D01*
X41261905Y-27469323D02*
X41214286Y-27278847D01*
X41214286Y-27278847D02*
X41214286Y-27135990D01*
X41214286Y-27135990D02*
X41261905Y-26945514D01*
X41261905Y-26945514D02*
X41309524Y-26850276D01*
X41309524Y-26850276D02*
X41404762Y-26755038D01*
X41404762Y-26755038D02*
X41547619Y-26707419D01*
X41547619Y-26707419D02*
X41642857Y-26707419D01*
X41642857Y-26707419D02*
X41785714Y-26755038D01*
X41785714Y-26755038D02*
X41833333Y-26802657D01*
X42261905Y-27326466D02*
X43023810Y-27326466D01*
X43452381Y-27421704D02*
X43928571Y-27421704D01*
X43357143Y-27707419D02*
X43690476Y-26707419D01*
X43690476Y-26707419D02*
X44023809Y-27707419D01*
X45309524Y-26707419D02*
X45404762Y-26707419D01*
X45404762Y-26707419D02*
X45500000Y-26755038D01*
X45500000Y-26755038D02*
X45547619Y-26802657D01*
X45547619Y-26802657D02*
X45595238Y-26897895D01*
X45595238Y-26897895D02*
X45642857Y-27088371D01*
X45642857Y-27088371D02*
X45642857Y-27326466D01*
X45642857Y-27326466D02*
X45595238Y-27516942D01*
X45595238Y-27516942D02*
X45547619Y-27612180D01*
X45547619Y-27612180D02*
X45500000Y-27659800D01*
X45500000Y-27659800D02*
X45404762Y-27707419D01*
X45404762Y-27707419D02*
X45309524Y-27707419D01*
X45309524Y-27707419D02*
X45214286Y-27659800D01*
X45214286Y-27659800D02*
X45166667Y-27612180D01*
X45166667Y-27612180D02*
X45119048Y-27516942D01*
X45119048Y-27516942D02*
X45071429Y-27326466D01*
X45071429Y-27326466D02*
X45071429Y-27088371D01*
X45071429Y-27088371D02*
X45119048Y-26897895D01*
X45119048Y-26897895D02*
X45166667Y-26802657D01*
X45166667Y-26802657D02*
X45214286Y-26755038D01*
X45214286Y-26755038D02*
X45309524Y-26707419D01*
X45976191Y-26707419D02*
X46595238Y-26707419D01*
X46595238Y-26707419D02*
X46261905Y-27088371D01*
X46261905Y-27088371D02*
X46404762Y-27088371D01*
X46404762Y-27088371D02*
X46500000Y-27135990D01*
X46500000Y-27135990D02*
X46547619Y-27183609D01*
X46547619Y-27183609D02*
X46595238Y-27278847D01*
X46595238Y-27278847D02*
X46595238Y-27516942D01*
X46595238Y-27516942D02*
X46547619Y-27612180D01*
X46547619Y-27612180D02*
X46500000Y-27659800D01*
X46500000Y-27659800D02*
X46404762Y-27707419D01*
X46404762Y-27707419D02*
X46119048Y-27707419D01*
X46119048Y-27707419D02*
X46023810Y-27659800D01*
X46023810Y-27659800D02*
X45976191Y-27612180D01*
X47023810Y-27326466D02*
X47785715Y-27326466D01*
X48452381Y-26707419D02*
X48547619Y-26707419D01*
X48547619Y-26707419D02*
X48642857Y-26755038D01*
X48642857Y-26755038D02*
X48690476Y-26802657D01*
X48690476Y-26802657D02*
X48738095Y-26897895D01*
X48738095Y-26897895D02*
X48785714Y-27088371D01*
X48785714Y-27088371D02*
X48785714Y-27326466D01*
X48785714Y-27326466D02*
X48738095Y-27516942D01*
X48738095Y-27516942D02*
X48690476Y-27612180D01*
X48690476Y-27612180D02*
X48642857Y-27659800D01*
X48642857Y-27659800D02*
X48547619Y-27707419D01*
X48547619Y-27707419D02*
X48452381Y-27707419D01*
X48452381Y-27707419D02*
X48357143Y-27659800D01*
X48357143Y-27659800D02*
X48309524Y-27612180D01*
X48309524Y-27612180D02*
X48261905Y-27516942D01*
X48261905Y-27516942D02*
X48214286Y-27326466D01*
X48214286Y-27326466D02*
X48214286Y-27088371D01*
X48214286Y-27088371D02*
X48261905Y-26897895D01*
X48261905Y-26897895D02*
X48309524Y-26802657D01*
X48309524Y-26802657D02*
X48357143Y-26755038D01*
X48357143Y-26755038D02*
X48452381Y-26707419D01*
X49261905Y-27707419D02*
X49452381Y-27707419D01*
X49452381Y-27707419D02*
X49547619Y-27659800D01*
X49547619Y-27659800D02*
X49595238Y-27612180D01*
X49595238Y-27612180D02*
X49690476Y-27469323D01*
X49690476Y-27469323D02*
X49738095Y-27278847D01*
X49738095Y-27278847D02*
X49738095Y-26897895D01*
X49738095Y-26897895D02*
X49690476Y-26802657D01*
X49690476Y-26802657D02*
X49642857Y-26755038D01*
X49642857Y-26755038D02*
X49547619Y-26707419D01*
X49547619Y-26707419D02*
X49357143Y-26707419D01*
X49357143Y-26707419D02*
X49261905Y-26755038D01*
X49261905Y-26755038D02*
X49214286Y-26802657D01*
X49214286Y-26802657D02*
X49166667Y-26897895D01*
X49166667Y-26897895D02*
X49166667Y-27135990D01*
X49166667Y-27135990D02*
X49214286Y-27231228D01*
X49214286Y-27231228D02*
X49261905Y-27278847D01*
X49261905Y-27278847D02*
X49357143Y-27326466D01*
X49357143Y-27326466D02*
X49547619Y-27326466D01*
X49547619Y-27326466D02*
X49642857Y-27278847D01*
X49642857Y-27278847D02*
X49690476Y-27231228D01*
X49690476Y-27231228D02*
X49738095Y-27135990D01*
X50166667Y-27326466D02*
X50928572Y-27326466D01*
X51357143Y-26802657D02*
X51404762Y-26755038D01*
X51404762Y-26755038D02*
X51500000Y-26707419D01*
X51500000Y-26707419D02*
X51738095Y-26707419D01*
X51738095Y-26707419D02*
X51833333Y-26755038D01*
X51833333Y-26755038D02*
X51880952Y-26802657D01*
X51880952Y-26802657D02*
X51928571Y-26897895D01*
X51928571Y-26897895D02*
X51928571Y-26993133D01*
X51928571Y-26993133D02*
X51880952Y-27135990D01*
X51880952Y-27135990D02*
X51309524Y-27707419D01*
X51309524Y-27707419D02*
X51928571Y-27707419D01*
X52547619Y-26707419D02*
X52642857Y-26707419D01*
X52642857Y-26707419D02*
X52738095Y-26755038D01*
X52738095Y-26755038D02*
X52785714Y-26802657D01*
X52785714Y-26802657D02*
X52833333Y-26897895D01*
X52833333Y-26897895D02*
X52880952Y-27088371D01*
X52880952Y-27088371D02*
X52880952Y-27326466D01*
X52880952Y-27326466D02*
X52833333Y-27516942D01*
X52833333Y-27516942D02*
X52785714Y-27612180D01*
X52785714Y-27612180D02*
X52738095Y-27659800D01*
X52738095Y-27659800D02*
X52642857Y-27707419D01*
X52642857Y-27707419D02*
X52547619Y-27707419D01*
X52547619Y-27707419D02*
X52452381Y-27659800D01*
X52452381Y-27659800D02*
X52404762Y-27612180D01*
X52404762Y-27612180D02*
X52357143Y-27516942D01*
X52357143Y-27516942D02*
X52309524Y-27326466D01*
X52309524Y-27326466D02*
X52309524Y-27088371D01*
X52309524Y-27088371D02*
X52357143Y-26897895D01*
X52357143Y-26897895D02*
X52404762Y-26802657D01*
X52404762Y-26802657D02*
X52452381Y-26755038D01*
X52452381Y-26755038D02*
X52547619Y-26707419D01*
X53261905Y-26802657D02*
X53309524Y-26755038D01*
X53309524Y-26755038D02*
X53404762Y-26707419D01*
X53404762Y-26707419D02*
X53642857Y-26707419D01*
X53642857Y-26707419D02*
X53738095Y-26755038D01*
X53738095Y-26755038D02*
X53785714Y-26802657D01*
X53785714Y-26802657D02*
X53833333Y-26897895D01*
X53833333Y-26897895D02*
X53833333Y-26993133D01*
X53833333Y-26993133D02*
X53785714Y-27135990D01*
X53785714Y-27135990D02*
X53214286Y-27707419D01*
X53214286Y-27707419D02*
X53833333Y-27707419D01*
X54690476Y-27040752D02*
X54690476Y-27707419D01*
X54452381Y-26659800D02*
X54214286Y-27374085D01*
X54214286Y-27374085D02*
X54833333Y-27374085D01*
G36*
X80115950Y-7618530D02*
G01*
X75798165Y-7618530D01*
X75798165Y-6449505D01*
X75909276Y-6449505D01*
X75910006Y-6469000D01*
X76148101Y-7469000D01*
X76156235Y-7486732D01*
X76162604Y-7490651D01*
X76166351Y-7497123D01*
X76178296Y-7500308D01*
X76188827Y-7506789D01*
X76196102Y-7505056D01*
X76203326Y-7506983D01*
X76214024Y-7500789D01*
X76226054Y-7497925D01*
X76229973Y-7491555D01*
X76236445Y-7487809D01*
X76245053Y-7470302D01*
X76387217Y-6937186D01*
X76529381Y-7470302D01*
X76537989Y-7487810D01*
X76544461Y-7491557D01*
X76548380Y-7497925D01*
X76560406Y-7500788D01*
X76571108Y-7506984D01*
X76578333Y-7505057D01*
X76585607Y-7506789D01*
X76596136Y-7500308D01*
X76608083Y-7497123D01*
X76611829Y-7490651D01*
X76618199Y-7486732D01*
X76626333Y-7469000D01*
X76864429Y-6469000D01*
X76864863Y-6457419D01*
X77146741Y-6457419D01*
X77146741Y-7457419D01*
X77150547Y-7476553D01*
X77177607Y-7503613D01*
X77215875Y-7503613D01*
X77242935Y-7476553D01*
X77246741Y-7457419D01*
X77246741Y-6983609D01*
X77718169Y-6983609D01*
X77718169Y-7457419D01*
X77721975Y-7476553D01*
X77749035Y-7503613D01*
X77787303Y-7503613D01*
X77814363Y-7476553D01*
X77818169Y-7457419D01*
X77818169Y-6457419D01*
X78194360Y-6457419D01*
X78194360Y-7457419D01*
X78198166Y-7476553D01*
X78225226Y-7503613D01*
X78263494Y-7503613D01*
X78290554Y-7476553D01*
X78294360Y-7457419D01*
X78294360Y-6457419D01*
X78290554Y-6438285D01*
X78531499Y-6438285D01*
X78531499Y-6476553D01*
X78558559Y-6503613D01*
X78577693Y-6507419D01*
X78813407Y-6507419D01*
X78813407Y-7457419D01*
X78817213Y-7476553D01*
X78844273Y-7503613D01*
X78882541Y-7503613D01*
X78909601Y-7476553D01*
X78913407Y-7457419D01*
X78913407Y-6507419D01*
X79149121Y-6507419D01*
X79168255Y-6503613D01*
X79195315Y-6476553D01*
X79195315Y-6457419D01*
X79432455Y-6457419D01*
X79432455Y-7457419D01*
X79436261Y-7476553D01*
X79463321Y-7503613D01*
X79482455Y-7507419D01*
X79958645Y-7507419D01*
X79977779Y-7503613D01*
X80004839Y-7476553D01*
X80004839Y-7438285D01*
X79977779Y-7411225D01*
X79958645Y-7407419D01*
X79532455Y-7407419D01*
X79532455Y-6983609D01*
X79815788Y-6983609D01*
X79834922Y-6979803D01*
X79861982Y-6952743D01*
X79861982Y-6914475D01*
X79834922Y-6887415D01*
X79815788Y-6883609D01*
X79532455Y-6883609D01*
X79532455Y-6507419D01*
X79958645Y-6507419D01*
X79977779Y-6503613D01*
X80004839Y-6476553D01*
X80004839Y-6438285D01*
X79977779Y-6411225D01*
X79958645Y-6407419D01*
X79482455Y-6407419D01*
X79463321Y-6411225D01*
X79436261Y-6438285D01*
X79432455Y-6457419D01*
X79195315Y-6457419D01*
X79195315Y-6438285D01*
X79168255Y-6411225D01*
X79149121Y-6407419D01*
X78577693Y-6407419D01*
X78558559Y-6411225D01*
X78531499Y-6438285D01*
X78290554Y-6438285D01*
X78263494Y-6411225D01*
X78225226Y-6411225D01*
X78198166Y-6438285D01*
X78194360Y-6457419D01*
X77818169Y-6457419D01*
X77814363Y-6438285D01*
X77787303Y-6411225D01*
X77749035Y-6411225D01*
X77721975Y-6438285D01*
X77718169Y-6457419D01*
X77718169Y-6883609D01*
X77246741Y-6883609D01*
X77246741Y-6457419D01*
X77242935Y-6438285D01*
X77215875Y-6411225D01*
X77177607Y-6411225D01*
X77150547Y-6438285D01*
X77146741Y-6457419D01*
X76864863Y-6457419D01*
X76865159Y-6449505D01*
X76845102Y-6416913D01*
X76807875Y-6408049D01*
X76775283Y-6428106D01*
X76767149Y-6445838D01*
X76574948Y-7253075D01*
X76435529Y-6730250D01*
X76426921Y-6712743D01*
X76421022Y-6709327D01*
X76417607Y-6703429D01*
X76405047Y-6700079D01*
X76393802Y-6693569D01*
X76387218Y-6695324D01*
X76380632Y-6693568D01*
X76369382Y-6700080D01*
X76356827Y-6703429D01*
X76353412Y-6709326D01*
X76347513Y-6712742D01*
X76338905Y-6730250D01*
X76199485Y-7253075D01*
X76007286Y-6445838D01*
X75999152Y-6428106D01*
X75966560Y-6408049D01*
X75929333Y-6416913D01*
X75909276Y-6449505D01*
X75798165Y-6449505D01*
X75798165Y-6296308D01*
X80115950Y-6296308D01*
X80115950Y-7618530D01*
G37*
X38726190Y-25207419D02*
X38726190Y-25921704D01*
X38726190Y-25921704D02*
X38678571Y-26064561D01*
X38678571Y-26064561D02*
X38583333Y-26159800D01*
X38583333Y-26159800D02*
X38440476Y-26207419D01*
X38440476Y-26207419D02*
X38345238Y-26207419D01*
X39154762Y-25921704D02*
X39630952Y-25921704D01*
X39059524Y-26207419D02*
X39392857Y-25207419D01*
X39392857Y-25207419D02*
X39726190Y-26207419D01*
X40059524Y-26207419D02*
X40059524Y-25207419D01*
X40535714Y-26207419D02*
X40535714Y-25207419D01*
X40535714Y-25207419D02*
X40869047Y-25921704D01*
X40869047Y-25921704D02*
X41202380Y-25207419D01*
X41202380Y-25207419D02*
X41202380Y-26207419D01*
X41678571Y-25683609D02*
X42011904Y-25683609D01*
X42154761Y-26207419D02*
X41678571Y-26207419D01*
X41678571Y-26207419D02*
X41678571Y-25207419D01*
X41678571Y-25207419D02*
X42154761Y-25207419D01*
X43297619Y-26159800D02*
X43440476Y-26207419D01*
X43440476Y-26207419D02*
X43678571Y-26207419D01*
X43678571Y-26207419D02*
X43773809Y-26159800D01*
X43773809Y-26159800D02*
X43821428Y-26112180D01*
X43821428Y-26112180D02*
X43869047Y-26016942D01*
X43869047Y-26016942D02*
X43869047Y-25921704D01*
X43869047Y-25921704D02*
X43821428Y-25826466D01*
X43821428Y-25826466D02*
X43773809Y-25778847D01*
X43773809Y-25778847D02*
X43678571Y-25731228D01*
X43678571Y-25731228D02*
X43488095Y-25683609D01*
X43488095Y-25683609D02*
X43392857Y-25635990D01*
X43392857Y-25635990D02*
X43345238Y-25588371D01*
X43345238Y-25588371D02*
X43297619Y-25493133D01*
X43297619Y-25493133D02*
X43297619Y-25397895D01*
X43297619Y-25397895D02*
X43345238Y-25302657D01*
X43345238Y-25302657D02*
X43392857Y-25255038D01*
X43392857Y-25255038D02*
X43488095Y-25207419D01*
X43488095Y-25207419D02*
X43726190Y-25207419D01*
X43726190Y-25207419D02*
X43869047Y-25255038D01*
X44297619Y-25683609D02*
X44630952Y-25683609D01*
X44773809Y-26207419D02*
X44297619Y-26207419D01*
X44297619Y-26207419D02*
X44297619Y-25207419D01*
X44297619Y-25207419D02*
X44773809Y-25207419D01*
X45869047Y-26302657D02*
X45773809Y-26255038D01*
X45773809Y-26255038D02*
X45678571Y-26159800D01*
X45678571Y-26159800D02*
X45535714Y-26016942D01*
X45535714Y-26016942D02*
X45440476Y-25969323D01*
X45440476Y-25969323D02*
X45345238Y-25969323D01*
X45392857Y-26207419D02*
X45297619Y-26159800D01*
X45297619Y-26159800D02*
X45202381Y-26064561D01*
X45202381Y-26064561D02*
X45154762Y-25874085D01*
X45154762Y-25874085D02*
X45154762Y-25540752D01*
X45154762Y-25540752D02*
X45202381Y-25350276D01*
X45202381Y-25350276D02*
X45297619Y-25255038D01*
X45297619Y-25255038D02*
X45392857Y-25207419D01*
X45392857Y-25207419D02*
X45583333Y-25207419D01*
X45583333Y-25207419D02*
X45678571Y-25255038D01*
X45678571Y-25255038D02*
X45773809Y-25350276D01*
X45773809Y-25350276D02*
X45821428Y-25540752D01*
X45821428Y-25540752D02*
X45821428Y-25874085D01*
X45821428Y-25874085D02*
X45773809Y-26064561D01*
X45773809Y-26064561D02*
X45678571Y-26159800D01*
X45678571Y-26159800D02*
X45583333Y-26207419D01*
X45583333Y-26207419D02*
X45392857Y-26207419D01*
X46250000Y-25207419D02*
X46250000Y-26016942D01*
X46250000Y-26016942D02*
X46297619Y-26112180D01*
X46297619Y-26112180D02*
X46345238Y-26159800D01*
X46345238Y-26159800D02*
X46440476Y-26207419D01*
X46440476Y-26207419D02*
X46630952Y-26207419D01*
X46630952Y-26207419D02*
X46726190Y-26159800D01*
X46726190Y-26159800D02*
X46773809Y-26112180D01*
X46773809Y-26112180D02*
X46821428Y-26016942D01*
X46821428Y-26016942D02*
X46821428Y-25207419D01*
X47297619Y-25683609D02*
X47630952Y-25683609D01*
X47773809Y-26207419D02*
X47297619Y-26207419D01*
X47297619Y-26207419D02*
X47297619Y-25207419D01*
X47297619Y-25207419D02*
X47773809Y-25207419D01*
X48202381Y-26207419D02*
X48202381Y-25207419D01*
X49249999Y-26207419D02*
X48916666Y-25731228D01*
X48678571Y-26207419D02*
X48678571Y-25207419D01*
X48678571Y-25207419D02*
X49059523Y-25207419D01*
X49059523Y-25207419D02*
X49154761Y-25255038D01*
X49154761Y-25255038D02*
X49202380Y-25302657D01*
X49202380Y-25302657D02*
X49249999Y-25397895D01*
X49249999Y-25397895D02*
X49249999Y-25540752D01*
X49249999Y-25540752D02*
X49202380Y-25635990D01*
X49202380Y-25635990D02*
X49154761Y-25683609D01*
X49154761Y-25683609D02*
X49059523Y-25731228D01*
X49059523Y-25731228D02*
X48678571Y-25731228D01*
X49630952Y-25921704D02*
X50107142Y-25921704D01*
X49535714Y-26207419D02*
X49869047Y-25207419D01*
X49869047Y-25207419D02*
X50202380Y-26207419D01*
X41214286Y-2957419D02*
X41214286Y-1957419D01*
X41214286Y-1957419D02*
X41595238Y-1957419D01*
X41595238Y-1957419D02*
X41690476Y-2005038D01*
X41690476Y-2005038D02*
X41738095Y-2052657D01*
X41738095Y-2052657D02*
X41785714Y-2147895D01*
X41785714Y-2147895D02*
X41785714Y-2290752D01*
X41785714Y-2290752D02*
X41738095Y-2385990D01*
X41738095Y-2385990D02*
X41690476Y-2433609D01*
X41690476Y-2433609D02*
X41595238Y-2481228D01*
X41595238Y-2481228D02*
X41214286Y-2481228D01*
X42785714Y-2957419D02*
X42452381Y-2481228D01*
X42214286Y-2957419D02*
X42214286Y-1957419D01*
X42214286Y-1957419D02*
X42595238Y-1957419D01*
X42595238Y-1957419D02*
X42690476Y-2005038D01*
X42690476Y-2005038D02*
X42738095Y-2052657D01*
X42738095Y-2052657D02*
X42785714Y-2147895D01*
X42785714Y-2147895D02*
X42785714Y-2290752D01*
X42785714Y-2290752D02*
X42738095Y-2385990D01*
X42738095Y-2385990D02*
X42690476Y-2433609D01*
X42690476Y-2433609D02*
X42595238Y-2481228D01*
X42595238Y-2481228D02*
X42214286Y-2481228D01*
X43404762Y-1957419D02*
X43595238Y-1957419D01*
X43595238Y-1957419D02*
X43690476Y-2005038D01*
X43690476Y-2005038D02*
X43785714Y-2100276D01*
X43785714Y-2100276D02*
X43833333Y-2290752D01*
X43833333Y-2290752D02*
X43833333Y-2624085D01*
X43833333Y-2624085D02*
X43785714Y-2814561D01*
X43785714Y-2814561D02*
X43690476Y-2909800D01*
X43690476Y-2909800D02*
X43595238Y-2957419D01*
X43595238Y-2957419D02*
X43404762Y-2957419D01*
X43404762Y-2957419D02*
X43309524Y-2909800D01*
X43309524Y-2909800D02*
X43214286Y-2814561D01*
X43214286Y-2814561D02*
X43166667Y-2624085D01*
X43166667Y-2624085D02*
X43166667Y-2290752D01*
X43166667Y-2290752D02*
X43214286Y-2100276D01*
X43214286Y-2100276D02*
X43309524Y-2005038D01*
X43309524Y-2005038D02*
X43404762Y-1957419D01*
X44785714Y-2005038D02*
X44690476Y-1957419D01*
X44690476Y-1957419D02*
X44547619Y-1957419D01*
X44547619Y-1957419D02*
X44404762Y-2005038D01*
X44404762Y-2005038D02*
X44309524Y-2100276D01*
X44309524Y-2100276D02*
X44261905Y-2195514D01*
X44261905Y-2195514D02*
X44214286Y-2385990D01*
X44214286Y-2385990D02*
X44214286Y-2528847D01*
X44214286Y-2528847D02*
X44261905Y-2719323D01*
X44261905Y-2719323D02*
X44309524Y-2814561D01*
X44309524Y-2814561D02*
X44404762Y-2909800D01*
X44404762Y-2909800D02*
X44547619Y-2957419D01*
X44547619Y-2957419D02*
X44642857Y-2957419D01*
X44642857Y-2957419D02*
X44785714Y-2909800D01*
X44785714Y-2909800D02*
X44833333Y-2862180D01*
X44833333Y-2862180D02*
X44833333Y-2528847D01*
X44833333Y-2528847D02*
X44642857Y-2528847D01*
G36*
X76407827Y-4048739D02*
G01*
X76488980Y-4129892D01*
X76530517Y-4212966D01*
X76575312Y-4392145D01*
X76575312Y-4522692D01*
X76530517Y-4701870D01*
X76488980Y-4784944D01*
X76407826Y-4866098D01*
X76283866Y-4907419D01*
X76103884Y-4907419D01*
X76103884Y-4007419D01*
X76283866Y-4007419D01*
X76407827Y-4048739D01*
G37*
G36*
X78830236Y-5118530D02*
G01*
X75892773Y-5118530D01*
X75892773Y-3957419D01*
X76003884Y-3957419D01*
X76003884Y-4957419D01*
X76007690Y-4976553D01*
X76034750Y-5003613D01*
X76053884Y-5007419D01*
X76291979Y-5007419D01*
X76299841Y-5005855D01*
X76307790Y-5004853D01*
X76450647Y-4957234D01*
X76452822Y-4955994D01*
X76453971Y-4955994D01*
X76460641Y-4951536D01*
X76467595Y-4947573D01*
X76468107Y-4946547D01*
X76470192Y-4945155D01*
X76565430Y-4849916D01*
X76569883Y-4843250D01*
X76574795Y-4836922D01*
X76622414Y-4741684D01*
X76623860Y-4736402D01*
X76626200Y-4731450D01*
X76673819Y-4540974D01*
X76674116Y-4534856D01*
X76675312Y-4528847D01*
X76675312Y-4385990D01*
X76674116Y-4379980D01*
X76673819Y-4373863D01*
X76626200Y-4183387D01*
X76623860Y-4178434D01*
X76622414Y-4173153D01*
X76574795Y-4077915D01*
X76569879Y-4071580D01*
X76565429Y-4064921D01*
X76470191Y-3969683D01*
X76468108Y-3968291D01*
X76467595Y-3967265D01*
X76460634Y-3963297D01*
X76453970Y-3958844D01*
X76452822Y-3958844D01*
X76450647Y-3957604D01*
X76450092Y-3957419D01*
X77003884Y-3957419D01*
X77003884Y-4957419D01*
X77007690Y-4976553D01*
X77034750Y-5003613D01*
X77073018Y-5003613D01*
X77100078Y-4976553D01*
X77103884Y-4957419D01*
X77103884Y-4145697D01*
X77581900Y-4982226D01*
X77594698Y-4996951D01*
X77601322Y-4998757D01*
X77606178Y-5003613D01*
X77619126Y-5003613D01*
X77631618Y-5007020D01*
X77637580Y-5003613D01*
X77644446Y-5003613D01*
X77653599Y-4994459D01*
X77664844Y-4988034D01*
X77666651Y-4981407D01*
X77671506Y-4976553D01*
X77675312Y-4957419D01*
X77675312Y-4385990D01*
X78003884Y-4385990D01*
X78003884Y-4528847D01*
X78005079Y-4534856D01*
X78005377Y-4540974D01*
X78052996Y-4731450D01*
X78055335Y-4736402D01*
X78056782Y-4741684D01*
X78104400Y-4836921D01*
X78109311Y-4843249D01*
X78113766Y-4849916D01*
X78209005Y-4945155D01*
X78211086Y-4946545D01*
X78211600Y-4947573D01*
X78218565Y-4951543D01*
X78225226Y-4955994D01*
X78226374Y-4955994D01*
X78228549Y-4957234D01*
X78371405Y-5004853D01*
X78379355Y-5005855D01*
X78387217Y-5007419D01*
X78482455Y-5007419D01*
X78490317Y-5005855D01*
X78498266Y-5004853D01*
X78641123Y-4957234D01*
X78643298Y-4955994D01*
X78644447Y-4955994D01*
X78651117Y-4951536D01*
X78658071Y-4947573D01*
X78658583Y-4946547D01*
X78660668Y-4945155D01*
X78708287Y-4897535D01*
X78719125Y-4881314D01*
X78719125Y-4843045D01*
X78692065Y-4815986D01*
X78653796Y-4815986D01*
X78637575Y-4826825D01*
X78598302Y-4866098D01*
X78474342Y-4907419D01*
X78395330Y-4907419D01*
X78271370Y-4866099D01*
X78190214Y-4784942D01*
X78148679Y-4701872D01*
X78103884Y-4522692D01*
X78103884Y-4392145D01*
X78148679Y-4212965D01*
X78190215Y-4129893D01*
X78271368Y-4048739D01*
X78395330Y-4007419D01*
X78474342Y-4007419D01*
X78598303Y-4048739D01*
X78637575Y-4088012D01*
X78653796Y-4098851D01*
X78692065Y-4098851D01*
X78719125Y-4071791D01*
X78719125Y-4033522D01*
X78708286Y-4017301D01*
X78660667Y-3969683D01*
X78658584Y-3968291D01*
X78658071Y-3967265D01*
X78651110Y-3963297D01*
X78644446Y-3958844D01*
X78643298Y-3958844D01*
X78641123Y-3957604D01*
X78498266Y-3909985D01*
X78490317Y-3908982D01*
X78482455Y-3907419D01*
X78387217Y-3907419D01*
X78379355Y-3908982D01*
X78371405Y-3909985D01*
X78228549Y-3957604D01*
X78226374Y-3958844D01*
X78225226Y-3958844D01*
X78218565Y-3963294D01*
X78211600Y-3967265D01*
X78211086Y-3968292D01*
X78209005Y-3969683D01*
X78113767Y-4064921D01*
X78109315Y-4071582D01*
X78104400Y-4077916D01*
X78056782Y-4173153D01*
X78055335Y-4178434D01*
X78052996Y-4183387D01*
X78005377Y-4373863D01*
X78005079Y-4379980D01*
X78003884Y-4385990D01*
X77675312Y-4385990D01*
X77675312Y-3957419D01*
X77671506Y-3938285D01*
X77644446Y-3911225D01*
X77606178Y-3911225D01*
X77579118Y-3938285D01*
X77575312Y-3957419D01*
X77575312Y-4769140D01*
X77097296Y-3932612D01*
X77084499Y-3917887D01*
X77077872Y-3916079D01*
X77073018Y-3911225D01*
X77060071Y-3911225D01*
X77047578Y-3907818D01*
X77041616Y-3911225D01*
X77034750Y-3911225D01*
X77025596Y-3920378D01*
X77014352Y-3926804D01*
X77012544Y-3933430D01*
X77007690Y-3938285D01*
X77003884Y-3957419D01*
X76450092Y-3957419D01*
X76307790Y-3909985D01*
X76299841Y-3908982D01*
X76291979Y-3907419D01*
X76053884Y-3907419D01*
X76034750Y-3911225D01*
X76007690Y-3938285D01*
X76003884Y-3957419D01*
X75892773Y-3957419D01*
X75892773Y-3796308D01*
X78830236Y-3796308D01*
X78830236Y-5118530D01*
G37*
G36*
X76253065Y-19774929D02*
G01*
X76286600Y-19808465D01*
X76325312Y-19885888D01*
X76325312Y-20005138D01*
X76286600Y-20082561D01*
X76250454Y-20118708D01*
X76173033Y-20157419D01*
X75853884Y-20157419D01*
X75853884Y-19733609D01*
X76129104Y-19733609D01*
X76253065Y-19774929D01*
G37*
G36*
X76202837Y-19296130D02*
G01*
X76238981Y-19332275D01*
X76277693Y-19409698D01*
X76277693Y-19481329D01*
X76238981Y-19558752D01*
X76202837Y-19594897D01*
X76125414Y-19633609D01*
X75853884Y-19633609D01*
X75853884Y-19257419D01*
X76125414Y-19257419D01*
X76202837Y-19296130D01*
G37*
G36*
X79294522Y-20368530D02*
G01*
X75642773Y-20368530D01*
X75642773Y-19207419D01*
X75753884Y-19207419D01*
X75753884Y-20207419D01*
X75757690Y-20226553D01*
X75784750Y-20253613D01*
X75803884Y-20257419D01*
X76184836Y-20257419D01*
X76187292Y-20256930D01*
X76188381Y-20257293D01*
X76196108Y-20255176D01*
X76203970Y-20253613D01*
X76204781Y-20252801D01*
X76207197Y-20252140D01*
X76302434Y-20204522D01*
X76308761Y-20199611D01*
X76315430Y-20195155D01*
X76363049Y-20147535D01*
X76367502Y-20140869D01*
X76372414Y-20134541D01*
X76420033Y-20039303D01*
X76420694Y-20036887D01*
X76421506Y-20036076D01*
X76423069Y-20028214D01*
X76425186Y-20020487D01*
X76424823Y-20019398D01*
X76425312Y-20016942D01*
X76425312Y-19874085D01*
X76424823Y-19871628D01*
X76425186Y-19870540D01*
X76423069Y-19862812D01*
X76421506Y-19854951D01*
X76420694Y-19854139D01*
X76420033Y-19851724D01*
X76372414Y-19756486D01*
X76367502Y-19750157D01*
X76363048Y-19743491D01*
X76315429Y-19695873D01*
X76313346Y-19694481D01*
X76312833Y-19693455D01*
X76305872Y-19689487D01*
X76299208Y-19685034D01*
X76298060Y-19685034D01*
X76295885Y-19683794D01*
X76264724Y-19673407D01*
X76267810Y-19671345D01*
X76315429Y-19623727D01*
X76319883Y-19617060D01*
X76324795Y-19610732D01*
X76372414Y-19515494D01*
X76373075Y-19513078D01*
X76373887Y-19512267D01*
X76375450Y-19504405D01*
X76377567Y-19496678D01*
X76377204Y-19495589D01*
X76377693Y-19493133D01*
X76377693Y-19397895D01*
X76377204Y-19395438D01*
X76377567Y-19394350D01*
X76375450Y-19386622D01*
X76373887Y-19378761D01*
X76373075Y-19377949D01*
X76372414Y-19375534D01*
X76324795Y-19280296D01*
X76319883Y-19273967D01*
X76315429Y-19267301D01*
X76267810Y-19219683D01*
X76261148Y-19215231D01*
X76254815Y-19210316D01*
X76249021Y-19207419D01*
X76753884Y-19207419D01*
X76753884Y-20207419D01*
X76757690Y-20226553D01*
X76784750Y-20253613D01*
X76803884Y-20257419D01*
X77280074Y-20257419D01*
X77299208Y-20253613D01*
X77326268Y-20226553D01*
X77326268Y-20188285D01*
X77299208Y-20161225D01*
X77280074Y-20157419D01*
X76853884Y-20157419D01*
X76853884Y-19207419D01*
X77563408Y-19207419D01*
X77563408Y-20016942D01*
X77563896Y-20019398D01*
X77563534Y-20020487D01*
X77565650Y-20028214D01*
X77567214Y-20036076D01*
X77568025Y-20036887D01*
X77568687Y-20039303D01*
X77616305Y-20134540D01*
X77621216Y-20140868D01*
X77625671Y-20147535D01*
X77673290Y-20195155D01*
X77679956Y-20199609D01*
X77686285Y-20204521D01*
X77781523Y-20252140D01*
X77783938Y-20252801D01*
X77784750Y-20253613D01*
X77792611Y-20255176D01*
X77800339Y-20257293D01*
X77801427Y-20256930D01*
X77803884Y-20257419D01*
X77994360Y-20257419D01*
X77996816Y-20256930D01*
X77997905Y-20257293D01*
X78005632Y-20255176D01*
X78013494Y-20253613D01*
X78014305Y-20252801D01*
X78016721Y-20252140D01*
X78111958Y-20204522D01*
X78118285Y-20199611D01*
X78124954Y-20195155D01*
X78172573Y-20147535D01*
X78177026Y-20140869D01*
X78181938Y-20134541D01*
X78229557Y-20039303D01*
X78230218Y-20036887D01*
X78231030Y-20036076D01*
X78232593Y-20028214D01*
X78234710Y-20020487D01*
X78234347Y-20019398D01*
X78234836Y-20016942D01*
X78234836Y-19207419D01*
X78611027Y-19207419D01*
X78611027Y-20207419D01*
X78614833Y-20226553D01*
X78641893Y-20253613D01*
X78661027Y-20257419D01*
X79137217Y-20257419D01*
X79156351Y-20253613D01*
X79183411Y-20226553D01*
X79183411Y-20188285D01*
X79156351Y-20161225D01*
X79137217Y-20157419D01*
X78711027Y-20157419D01*
X78711027Y-19733609D01*
X78994360Y-19733609D01*
X79013494Y-19729803D01*
X79040554Y-19702743D01*
X79040554Y-19664475D01*
X79013494Y-19637415D01*
X78994360Y-19633609D01*
X78711027Y-19633609D01*
X78711027Y-19257419D01*
X79137217Y-19257419D01*
X79156351Y-19253613D01*
X79183411Y-19226553D01*
X79183411Y-19188285D01*
X79156351Y-19161225D01*
X79137217Y-19157419D01*
X78661027Y-19157419D01*
X78641893Y-19161225D01*
X78614833Y-19188285D01*
X78611027Y-19207419D01*
X78234836Y-19207419D01*
X78231030Y-19188285D01*
X78203970Y-19161225D01*
X78165702Y-19161225D01*
X78138642Y-19188285D01*
X78134836Y-19207419D01*
X78134836Y-20005138D01*
X78096124Y-20082561D01*
X78059978Y-20118708D01*
X77982557Y-20157419D01*
X77815688Y-20157419D01*
X77738265Y-20118708D01*
X77702119Y-20082561D01*
X77663408Y-20005139D01*
X77663408Y-19207419D01*
X77659602Y-19188285D01*
X77632542Y-19161225D01*
X77594274Y-19161225D01*
X77567214Y-19188285D01*
X77563408Y-19207419D01*
X76853884Y-19207419D01*
X76850078Y-19188285D01*
X76823018Y-19161225D01*
X76784750Y-19161225D01*
X76757690Y-19188285D01*
X76753884Y-19207419D01*
X76249021Y-19207419D01*
X76159578Y-19162698D01*
X76157162Y-19162036D01*
X76156351Y-19161225D01*
X76148489Y-19159661D01*
X76140762Y-19157545D01*
X76139673Y-19157907D01*
X76137217Y-19157419D01*
X75803884Y-19157419D01*
X75784750Y-19161225D01*
X75757690Y-19188285D01*
X75753884Y-19207419D01*
X75642773Y-19207419D01*
X75642773Y-19046308D01*
X79294522Y-19046308D01*
X79294522Y-20368530D01*
G37*
X6684211Y-15076466D02*
X7446116Y-15076466D01*
X72011905Y-22957419D02*
X72011905Y-21957419D01*
X72011905Y-21957419D02*
X72345238Y-22671704D01*
X72345238Y-22671704D02*
X72678571Y-21957419D01*
X72678571Y-21957419D02*
X72678571Y-22957419D01*
X73154762Y-22957419D02*
X73154762Y-21957419D01*
X73154762Y-21957419D02*
X73726190Y-22957419D01*
X73726190Y-22957419D02*
X73726190Y-21957419D01*
X74059524Y-21957419D02*
X74630952Y-21957419D01*
X74345238Y-22957419D02*
X74345238Y-21957419D01*
X1193884Y-21348609D02*
X1527217Y-21348609D01*
X1670074Y-21872419D02*
X1193884Y-21872419D01*
X1193884Y-21872419D02*
X1193884Y-20872419D01*
X1193884Y-20872419D02*
X1670074Y-20872419D01*
X2098646Y-21872419D02*
X2098646Y-20872419D01*
X2098646Y-20872419D02*
X2670074Y-21872419D01*
X2670074Y-21872419D02*
X2670074Y-20872419D01*
X3717693Y-21777180D02*
X3670074Y-21824800D01*
X3670074Y-21824800D02*
X3527217Y-21872419D01*
X3527217Y-21872419D02*
X3431979Y-21872419D01*
X3431979Y-21872419D02*
X3289122Y-21824800D01*
X3289122Y-21824800D02*
X3193884Y-21729561D01*
X3193884Y-21729561D02*
X3146265Y-21634323D01*
X3146265Y-21634323D02*
X3098646Y-21443847D01*
X3098646Y-21443847D02*
X3098646Y-21300990D01*
X3098646Y-21300990D02*
X3146265Y-21110514D01*
X3146265Y-21110514D02*
X3193884Y-21015276D01*
X3193884Y-21015276D02*
X3289122Y-20920038D01*
X3289122Y-20920038D02*
X3431979Y-20872419D01*
X3431979Y-20872419D02*
X3527217Y-20872419D01*
X3527217Y-20872419D02*
X3670074Y-20920038D01*
X3670074Y-20920038D02*
X3717693Y-20967657D01*
X4670074Y-21872419D02*
X4098646Y-21872419D01*
X4384360Y-21872419D02*
X4384360Y-20872419D01*
X4384360Y-20872419D02*
X4289122Y-21015276D01*
X4289122Y-21015276D02*
X4193884Y-21110514D01*
X4193884Y-21110514D02*
X4098646Y-21158133D01*
G36*
X76503065Y-9524929D02*
G01*
X76536600Y-9558465D01*
X76575312Y-9635888D01*
X76575312Y-9755138D01*
X76536600Y-9832561D01*
X76500454Y-9868708D01*
X76423033Y-9907419D01*
X76103884Y-9907419D01*
X76103884Y-9483609D01*
X76379104Y-9483609D01*
X76503065Y-9524929D01*
G37*
G36*
X76452837Y-9046130D02*
G01*
X76488981Y-9082275D01*
X76527693Y-9159698D01*
X76527693Y-9231329D01*
X76488981Y-9308752D01*
X76452837Y-9344897D01*
X76375414Y-9383609D01*
X76103884Y-9383609D01*
X76103884Y-9007419D01*
X76375414Y-9007419D01*
X76452837Y-9046130D01*
G37*
G36*
X78222608Y-9621704D02*
G01*
X77885160Y-9621704D01*
X78053884Y-9115532D01*
X78222608Y-9621704D01*
G37*
G36*
X80451526Y-10118530D02*
G01*
X75892773Y-10118530D01*
X75892773Y-8957419D01*
X76003884Y-8957419D01*
X76003884Y-9957419D01*
X76007690Y-9976553D01*
X76034750Y-10003613D01*
X76053884Y-10007419D01*
X76434836Y-10007419D01*
X76437292Y-10006930D01*
X76438381Y-10007293D01*
X76446108Y-10005176D01*
X76453970Y-10003613D01*
X76454781Y-10002801D01*
X76457197Y-10002140D01*
X76552434Y-9954522D01*
X76558761Y-9949611D01*
X76565430Y-9945155D01*
X76613049Y-9897535D01*
X76617502Y-9890869D01*
X76622414Y-9884541D01*
X76670033Y-9789303D01*
X76670694Y-9786887D01*
X76671506Y-9786076D01*
X76673069Y-9778214D01*
X76675186Y-9770487D01*
X76674823Y-9769398D01*
X76675312Y-9766942D01*
X76675312Y-9624085D01*
X76674823Y-9621628D01*
X76675186Y-9620540D01*
X76673069Y-9612812D01*
X76671506Y-9604951D01*
X76670694Y-9604139D01*
X76670033Y-9601724D01*
X76622414Y-9506486D01*
X76617502Y-9500157D01*
X76613048Y-9493491D01*
X76565429Y-9445873D01*
X76563346Y-9444481D01*
X76562833Y-9443455D01*
X76555872Y-9439487D01*
X76549208Y-9435034D01*
X76548060Y-9435034D01*
X76545885Y-9433794D01*
X76514724Y-9423407D01*
X76517810Y-9421345D01*
X76565429Y-9373727D01*
X76569883Y-9367060D01*
X76574795Y-9360732D01*
X76622414Y-9265494D01*
X76623075Y-9263078D01*
X76623887Y-9262267D01*
X76625450Y-9254405D01*
X76627567Y-9246678D01*
X76627204Y-9245589D01*
X76627693Y-9243133D01*
X76627693Y-9147895D01*
X76627204Y-9145438D01*
X76627567Y-9144350D01*
X76625450Y-9136622D01*
X76623887Y-9128761D01*
X76623075Y-9127949D01*
X76622414Y-9125534D01*
X76574795Y-9030296D01*
X76569883Y-9023967D01*
X76565429Y-9017301D01*
X76517810Y-8969683D01*
X76511148Y-8965231D01*
X76504815Y-8960316D01*
X76499021Y-8957419D01*
X77003884Y-8957419D01*
X77003884Y-9957419D01*
X77007690Y-9976553D01*
X77034750Y-10003613D01*
X77053884Y-10007419D01*
X77530074Y-10007419D01*
X77549208Y-10003613D01*
X77576268Y-9976553D01*
X77576268Y-9960963D01*
X77670677Y-9960963D01*
X77687791Y-9995192D01*
X77724095Y-10007293D01*
X77758324Y-9990179D01*
X77767985Y-9973230D01*
X77851827Y-9721704D01*
X78255941Y-9721704D01*
X78339783Y-9973230D01*
X78349444Y-9990178D01*
X78383673Y-10007293D01*
X78419977Y-9995191D01*
X78437091Y-9960963D01*
X78434651Y-9941607D01*
X78249445Y-9385990D01*
X78622932Y-9385990D01*
X78622932Y-9528847D01*
X78624127Y-9534856D01*
X78624425Y-9540974D01*
X78672044Y-9731450D01*
X78674383Y-9736402D01*
X78675830Y-9741684D01*
X78723448Y-9836921D01*
X78728359Y-9843249D01*
X78732814Y-9849916D01*
X78828053Y-9945155D01*
X78830134Y-9946545D01*
X78830648Y-9947573D01*
X78837613Y-9951543D01*
X78844274Y-9955994D01*
X78845422Y-9955994D01*
X78847597Y-9957234D01*
X78990453Y-10004853D01*
X78998403Y-10005855D01*
X79006265Y-10007419D01*
X79101503Y-10007419D01*
X79109365Y-10005855D01*
X79117314Y-10004853D01*
X79260171Y-9957234D01*
X79262346Y-9955994D01*
X79263495Y-9955994D01*
X79270165Y-9951536D01*
X79277119Y-9947573D01*
X79277631Y-9946547D01*
X79279716Y-9945155D01*
X79327335Y-9897535D01*
X79338173Y-9881314D01*
X79338173Y-9843045D01*
X79311113Y-9815986D01*
X79272844Y-9815986D01*
X79256623Y-9826825D01*
X79217350Y-9866098D01*
X79093390Y-9907419D01*
X79014378Y-9907419D01*
X78890418Y-9866099D01*
X78809262Y-9784942D01*
X78767727Y-9701872D01*
X78722932Y-9522692D01*
X78722932Y-9392145D01*
X78767727Y-9212965D01*
X78809263Y-9129893D01*
X78890416Y-9048739D01*
X79014378Y-9007419D01*
X79093390Y-9007419D01*
X79217351Y-9048739D01*
X79256623Y-9088012D01*
X79272844Y-9098851D01*
X79311113Y-9098851D01*
X79338173Y-9071791D01*
X79338173Y-9033522D01*
X79327334Y-9017301D01*
X79279715Y-8969683D01*
X79277632Y-8968291D01*
X79277119Y-8967265D01*
X79270158Y-8963297D01*
X79263494Y-8958844D01*
X79262346Y-8958844D01*
X79260171Y-8957604D01*
X79259616Y-8957419D01*
X79670551Y-8957419D01*
X79670551Y-9957419D01*
X79674357Y-9976553D01*
X79701417Y-10003613D01*
X79739685Y-10003613D01*
X79766745Y-9976553D01*
X79770551Y-9957419D01*
X79770551Y-9549557D01*
X79857997Y-9462110D01*
X80251979Y-9987419D01*
X80266504Y-10000443D01*
X80304388Y-10005855D01*
X80335003Y-9982894D01*
X80340415Y-9945010D01*
X80331979Y-9927419D01*
X79929426Y-9390681D01*
X80327334Y-8992774D01*
X80338173Y-8976553D01*
X80338173Y-8938285D01*
X80311113Y-8911225D01*
X80272845Y-8911225D01*
X80256624Y-8922064D01*
X79770551Y-9408137D01*
X79770551Y-8957419D01*
X79766745Y-8938285D01*
X79739685Y-8911225D01*
X79701417Y-8911225D01*
X79674357Y-8938285D01*
X79670551Y-8957419D01*
X79259616Y-8957419D01*
X79117314Y-8909985D01*
X79109365Y-8908982D01*
X79101503Y-8907419D01*
X79006265Y-8907419D01*
X78998403Y-8908982D01*
X78990453Y-8909985D01*
X78847597Y-8957604D01*
X78845422Y-8958844D01*
X78844274Y-8958844D01*
X78837613Y-8963294D01*
X78830648Y-8967265D01*
X78830134Y-8968292D01*
X78828053Y-8969683D01*
X78732815Y-9064921D01*
X78728363Y-9071582D01*
X78723448Y-9077916D01*
X78675830Y-9173153D01*
X78674383Y-9178434D01*
X78672044Y-9183387D01*
X78624425Y-9373863D01*
X78624127Y-9379980D01*
X78622932Y-9385990D01*
X78249445Y-9385990D01*
X78101318Y-8941608D01*
X78091657Y-8924659D01*
X78088314Y-8922987D01*
X78086644Y-8919647D01*
X78071607Y-8914634D01*
X78057428Y-8907545D01*
X78053883Y-8908726D01*
X78050340Y-8907545D01*
X78036166Y-8914632D01*
X78021124Y-8919646D01*
X78019452Y-8922989D01*
X78016111Y-8924660D01*
X78006450Y-8941608D01*
X77673117Y-9941608D01*
X77670677Y-9960963D01*
X77576268Y-9960963D01*
X77576268Y-9938285D01*
X77549208Y-9911225D01*
X77530074Y-9907419D01*
X77103884Y-9907419D01*
X77103884Y-8957419D01*
X77100078Y-8938285D01*
X77073018Y-8911225D01*
X77034750Y-8911225D01*
X77007690Y-8938285D01*
X77003884Y-8957419D01*
X76499021Y-8957419D01*
X76409578Y-8912698D01*
X76407162Y-8912036D01*
X76406351Y-8911225D01*
X76398489Y-8909661D01*
X76390762Y-8907545D01*
X76389673Y-8907907D01*
X76387217Y-8907419D01*
X76053884Y-8907419D01*
X76034750Y-8911225D01*
X76007690Y-8938285D01*
X76003884Y-8957419D01*
X75892773Y-8957419D01*
X75892773Y-8796308D01*
X80451526Y-8796308D01*
X80451526Y-10118530D01*
G37*
X6684211Y-13076466D02*
X7446116Y-13076466D01*
X7065163Y-13457419D02*
X7065163Y-12695514D01*
X58511905Y-3707419D02*
X58511905Y-2707419D01*
X58511905Y-2707419D02*
X58845238Y-3421704D01*
X58845238Y-3421704D02*
X59178571Y-2707419D01*
X59178571Y-2707419D02*
X59178571Y-3707419D01*
X59654762Y-3707419D02*
X59654762Y-2707419D01*
X59654762Y-2707419D02*
X60226190Y-3707419D01*
X60226190Y-3707419D02*
X60226190Y-2707419D01*
X60559524Y-2707419D02*
X61130952Y-2707419D01*
X60845238Y-3707419D02*
X60845238Y-2707419D01*
G36*
X79881410Y-16796131D02*
G01*
X79961116Y-16875837D01*
X80003884Y-17046907D01*
X80003884Y-17367930D01*
X79961116Y-17538999D01*
X79881408Y-17618708D01*
X79803986Y-17657419D01*
X79637117Y-17657419D01*
X79559694Y-17618707D01*
X79479985Y-17538998D01*
X79437218Y-17367930D01*
X79437218Y-17046907D01*
X79479985Y-16875837D01*
X79559691Y-16796131D01*
X79637117Y-16757419D01*
X79803986Y-16757419D01*
X79881410Y-16796131D01*
G37*
G36*
X81404842Y-17868530D02*
G01*
X75750671Y-17868530D01*
X75750671Y-16716077D01*
X75861782Y-16716077D01*
X75868844Y-16734263D01*
X76194360Y-17245788D01*
X76194360Y-17707419D01*
X76198166Y-17726553D01*
X76225226Y-17753613D01*
X76263494Y-17753613D01*
X76290554Y-17726553D01*
X76294360Y-17707419D01*
X76294360Y-17245788D01*
X76619876Y-16734263D01*
X76626938Y-16716077D01*
X76625014Y-16707419D01*
X76861027Y-16707419D01*
X76861027Y-17707419D01*
X76864833Y-17726553D01*
X76891893Y-17753613D01*
X76911027Y-17757419D01*
X77387217Y-17757419D01*
X77406351Y-17753613D01*
X77433411Y-17726553D01*
X77433411Y-17688285D01*
X77406351Y-17661225D01*
X77387217Y-17657419D01*
X76961027Y-17657419D01*
X76961027Y-17233609D01*
X77244360Y-17233609D01*
X77263494Y-17229803D01*
X77290554Y-17202743D01*
X77290554Y-17164475D01*
X77263494Y-17137415D01*
X77244360Y-17133609D01*
X76961027Y-17133609D01*
X76961027Y-16757419D01*
X77387217Y-16757419D01*
X77406351Y-16753613D01*
X77433411Y-16726553D01*
X77433411Y-16707419D01*
X77765789Y-16707419D01*
X77765789Y-17707419D01*
X77769595Y-17726553D01*
X77796655Y-17753613D01*
X77815789Y-17757419D01*
X78291979Y-17757419D01*
X78311113Y-17753613D01*
X78338173Y-17726553D01*
X78338173Y-17688285D01*
X78311113Y-17661225D01*
X78291979Y-17657419D01*
X77865789Y-17657419D01*
X77865789Y-16707419D01*
X78575313Y-16707419D01*
X78575313Y-17707419D01*
X78579119Y-17726553D01*
X78606179Y-17753613D01*
X78625313Y-17757419D01*
X79101503Y-17757419D01*
X79120637Y-17753613D01*
X79147697Y-17726553D01*
X79147697Y-17688285D01*
X79120637Y-17661225D01*
X79101503Y-17657419D01*
X78675313Y-17657419D01*
X78675313Y-17040752D01*
X79337218Y-17040752D01*
X79337218Y-17374085D01*
X79338413Y-17380094D01*
X79338711Y-17386212D01*
X79386330Y-17576688D01*
X79388643Y-17581584D01*
X79388643Y-17583695D01*
X79392047Y-17588790D01*
X79394663Y-17594327D01*
X79396471Y-17595412D01*
X79399481Y-17599916D01*
X79494720Y-17695155D01*
X79501379Y-17699605D01*
X79507714Y-17704521D01*
X79602952Y-17752140D01*
X79605367Y-17752801D01*
X79606179Y-17753613D01*
X79614040Y-17755176D01*
X79621768Y-17757293D01*
X79622856Y-17756930D01*
X79625313Y-17757419D01*
X79815789Y-17757419D01*
X79818245Y-17756930D01*
X79819334Y-17757293D01*
X79827061Y-17755176D01*
X79834923Y-17753613D01*
X79835734Y-17752801D01*
X79838150Y-17752140D01*
X79933387Y-17704522D01*
X79939714Y-17699611D01*
X79946383Y-17695155D01*
X80041621Y-17599916D01*
X80044630Y-17595412D01*
X80046439Y-17594327D01*
X80049054Y-17588790D01*
X80052459Y-17583695D01*
X80052459Y-17581584D01*
X80054772Y-17576688D01*
X80102391Y-17386212D01*
X80102688Y-17380094D01*
X80103884Y-17374085D01*
X80103884Y-17040752D01*
X80102688Y-17034742D01*
X80102391Y-17028625D01*
X80054772Y-16838149D01*
X80052459Y-16833252D01*
X80052459Y-16831142D01*
X80049055Y-16826048D01*
X80046439Y-16820510D01*
X80044628Y-16819423D01*
X80041620Y-16814921D01*
X79946382Y-16719683D01*
X79939720Y-16715231D01*
X79933387Y-16710316D01*
X79911765Y-16699505D01*
X80337848Y-16699505D01*
X80338578Y-16719000D01*
X80576673Y-17719000D01*
X80584807Y-17736732D01*
X80591176Y-17740651D01*
X80594923Y-17747123D01*
X80606868Y-17750308D01*
X80617399Y-17756789D01*
X80624674Y-17755056D01*
X80631898Y-17756983D01*
X80642596Y-17750789D01*
X80654626Y-17747925D01*
X80658545Y-17741555D01*
X80665017Y-17737809D01*
X80673625Y-17720302D01*
X80815789Y-17187186D01*
X80957953Y-17720302D01*
X80966561Y-17737810D01*
X80973033Y-17741557D01*
X80976952Y-17747925D01*
X80988978Y-17750788D01*
X80999680Y-17756984D01*
X81006905Y-17755057D01*
X81014179Y-17756789D01*
X81024708Y-17750308D01*
X81036655Y-17747123D01*
X81040401Y-17740651D01*
X81046771Y-17736732D01*
X81054905Y-17719000D01*
X81293001Y-16719000D01*
X81293731Y-16699505D01*
X81273674Y-16666913D01*
X81236447Y-16658049D01*
X81203855Y-16678106D01*
X81195721Y-16695838D01*
X81003520Y-17503075D01*
X80864101Y-16980250D01*
X80855493Y-16962743D01*
X80849594Y-16959327D01*
X80846179Y-16953429D01*
X80833619Y-16950079D01*
X80822374Y-16943569D01*
X80815790Y-16945324D01*
X80809204Y-16943568D01*
X80797954Y-16950080D01*
X80785399Y-16953429D01*
X80781984Y-16959326D01*
X80776085Y-16962742D01*
X80767477Y-16980250D01*
X80628057Y-17503075D01*
X80435858Y-16695838D01*
X80427724Y-16678106D01*
X80395132Y-16658049D01*
X80357905Y-16666913D01*
X80337848Y-16699505D01*
X79911765Y-16699505D01*
X79838150Y-16662698D01*
X79835734Y-16662036D01*
X79834923Y-16661225D01*
X79827061Y-16659661D01*
X79819334Y-16657545D01*
X79818245Y-16657907D01*
X79815789Y-16657419D01*
X79625313Y-16657419D01*
X79622856Y-16657907D01*
X79621768Y-16657545D01*
X79614040Y-16659661D01*
X79606179Y-16661225D01*
X79605367Y-16662036D01*
X79602952Y-16662698D01*
X79507714Y-16710317D01*
X79501379Y-16715232D01*
X79494720Y-16719683D01*
X79399482Y-16814921D01*
X79396473Y-16819423D01*
X79394663Y-16820510D01*
X79392046Y-16826048D01*
X79388643Y-16831142D01*
X79388643Y-16833252D01*
X79386330Y-16838149D01*
X79338711Y-17028625D01*
X79338413Y-17034742D01*
X79337218Y-17040752D01*
X78675313Y-17040752D01*
X78675313Y-16707419D01*
X78671507Y-16688285D01*
X78644447Y-16661225D01*
X78606179Y-16661225D01*
X78579119Y-16688285D01*
X78575313Y-16707419D01*
X77865789Y-16707419D01*
X77861983Y-16688285D01*
X77834923Y-16661225D01*
X77796655Y-16661225D01*
X77769595Y-16688285D01*
X77765789Y-16707419D01*
X77433411Y-16707419D01*
X77433411Y-16688285D01*
X77406351Y-16661225D01*
X77387217Y-16657419D01*
X76911027Y-16657419D01*
X76891893Y-16661225D01*
X76864833Y-16688285D01*
X76861027Y-16707419D01*
X76625014Y-16707419D01*
X76618636Y-16678719D01*
X76586351Y-16658174D01*
X76548994Y-16666476D01*
X76535510Y-16680575D01*
X76244360Y-17138096D01*
X75953210Y-16680575D01*
X75939727Y-16666476D01*
X75902369Y-16658174D01*
X75870084Y-16678719D01*
X75861782Y-16716077D01*
X75750671Y-16716077D01*
X75750671Y-16546308D01*
X81404842Y-16546308D01*
X81404842Y-17868530D01*
G37*
G36*
X78312589Y-11548739D02*
G01*
X78393742Y-11629892D01*
X78435279Y-11712966D01*
X78480074Y-11892145D01*
X78480074Y-12022692D01*
X78435279Y-12201870D01*
X78393742Y-12284944D01*
X78312588Y-12366098D01*
X78188628Y-12407419D01*
X78008646Y-12407419D01*
X78008646Y-11507419D01*
X78188628Y-11507419D01*
X78312589Y-11548739D01*
G37*
G36*
X76500456Y-11546130D02*
G01*
X76536600Y-11582275D01*
X76575312Y-11659698D01*
X76575312Y-11778948D01*
X76536600Y-11856371D01*
X76500456Y-11892516D01*
X76423033Y-11931228D01*
X76103884Y-11931228D01*
X76103884Y-11507419D01*
X76423033Y-11507419D01*
X76500456Y-11546130D01*
G37*
G36*
X78691185Y-12618530D02*
G01*
X75892773Y-12618530D01*
X75892773Y-11457419D01*
X76003884Y-11457419D01*
X76003884Y-12457419D01*
X76007690Y-12476553D01*
X76034750Y-12503613D01*
X76073018Y-12503613D01*
X76100078Y-12476553D01*
X76103884Y-12457419D01*
X76103884Y-12031228D01*
X76265946Y-12031228D01*
X76584350Y-12486092D01*
X76598441Y-12499585D01*
X76636127Y-12506235D01*
X76667478Y-12484290D01*
X76674128Y-12446604D01*
X76666274Y-12428746D01*
X76388012Y-12031228D01*
X76434836Y-12031228D01*
X76437292Y-12030739D01*
X76438381Y-12031102D01*
X76446108Y-12028985D01*
X76453970Y-12027422D01*
X76454781Y-12026610D01*
X76457197Y-12025949D01*
X76552434Y-11978331D01*
X76558767Y-11973415D01*
X76565429Y-11968964D01*
X76613048Y-11921346D01*
X76617502Y-11914679D01*
X76622414Y-11908351D01*
X76670033Y-11813113D01*
X76670694Y-11810697D01*
X76671506Y-11809886D01*
X76673069Y-11802024D01*
X76675186Y-11794297D01*
X76674823Y-11793208D01*
X76675312Y-11790752D01*
X76675312Y-11647895D01*
X76674823Y-11645438D01*
X76675186Y-11644350D01*
X76673069Y-11636622D01*
X76671506Y-11628761D01*
X76670694Y-11627949D01*
X76670033Y-11625534D01*
X76622414Y-11530296D01*
X76617502Y-11523967D01*
X76613048Y-11517301D01*
X76565429Y-11469683D01*
X76558767Y-11465231D01*
X76552434Y-11460316D01*
X76546640Y-11457419D01*
X77003884Y-11457419D01*
X77003884Y-12457419D01*
X77007690Y-12476553D01*
X77034750Y-12503613D01*
X77053884Y-12507419D01*
X77530074Y-12507419D01*
X77549208Y-12503613D01*
X77576268Y-12476553D01*
X77576268Y-12438285D01*
X77549208Y-12411225D01*
X77530074Y-12407419D01*
X77103884Y-12407419D01*
X77103884Y-11983609D01*
X77387217Y-11983609D01*
X77406351Y-11979803D01*
X77433411Y-11952743D01*
X77433411Y-11914475D01*
X77406351Y-11887415D01*
X77387217Y-11883609D01*
X77103884Y-11883609D01*
X77103884Y-11507419D01*
X77530074Y-11507419D01*
X77549208Y-11503613D01*
X77576268Y-11476553D01*
X77576268Y-11457419D01*
X77908646Y-11457419D01*
X77908646Y-12457419D01*
X77912452Y-12476553D01*
X77939512Y-12503613D01*
X77958646Y-12507419D01*
X78196741Y-12507419D01*
X78204603Y-12505855D01*
X78212552Y-12504853D01*
X78355409Y-12457234D01*
X78357584Y-12455994D01*
X78358733Y-12455994D01*
X78365403Y-12451536D01*
X78372357Y-12447573D01*
X78372869Y-12446547D01*
X78374954Y-12445155D01*
X78470192Y-12349916D01*
X78474645Y-12343250D01*
X78479557Y-12336922D01*
X78527176Y-12241684D01*
X78528622Y-12236402D01*
X78530962Y-12231450D01*
X78578581Y-12040974D01*
X78578878Y-12034856D01*
X78580074Y-12028847D01*
X78580074Y-11885990D01*
X78578878Y-11879980D01*
X78578581Y-11873863D01*
X78530962Y-11683387D01*
X78528622Y-11678434D01*
X78527176Y-11673153D01*
X78479557Y-11577915D01*
X78474641Y-11571580D01*
X78470191Y-11564921D01*
X78374953Y-11469683D01*
X78372870Y-11468291D01*
X78372357Y-11467265D01*
X78365396Y-11463297D01*
X78358732Y-11458844D01*
X78357584Y-11458844D01*
X78355409Y-11457604D01*
X78212552Y-11409985D01*
X78204603Y-11408982D01*
X78196741Y-11407419D01*
X77958646Y-11407419D01*
X77939512Y-11411225D01*
X77912452Y-11438285D01*
X77908646Y-11457419D01*
X77576268Y-11457419D01*
X77576268Y-11438285D01*
X77549208Y-11411225D01*
X77530074Y-11407419D01*
X77053884Y-11407419D01*
X77034750Y-11411225D01*
X77007690Y-11438285D01*
X77003884Y-11457419D01*
X76546640Y-11457419D01*
X76457197Y-11412698D01*
X76454781Y-11412036D01*
X76453970Y-11411225D01*
X76446108Y-11409661D01*
X76438381Y-11407545D01*
X76437292Y-11407907D01*
X76434836Y-11407419D01*
X76053884Y-11407419D01*
X76034750Y-11411225D01*
X76007690Y-11438285D01*
X76003884Y-11457419D01*
X75892773Y-11457419D01*
X75892773Y-11296308D01*
X78691185Y-11296308D01*
X78691185Y-12618530D01*
G37*
D11*
%TO.C,C503*%
X17504000Y-10083733D02*
X17504000Y-10376267D01*
X18524000Y-10083733D02*
X18524000Y-10376267D01*
D12*
%TO.C,TP101*%
X70900000Y-7000000D02*
G75*
G02*
X68100000Y-7000000I-1400000J0D01*
G01*
X68100000Y-7000000D02*
G75*
G02*
X70900000Y-7000000I1400000J0D01*
G01*
D11*
%TO.C,TP401*%
X37450000Y-26000000D02*
G75*
G02*
X35550000Y-26000000I-950000J0D01*
G01*
X35550000Y-26000000D02*
G75*
G02*
X37450000Y-26000000I950000J0D01*
G01*
%TO.C,TP505*%
X20950000Y-10250000D02*
G75*
G02*
X19050000Y-10250000I-950000J0D01*
G01*
X19050000Y-10250000D02*
G75*
G02*
X20950000Y-10250000I950000J0D01*
G01*
%TO.C,C401*%
X24146267Y-2740000D02*
X23853733Y-2740000D01*
X24146267Y-3760000D02*
X23853733Y-3760000D01*
%TO.C,R305*%
X47727500Y-12754724D02*
X47727500Y-12245276D01*
X48772500Y-12754724D02*
X48772500Y-12245276D01*
%TO.C,R505*%
X1977500Y-18495276D02*
X1977500Y-19004724D01*
X3022500Y-18495276D02*
X3022500Y-19004724D01*
%TO.C,TP204*%
X65200000Y-15750000D02*
G75*
G02*
X63300000Y-15750000I-950000J0D01*
G01*
X63300000Y-15750000D02*
G75*
G02*
X65200000Y-15750000I950000J0D01*
G01*
%TO.C,R516*%
X4477064Y-8340000D02*
X3022936Y-8340000D01*
X4477064Y-10160000D02*
X3022936Y-10160000D01*
%TO.C,C205*%
X53238748Y-19515000D02*
X53761252Y-19515000D01*
X53238748Y-20985000D02*
X53761252Y-20985000D01*
%TO.C,C204*%
X53238748Y-17515000D02*
X53761252Y-17515000D01*
X53238748Y-18985000D02*
X53761252Y-18985000D01*
%TO.C,R512*%
X15728724Y-23169500D02*
X15219276Y-23169500D01*
X15728724Y-24214500D02*
X15219276Y-24214500D01*
%TO.C,C501*%
X17504000Y-20751733D02*
X17504000Y-21044267D01*
X18524000Y-20751733D02*
X18524000Y-21044267D01*
%TO.C,R304*%
X64254724Y-11227500D02*
X63745276Y-11227500D01*
X64254724Y-12272500D02*
X63745276Y-12272500D01*
%TO.C,TP203*%
X48700000Y-19250000D02*
G75*
G02*
X46800000Y-19250000I-950000J0D01*
G01*
X46800000Y-19250000D02*
G75*
G02*
X48700000Y-19250000I950000J0D01*
G01*
%TO.C,R515*%
X15728724Y-12501500D02*
X15219276Y-12501500D01*
X15728724Y-13546500D02*
X15219276Y-13546500D01*
%TO.C,R302*%
X63745276Y-9227500D02*
X64254724Y-9227500D01*
X63745276Y-10272500D02*
X64254724Y-10272500D01*
%TO.C,C505*%
X17504000Y-24600267D02*
X17504000Y-24307733D01*
X18524000Y-24600267D02*
X18524000Y-24307733D01*
%TO.C,U401*%
X22890000Y-22730000D02*
X22890000Y-23630000D01*
X22890000Y-23630000D02*
X25575000Y-23630000D01*
X23200000Y-4210000D02*
X41110000Y-4210000D01*
X38425000Y-23630000D02*
X41110000Y-23630000D01*
X41110000Y-4210000D02*
X41110000Y-4800000D01*
X41110000Y-22730000D02*
X41110000Y-23630000D01*
X22890000Y-4770000D02*
X22390000Y-4770000D01*
X22890000Y-4270000D01*
X22890000Y-4770000D01*
G36*
X22890000Y-4770000D02*
G01*
X22390000Y-4770000D01*
X22890000Y-4270000D01*
X22890000Y-4770000D01*
G37*
%TO.C,Q501*%
X3690000Y-19000000D02*
X3690000Y-18350000D01*
X3690000Y-19000000D02*
X3690000Y-19650000D01*
X6810000Y-19000000D02*
X6810000Y-18350000D01*
X6810000Y-19000000D02*
X6810000Y-19650000D01*
X3740000Y-20162500D02*
X3410000Y-20402500D01*
X3410000Y-19922500D01*
X3740000Y-20162500D01*
G36*
X3740000Y-20162500D02*
G01*
X3410000Y-20402500D01*
X3410000Y-19922500D01*
X3740000Y-20162500D01*
G37*
%TO.C,R301*%
X54754724Y-6227500D02*
X54245276Y-6227500D01*
X54754724Y-7272500D02*
X54245276Y-7272500D01*
%TO.C,TP304*%
X27450000Y-25750000D02*
G75*
G02*
X25550000Y-25750000I-950000J0D01*
G01*
X25550000Y-25750000D02*
G75*
G02*
X27450000Y-25750000I950000J0D01*
G01*
%TO.C,R504*%
X15219276Y-16057500D02*
X15728724Y-16057500D01*
X15219276Y-17102500D02*
X15728724Y-17102500D01*
%TO.C,J502*%
X7640000Y-16360000D02*
X7640000Y-17610000D01*
X7640000Y-17610000D02*
X8890000Y-17610000D01*
X7740000Y-15550000D02*
X7740000Y-15850000D01*
X7740000Y-15850000D02*
X7940000Y-15850000D01*
X7840000Y-15550000D02*
X7840000Y-15850000D01*
X7940000Y-11190000D02*
X7940000Y-17310000D01*
X7940000Y-14750000D02*
X8550000Y-14750000D01*
X7940000Y-15550000D02*
X7740000Y-15550000D01*
X7940000Y-17310000D02*
X12660000Y-17310000D01*
X8550000Y-11800000D02*
X8550000Y-13750000D01*
X8550000Y-13750000D02*
X7940000Y-13750000D01*
X8550000Y-14750000D02*
X8550000Y-16700000D01*
X8550000Y-16700000D02*
X12050000Y-16700000D01*
X9250000Y-11190000D02*
X9250000Y-11800000D01*
X9250000Y-17310000D02*
X9250000Y-16700000D01*
X10550000Y-11190000D02*
X10550000Y-11800000D01*
X10550000Y-17310000D02*
X10550000Y-16700000D01*
X11550000Y-14150000D02*
X12050000Y-14150000D01*
X11550000Y-14350000D02*
X11550000Y-14150000D01*
X12050000Y-11800000D02*
X8550000Y-11800000D01*
X12050000Y-14250000D02*
X11550000Y-14250000D01*
X12050000Y-14350000D02*
X11550000Y-14350000D01*
X12050000Y-16700000D02*
X12050000Y-11800000D01*
X12660000Y-11190000D02*
X7940000Y-11190000D01*
X12660000Y-17310000D02*
X12660000Y-11190000D01*
%TO.C,U501*%
X7140000Y-19550000D02*
X7140000Y-20550000D01*
X9860000Y-19550000D02*
X9860000Y-20550000D01*
X7190000Y-21220000D02*
X6910000Y-20940000D01*
X7190000Y-20940000D01*
X7190000Y-21220000D01*
G36*
X7190000Y-21220000D02*
G01*
X6910000Y-20940000D01*
X7190000Y-20940000D01*
X7190000Y-21220000D01*
G37*
%TO.C,IC301*%
X57500000Y-8190000D02*
X55550000Y-8190000D01*
X57500000Y-8190000D02*
X59450000Y-8190000D01*
X57500000Y-13310000D02*
X55550000Y-13310000D01*
X57500000Y-13310000D02*
X59450000Y-13310000D01*
X54800000Y-8285000D02*
X54560000Y-7955000D01*
X55040000Y-7955000D01*
X54800000Y-8285000D01*
G36*
X54800000Y-8285000D02*
G01*
X54560000Y-7955000D01*
X55040000Y-7955000D01*
X54800000Y-8285000D01*
G37*
%TO.C,TP303*%
X47200000Y-10750000D02*
G75*
G02*
X45300000Y-10750000I-950000J0D01*
G01*
X45300000Y-10750000D02*
G75*
G02*
X47200000Y-10750000I950000J0D01*
G01*
%TO.C,R509*%
X15219276Y-7167500D02*
X15728724Y-7167500D01*
X15219276Y-8212500D02*
X15728724Y-8212500D01*
%TO.C,C502*%
X17504000Y-17488267D02*
X17504000Y-17195733D01*
X18524000Y-17488267D02*
X18524000Y-17195733D01*
%TO.C,C506*%
X17504000Y-13932267D02*
X17504000Y-13639733D01*
X18524000Y-13932267D02*
X18524000Y-13639733D01*
%TO.C,R513*%
X15219276Y-24947500D02*
X15728724Y-24947500D01*
X15219276Y-25992500D02*
X15728724Y-25992500D01*
%TO.C,JP304*%
X49250000Y-10750000D02*
X49250000Y-11350000D01*
X49550000Y-11050000D02*
X49250000Y-10750000D01*
X49550000Y-11050000D02*
X49250000Y-11350000D01*
X49750000Y-13650000D02*
X49750000Y-10850000D01*
X50450000Y-10200000D02*
X51050000Y-10200000D01*
X51050000Y-14300000D02*
X50450000Y-14300000D01*
X51750000Y-10850000D02*
X51750000Y-13650000D01*
X49750000Y-10900000D02*
G75*
G02*
X50450000Y-10200000I699999J1D01*
G01*
X50450000Y-14300000D02*
G75*
G02*
X49750000Y-13600000I0J700000D01*
G01*
X51050000Y-10200000D02*
G75*
G02*
X51750000Y-10900000I1J-699999D01*
G01*
X51750000Y-13600000D02*
G75*
G02*
X51050000Y-14300000I-700000J0D01*
G01*
%TO.C,R511*%
X15245276Y-5477500D02*
X15754724Y-5477500D01*
X15245276Y-6522500D02*
X15754724Y-6522500D01*
%TO.C,R503*%
X19227500Y-23995276D02*
X19227500Y-24504724D01*
X20272500Y-23995276D02*
X20272500Y-24504724D01*
%TO.C,J101*%
X71980000Y-3240000D02*
X73250000Y-3240000D01*
X71980000Y-4510000D02*
X71980000Y-3240000D01*
%TO.C,R502*%
X15728724Y-19613500D02*
X15219276Y-19613500D01*
X15728724Y-20658500D02*
X15219276Y-20658500D01*
%TO.C,TP302*%
X44950000Y-13000000D02*
G75*
G02*
X43050000Y-13000000I-950000J0D01*
G01*
X43050000Y-13000000D02*
G75*
G02*
X44950000Y-13000000I950000J0D01*
G01*
%TO.C,C201*%
X59146267Y-25490000D02*
X58853733Y-25490000D01*
X59146267Y-26510000D02*
X58853733Y-26510000D01*
%TO.C,D401*%
X31200000Y-26459000D02*
X33660000Y-26459000D01*
X33660000Y-24989000D02*
X31200000Y-24989000D01*
X33660000Y-26459000D02*
X33660000Y-24989000D01*
%TO.C,R201*%
X49727500Y-17254724D02*
X49727500Y-16745276D01*
X50772500Y-17254724D02*
X50772500Y-16745276D01*
%TO.C,F201*%
X66590000Y-21397936D02*
X66590000Y-22602064D01*
X68410000Y-21397936D02*
X68410000Y-22602064D01*
%TO.C,TP506*%
X20950000Y-14750000D02*
G75*
G02*
X19050000Y-14750000I-950000J0D01*
G01*
X19050000Y-14750000D02*
G75*
G02*
X20950000Y-14750000I950000J0D01*
G01*
%TO.C,TP501*%
X20950000Y-19250000D02*
G75*
G02*
X19050000Y-19250000I-950000J0D01*
G01*
X19050000Y-19250000D02*
G75*
G02*
X20950000Y-19250000I950000J0D01*
G01*
%TO.C,TP103*%
X62700000Y-14750000D02*
G75*
G02*
X60800000Y-14750000I-950000J0D01*
G01*
X60800000Y-14750000D02*
G75*
G02*
X62700000Y-14750000I950000J0D01*
G01*
%TO.C,U201*%
X59750000Y-21440000D02*
X58950000Y-21440000D01*
X59750000Y-21440000D02*
X60550000Y-21440000D01*
X59750000Y-24560000D02*
X58950000Y-24560000D01*
X59750000Y-24560000D02*
X60550000Y-24560000D01*
X61290000Y-24840000D02*
X60810000Y-24840000D01*
X61050000Y-24510000D01*
X61290000Y-24840000D01*
G36*
X61290000Y-24840000D02*
G01*
X60810000Y-24840000D01*
X61050000Y-24510000D01*
X61290000Y-24840000D01*
G37*
%TO.C,D202*%
X62600000Y-17490000D02*
X62600000Y-24500000D01*
X65900000Y-17490000D02*
X62600000Y-17490000D01*
X65900000Y-17490000D02*
X65900000Y-24500000D01*
%TO.C,TP201*%
X57200000Y-16250000D02*
G75*
G02*
X55300000Y-16250000I-950000J0D01*
G01*
X55300000Y-16250000D02*
G75*
G02*
X57200000Y-16250000I950000J0D01*
G01*
%TO.C,L201*%
X52240000Y-21740000D02*
X52240000Y-21890000D01*
X52240000Y-26260000D02*
X52240000Y-26110000D01*
X56760000Y-21740000D02*
X52240000Y-21740000D01*
X56760000Y-21740000D02*
X56760000Y-21890000D01*
X56760000Y-26260000D02*
X52240000Y-26260000D01*
X56760000Y-26260000D02*
X56760000Y-26110000D01*
%TO.C,R508*%
X15219276Y-10723500D02*
X15728724Y-10723500D01*
X15219276Y-11768500D02*
X15728724Y-11768500D01*
%TO.C,R514*%
X15219276Y-14279500D02*
X15728724Y-14279500D01*
X15219276Y-15324500D02*
X15728724Y-15324500D01*
%TO.C,R401*%
X20245276Y-7727500D02*
X20754724Y-7727500D01*
X20245276Y-8772500D02*
X20754724Y-8772500D01*
%TO.C,C402*%
X18765000Y-5761252D02*
X18765000Y-5238748D01*
X20235000Y-5761252D02*
X20235000Y-5238748D01*
%TO.C,TP301*%
X47200000Y-14250000D02*
G75*
G02*
X45300000Y-14250000I-950000J0D01*
G01*
X45300000Y-14250000D02*
G75*
G02*
X47200000Y-14250000I950000J0D01*
G01*
%TO.C,C301*%
X60603733Y-6740000D02*
X60896267Y-6740000D01*
X60603733Y-7760000D02*
X60896267Y-7760000D01*
%TO.C,D301*%
X69500000Y-11940000D02*
X68850000Y-11940000D01*
X69500000Y-11940000D02*
X70150000Y-11940000D01*
X69500000Y-15060000D02*
X68850000Y-15060000D01*
X69500000Y-15060000D02*
X70150000Y-15060000D01*
X68337500Y-11990000D02*
X68097500Y-11660000D01*
X68577500Y-11660000D01*
X68337500Y-11990000D01*
G36*
X68337500Y-11990000D02*
G01*
X68097500Y-11660000D01*
X68577500Y-11660000D01*
X68337500Y-11990000D01*
G37*
%TO.C,TP503*%
X20950000Y-21500000D02*
G75*
G02*
X19050000Y-21500000I-950000J0D01*
G01*
X19050000Y-21500000D02*
G75*
G02*
X20950000Y-21500000I950000J0D01*
G01*
%TO.C,TP502*%
X20950000Y-17000000D02*
G75*
G02*
X19050000Y-17000000I-950000J0D01*
G01*
X19050000Y-17000000D02*
G75*
G02*
X20950000Y-17000000I950000J0D01*
G01*
%TO.C,J401*%
X48270000Y-6480000D02*
X48270000Y-7115000D01*
X48270000Y-7115000D02*
X47635000Y-7115000D01*
%TO.C,TP102*%
X70950000Y-19750000D02*
G75*
G02*
X69050000Y-19750000I-950000J0D01*
G01*
X69050000Y-19750000D02*
G75*
G02*
X70950000Y-19750000I950000J0D01*
G01*
%TO.C,TP504*%
X20950000Y-12500000D02*
G75*
G02*
X19050000Y-12500000I-950000J0D01*
G01*
X19050000Y-12500000D02*
G75*
G02*
X20950000Y-12500000I950000J0D01*
G01*
%TO.C,C504*%
X15620267Y-3878000D02*
X15327733Y-3878000D01*
X15620267Y-4898000D02*
X15327733Y-4898000D01*
%TO.C,J504*%
X890000Y-22390000D02*
X890000Y-23640000D01*
X1190000Y-22690000D02*
X1190000Y-27410000D01*
X1190000Y-24000000D02*
X1800000Y-24000000D01*
X1190000Y-25300000D02*
X1800000Y-25300000D01*
X1190000Y-27410000D02*
X13310000Y-27410000D01*
X1800000Y-23300000D02*
X1800000Y-26800000D01*
X1800000Y-26800000D02*
X12700000Y-26800000D01*
X2140000Y-22390000D02*
X890000Y-22390000D01*
X2650000Y-22490000D02*
X2650000Y-22690000D01*
X2950000Y-22490000D02*
X2650000Y-22490000D01*
X2950000Y-22590000D02*
X2650000Y-22590000D01*
X2950000Y-22690000D02*
X2950000Y-22490000D01*
X3750000Y-22690000D02*
X3750000Y-23300000D01*
X3750000Y-23300000D02*
X1800000Y-23300000D01*
X4150000Y-26300000D02*
X4350000Y-26300000D01*
X4150000Y-26800000D02*
X4150000Y-26300000D01*
X4250000Y-26800000D02*
X4250000Y-26300000D01*
X4350000Y-26300000D02*
X4350000Y-26800000D01*
X6150000Y-26300000D02*
X6350000Y-26300000D01*
X6150000Y-26800000D02*
X6150000Y-26300000D01*
X6250000Y-26800000D02*
X6250000Y-26300000D01*
X6350000Y-26300000D02*
X6350000Y-26800000D01*
X8150000Y-26300000D02*
X8350000Y-26300000D01*
X8150000Y-26800000D02*
X8150000Y-26300000D01*
X8250000Y-26800000D02*
X8250000Y-26300000D01*
X8350000Y-26300000D02*
X8350000Y-26800000D01*
X10150000Y-26300000D02*
X10350000Y-26300000D01*
X10150000Y-26800000D02*
X10150000Y-26300000D01*
X10250000Y-26800000D02*
X10250000Y-26300000D01*
X10350000Y-26300000D02*
X10350000Y-26800000D01*
X10750000Y-23300000D02*
X10750000Y-22690000D01*
X12700000Y-23300000D02*
X10750000Y-23300000D01*
X12700000Y-26800000D02*
X12700000Y-23300000D01*
X13310000Y-22690000D02*
X1190000Y-22690000D01*
X13310000Y-24000000D02*
X12700000Y-24000000D01*
X13310000Y-25300000D02*
X12700000Y-25300000D01*
X13310000Y-27410000D02*
X13310000Y-22690000D01*
%TO.C,R510*%
X15728724Y-8945500D02*
X15219276Y-8945500D01*
X15728724Y-9990500D02*
X15219276Y-9990500D01*
%TO.C,R501*%
X3495276Y-8727500D02*
X4004724Y-8727500D01*
X3495276Y-9772500D02*
X4004724Y-9772500D01*
%TO.C,TP507*%
X12950000Y-20500000D02*
G75*
G02*
X11050000Y-20500000I-950000J0D01*
G01*
X11050000Y-20500000D02*
G75*
G02*
X12950000Y-20500000I950000J0D01*
G01*
%TO.C,R506*%
X15219276Y-17835500D02*
X15728724Y-17835500D01*
X15219276Y-18880500D02*
X15728724Y-18880500D01*
%TO.C,U502*%
X7140000Y-8750000D02*
X7140000Y-7750000D01*
X9860000Y-8750000D02*
X9860000Y-7750000D01*
X10090000Y-7360000D02*
X9810000Y-7360000D01*
X9810000Y-7080000D01*
X10090000Y-7360000D01*
G36*
X10090000Y-7360000D02*
G01*
X9810000Y-7360000D01*
X9810000Y-7080000D01*
X10090000Y-7360000D01*
G37*
%TO.C,TP306*%
X24450000Y-25750000D02*
G75*
G02*
X22550000Y-25750000I-950000J0D01*
G01*
X22550000Y-25750000D02*
G75*
G02*
X24450000Y-25750000I950000J0D01*
G01*
%TO.C,C203*%
X60711252Y-19090000D02*
X59288748Y-19090000D01*
X60711252Y-20910000D02*
X59288748Y-20910000D01*
%TO.C,J501*%
X1190000Y-1090000D02*
X1190000Y-5810000D01*
X1190000Y-3200000D02*
X1800000Y-3200000D01*
X1190000Y-4500000D02*
X1800000Y-4500000D01*
X1190000Y-5810000D02*
X13310000Y-5810000D01*
X1800000Y-1700000D02*
X1800000Y-5200000D01*
X1800000Y-5200000D02*
X3750000Y-5200000D01*
X3750000Y-5200000D02*
X3750000Y-5810000D01*
X4150000Y-2200000D02*
X4150000Y-1700000D01*
X4250000Y-1700000D02*
X4250000Y-2200000D01*
X4350000Y-1700000D02*
X4350000Y-2200000D01*
X4350000Y-2200000D02*
X4150000Y-2200000D01*
X6150000Y-2200000D02*
X6150000Y-1700000D01*
X6250000Y-1700000D02*
X6250000Y-2200000D01*
X6350000Y-1700000D02*
X6350000Y-2200000D01*
X6350000Y-2200000D02*
X6150000Y-2200000D01*
X8150000Y-2200000D02*
X8150000Y-1700000D01*
X8250000Y-1700000D02*
X8250000Y-2200000D01*
X8350000Y-1700000D02*
X8350000Y-2200000D01*
X8350000Y-2200000D02*
X8150000Y-2200000D01*
X10150000Y-2200000D02*
X10150000Y-1700000D01*
X10250000Y-1700000D02*
X10250000Y-2200000D01*
X10350000Y-1700000D02*
X10350000Y-2200000D01*
X10350000Y-2200000D02*
X10150000Y-2200000D01*
X10750000Y-5200000D02*
X12700000Y-5200000D01*
X10750000Y-5810000D02*
X10750000Y-5200000D01*
X11550000Y-5810000D02*
X11550000Y-6010000D01*
X11550000Y-5910000D02*
X11850000Y-5910000D01*
X11550000Y-6010000D02*
X11850000Y-6010000D01*
X11850000Y-6010000D02*
X11850000Y-5810000D01*
X12360000Y-6110000D02*
X13610000Y-6110000D01*
X12700000Y-1700000D02*
X1800000Y-1700000D01*
X12700000Y-5200000D02*
X12700000Y-1700000D01*
X13310000Y-1090000D02*
X1190000Y-1090000D01*
X13310000Y-3200000D02*
X12700000Y-3200000D01*
X13310000Y-4500000D02*
X12700000Y-4500000D01*
X13310000Y-5810000D02*
X13310000Y-1090000D01*
X13610000Y-6110000D02*
X13610000Y-4860000D01*
%TO.C,R303*%
X66227500Y-12245276D02*
X66227500Y-12754724D01*
X67272500Y-12245276D02*
X67272500Y-12754724D01*
%TO.C,R403*%
X44245276Y-16477500D02*
X44754724Y-16477500D01*
X44245276Y-17522500D02*
X44754724Y-17522500D01*
%TO.C,C202*%
X60711252Y-16590000D02*
X59288748Y-16590000D01*
X60711252Y-18410000D02*
X59288748Y-18410000D01*
%TO.C,R507*%
X15219276Y-21391500D02*
X15728724Y-21391500D01*
X15219276Y-22436500D02*
X15728724Y-22436500D01*
%TO.C,R402*%
X20727500Y-23995276D02*
X20727500Y-24504724D01*
X21772500Y-23995276D02*
X21772500Y-24504724D01*
%TO.C,C403*%
X20990000Y-5896267D02*
X20990000Y-5603733D01*
X22010000Y-5896267D02*
X22010000Y-5603733D01*
D12*
%TO.C,TP508*%
X13150000Y-8500000D02*
G75*
G02*
X10350000Y-8500000I-1400000J0D01*
G01*
X10350000Y-8500000D02*
G75*
G02*
X13150000Y-8500000I1400000J0D01*
G01*
%TD*%
%LPC*%
D13*
%TO.C,C503*%
X18014000Y-9367500D03*
X18014000Y-11092500D03*
%TD*%
D14*
%TO.C,TP101*%
X69500000Y-7000000D03*
%TD*%
D15*
%TO.C,TP401*%
X36500000Y-26000000D03*
%TD*%
%TO.C,TP505*%
X20000000Y-10250000D03*
%TD*%
D16*
%TO.C,C401*%
X24862500Y-3250000D03*
X23137500Y-3250000D03*
%TD*%
D17*
%TO.C,R305*%
X48250000Y-13412500D03*
X48250000Y-11587500D03*
%TD*%
D18*
%TO.C,R505*%
X2500000Y-17837500D03*
X2500000Y-19662500D03*
%TD*%
D15*
%TO.C,TP204*%
X64250000Y-15750000D03*
%TD*%
D19*
%TO.C,R516*%
X5300000Y-9250000D03*
X2200000Y-9250000D03*
%TD*%
D20*
%TO.C,C205*%
X52462500Y-20250000D03*
X54537500Y-20250000D03*
%TD*%
%TO.C,C204*%
X52462500Y-18250000D03*
X54537500Y-18250000D03*
%TD*%
D21*
%TO.C,R512*%
X16386500Y-23692000D03*
X14561500Y-23692000D03*
%TD*%
D13*
%TO.C,C501*%
X18014000Y-20035500D03*
X18014000Y-21760500D03*
%TD*%
D21*
%TO.C,R304*%
X64912500Y-11750000D03*
X63087500Y-11750000D03*
%TD*%
D15*
%TO.C,TP203*%
X47750000Y-19250000D03*
%TD*%
D21*
%TO.C,R515*%
X16386500Y-13024000D03*
X14561500Y-13024000D03*
%TD*%
D22*
%TO.C,R302*%
X63087500Y-9750000D03*
X64912500Y-9750000D03*
%TD*%
D23*
%TO.C,C505*%
X18014000Y-25316500D03*
X18014000Y-23591500D03*
%TD*%
D24*
%TO.C,U401*%
X23250000Y-5510000D03*
X23250000Y-6780000D03*
X23250000Y-8050000D03*
X23250000Y-9320000D03*
X23250000Y-10590000D03*
X23250000Y-11860000D03*
X23250000Y-13130000D03*
X23250000Y-14400000D03*
X23250000Y-15670000D03*
X23250000Y-16940000D03*
X23250000Y-18210000D03*
X23250000Y-19480000D03*
X23250000Y-20750000D03*
X23250000Y-22020000D03*
D25*
X26285000Y-23270000D03*
X27555000Y-23270000D03*
X28825000Y-23270000D03*
X30095000Y-23270000D03*
X31365000Y-23270000D03*
X32635000Y-23270000D03*
X33905000Y-23270000D03*
X35175000Y-23270000D03*
X36445000Y-23270000D03*
X37715000Y-23270000D03*
D24*
X40750000Y-22020000D03*
X40750000Y-20750000D03*
X40750000Y-19480000D03*
X40750000Y-18210000D03*
X40750000Y-16940000D03*
X40750000Y-15670000D03*
X40750000Y-14400000D03*
X40750000Y-13130000D03*
X40750000Y-11860000D03*
X40750000Y-10590000D03*
X40750000Y-9320000D03*
X40750000Y-8050000D03*
X40750000Y-6780000D03*
X40750000Y-5510000D03*
D26*
X29100000Y-12150000D03*
X29100000Y-13550000D03*
X29800000Y-11450000D03*
X29800000Y-12850000D03*
X29800000Y-14250000D03*
X30500000Y-12150000D03*
D27*
X30500000Y-12850000D03*
D26*
X30500000Y-13550000D03*
X31200000Y-11450000D03*
X31200000Y-12850000D03*
X31200000Y-14250000D03*
X31900000Y-12150000D03*
X31900000Y-13550000D03*
%TD*%
D28*
%TO.C,Q501*%
X4300000Y-19937500D03*
X6200000Y-19937500D03*
X5250000Y-18062500D03*
%TD*%
D21*
%TO.C,R301*%
X55412500Y-6750000D03*
X53587500Y-6750000D03*
%TD*%
D15*
%TO.C,TP304*%
X26500000Y-25750000D03*
%TD*%
D29*
%TO.C,H102*%
X3750000Y-14250000D03*
%TD*%
D22*
%TO.C,R504*%
X14561500Y-16580000D03*
X16386500Y-16580000D03*
%TD*%
D30*
%TO.C,J502*%
X9750000Y-15250000D03*
D31*
X9750000Y-13250000D03*
%TD*%
D32*
%TO.C,U501*%
X7500000Y-20625000D03*
X8000000Y-20625000D03*
D33*
X8500000Y-20550000D03*
D32*
X9000000Y-20625000D03*
X9500000Y-20625000D03*
X9500000Y-19475000D03*
X9000000Y-19475000D03*
D33*
X8500000Y-19425000D03*
D32*
X8000000Y-19475000D03*
X7500000Y-19475000D03*
%TD*%
D34*
%TO.C,IC301*%
X55025000Y-8845000D03*
X55025000Y-10115000D03*
X55025000Y-11385000D03*
X55025000Y-12655000D03*
X59975000Y-12655000D03*
X59975000Y-11385000D03*
X59975000Y-10115000D03*
X59975000Y-8845000D03*
%TD*%
D15*
%TO.C,TP303*%
X46250000Y-10750000D03*
%TD*%
D22*
%TO.C,R509*%
X14561500Y-7690000D03*
X16386500Y-7690000D03*
%TD*%
D23*
%TO.C,C502*%
X18014000Y-18204500D03*
X18014000Y-16479500D03*
%TD*%
%TO.C,C506*%
X18014000Y-14648500D03*
X18014000Y-12923500D03*
%TD*%
D22*
%TO.C,R513*%
X14561500Y-25470000D03*
X16386500Y-25470000D03*
%TD*%
D35*
%TO.C,JP304*%
X50750000Y-10950000D03*
D36*
X50750000Y-12250000D03*
D37*
X50750000Y-13550000D03*
%TD*%
D22*
%TO.C,R511*%
X14587500Y-6000000D03*
X16412500Y-6000000D03*
%TD*%
D18*
%TO.C,R503*%
X19750000Y-23337500D03*
X19750000Y-25162500D03*
%TD*%
D38*
%TO.C,J101*%
X73250000Y-4510000D03*
D39*
X73250000Y-7050000D03*
X73250000Y-9590000D03*
X73250000Y-12130000D03*
X73250000Y-14670000D03*
X73250000Y-17210000D03*
X73250000Y-19750000D03*
%TD*%
D21*
%TO.C,R502*%
X16386500Y-20136000D03*
X14561500Y-20136000D03*
%TD*%
D15*
%TO.C,TP302*%
X44000000Y-13000000D03*
%TD*%
D16*
%TO.C,C201*%
X59862500Y-26000000D03*
X58137500Y-26000000D03*
%TD*%
D40*
%TO.C,D401*%
X32875000Y-25724000D03*
X31125000Y-25724000D03*
%TD*%
D17*
%TO.C,R201*%
X50250000Y-17912500D03*
X50250000Y-16087500D03*
%TD*%
D41*
%TO.C,F201*%
X67500000Y-20512500D03*
X67500000Y-23487500D03*
%TD*%
D15*
%TO.C,TP506*%
X20000000Y-14750000D03*
%TD*%
%TO.C,TP501*%
X20000000Y-19250000D03*
%TD*%
%TO.C,TP103*%
X61750000Y-14750000D03*
%TD*%
D29*
%TO.C,H103*%
X73250000Y-24750000D03*
%TD*%
D42*
%TO.C,U201*%
X60887500Y-23950000D03*
X60887500Y-23000000D03*
X60887500Y-22050000D03*
X58612500Y-22050000D03*
X58612500Y-23000000D03*
X58612500Y-23950000D03*
%TD*%
D43*
%TO.C,D202*%
X64250000Y-19500000D03*
X64250000Y-24500000D03*
%TD*%
D15*
%TO.C,TP201*%
X56250000Y-16250000D03*
%TD*%
D44*
%TO.C,L201*%
X55850000Y-24000000D03*
X53150000Y-24000000D03*
%TD*%
D22*
%TO.C,R508*%
X14561500Y-11246000D03*
X16386500Y-11246000D03*
%TD*%
%TO.C,R514*%
X14561500Y-14802000D03*
X16386500Y-14802000D03*
%TD*%
%TO.C,R401*%
X19587500Y-8250000D03*
X21412500Y-8250000D03*
%TD*%
D45*
%TO.C,C402*%
X19500000Y-6537500D03*
X19500000Y-4462500D03*
%TD*%
D15*
%TO.C,TP301*%
X46250000Y-14250000D03*
%TD*%
D46*
%TO.C,C301*%
X59887500Y-7250000D03*
X61612500Y-7250000D03*
%TD*%
D47*
%TO.C,D301*%
X68562500Y-12550000D03*
X68562500Y-14450000D03*
X70437500Y-13500000D03*
%TD*%
D15*
%TO.C,TP503*%
X20000000Y-21500000D03*
%TD*%
%TO.C,TP502*%
X20000000Y-17000000D03*
%TD*%
D48*
%TO.C,J401*%
X44460000Y-7750000D03*
D49*
X47000000Y-7750000D03*
D48*
X49540000Y-7750000D03*
X44460000Y-4575000D03*
X49540000Y-4575000D03*
D49*
X45984000Y-2670000D03*
X48016000Y-2670000D03*
D50*
X47635000Y-6480000D03*
X46365000Y-6480000D03*
X47635000Y-5210000D03*
X46365000Y-5210000D03*
X47635000Y-3940000D03*
X46365000Y-3940000D03*
%TD*%
D15*
%TO.C,TP102*%
X70000000Y-19750000D03*
%TD*%
%TO.C,TP504*%
X20000000Y-12500000D03*
%TD*%
D16*
%TO.C,C504*%
X16336500Y-4388000D03*
X14611500Y-4388000D03*
%TD*%
D29*
%TO.C,H101*%
X62750000Y-3250000D03*
%TD*%
D51*
%TO.C,J504*%
X3250000Y-24500000D03*
D52*
X5250000Y-24500000D03*
X7250000Y-24500000D03*
X9250000Y-24500000D03*
X11250000Y-24500000D03*
%TD*%
D21*
%TO.C,R510*%
X16386500Y-9468000D03*
X14561500Y-9468000D03*
%TD*%
D22*
%TO.C,R501*%
X2837500Y-9250000D03*
X4662500Y-9250000D03*
%TD*%
D15*
%TO.C,TP507*%
X12000000Y-20500000D03*
%TD*%
D22*
%TO.C,R506*%
X14561500Y-18358000D03*
X16386500Y-18358000D03*
%TD*%
D32*
%TO.C,U502*%
X9500000Y-7675000D03*
X9000000Y-7675000D03*
D33*
X8500000Y-7750000D03*
D32*
X8000000Y-7675000D03*
X7500000Y-7675000D03*
X7500000Y-8825000D03*
X8000000Y-8825000D03*
D33*
X8500000Y-8875000D03*
D32*
X9000000Y-8825000D03*
X9500000Y-8825000D03*
%TD*%
D15*
%TO.C,TP306*%
X23500000Y-25750000D03*
%TD*%
D53*
%TO.C,C203*%
X61562500Y-20000000D03*
X58437500Y-20000000D03*
%TD*%
D54*
%TO.C,J501*%
X11250000Y-4000000D03*
D52*
X9250000Y-4000000D03*
X7250000Y-4000000D03*
X5250000Y-4000000D03*
X3250000Y-4000000D03*
%TD*%
D18*
%TO.C,R303*%
X66750000Y-11587500D03*
X66750000Y-13412500D03*
%TD*%
D22*
%TO.C,R403*%
X43587500Y-17000000D03*
X45412500Y-17000000D03*
%TD*%
D53*
%TO.C,C202*%
X61562500Y-17500000D03*
X58437500Y-17500000D03*
%TD*%
D22*
%TO.C,R507*%
X14561500Y-21914000D03*
X16386500Y-21914000D03*
%TD*%
D18*
%TO.C,R402*%
X21250000Y-23337500D03*
X21250000Y-25162500D03*
%TD*%
D23*
%TO.C,C403*%
X21500000Y-6612500D03*
X21500000Y-4887500D03*
%TD*%
D14*
%TO.C,TP508*%
X11750000Y-8500000D03*
%TD*%
%LPD*%
M02*
