%TF.GenerationSoftware,KiCad,Pcbnew,8.0.4*%
%TF.CreationDate,2024-09-01T09:58:53+12:00*%
%TF.ProjectId,CDRC,43445243-2e6b-4696-9361-645f70636258,A*%
%TF.SameCoordinates,Original*%
%TF.FileFunction,Other,Comment*%
%FSLAX46Y46*%
G04 Gerber Fmt 4.6, Leading zero omitted, Abs format (unit mm)*
G04 Created by KiCad (PCBNEW 8.0.4) date 2024-09-01 09:58:53*
%MOMM*%
%LPD*%
G01*
G04 APERTURE LIST*
%ADD10C,0.070000*%
%ADD11C,0.150000*%
G04 APERTURE END LIST*
D10*
X141181407Y-58448095D02*
X140781407Y-58448095D01*
X141181407Y-58219524D02*
X140952836Y-58390953D01*
X140781407Y-58219524D02*
X141009979Y-58448095D01*
X140971883Y-58048095D02*
X140971883Y-57914762D01*
X141181407Y-57857619D02*
X141181407Y-58048095D01*
X141181407Y-58048095D02*
X140781407Y-58048095D01*
X140781407Y-58048095D02*
X140781407Y-57857619D01*
X140971883Y-57686190D02*
X140971883Y-57552857D01*
X141181407Y-57495714D02*
X141181407Y-57686190D01*
X141181407Y-57686190D02*
X140781407Y-57686190D01*
X140781407Y-57686190D02*
X140781407Y-57495714D01*
X141181407Y-57324285D02*
X140781407Y-57324285D01*
X140781407Y-57324285D02*
X140781407Y-57171904D01*
X140781407Y-57171904D02*
X140800455Y-57133809D01*
X140800455Y-57133809D02*
X140819502Y-57114762D01*
X140819502Y-57114762D02*
X140857598Y-57095714D01*
X140857598Y-57095714D02*
X140914740Y-57095714D01*
X140914740Y-57095714D02*
X140952836Y-57114762D01*
X140952836Y-57114762D02*
X140971883Y-57133809D01*
X140971883Y-57133809D02*
X140990931Y-57171904D01*
X140990931Y-57171904D02*
X140990931Y-57324285D01*
X140781407Y-56848095D02*
X140781407Y-56771904D01*
X140781407Y-56771904D02*
X140800455Y-56733809D01*
X140800455Y-56733809D02*
X140838550Y-56695714D01*
X140838550Y-56695714D02*
X140914740Y-56676666D01*
X140914740Y-56676666D02*
X141048074Y-56676666D01*
X141048074Y-56676666D02*
X141124264Y-56695714D01*
X141124264Y-56695714D02*
X141162360Y-56733809D01*
X141162360Y-56733809D02*
X141181407Y-56771904D01*
X141181407Y-56771904D02*
X141181407Y-56848095D01*
X141181407Y-56848095D02*
X141162360Y-56886190D01*
X141162360Y-56886190D02*
X141124264Y-56924285D01*
X141124264Y-56924285D02*
X141048074Y-56943333D01*
X141048074Y-56943333D02*
X140914740Y-56943333D01*
X140914740Y-56943333D02*
X140838550Y-56924285D01*
X140838550Y-56924285D02*
X140800455Y-56886190D01*
X140800455Y-56886190D02*
X140781407Y-56848095D01*
X140781407Y-56505237D02*
X141105217Y-56505237D01*
X141105217Y-56505237D02*
X141143312Y-56486190D01*
X141143312Y-56486190D02*
X141162360Y-56467142D01*
X141162360Y-56467142D02*
X141181407Y-56429047D01*
X141181407Y-56429047D02*
X141181407Y-56352856D01*
X141181407Y-56352856D02*
X141162360Y-56314761D01*
X141162360Y-56314761D02*
X141143312Y-56295714D01*
X141143312Y-56295714D02*
X141105217Y-56276666D01*
X141105217Y-56276666D02*
X140781407Y-56276666D01*
X140781407Y-56143332D02*
X140781407Y-55914761D01*
X141181407Y-56029047D02*
X140781407Y-56029047D01*
D11*
%TO.C,H102*%
X100450000Y-66250000D02*
G75*
G02*
X95050000Y-66250000I-2700000J0D01*
G01*
X95050000Y-66250000D02*
G75*
G02*
X100450000Y-66250000I2700000J0D01*
G01*
%TO.C,H103*%
X169950000Y-76750000D02*
G75*
G02*
X164550000Y-76750000I-2700000J0D01*
G01*
X164550000Y-76750000D02*
G75*
G02*
X169950000Y-76750000I2700000J0D01*
G01*
%TO.C,H101*%
X159450000Y-55250000D02*
G75*
G02*
X154050000Y-55250000I-2700000J0D01*
G01*
X154050000Y-55250000D02*
G75*
G02*
X159450000Y-55250000I2700000J0D01*
G01*
%TD*%
M02*
