%TF.GenerationSoftware,KiCad,Pcbnew,8.0.4*%
%TF.CreationDate,2024-09-01T09:58:53+12:00*%
%TF.ProjectId,CDRC,43445243-2e6b-4696-9361-645f70636258,A*%
%TF.SameCoordinates,Original*%
%TF.FileFunction,Legend,Top*%
%TF.FilePolarity,Positive*%
%FSLAX46Y46*%
G04 Gerber Fmt 4.6, Leading zero omitted, Abs format (unit mm)*
G04 Created by KiCad (PCBNEW 8.0.4) date 2024-09-01 09:58:53*
%MOMM*%
%LPD*%
G01*
G04 APERTURE LIST*
G04 Aperture macros list*
%AMRoundRect*
0 Rectangle with rounded corners*
0 $1 Rounding radius*
0 $2 $3 $4 $5 $6 $7 $8 $9 X,Y pos of 4 corners*
0 Add a 4 corners polygon primitive as box body*
4,1,4,$2,$3,$4,$5,$6,$7,$8,$9,$2,$3,0*
0 Add four circle primitives for the rounded corners*
1,1,$1+$1,$2,$3*
1,1,$1+$1,$4,$5*
1,1,$1+$1,$6,$7*
1,1,$1+$1,$8,$9*
0 Add four rect primitives between the rounded corners*
20,1,$1+$1,$2,$3,$4,$5,0*
20,1,$1+$1,$4,$5,$6,$7,0*
20,1,$1+$1,$6,$7,$8,$9,0*
20,1,$1+$1,$8,$9,$2,$3,0*%
%AMFreePoly0*
4,1,19,0.550000,-0.750000,0.000000,-0.750000,0.000000,-0.744911,-0.071157,-0.744911,-0.207708,-0.704816,-0.327430,-0.627875,-0.420627,-0.520320,-0.479746,-0.390866,-0.500000,-0.250000,-0.500000,0.250000,-0.479746,0.390866,-0.420627,0.520320,-0.327430,0.627875,-0.207708,0.704816,-0.071157,0.744911,0.000000,0.744911,0.000000,0.750000,0.550000,0.750000,0.550000,-0.750000,0.550000,-0.750000,
$1*%
%AMFreePoly1*
4,1,19,0.000000,0.744911,0.071157,0.744911,0.207708,0.704816,0.327430,0.627875,0.420627,0.520320,0.479746,0.390866,0.500000,0.250000,0.500000,-0.250000,0.479746,-0.390866,0.420627,-0.520320,0.327430,-0.627875,0.207708,-0.704816,0.071157,-0.744911,0.000000,-0.744911,0.000000,-0.750000,-0.550000,-0.750000,-0.550000,0.750000,0.000000,0.750000,0.000000,0.744911,0.000000,0.744911,
$1*%
G04 Aperture macros list end*
%ADD10C,0.100000*%
%ADD11C,0.120000*%
%ADD12C,0.150000*%
%ADD13RoundRect,0.237500X-0.237500X0.300000X-0.237500X-0.300000X0.237500X-0.300000X0.237500X0.300000X0*%
%ADD14C,2.000000*%
%ADD15C,1.500000*%
%ADD16RoundRect,0.237500X0.300000X0.237500X-0.300000X0.237500X-0.300000X-0.237500X0.300000X-0.237500X0*%
%ADD17RoundRect,0.237500X0.237500X-0.250000X0.237500X0.250000X-0.237500X0.250000X-0.237500X-0.250000X0*%
%ADD18RoundRect,0.237500X-0.237500X0.250000X-0.237500X-0.250000X0.237500X-0.250000X0.237500X0.250000X0*%
%ADD19RoundRect,0.250000X-0.337500X-0.475000X0.337500X-0.475000X0.337500X0.475000X-0.337500X0.475000X0*%
%ADD20RoundRect,0.237500X0.250000X0.237500X-0.250000X0.237500X-0.250000X-0.237500X0.250000X-0.237500X0*%
%ADD21RoundRect,0.237500X-0.250000X-0.237500X0.250000X-0.237500X0.250000X0.237500X-0.250000X0.237500X0*%
%ADD22RoundRect,0.237500X0.237500X-0.300000X0.237500X0.300000X-0.237500X0.300000X-0.237500X-0.300000X0*%
%ADD23RoundRect,0.250000X-0.475000X0.337500X-0.475000X-0.337500X0.475000X-0.337500X0.475000X0.337500X0*%
%ADD24R,1.500000X0.900000*%
%ADD25R,0.900000X1.500000*%
%ADD26C,0.600000*%
%ADD27R,3.800000X3.800000*%
%ADD28RoundRect,0.150000X0.150000X-0.587500X0.150000X0.587500X-0.150000X0.587500X-0.150000X-0.587500X0*%
%ADD29C,2.700000*%
%ADD30RoundRect,0.250000X0.475000X-0.337500X0.475000X0.337500X-0.475000X0.337500X-0.475000X-0.337500X0*%
%ADD31RoundRect,0.250000X0.625000X-0.350000X0.625000X0.350000X-0.625000X0.350000X-0.625000X-0.350000X0*%
%ADD32O,1.750000X1.200000*%
%ADD33R,0.250000X1.000000*%
%ADD34R,0.450000X1.000000*%
%ADD35RoundRect,0.150000X-0.825000X-0.150000X0.825000X-0.150000X0.825000X0.150000X-0.825000X0.150000X0*%
%ADD36FreePoly0,270.000000*%
%ADD37R,1.500000X1.000000*%
%ADD38FreePoly1,270.000000*%
%ADD39R,1.700000X1.700000*%
%ADD40O,1.700000X1.700000*%
%ADD41RoundRect,0.237500X0.287500X0.237500X-0.287500X0.237500X-0.287500X-0.237500X0.287500X-0.237500X0*%
%ADD42RoundRect,0.093750X-0.093750X-0.106250X0.093750X-0.106250X0.093750X0.106250X-0.093750X0.106250X0*%
%ADD43R,1.000000X1.600000*%
%ADD44RoundRect,0.250001X-0.624999X0.462499X-0.624999X-0.462499X0.624999X-0.462499X0.624999X0.462499X0*%
%ADD45RoundRect,0.237500X0.237500X-0.287500X0.237500X0.287500X-0.237500X0.287500X-0.237500X-0.287500X0*%
%ADD46RoundRect,0.150000X0.512500X0.150000X-0.512500X0.150000X-0.512500X-0.150000X0.512500X-0.150000X0*%
%ADD47RoundRect,0.250000X-0.650000X1.500000X-0.650000X-1.500000X0.650000X-1.500000X0.650000X1.500000X0*%
%ADD48R,1.500000X2.500000*%
%ADD49RoundRect,0.237500X-0.300000X-0.237500X0.300000X-0.237500X0.300000X0.237500X-0.300000X0.237500X0*%
%ADD50RoundRect,0.150000X-0.587500X-0.150000X0.587500X-0.150000X0.587500X0.150000X-0.587500X0.150000X0*%
%ADD51C,2.374900*%
%ADD52C,0.990600*%
%ADD53C,0.787400*%
%ADD54RoundRect,0.250000X-0.350000X-0.625000X0.350000X-0.625000X0.350000X0.625000X-0.350000X0.625000X0*%
%ADD55O,1.200000X1.750000*%
%ADD56RoundRect,0.250000X0.412500X0.650000X-0.412500X0.650000X-0.412500X-0.650000X0.412500X-0.650000X0*%
%ADD57RoundRect,0.250000X0.350000X0.625000X-0.350000X0.625000X-0.350000X-0.625000X0.350000X-0.625000X0*%
%ADD58RoundRect,0.250000X0.250000X0.250000X-0.250000X0.250000X-0.250000X-0.250000X0.250000X-0.250000X0*%
G04 APERTURE END LIST*
D10*
X134750000Y-55250000D02*
X134750000Y-53750000D01*
X136750000Y-55750000D02*
X136500000Y-55500000D01*
X135000000Y-55500000D02*
X134750000Y-55250000D01*
X134750000Y-53750000D02*
X135000000Y-53500000D01*
X136750000Y-61250000D02*
X136750000Y-55750000D01*
X136500000Y-55500000D02*
X135000000Y-55500000D01*
X137000000Y-61500000D02*
X136750000Y-61250000D01*
X145250000Y-53750000D02*
X145250000Y-61250000D01*
X135000000Y-53500000D02*
X137500000Y-53500000D01*
X137500000Y-53500000D02*
X145000000Y-53500000D01*
X145250000Y-61250000D02*
X145000000Y-61500000D01*
X145000000Y-53500000D02*
X145250000Y-53750000D01*
X145000000Y-61500000D02*
X137000000Y-61500000D01*
X95303884Y-58848609D02*
X95637217Y-58848609D01*
X95780074Y-59372419D02*
X95303884Y-59372419D01*
X95303884Y-59372419D02*
X95303884Y-58372419D01*
X95303884Y-58372419D02*
X95780074Y-58372419D01*
X96208646Y-59372419D02*
X96208646Y-58372419D01*
X96208646Y-58372419D02*
X96780074Y-59372419D01*
X96780074Y-59372419D02*
X96780074Y-58372419D01*
X97827693Y-59277180D02*
X97780074Y-59324800D01*
X97780074Y-59324800D02*
X97637217Y-59372419D01*
X97637217Y-59372419D02*
X97541979Y-59372419D01*
X97541979Y-59372419D02*
X97399122Y-59324800D01*
X97399122Y-59324800D02*
X97303884Y-59229561D01*
X97303884Y-59229561D02*
X97256265Y-59134323D01*
X97256265Y-59134323D02*
X97208646Y-58943847D01*
X97208646Y-58943847D02*
X97208646Y-58800990D01*
X97208646Y-58800990D02*
X97256265Y-58610514D01*
X97256265Y-58610514D02*
X97303884Y-58515276D01*
X97303884Y-58515276D02*
X97399122Y-58420038D01*
X97399122Y-58420038D02*
X97541979Y-58372419D01*
X97541979Y-58372419D02*
X97637217Y-58372419D01*
X97637217Y-58372419D02*
X97780074Y-58420038D01*
X97780074Y-58420038D02*
X97827693Y-58467657D01*
X98208646Y-58467657D02*
X98256265Y-58420038D01*
X98256265Y-58420038D02*
X98351503Y-58372419D01*
X98351503Y-58372419D02*
X98589598Y-58372419D01*
X98589598Y-58372419D02*
X98684836Y-58420038D01*
X98684836Y-58420038D02*
X98732455Y-58467657D01*
X98732455Y-58467657D02*
X98780074Y-58562895D01*
X98780074Y-58562895D02*
X98780074Y-58658133D01*
X98780074Y-58658133D02*
X98732455Y-58800990D01*
X98732455Y-58800990D02*
X98161027Y-59372419D01*
X98161027Y-59372419D02*
X98780074Y-59372419D01*
X103857142Y-70457419D02*
X103380952Y-70457419D01*
X103380952Y-70457419D02*
X103380952Y-69457419D01*
X104190476Y-69933609D02*
X104523809Y-69933609D01*
X104666666Y-70457419D02*
X104190476Y-70457419D01*
X104190476Y-70457419D02*
X104190476Y-69457419D01*
X104190476Y-69457419D02*
X104666666Y-69457419D01*
X105095238Y-70457419D02*
X105095238Y-69457419D01*
X105095238Y-69457419D02*
X105333333Y-69457419D01*
X105333333Y-69457419D02*
X105476190Y-69505038D01*
X105476190Y-69505038D02*
X105571428Y-69600276D01*
X105571428Y-69600276D02*
X105619047Y-69695514D01*
X105619047Y-69695514D02*
X105666666Y-69885990D01*
X105666666Y-69885990D02*
X105666666Y-70028847D01*
X105666666Y-70028847D02*
X105619047Y-70219323D01*
X105619047Y-70219323D02*
X105571428Y-70314561D01*
X105571428Y-70314561D02*
X105476190Y-70409800D01*
X105476190Y-70409800D02*
X105333333Y-70457419D01*
X105333333Y-70457419D02*
X105095238Y-70457419D01*
G36*
X171500456Y-66046130D02*
G01*
X171536600Y-66082275D01*
X171575312Y-66159698D01*
X171575312Y-66278948D01*
X171536600Y-66356371D01*
X171500456Y-66392516D01*
X171423033Y-66431228D01*
X171103884Y-66431228D01*
X171103884Y-66007419D01*
X171423033Y-66007419D01*
X171500456Y-66046130D01*
G37*
G36*
X174595947Y-67118530D02*
G01*
X169845154Y-67118530D01*
X169845154Y-66385990D01*
X169956265Y-66385990D01*
X169956265Y-66528847D01*
X169957460Y-66534856D01*
X169957758Y-66540974D01*
X170005377Y-66731450D01*
X170007716Y-66736402D01*
X170009163Y-66741684D01*
X170056781Y-66836921D01*
X170061692Y-66843249D01*
X170066147Y-66849916D01*
X170161386Y-66945155D01*
X170163467Y-66946545D01*
X170163981Y-66947573D01*
X170170946Y-66951543D01*
X170177607Y-66955994D01*
X170178755Y-66955994D01*
X170180930Y-66957234D01*
X170323786Y-67004853D01*
X170331736Y-67005855D01*
X170339598Y-67007419D01*
X170434836Y-67007419D01*
X170442698Y-67005855D01*
X170450647Y-67004853D01*
X170593504Y-66957234D01*
X170595679Y-66955994D01*
X170596828Y-66955994D01*
X170603498Y-66951536D01*
X170610452Y-66947573D01*
X170610964Y-66946547D01*
X170613049Y-66945155D01*
X170660668Y-66897535D01*
X170671506Y-66881314D01*
X170675312Y-66862180D01*
X170675312Y-66528847D01*
X170671506Y-66509713D01*
X170644446Y-66482653D01*
X170625312Y-66478847D01*
X170434836Y-66478847D01*
X170415702Y-66482653D01*
X170388642Y-66509713D01*
X170388642Y-66547981D01*
X170415702Y-66575041D01*
X170434836Y-66578847D01*
X170575312Y-66578847D01*
X170575312Y-66841469D01*
X170550683Y-66866098D01*
X170426723Y-66907419D01*
X170347711Y-66907419D01*
X170223751Y-66866099D01*
X170142595Y-66784942D01*
X170101060Y-66701872D01*
X170056265Y-66522692D01*
X170056265Y-66392145D01*
X170101060Y-66212965D01*
X170142596Y-66129893D01*
X170223749Y-66048739D01*
X170347711Y-66007419D01*
X170470652Y-66007419D01*
X170555332Y-66049759D01*
X170574148Y-66054912D01*
X170610453Y-66042810D01*
X170627567Y-66008582D01*
X170615465Y-65972278D01*
X170600053Y-65960316D01*
X170594259Y-65957419D01*
X171003884Y-65957419D01*
X171003884Y-66957419D01*
X171007690Y-66976553D01*
X171034750Y-67003613D01*
X171073018Y-67003613D01*
X171100078Y-66976553D01*
X171103884Y-66957419D01*
X171103884Y-66531228D01*
X171265946Y-66531228D01*
X171584350Y-66986092D01*
X171598441Y-66999585D01*
X171636127Y-67006235D01*
X171667478Y-66984290D01*
X171674128Y-66946604D01*
X171666274Y-66928746D01*
X171388012Y-66531228D01*
X171434836Y-66531228D01*
X171437292Y-66530739D01*
X171438381Y-66531102D01*
X171446108Y-66528985D01*
X171453970Y-66527422D01*
X171454781Y-66526610D01*
X171457197Y-66525949D01*
X171552434Y-66478331D01*
X171558767Y-66473415D01*
X171565429Y-66468964D01*
X171613048Y-66421346D01*
X171617502Y-66414679D01*
X171622414Y-66408351D01*
X171670033Y-66313113D01*
X171670694Y-66310697D01*
X171671506Y-66309886D01*
X171673069Y-66302024D01*
X171675186Y-66294297D01*
X171674823Y-66293208D01*
X171675312Y-66290752D01*
X171675312Y-66147895D01*
X171674823Y-66145438D01*
X171675186Y-66144350D01*
X171673069Y-66136622D01*
X171671506Y-66128761D01*
X171670694Y-66127949D01*
X171670033Y-66125534D01*
X171622414Y-66030296D01*
X171617502Y-66023967D01*
X171613048Y-66017301D01*
X171565429Y-65969683D01*
X171558767Y-65965231D01*
X171552434Y-65960316D01*
X171546640Y-65957419D01*
X172003884Y-65957419D01*
X172003884Y-66957419D01*
X172007690Y-66976553D01*
X172034750Y-67003613D01*
X172053884Y-67007419D01*
X172530074Y-67007419D01*
X172549208Y-67003613D01*
X172576268Y-66976553D01*
X172576268Y-66938285D01*
X172549208Y-66911225D01*
X172530074Y-66907419D01*
X172103884Y-66907419D01*
X172103884Y-66483609D01*
X172387217Y-66483609D01*
X172406351Y-66479803D01*
X172433411Y-66452743D01*
X172433411Y-66414475D01*
X172406351Y-66387415D01*
X172387217Y-66383609D01*
X172103884Y-66383609D01*
X172103884Y-66007419D01*
X172530074Y-66007419D01*
X172549208Y-66003613D01*
X172576268Y-65976553D01*
X172576268Y-65957419D01*
X172908646Y-65957419D01*
X172908646Y-66957419D01*
X172912452Y-66976553D01*
X172939512Y-67003613D01*
X172958646Y-67007419D01*
X173434836Y-67007419D01*
X173453970Y-67003613D01*
X173481030Y-66976553D01*
X173481030Y-66938285D01*
X173453970Y-66911225D01*
X173434836Y-66907419D01*
X173008646Y-66907419D01*
X173008646Y-66483609D01*
X173291979Y-66483609D01*
X173311113Y-66479803D01*
X173338173Y-66452743D01*
X173338173Y-66414475D01*
X173311113Y-66387415D01*
X173291979Y-66383609D01*
X173008646Y-66383609D01*
X173008646Y-66007419D01*
X173434836Y-66007419D01*
X173453970Y-66003613D01*
X173481030Y-65976553D01*
X173481030Y-65957419D01*
X173813408Y-65957419D01*
X173813408Y-66957419D01*
X173817214Y-66976553D01*
X173844274Y-67003613D01*
X173882542Y-67003613D01*
X173909602Y-66976553D01*
X173913408Y-66957419D01*
X173913408Y-66145697D01*
X174391424Y-66982226D01*
X174404222Y-66996951D01*
X174410846Y-66998757D01*
X174415702Y-67003613D01*
X174428650Y-67003613D01*
X174441142Y-67007020D01*
X174447104Y-67003613D01*
X174453970Y-67003613D01*
X174463123Y-66994459D01*
X174474368Y-66988034D01*
X174476175Y-66981407D01*
X174481030Y-66976553D01*
X174484836Y-66957419D01*
X174484836Y-65957419D01*
X174481030Y-65938285D01*
X174453970Y-65911225D01*
X174415702Y-65911225D01*
X174388642Y-65938285D01*
X174384836Y-65957419D01*
X174384836Y-66769140D01*
X173906820Y-65932612D01*
X173894023Y-65917887D01*
X173887396Y-65916079D01*
X173882542Y-65911225D01*
X173869595Y-65911225D01*
X173857102Y-65907818D01*
X173851140Y-65911225D01*
X173844274Y-65911225D01*
X173835120Y-65920378D01*
X173823876Y-65926804D01*
X173822068Y-65933430D01*
X173817214Y-65938285D01*
X173813408Y-65957419D01*
X173481030Y-65957419D01*
X173481030Y-65938285D01*
X173453970Y-65911225D01*
X173434836Y-65907419D01*
X172958646Y-65907419D01*
X172939512Y-65911225D01*
X172912452Y-65938285D01*
X172908646Y-65957419D01*
X172576268Y-65957419D01*
X172576268Y-65938285D01*
X172549208Y-65911225D01*
X172530074Y-65907419D01*
X172053884Y-65907419D01*
X172034750Y-65911225D01*
X172007690Y-65938285D01*
X172003884Y-65957419D01*
X171546640Y-65957419D01*
X171457197Y-65912698D01*
X171454781Y-65912036D01*
X171453970Y-65911225D01*
X171446108Y-65909661D01*
X171438381Y-65907545D01*
X171437292Y-65907907D01*
X171434836Y-65907419D01*
X171053884Y-65907419D01*
X171034750Y-65911225D01*
X171007690Y-65938285D01*
X171003884Y-65957419D01*
X170594259Y-65957419D01*
X170504816Y-65912698D01*
X170502400Y-65912036D01*
X170501589Y-65911225D01*
X170493727Y-65909661D01*
X170486000Y-65907545D01*
X170484911Y-65907907D01*
X170482455Y-65907419D01*
X170339598Y-65907419D01*
X170331736Y-65908982D01*
X170323786Y-65909985D01*
X170180930Y-65957604D01*
X170178755Y-65958844D01*
X170177607Y-65958844D01*
X170170946Y-65963294D01*
X170163981Y-65967265D01*
X170163467Y-65968292D01*
X170161386Y-65969683D01*
X170066148Y-66064921D01*
X170061696Y-66071582D01*
X170056781Y-66077916D01*
X170009163Y-66173153D01*
X170007716Y-66178434D01*
X170005377Y-66183387D01*
X169957758Y-66373863D01*
X169957460Y-66379980D01*
X169956265Y-66385990D01*
X169845154Y-66385990D01*
X169845154Y-65796308D01*
X174595947Y-65796308D01*
X174595947Y-67118530D01*
G37*
X161333333Y-54112180D02*
X161285714Y-54159800D01*
X161285714Y-54159800D02*
X161142857Y-54207419D01*
X161142857Y-54207419D02*
X161047619Y-54207419D01*
X161047619Y-54207419D02*
X160904762Y-54159800D01*
X160904762Y-54159800D02*
X160809524Y-54064561D01*
X160809524Y-54064561D02*
X160761905Y-53969323D01*
X160761905Y-53969323D02*
X160714286Y-53778847D01*
X160714286Y-53778847D02*
X160714286Y-53635990D01*
X160714286Y-53635990D02*
X160761905Y-53445514D01*
X160761905Y-53445514D02*
X160809524Y-53350276D01*
X160809524Y-53350276D02*
X160904762Y-53255038D01*
X160904762Y-53255038D02*
X161047619Y-53207419D01*
X161047619Y-53207419D02*
X161142857Y-53207419D01*
X161142857Y-53207419D02*
X161285714Y-53255038D01*
X161285714Y-53255038D02*
X161333333Y-53302657D01*
X161761905Y-54207419D02*
X161761905Y-53207419D01*
X161761905Y-53207419D02*
X162000000Y-53207419D01*
X162000000Y-53207419D02*
X162142857Y-53255038D01*
X162142857Y-53255038D02*
X162238095Y-53350276D01*
X162238095Y-53350276D02*
X162285714Y-53445514D01*
X162285714Y-53445514D02*
X162333333Y-53635990D01*
X162333333Y-53635990D02*
X162333333Y-53778847D01*
X162333333Y-53778847D02*
X162285714Y-53969323D01*
X162285714Y-53969323D02*
X162238095Y-54064561D01*
X162238095Y-54064561D02*
X162142857Y-54159800D01*
X162142857Y-54159800D02*
X162000000Y-54207419D01*
X162000000Y-54207419D02*
X161761905Y-54207419D01*
X163333333Y-54207419D02*
X163000000Y-53731228D01*
X162761905Y-54207419D02*
X162761905Y-53207419D01*
X162761905Y-53207419D02*
X163142857Y-53207419D01*
X163142857Y-53207419D02*
X163238095Y-53255038D01*
X163238095Y-53255038D02*
X163285714Y-53302657D01*
X163285714Y-53302657D02*
X163333333Y-53397895D01*
X163333333Y-53397895D02*
X163333333Y-53540752D01*
X163333333Y-53540752D02*
X163285714Y-53635990D01*
X163285714Y-53635990D02*
X163238095Y-53683609D01*
X163238095Y-53683609D02*
X163142857Y-53731228D01*
X163142857Y-53731228D02*
X162761905Y-53731228D01*
X164333333Y-54112180D02*
X164285714Y-54159800D01*
X164285714Y-54159800D02*
X164142857Y-54207419D01*
X164142857Y-54207419D02*
X164047619Y-54207419D01*
X164047619Y-54207419D02*
X163904762Y-54159800D01*
X163904762Y-54159800D02*
X163809524Y-54064561D01*
X163809524Y-54064561D02*
X163761905Y-53969323D01*
X163761905Y-53969323D02*
X163714286Y-53778847D01*
X163714286Y-53778847D02*
X163714286Y-53635990D01*
X163714286Y-53635990D02*
X163761905Y-53445514D01*
X163761905Y-53445514D02*
X163809524Y-53350276D01*
X163809524Y-53350276D02*
X163904762Y-53255038D01*
X163904762Y-53255038D02*
X164047619Y-53207419D01*
X164047619Y-53207419D02*
X164142857Y-53207419D01*
X164142857Y-53207419D02*
X164285714Y-53255038D01*
X164285714Y-53255038D02*
X164333333Y-53302657D01*
X164761905Y-53826466D02*
X165523810Y-53826466D01*
X165952381Y-53921704D02*
X166428571Y-53921704D01*
X165857143Y-54207419D02*
X166190476Y-53207419D01*
X166190476Y-53207419D02*
X166523809Y-54207419D01*
X167523810Y-53207419D02*
X168142857Y-53207419D01*
X168142857Y-53207419D02*
X167809524Y-53588371D01*
X167809524Y-53588371D02*
X167952381Y-53588371D01*
X167952381Y-53588371D02*
X168047619Y-53635990D01*
X168047619Y-53635990D02*
X168095238Y-53683609D01*
X168095238Y-53683609D02*
X168142857Y-53778847D01*
X168142857Y-53778847D02*
X168142857Y-54016942D01*
X168142857Y-54016942D02*
X168095238Y-54112180D01*
X168095238Y-54112180D02*
X168047619Y-54159800D01*
X168047619Y-54159800D02*
X167952381Y-54207419D01*
X167952381Y-54207419D02*
X167666667Y-54207419D01*
X167666667Y-54207419D02*
X167571429Y-54159800D01*
X167571429Y-54159800D02*
X167523810Y-54112180D01*
X168761905Y-53207419D02*
X168857143Y-53207419D01*
X168857143Y-53207419D02*
X168952381Y-53255038D01*
X168952381Y-53255038D02*
X169000000Y-53302657D01*
X169000000Y-53302657D02*
X169047619Y-53397895D01*
X169047619Y-53397895D02*
X169095238Y-53588371D01*
X169095238Y-53588371D02*
X169095238Y-53826466D01*
X169095238Y-53826466D02*
X169047619Y-54016942D01*
X169047619Y-54016942D02*
X169000000Y-54112180D01*
X169000000Y-54112180D02*
X168952381Y-54159800D01*
X168952381Y-54159800D02*
X168857143Y-54207419D01*
X168857143Y-54207419D02*
X168761905Y-54207419D01*
X168761905Y-54207419D02*
X168666667Y-54159800D01*
X168666667Y-54159800D02*
X168619048Y-54112180D01*
X168619048Y-54112180D02*
X168571429Y-54016942D01*
X168571429Y-54016942D02*
X168523810Y-53826466D01*
X168523810Y-53826466D02*
X168523810Y-53588371D01*
X168523810Y-53588371D02*
X168571429Y-53397895D01*
X168571429Y-53397895D02*
X168619048Y-53302657D01*
X168619048Y-53302657D02*
X168666667Y-53255038D01*
X168666667Y-53255038D02*
X168761905Y-53207419D01*
X169523810Y-53826466D02*
X170285715Y-53826466D01*
X170952381Y-53207419D02*
X171047619Y-53207419D01*
X171047619Y-53207419D02*
X171142857Y-53255038D01*
X171142857Y-53255038D02*
X171190476Y-53302657D01*
X171190476Y-53302657D02*
X171238095Y-53397895D01*
X171238095Y-53397895D02*
X171285714Y-53588371D01*
X171285714Y-53588371D02*
X171285714Y-53826466D01*
X171285714Y-53826466D02*
X171238095Y-54016942D01*
X171238095Y-54016942D02*
X171190476Y-54112180D01*
X171190476Y-54112180D02*
X171142857Y-54159800D01*
X171142857Y-54159800D02*
X171047619Y-54207419D01*
X171047619Y-54207419D02*
X170952381Y-54207419D01*
X170952381Y-54207419D02*
X170857143Y-54159800D01*
X170857143Y-54159800D02*
X170809524Y-54112180D01*
X170809524Y-54112180D02*
X170761905Y-54016942D01*
X170761905Y-54016942D02*
X170714286Y-53826466D01*
X170714286Y-53826466D02*
X170714286Y-53588371D01*
X170714286Y-53588371D02*
X170761905Y-53397895D01*
X170761905Y-53397895D02*
X170809524Y-53302657D01*
X170809524Y-53302657D02*
X170857143Y-53255038D01*
X170857143Y-53255038D02*
X170952381Y-53207419D01*
X171857143Y-53635990D02*
X171761905Y-53588371D01*
X171761905Y-53588371D02*
X171714286Y-53540752D01*
X171714286Y-53540752D02*
X171666667Y-53445514D01*
X171666667Y-53445514D02*
X171666667Y-53397895D01*
X171666667Y-53397895D02*
X171714286Y-53302657D01*
X171714286Y-53302657D02*
X171761905Y-53255038D01*
X171761905Y-53255038D02*
X171857143Y-53207419D01*
X171857143Y-53207419D02*
X172047619Y-53207419D01*
X172047619Y-53207419D02*
X172142857Y-53255038D01*
X172142857Y-53255038D02*
X172190476Y-53302657D01*
X172190476Y-53302657D02*
X172238095Y-53397895D01*
X172238095Y-53397895D02*
X172238095Y-53445514D01*
X172238095Y-53445514D02*
X172190476Y-53540752D01*
X172190476Y-53540752D02*
X172142857Y-53588371D01*
X172142857Y-53588371D02*
X172047619Y-53635990D01*
X172047619Y-53635990D02*
X171857143Y-53635990D01*
X171857143Y-53635990D02*
X171761905Y-53683609D01*
X171761905Y-53683609D02*
X171714286Y-53731228D01*
X171714286Y-53731228D02*
X171666667Y-53826466D01*
X171666667Y-53826466D02*
X171666667Y-54016942D01*
X171666667Y-54016942D02*
X171714286Y-54112180D01*
X171714286Y-54112180D02*
X171761905Y-54159800D01*
X171761905Y-54159800D02*
X171857143Y-54207419D01*
X171857143Y-54207419D02*
X172047619Y-54207419D01*
X172047619Y-54207419D02*
X172142857Y-54159800D01*
X172142857Y-54159800D02*
X172190476Y-54112180D01*
X172190476Y-54112180D02*
X172238095Y-54016942D01*
X172238095Y-54016942D02*
X172238095Y-53826466D01*
X172238095Y-53826466D02*
X172190476Y-53731228D01*
X172190476Y-53731228D02*
X172142857Y-53683609D01*
X172142857Y-53683609D02*
X172047619Y-53635990D01*
X172666667Y-53826466D02*
X173428572Y-53826466D01*
X173857143Y-53302657D02*
X173904762Y-53255038D01*
X173904762Y-53255038D02*
X174000000Y-53207419D01*
X174000000Y-53207419D02*
X174238095Y-53207419D01*
X174238095Y-53207419D02*
X174333333Y-53255038D01*
X174333333Y-53255038D02*
X174380952Y-53302657D01*
X174380952Y-53302657D02*
X174428571Y-53397895D01*
X174428571Y-53397895D02*
X174428571Y-53493133D01*
X174428571Y-53493133D02*
X174380952Y-53635990D01*
X174380952Y-53635990D02*
X173809524Y-54207419D01*
X173809524Y-54207419D02*
X174428571Y-54207419D01*
X175047619Y-53207419D02*
X175142857Y-53207419D01*
X175142857Y-53207419D02*
X175238095Y-53255038D01*
X175238095Y-53255038D02*
X175285714Y-53302657D01*
X175285714Y-53302657D02*
X175333333Y-53397895D01*
X175333333Y-53397895D02*
X175380952Y-53588371D01*
X175380952Y-53588371D02*
X175380952Y-53826466D01*
X175380952Y-53826466D02*
X175333333Y-54016942D01*
X175333333Y-54016942D02*
X175285714Y-54112180D01*
X175285714Y-54112180D02*
X175238095Y-54159800D01*
X175238095Y-54159800D02*
X175142857Y-54207419D01*
X175142857Y-54207419D02*
X175047619Y-54207419D01*
X175047619Y-54207419D02*
X174952381Y-54159800D01*
X174952381Y-54159800D02*
X174904762Y-54112180D01*
X174904762Y-54112180D02*
X174857143Y-54016942D01*
X174857143Y-54016942D02*
X174809524Y-53826466D01*
X174809524Y-53826466D02*
X174809524Y-53588371D01*
X174809524Y-53588371D02*
X174857143Y-53397895D01*
X174857143Y-53397895D02*
X174904762Y-53302657D01*
X174904762Y-53302657D02*
X174952381Y-53255038D01*
X174952381Y-53255038D02*
X175047619Y-53207419D01*
X175761905Y-53302657D02*
X175809524Y-53255038D01*
X175809524Y-53255038D02*
X175904762Y-53207419D01*
X175904762Y-53207419D02*
X176142857Y-53207419D01*
X176142857Y-53207419D02*
X176238095Y-53255038D01*
X176238095Y-53255038D02*
X176285714Y-53302657D01*
X176285714Y-53302657D02*
X176333333Y-53397895D01*
X176333333Y-53397895D02*
X176333333Y-53493133D01*
X176333333Y-53493133D02*
X176285714Y-53635990D01*
X176285714Y-53635990D02*
X175714286Y-54207419D01*
X175714286Y-54207419D02*
X176333333Y-54207419D01*
X177190476Y-53540752D02*
X177190476Y-54207419D01*
X176952381Y-53159800D02*
X176714286Y-53874085D01*
X176714286Y-53874085D02*
X177333333Y-53874085D01*
G36*
X174115950Y-59618530D02*
G01*
X169798165Y-59618530D01*
X169798165Y-58449505D01*
X169909276Y-58449505D01*
X169910006Y-58469000D01*
X170148101Y-59469000D01*
X170156235Y-59486732D01*
X170162604Y-59490651D01*
X170166351Y-59497123D01*
X170178296Y-59500308D01*
X170188827Y-59506789D01*
X170196102Y-59505056D01*
X170203326Y-59506983D01*
X170214024Y-59500789D01*
X170226054Y-59497925D01*
X170229973Y-59491555D01*
X170236445Y-59487809D01*
X170245053Y-59470302D01*
X170387217Y-58937186D01*
X170529381Y-59470302D01*
X170537989Y-59487810D01*
X170544461Y-59491557D01*
X170548380Y-59497925D01*
X170560406Y-59500788D01*
X170571108Y-59506984D01*
X170578333Y-59505057D01*
X170585607Y-59506789D01*
X170596136Y-59500308D01*
X170608083Y-59497123D01*
X170611829Y-59490651D01*
X170618199Y-59486732D01*
X170626333Y-59469000D01*
X170864429Y-58469000D01*
X170864863Y-58457419D01*
X171146741Y-58457419D01*
X171146741Y-59457419D01*
X171150547Y-59476553D01*
X171177607Y-59503613D01*
X171215875Y-59503613D01*
X171242935Y-59476553D01*
X171246741Y-59457419D01*
X171246741Y-58983609D01*
X171718169Y-58983609D01*
X171718169Y-59457419D01*
X171721975Y-59476553D01*
X171749035Y-59503613D01*
X171787303Y-59503613D01*
X171814363Y-59476553D01*
X171818169Y-59457419D01*
X171818169Y-58457419D01*
X172194360Y-58457419D01*
X172194360Y-59457419D01*
X172198166Y-59476553D01*
X172225226Y-59503613D01*
X172263494Y-59503613D01*
X172290554Y-59476553D01*
X172294360Y-59457419D01*
X172294360Y-58457419D01*
X172290554Y-58438285D01*
X172531499Y-58438285D01*
X172531499Y-58476553D01*
X172558559Y-58503613D01*
X172577693Y-58507419D01*
X172813407Y-58507419D01*
X172813407Y-59457419D01*
X172817213Y-59476553D01*
X172844273Y-59503613D01*
X172882541Y-59503613D01*
X172909601Y-59476553D01*
X172913407Y-59457419D01*
X172913407Y-58507419D01*
X173149121Y-58507419D01*
X173168255Y-58503613D01*
X173195315Y-58476553D01*
X173195315Y-58457419D01*
X173432455Y-58457419D01*
X173432455Y-59457419D01*
X173436261Y-59476553D01*
X173463321Y-59503613D01*
X173482455Y-59507419D01*
X173958645Y-59507419D01*
X173977779Y-59503613D01*
X174004839Y-59476553D01*
X174004839Y-59438285D01*
X173977779Y-59411225D01*
X173958645Y-59407419D01*
X173532455Y-59407419D01*
X173532455Y-58983609D01*
X173815788Y-58983609D01*
X173834922Y-58979803D01*
X173861982Y-58952743D01*
X173861982Y-58914475D01*
X173834922Y-58887415D01*
X173815788Y-58883609D01*
X173532455Y-58883609D01*
X173532455Y-58507419D01*
X173958645Y-58507419D01*
X173977779Y-58503613D01*
X174004839Y-58476553D01*
X174004839Y-58438285D01*
X173977779Y-58411225D01*
X173958645Y-58407419D01*
X173482455Y-58407419D01*
X173463321Y-58411225D01*
X173436261Y-58438285D01*
X173432455Y-58457419D01*
X173195315Y-58457419D01*
X173195315Y-58438285D01*
X173168255Y-58411225D01*
X173149121Y-58407419D01*
X172577693Y-58407419D01*
X172558559Y-58411225D01*
X172531499Y-58438285D01*
X172290554Y-58438285D01*
X172263494Y-58411225D01*
X172225226Y-58411225D01*
X172198166Y-58438285D01*
X172194360Y-58457419D01*
X171818169Y-58457419D01*
X171814363Y-58438285D01*
X171787303Y-58411225D01*
X171749035Y-58411225D01*
X171721975Y-58438285D01*
X171718169Y-58457419D01*
X171718169Y-58883609D01*
X171246741Y-58883609D01*
X171246741Y-58457419D01*
X171242935Y-58438285D01*
X171215875Y-58411225D01*
X171177607Y-58411225D01*
X171150547Y-58438285D01*
X171146741Y-58457419D01*
X170864863Y-58457419D01*
X170865159Y-58449505D01*
X170845102Y-58416913D01*
X170807875Y-58408049D01*
X170775283Y-58428106D01*
X170767149Y-58445838D01*
X170574948Y-59253075D01*
X170435529Y-58730250D01*
X170426921Y-58712743D01*
X170421022Y-58709327D01*
X170417607Y-58703429D01*
X170405047Y-58700079D01*
X170393802Y-58693569D01*
X170387218Y-58695324D01*
X170380632Y-58693568D01*
X170369382Y-58700080D01*
X170356827Y-58703429D01*
X170353412Y-58709326D01*
X170347513Y-58712742D01*
X170338905Y-58730250D01*
X170199485Y-59253075D01*
X170007286Y-58445838D01*
X169999152Y-58428106D01*
X169966560Y-58408049D01*
X169929333Y-58416913D01*
X169909276Y-58449505D01*
X169798165Y-58449505D01*
X169798165Y-58296308D01*
X174115950Y-58296308D01*
X174115950Y-59618530D01*
G37*
X152976190Y-78957419D02*
X152976190Y-79671704D01*
X152976190Y-79671704D02*
X152928571Y-79814561D01*
X152928571Y-79814561D02*
X152833333Y-79909800D01*
X152833333Y-79909800D02*
X152690476Y-79957419D01*
X152690476Y-79957419D02*
X152595238Y-79957419D01*
X153404762Y-79671704D02*
X153880952Y-79671704D01*
X153309524Y-79957419D02*
X153642857Y-78957419D01*
X153642857Y-78957419D02*
X153976190Y-79957419D01*
X154309524Y-79957419D02*
X154309524Y-78957419D01*
X154785714Y-79957419D02*
X154785714Y-78957419D01*
X154785714Y-78957419D02*
X155119047Y-79671704D01*
X155119047Y-79671704D02*
X155452380Y-78957419D01*
X155452380Y-78957419D02*
X155452380Y-79957419D01*
X155928571Y-79433609D02*
X156261904Y-79433609D01*
X156404761Y-79957419D02*
X155928571Y-79957419D01*
X155928571Y-79957419D02*
X155928571Y-78957419D01*
X155928571Y-78957419D02*
X156404761Y-78957419D01*
X157547619Y-79909800D02*
X157690476Y-79957419D01*
X157690476Y-79957419D02*
X157928571Y-79957419D01*
X157928571Y-79957419D02*
X158023809Y-79909800D01*
X158023809Y-79909800D02*
X158071428Y-79862180D01*
X158071428Y-79862180D02*
X158119047Y-79766942D01*
X158119047Y-79766942D02*
X158119047Y-79671704D01*
X158119047Y-79671704D02*
X158071428Y-79576466D01*
X158071428Y-79576466D02*
X158023809Y-79528847D01*
X158023809Y-79528847D02*
X157928571Y-79481228D01*
X157928571Y-79481228D02*
X157738095Y-79433609D01*
X157738095Y-79433609D02*
X157642857Y-79385990D01*
X157642857Y-79385990D02*
X157595238Y-79338371D01*
X157595238Y-79338371D02*
X157547619Y-79243133D01*
X157547619Y-79243133D02*
X157547619Y-79147895D01*
X157547619Y-79147895D02*
X157595238Y-79052657D01*
X157595238Y-79052657D02*
X157642857Y-79005038D01*
X157642857Y-79005038D02*
X157738095Y-78957419D01*
X157738095Y-78957419D02*
X157976190Y-78957419D01*
X157976190Y-78957419D02*
X158119047Y-79005038D01*
X158547619Y-79433609D02*
X158880952Y-79433609D01*
X159023809Y-79957419D02*
X158547619Y-79957419D01*
X158547619Y-79957419D02*
X158547619Y-78957419D01*
X158547619Y-78957419D02*
X159023809Y-78957419D01*
X160119047Y-80052657D02*
X160023809Y-80005038D01*
X160023809Y-80005038D02*
X159928571Y-79909800D01*
X159928571Y-79909800D02*
X159785714Y-79766942D01*
X159785714Y-79766942D02*
X159690476Y-79719323D01*
X159690476Y-79719323D02*
X159595238Y-79719323D01*
X159642857Y-79957419D02*
X159547619Y-79909800D01*
X159547619Y-79909800D02*
X159452381Y-79814561D01*
X159452381Y-79814561D02*
X159404762Y-79624085D01*
X159404762Y-79624085D02*
X159404762Y-79290752D01*
X159404762Y-79290752D02*
X159452381Y-79100276D01*
X159452381Y-79100276D02*
X159547619Y-79005038D01*
X159547619Y-79005038D02*
X159642857Y-78957419D01*
X159642857Y-78957419D02*
X159833333Y-78957419D01*
X159833333Y-78957419D02*
X159928571Y-79005038D01*
X159928571Y-79005038D02*
X160023809Y-79100276D01*
X160023809Y-79100276D02*
X160071428Y-79290752D01*
X160071428Y-79290752D02*
X160071428Y-79624085D01*
X160071428Y-79624085D02*
X160023809Y-79814561D01*
X160023809Y-79814561D02*
X159928571Y-79909800D01*
X159928571Y-79909800D02*
X159833333Y-79957419D01*
X159833333Y-79957419D02*
X159642857Y-79957419D01*
X160500000Y-78957419D02*
X160500000Y-79766942D01*
X160500000Y-79766942D02*
X160547619Y-79862180D01*
X160547619Y-79862180D02*
X160595238Y-79909800D01*
X160595238Y-79909800D02*
X160690476Y-79957419D01*
X160690476Y-79957419D02*
X160880952Y-79957419D01*
X160880952Y-79957419D02*
X160976190Y-79909800D01*
X160976190Y-79909800D02*
X161023809Y-79862180D01*
X161023809Y-79862180D02*
X161071428Y-79766942D01*
X161071428Y-79766942D02*
X161071428Y-78957419D01*
X161547619Y-79433609D02*
X161880952Y-79433609D01*
X162023809Y-79957419D02*
X161547619Y-79957419D01*
X161547619Y-79957419D02*
X161547619Y-78957419D01*
X161547619Y-78957419D02*
X162023809Y-78957419D01*
X162452381Y-79957419D02*
X162452381Y-78957419D01*
X163499999Y-79957419D02*
X163166666Y-79481228D01*
X162928571Y-79957419D02*
X162928571Y-78957419D01*
X162928571Y-78957419D02*
X163309523Y-78957419D01*
X163309523Y-78957419D02*
X163404761Y-79005038D01*
X163404761Y-79005038D02*
X163452380Y-79052657D01*
X163452380Y-79052657D02*
X163499999Y-79147895D01*
X163499999Y-79147895D02*
X163499999Y-79290752D01*
X163499999Y-79290752D02*
X163452380Y-79385990D01*
X163452380Y-79385990D02*
X163404761Y-79433609D01*
X163404761Y-79433609D02*
X163309523Y-79481228D01*
X163309523Y-79481228D02*
X162928571Y-79481228D01*
X163880952Y-79671704D02*
X164357142Y-79671704D01*
X163785714Y-79957419D02*
X164119047Y-78957419D01*
X164119047Y-78957419D02*
X164452380Y-79957419D01*
X135214286Y-54957419D02*
X135214286Y-53957419D01*
X135214286Y-53957419D02*
X135595238Y-53957419D01*
X135595238Y-53957419D02*
X135690476Y-54005038D01*
X135690476Y-54005038D02*
X135738095Y-54052657D01*
X135738095Y-54052657D02*
X135785714Y-54147895D01*
X135785714Y-54147895D02*
X135785714Y-54290752D01*
X135785714Y-54290752D02*
X135738095Y-54385990D01*
X135738095Y-54385990D02*
X135690476Y-54433609D01*
X135690476Y-54433609D02*
X135595238Y-54481228D01*
X135595238Y-54481228D02*
X135214286Y-54481228D01*
X136785714Y-54957419D02*
X136452381Y-54481228D01*
X136214286Y-54957419D02*
X136214286Y-53957419D01*
X136214286Y-53957419D02*
X136595238Y-53957419D01*
X136595238Y-53957419D02*
X136690476Y-54005038D01*
X136690476Y-54005038D02*
X136738095Y-54052657D01*
X136738095Y-54052657D02*
X136785714Y-54147895D01*
X136785714Y-54147895D02*
X136785714Y-54290752D01*
X136785714Y-54290752D02*
X136738095Y-54385990D01*
X136738095Y-54385990D02*
X136690476Y-54433609D01*
X136690476Y-54433609D02*
X136595238Y-54481228D01*
X136595238Y-54481228D02*
X136214286Y-54481228D01*
X137404762Y-53957419D02*
X137595238Y-53957419D01*
X137595238Y-53957419D02*
X137690476Y-54005038D01*
X137690476Y-54005038D02*
X137785714Y-54100276D01*
X137785714Y-54100276D02*
X137833333Y-54290752D01*
X137833333Y-54290752D02*
X137833333Y-54624085D01*
X137833333Y-54624085D02*
X137785714Y-54814561D01*
X137785714Y-54814561D02*
X137690476Y-54909800D01*
X137690476Y-54909800D02*
X137595238Y-54957419D01*
X137595238Y-54957419D02*
X137404762Y-54957419D01*
X137404762Y-54957419D02*
X137309524Y-54909800D01*
X137309524Y-54909800D02*
X137214286Y-54814561D01*
X137214286Y-54814561D02*
X137166667Y-54624085D01*
X137166667Y-54624085D02*
X137166667Y-54290752D01*
X137166667Y-54290752D02*
X137214286Y-54100276D01*
X137214286Y-54100276D02*
X137309524Y-54005038D01*
X137309524Y-54005038D02*
X137404762Y-53957419D01*
X138785714Y-54005038D02*
X138690476Y-53957419D01*
X138690476Y-53957419D02*
X138547619Y-53957419D01*
X138547619Y-53957419D02*
X138404762Y-54005038D01*
X138404762Y-54005038D02*
X138309524Y-54100276D01*
X138309524Y-54100276D02*
X138261905Y-54195514D01*
X138261905Y-54195514D02*
X138214286Y-54385990D01*
X138214286Y-54385990D02*
X138214286Y-54528847D01*
X138214286Y-54528847D02*
X138261905Y-54719323D01*
X138261905Y-54719323D02*
X138309524Y-54814561D01*
X138309524Y-54814561D02*
X138404762Y-54909800D01*
X138404762Y-54909800D02*
X138547619Y-54957419D01*
X138547619Y-54957419D02*
X138642857Y-54957419D01*
X138642857Y-54957419D02*
X138785714Y-54909800D01*
X138785714Y-54909800D02*
X138833333Y-54862180D01*
X138833333Y-54862180D02*
X138833333Y-54528847D01*
X138833333Y-54528847D02*
X138642857Y-54528847D01*
G36*
X170407827Y-56048739D02*
G01*
X170488980Y-56129892D01*
X170530517Y-56212966D01*
X170575312Y-56392145D01*
X170575312Y-56522692D01*
X170530517Y-56701870D01*
X170488980Y-56784944D01*
X170407826Y-56866098D01*
X170283866Y-56907419D01*
X170103884Y-56907419D01*
X170103884Y-56007419D01*
X170283866Y-56007419D01*
X170407827Y-56048739D01*
G37*
G36*
X172830236Y-57118530D02*
G01*
X169892773Y-57118530D01*
X169892773Y-55957419D01*
X170003884Y-55957419D01*
X170003884Y-56957419D01*
X170007690Y-56976553D01*
X170034750Y-57003613D01*
X170053884Y-57007419D01*
X170291979Y-57007419D01*
X170299841Y-57005855D01*
X170307790Y-57004853D01*
X170450647Y-56957234D01*
X170452822Y-56955994D01*
X170453971Y-56955994D01*
X170460641Y-56951536D01*
X170467595Y-56947573D01*
X170468107Y-56946547D01*
X170470192Y-56945155D01*
X170565430Y-56849916D01*
X170569883Y-56843250D01*
X170574795Y-56836922D01*
X170622414Y-56741684D01*
X170623860Y-56736402D01*
X170626200Y-56731450D01*
X170673819Y-56540974D01*
X170674116Y-56534856D01*
X170675312Y-56528847D01*
X170675312Y-56385990D01*
X170674116Y-56379980D01*
X170673819Y-56373863D01*
X170626200Y-56183387D01*
X170623860Y-56178434D01*
X170622414Y-56173153D01*
X170574795Y-56077915D01*
X170569879Y-56071580D01*
X170565429Y-56064921D01*
X170470191Y-55969683D01*
X170468108Y-55968291D01*
X170467595Y-55967265D01*
X170460634Y-55963297D01*
X170453970Y-55958844D01*
X170452822Y-55958844D01*
X170450647Y-55957604D01*
X170450092Y-55957419D01*
X171003884Y-55957419D01*
X171003884Y-56957419D01*
X171007690Y-56976553D01*
X171034750Y-57003613D01*
X171073018Y-57003613D01*
X171100078Y-56976553D01*
X171103884Y-56957419D01*
X171103884Y-56145697D01*
X171581900Y-56982226D01*
X171594698Y-56996951D01*
X171601322Y-56998757D01*
X171606178Y-57003613D01*
X171619126Y-57003613D01*
X171631618Y-57007020D01*
X171637580Y-57003613D01*
X171644446Y-57003613D01*
X171653599Y-56994459D01*
X171664844Y-56988034D01*
X171666651Y-56981407D01*
X171671506Y-56976553D01*
X171675312Y-56957419D01*
X171675312Y-56385990D01*
X172003884Y-56385990D01*
X172003884Y-56528847D01*
X172005079Y-56534856D01*
X172005377Y-56540974D01*
X172052996Y-56731450D01*
X172055335Y-56736402D01*
X172056782Y-56741684D01*
X172104400Y-56836921D01*
X172109311Y-56843249D01*
X172113766Y-56849916D01*
X172209005Y-56945155D01*
X172211086Y-56946545D01*
X172211600Y-56947573D01*
X172218565Y-56951543D01*
X172225226Y-56955994D01*
X172226374Y-56955994D01*
X172228549Y-56957234D01*
X172371405Y-57004853D01*
X172379355Y-57005855D01*
X172387217Y-57007419D01*
X172482455Y-57007419D01*
X172490317Y-57005855D01*
X172498266Y-57004853D01*
X172641123Y-56957234D01*
X172643298Y-56955994D01*
X172644447Y-56955994D01*
X172651117Y-56951536D01*
X172658071Y-56947573D01*
X172658583Y-56946547D01*
X172660668Y-56945155D01*
X172708287Y-56897535D01*
X172719125Y-56881314D01*
X172719125Y-56843045D01*
X172692065Y-56815986D01*
X172653796Y-56815986D01*
X172637575Y-56826825D01*
X172598302Y-56866098D01*
X172474342Y-56907419D01*
X172395330Y-56907419D01*
X172271370Y-56866099D01*
X172190214Y-56784942D01*
X172148679Y-56701872D01*
X172103884Y-56522692D01*
X172103884Y-56392145D01*
X172148679Y-56212965D01*
X172190215Y-56129893D01*
X172271368Y-56048739D01*
X172395330Y-56007419D01*
X172474342Y-56007419D01*
X172598303Y-56048739D01*
X172637575Y-56088012D01*
X172653796Y-56098851D01*
X172692065Y-56098851D01*
X172719125Y-56071791D01*
X172719125Y-56033522D01*
X172708286Y-56017301D01*
X172660667Y-55969683D01*
X172658584Y-55968291D01*
X172658071Y-55967265D01*
X172651110Y-55963297D01*
X172644446Y-55958844D01*
X172643298Y-55958844D01*
X172641123Y-55957604D01*
X172498266Y-55909985D01*
X172490317Y-55908982D01*
X172482455Y-55907419D01*
X172387217Y-55907419D01*
X172379355Y-55908982D01*
X172371405Y-55909985D01*
X172228549Y-55957604D01*
X172226374Y-55958844D01*
X172225226Y-55958844D01*
X172218565Y-55963294D01*
X172211600Y-55967265D01*
X172211086Y-55968292D01*
X172209005Y-55969683D01*
X172113767Y-56064921D01*
X172109315Y-56071582D01*
X172104400Y-56077916D01*
X172056782Y-56173153D01*
X172055335Y-56178434D01*
X172052996Y-56183387D01*
X172005377Y-56373863D01*
X172005079Y-56379980D01*
X172003884Y-56385990D01*
X171675312Y-56385990D01*
X171675312Y-55957419D01*
X171671506Y-55938285D01*
X171644446Y-55911225D01*
X171606178Y-55911225D01*
X171579118Y-55938285D01*
X171575312Y-55957419D01*
X171575312Y-56769140D01*
X171097296Y-55932612D01*
X171084499Y-55917887D01*
X171077872Y-55916079D01*
X171073018Y-55911225D01*
X171060071Y-55911225D01*
X171047578Y-55907818D01*
X171041616Y-55911225D01*
X171034750Y-55911225D01*
X171025596Y-55920378D01*
X171014352Y-55926804D01*
X171012544Y-55933430D01*
X171007690Y-55938285D01*
X171003884Y-55957419D01*
X170450092Y-55957419D01*
X170307790Y-55909985D01*
X170299841Y-55908982D01*
X170291979Y-55907419D01*
X170053884Y-55907419D01*
X170034750Y-55911225D01*
X170007690Y-55938285D01*
X170003884Y-55957419D01*
X169892773Y-55957419D01*
X169892773Y-55796308D01*
X172830236Y-55796308D01*
X172830236Y-57118530D01*
G37*
G36*
X170253065Y-71774929D02*
G01*
X170286600Y-71808465D01*
X170325312Y-71885888D01*
X170325312Y-72005138D01*
X170286600Y-72082561D01*
X170250454Y-72118708D01*
X170173033Y-72157419D01*
X169853884Y-72157419D01*
X169853884Y-71733609D01*
X170129104Y-71733609D01*
X170253065Y-71774929D01*
G37*
G36*
X170202837Y-71296130D02*
G01*
X170238981Y-71332275D01*
X170277693Y-71409698D01*
X170277693Y-71481329D01*
X170238981Y-71558752D01*
X170202837Y-71594897D01*
X170125414Y-71633609D01*
X169853884Y-71633609D01*
X169853884Y-71257419D01*
X170125414Y-71257419D01*
X170202837Y-71296130D01*
G37*
G36*
X173294522Y-72368530D02*
G01*
X169642773Y-72368530D01*
X169642773Y-71207419D01*
X169753884Y-71207419D01*
X169753884Y-72207419D01*
X169757690Y-72226553D01*
X169784750Y-72253613D01*
X169803884Y-72257419D01*
X170184836Y-72257419D01*
X170187292Y-72256930D01*
X170188381Y-72257293D01*
X170196108Y-72255176D01*
X170203970Y-72253613D01*
X170204781Y-72252801D01*
X170207197Y-72252140D01*
X170302434Y-72204522D01*
X170308761Y-72199611D01*
X170315430Y-72195155D01*
X170363049Y-72147535D01*
X170367502Y-72140869D01*
X170372414Y-72134541D01*
X170420033Y-72039303D01*
X170420694Y-72036887D01*
X170421506Y-72036076D01*
X170423069Y-72028214D01*
X170425186Y-72020487D01*
X170424823Y-72019398D01*
X170425312Y-72016942D01*
X170425312Y-71874085D01*
X170424823Y-71871628D01*
X170425186Y-71870540D01*
X170423069Y-71862812D01*
X170421506Y-71854951D01*
X170420694Y-71854139D01*
X170420033Y-71851724D01*
X170372414Y-71756486D01*
X170367502Y-71750157D01*
X170363048Y-71743491D01*
X170315429Y-71695873D01*
X170313346Y-71694481D01*
X170312833Y-71693455D01*
X170305872Y-71689487D01*
X170299208Y-71685034D01*
X170298060Y-71685034D01*
X170295885Y-71683794D01*
X170264724Y-71673407D01*
X170267810Y-71671345D01*
X170315429Y-71623727D01*
X170319883Y-71617060D01*
X170324795Y-71610732D01*
X170372414Y-71515494D01*
X170373075Y-71513078D01*
X170373887Y-71512267D01*
X170375450Y-71504405D01*
X170377567Y-71496678D01*
X170377204Y-71495589D01*
X170377693Y-71493133D01*
X170377693Y-71397895D01*
X170377204Y-71395438D01*
X170377567Y-71394350D01*
X170375450Y-71386622D01*
X170373887Y-71378761D01*
X170373075Y-71377949D01*
X170372414Y-71375534D01*
X170324795Y-71280296D01*
X170319883Y-71273967D01*
X170315429Y-71267301D01*
X170267810Y-71219683D01*
X170261148Y-71215231D01*
X170254815Y-71210316D01*
X170249021Y-71207419D01*
X170753884Y-71207419D01*
X170753884Y-72207419D01*
X170757690Y-72226553D01*
X170784750Y-72253613D01*
X170803884Y-72257419D01*
X171280074Y-72257419D01*
X171299208Y-72253613D01*
X171326268Y-72226553D01*
X171326268Y-72188285D01*
X171299208Y-72161225D01*
X171280074Y-72157419D01*
X170853884Y-72157419D01*
X170853884Y-71207419D01*
X171563408Y-71207419D01*
X171563408Y-72016942D01*
X171563896Y-72019398D01*
X171563534Y-72020487D01*
X171565650Y-72028214D01*
X171567214Y-72036076D01*
X171568025Y-72036887D01*
X171568687Y-72039303D01*
X171616305Y-72134540D01*
X171621216Y-72140868D01*
X171625671Y-72147535D01*
X171673290Y-72195155D01*
X171679956Y-72199609D01*
X171686285Y-72204521D01*
X171781523Y-72252140D01*
X171783938Y-72252801D01*
X171784750Y-72253613D01*
X171792611Y-72255176D01*
X171800339Y-72257293D01*
X171801427Y-72256930D01*
X171803884Y-72257419D01*
X171994360Y-72257419D01*
X171996816Y-72256930D01*
X171997905Y-72257293D01*
X172005632Y-72255176D01*
X172013494Y-72253613D01*
X172014305Y-72252801D01*
X172016721Y-72252140D01*
X172111958Y-72204522D01*
X172118285Y-72199611D01*
X172124954Y-72195155D01*
X172172573Y-72147535D01*
X172177026Y-72140869D01*
X172181938Y-72134541D01*
X172229557Y-72039303D01*
X172230218Y-72036887D01*
X172231030Y-72036076D01*
X172232593Y-72028214D01*
X172234710Y-72020487D01*
X172234347Y-72019398D01*
X172234836Y-72016942D01*
X172234836Y-71207419D01*
X172611027Y-71207419D01*
X172611027Y-72207419D01*
X172614833Y-72226553D01*
X172641893Y-72253613D01*
X172661027Y-72257419D01*
X173137217Y-72257419D01*
X173156351Y-72253613D01*
X173183411Y-72226553D01*
X173183411Y-72188285D01*
X173156351Y-72161225D01*
X173137217Y-72157419D01*
X172711027Y-72157419D01*
X172711027Y-71733609D01*
X172994360Y-71733609D01*
X173013494Y-71729803D01*
X173040554Y-71702743D01*
X173040554Y-71664475D01*
X173013494Y-71637415D01*
X172994360Y-71633609D01*
X172711027Y-71633609D01*
X172711027Y-71257419D01*
X173137217Y-71257419D01*
X173156351Y-71253613D01*
X173183411Y-71226553D01*
X173183411Y-71188285D01*
X173156351Y-71161225D01*
X173137217Y-71157419D01*
X172661027Y-71157419D01*
X172641893Y-71161225D01*
X172614833Y-71188285D01*
X172611027Y-71207419D01*
X172234836Y-71207419D01*
X172231030Y-71188285D01*
X172203970Y-71161225D01*
X172165702Y-71161225D01*
X172138642Y-71188285D01*
X172134836Y-71207419D01*
X172134836Y-72005138D01*
X172096124Y-72082561D01*
X172059978Y-72118708D01*
X171982557Y-72157419D01*
X171815688Y-72157419D01*
X171738265Y-72118708D01*
X171702119Y-72082561D01*
X171663408Y-72005139D01*
X171663408Y-71207419D01*
X171659602Y-71188285D01*
X171632542Y-71161225D01*
X171594274Y-71161225D01*
X171567214Y-71188285D01*
X171563408Y-71207419D01*
X170853884Y-71207419D01*
X170850078Y-71188285D01*
X170823018Y-71161225D01*
X170784750Y-71161225D01*
X170757690Y-71188285D01*
X170753884Y-71207419D01*
X170249021Y-71207419D01*
X170159578Y-71162698D01*
X170157162Y-71162036D01*
X170156351Y-71161225D01*
X170148489Y-71159661D01*
X170140762Y-71157545D01*
X170139673Y-71157907D01*
X170137217Y-71157419D01*
X169803884Y-71157419D01*
X169784750Y-71161225D01*
X169757690Y-71188285D01*
X169753884Y-71207419D01*
X169642773Y-71207419D01*
X169642773Y-71046308D01*
X173294522Y-71046308D01*
X173294522Y-72368530D01*
G37*
X100684211Y-67076466D02*
X101446116Y-67076466D01*
X95193884Y-73348609D02*
X95527217Y-73348609D01*
X95670074Y-73872419D02*
X95193884Y-73872419D01*
X95193884Y-73872419D02*
X95193884Y-72872419D01*
X95193884Y-72872419D02*
X95670074Y-72872419D01*
X96098646Y-73872419D02*
X96098646Y-72872419D01*
X96098646Y-72872419D02*
X96670074Y-73872419D01*
X96670074Y-73872419D02*
X96670074Y-72872419D01*
X97717693Y-73777180D02*
X97670074Y-73824800D01*
X97670074Y-73824800D02*
X97527217Y-73872419D01*
X97527217Y-73872419D02*
X97431979Y-73872419D01*
X97431979Y-73872419D02*
X97289122Y-73824800D01*
X97289122Y-73824800D02*
X97193884Y-73729561D01*
X97193884Y-73729561D02*
X97146265Y-73634323D01*
X97146265Y-73634323D02*
X97098646Y-73443847D01*
X97098646Y-73443847D02*
X97098646Y-73300990D01*
X97098646Y-73300990D02*
X97146265Y-73110514D01*
X97146265Y-73110514D02*
X97193884Y-73015276D01*
X97193884Y-73015276D02*
X97289122Y-72920038D01*
X97289122Y-72920038D02*
X97431979Y-72872419D01*
X97431979Y-72872419D02*
X97527217Y-72872419D01*
X97527217Y-72872419D02*
X97670074Y-72920038D01*
X97670074Y-72920038D02*
X97717693Y-72967657D01*
X98670074Y-73872419D02*
X98098646Y-73872419D01*
X98384360Y-73872419D02*
X98384360Y-72872419D01*
X98384360Y-72872419D02*
X98289122Y-73015276D01*
X98289122Y-73015276D02*
X98193884Y-73110514D01*
X98193884Y-73110514D02*
X98098646Y-73158133D01*
G36*
X170503065Y-61524929D02*
G01*
X170536600Y-61558465D01*
X170575312Y-61635888D01*
X170575312Y-61755138D01*
X170536600Y-61832561D01*
X170500454Y-61868708D01*
X170423033Y-61907419D01*
X170103884Y-61907419D01*
X170103884Y-61483609D01*
X170379104Y-61483609D01*
X170503065Y-61524929D01*
G37*
G36*
X170452837Y-61046130D02*
G01*
X170488981Y-61082275D01*
X170527693Y-61159698D01*
X170527693Y-61231329D01*
X170488981Y-61308752D01*
X170452837Y-61344897D01*
X170375414Y-61383609D01*
X170103884Y-61383609D01*
X170103884Y-61007419D01*
X170375414Y-61007419D01*
X170452837Y-61046130D01*
G37*
G36*
X172222608Y-61621704D02*
G01*
X171885160Y-61621704D01*
X172053884Y-61115532D01*
X172222608Y-61621704D01*
G37*
G36*
X174451526Y-62118530D02*
G01*
X169892773Y-62118530D01*
X169892773Y-60957419D01*
X170003884Y-60957419D01*
X170003884Y-61957419D01*
X170007690Y-61976553D01*
X170034750Y-62003613D01*
X170053884Y-62007419D01*
X170434836Y-62007419D01*
X170437292Y-62006930D01*
X170438381Y-62007293D01*
X170446108Y-62005176D01*
X170453970Y-62003613D01*
X170454781Y-62002801D01*
X170457197Y-62002140D01*
X170552434Y-61954522D01*
X170558761Y-61949611D01*
X170565430Y-61945155D01*
X170613049Y-61897535D01*
X170617502Y-61890869D01*
X170622414Y-61884541D01*
X170670033Y-61789303D01*
X170670694Y-61786887D01*
X170671506Y-61786076D01*
X170673069Y-61778214D01*
X170675186Y-61770487D01*
X170674823Y-61769398D01*
X170675312Y-61766942D01*
X170675312Y-61624085D01*
X170674823Y-61621628D01*
X170675186Y-61620540D01*
X170673069Y-61612812D01*
X170671506Y-61604951D01*
X170670694Y-61604139D01*
X170670033Y-61601724D01*
X170622414Y-61506486D01*
X170617502Y-61500157D01*
X170613048Y-61493491D01*
X170565429Y-61445873D01*
X170563346Y-61444481D01*
X170562833Y-61443455D01*
X170555872Y-61439487D01*
X170549208Y-61435034D01*
X170548060Y-61435034D01*
X170545885Y-61433794D01*
X170514724Y-61423407D01*
X170517810Y-61421345D01*
X170565429Y-61373727D01*
X170569883Y-61367060D01*
X170574795Y-61360732D01*
X170622414Y-61265494D01*
X170623075Y-61263078D01*
X170623887Y-61262267D01*
X170625450Y-61254405D01*
X170627567Y-61246678D01*
X170627204Y-61245589D01*
X170627693Y-61243133D01*
X170627693Y-61147895D01*
X170627204Y-61145438D01*
X170627567Y-61144350D01*
X170625450Y-61136622D01*
X170623887Y-61128761D01*
X170623075Y-61127949D01*
X170622414Y-61125534D01*
X170574795Y-61030296D01*
X170569883Y-61023967D01*
X170565429Y-61017301D01*
X170517810Y-60969683D01*
X170511148Y-60965231D01*
X170504815Y-60960316D01*
X170499021Y-60957419D01*
X171003884Y-60957419D01*
X171003884Y-61957419D01*
X171007690Y-61976553D01*
X171034750Y-62003613D01*
X171053884Y-62007419D01*
X171530074Y-62007419D01*
X171549208Y-62003613D01*
X171576268Y-61976553D01*
X171576268Y-61960963D01*
X171670677Y-61960963D01*
X171687791Y-61995192D01*
X171724095Y-62007293D01*
X171758324Y-61990179D01*
X171767985Y-61973230D01*
X171851827Y-61721704D01*
X172255941Y-61721704D01*
X172339783Y-61973230D01*
X172349444Y-61990178D01*
X172383673Y-62007293D01*
X172419977Y-61995191D01*
X172437091Y-61960963D01*
X172434651Y-61941607D01*
X172249445Y-61385990D01*
X172622932Y-61385990D01*
X172622932Y-61528847D01*
X172624127Y-61534856D01*
X172624425Y-61540974D01*
X172672044Y-61731450D01*
X172674383Y-61736402D01*
X172675830Y-61741684D01*
X172723448Y-61836921D01*
X172728359Y-61843249D01*
X172732814Y-61849916D01*
X172828053Y-61945155D01*
X172830134Y-61946545D01*
X172830648Y-61947573D01*
X172837613Y-61951543D01*
X172844274Y-61955994D01*
X172845422Y-61955994D01*
X172847597Y-61957234D01*
X172990453Y-62004853D01*
X172998403Y-62005855D01*
X173006265Y-62007419D01*
X173101503Y-62007419D01*
X173109365Y-62005855D01*
X173117314Y-62004853D01*
X173260171Y-61957234D01*
X173262346Y-61955994D01*
X173263495Y-61955994D01*
X173270165Y-61951536D01*
X173277119Y-61947573D01*
X173277631Y-61946547D01*
X173279716Y-61945155D01*
X173327335Y-61897535D01*
X173338173Y-61881314D01*
X173338173Y-61843045D01*
X173311113Y-61815986D01*
X173272844Y-61815986D01*
X173256623Y-61826825D01*
X173217350Y-61866098D01*
X173093390Y-61907419D01*
X173014378Y-61907419D01*
X172890418Y-61866099D01*
X172809262Y-61784942D01*
X172767727Y-61701872D01*
X172722932Y-61522692D01*
X172722932Y-61392145D01*
X172767727Y-61212965D01*
X172809263Y-61129893D01*
X172890416Y-61048739D01*
X173014378Y-61007419D01*
X173093390Y-61007419D01*
X173217351Y-61048739D01*
X173256623Y-61088012D01*
X173272844Y-61098851D01*
X173311113Y-61098851D01*
X173338173Y-61071791D01*
X173338173Y-61033522D01*
X173327334Y-61017301D01*
X173279715Y-60969683D01*
X173277632Y-60968291D01*
X173277119Y-60967265D01*
X173270158Y-60963297D01*
X173263494Y-60958844D01*
X173262346Y-60958844D01*
X173260171Y-60957604D01*
X173259616Y-60957419D01*
X173670551Y-60957419D01*
X173670551Y-61957419D01*
X173674357Y-61976553D01*
X173701417Y-62003613D01*
X173739685Y-62003613D01*
X173766745Y-61976553D01*
X173770551Y-61957419D01*
X173770551Y-61549557D01*
X173857997Y-61462110D01*
X174251979Y-61987419D01*
X174266504Y-62000443D01*
X174304388Y-62005855D01*
X174335003Y-61982894D01*
X174340415Y-61945010D01*
X174331979Y-61927419D01*
X173929426Y-61390681D01*
X174327334Y-60992774D01*
X174338173Y-60976553D01*
X174338173Y-60938285D01*
X174311113Y-60911225D01*
X174272845Y-60911225D01*
X174256624Y-60922064D01*
X173770551Y-61408137D01*
X173770551Y-60957419D01*
X173766745Y-60938285D01*
X173739685Y-60911225D01*
X173701417Y-60911225D01*
X173674357Y-60938285D01*
X173670551Y-60957419D01*
X173259616Y-60957419D01*
X173117314Y-60909985D01*
X173109365Y-60908982D01*
X173101503Y-60907419D01*
X173006265Y-60907419D01*
X172998403Y-60908982D01*
X172990453Y-60909985D01*
X172847597Y-60957604D01*
X172845422Y-60958844D01*
X172844274Y-60958844D01*
X172837613Y-60963294D01*
X172830648Y-60967265D01*
X172830134Y-60968292D01*
X172828053Y-60969683D01*
X172732815Y-61064921D01*
X172728363Y-61071582D01*
X172723448Y-61077916D01*
X172675830Y-61173153D01*
X172674383Y-61178434D01*
X172672044Y-61183387D01*
X172624425Y-61373863D01*
X172624127Y-61379980D01*
X172622932Y-61385990D01*
X172249445Y-61385990D01*
X172101318Y-60941608D01*
X172091657Y-60924659D01*
X172088314Y-60922987D01*
X172086644Y-60919647D01*
X172071607Y-60914634D01*
X172057428Y-60907545D01*
X172053883Y-60908726D01*
X172050340Y-60907545D01*
X172036166Y-60914632D01*
X172021124Y-60919646D01*
X172019452Y-60922989D01*
X172016111Y-60924660D01*
X172006450Y-60941608D01*
X171673117Y-61941608D01*
X171670677Y-61960963D01*
X171576268Y-61960963D01*
X171576268Y-61938285D01*
X171549208Y-61911225D01*
X171530074Y-61907419D01*
X171103884Y-61907419D01*
X171103884Y-60957419D01*
X171100078Y-60938285D01*
X171073018Y-60911225D01*
X171034750Y-60911225D01*
X171007690Y-60938285D01*
X171003884Y-60957419D01*
X170499021Y-60957419D01*
X170409578Y-60912698D01*
X170407162Y-60912036D01*
X170406351Y-60911225D01*
X170398489Y-60909661D01*
X170390762Y-60907545D01*
X170389673Y-60907907D01*
X170387217Y-60907419D01*
X170053884Y-60907419D01*
X170034750Y-60911225D01*
X170007690Y-60938285D01*
X170003884Y-60957419D01*
X169892773Y-60957419D01*
X169892773Y-60796308D01*
X174451526Y-60796308D01*
X174451526Y-62118530D01*
G37*
X100684211Y-65076466D02*
X101446116Y-65076466D01*
X101065163Y-65457419D02*
X101065163Y-64695514D01*
G36*
X173881410Y-68796131D02*
G01*
X173961116Y-68875837D01*
X174003884Y-69046907D01*
X174003884Y-69367930D01*
X173961116Y-69538999D01*
X173881408Y-69618708D01*
X173803986Y-69657419D01*
X173637117Y-69657419D01*
X173559694Y-69618707D01*
X173479985Y-69538998D01*
X173437218Y-69367930D01*
X173437218Y-69046907D01*
X173479985Y-68875837D01*
X173559691Y-68796131D01*
X173637117Y-68757419D01*
X173803986Y-68757419D01*
X173881410Y-68796131D01*
G37*
G36*
X175404842Y-69868530D02*
G01*
X169750671Y-69868530D01*
X169750671Y-68716077D01*
X169861782Y-68716077D01*
X169868844Y-68734263D01*
X170194360Y-69245788D01*
X170194360Y-69707419D01*
X170198166Y-69726553D01*
X170225226Y-69753613D01*
X170263494Y-69753613D01*
X170290554Y-69726553D01*
X170294360Y-69707419D01*
X170294360Y-69245788D01*
X170619876Y-68734263D01*
X170626938Y-68716077D01*
X170625014Y-68707419D01*
X170861027Y-68707419D01*
X170861027Y-69707419D01*
X170864833Y-69726553D01*
X170891893Y-69753613D01*
X170911027Y-69757419D01*
X171387217Y-69757419D01*
X171406351Y-69753613D01*
X171433411Y-69726553D01*
X171433411Y-69688285D01*
X171406351Y-69661225D01*
X171387217Y-69657419D01*
X170961027Y-69657419D01*
X170961027Y-69233609D01*
X171244360Y-69233609D01*
X171263494Y-69229803D01*
X171290554Y-69202743D01*
X171290554Y-69164475D01*
X171263494Y-69137415D01*
X171244360Y-69133609D01*
X170961027Y-69133609D01*
X170961027Y-68757419D01*
X171387217Y-68757419D01*
X171406351Y-68753613D01*
X171433411Y-68726553D01*
X171433411Y-68707419D01*
X171765789Y-68707419D01*
X171765789Y-69707419D01*
X171769595Y-69726553D01*
X171796655Y-69753613D01*
X171815789Y-69757419D01*
X172291979Y-69757419D01*
X172311113Y-69753613D01*
X172338173Y-69726553D01*
X172338173Y-69688285D01*
X172311113Y-69661225D01*
X172291979Y-69657419D01*
X171865789Y-69657419D01*
X171865789Y-68707419D01*
X172575313Y-68707419D01*
X172575313Y-69707419D01*
X172579119Y-69726553D01*
X172606179Y-69753613D01*
X172625313Y-69757419D01*
X173101503Y-69757419D01*
X173120637Y-69753613D01*
X173147697Y-69726553D01*
X173147697Y-69688285D01*
X173120637Y-69661225D01*
X173101503Y-69657419D01*
X172675313Y-69657419D01*
X172675313Y-69040752D01*
X173337218Y-69040752D01*
X173337218Y-69374085D01*
X173338413Y-69380094D01*
X173338711Y-69386212D01*
X173386330Y-69576688D01*
X173388643Y-69581584D01*
X173388643Y-69583695D01*
X173392047Y-69588790D01*
X173394663Y-69594327D01*
X173396471Y-69595412D01*
X173399481Y-69599916D01*
X173494720Y-69695155D01*
X173501379Y-69699605D01*
X173507714Y-69704521D01*
X173602952Y-69752140D01*
X173605367Y-69752801D01*
X173606179Y-69753613D01*
X173614040Y-69755176D01*
X173621768Y-69757293D01*
X173622856Y-69756930D01*
X173625313Y-69757419D01*
X173815789Y-69757419D01*
X173818245Y-69756930D01*
X173819334Y-69757293D01*
X173827061Y-69755176D01*
X173834923Y-69753613D01*
X173835734Y-69752801D01*
X173838150Y-69752140D01*
X173933387Y-69704522D01*
X173939714Y-69699611D01*
X173946383Y-69695155D01*
X174041621Y-69599916D01*
X174044630Y-69595412D01*
X174046439Y-69594327D01*
X174049054Y-69588790D01*
X174052459Y-69583695D01*
X174052459Y-69581584D01*
X174054772Y-69576688D01*
X174102391Y-69386212D01*
X174102688Y-69380094D01*
X174103884Y-69374085D01*
X174103884Y-69040752D01*
X174102688Y-69034742D01*
X174102391Y-69028625D01*
X174054772Y-68838149D01*
X174052459Y-68833252D01*
X174052459Y-68831142D01*
X174049055Y-68826048D01*
X174046439Y-68820510D01*
X174044628Y-68819423D01*
X174041620Y-68814921D01*
X173946382Y-68719683D01*
X173939720Y-68715231D01*
X173933387Y-68710316D01*
X173911765Y-68699505D01*
X174337848Y-68699505D01*
X174338578Y-68719000D01*
X174576673Y-69719000D01*
X174584807Y-69736732D01*
X174591176Y-69740651D01*
X174594923Y-69747123D01*
X174606868Y-69750308D01*
X174617399Y-69756789D01*
X174624674Y-69755056D01*
X174631898Y-69756983D01*
X174642596Y-69750789D01*
X174654626Y-69747925D01*
X174658545Y-69741555D01*
X174665017Y-69737809D01*
X174673625Y-69720302D01*
X174815789Y-69187186D01*
X174957953Y-69720302D01*
X174966561Y-69737810D01*
X174973033Y-69741557D01*
X174976952Y-69747925D01*
X174988978Y-69750788D01*
X174999680Y-69756984D01*
X175006905Y-69755057D01*
X175014179Y-69756789D01*
X175024708Y-69750308D01*
X175036655Y-69747123D01*
X175040401Y-69740651D01*
X175046771Y-69736732D01*
X175054905Y-69719000D01*
X175293001Y-68719000D01*
X175293731Y-68699505D01*
X175273674Y-68666913D01*
X175236447Y-68658049D01*
X175203855Y-68678106D01*
X175195721Y-68695838D01*
X175003520Y-69503075D01*
X174864101Y-68980250D01*
X174855493Y-68962743D01*
X174849594Y-68959327D01*
X174846179Y-68953429D01*
X174833619Y-68950079D01*
X174822374Y-68943569D01*
X174815790Y-68945324D01*
X174809204Y-68943568D01*
X174797954Y-68950080D01*
X174785399Y-68953429D01*
X174781984Y-68959326D01*
X174776085Y-68962742D01*
X174767477Y-68980250D01*
X174628057Y-69503075D01*
X174435858Y-68695838D01*
X174427724Y-68678106D01*
X174395132Y-68658049D01*
X174357905Y-68666913D01*
X174337848Y-68699505D01*
X173911765Y-68699505D01*
X173838150Y-68662698D01*
X173835734Y-68662036D01*
X173834923Y-68661225D01*
X173827061Y-68659661D01*
X173819334Y-68657545D01*
X173818245Y-68657907D01*
X173815789Y-68657419D01*
X173625313Y-68657419D01*
X173622856Y-68657907D01*
X173621768Y-68657545D01*
X173614040Y-68659661D01*
X173606179Y-68661225D01*
X173605367Y-68662036D01*
X173602952Y-68662698D01*
X173507714Y-68710317D01*
X173501379Y-68715232D01*
X173494720Y-68719683D01*
X173399482Y-68814921D01*
X173396473Y-68819423D01*
X173394663Y-68820510D01*
X173392046Y-68826048D01*
X173388643Y-68831142D01*
X173388643Y-68833252D01*
X173386330Y-68838149D01*
X173338711Y-69028625D01*
X173338413Y-69034742D01*
X173337218Y-69040752D01*
X172675313Y-69040752D01*
X172675313Y-68707419D01*
X172671507Y-68688285D01*
X172644447Y-68661225D01*
X172606179Y-68661225D01*
X172579119Y-68688285D01*
X172575313Y-68707419D01*
X171865789Y-68707419D01*
X171861983Y-68688285D01*
X171834923Y-68661225D01*
X171796655Y-68661225D01*
X171769595Y-68688285D01*
X171765789Y-68707419D01*
X171433411Y-68707419D01*
X171433411Y-68688285D01*
X171406351Y-68661225D01*
X171387217Y-68657419D01*
X170911027Y-68657419D01*
X170891893Y-68661225D01*
X170864833Y-68688285D01*
X170861027Y-68707419D01*
X170625014Y-68707419D01*
X170618636Y-68678719D01*
X170586351Y-68658174D01*
X170548994Y-68666476D01*
X170535510Y-68680575D01*
X170244360Y-69138096D01*
X169953210Y-68680575D01*
X169939727Y-68666476D01*
X169902369Y-68658174D01*
X169870084Y-68678719D01*
X169861782Y-68716077D01*
X169750671Y-68716077D01*
X169750671Y-68546308D01*
X175404842Y-68546308D01*
X175404842Y-69868530D01*
G37*
G36*
X172312589Y-63548739D02*
G01*
X172393742Y-63629892D01*
X172435279Y-63712966D01*
X172480074Y-63892145D01*
X172480074Y-64022692D01*
X172435279Y-64201870D01*
X172393742Y-64284944D01*
X172312588Y-64366098D01*
X172188628Y-64407419D01*
X172008646Y-64407419D01*
X172008646Y-63507419D01*
X172188628Y-63507419D01*
X172312589Y-63548739D01*
G37*
G36*
X170500456Y-63546130D02*
G01*
X170536600Y-63582275D01*
X170575312Y-63659698D01*
X170575312Y-63778948D01*
X170536600Y-63856371D01*
X170500456Y-63892516D01*
X170423033Y-63931228D01*
X170103884Y-63931228D01*
X170103884Y-63507419D01*
X170423033Y-63507419D01*
X170500456Y-63546130D01*
G37*
G36*
X172691185Y-64618530D02*
G01*
X169892773Y-64618530D01*
X169892773Y-63457419D01*
X170003884Y-63457419D01*
X170003884Y-64457419D01*
X170007690Y-64476553D01*
X170034750Y-64503613D01*
X170073018Y-64503613D01*
X170100078Y-64476553D01*
X170103884Y-64457419D01*
X170103884Y-64031228D01*
X170265946Y-64031228D01*
X170584350Y-64486092D01*
X170598441Y-64499585D01*
X170636127Y-64506235D01*
X170667478Y-64484290D01*
X170674128Y-64446604D01*
X170666274Y-64428746D01*
X170388012Y-64031228D01*
X170434836Y-64031228D01*
X170437292Y-64030739D01*
X170438381Y-64031102D01*
X170446108Y-64028985D01*
X170453970Y-64027422D01*
X170454781Y-64026610D01*
X170457197Y-64025949D01*
X170552434Y-63978331D01*
X170558767Y-63973415D01*
X170565429Y-63968964D01*
X170613048Y-63921346D01*
X170617502Y-63914679D01*
X170622414Y-63908351D01*
X170670033Y-63813113D01*
X170670694Y-63810697D01*
X170671506Y-63809886D01*
X170673069Y-63802024D01*
X170675186Y-63794297D01*
X170674823Y-63793208D01*
X170675312Y-63790752D01*
X170675312Y-63647895D01*
X170674823Y-63645438D01*
X170675186Y-63644350D01*
X170673069Y-63636622D01*
X170671506Y-63628761D01*
X170670694Y-63627949D01*
X170670033Y-63625534D01*
X170622414Y-63530296D01*
X170617502Y-63523967D01*
X170613048Y-63517301D01*
X170565429Y-63469683D01*
X170558767Y-63465231D01*
X170552434Y-63460316D01*
X170546640Y-63457419D01*
X171003884Y-63457419D01*
X171003884Y-64457419D01*
X171007690Y-64476553D01*
X171034750Y-64503613D01*
X171053884Y-64507419D01*
X171530074Y-64507419D01*
X171549208Y-64503613D01*
X171576268Y-64476553D01*
X171576268Y-64438285D01*
X171549208Y-64411225D01*
X171530074Y-64407419D01*
X171103884Y-64407419D01*
X171103884Y-63983609D01*
X171387217Y-63983609D01*
X171406351Y-63979803D01*
X171433411Y-63952743D01*
X171433411Y-63914475D01*
X171406351Y-63887415D01*
X171387217Y-63883609D01*
X171103884Y-63883609D01*
X171103884Y-63507419D01*
X171530074Y-63507419D01*
X171549208Y-63503613D01*
X171576268Y-63476553D01*
X171576268Y-63457419D01*
X171908646Y-63457419D01*
X171908646Y-64457419D01*
X171912452Y-64476553D01*
X171939512Y-64503613D01*
X171958646Y-64507419D01*
X172196741Y-64507419D01*
X172204603Y-64505855D01*
X172212552Y-64504853D01*
X172355409Y-64457234D01*
X172357584Y-64455994D01*
X172358733Y-64455994D01*
X172365403Y-64451536D01*
X172372357Y-64447573D01*
X172372869Y-64446547D01*
X172374954Y-64445155D01*
X172470192Y-64349916D01*
X172474645Y-64343250D01*
X172479557Y-64336922D01*
X172527176Y-64241684D01*
X172528622Y-64236402D01*
X172530962Y-64231450D01*
X172578581Y-64040974D01*
X172578878Y-64034856D01*
X172580074Y-64028847D01*
X172580074Y-63885990D01*
X172578878Y-63879980D01*
X172578581Y-63873863D01*
X172530962Y-63683387D01*
X172528622Y-63678434D01*
X172527176Y-63673153D01*
X172479557Y-63577915D01*
X172474641Y-63571580D01*
X172470191Y-63564921D01*
X172374953Y-63469683D01*
X172372870Y-63468291D01*
X172372357Y-63467265D01*
X172365396Y-63463297D01*
X172358732Y-63458844D01*
X172357584Y-63458844D01*
X172355409Y-63457604D01*
X172212552Y-63409985D01*
X172204603Y-63408982D01*
X172196741Y-63407419D01*
X171958646Y-63407419D01*
X171939512Y-63411225D01*
X171912452Y-63438285D01*
X171908646Y-63457419D01*
X171576268Y-63457419D01*
X171576268Y-63438285D01*
X171549208Y-63411225D01*
X171530074Y-63407419D01*
X171053884Y-63407419D01*
X171034750Y-63411225D01*
X171007690Y-63438285D01*
X171003884Y-63457419D01*
X170546640Y-63457419D01*
X170457197Y-63412698D01*
X170454781Y-63412036D01*
X170453970Y-63411225D01*
X170446108Y-63409661D01*
X170438381Y-63407545D01*
X170437292Y-63407907D01*
X170434836Y-63407419D01*
X170053884Y-63407419D01*
X170034750Y-63411225D01*
X170007690Y-63438285D01*
X170003884Y-63457419D01*
X169892773Y-63457419D01*
X169892773Y-63296308D01*
X172691185Y-63296308D01*
X172691185Y-64618530D01*
G37*
D11*
%TO.C,C503*%
X111504000Y-62083733D02*
X111504000Y-62376267D01*
X112524000Y-62083733D02*
X112524000Y-62376267D01*
D12*
%TO.C,TP101*%
X164900000Y-59000000D02*
G75*
G02*
X162100000Y-59000000I-1400000J0D01*
G01*
X162100000Y-59000000D02*
G75*
G02*
X164900000Y-59000000I1400000J0D01*
G01*
D11*
%TO.C,TP401*%
X131450000Y-78000000D02*
G75*
G02*
X129550000Y-78000000I-950000J0D01*
G01*
X129550000Y-78000000D02*
G75*
G02*
X131450000Y-78000000I950000J0D01*
G01*
%TO.C,TP505*%
X114950000Y-62250000D02*
G75*
G02*
X113050000Y-62250000I-950000J0D01*
G01*
X113050000Y-62250000D02*
G75*
G02*
X114950000Y-62250000I950000J0D01*
G01*
%TO.C,C401*%
X118146267Y-54740000D02*
X117853733Y-54740000D01*
X118146267Y-55760000D02*
X117853733Y-55760000D01*
%TO.C,R305*%
X141727500Y-64754724D02*
X141727500Y-64245276D01*
X142772500Y-64754724D02*
X142772500Y-64245276D01*
%TO.C,R505*%
X95977500Y-70495276D02*
X95977500Y-71004724D01*
X97022500Y-70495276D02*
X97022500Y-71004724D01*
%TO.C,TP204*%
X159200000Y-67750000D02*
G75*
G02*
X157300000Y-67750000I-950000J0D01*
G01*
X157300000Y-67750000D02*
G75*
G02*
X159200000Y-67750000I950000J0D01*
G01*
%TO.C,C205*%
X147238748Y-71515000D02*
X147761252Y-71515000D01*
X147238748Y-72985000D02*
X147761252Y-72985000D01*
%TO.C,C204*%
X147238748Y-69515000D02*
X147761252Y-69515000D01*
X147238748Y-70985000D02*
X147761252Y-70985000D01*
%TO.C,R512*%
X109728724Y-75169500D02*
X109219276Y-75169500D01*
X109728724Y-76214500D02*
X109219276Y-76214500D01*
%TO.C,C501*%
X111504000Y-72751733D02*
X111504000Y-73044267D01*
X112524000Y-72751733D02*
X112524000Y-73044267D01*
%TO.C,TP307*%
X158950000Y-59500000D02*
G75*
G02*
X157050000Y-59500000I-950000J0D01*
G01*
X157050000Y-59500000D02*
G75*
G02*
X158950000Y-59500000I950000J0D01*
G01*
%TO.C,R304*%
X158254724Y-63227500D02*
X157745276Y-63227500D01*
X158254724Y-64272500D02*
X157745276Y-64272500D01*
%TO.C,TP203*%
X145200000Y-71250000D02*
G75*
G02*
X143300000Y-71250000I-950000J0D01*
G01*
X143300000Y-71250000D02*
G75*
G02*
X145200000Y-71250000I950000J0D01*
G01*
%TO.C,R515*%
X109728724Y-64501500D02*
X109219276Y-64501500D01*
X109728724Y-65546500D02*
X109219276Y-65546500D01*
%TO.C,R302*%
X157745276Y-61227500D02*
X158254724Y-61227500D01*
X157745276Y-62272500D02*
X158254724Y-62272500D01*
%TO.C,C505*%
X111504000Y-76600267D02*
X111504000Y-76307733D01*
X112524000Y-76600267D02*
X112524000Y-76307733D01*
%TO.C,C206*%
X142765000Y-74738748D02*
X142765000Y-75261252D01*
X144235000Y-74738748D02*
X144235000Y-75261252D01*
%TO.C,U401*%
X116890000Y-74730000D02*
X116890000Y-75630000D01*
X116890000Y-75630000D02*
X119575000Y-75630000D01*
X117200000Y-56210000D02*
X135110000Y-56210000D01*
X132425000Y-75630000D02*
X135110000Y-75630000D01*
X135110000Y-56210000D02*
X135110000Y-56800000D01*
X135110000Y-74730000D02*
X135110000Y-75630000D01*
X116890000Y-56770000D02*
X116390000Y-56770000D01*
X116890000Y-56270000D01*
X116890000Y-56770000D01*
G36*
X116890000Y-56770000D02*
G01*
X116390000Y-56770000D01*
X116890000Y-56270000D01*
X116890000Y-56770000D01*
G37*
%TO.C,Q501*%
X97690000Y-71000000D02*
X97690000Y-70350000D01*
X97690000Y-71000000D02*
X97690000Y-71650000D01*
X100810000Y-71000000D02*
X100810000Y-70350000D01*
X100810000Y-71000000D02*
X100810000Y-71650000D01*
X97740000Y-72162500D02*
X97410000Y-72402500D01*
X97410000Y-71922500D01*
X97740000Y-72162500D01*
G36*
X97740000Y-72162500D02*
G01*
X97410000Y-72402500D01*
X97410000Y-71922500D01*
X97740000Y-72162500D01*
G37*
%TO.C,R301*%
X148754724Y-58227500D02*
X148245276Y-58227500D01*
X148754724Y-59272500D02*
X148245276Y-59272500D01*
%TO.C,TP304*%
X121450000Y-77750000D02*
G75*
G02*
X119550000Y-77750000I-950000J0D01*
G01*
X119550000Y-77750000D02*
G75*
G02*
X121450000Y-77750000I950000J0D01*
G01*
%TO.C,R504*%
X109219276Y-68057500D02*
X109728724Y-68057500D01*
X109219276Y-69102500D02*
X109728724Y-69102500D01*
%TO.C,C207*%
X136765000Y-75261252D02*
X136765000Y-74738748D01*
X138235000Y-75261252D02*
X138235000Y-74738748D01*
%TO.C,TP202*%
X135950000Y-77750000D02*
G75*
G02*
X134050000Y-77750000I-950000J0D01*
G01*
X134050000Y-77750000D02*
G75*
G02*
X135950000Y-77750000I950000J0D01*
G01*
%TO.C,J502*%
X101640000Y-68360000D02*
X101640000Y-69610000D01*
X101640000Y-69610000D02*
X102890000Y-69610000D01*
X101740000Y-67550000D02*
X101740000Y-67850000D01*
X101740000Y-67850000D02*
X101940000Y-67850000D01*
X101840000Y-67550000D02*
X101840000Y-67850000D01*
X101940000Y-63190000D02*
X101940000Y-69310000D01*
X101940000Y-66750000D02*
X102550000Y-66750000D01*
X101940000Y-67550000D02*
X101740000Y-67550000D01*
X101940000Y-69310000D02*
X106660000Y-69310000D01*
X102550000Y-63800000D02*
X102550000Y-65750000D01*
X102550000Y-65750000D02*
X101940000Y-65750000D01*
X102550000Y-66750000D02*
X102550000Y-68700000D01*
X102550000Y-68700000D02*
X106050000Y-68700000D01*
X103250000Y-63190000D02*
X103250000Y-63800000D01*
X103250000Y-69310000D02*
X103250000Y-68700000D01*
X104550000Y-63190000D02*
X104550000Y-63800000D01*
X104550000Y-69310000D02*
X104550000Y-68700000D01*
X105550000Y-66150000D02*
X106050000Y-66150000D01*
X105550000Y-66350000D02*
X105550000Y-66150000D01*
X106050000Y-63800000D02*
X102550000Y-63800000D01*
X106050000Y-66250000D02*
X105550000Y-66250000D01*
X106050000Y-66350000D02*
X105550000Y-66350000D01*
X106050000Y-68700000D02*
X106050000Y-63800000D01*
X106660000Y-63190000D02*
X101940000Y-63190000D01*
X106660000Y-69310000D02*
X106660000Y-63190000D01*
%TO.C,U501*%
X101140000Y-71550000D02*
X101140000Y-72550000D01*
X103860000Y-71550000D02*
X103860000Y-72550000D01*
X101190000Y-73220000D02*
X100910000Y-72940000D01*
X101190000Y-72940000D01*
X101190000Y-73220000D01*
G36*
X101190000Y-73220000D02*
G01*
X100910000Y-72940000D01*
X101190000Y-72940000D01*
X101190000Y-73220000D01*
G37*
%TO.C,IC301*%
X151500000Y-60190000D02*
X149550000Y-60190000D01*
X151500000Y-60190000D02*
X153450000Y-60190000D01*
X151500000Y-65310000D02*
X149550000Y-65310000D01*
X151500000Y-65310000D02*
X153450000Y-65310000D01*
X148800000Y-60285000D02*
X148560000Y-59955000D01*
X149040000Y-59955000D01*
X148800000Y-60285000D01*
G36*
X148800000Y-60285000D02*
G01*
X148560000Y-59955000D01*
X149040000Y-59955000D01*
X148800000Y-60285000D01*
G37*
%TO.C,TP303*%
X141200000Y-62750000D02*
G75*
G02*
X139300000Y-62750000I-950000J0D01*
G01*
X139300000Y-62750000D02*
G75*
G02*
X141200000Y-62750000I950000J0D01*
G01*
%TO.C,R509*%
X109219276Y-59167500D02*
X109728724Y-59167500D01*
X109219276Y-60212500D02*
X109728724Y-60212500D01*
%TO.C,C502*%
X111504000Y-69488267D02*
X111504000Y-69195733D01*
X112524000Y-69488267D02*
X112524000Y-69195733D01*
%TO.C,C506*%
X111504000Y-65932267D02*
X111504000Y-65639733D01*
X112524000Y-65932267D02*
X112524000Y-65639733D01*
%TO.C,R513*%
X109219276Y-76947500D02*
X109728724Y-76947500D01*
X109219276Y-77992500D02*
X109728724Y-77992500D01*
%TO.C,JP304*%
X143250000Y-62750000D02*
X143250000Y-63350000D01*
X143550000Y-63050000D02*
X143250000Y-62750000D01*
X143550000Y-63050000D02*
X143250000Y-63350000D01*
X143750000Y-65650000D02*
X143750000Y-62850000D01*
X144450000Y-62200000D02*
X145050000Y-62200000D01*
X145050000Y-66300000D02*
X144450000Y-66300000D01*
X145750000Y-62850000D02*
X145750000Y-65650000D01*
X143750000Y-62900000D02*
G75*
G02*
X144450000Y-62200000I699999J1D01*
G01*
X144450000Y-66300000D02*
G75*
G02*
X143750000Y-65600000I0J700000D01*
G01*
X145050000Y-62200000D02*
G75*
G02*
X145750000Y-62900000I1J-699999D01*
G01*
X145750000Y-65600000D02*
G75*
G02*
X145050000Y-66300000I-700000J0D01*
G01*
%TO.C,R511*%
X109245276Y-57477500D02*
X109754724Y-57477500D01*
X109245276Y-58522500D02*
X109754724Y-58522500D01*
%TO.C,R503*%
X113227500Y-75995276D02*
X113227500Y-76504724D01*
X114272500Y-75995276D02*
X114272500Y-76504724D01*
%TO.C,J101*%
X165980000Y-55240000D02*
X167250000Y-55240000D01*
X165980000Y-56510000D02*
X165980000Y-55240000D01*
%TO.C,R502*%
X109728724Y-71613500D02*
X109219276Y-71613500D01*
X109728724Y-72658500D02*
X109219276Y-72658500D01*
%TO.C,TP302*%
X138950000Y-65000000D02*
G75*
G02*
X137050000Y-65000000I-950000J0D01*
G01*
X137050000Y-65000000D02*
G75*
G02*
X138950000Y-65000000I950000J0D01*
G01*
%TO.C,C201*%
X153146267Y-77490000D02*
X152853733Y-77490000D01*
X153146267Y-78510000D02*
X152853733Y-78510000D01*
%TO.C,D401*%
X125200000Y-78459000D02*
X127660000Y-78459000D01*
X127660000Y-76989000D02*
X125200000Y-76989000D01*
X127660000Y-78459000D02*
X127660000Y-76989000D01*
%TO.C,U202*%
X139500000Y-73390000D02*
X141500000Y-73390000D01*
X139500000Y-75610000D02*
X141500000Y-75610000D01*
X139260000Y-73490000D02*
X138980000Y-73490000D01*
X139260000Y-73210000D01*
X139260000Y-73490000D01*
G36*
X139260000Y-73490000D02*
G01*
X138980000Y-73490000D01*
X139260000Y-73210000D01*
X139260000Y-73490000D01*
G37*
%TO.C,TP305*%
X151200000Y-56750000D02*
G75*
G02*
X149300000Y-56750000I-950000J0D01*
G01*
X149300000Y-56750000D02*
G75*
G02*
X151200000Y-56750000I950000J0D01*
G01*
%TO.C,F201*%
X160590000Y-73397936D02*
X160590000Y-74602064D01*
X162410000Y-73397936D02*
X162410000Y-74602064D01*
%TO.C,F202*%
X136990000Y-71171267D02*
X136990000Y-70828733D01*
X138010000Y-71171267D02*
X138010000Y-70828733D01*
%TO.C,TP506*%
X114950000Y-66750000D02*
G75*
G02*
X113050000Y-66750000I-950000J0D01*
G01*
X113050000Y-66750000D02*
G75*
G02*
X114950000Y-66750000I950000J0D01*
G01*
%TO.C,TP501*%
X114950000Y-71250000D02*
G75*
G02*
X113050000Y-71250000I-950000J0D01*
G01*
X113050000Y-71250000D02*
G75*
G02*
X114950000Y-71250000I950000J0D01*
G01*
%TO.C,TP103*%
X156700000Y-66750000D02*
G75*
G02*
X154800000Y-66750000I-950000J0D01*
G01*
X154800000Y-66750000D02*
G75*
G02*
X156700000Y-66750000I950000J0D01*
G01*
%TO.C,U201*%
X153750000Y-73440000D02*
X152950000Y-73440000D01*
X153750000Y-73440000D02*
X154550000Y-73440000D01*
X153750000Y-76560000D02*
X152950000Y-76560000D01*
X153750000Y-76560000D02*
X154550000Y-76560000D01*
X155290000Y-76840000D02*
X154810000Y-76840000D01*
X155050000Y-76510000D01*
X155290000Y-76840000D01*
G36*
X155290000Y-76840000D02*
G01*
X154810000Y-76840000D01*
X155050000Y-76510000D01*
X155290000Y-76840000D01*
G37*
%TO.C,D202*%
X156600000Y-69490000D02*
X156600000Y-76500000D01*
X159900000Y-69490000D02*
X156600000Y-69490000D01*
X159900000Y-69490000D02*
X159900000Y-76500000D01*
%TO.C,TP201*%
X151200000Y-68250000D02*
G75*
G02*
X149300000Y-68250000I-950000J0D01*
G01*
X149300000Y-68250000D02*
G75*
G02*
X151200000Y-68250000I950000J0D01*
G01*
%TO.C,L201*%
X145940000Y-73690000D02*
X145940000Y-74490000D01*
X145940000Y-78310000D02*
X145940000Y-77510000D01*
X151060000Y-73690000D02*
X145940000Y-73690000D01*
X151060000Y-73690000D02*
X151060000Y-74490000D01*
X151060000Y-78310000D02*
X145940000Y-78310000D01*
X151060000Y-78310000D02*
X151060000Y-77510000D01*
%TO.C,R508*%
X109219276Y-62723500D02*
X109728724Y-62723500D01*
X109219276Y-63768500D02*
X109728724Y-63768500D01*
%TO.C,R514*%
X109219276Y-66279500D02*
X109728724Y-66279500D01*
X109219276Y-67324500D02*
X109728724Y-67324500D01*
%TO.C,R401*%
X114245276Y-59727500D02*
X114754724Y-59727500D01*
X114245276Y-60772500D02*
X114754724Y-60772500D01*
%TO.C,C402*%
X112765000Y-57761252D02*
X112765000Y-57238748D01*
X114235000Y-57761252D02*
X114235000Y-57238748D01*
%TO.C,TP301*%
X141200000Y-66250000D02*
G75*
G02*
X139300000Y-66250000I-950000J0D01*
G01*
X139300000Y-66250000D02*
G75*
G02*
X141200000Y-66250000I950000J0D01*
G01*
%TO.C,C301*%
X154603733Y-58740000D02*
X154896267Y-58740000D01*
X154603733Y-59760000D02*
X154896267Y-59760000D01*
%TO.C,D301*%
X163500000Y-63940000D02*
X162850000Y-63940000D01*
X163500000Y-63940000D02*
X164150000Y-63940000D01*
X163500000Y-67060000D02*
X162850000Y-67060000D01*
X163500000Y-67060000D02*
X164150000Y-67060000D01*
X162337500Y-63990000D02*
X162097500Y-63660000D01*
X162577500Y-63660000D01*
X162337500Y-63990000D01*
G36*
X162337500Y-63990000D02*
G01*
X162097500Y-63660000D01*
X162577500Y-63660000D01*
X162337500Y-63990000D01*
G37*
%TO.C,TP503*%
X114950000Y-73500000D02*
G75*
G02*
X113050000Y-73500000I-950000J0D01*
G01*
X113050000Y-73500000D02*
G75*
G02*
X114950000Y-73500000I950000J0D01*
G01*
%TO.C,TP502*%
X114950000Y-69000000D02*
G75*
G02*
X113050000Y-69000000I-950000J0D01*
G01*
X113050000Y-69000000D02*
G75*
G02*
X114950000Y-69000000I950000J0D01*
G01*
%TO.C,J401*%
X142270000Y-58480000D02*
X142270000Y-59115000D01*
X142270000Y-59115000D02*
X141635000Y-59115000D01*
%TO.C,R201*%
X142225500Y-68834724D02*
X142225500Y-68325276D01*
X143270500Y-68834724D02*
X143270500Y-68325276D01*
%TO.C,TP102*%
X164950000Y-71750000D02*
G75*
G02*
X163050000Y-71750000I-950000J0D01*
G01*
X163050000Y-71750000D02*
G75*
G02*
X164950000Y-71750000I950000J0D01*
G01*
%TO.C,TP504*%
X114950000Y-64500000D02*
G75*
G02*
X113050000Y-64500000I-950000J0D01*
G01*
X113050000Y-64500000D02*
G75*
G02*
X114950000Y-64500000I950000J0D01*
G01*
%TO.C,C504*%
X109620267Y-55878000D02*
X109327733Y-55878000D01*
X109620267Y-56898000D02*
X109327733Y-56898000D01*
%TO.C,J504*%
X94890000Y-74390000D02*
X94890000Y-75640000D01*
X95190000Y-74690000D02*
X95190000Y-79410000D01*
X95190000Y-76000000D02*
X95800000Y-76000000D01*
X95190000Y-77300000D02*
X95800000Y-77300000D01*
X95190000Y-79410000D02*
X107310000Y-79410000D01*
X95800000Y-75300000D02*
X95800000Y-78800000D01*
X95800000Y-78800000D02*
X106700000Y-78800000D01*
X96140000Y-74390000D02*
X94890000Y-74390000D01*
X96650000Y-74490000D02*
X96650000Y-74690000D01*
X96950000Y-74490000D02*
X96650000Y-74490000D01*
X96950000Y-74590000D02*
X96650000Y-74590000D01*
X96950000Y-74690000D02*
X96950000Y-74490000D01*
X97750000Y-74690000D02*
X97750000Y-75300000D01*
X97750000Y-75300000D02*
X95800000Y-75300000D01*
X98150000Y-78300000D02*
X98350000Y-78300000D01*
X98150000Y-78800000D02*
X98150000Y-78300000D01*
X98250000Y-78800000D02*
X98250000Y-78300000D01*
X98350000Y-78300000D02*
X98350000Y-78800000D01*
X100150000Y-78300000D02*
X100350000Y-78300000D01*
X100150000Y-78800000D02*
X100150000Y-78300000D01*
X100250000Y-78800000D02*
X100250000Y-78300000D01*
X100350000Y-78300000D02*
X100350000Y-78800000D01*
X102150000Y-78300000D02*
X102350000Y-78300000D01*
X102150000Y-78800000D02*
X102150000Y-78300000D01*
X102250000Y-78800000D02*
X102250000Y-78300000D01*
X102350000Y-78300000D02*
X102350000Y-78800000D01*
X104150000Y-78300000D02*
X104350000Y-78300000D01*
X104150000Y-78800000D02*
X104150000Y-78300000D01*
X104250000Y-78800000D02*
X104250000Y-78300000D01*
X104350000Y-78300000D02*
X104350000Y-78800000D01*
X104750000Y-75300000D02*
X104750000Y-74690000D01*
X106700000Y-75300000D02*
X104750000Y-75300000D01*
X106700000Y-78800000D02*
X106700000Y-75300000D01*
X107310000Y-74690000D02*
X95190000Y-74690000D01*
X107310000Y-76000000D02*
X106700000Y-76000000D01*
X107310000Y-77300000D02*
X106700000Y-77300000D01*
X107310000Y-79410000D02*
X107310000Y-74690000D01*
%TO.C,R510*%
X109728724Y-60945500D02*
X109219276Y-60945500D01*
X109728724Y-61990500D02*
X109219276Y-61990500D01*
%TO.C,R501*%
X97535276Y-60691500D02*
X98044724Y-60691500D01*
X97535276Y-61736500D02*
X98044724Y-61736500D01*
%TO.C,TP507*%
X106950000Y-72500000D02*
G75*
G02*
X105050000Y-72500000I-950000J0D01*
G01*
X105050000Y-72500000D02*
G75*
G02*
X106950000Y-72500000I950000J0D01*
G01*
%TO.C,R506*%
X109219276Y-69835500D02*
X109728724Y-69835500D01*
X109219276Y-70880500D02*
X109728724Y-70880500D01*
%TO.C,U502*%
X101140000Y-60750000D02*
X101140000Y-59750000D01*
X103860000Y-60750000D02*
X103860000Y-59750000D01*
X104090000Y-59360000D02*
X103810000Y-59360000D01*
X103810000Y-59080000D01*
X104090000Y-59360000D01*
G36*
X104090000Y-59360000D02*
G01*
X103810000Y-59360000D01*
X103810000Y-59080000D01*
X104090000Y-59360000D01*
G37*
%TO.C,TP306*%
X118450000Y-77750000D02*
G75*
G02*
X116550000Y-77750000I-950000J0D01*
G01*
X116550000Y-77750000D02*
G75*
G02*
X118450000Y-77750000I950000J0D01*
G01*
%TO.C,C203*%
X154711252Y-71090000D02*
X153288748Y-71090000D01*
X154711252Y-72910000D02*
X153288748Y-72910000D01*
%TO.C,J501*%
X95190000Y-53090000D02*
X95190000Y-57810000D01*
X95190000Y-55200000D02*
X95800000Y-55200000D01*
X95190000Y-56500000D02*
X95800000Y-56500000D01*
X95190000Y-57810000D02*
X107310000Y-57810000D01*
X95800000Y-53700000D02*
X95800000Y-57200000D01*
X95800000Y-57200000D02*
X97750000Y-57200000D01*
X97750000Y-57200000D02*
X97750000Y-57810000D01*
X98150000Y-54200000D02*
X98150000Y-53700000D01*
X98250000Y-53700000D02*
X98250000Y-54200000D01*
X98350000Y-53700000D02*
X98350000Y-54200000D01*
X98350000Y-54200000D02*
X98150000Y-54200000D01*
X100150000Y-54200000D02*
X100150000Y-53700000D01*
X100250000Y-53700000D02*
X100250000Y-54200000D01*
X100350000Y-53700000D02*
X100350000Y-54200000D01*
X100350000Y-54200000D02*
X100150000Y-54200000D01*
X102150000Y-54200000D02*
X102150000Y-53700000D01*
X102250000Y-53700000D02*
X102250000Y-54200000D01*
X102350000Y-53700000D02*
X102350000Y-54200000D01*
X102350000Y-54200000D02*
X102150000Y-54200000D01*
X104150000Y-54200000D02*
X104150000Y-53700000D01*
X104250000Y-53700000D02*
X104250000Y-54200000D01*
X104350000Y-53700000D02*
X104350000Y-54200000D01*
X104350000Y-54200000D02*
X104150000Y-54200000D01*
X104750000Y-57200000D02*
X106700000Y-57200000D01*
X104750000Y-57810000D02*
X104750000Y-57200000D01*
X105550000Y-57810000D02*
X105550000Y-58010000D01*
X105550000Y-57910000D02*
X105850000Y-57910000D01*
X105550000Y-58010000D02*
X105850000Y-58010000D01*
X105850000Y-58010000D02*
X105850000Y-57810000D01*
X106360000Y-58110000D02*
X107610000Y-58110000D01*
X106700000Y-53700000D02*
X95800000Y-53700000D01*
X106700000Y-57200000D02*
X106700000Y-53700000D01*
X107310000Y-53090000D02*
X95190000Y-53090000D01*
X107310000Y-55200000D02*
X106700000Y-55200000D01*
X107310000Y-56500000D02*
X106700000Y-56500000D01*
X107310000Y-57810000D02*
X107310000Y-53090000D01*
X107610000Y-58110000D02*
X107610000Y-56860000D01*
%TO.C,R303*%
X160227500Y-64245276D02*
X160227500Y-64754724D01*
X161272500Y-64245276D02*
X161272500Y-64754724D01*
%TO.C,R403*%
X138245276Y-67727500D02*
X138754724Y-67727500D01*
X138245276Y-68772500D02*
X138754724Y-68772500D01*
%TO.C,C202*%
X154711252Y-68590000D02*
X153288748Y-68590000D01*
X154711252Y-70410000D02*
X153288748Y-70410000D01*
%TO.C,D201*%
X142510000Y-71150000D02*
X139250000Y-71150000D01*
X142510000Y-72850000D02*
X139250000Y-72850000D01*
X142510000Y-72850000D02*
X142510000Y-71150000D01*
%TO.C,R507*%
X109219276Y-73391500D02*
X109728724Y-73391500D01*
X109219276Y-74436500D02*
X109728724Y-74436500D01*
%TO.C,R402*%
X114727500Y-75995276D02*
X114727500Y-76504724D01*
X115772500Y-75995276D02*
X115772500Y-76504724D01*
%TO.C,C403*%
X114990000Y-57896267D02*
X114990000Y-57603733D01*
X116010000Y-57896267D02*
X116010000Y-57603733D01*
D12*
%TO.C,TP508*%
X107150000Y-60500000D02*
G75*
G02*
X104350000Y-60500000I-1400000J0D01*
G01*
X104350000Y-60500000D02*
G75*
G02*
X107150000Y-60500000I1400000J0D01*
G01*
%TD*%
%LPC*%
D13*
%TO.C,C503*%
X112014000Y-61367500D03*
X112014000Y-63092500D03*
%TD*%
D14*
%TO.C,TP101*%
X163500000Y-59000000D03*
%TD*%
D15*
%TO.C,TP401*%
X130500000Y-78000000D03*
%TD*%
%TO.C,TP505*%
X114000000Y-62250000D03*
%TD*%
D16*
%TO.C,C401*%
X118862500Y-55250000D03*
X117137500Y-55250000D03*
%TD*%
D17*
%TO.C,R305*%
X142250000Y-65412500D03*
X142250000Y-63587500D03*
%TD*%
D18*
%TO.C,R505*%
X96500000Y-69837500D03*
X96500000Y-71662500D03*
%TD*%
D15*
%TO.C,TP204*%
X158250000Y-67750000D03*
%TD*%
D19*
%TO.C,C205*%
X146462500Y-72250000D03*
X148537500Y-72250000D03*
%TD*%
%TO.C,C204*%
X146462500Y-70250000D03*
X148537500Y-70250000D03*
%TD*%
D20*
%TO.C,R512*%
X110386500Y-75692000D03*
X108561500Y-75692000D03*
%TD*%
D13*
%TO.C,C501*%
X112014000Y-72035500D03*
X112014000Y-73760500D03*
%TD*%
D15*
%TO.C,TP307*%
X158000000Y-59500000D03*
%TD*%
D20*
%TO.C,R304*%
X158912500Y-63750000D03*
X157087500Y-63750000D03*
%TD*%
D15*
%TO.C,TP203*%
X144250000Y-71250000D03*
%TD*%
D20*
%TO.C,R515*%
X110386500Y-65024000D03*
X108561500Y-65024000D03*
%TD*%
D21*
%TO.C,R302*%
X157087500Y-61750000D03*
X158912500Y-61750000D03*
%TD*%
D22*
%TO.C,C505*%
X112014000Y-77316500D03*
X112014000Y-75591500D03*
%TD*%
D23*
%TO.C,C206*%
X143500000Y-73962500D03*
X143500000Y-76037500D03*
%TD*%
D24*
%TO.C,U401*%
X117250000Y-57510000D03*
X117250000Y-58780000D03*
X117250000Y-60050000D03*
X117250000Y-61320000D03*
X117250000Y-62590000D03*
X117250000Y-63860000D03*
X117250000Y-65130000D03*
X117250000Y-66400000D03*
X117250000Y-67670000D03*
X117250000Y-68940000D03*
X117250000Y-70210000D03*
X117250000Y-71480000D03*
X117250000Y-72750000D03*
X117250000Y-74020000D03*
D25*
X120285000Y-75270000D03*
X121555000Y-75270000D03*
X122825000Y-75270000D03*
X124095000Y-75270000D03*
X125365000Y-75270000D03*
X126635000Y-75270000D03*
X127905000Y-75270000D03*
X129175000Y-75270000D03*
X130445000Y-75270000D03*
X131715000Y-75270000D03*
D24*
X134750000Y-74020000D03*
X134750000Y-72750000D03*
X134750000Y-71480000D03*
X134750000Y-70210000D03*
X134750000Y-68940000D03*
X134750000Y-67670000D03*
X134750000Y-66400000D03*
X134750000Y-65130000D03*
X134750000Y-63860000D03*
X134750000Y-62590000D03*
X134750000Y-61320000D03*
X134750000Y-60050000D03*
X134750000Y-58780000D03*
X134750000Y-57510000D03*
D26*
X123100000Y-64150000D03*
X123100000Y-65550000D03*
X123800000Y-63450000D03*
X123800000Y-64850000D03*
X123800000Y-66250000D03*
X124500000Y-64150000D03*
D27*
X124500000Y-64850000D03*
D26*
X124500000Y-65550000D03*
X125200000Y-63450000D03*
X125200000Y-64850000D03*
X125200000Y-66250000D03*
X125900000Y-64150000D03*
X125900000Y-65550000D03*
%TD*%
D28*
%TO.C,Q501*%
X98300000Y-71937500D03*
X100200000Y-71937500D03*
X99250000Y-70062500D03*
%TD*%
D20*
%TO.C,R301*%
X149412500Y-58750000D03*
X147587500Y-58750000D03*
%TD*%
D15*
%TO.C,TP304*%
X120500000Y-77750000D03*
%TD*%
D29*
%TO.C,H102*%
X97750000Y-66250000D03*
%TD*%
D21*
%TO.C,R504*%
X108561500Y-68580000D03*
X110386500Y-68580000D03*
%TD*%
D30*
%TO.C,C207*%
X137500000Y-76037500D03*
X137500000Y-73962500D03*
%TD*%
D15*
%TO.C,TP202*%
X135000000Y-77750000D03*
%TD*%
D31*
%TO.C,J502*%
X103750000Y-67250000D03*
D32*
X103750000Y-65250000D03*
%TD*%
D33*
%TO.C,U501*%
X101500000Y-72625000D03*
X102000000Y-72625000D03*
D34*
X102500000Y-72550000D03*
D33*
X103000000Y-72625000D03*
X103500000Y-72625000D03*
X103500000Y-71475000D03*
X103000000Y-71475000D03*
D34*
X102500000Y-71425000D03*
D33*
X102000000Y-71475000D03*
X101500000Y-71475000D03*
%TD*%
D35*
%TO.C,IC301*%
X149025000Y-60845000D03*
X149025000Y-62115000D03*
X149025000Y-63385000D03*
X149025000Y-64655000D03*
X153975000Y-64655000D03*
X153975000Y-63385000D03*
X153975000Y-62115000D03*
X153975000Y-60845000D03*
%TD*%
D15*
%TO.C,TP303*%
X140250000Y-62750000D03*
%TD*%
D21*
%TO.C,R509*%
X108561500Y-59690000D03*
X110386500Y-59690000D03*
%TD*%
D22*
%TO.C,C502*%
X112014000Y-70204500D03*
X112014000Y-68479500D03*
%TD*%
%TO.C,C506*%
X112014000Y-66648500D03*
X112014000Y-64923500D03*
%TD*%
D21*
%TO.C,R513*%
X108561500Y-77470000D03*
X110386500Y-77470000D03*
%TD*%
D36*
%TO.C,JP304*%
X144750000Y-62950000D03*
D37*
X144750000Y-64250000D03*
D38*
X144750000Y-65550000D03*
%TD*%
D21*
%TO.C,R511*%
X108587500Y-58000000D03*
X110412500Y-58000000D03*
%TD*%
D18*
%TO.C,R503*%
X113750000Y-75337500D03*
X113750000Y-77162500D03*
%TD*%
D39*
%TO.C,J101*%
X167250000Y-56510000D03*
D40*
X167250000Y-59050000D03*
X167250000Y-61590000D03*
X167250000Y-64130000D03*
X167250000Y-66670000D03*
X167250000Y-69210000D03*
X167250000Y-71750000D03*
%TD*%
D20*
%TO.C,R502*%
X110386500Y-72136000D03*
X108561500Y-72136000D03*
%TD*%
D15*
%TO.C,TP302*%
X138000000Y-65000000D03*
%TD*%
D16*
%TO.C,C201*%
X153862500Y-78000000D03*
X152137500Y-78000000D03*
%TD*%
D41*
%TO.C,D401*%
X126875000Y-77724000D03*
X125125000Y-77724000D03*
%TD*%
D42*
%TO.C,U202*%
X139612500Y-73850000D03*
X139612500Y-74500000D03*
X139612500Y-75150000D03*
X141387500Y-75150000D03*
X141387500Y-74500000D03*
X141387500Y-73850000D03*
D43*
X140500000Y-74500000D03*
%TD*%
D15*
%TO.C,TP305*%
X150250000Y-56750000D03*
%TD*%
D44*
%TO.C,F201*%
X161500000Y-72512500D03*
X161500000Y-75487500D03*
%TD*%
D45*
%TO.C,F202*%
X137500000Y-71875000D03*
X137500000Y-70125000D03*
%TD*%
D15*
%TO.C,TP506*%
X114000000Y-66750000D03*
%TD*%
%TO.C,TP501*%
X114000000Y-71250000D03*
%TD*%
%TO.C,TP103*%
X155750000Y-66750000D03*
%TD*%
D29*
%TO.C,H103*%
X167250000Y-76750000D03*
%TD*%
D46*
%TO.C,U201*%
X154887500Y-75950000D03*
X154887500Y-75000000D03*
X154887500Y-74050000D03*
X152612500Y-74050000D03*
X152612500Y-75000000D03*
X152612500Y-75950000D03*
%TD*%
D47*
%TO.C,D202*%
X158250000Y-71500000D03*
X158250000Y-76500000D03*
%TD*%
D15*
%TO.C,TP201*%
X150250000Y-68250000D03*
%TD*%
D48*
%TO.C,L201*%
X150350000Y-76000000D03*
X146650000Y-76000000D03*
%TD*%
D21*
%TO.C,R508*%
X108561500Y-63246000D03*
X110386500Y-63246000D03*
%TD*%
%TO.C,R514*%
X108561500Y-66802000D03*
X110386500Y-66802000D03*
%TD*%
%TO.C,R401*%
X113587500Y-60250000D03*
X115412500Y-60250000D03*
%TD*%
D30*
%TO.C,C402*%
X113500000Y-58537500D03*
X113500000Y-56462500D03*
%TD*%
D15*
%TO.C,TP301*%
X140250000Y-66250000D03*
%TD*%
D49*
%TO.C,C301*%
X153887500Y-59250000D03*
X155612500Y-59250000D03*
%TD*%
D50*
%TO.C,D301*%
X162562500Y-64550000D03*
X162562500Y-66450000D03*
X164437500Y-65500000D03*
%TD*%
D15*
%TO.C,TP503*%
X114000000Y-73500000D03*
%TD*%
%TO.C,TP502*%
X114000000Y-69000000D03*
%TD*%
D51*
%TO.C,J401*%
X138460000Y-59750000D03*
D52*
X141000000Y-59750000D03*
D51*
X143540000Y-59750000D03*
X138460000Y-56575000D03*
X143540000Y-56575000D03*
D52*
X139984000Y-54670000D03*
X142016000Y-54670000D03*
D53*
X141635000Y-58480000D03*
X140365000Y-58480000D03*
X141635000Y-57210000D03*
X140365000Y-57210000D03*
X141635000Y-55940000D03*
X140365000Y-55940000D03*
%TD*%
D17*
%TO.C,R201*%
X142748000Y-69492500D03*
X142748000Y-67667500D03*
%TD*%
D15*
%TO.C,TP102*%
X164000000Y-71750000D03*
%TD*%
%TO.C,TP504*%
X114000000Y-64500000D03*
%TD*%
D16*
%TO.C,C504*%
X110336500Y-56388000D03*
X108611500Y-56388000D03*
%TD*%
D29*
%TO.C,H101*%
X156750000Y-55250000D03*
%TD*%
D54*
%TO.C,J504*%
X97250000Y-76500000D03*
D55*
X99250000Y-76500000D03*
X101250000Y-76500000D03*
X103250000Y-76500000D03*
X105250000Y-76500000D03*
%TD*%
D20*
%TO.C,R510*%
X110386500Y-61468000D03*
X108561500Y-61468000D03*
%TD*%
D21*
%TO.C,R501*%
X96877500Y-61214000D03*
X98702500Y-61214000D03*
%TD*%
D15*
%TO.C,TP507*%
X106000000Y-72500000D03*
%TD*%
D21*
%TO.C,R506*%
X108561500Y-70358000D03*
X110386500Y-70358000D03*
%TD*%
D33*
%TO.C,U502*%
X103500000Y-59675000D03*
X103000000Y-59675000D03*
D34*
X102500000Y-59750000D03*
D33*
X102000000Y-59675000D03*
X101500000Y-59675000D03*
X101500000Y-60825000D03*
X102000000Y-60825000D03*
D34*
X102500000Y-60875000D03*
D33*
X103000000Y-60825000D03*
X103500000Y-60825000D03*
%TD*%
D15*
%TO.C,TP306*%
X117500000Y-77750000D03*
%TD*%
D56*
%TO.C,C203*%
X155562500Y-72000000D03*
X152437500Y-72000000D03*
%TD*%
D57*
%TO.C,J501*%
X105250000Y-56000000D03*
D55*
X103250000Y-56000000D03*
X101250000Y-56000000D03*
X99250000Y-56000000D03*
X97250000Y-56000000D03*
%TD*%
D18*
%TO.C,R303*%
X160750000Y-63587500D03*
X160750000Y-65412500D03*
%TD*%
D21*
%TO.C,R403*%
X137587500Y-68250000D03*
X139412500Y-68250000D03*
%TD*%
D56*
%TO.C,C202*%
X155562500Y-69500000D03*
X152437500Y-69500000D03*
%TD*%
D58*
%TO.C,D201*%
X141750000Y-72000000D03*
X139250000Y-72000000D03*
%TD*%
D21*
%TO.C,R507*%
X108561500Y-73914000D03*
X110386500Y-73914000D03*
%TD*%
D18*
%TO.C,R402*%
X115250000Y-75337500D03*
X115250000Y-77162500D03*
%TD*%
D22*
%TO.C,C403*%
X115500000Y-58612500D03*
X115500000Y-56887500D03*
%TD*%
D14*
%TO.C,TP508*%
X105750000Y-60500000D03*
%TD*%
%LPD*%
M02*
