%TF.GenerationSoftware,KiCad,Pcbnew,8.0.4*%
%TF.CreationDate,2024-09-04T11:51:27+12:00*%
%TF.ProjectId,CDRC,43445243-2e6b-4696-9361-645f70636258,A*%
%TF.SameCoordinates,Original*%
%TF.FileFunction,Soldermask,Top*%
%TF.FilePolarity,Negative*%
%FSLAX46Y46*%
G04 Gerber Fmt 4.6, Leading zero omitted, Abs format (unit mm)*
G04 Created by KiCad (PCBNEW 8.0.4) date 2024-09-04 11:51:27*
%MOMM*%
%LPD*%
G01*
G04 APERTURE LIST*
G04 Aperture macros list*
%AMRoundRect*
0 Rectangle with rounded corners*
0 $1 Rounding radius*
0 $2 $3 $4 $5 $6 $7 $8 $9 X,Y pos of 4 corners*
0 Add a 4 corners polygon primitive as box body*
4,1,4,$2,$3,$4,$5,$6,$7,$8,$9,$2,$3,0*
0 Add four circle primitives for the rounded corners*
1,1,$1+$1,$2,$3*
1,1,$1+$1,$4,$5*
1,1,$1+$1,$6,$7*
1,1,$1+$1,$8,$9*
0 Add four rect primitives between the rounded corners*
20,1,$1+$1,$2,$3,$4,$5,0*
20,1,$1+$1,$4,$5,$6,$7,0*
20,1,$1+$1,$6,$7,$8,$9,0*
20,1,$1+$1,$8,$9,$2,$3,0*%
%AMFreePoly0*
4,1,19,0.550000,-0.750000,0.000000,-0.750000,0.000000,-0.744911,-0.071157,-0.744911,-0.207708,-0.704816,-0.327430,-0.627875,-0.420627,-0.520320,-0.479746,-0.390866,-0.500000,-0.250000,-0.500000,0.250000,-0.479746,0.390866,-0.420627,0.520320,-0.327430,0.627875,-0.207708,0.704816,-0.071157,0.744911,0.000000,0.744911,0.000000,0.750000,0.550000,0.750000,0.550000,-0.750000,0.550000,-0.750000,
$1*%
%AMFreePoly1*
4,1,19,0.000000,0.744911,0.071157,0.744911,0.207708,0.704816,0.327430,0.627875,0.420627,0.520320,0.479746,0.390866,0.500000,0.250000,0.500000,-0.250000,0.479746,-0.390866,0.420627,-0.520320,0.327430,-0.627875,0.207708,-0.704816,0.071157,-0.744911,0.000000,-0.744911,0.000000,-0.750000,-0.550000,-0.750000,-0.550000,0.750000,0.000000,0.750000,0.000000,0.744911,0.000000,0.744911,
$1*%
G04 Aperture macros list end*
%ADD10RoundRect,0.237500X-0.237500X0.300000X-0.237500X-0.300000X0.237500X-0.300000X0.237500X0.300000X0*%
%ADD11C,2.000000*%
%ADD12C,1.500000*%
%ADD13RoundRect,0.237500X0.300000X0.237500X-0.300000X0.237500X-0.300000X-0.237500X0.300000X-0.237500X0*%
%ADD14RoundRect,0.237500X0.237500X-0.250000X0.237500X0.250000X-0.237500X0.250000X-0.237500X-0.250000X0*%
%ADD15RoundRect,0.237500X-0.237500X0.250000X-0.237500X-0.250000X0.237500X-0.250000X0.237500X0.250000X0*%
%ADD16RoundRect,0.250000X0.400000X0.625000X-0.400000X0.625000X-0.400000X-0.625000X0.400000X-0.625000X0*%
%ADD17RoundRect,0.250000X-0.337500X-0.475000X0.337500X-0.475000X0.337500X0.475000X-0.337500X0.475000X0*%
%ADD18RoundRect,0.237500X0.250000X0.237500X-0.250000X0.237500X-0.250000X-0.237500X0.250000X-0.237500X0*%
%ADD19RoundRect,0.237500X-0.250000X-0.237500X0.250000X-0.237500X0.250000X0.237500X-0.250000X0.237500X0*%
%ADD20RoundRect,0.237500X0.237500X-0.300000X0.237500X0.300000X-0.237500X0.300000X-0.237500X-0.300000X0*%
%ADD21R,1.500000X0.900000*%
%ADD22R,0.900000X1.500000*%
%ADD23C,0.600000*%
%ADD24R,3.800000X3.800000*%
%ADD25RoundRect,0.150000X0.150000X-0.587500X0.150000X0.587500X-0.150000X0.587500X-0.150000X-0.587500X0*%
%ADD26C,2.700000*%
%ADD27RoundRect,0.250000X0.625000X-0.350000X0.625000X0.350000X-0.625000X0.350000X-0.625000X-0.350000X0*%
%ADD28O,1.750000X1.200000*%
%ADD29R,0.250000X1.000000*%
%ADD30R,0.450000X1.000000*%
%ADD31RoundRect,0.150000X-0.825000X-0.150000X0.825000X-0.150000X0.825000X0.150000X-0.825000X0.150000X0*%
%ADD32FreePoly0,270.000000*%
%ADD33R,1.500000X1.000000*%
%ADD34FreePoly1,270.000000*%
%ADD35R,1.700000X1.700000*%
%ADD36O,1.700000X1.700000*%
%ADD37RoundRect,0.237500X0.287500X0.237500X-0.287500X0.237500X-0.287500X-0.237500X0.287500X-0.237500X0*%
%ADD38RoundRect,0.250001X-0.624999X0.462499X-0.624999X-0.462499X0.624999X-0.462499X0.624999X0.462499X0*%
%ADD39RoundRect,0.150000X0.512500X0.150000X-0.512500X0.150000X-0.512500X-0.150000X0.512500X-0.150000X0*%
%ADD40RoundRect,0.250000X-0.650000X1.500000X-0.650000X-1.500000X0.650000X-1.500000X0.650000X1.500000X0*%
%ADD41R,1.900000X3.700000*%
%ADD42RoundRect,0.250000X0.475000X-0.337500X0.475000X0.337500X-0.475000X0.337500X-0.475000X-0.337500X0*%
%ADD43RoundRect,0.237500X-0.300000X-0.237500X0.300000X-0.237500X0.300000X0.237500X-0.300000X0.237500X0*%
%ADD44RoundRect,0.150000X-0.587500X-0.150000X0.587500X-0.150000X0.587500X0.150000X-0.587500X0.150000X0*%
%ADD45C,2.374900*%
%ADD46C,0.990600*%
%ADD47C,0.787400*%
%ADD48RoundRect,0.250000X-0.350000X-0.625000X0.350000X-0.625000X0.350000X0.625000X-0.350000X0.625000X0*%
%ADD49O,1.200000X1.750000*%
%ADD50RoundRect,0.250000X0.412500X0.650000X-0.412500X0.650000X-0.412500X-0.650000X0.412500X-0.650000X0*%
%ADD51RoundRect,0.250000X0.350000X0.625000X-0.350000X0.625000X-0.350000X-0.625000X0.350000X-0.625000X0*%
G04 APERTURE END LIST*
D10*
%TO.C,C503*%
X18014000Y-9367500D03*
X18014000Y-11092500D03*
%TD*%
D11*
%TO.C,TP101*%
X69500000Y-7000000D03*
%TD*%
D12*
%TO.C,TP401*%
X36500000Y-26000000D03*
%TD*%
%TO.C,TP505*%
X20000000Y-10250000D03*
%TD*%
D13*
%TO.C,C401*%
X24862500Y-3250000D03*
X23137500Y-3250000D03*
%TD*%
D14*
%TO.C,R305*%
X48250000Y-13412500D03*
X48250000Y-11587500D03*
%TD*%
D15*
%TO.C,R505*%
X2500000Y-17837500D03*
X2500000Y-19662500D03*
%TD*%
D12*
%TO.C,TP204*%
X64250000Y-15750000D03*
%TD*%
D16*
%TO.C,R516*%
X5300000Y-9250000D03*
X2200000Y-9250000D03*
%TD*%
D17*
%TO.C,C205*%
X52462500Y-20250000D03*
X54537500Y-20250000D03*
%TD*%
%TO.C,C204*%
X52462500Y-18250000D03*
X54537500Y-18250000D03*
%TD*%
D18*
%TO.C,R512*%
X16386500Y-23692000D03*
X14561500Y-23692000D03*
%TD*%
D10*
%TO.C,C501*%
X18014000Y-20035500D03*
X18014000Y-21760500D03*
%TD*%
D18*
%TO.C,R304*%
X64912500Y-11750000D03*
X63087500Y-11750000D03*
%TD*%
D12*
%TO.C,TP203*%
X47750000Y-19250000D03*
%TD*%
D18*
%TO.C,R515*%
X16386500Y-13024000D03*
X14561500Y-13024000D03*
%TD*%
D19*
%TO.C,R302*%
X63087500Y-9750000D03*
X64912500Y-9750000D03*
%TD*%
D20*
%TO.C,C505*%
X18014000Y-25316500D03*
X18014000Y-23591500D03*
%TD*%
D21*
%TO.C,U401*%
X23250000Y-5510000D03*
X23250000Y-6780000D03*
X23250000Y-8050000D03*
X23250000Y-9320000D03*
X23250000Y-10590000D03*
X23250000Y-11860000D03*
X23250000Y-13130000D03*
X23250000Y-14400000D03*
X23250000Y-15670000D03*
X23250000Y-16940000D03*
X23250000Y-18210000D03*
X23250000Y-19480000D03*
X23250000Y-20750000D03*
X23250000Y-22020000D03*
D22*
X26285000Y-23270000D03*
X27555000Y-23270000D03*
X28825000Y-23270000D03*
X30095000Y-23270000D03*
X31365000Y-23270000D03*
X32635000Y-23270000D03*
X33905000Y-23270000D03*
X35175000Y-23270000D03*
X36445000Y-23270000D03*
X37715000Y-23270000D03*
D21*
X40750000Y-22020000D03*
X40750000Y-20750000D03*
X40750000Y-19480000D03*
X40750000Y-18210000D03*
X40750000Y-16940000D03*
X40750000Y-15670000D03*
X40750000Y-14400000D03*
X40750000Y-13130000D03*
X40750000Y-11860000D03*
X40750000Y-10590000D03*
X40750000Y-9320000D03*
X40750000Y-8050000D03*
X40750000Y-6780000D03*
X40750000Y-5510000D03*
D23*
X29100000Y-12150000D03*
X29100000Y-13550000D03*
X29800000Y-11450000D03*
X29800000Y-12850000D03*
X29800000Y-14250000D03*
X30500000Y-12150000D03*
D24*
X30500000Y-12850000D03*
D23*
X30500000Y-13550000D03*
X31200000Y-11450000D03*
X31200000Y-12850000D03*
X31200000Y-14250000D03*
X31900000Y-12150000D03*
X31900000Y-13550000D03*
%TD*%
D25*
%TO.C,Q501*%
X4300000Y-19937500D03*
X6200000Y-19937500D03*
X5250000Y-18062500D03*
%TD*%
D18*
%TO.C,R301*%
X55412500Y-6750000D03*
X53587500Y-6750000D03*
%TD*%
D12*
%TO.C,TP304*%
X26500000Y-25750000D03*
%TD*%
D26*
%TO.C,H102*%
X3750000Y-14250000D03*
%TD*%
D19*
%TO.C,R504*%
X14561500Y-16580000D03*
X16386500Y-16580000D03*
%TD*%
D27*
%TO.C,J502*%
X9750000Y-15250000D03*
D28*
X9750000Y-13250000D03*
%TD*%
D29*
%TO.C,U501*%
X7500000Y-20625000D03*
X8000000Y-20625000D03*
D30*
X8500000Y-20550000D03*
D29*
X9000000Y-20625000D03*
X9500000Y-20625000D03*
X9500000Y-19475000D03*
X9000000Y-19475000D03*
D30*
X8500000Y-19425000D03*
D29*
X8000000Y-19475000D03*
X7500000Y-19475000D03*
%TD*%
D31*
%TO.C,IC301*%
X55025000Y-8845000D03*
X55025000Y-10115000D03*
X55025000Y-11385000D03*
X55025000Y-12655000D03*
X59975000Y-12655000D03*
X59975000Y-11385000D03*
X59975000Y-10115000D03*
X59975000Y-8845000D03*
%TD*%
D12*
%TO.C,TP303*%
X46250000Y-10750000D03*
%TD*%
D19*
%TO.C,R509*%
X14561500Y-7690000D03*
X16386500Y-7690000D03*
%TD*%
D20*
%TO.C,C502*%
X18014000Y-18204500D03*
X18014000Y-16479500D03*
%TD*%
%TO.C,C506*%
X18014000Y-14648500D03*
X18014000Y-12923500D03*
%TD*%
D19*
%TO.C,R513*%
X14561500Y-25470000D03*
X16386500Y-25470000D03*
%TD*%
D32*
%TO.C,JP304*%
X50750000Y-10950000D03*
D33*
X50750000Y-12250000D03*
D34*
X50750000Y-13550000D03*
%TD*%
D19*
%TO.C,R511*%
X14587500Y-6000000D03*
X16412500Y-6000000D03*
%TD*%
D15*
%TO.C,R503*%
X19750000Y-23337500D03*
X19750000Y-25162500D03*
%TD*%
D35*
%TO.C,J101*%
X73250000Y-4510000D03*
D36*
X73250000Y-7050000D03*
X73250000Y-9590000D03*
X73250000Y-12130000D03*
X73250000Y-14670000D03*
X73250000Y-17210000D03*
X73250000Y-19750000D03*
%TD*%
D18*
%TO.C,R502*%
X16386500Y-20136000D03*
X14561500Y-20136000D03*
%TD*%
D12*
%TO.C,TP302*%
X44000000Y-13000000D03*
%TD*%
D13*
%TO.C,C201*%
X59862500Y-26000000D03*
X58137500Y-26000000D03*
%TD*%
D37*
%TO.C,D401*%
X32875000Y-25724000D03*
X31125000Y-25724000D03*
%TD*%
D14*
%TO.C,R201*%
X50250000Y-17912500D03*
X50250000Y-16087500D03*
%TD*%
D38*
%TO.C,F201*%
X67500000Y-20512500D03*
X67500000Y-23487500D03*
%TD*%
D12*
%TO.C,TP506*%
X20000000Y-14750000D03*
%TD*%
%TO.C,TP501*%
X20000000Y-19250000D03*
%TD*%
%TO.C,TP103*%
X61750000Y-14750000D03*
%TD*%
D26*
%TO.C,H103*%
X73250000Y-24750000D03*
%TD*%
D39*
%TO.C,U201*%
X60887500Y-23950000D03*
X60887500Y-23000000D03*
X60887500Y-22050000D03*
X58612500Y-22050000D03*
X58612500Y-23000000D03*
X58612500Y-23950000D03*
%TD*%
D40*
%TO.C,D202*%
X64250000Y-19500000D03*
X64250000Y-24500000D03*
%TD*%
D12*
%TO.C,TP201*%
X56250000Y-16250000D03*
%TD*%
D41*
%TO.C,L201*%
X55850000Y-24000000D03*
X53150000Y-24000000D03*
%TD*%
D19*
%TO.C,R508*%
X14561500Y-11246000D03*
X16386500Y-11246000D03*
%TD*%
%TO.C,R514*%
X14561500Y-14802000D03*
X16386500Y-14802000D03*
%TD*%
%TO.C,R401*%
X19587500Y-8250000D03*
X21412500Y-8250000D03*
%TD*%
D42*
%TO.C,C402*%
X19500000Y-6537500D03*
X19500000Y-4462500D03*
%TD*%
D12*
%TO.C,TP301*%
X46250000Y-14250000D03*
%TD*%
D43*
%TO.C,C301*%
X59887500Y-7250000D03*
X61612500Y-7250000D03*
%TD*%
D44*
%TO.C,D301*%
X68562500Y-12550000D03*
X68562500Y-14450000D03*
X70437500Y-13500000D03*
%TD*%
D12*
%TO.C,TP503*%
X20000000Y-21500000D03*
%TD*%
%TO.C,TP502*%
X20000000Y-17000000D03*
%TD*%
D45*
%TO.C,J401*%
X44460000Y-7750000D03*
D46*
X47000000Y-7750000D03*
D45*
X49540000Y-7750000D03*
X44460000Y-4575000D03*
X49540000Y-4575000D03*
D46*
X45984000Y-2670000D03*
X48016000Y-2670000D03*
D47*
X47635000Y-6480000D03*
X46365000Y-6480000D03*
X47635000Y-5210000D03*
X46365000Y-5210000D03*
X47635000Y-3940000D03*
X46365000Y-3940000D03*
%TD*%
D12*
%TO.C,TP102*%
X70000000Y-19750000D03*
%TD*%
%TO.C,TP504*%
X20000000Y-12500000D03*
%TD*%
D13*
%TO.C,C504*%
X16336500Y-4388000D03*
X14611500Y-4388000D03*
%TD*%
D26*
%TO.C,H101*%
X62750000Y-3250000D03*
%TD*%
D48*
%TO.C,J504*%
X3250000Y-24500000D03*
D49*
X5250000Y-24500000D03*
X7250000Y-24500000D03*
X9250000Y-24500000D03*
X11250000Y-24500000D03*
%TD*%
D18*
%TO.C,R510*%
X16386500Y-9468000D03*
X14561500Y-9468000D03*
%TD*%
D19*
%TO.C,R501*%
X2837500Y-9250000D03*
X4662500Y-9250000D03*
%TD*%
D12*
%TO.C,TP507*%
X12000000Y-20500000D03*
%TD*%
D19*
%TO.C,R506*%
X14561500Y-18358000D03*
X16386500Y-18358000D03*
%TD*%
D29*
%TO.C,U502*%
X9500000Y-7675000D03*
X9000000Y-7675000D03*
D30*
X8500000Y-7750000D03*
D29*
X8000000Y-7675000D03*
X7500000Y-7675000D03*
X7500000Y-8825000D03*
X8000000Y-8825000D03*
D30*
X8500000Y-8875000D03*
D29*
X9000000Y-8825000D03*
X9500000Y-8825000D03*
%TD*%
D12*
%TO.C,TP306*%
X23500000Y-25750000D03*
%TD*%
D50*
%TO.C,C203*%
X61562500Y-20000000D03*
X58437500Y-20000000D03*
%TD*%
D51*
%TO.C,J501*%
X11250000Y-4000000D03*
D49*
X9250000Y-4000000D03*
X7250000Y-4000000D03*
X5250000Y-4000000D03*
X3250000Y-4000000D03*
%TD*%
D15*
%TO.C,R303*%
X66750000Y-11587500D03*
X66750000Y-13412500D03*
%TD*%
D19*
%TO.C,R403*%
X43587500Y-17000000D03*
X45412500Y-17000000D03*
%TD*%
D50*
%TO.C,C202*%
X61562500Y-17500000D03*
X58437500Y-17500000D03*
%TD*%
D19*
%TO.C,R507*%
X14561500Y-21914000D03*
X16386500Y-21914000D03*
%TD*%
D15*
%TO.C,R402*%
X21250000Y-23337500D03*
X21250000Y-25162500D03*
%TD*%
D20*
%TO.C,C403*%
X21500000Y-6612500D03*
X21500000Y-4887500D03*
%TD*%
D11*
%TO.C,TP508*%
X11750000Y-8500000D03*
%TD*%
M02*
