%TF.GenerationSoftware,KiCad,Pcbnew,8.0.4*%
%TF.CreationDate,2024-09-04T11:51:27+12:00*%
%TF.ProjectId,CDRC,43445243-2e6b-4696-9361-645f70636258,A*%
%TF.SameCoordinates,Original*%
%TF.FileFunction,Other,Comment*%
%FSLAX46Y46*%
G04 Gerber Fmt 4.6, Leading zero omitted, Abs format (unit mm)*
G04 Created by KiCad (PCBNEW 8.0.4) date 2024-09-04 11:51:27*
%MOMM*%
%LPD*%
G01*
G04 APERTURE LIST*
%ADD10C,0.070000*%
%ADD11C,0.150000*%
G04 APERTURE END LIST*
D10*
X47181407Y-6448095D02*
X46781407Y-6448095D01*
X47181407Y-6219524D02*
X46952836Y-6390953D01*
X46781407Y-6219524D02*
X47009979Y-6448095D01*
X46971883Y-6048095D02*
X46971883Y-5914762D01*
X47181407Y-5857619D02*
X47181407Y-6048095D01*
X47181407Y-6048095D02*
X46781407Y-6048095D01*
X46781407Y-6048095D02*
X46781407Y-5857619D01*
X46971883Y-5686190D02*
X46971883Y-5552857D01*
X47181407Y-5495714D02*
X47181407Y-5686190D01*
X47181407Y-5686190D02*
X46781407Y-5686190D01*
X46781407Y-5686190D02*
X46781407Y-5495714D01*
X47181407Y-5324285D02*
X46781407Y-5324285D01*
X46781407Y-5324285D02*
X46781407Y-5171904D01*
X46781407Y-5171904D02*
X46800455Y-5133809D01*
X46800455Y-5133809D02*
X46819502Y-5114762D01*
X46819502Y-5114762D02*
X46857598Y-5095714D01*
X46857598Y-5095714D02*
X46914740Y-5095714D01*
X46914740Y-5095714D02*
X46952836Y-5114762D01*
X46952836Y-5114762D02*
X46971883Y-5133809D01*
X46971883Y-5133809D02*
X46990931Y-5171904D01*
X46990931Y-5171904D02*
X46990931Y-5324285D01*
X46781407Y-4848095D02*
X46781407Y-4771904D01*
X46781407Y-4771904D02*
X46800455Y-4733809D01*
X46800455Y-4733809D02*
X46838550Y-4695714D01*
X46838550Y-4695714D02*
X46914740Y-4676666D01*
X46914740Y-4676666D02*
X47048074Y-4676666D01*
X47048074Y-4676666D02*
X47124264Y-4695714D01*
X47124264Y-4695714D02*
X47162360Y-4733809D01*
X47162360Y-4733809D02*
X47181407Y-4771904D01*
X47181407Y-4771904D02*
X47181407Y-4848095D01*
X47181407Y-4848095D02*
X47162360Y-4886190D01*
X47162360Y-4886190D02*
X47124264Y-4924285D01*
X47124264Y-4924285D02*
X47048074Y-4943333D01*
X47048074Y-4943333D02*
X46914740Y-4943333D01*
X46914740Y-4943333D02*
X46838550Y-4924285D01*
X46838550Y-4924285D02*
X46800455Y-4886190D01*
X46800455Y-4886190D02*
X46781407Y-4848095D01*
X46781407Y-4505237D02*
X47105217Y-4505237D01*
X47105217Y-4505237D02*
X47143312Y-4486190D01*
X47143312Y-4486190D02*
X47162360Y-4467142D01*
X47162360Y-4467142D02*
X47181407Y-4429047D01*
X47181407Y-4429047D02*
X47181407Y-4352856D01*
X47181407Y-4352856D02*
X47162360Y-4314761D01*
X47162360Y-4314761D02*
X47143312Y-4295714D01*
X47143312Y-4295714D02*
X47105217Y-4276666D01*
X47105217Y-4276666D02*
X46781407Y-4276666D01*
X46781407Y-4143332D02*
X46781407Y-3914761D01*
X47181407Y-4029047D02*
X46781407Y-4029047D01*
D11*
%TO.C,H102*%
X6450000Y-14250000D02*
G75*
G02*
X1050000Y-14250000I-2700000J0D01*
G01*
X1050000Y-14250000D02*
G75*
G02*
X6450000Y-14250000I2700000J0D01*
G01*
%TO.C,H103*%
X75950000Y-24750000D02*
G75*
G02*
X70550000Y-24750000I-2700000J0D01*
G01*
X70550000Y-24750000D02*
G75*
G02*
X75950000Y-24750000I2700000J0D01*
G01*
%TO.C,H101*%
X65450000Y-3250000D02*
G75*
G02*
X60050000Y-3250000I-2700000J0D01*
G01*
X60050000Y-3250000D02*
G75*
G02*
X65450000Y-3250000I2700000J0D01*
G01*
%TD*%
M02*
