%TF.GenerationSoftware,KiCad,Pcbnew,8.0.4*%
%TF.CreationDate,2024-09-04T11:51:27+12:00*%
%TF.ProjectId,CDRC,43445243-2e6b-4696-9361-645f70636258,A*%
%TF.SameCoordinates,Original*%
%TF.FileFunction,Legend,Bot*%
%TF.FilePolarity,Positive*%
%FSLAX46Y46*%
G04 Gerber Fmt 4.6, Leading zero omitted, Abs format (unit mm)*
G04 Created by KiCad (PCBNEW 8.0.4) date 2024-09-04 11:51:27*
%MOMM*%
%LPD*%
G01*
G04 APERTURE LIST*
G04 Aperture macros list*
%AMRoundRect*
0 Rectangle with rounded corners*
0 $1 Rounding radius*
0 $2 $3 $4 $5 $6 $7 $8 $9 X,Y pos of 4 corners*
0 Add a 4 corners polygon primitive as box body*
4,1,4,$2,$3,$4,$5,$6,$7,$8,$9,$2,$3,0*
0 Add four circle primitives for the rounded corners*
1,1,$1+$1,$2,$3*
1,1,$1+$1,$4,$5*
1,1,$1+$1,$6,$7*
1,1,$1+$1,$8,$9*
0 Add four rect primitives between the rounded corners*
20,1,$1+$1,$2,$3,$4,$5,0*
20,1,$1+$1,$4,$5,$6,$7,0*
20,1,$1+$1,$6,$7,$8,$9,0*
20,1,$1+$1,$8,$9,$2,$3,0*%
G04 Aperture macros list end*
%ADD10C,0.100000*%
%ADD11C,2.000000*%
%ADD12C,2.700000*%
%ADD13RoundRect,0.250000X0.625000X-0.350000X0.625000X0.350000X-0.625000X0.350000X-0.625000X-0.350000X0*%
%ADD14O,1.750000X1.200000*%
%ADD15R,1.700000X1.700000*%
%ADD16O,1.700000X1.700000*%
%ADD17C,2.374900*%
%ADD18C,0.990600*%
%ADD19RoundRect,0.250000X-0.350000X-0.625000X0.350000X-0.625000X0.350000X0.625000X-0.350000X0.625000X0*%
%ADD20O,1.200000X1.750000*%
%ADD21RoundRect,0.250000X0.350000X0.625000X-0.350000X0.625000X-0.350000X-0.625000X0.350000X-0.625000X0*%
G04 APERTURE END LIST*
D10*
G36*
X76643314Y-16796131D02*
G01*
X76723020Y-16875837D01*
X76765788Y-17046907D01*
X76765788Y-17367930D01*
X76723020Y-17538999D01*
X76643312Y-17618708D01*
X76565890Y-17657419D01*
X76399021Y-17657419D01*
X76321598Y-17618707D01*
X76241889Y-17538998D01*
X76199122Y-17367930D01*
X76199122Y-17046907D01*
X76241889Y-16875837D01*
X76321595Y-16796131D01*
X76399021Y-16757419D01*
X76565890Y-16757419D01*
X76643314Y-16796131D01*
G37*
G36*
X81861027Y-17657419D02*
G01*
X81681045Y-17657419D01*
X81557085Y-17616099D01*
X81475929Y-17534942D01*
X81434394Y-17451872D01*
X81389599Y-17272692D01*
X81389599Y-17142145D01*
X81434394Y-16962965D01*
X81475930Y-16879893D01*
X81557083Y-16798739D01*
X81681045Y-16757419D01*
X81861027Y-16757419D01*
X81861027Y-17657419D01*
G37*
G36*
X84167376Y-17868530D02*
G01*
X74798165Y-17868530D01*
X74798165Y-16699505D01*
X74909276Y-16699505D01*
X74910006Y-16719000D01*
X75148101Y-17719000D01*
X75156235Y-17736732D01*
X75162604Y-17740651D01*
X75166351Y-17747123D01*
X75178296Y-17750308D01*
X75188827Y-17756789D01*
X75196102Y-17755056D01*
X75203326Y-17756983D01*
X75214024Y-17750789D01*
X75226054Y-17747925D01*
X75229973Y-17741555D01*
X75236445Y-17737809D01*
X75245053Y-17720302D01*
X75387217Y-17187186D01*
X75529381Y-17720302D01*
X75537989Y-17737810D01*
X75544461Y-17741557D01*
X75548380Y-17747925D01*
X75560406Y-17750788D01*
X75571108Y-17756984D01*
X75578333Y-17755057D01*
X75585607Y-17756789D01*
X75596136Y-17750308D01*
X75608083Y-17747123D01*
X75611829Y-17740651D01*
X75618199Y-17736732D01*
X75626333Y-17719000D01*
X75787820Y-17040752D01*
X76099122Y-17040752D01*
X76099122Y-17374085D01*
X76100317Y-17380094D01*
X76100615Y-17386212D01*
X76148234Y-17576688D01*
X76150547Y-17581584D01*
X76150547Y-17583695D01*
X76153951Y-17588790D01*
X76156567Y-17594327D01*
X76158375Y-17595412D01*
X76161385Y-17599916D01*
X76256624Y-17695155D01*
X76263283Y-17699605D01*
X76269618Y-17704521D01*
X76364856Y-17752140D01*
X76367271Y-17752801D01*
X76368083Y-17753613D01*
X76375944Y-17755176D01*
X76383672Y-17757293D01*
X76384760Y-17756930D01*
X76387217Y-17757419D01*
X76577693Y-17757419D01*
X76580149Y-17756930D01*
X76581238Y-17757293D01*
X76588965Y-17755176D01*
X76596827Y-17753613D01*
X76597638Y-17752801D01*
X76600054Y-17752140D01*
X76695291Y-17704522D01*
X76701618Y-17699611D01*
X76708287Y-17695155D01*
X76715157Y-17688285D01*
X77055309Y-17688285D01*
X77055309Y-17726553D01*
X77082369Y-17753613D01*
X77101503Y-17757419D01*
X77577693Y-17757419D01*
X77596827Y-17753613D01*
X77623887Y-17726553D01*
X77627693Y-17707419D01*
X77627693Y-17688285D01*
X77864833Y-17688285D01*
X77864833Y-17726553D01*
X77891893Y-17753613D01*
X77911027Y-17757419D01*
X78387217Y-17757419D01*
X78406351Y-17753613D01*
X78433411Y-17726553D01*
X78437217Y-17707419D01*
X78437217Y-16707419D01*
X78433411Y-16688285D01*
X78769595Y-16688285D01*
X78769595Y-16726553D01*
X78796655Y-16753613D01*
X78815789Y-16757419D01*
X79241979Y-16757419D01*
X79241979Y-17133609D01*
X78958646Y-17133609D01*
X78939512Y-17137415D01*
X78912452Y-17164475D01*
X78912452Y-17202743D01*
X78939512Y-17229803D01*
X78958646Y-17233609D01*
X79241979Y-17233609D01*
X79241979Y-17657419D01*
X78815789Y-17657419D01*
X78796655Y-17661225D01*
X78769595Y-17688285D01*
X78769595Y-17726553D01*
X78796655Y-17753613D01*
X78815789Y-17757419D01*
X79291979Y-17757419D01*
X79311113Y-17753613D01*
X79338173Y-17726553D01*
X79341979Y-17707419D01*
X79341979Y-16716077D01*
X79576068Y-16716077D01*
X79583130Y-16734263D01*
X79908646Y-17245788D01*
X79908646Y-17707419D01*
X79912452Y-17726553D01*
X79939512Y-17753613D01*
X79977780Y-17753613D01*
X80004840Y-17726553D01*
X80008646Y-17707419D01*
X80008646Y-17245788D01*
X80078517Y-17135990D01*
X81289599Y-17135990D01*
X81289599Y-17278847D01*
X81290794Y-17284856D01*
X81291092Y-17290974D01*
X81338711Y-17481450D01*
X81341050Y-17486402D01*
X81342497Y-17491684D01*
X81390115Y-17586921D01*
X81395026Y-17593249D01*
X81399481Y-17599916D01*
X81494720Y-17695155D01*
X81496801Y-17696545D01*
X81497315Y-17697573D01*
X81504280Y-17701543D01*
X81510941Y-17705994D01*
X81512089Y-17705994D01*
X81514264Y-17707234D01*
X81657120Y-17754853D01*
X81665070Y-17755855D01*
X81672932Y-17757419D01*
X81911027Y-17757419D01*
X81930161Y-17753613D01*
X81957221Y-17726553D01*
X81961027Y-17707419D01*
X81961027Y-16707419D01*
X82337218Y-16707419D01*
X82337218Y-17707419D01*
X82341024Y-17726553D01*
X82345878Y-17731407D01*
X82347686Y-17738034D01*
X82358930Y-17744459D01*
X82368084Y-17753613D01*
X82374950Y-17753613D01*
X82380912Y-17757020D01*
X82393405Y-17753613D01*
X82406352Y-17753613D01*
X82411206Y-17748758D01*
X82417833Y-17746951D01*
X82430630Y-17732226D01*
X82908646Y-16895697D01*
X82908646Y-17707419D01*
X82912452Y-17726553D01*
X82939512Y-17753613D01*
X82977780Y-17753613D01*
X83004840Y-17726553D01*
X83008646Y-17707419D01*
X83008646Y-17278847D01*
X83337218Y-17278847D01*
X83337218Y-17612180D01*
X83341024Y-17631314D01*
X83351862Y-17647535D01*
X83399481Y-17695155D01*
X83401563Y-17696546D01*
X83402077Y-17697573D01*
X83409035Y-17701539D01*
X83415702Y-17705994D01*
X83416851Y-17705994D01*
X83419026Y-17707234D01*
X83561882Y-17754853D01*
X83569832Y-17755855D01*
X83577694Y-17757419D01*
X83672932Y-17757419D01*
X83680794Y-17755855D01*
X83688743Y-17754853D01*
X83831600Y-17707234D01*
X83833775Y-17705994D01*
X83834924Y-17705994D01*
X83841594Y-17701536D01*
X83848548Y-17697573D01*
X83849060Y-17696547D01*
X83851145Y-17695155D01*
X83946383Y-17599916D01*
X83950836Y-17593250D01*
X83955748Y-17586922D01*
X84003367Y-17491684D01*
X84004813Y-17486402D01*
X84007153Y-17481450D01*
X84054772Y-17290974D01*
X84055069Y-17284856D01*
X84056265Y-17278847D01*
X84056265Y-17135990D01*
X84055069Y-17129980D01*
X84054772Y-17123863D01*
X84007153Y-16933387D01*
X84004813Y-16928434D01*
X84003367Y-16923153D01*
X83955748Y-16827915D01*
X83950832Y-16821580D01*
X83946382Y-16814921D01*
X83851144Y-16719683D01*
X83849061Y-16718291D01*
X83848548Y-16717265D01*
X83841587Y-16713297D01*
X83834923Y-16708844D01*
X83833775Y-16708844D01*
X83831600Y-16707604D01*
X83688743Y-16659985D01*
X83680794Y-16658982D01*
X83672932Y-16657419D01*
X83530075Y-16657419D01*
X83527618Y-16657907D01*
X83526530Y-16657545D01*
X83518802Y-16659661D01*
X83510941Y-16661225D01*
X83510129Y-16662036D01*
X83507714Y-16662698D01*
X83412476Y-16710317D01*
X83397064Y-16722278D01*
X83384963Y-16758583D01*
X83402077Y-16792811D01*
X83438382Y-16804912D01*
X83457198Y-16799759D01*
X83541879Y-16757419D01*
X83664819Y-16757419D01*
X83788780Y-16798739D01*
X83869933Y-16879892D01*
X83911470Y-16962966D01*
X83956265Y-17142145D01*
X83956265Y-17272692D01*
X83911470Y-17451870D01*
X83869933Y-17534944D01*
X83788779Y-17616098D01*
X83664819Y-17657419D01*
X83585807Y-17657419D01*
X83461847Y-17616099D01*
X83437218Y-17591469D01*
X83437218Y-17328847D01*
X83577694Y-17328847D01*
X83596828Y-17325041D01*
X83623888Y-17297981D01*
X83623888Y-17259713D01*
X83596828Y-17232653D01*
X83577694Y-17228847D01*
X83387218Y-17228847D01*
X83368084Y-17232653D01*
X83341024Y-17259713D01*
X83337218Y-17278847D01*
X83008646Y-17278847D01*
X83008646Y-16707419D01*
X83004840Y-16688285D01*
X82999985Y-16683430D01*
X82998178Y-16676804D01*
X82986933Y-16670378D01*
X82977780Y-16661225D01*
X82970914Y-16661225D01*
X82964952Y-16657818D01*
X82952460Y-16661225D01*
X82939512Y-16661225D01*
X82934656Y-16666080D01*
X82928032Y-16667887D01*
X82915234Y-16682612D01*
X82437218Y-17519140D01*
X82437218Y-16707419D01*
X82433412Y-16688285D01*
X82406352Y-16661225D01*
X82368084Y-16661225D01*
X82341024Y-16688285D01*
X82337218Y-16707419D01*
X81961027Y-16707419D01*
X81957221Y-16688285D01*
X81930161Y-16661225D01*
X81911027Y-16657419D01*
X81672932Y-16657419D01*
X81665070Y-16658982D01*
X81657120Y-16659985D01*
X81514264Y-16707604D01*
X81512089Y-16708844D01*
X81510941Y-16708844D01*
X81504280Y-16713294D01*
X81497315Y-16717265D01*
X81496801Y-16718292D01*
X81494720Y-16719683D01*
X81399482Y-16814921D01*
X81395030Y-16821582D01*
X81390115Y-16827916D01*
X81342497Y-16923153D01*
X81341050Y-16928434D01*
X81338711Y-16933387D01*
X81291092Y-17123863D01*
X81290794Y-17129980D01*
X81289599Y-17135990D01*
X80078517Y-17135990D01*
X80334162Y-16734263D01*
X80341224Y-16716077D01*
X80332922Y-16678719D01*
X80300637Y-16658174D01*
X80263280Y-16666476D01*
X80249796Y-16680575D01*
X79958646Y-17138096D01*
X79667496Y-16680575D01*
X79654013Y-16666476D01*
X79616655Y-16658174D01*
X79584370Y-16678719D01*
X79576068Y-16716077D01*
X79341979Y-16716077D01*
X79341979Y-16707419D01*
X79338173Y-16688285D01*
X79311113Y-16661225D01*
X79291979Y-16657419D01*
X78815789Y-16657419D01*
X78796655Y-16661225D01*
X78769595Y-16688285D01*
X78433411Y-16688285D01*
X78406351Y-16661225D01*
X78368083Y-16661225D01*
X78341023Y-16688285D01*
X78337217Y-16707419D01*
X78337217Y-17657419D01*
X77911027Y-17657419D01*
X77891893Y-17661225D01*
X77864833Y-17688285D01*
X77627693Y-17688285D01*
X77627693Y-16707419D01*
X77623887Y-16688285D01*
X77596827Y-16661225D01*
X77558559Y-16661225D01*
X77531499Y-16688285D01*
X77527693Y-16707419D01*
X77527693Y-17657419D01*
X77101503Y-17657419D01*
X77082369Y-17661225D01*
X77055309Y-17688285D01*
X76715157Y-17688285D01*
X76803525Y-17599916D01*
X76806534Y-17595412D01*
X76808343Y-17594327D01*
X76810958Y-17588790D01*
X76814363Y-17583695D01*
X76814363Y-17581584D01*
X76816676Y-17576688D01*
X76864295Y-17386212D01*
X76864592Y-17380094D01*
X76865788Y-17374085D01*
X76865788Y-17040752D01*
X76864592Y-17034742D01*
X76864295Y-17028625D01*
X76816676Y-16838149D01*
X76814363Y-16833252D01*
X76814363Y-16831142D01*
X76810959Y-16826048D01*
X76808343Y-16820510D01*
X76806532Y-16819423D01*
X76803524Y-16814921D01*
X76708286Y-16719683D01*
X76701624Y-16715231D01*
X76695291Y-16710316D01*
X76600054Y-16662698D01*
X76597638Y-16662036D01*
X76596827Y-16661225D01*
X76588965Y-16659661D01*
X76581238Y-16657545D01*
X76580149Y-16657907D01*
X76577693Y-16657419D01*
X76387217Y-16657419D01*
X76384760Y-16657907D01*
X76383672Y-16657545D01*
X76375944Y-16659661D01*
X76368083Y-16661225D01*
X76367271Y-16662036D01*
X76364856Y-16662698D01*
X76269618Y-16710317D01*
X76263283Y-16715232D01*
X76256624Y-16719683D01*
X76161386Y-16814921D01*
X76158377Y-16819423D01*
X76156567Y-16820510D01*
X76153950Y-16826048D01*
X76150547Y-16831142D01*
X76150547Y-16833252D01*
X76148234Y-16838149D01*
X76100615Y-17028625D01*
X76100317Y-17034742D01*
X76099122Y-17040752D01*
X75787820Y-17040752D01*
X75864428Y-16719000D01*
X75865158Y-16699505D01*
X75845101Y-16666913D01*
X75807874Y-16658049D01*
X75775282Y-16678106D01*
X75767148Y-16695838D01*
X75574948Y-17503075D01*
X75435529Y-16980250D01*
X75426921Y-16962743D01*
X75421022Y-16959327D01*
X75417607Y-16953429D01*
X75405047Y-16950079D01*
X75393802Y-16943569D01*
X75387218Y-16945324D01*
X75380632Y-16943568D01*
X75369382Y-16950080D01*
X75356827Y-16953429D01*
X75353412Y-16959326D01*
X75347513Y-16962742D01*
X75338905Y-16980250D01*
X75199485Y-17503075D01*
X75007286Y-16695838D01*
X74999152Y-16678106D01*
X74966560Y-16658049D01*
X74929333Y-16666913D01*
X74909276Y-16699505D01*
X74798165Y-16699505D01*
X74798165Y-16546308D01*
X84167376Y-16546308D01*
X84167376Y-17868530D01*
G37*
G36*
X9657419Y-7831485D02*
G01*
X9616099Y-7955444D01*
X9534942Y-8036600D01*
X9451872Y-8078136D01*
X9272692Y-8122931D01*
X9142145Y-8122931D01*
X8962966Y-8078136D01*
X8879892Y-8036599D01*
X8798739Y-7955446D01*
X8757419Y-7831484D01*
X8757419Y-7651503D01*
X9657419Y-7651503D01*
X9657419Y-7831485D01*
G37*
G36*
X9868530Y-8334042D02*
G01*
X8546308Y-8334042D01*
X8546308Y-7601503D01*
X8657419Y-7601503D01*
X8657419Y-7839598D01*
X8658982Y-7847460D01*
X8659985Y-7855409D01*
X8707604Y-7998266D01*
X8708844Y-8000441D01*
X8708844Y-8001589D01*
X8713297Y-8008253D01*
X8717265Y-8015214D01*
X8718291Y-8015727D01*
X8719683Y-8017810D01*
X8814921Y-8113048D01*
X8821580Y-8117498D01*
X8827915Y-8122414D01*
X8923153Y-8170033D01*
X8928434Y-8171479D01*
X8933387Y-8173819D01*
X9123863Y-8221438D01*
X9129980Y-8221735D01*
X9135990Y-8222931D01*
X9278847Y-8222931D01*
X9284856Y-8221735D01*
X9290974Y-8221438D01*
X9481450Y-8173819D01*
X9486402Y-8171479D01*
X9491684Y-8170033D01*
X9586921Y-8122415D01*
X9593249Y-8117503D01*
X9599916Y-8113049D01*
X9695155Y-8017810D01*
X9696545Y-8015728D01*
X9697573Y-8015215D01*
X9701543Y-8008249D01*
X9705994Y-8001589D01*
X9705994Y-8000441D01*
X9707234Y-7998266D01*
X9754853Y-7855410D01*
X9755855Y-7847459D01*
X9757419Y-7839598D01*
X9757419Y-7601503D01*
X9753613Y-7582369D01*
X9726553Y-7555309D01*
X9707419Y-7551503D01*
X8707419Y-7551503D01*
X8688285Y-7555309D01*
X8661225Y-7582369D01*
X8657419Y-7601503D01*
X8546308Y-7601503D01*
X8546308Y-6547578D01*
X8657818Y-6547578D01*
X8661225Y-6560070D01*
X8661225Y-6573018D01*
X8666079Y-6577872D01*
X8667887Y-6584499D01*
X8682612Y-6597296D01*
X9519141Y-7075312D01*
X8707419Y-7075312D01*
X8688285Y-7079118D01*
X8661225Y-7106178D01*
X8661225Y-7144446D01*
X8688285Y-7171506D01*
X8707419Y-7175312D01*
X9707419Y-7175312D01*
X9726553Y-7171506D01*
X9731407Y-7166651D01*
X9738034Y-7164844D01*
X9744459Y-7153599D01*
X9753613Y-7144446D01*
X9753613Y-7137580D01*
X9757020Y-7131618D01*
X9753613Y-7119125D01*
X9753613Y-7106178D01*
X9748757Y-7101322D01*
X9746951Y-7094698D01*
X9732226Y-7081900D01*
X8895697Y-6603884D01*
X9707419Y-6603884D01*
X9726553Y-6600078D01*
X9753613Y-6573018D01*
X9753613Y-6534750D01*
X9726553Y-6507690D01*
X9707419Y-6503884D01*
X8707419Y-6503884D01*
X8688285Y-6507690D01*
X8683430Y-6512544D01*
X8676804Y-6514352D01*
X8670378Y-6525596D01*
X8661225Y-6534750D01*
X8661225Y-6541615D01*
X8657818Y-6547578D01*
X8546308Y-6547578D01*
X8546308Y-5839598D01*
X8657419Y-5839598D01*
X8657419Y-5982455D01*
X8657907Y-5984911D01*
X8657545Y-5986000D01*
X8659661Y-5993727D01*
X8661225Y-6001589D01*
X8662036Y-6002400D01*
X8662698Y-6004816D01*
X8710316Y-6100053D01*
X8722278Y-6115465D01*
X8758582Y-6127567D01*
X8792810Y-6110453D01*
X8804912Y-6074148D01*
X8799759Y-6055332D01*
X8757419Y-5970652D01*
X8757419Y-5847711D01*
X8798739Y-5723749D01*
X8879892Y-5642596D01*
X8962966Y-5601059D01*
X9142145Y-5556265D01*
X9272692Y-5556265D01*
X9451872Y-5601060D01*
X9534942Y-5642595D01*
X9616099Y-5723751D01*
X9657419Y-5847711D01*
X9657419Y-5926723D01*
X9616099Y-6050682D01*
X9591469Y-6075312D01*
X9328847Y-6075312D01*
X9328847Y-5934836D01*
X9325041Y-5915702D01*
X9297981Y-5888642D01*
X9259713Y-5888642D01*
X9232653Y-5915702D01*
X9228847Y-5934836D01*
X9228847Y-6125312D01*
X9232653Y-6144446D01*
X9259713Y-6171506D01*
X9278847Y-6175312D01*
X9612180Y-6175312D01*
X9631314Y-6171506D01*
X9647535Y-6160668D01*
X9695155Y-6113049D01*
X9696546Y-6110966D01*
X9697573Y-6110453D01*
X9701539Y-6103494D01*
X9705994Y-6096828D01*
X9705994Y-6095679D01*
X9707234Y-6093504D01*
X9754853Y-5950648D01*
X9755855Y-5942697D01*
X9757419Y-5934836D01*
X9757419Y-5839598D01*
X9755855Y-5831736D01*
X9754853Y-5823786D01*
X9707234Y-5680930D01*
X9705994Y-5678754D01*
X9705994Y-5677607D01*
X9701543Y-5670946D01*
X9697573Y-5663981D01*
X9696545Y-5663467D01*
X9695155Y-5661386D01*
X9599916Y-5566147D01*
X9593249Y-5561692D01*
X9586921Y-5556781D01*
X9491684Y-5509163D01*
X9486402Y-5507716D01*
X9481450Y-5505377D01*
X9290974Y-5457758D01*
X9284856Y-5457460D01*
X9278847Y-5456265D01*
X9135990Y-5456265D01*
X9129980Y-5457460D01*
X9123863Y-5457758D01*
X8933387Y-5505377D01*
X8928434Y-5507716D01*
X8923153Y-5509163D01*
X8827915Y-5556782D01*
X8821580Y-5561697D01*
X8814921Y-5566148D01*
X8719683Y-5661386D01*
X8718291Y-5663468D01*
X8717265Y-5663982D01*
X8713297Y-5670942D01*
X8708844Y-5677607D01*
X8708844Y-5678754D01*
X8707604Y-5680930D01*
X8659985Y-5823787D01*
X8658982Y-5831735D01*
X8657419Y-5839598D01*
X8546308Y-5839598D01*
X8546308Y-5345154D01*
X9868530Y-5345154D01*
X9868530Y-8334042D01*
G37*
G36*
X5657419Y-7831485D02*
G01*
X5616099Y-7955444D01*
X5534942Y-8036600D01*
X5451872Y-8078136D01*
X5272692Y-8122931D01*
X5142145Y-8122931D01*
X4962966Y-8078136D01*
X4879892Y-8036599D01*
X4798739Y-7955446D01*
X4757419Y-7831484D01*
X4757419Y-7651503D01*
X5657419Y-7651503D01*
X5657419Y-7831485D01*
G37*
G36*
X5868530Y-8334042D02*
G01*
X4546308Y-8334042D01*
X4546308Y-7601503D01*
X4657419Y-7601503D01*
X4657419Y-7839598D01*
X4658982Y-7847460D01*
X4659985Y-7855409D01*
X4707604Y-7998266D01*
X4708844Y-8000441D01*
X4708844Y-8001589D01*
X4713297Y-8008253D01*
X4717265Y-8015214D01*
X4718291Y-8015727D01*
X4719683Y-8017810D01*
X4814921Y-8113048D01*
X4821580Y-8117498D01*
X4827915Y-8122414D01*
X4923153Y-8170033D01*
X4928434Y-8171479D01*
X4933387Y-8173819D01*
X5123863Y-8221438D01*
X5129980Y-8221735D01*
X5135990Y-8222931D01*
X5278847Y-8222931D01*
X5284856Y-8221735D01*
X5290974Y-8221438D01*
X5481450Y-8173819D01*
X5486402Y-8171479D01*
X5491684Y-8170033D01*
X5586921Y-8122415D01*
X5593249Y-8117503D01*
X5599916Y-8113049D01*
X5695155Y-8017810D01*
X5696545Y-8015728D01*
X5697573Y-8015215D01*
X5701543Y-8008249D01*
X5705994Y-8001589D01*
X5705994Y-8000441D01*
X5707234Y-7998266D01*
X5754853Y-7855410D01*
X5755855Y-7847459D01*
X5757419Y-7839598D01*
X5757419Y-7601503D01*
X5753613Y-7582369D01*
X5726553Y-7555309D01*
X5707419Y-7551503D01*
X4707419Y-7551503D01*
X4688285Y-7555309D01*
X4661225Y-7582369D01*
X4657419Y-7601503D01*
X4546308Y-7601503D01*
X4546308Y-6547578D01*
X4657818Y-6547578D01*
X4661225Y-6560070D01*
X4661225Y-6573018D01*
X4666079Y-6577872D01*
X4667887Y-6584499D01*
X4682612Y-6597296D01*
X5519141Y-7075312D01*
X4707419Y-7075312D01*
X4688285Y-7079118D01*
X4661225Y-7106178D01*
X4661225Y-7144446D01*
X4688285Y-7171506D01*
X4707419Y-7175312D01*
X5707419Y-7175312D01*
X5726553Y-7171506D01*
X5731407Y-7166651D01*
X5738034Y-7164844D01*
X5744459Y-7153599D01*
X5753613Y-7144446D01*
X5753613Y-7137580D01*
X5757020Y-7131618D01*
X5753613Y-7119125D01*
X5753613Y-7106178D01*
X5748757Y-7101322D01*
X5746951Y-7094698D01*
X5732226Y-7081900D01*
X4895697Y-6603884D01*
X5707419Y-6603884D01*
X5726553Y-6600078D01*
X5753613Y-6573018D01*
X5753613Y-6534750D01*
X5726553Y-6507690D01*
X5707419Y-6503884D01*
X4707419Y-6503884D01*
X4688285Y-6507690D01*
X4683430Y-6512544D01*
X4676804Y-6514352D01*
X4670378Y-6525596D01*
X4661225Y-6534750D01*
X4661225Y-6541615D01*
X4657818Y-6547578D01*
X4546308Y-6547578D01*
X4546308Y-5839598D01*
X4657419Y-5839598D01*
X4657419Y-5982455D01*
X4657907Y-5984911D01*
X4657545Y-5986000D01*
X4659661Y-5993727D01*
X4661225Y-6001589D01*
X4662036Y-6002400D01*
X4662698Y-6004816D01*
X4710316Y-6100053D01*
X4722278Y-6115465D01*
X4758582Y-6127567D01*
X4792810Y-6110453D01*
X4804912Y-6074148D01*
X4799759Y-6055332D01*
X4757419Y-5970652D01*
X4757419Y-5847711D01*
X4798739Y-5723749D01*
X4879892Y-5642596D01*
X4962966Y-5601059D01*
X5142145Y-5556265D01*
X5272692Y-5556265D01*
X5451872Y-5601060D01*
X5534942Y-5642595D01*
X5616099Y-5723751D01*
X5657419Y-5847711D01*
X5657419Y-5926723D01*
X5616099Y-6050682D01*
X5591469Y-6075312D01*
X5328847Y-6075312D01*
X5328847Y-5934836D01*
X5325041Y-5915702D01*
X5297981Y-5888642D01*
X5259713Y-5888642D01*
X5232653Y-5915702D01*
X5228847Y-5934836D01*
X5228847Y-6125312D01*
X5232653Y-6144446D01*
X5259713Y-6171506D01*
X5278847Y-6175312D01*
X5612180Y-6175312D01*
X5631314Y-6171506D01*
X5647535Y-6160668D01*
X5695155Y-6113049D01*
X5696546Y-6110966D01*
X5697573Y-6110453D01*
X5701539Y-6103494D01*
X5705994Y-6096828D01*
X5705994Y-6095679D01*
X5707234Y-6093504D01*
X5754853Y-5950648D01*
X5755855Y-5942697D01*
X5757419Y-5934836D01*
X5757419Y-5839598D01*
X5755855Y-5831736D01*
X5754853Y-5823786D01*
X5707234Y-5680930D01*
X5705994Y-5678754D01*
X5705994Y-5677607D01*
X5701543Y-5670946D01*
X5697573Y-5663981D01*
X5696545Y-5663467D01*
X5695155Y-5661386D01*
X5599916Y-5566147D01*
X5593249Y-5561692D01*
X5586921Y-5556781D01*
X5491684Y-5509163D01*
X5486402Y-5507716D01*
X5481450Y-5505377D01*
X5290974Y-5457758D01*
X5284856Y-5457460D01*
X5278847Y-5456265D01*
X5135990Y-5456265D01*
X5129980Y-5457460D01*
X5123863Y-5457758D01*
X4933387Y-5505377D01*
X4928434Y-5507716D01*
X4923153Y-5509163D01*
X4827915Y-5556782D01*
X4821580Y-5561697D01*
X4814921Y-5566148D01*
X4719683Y-5661386D01*
X4718291Y-5663468D01*
X4717265Y-5663982D01*
X4713297Y-5670942D01*
X4708844Y-5677607D01*
X4708844Y-5678754D01*
X4707604Y-5680930D01*
X4659985Y-5823787D01*
X4658982Y-5831735D01*
X4657419Y-5839598D01*
X4546308Y-5839598D01*
X4546308Y-5345154D01*
X5868530Y-5345154D01*
X5868530Y-8334042D01*
G37*
X35119048Y-17957419D02*
X35119048Y-18671704D01*
X35119048Y-18671704D02*
X35166667Y-18814561D01*
X35166667Y-18814561D02*
X35261905Y-18909800D01*
X35261905Y-18909800D02*
X35404762Y-18957419D01*
X35404762Y-18957419D02*
X35500000Y-18957419D01*
X34166667Y-18957419D02*
X34642857Y-18957419D01*
X34642857Y-18957419D02*
X34642857Y-17957419D01*
X33261905Y-18862180D02*
X33309524Y-18909800D01*
X33309524Y-18909800D02*
X33452381Y-18957419D01*
X33452381Y-18957419D02*
X33547619Y-18957419D01*
X33547619Y-18957419D02*
X33690476Y-18909800D01*
X33690476Y-18909800D02*
X33785714Y-18814561D01*
X33785714Y-18814561D02*
X33833333Y-18719323D01*
X33833333Y-18719323D02*
X33880952Y-18528847D01*
X33880952Y-18528847D02*
X33880952Y-18385990D01*
X33880952Y-18385990D02*
X33833333Y-18195514D01*
X33833333Y-18195514D02*
X33785714Y-18100276D01*
X33785714Y-18100276D02*
X33690476Y-18005038D01*
X33690476Y-18005038D02*
X33547619Y-17957419D01*
X33547619Y-17957419D02*
X33452381Y-17957419D01*
X33452381Y-17957419D02*
X33309524Y-18005038D01*
X33309524Y-18005038D02*
X33261905Y-18052657D01*
X32547619Y-17957419D02*
X32547619Y-18671704D01*
X32547619Y-18671704D02*
X32595238Y-18814561D01*
X32595238Y-18814561D02*
X32690476Y-18909800D01*
X32690476Y-18909800D02*
X32833333Y-18957419D01*
X32833333Y-18957419D02*
X32928571Y-18957419D01*
X31595238Y-18957419D02*
X32071428Y-18957419D01*
X32071428Y-18957419D02*
X32071428Y-17957419D01*
X30690476Y-18862180D02*
X30738095Y-18909800D01*
X30738095Y-18909800D02*
X30880952Y-18957419D01*
X30880952Y-18957419D02*
X30976190Y-18957419D01*
X30976190Y-18957419D02*
X31119047Y-18909800D01*
X31119047Y-18909800D02*
X31214285Y-18814561D01*
X31214285Y-18814561D02*
X31261904Y-18719323D01*
X31261904Y-18719323D02*
X31309523Y-18528847D01*
X31309523Y-18528847D02*
X31309523Y-18385990D01*
X31309523Y-18385990D02*
X31261904Y-18195514D01*
X31261904Y-18195514D02*
X31214285Y-18100276D01*
X31214285Y-18100276D02*
X31119047Y-18005038D01*
X31119047Y-18005038D02*
X30976190Y-17957419D01*
X30976190Y-17957419D02*
X30880952Y-17957419D01*
X30880952Y-17957419D02*
X30738095Y-18005038D01*
X30738095Y-18005038D02*
X30690476Y-18052657D01*
X29976190Y-17957419D02*
X29976190Y-18671704D01*
X29976190Y-18671704D02*
X30023809Y-18814561D01*
X30023809Y-18814561D02*
X30119047Y-18909800D01*
X30119047Y-18909800D02*
X30261904Y-18957419D01*
X30261904Y-18957419D02*
X30357142Y-18957419D01*
X29023809Y-18957419D02*
X29499999Y-18957419D01*
X29499999Y-18957419D02*
X29499999Y-17957419D01*
X28119047Y-18862180D02*
X28166666Y-18909800D01*
X28166666Y-18909800D02*
X28309523Y-18957419D01*
X28309523Y-18957419D02*
X28404761Y-18957419D01*
X28404761Y-18957419D02*
X28547618Y-18909800D01*
X28547618Y-18909800D02*
X28642856Y-18814561D01*
X28642856Y-18814561D02*
X28690475Y-18719323D01*
X28690475Y-18719323D02*
X28738094Y-18528847D01*
X28738094Y-18528847D02*
X28738094Y-18385990D01*
X28738094Y-18385990D02*
X28690475Y-18195514D01*
X28690475Y-18195514D02*
X28642856Y-18100276D01*
X28642856Y-18100276D02*
X28547618Y-18005038D01*
X28547618Y-18005038D02*
X28404761Y-17957419D01*
X28404761Y-17957419D02*
X28309523Y-17957419D01*
X28309523Y-17957419D02*
X28166666Y-18005038D01*
X28166666Y-18005038D02*
X28119047Y-18052657D01*
X27404761Y-17957419D02*
X27404761Y-18671704D01*
X27404761Y-18671704D02*
X27452380Y-18814561D01*
X27452380Y-18814561D02*
X27547618Y-18909800D01*
X27547618Y-18909800D02*
X27690475Y-18957419D01*
X27690475Y-18957419D02*
X27785713Y-18957419D01*
X26452380Y-18957419D02*
X26928570Y-18957419D01*
X26928570Y-18957419D02*
X26928570Y-17957419D01*
X25547618Y-18862180D02*
X25595237Y-18909800D01*
X25595237Y-18909800D02*
X25738094Y-18957419D01*
X25738094Y-18957419D02*
X25833332Y-18957419D01*
X25833332Y-18957419D02*
X25976189Y-18909800D01*
X25976189Y-18909800D02*
X26071427Y-18814561D01*
X26071427Y-18814561D02*
X26119046Y-18719323D01*
X26119046Y-18719323D02*
X26166665Y-18528847D01*
X26166665Y-18528847D02*
X26166665Y-18385990D01*
X26166665Y-18385990D02*
X26119046Y-18195514D01*
X26119046Y-18195514D02*
X26071427Y-18100276D01*
X26071427Y-18100276D02*
X25976189Y-18005038D01*
X25976189Y-18005038D02*
X25833332Y-17957419D01*
X25833332Y-17957419D02*
X25738094Y-17957419D01*
X25738094Y-17957419D02*
X25595237Y-18005038D01*
X25595237Y-18005038D02*
X25547618Y-18052657D01*
G36*
X3371704Y-22674362D02*
G01*
X2865532Y-22505639D01*
X3371704Y-22336915D01*
X3371704Y-22674362D01*
G37*
G36*
X3868530Y-22999957D02*
G01*
X2546434Y-22999957D01*
X2546434Y-22502095D01*
X2657545Y-22502095D01*
X2658726Y-22505639D01*
X2657545Y-22509183D01*
X2664632Y-22523359D01*
X2669646Y-22538399D01*
X2672988Y-22540069D01*
X2674659Y-22543412D01*
X2691608Y-22553073D01*
X3691607Y-22886406D01*
X3710963Y-22888846D01*
X3745191Y-22871732D01*
X3757293Y-22835428D01*
X3740178Y-22801199D01*
X3723230Y-22791538D01*
X3471704Y-22707696D01*
X3471704Y-22303581D01*
X3723230Y-22219740D01*
X3740178Y-22210079D01*
X3757293Y-22175850D01*
X3745191Y-22139546D01*
X3710963Y-22122432D01*
X3691607Y-22124872D01*
X2691608Y-22458205D01*
X2674659Y-22467866D01*
X2672988Y-22471208D01*
X2669646Y-22472879D01*
X2664632Y-22487918D01*
X2657545Y-22502095D01*
X2546434Y-22502095D01*
X2546434Y-21610580D01*
X2658370Y-21610580D01*
X2661225Y-21614862D01*
X2661225Y-21620011D01*
X2671521Y-21630307D01*
X2679597Y-21642421D01*
X2684644Y-21643430D01*
X2688285Y-21647071D01*
X2707419Y-21650877D01*
X3657419Y-21650877D01*
X3657419Y-21886591D01*
X3661225Y-21905725D01*
X3688285Y-21932785D01*
X3726553Y-21932785D01*
X3753613Y-21905725D01*
X3757419Y-21886591D01*
X3757419Y-21315163D01*
X3753613Y-21296029D01*
X3726553Y-21268969D01*
X3688285Y-21268969D01*
X3661225Y-21296029D01*
X3657419Y-21315163D01*
X3657419Y-21550877D01*
X2872557Y-21550877D01*
X2878011Y-21547241D01*
X2881515Y-21543744D01*
X2885631Y-21540994D01*
X2980869Y-21445756D01*
X2985319Y-21439096D01*
X2990235Y-21432762D01*
X3037854Y-21337524D01*
X3043007Y-21318708D01*
X3030905Y-21282403D01*
X2996677Y-21265289D01*
X2960373Y-21277391D01*
X2948411Y-21292803D01*
X2904420Y-21380784D01*
X2818425Y-21466780D01*
X2679684Y-21559274D01*
X2665875Y-21573055D01*
X2664865Y-21578102D01*
X2661225Y-21581743D01*
X2661225Y-21596305D01*
X2658370Y-21610580D01*
X2546434Y-21610580D01*
X2546434Y-21154178D01*
X3868530Y-21154178D01*
X3868530Y-22999957D01*
G37*
G36*
X7657419Y-22541454D02*
G01*
X7618708Y-22618876D01*
X7582561Y-22655022D01*
X7505139Y-22693734D01*
X7385889Y-22693734D01*
X7308465Y-22655022D01*
X7274929Y-22621487D01*
X7233609Y-22497525D01*
X7233609Y-22222306D01*
X7657419Y-22222306D01*
X7657419Y-22541454D01*
G37*
G36*
X7133609Y-22493835D02*
G01*
X7094897Y-22571258D01*
X7058753Y-22607403D01*
X6981330Y-22646115D01*
X6909699Y-22646115D01*
X6832275Y-22607403D01*
X6796130Y-22571259D01*
X6757419Y-22493836D01*
X6757419Y-22222306D01*
X7133609Y-22222306D01*
X7133609Y-22493835D01*
G37*
G36*
X7868530Y-22904845D02*
G01*
X6546308Y-22904845D01*
X6546308Y-22172306D01*
X6657419Y-22172306D01*
X6657419Y-22505639D01*
X6657907Y-22508095D01*
X6657545Y-22509184D01*
X6659661Y-22516911D01*
X6661225Y-22524773D01*
X6662036Y-22525584D01*
X6662698Y-22528000D01*
X6710316Y-22623237D01*
X6715231Y-22629570D01*
X6719683Y-22636232D01*
X6767301Y-22683851D01*
X6773967Y-22688305D01*
X6780296Y-22693217D01*
X6875534Y-22740836D01*
X6877949Y-22741497D01*
X6878761Y-22742309D01*
X6886622Y-22743872D01*
X6894350Y-22745989D01*
X6895438Y-22745626D01*
X6897895Y-22746115D01*
X6993133Y-22746115D01*
X6995589Y-22745626D01*
X6996678Y-22745989D01*
X7004405Y-22743872D01*
X7012267Y-22742309D01*
X7013078Y-22741497D01*
X7015494Y-22740836D01*
X7110731Y-22693218D01*
X7117064Y-22688302D01*
X7123726Y-22683851D01*
X7171345Y-22636233D01*
X7173407Y-22633146D01*
X7183794Y-22664307D01*
X7185034Y-22666482D01*
X7185034Y-22667630D01*
X7189487Y-22674294D01*
X7193455Y-22681255D01*
X7194481Y-22681768D01*
X7195873Y-22683851D01*
X7243491Y-22731470D01*
X7250157Y-22735924D01*
X7256486Y-22740836D01*
X7351724Y-22788455D01*
X7354139Y-22789116D01*
X7354951Y-22789928D01*
X7362812Y-22791491D01*
X7370540Y-22793608D01*
X7371628Y-22793245D01*
X7374085Y-22793734D01*
X7516942Y-22793734D01*
X7519398Y-22793245D01*
X7520487Y-22793608D01*
X7528214Y-22791491D01*
X7536076Y-22789928D01*
X7536887Y-22789116D01*
X7539303Y-22788455D01*
X7634540Y-22740837D01*
X7640868Y-22735925D01*
X7647535Y-22731471D01*
X7695155Y-22683852D01*
X7699609Y-22677185D01*
X7704521Y-22670857D01*
X7752140Y-22575619D01*
X7752801Y-22573203D01*
X7753613Y-22572392D01*
X7755176Y-22564530D01*
X7757293Y-22556803D01*
X7756930Y-22555714D01*
X7757419Y-22553258D01*
X7757419Y-22172306D01*
X7753613Y-22153172D01*
X7726553Y-22126112D01*
X7707419Y-22122306D01*
X6707419Y-22122306D01*
X6688285Y-22126112D01*
X6661225Y-22153172D01*
X6657419Y-22172306D01*
X6546308Y-22172306D01*
X6546308Y-21467723D01*
X6658370Y-21467723D01*
X6661225Y-21472005D01*
X6661225Y-21477154D01*
X6671521Y-21487450D01*
X6679597Y-21499564D01*
X6684644Y-21500573D01*
X6688285Y-21504214D01*
X6707419Y-21508020D01*
X7657419Y-21508020D01*
X7657419Y-21743734D01*
X7661225Y-21762868D01*
X7688285Y-21789928D01*
X7726553Y-21789928D01*
X7753613Y-21762868D01*
X7757419Y-21743734D01*
X7757419Y-21172306D01*
X7753613Y-21153172D01*
X7726553Y-21126112D01*
X7688285Y-21126112D01*
X7661225Y-21153172D01*
X7657419Y-21172306D01*
X7657419Y-21408020D01*
X6872557Y-21408020D01*
X6878011Y-21404384D01*
X6881515Y-21400887D01*
X6885631Y-21398137D01*
X6980869Y-21302899D01*
X6985319Y-21296239D01*
X6990235Y-21289905D01*
X7037854Y-21194667D01*
X7043007Y-21175851D01*
X7030905Y-21139546D01*
X6996677Y-21122432D01*
X6960373Y-21134534D01*
X6948411Y-21149946D01*
X6904420Y-21237927D01*
X6818425Y-21323923D01*
X6679684Y-21416417D01*
X6665875Y-21430198D01*
X6664865Y-21435245D01*
X6661225Y-21438886D01*
X6661225Y-21453448D01*
X6658370Y-21467723D01*
X6546308Y-21467723D01*
X6546308Y-21011321D01*
X7868530Y-21011321D01*
X7868530Y-22904845D01*
G37*
G36*
X7657419Y-6875413D02*
G01*
X7618708Y-6952835D01*
X7582561Y-6988981D01*
X7505139Y-7027693D01*
X7385889Y-7027693D01*
X7308465Y-6988981D01*
X7274929Y-6955446D01*
X7233609Y-6831484D01*
X7233609Y-6556265D01*
X7657419Y-6556265D01*
X7657419Y-6875413D01*
G37*
G36*
X7133609Y-6827794D02*
G01*
X7094897Y-6905217D01*
X7058753Y-6941362D01*
X6981330Y-6980074D01*
X6909699Y-6980074D01*
X6832275Y-6941362D01*
X6796130Y-6905218D01*
X6757419Y-6827795D01*
X6757419Y-6556265D01*
X7133609Y-6556265D01*
X7133609Y-6827794D01*
G37*
G36*
X7868530Y-7238804D02*
G01*
X6546308Y-7238804D01*
X6546308Y-6506265D01*
X6657419Y-6506265D01*
X6657419Y-6839598D01*
X6657907Y-6842054D01*
X6657545Y-6843143D01*
X6659661Y-6850870D01*
X6661225Y-6858732D01*
X6662036Y-6859543D01*
X6662698Y-6861959D01*
X6710316Y-6957196D01*
X6715231Y-6963529D01*
X6719683Y-6970191D01*
X6767301Y-7017810D01*
X6773967Y-7022264D01*
X6780296Y-7027176D01*
X6875534Y-7074795D01*
X6877949Y-7075456D01*
X6878761Y-7076268D01*
X6886622Y-7077831D01*
X6894350Y-7079948D01*
X6895438Y-7079585D01*
X6897895Y-7080074D01*
X6993133Y-7080074D01*
X6995589Y-7079585D01*
X6996678Y-7079948D01*
X7004405Y-7077831D01*
X7012267Y-7076268D01*
X7013078Y-7075456D01*
X7015494Y-7074795D01*
X7110731Y-7027177D01*
X7117064Y-7022261D01*
X7123726Y-7017810D01*
X7171345Y-6970192D01*
X7173407Y-6967105D01*
X7183794Y-6998266D01*
X7185034Y-7000441D01*
X7185034Y-7001589D01*
X7189487Y-7008253D01*
X7193455Y-7015214D01*
X7194481Y-7015727D01*
X7195873Y-7017810D01*
X7243491Y-7065429D01*
X7250157Y-7069883D01*
X7256486Y-7074795D01*
X7351724Y-7122414D01*
X7354139Y-7123075D01*
X7354951Y-7123887D01*
X7362812Y-7125450D01*
X7370540Y-7127567D01*
X7371628Y-7127204D01*
X7374085Y-7127693D01*
X7516942Y-7127693D01*
X7519398Y-7127204D01*
X7520487Y-7127567D01*
X7528214Y-7125450D01*
X7536076Y-7123887D01*
X7536887Y-7123075D01*
X7539303Y-7122414D01*
X7634540Y-7074796D01*
X7640868Y-7069884D01*
X7647535Y-7065430D01*
X7695155Y-7017811D01*
X7699609Y-7011144D01*
X7704521Y-7004816D01*
X7752140Y-6909578D01*
X7752801Y-6907162D01*
X7753613Y-6906351D01*
X7755176Y-6898489D01*
X7757293Y-6890762D01*
X7756930Y-6889673D01*
X7757419Y-6887217D01*
X7757419Y-6506265D01*
X7753613Y-6487131D01*
X7726553Y-6460071D01*
X7707419Y-6456265D01*
X6707419Y-6456265D01*
X6688285Y-6460071D01*
X6661225Y-6487131D01*
X6657419Y-6506265D01*
X6546308Y-6506265D01*
X6546308Y-5649122D01*
X6657419Y-5649122D01*
X6657419Y-5887217D01*
X6657907Y-5889673D01*
X6657545Y-5890762D01*
X6659661Y-5898489D01*
X6661225Y-5906351D01*
X6662036Y-5907162D01*
X6662698Y-5909578D01*
X6710316Y-6004815D01*
X6715231Y-6011148D01*
X6719683Y-6017810D01*
X6767301Y-6065429D01*
X6773967Y-6069883D01*
X6780296Y-6074795D01*
X6875534Y-6122414D01*
X6877949Y-6123075D01*
X6878761Y-6123887D01*
X6886622Y-6125450D01*
X6894350Y-6127567D01*
X6895438Y-6127204D01*
X6897895Y-6127693D01*
X6993133Y-6127693D01*
X7000995Y-6126129D01*
X7008944Y-6125127D01*
X7151801Y-6077508D01*
X7153976Y-6076268D01*
X7155124Y-6076268D01*
X7161788Y-6071814D01*
X7168749Y-6067847D01*
X7169262Y-6066820D01*
X7171345Y-6065429D01*
X7657419Y-5579355D01*
X7657419Y-6077693D01*
X7661225Y-6096827D01*
X7688285Y-6123887D01*
X7726553Y-6123887D01*
X7753613Y-6096827D01*
X7757419Y-6077693D01*
X7757419Y-5458646D01*
X7753613Y-5439512D01*
X7726553Y-5412452D01*
X7688285Y-5412452D01*
X7672064Y-5423291D01*
X7108981Y-5986372D01*
X6985020Y-6027693D01*
X6909699Y-6027693D01*
X6832275Y-5988981D01*
X6796130Y-5952837D01*
X6757419Y-5875414D01*
X6757419Y-5660925D01*
X6796130Y-5583501D01*
X6838012Y-5541621D01*
X6848851Y-5525400D01*
X6848851Y-5487131D01*
X6821791Y-5460071D01*
X6783522Y-5460071D01*
X6767301Y-5470910D01*
X6719683Y-5518529D01*
X6715231Y-5525190D01*
X6710316Y-5531524D01*
X6662698Y-5626761D01*
X6662036Y-5629176D01*
X6661225Y-5629988D01*
X6659661Y-5637849D01*
X6657545Y-5645577D01*
X6657907Y-5646665D01*
X6657419Y-5649122D01*
X6546308Y-5649122D01*
X6546308Y-5301341D01*
X7868530Y-5301341D01*
X7868530Y-7238804D01*
G37*
G36*
X12931829Y-15657419D02*
G01*
X12751847Y-15657419D01*
X12627887Y-15616099D01*
X12546731Y-15534942D01*
X12505196Y-15451872D01*
X12460401Y-15272692D01*
X12460401Y-15142145D01*
X12505196Y-14962965D01*
X12546732Y-14879893D01*
X12627885Y-14798739D01*
X12751847Y-14757419D01*
X12931829Y-14757419D01*
X12931829Y-15657419D01*
G37*
G36*
X14857226Y-15868530D02*
G01*
X11062620Y-15868530D01*
X11062620Y-15307332D01*
X11173731Y-15307332D01*
X11173731Y-15345600D01*
X11200791Y-15372660D01*
X11219925Y-15376466D01*
X11981829Y-15376466D01*
X12000963Y-15372660D01*
X12028023Y-15345600D01*
X12028023Y-15307332D01*
X12000963Y-15280272D01*
X11981829Y-15276466D01*
X11219925Y-15276466D01*
X11200791Y-15280272D01*
X11173731Y-15307332D01*
X11062620Y-15307332D01*
X11062620Y-15135990D01*
X12360401Y-15135990D01*
X12360401Y-15278847D01*
X12361596Y-15284856D01*
X12361894Y-15290974D01*
X12409513Y-15481450D01*
X12411852Y-15486402D01*
X12413299Y-15491684D01*
X12460917Y-15586921D01*
X12465828Y-15593249D01*
X12470283Y-15599916D01*
X12565522Y-15695155D01*
X12567603Y-15696545D01*
X12568117Y-15697573D01*
X12575082Y-15701543D01*
X12581743Y-15705994D01*
X12582891Y-15705994D01*
X12585066Y-15707234D01*
X12727922Y-15754853D01*
X12735872Y-15755855D01*
X12743734Y-15757419D01*
X12981829Y-15757419D01*
X13000963Y-15753613D01*
X13028023Y-15726553D01*
X13031829Y-15707419D01*
X13031829Y-14707419D01*
X13028023Y-14688285D01*
X13364207Y-14688285D01*
X13364207Y-14726553D01*
X13391267Y-14753613D01*
X13410401Y-14757419D01*
X13836591Y-14757419D01*
X13836591Y-15133609D01*
X13553258Y-15133609D01*
X13534124Y-15137415D01*
X13507064Y-15164475D01*
X13507064Y-15202743D01*
X13534124Y-15229803D01*
X13553258Y-15233609D01*
X13836591Y-15233609D01*
X13836591Y-15657419D01*
X13410401Y-15657419D01*
X13391267Y-15661225D01*
X13364207Y-15688285D01*
X13364207Y-15726553D01*
X13391267Y-15753613D01*
X13410401Y-15757419D01*
X13886591Y-15757419D01*
X13905725Y-15753613D01*
X13932785Y-15726553D01*
X13936591Y-15707419D01*
X13936591Y-15688285D01*
X14173731Y-15688285D01*
X14173731Y-15726553D01*
X14200791Y-15753613D01*
X14219925Y-15757419D01*
X14696115Y-15757419D01*
X14715249Y-15753613D01*
X14742309Y-15726553D01*
X14746115Y-15707419D01*
X14746115Y-14707419D01*
X14742309Y-14688285D01*
X14715249Y-14661225D01*
X14676981Y-14661225D01*
X14649921Y-14688285D01*
X14646115Y-14707419D01*
X14646115Y-15657419D01*
X14219925Y-15657419D01*
X14200791Y-15661225D01*
X14173731Y-15688285D01*
X13936591Y-15688285D01*
X13936591Y-14707419D01*
X13932785Y-14688285D01*
X13905725Y-14661225D01*
X13886591Y-14657419D01*
X13410401Y-14657419D01*
X13391267Y-14661225D01*
X13364207Y-14688285D01*
X13028023Y-14688285D01*
X13000963Y-14661225D01*
X12981829Y-14657419D01*
X12743734Y-14657419D01*
X12735872Y-14658982D01*
X12727922Y-14659985D01*
X12585066Y-14707604D01*
X12582891Y-14708844D01*
X12581743Y-14708844D01*
X12575082Y-14713294D01*
X12568117Y-14717265D01*
X12567603Y-14718292D01*
X12565522Y-14719683D01*
X12470284Y-14814921D01*
X12465832Y-14821582D01*
X12460917Y-14827916D01*
X12413299Y-14923153D01*
X12411852Y-14928434D01*
X12409513Y-14933387D01*
X12361894Y-15123863D01*
X12361596Y-15129980D01*
X12360401Y-15135990D01*
X11062620Y-15135990D01*
X11062620Y-14546308D01*
X14857226Y-14546308D01*
X14857226Y-15868530D01*
G37*
G36*
X5657419Y-22402288D02*
G01*
X5616099Y-22526247D01*
X5534942Y-22607403D01*
X5451872Y-22648939D01*
X5272692Y-22693734D01*
X5142145Y-22693734D01*
X4962966Y-22648939D01*
X4879892Y-22607402D01*
X4798739Y-22526249D01*
X4757419Y-22402287D01*
X4757419Y-22222306D01*
X5657419Y-22222306D01*
X5657419Y-22402288D01*
G37*
G36*
X5868530Y-22904845D02*
G01*
X4546308Y-22904845D01*
X4546308Y-22172306D01*
X4657419Y-22172306D01*
X4657419Y-22410401D01*
X4658982Y-22418263D01*
X4659985Y-22426212D01*
X4707604Y-22569069D01*
X4708844Y-22571244D01*
X4708844Y-22572392D01*
X4713297Y-22579056D01*
X4717265Y-22586017D01*
X4718291Y-22586530D01*
X4719683Y-22588613D01*
X4814921Y-22683851D01*
X4821580Y-22688301D01*
X4827915Y-22693217D01*
X4923153Y-22740836D01*
X4928434Y-22742282D01*
X4933387Y-22744622D01*
X5123863Y-22792241D01*
X5129980Y-22792538D01*
X5135990Y-22793734D01*
X5278847Y-22793734D01*
X5284856Y-22792538D01*
X5290974Y-22792241D01*
X5481450Y-22744622D01*
X5486402Y-22742282D01*
X5491684Y-22740836D01*
X5586921Y-22693218D01*
X5593249Y-22688306D01*
X5599916Y-22683852D01*
X5695155Y-22588613D01*
X5696545Y-22586531D01*
X5697573Y-22586018D01*
X5701543Y-22579052D01*
X5705994Y-22572392D01*
X5705994Y-22571244D01*
X5707234Y-22569069D01*
X5754853Y-22426213D01*
X5755855Y-22418262D01*
X5757419Y-22410401D01*
X5757419Y-22172306D01*
X5753613Y-22153172D01*
X5726553Y-22126112D01*
X5707419Y-22122306D01*
X4707419Y-22122306D01*
X4688285Y-22126112D01*
X4661225Y-22153172D01*
X4657419Y-22172306D01*
X4546308Y-22172306D01*
X4546308Y-21118381D01*
X4657818Y-21118381D01*
X4661225Y-21130873D01*
X4661225Y-21143821D01*
X4666079Y-21148675D01*
X4667887Y-21155302D01*
X4682612Y-21168099D01*
X5519141Y-21646115D01*
X4707419Y-21646115D01*
X4688285Y-21649921D01*
X4661225Y-21676981D01*
X4661225Y-21715249D01*
X4688285Y-21742309D01*
X4707419Y-21746115D01*
X5707419Y-21746115D01*
X5726553Y-21742309D01*
X5731407Y-21737454D01*
X5738034Y-21735647D01*
X5744459Y-21724402D01*
X5753613Y-21715249D01*
X5753613Y-21708383D01*
X5757020Y-21702421D01*
X5753613Y-21689928D01*
X5753613Y-21676981D01*
X5748757Y-21672125D01*
X5746951Y-21665501D01*
X5732226Y-21652703D01*
X4895697Y-21174687D01*
X5707419Y-21174687D01*
X5726553Y-21170881D01*
X5753613Y-21143821D01*
X5753613Y-21105553D01*
X5726553Y-21078493D01*
X5707419Y-21074687D01*
X4707419Y-21074687D01*
X4688285Y-21078493D01*
X4683430Y-21083347D01*
X4676804Y-21085155D01*
X4670378Y-21096399D01*
X4661225Y-21105553D01*
X4661225Y-21112418D01*
X4657818Y-21118381D01*
X4546308Y-21118381D01*
X4546308Y-20410401D01*
X4657419Y-20410401D01*
X4657419Y-20553258D01*
X4657907Y-20555714D01*
X4657545Y-20556803D01*
X4659661Y-20564530D01*
X4661225Y-20572392D01*
X4662036Y-20573203D01*
X4662698Y-20575619D01*
X4710316Y-20670856D01*
X4722278Y-20686268D01*
X4758582Y-20698370D01*
X4792810Y-20681256D01*
X4804912Y-20644951D01*
X4799759Y-20626135D01*
X4757419Y-20541455D01*
X4757419Y-20418514D01*
X4798739Y-20294552D01*
X4879892Y-20213399D01*
X4962966Y-20171862D01*
X5142145Y-20127068D01*
X5272692Y-20127068D01*
X5451872Y-20171863D01*
X5534942Y-20213398D01*
X5616099Y-20294554D01*
X5657419Y-20418514D01*
X5657419Y-20497526D01*
X5616099Y-20621485D01*
X5591469Y-20646115D01*
X5328847Y-20646115D01*
X5328847Y-20505639D01*
X5325041Y-20486505D01*
X5297981Y-20459445D01*
X5259713Y-20459445D01*
X5232653Y-20486505D01*
X5228847Y-20505639D01*
X5228847Y-20696115D01*
X5232653Y-20715249D01*
X5259713Y-20742309D01*
X5278847Y-20746115D01*
X5612180Y-20746115D01*
X5631314Y-20742309D01*
X5647535Y-20731471D01*
X5695155Y-20683852D01*
X5696546Y-20681769D01*
X5697573Y-20681256D01*
X5701539Y-20674297D01*
X5705994Y-20667631D01*
X5705994Y-20666482D01*
X5707234Y-20664307D01*
X5754853Y-20521451D01*
X5755855Y-20513500D01*
X5757419Y-20505639D01*
X5757419Y-20410401D01*
X5755855Y-20402539D01*
X5754853Y-20394589D01*
X5707234Y-20251733D01*
X5705994Y-20249557D01*
X5705994Y-20248410D01*
X5701543Y-20241749D01*
X5697573Y-20234784D01*
X5696545Y-20234270D01*
X5695155Y-20232189D01*
X5599916Y-20136950D01*
X5593249Y-20132495D01*
X5586921Y-20127584D01*
X5491684Y-20079966D01*
X5486402Y-20078519D01*
X5481450Y-20076180D01*
X5290974Y-20028561D01*
X5284856Y-20028263D01*
X5278847Y-20027068D01*
X5135990Y-20027068D01*
X5129980Y-20028263D01*
X5123863Y-20028561D01*
X4933387Y-20076180D01*
X4928434Y-20078519D01*
X4923153Y-20079966D01*
X4827915Y-20127585D01*
X4821580Y-20132500D01*
X4814921Y-20136951D01*
X4719683Y-20232189D01*
X4718291Y-20234271D01*
X4717265Y-20234785D01*
X4713297Y-20241745D01*
X4708844Y-20248410D01*
X4708844Y-20249557D01*
X4707604Y-20251733D01*
X4659985Y-20394590D01*
X4658982Y-20402538D01*
X4657419Y-20410401D01*
X4546308Y-20410401D01*
X4546308Y-19915957D01*
X5868530Y-19915957D01*
X5868530Y-22904845D01*
G37*
G36*
X11371704Y-6865464D02*
G01*
X10865532Y-6696741D01*
X11371704Y-6528017D01*
X11371704Y-6865464D01*
G37*
G36*
X11868530Y-7191059D02*
G01*
X10546308Y-7191059D01*
X10546308Y-6693197D01*
X10657545Y-6693197D01*
X10658726Y-6696741D01*
X10657545Y-6700285D01*
X10664632Y-6714461D01*
X10669646Y-6729501D01*
X10672988Y-6731171D01*
X10674659Y-6734514D01*
X10691608Y-6744175D01*
X11691607Y-7077508D01*
X11710963Y-7079948D01*
X11745191Y-7062834D01*
X11757293Y-7026530D01*
X11740178Y-6992301D01*
X11723230Y-6982640D01*
X11471704Y-6898798D01*
X11471704Y-6494683D01*
X11723230Y-6410842D01*
X11740178Y-6401181D01*
X11757293Y-6366952D01*
X11745191Y-6330648D01*
X11710963Y-6313534D01*
X11691607Y-6315974D01*
X10691608Y-6649307D01*
X10674659Y-6658968D01*
X10672988Y-6662310D01*
X10669646Y-6663981D01*
X10664632Y-6679020D01*
X10657545Y-6693197D01*
X10546308Y-6693197D01*
X10546308Y-5649122D01*
X10657419Y-5649122D01*
X10657419Y-5887217D01*
X10657907Y-5889673D01*
X10657545Y-5890762D01*
X10659661Y-5898489D01*
X10661225Y-5906351D01*
X10662036Y-5907162D01*
X10662698Y-5909578D01*
X10710316Y-6004815D01*
X10715231Y-6011148D01*
X10719683Y-6017810D01*
X10767301Y-6065429D01*
X10773967Y-6069883D01*
X10780296Y-6074795D01*
X10875534Y-6122414D01*
X10877949Y-6123075D01*
X10878761Y-6123887D01*
X10886622Y-6125450D01*
X10894350Y-6127567D01*
X10895438Y-6127204D01*
X10897895Y-6127693D01*
X10993133Y-6127693D01*
X11000995Y-6126129D01*
X11008944Y-6125127D01*
X11151801Y-6077508D01*
X11153976Y-6076268D01*
X11155124Y-6076268D01*
X11161788Y-6071814D01*
X11168749Y-6067847D01*
X11169262Y-6066820D01*
X11171345Y-6065429D01*
X11657419Y-5579355D01*
X11657419Y-6077693D01*
X11661225Y-6096827D01*
X11688285Y-6123887D01*
X11726553Y-6123887D01*
X11753613Y-6096827D01*
X11757419Y-6077693D01*
X11757419Y-5458646D01*
X11753613Y-5439512D01*
X11726553Y-5412452D01*
X11688285Y-5412452D01*
X11672064Y-5423291D01*
X11108981Y-5986372D01*
X10985020Y-6027693D01*
X10909699Y-6027693D01*
X10832275Y-5988981D01*
X10796130Y-5952837D01*
X10757419Y-5875414D01*
X10757419Y-5660925D01*
X10796130Y-5583501D01*
X10838012Y-5541621D01*
X10848851Y-5525400D01*
X10848851Y-5487131D01*
X10821791Y-5460071D01*
X10783522Y-5460071D01*
X10767301Y-5470910D01*
X10719683Y-5518529D01*
X10715231Y-5525190D01*
X10710316Y-5531524D01*
X10662698Y-5626761D01*
X10662036Y-5629176D01*
X10661225Y-5629988D01*
X10659661Y-5637849D01*
X10657545Y-5645577D01*
X10657907Y-5646665D01*
X10657419Y-5649122D01*
X10546308Y-5649122D01*
X10546308Y-5301341D01*
X11868530Y-5301341D01*
X11868530Y-7191059D01*
G37*
G36*
X3868530Y-8381032D02*
G01*
X2546308Y-8381032D01*
X2546308Y-7371322D01*
X2658049Y-7371322D01*
X2678106Y-7403914D01*
X2695838Y-7412048D01*
X3503075Y-7604247D01*
X2980250Y-7743667D01*
X2962743Y-7752275D01*
X2959327Y-7758173D01*
X2953429Y-7761589D01*
X2950080Y-7774147D01*
X2943569Y-7785394D01*
X2945325Y-7791979D01*
X2943569Y-7798564D01*
X2950080Y-7809810D01*
X2953429Y-7822369D01*
X2959327Y-7825784D01*
X2962743Y-7831683D01*
X2980250Y-7840291D01*
X3503075Y-7979710D01*
X2695838Y-8171911D01*
X2678106Y-8180045D01*
X2658049Y-8212637D01*
X2666913Y-8249864D01*
X2699505Y-8269921D01*
X2719000Y-8269191D01*
X3719000Y-8031095D01*
X3736732Y-8022961D01*
X3740651Y-8016591D01*
X3747123Y-8012845D01*
X3750308Y-8000898D01*
X3756789Y-7990369D01*
X3755057Y-7983095D01*
X3756984Y-7975870D01*
X3750788Y-7965168D01*
X3747925Y-7953142D01*
X3741557Y-7949223D01*
X3737810Y-7942751D01*
X3720302Y-7934143D01*
X3187186Y-7791979D01*
X3720302Y-7649815D01*
X3737810Y-7641207D01*
X3741557Y-7634734D01*
X3747925Y-7630816D01*
X3750788Y-7618789D01*
X3756984Y-7608088D01*
X3755057Y-7600862D01*
X3756789Y-7593589D01*
X3750308Y-7583059D01*
X3747123Y-7571113D01*
X3740651Y-7567366D01*
X3736732Y-7560997D01*
X3719000Y-7552863D01*
X2719000Y-7314768D01*
X2699505Y-7314038D01*
X2666913Y-7334095D01*
X2658049Y-7371322D01*
X2546308Y-7371322D01*
X2546308Y-6649122D01*
X2657419Y-6649122D01*
X2657419Y-6887217D01*
X2658982Y-6895079D01*
X2659985Y-6903028D01*
X2707604Y-7045885D01*
X2717265Y-7062833D01*
X2751494Y-7079948D01*
X2787798Y-7067846D01*
X2804912Y-7033618D01*
X2802472Y-7014262D01*
X2757419Y-6879103D01*
X2757419Y-6660925D01*
X2796130Y-6583501D01*
X2832275Y-6547357D01*
X2909699Y-6508646D01*
X2981330Y-6508646D01*
X3058753Y-6547357D01*
X3094897Y-6583502D01*
X3136433Y-6666574D01*
X3182721Y-6851725D01*
X3185060Y-6856677D01*
X3186507Y-6861959D01*
X3234125Y-6957196D01*
X3239040Y-6963529D01*
X3243492Y-6970191D01*
X3291110Y-7017810D01*
X3297776Y-7022264D01*
X3304105Y-7027176D01*
X3399343Y-7074795D01*
X3401758Y-7075456D01*
X3402570Y-7076268D01*
X3410431Y-7077831D01*
X3418159Y-7079948D01*
X3419247Y-7079585D01*
X3421704Y-7080074D01*
X3516942Y-7080074D01*
X3519398Y-7079585D01*
X3520487Y-7079948D01*
X3528214Y-7077831D01*
X3536076Y-7076268D01*
X3536887Y-7075456D01*
X3539303Y-7074795D01*
X3634540Y-7027177D01*
X3640868Y-7022265D01*
X3647535Y-7017811D01*
X3695155Y-6970192D01*
X3699609Y-6963525D01*
X3704521Y-6957197D01*
X3752140Y-6861959D01*
X3752801Y-6859543D01*
X3753613Y-6858732D01*
X3755176Y-6850870D01*
X3757293Y-6843143D01*
X3756930Y-6842054D01*
X3757419Y-6839598D01*
X3757419Y-6601503D01*
X3755855Y-6593641D01*
X3754853Y-6585691D01*
X3707234Y-6442835D01*
X3697573Y-6425886D01*
X3663344Y-6408772D01*
X3627040Y-6420873D01*
X3609926Y-6455102D01*
X3612366Y-6474457D01*
X3657419Y-6609616D01*
X3657419Y-6827794D01*
X3618708Y-6905216D01*
X3582561Y-6941362D01*
X3505139Y-6980074D01*
X3433508Y-6980074D01*
X3356084Y-6941362D01*
X3319939Y-6905218D01*
X3278404Y-6822147D01*
X3232116Y-6636995D01*
X3229776Y-6632042D01*
X3228330Y-6626761D01*
X3180711Y-6531523D01*
X3175799Y-6525194D01*
X3171345Y-6518528D01*
X3123726Y-6470910D01*
X3117064Y-6466458D01*
X3110731Y-6461543D01*
X3015494Y-6413925D01*
X3013078Y-6413263D01*
X3012267Y-6412452D01*
X3004405Y-6410888D01*
X2996678Y-6408772D01*
X2995589Y-6409134D01*
X2993133Y-6408646D01*
X2897895Y-6408646D01*
X2895438Y-6409134D01*
X2894350Y-6408772D01*
X2886622Y-6410888D01*
X2878761Y-6412452D01*
X2877949Y-6413263D01*
X2875534Y-6413925D01*
X2780296Y-6461544D01*
X2773967Y-6466455D01*
X2767301Y-6470910D01*
X2719683Y-6518529D01*
X2715231Y-6525190D01*
X2710316Y-6531524D01*
X2662698Y-6626761D01*
X2662036Y-6629176D01*
X2661225Y-6629988D01*
X2659661Y-6637849D01*
X2657545Y-6645577D01*
X2657907Y-6646665D01*
X2657419Y-6649122D01*
X2546308Y-6649122D01*
X2546308Y-5649122D01*
X2657419Y-5649122D01*
X2657419Y-5887217D01*
X2657907Y-5889673D01*
X2657545Y-5890762D01*
X2659661Y-5898489D01*
X2661225Y-5906351D01*
X2662036Y-5907162D01*
X2662698Y-5909578D01*
X2710316Y-6004815D01*
X2715231Y-6011148D01*
X2719683Y-6017810D01*
X2767301Y-6065429D01*
X2773967Y-6069883D01*
X2780296Y-6074795D01*
X2875534Y-6122414D01*
X2877949Y-6123075D01*
X2878761Y-6123887D01*
X2886622Y-6125450D01*
X2894350Y-6127567D01*
X2895438Y-6127204D01*
X2897895Y-6127693D01*
X2993133Y-6127693D01*
X3000995Y-6126129D01*
X3008944Y-6125127D01*
X3151801Y-6077508D01*
X3153976Y-6076268D01*
X3155124Y-6076268D01*
X3161788Y-6071814D01*
X3168749Y-6067847D01*
X3169262Y-6066820D01*
X3171345Y-6065429D01*
X3657419Y-5579355D01*
X3657419Y-6077693D01*
X3661225Y-6096827D01*
X3688285Y-6123887D01*
X3726553Y-6123887D01*
X3753613Y-6096827D01*
X3757419Y-6077693D01*
X3757419Y-5458646D01*
X3753613Y-5439512D01*
X3726553Y-5412452D01*
X3688285Y-5412452D01*
X3672064Y-5423291D01*
X3108981Y-5986372D01*
X2985020Y-6027693D01*
X2909699Y-6027693D01*
X2832275Y-5988981D01*
X2796130Y-5952837D01*
X2757419Y-5875414D01*
X2757419Y-5660925D01*
X2796130Y-5583501D01*
X2838012Y-5541621D01*
X2848851Y-5525400D01*
X2848851Y-5487131D01*
X2821791Y-5460071D01*
X2783522Y-5460071D01*
X2767301Y-5470910D01*
X2719683Y-5518529D01*
X2715231Y-5525190D01*
X2710316Y-5531524D01*
X2662698Y-5626761D01*
X2662036Y-5629176D01*
X2661225Y-5629988D01*
X2659661Y-5637849D01*
X2657545Y-5645577D01*
X2657907Y-5646665D01*
X2657419Y-5649122D01*
X2546308Y-5649122D01*
X2546308Y-5301341D01*
X3868530Y-5301341D01*
X3868530Y-8381032D01*
G37*
G36*
X79194360Y-9907419D02*
G01*
X78875212Y-9907419D01*
X78797789Y-9868708D01*
X78761643Y-9832561D01*
X78722932Y-9755139D01*
X78722932Y-9635888D01*
X78761643Y-9558464D01*
X78795179Y-9524929D01*
X78919140Y-9483609D01*
X79194360Y-9483609D01*
X79194360Y-9907419D01*
G37*
G36*
X79194360Y-9383609D02*
G01*
X78922831Y-9383609D01*
X78845407Y-9344897D01*
X78809262Y-9308753D01*
X78770551Y-9231330D01*
X78770551Y-9159698D01*
X78809262Y-9082274D01*
X78845407Y-9046130D01*
X78922831Y-9007419D01*
X79194360Y-9007419D01*
X79194360Y-9383609D01*
G37*
G36*
X80956265Y-9907419D02*
G01*
X80776283Y-9907419D01*
X80652323Y-9866099D01*
X80571167Y-9784942D01*
X80529632Y-9701872D01*
X80484837Y-9522692D01*
X80484837Y-9392145D01*
X80529632Y-9212965D01*
X80571168Y-9129893D01*
X80652321Y-9048739D01*
X80776283Y-9007419D01*
X80956265Y-9007419D01*
X80956265Y-9907419D01*
G37*
G36*
X77413084Y-9621704D02*
G01*
X77075636Y-9621704D01*
X77244360Y-9115532D01*
X77413084Y-9621704D01*
G37*
G36*
X83262614Y-10118530D02*
G01*
X74846718Y-10118530D01*
X74846718Y-9945010D01*
X74957829Y-9945010D01*
X74963241Y-9982894D01*
X74993856Y-10005855D01*
X75031740Y-10000443D01*
X75046265Y-9987419D01*
X75440246Y-9462110D01*
X75527693Y-9549557D01*
X75527693Y-9957419D01*
X75531499Y-9976553D01*
X75558559Y-10003613D01*
X75596827Y-10003613D01*
X75623887Y-9976553D01*
X75627693Y-9957419D01*
X75627693Y-9033523D01*
X75960071Y-9033523D01*
X75960071Y-9071791D01*
X75987131Y-9098851D01*
X76025399Y-9098851D01*
X76041620Y-9088012D01*
X76080893Y-9048739D01*
X76204854Y-9007419D01*
X76283866Y-9007419D01*
X76407827Y-9048739D01*
X76488980Y-9129892D01*
X76530517Y-9212966D01*
X76575312Y-9392145D01*
X76575312Y-9522692D01*
X76530517Y-9701870D01*
X76488980Y-9784944D01*
X76407826Y-9866098D01*
X76283866Y-9907419D01*
X76204854Y-9907419D01*
X76080894Y-9866099D01*
X76041621Y-9826825D01*
X76025400Y-9815986D01*
X75987131Y-9815986D01*
X75960071Y-9843045D01*
X75960071Y-9881314D01*
X75970909Y-9897535D01*
X76018528Y-9945155D01*
X76020610Y-9946546D01*
X76021124Y-9947573D01*
X76028082Y-9951539D01*
X76034749Y-9955994D01*
X76035898Y-9955994D01*
X76038073Y-9957234D01*
X76180929Y-10004853D01*
X76188879Y-10005855D01*
X76196741Y-10007419D01*
X76291979Y-10007419D01*
X76299841Y-10005855D01*
X76307790Y-10004853D01*
X76439460Y-9960963D01*
X76861153Y-9960963D01*
X76878267Y-9995192D01*
X76914571Y-10007293D01*
X76948800Y-9990179D01*
X76958461Y-9973230D01*
X77042303Y-9721704D01*
X77446417Y-9721704D01*
X77530259Y-9973230D01*
X77539920Y-9990178D01*
X77574149Y-10007293D01*
X77610453Y-9995191D01*
X77627567Y-9960963D01*
X77625127Y-9941607D01*
X77624020Y-9938285D01*
X77721976Y-9938285D01*
X77721976Y-9976553D01*
X77749036Y-10003613D01*
X77768170Y-10007419D01*
X78244360Y-10007419D01*
X78263494Y-10003613D01*
X78290554Y-9976553D01*
X78294360Y-9957419D01*
X78294360Y-9624085D01*
X78622932Y-9624085D01*
X78622932Y-9766942D01*
X78623420Y-9769398D01*
X78623058Y-9770487D01*
X78625174Y-9778214D01*
X78626738Y-9786076D01*
X78627549Y-9786887D01*
X78628211Y-9789303D01*
X78675829Y-9884540D01*
X78680740Y-9890868D01*
X78685195Y-9897535D01*
X78732814Y-9945155D01*
X78739480Y-9949609D01*
X78745809Y-9954521D01*
X78841047Y-10002140D01*
X78843462Y-10002801D01*
X78844274Y-10003613D01*
X78852135Y-10005176D01*
X78859863Y-10007293D01*
X78860951Y-10006930D01*
X78863408Y-10007419D01*
X79244360Y-10007419D01*
X79263494Y-10003613D01*
X79290554Y-9976553D01*
X79294360Y-9957419D01*
X79294360Y-9385990D01*
X80384837Y-9385990D01*
X80384837Y-9528847D01*
X80386032Y-9534856D01*
X80386330Y-9540974D01*
X80433949Y-9731450D01*
X80436288Y-9736402D01*
X80437735Y-9741684D01*
X80485353Y-9836921D01*
X80490264Y-9843249D01*
X80494719Y-9849916D01*
X80589958Y-9945155D01*
X80592039Y-9946545D01*
X80592553Y-9947573D01*
X80599518Y-9951543D01*
X80606179Y-9955994D01*
X80607327Y-9955994D01*
X80609502Y-9957234D01*
X80752358Y-10004853D01*
X80760308Y-10005855D01*
X80768170Y-10007419D01*
X81006265Y-10007419D01*
X81025399Y-10003613D01*
X81052459Y-9976553D01*
X81056265Y-9957419D01*
X81056265Y-8957419D01*
X81432456Y-8957419D01*
X81432456Y-9957419D01*
X81436262Y-9976553D01*
X81441116Y-9981407D01*
X81442924Y-9988034D01*
X81454168Y-9994459D01*
X81463322Y-10003613D01*
X81470188Y-10003613D01*
X81476150Y-10007020D01*
X81488643Y-10003613D01*
X81501590Y-10003613D01*
X81506444Y-9998758D01*
X81513071Y-9996951D01*
X81525868Y-9982226D01*
X82003884Y-9145697D01*
X82003884Y-9957419D01*
X82007690Y-9976553D01*
X82034750Y-10003613D01*
X82073018Y-10003613D01*
X82100078Y-9976553D01*
X82103884Y-9957419D01*
X82103884Y-9528847D01*
X82432456Y-9528847D01*
X82432456Y-9862180D01*
X82436262Y-9881314D01*
X82447100Y-9897535D01*
X82494719Y-9945155D01*
X82496801Y-9946546D01*
X82497315Y-9947573D01*
X82504273Y-9951539D01*
X82510940Y-9955994D01*
X82512089Y-9955994D01*
X82514264Y-9957234D01*
X82657120Y-10004853D01*
X82665070Y-10005855D01*
X82672932Y-10007419D01*
X82768170Y-10007419D01*
X82776032Y-10005855D01*
X82783981Y-10004853D01*
X82926838Y-9957234D01*
X82929013Y-9955994D01*
X82930162Y-9955994D01*
X82936832Y-9951536D01*
X82943786Y-9947573D01*
X82944298Y-9946547D01*
X82946383Y-9945155D01*
X83041621Y-9849916D01*
X83046074Y-9843250D01*
X83050986Y-9836922D01*
X83098605Y-9741684D01*
X83100051Y-9736402D01*
X83102391Y-9731450D01*
X83150010Y-9540974D01*
X83150307Y-9534856D01*
X83151503Y-9528847D01*
X83151503Y-9385990D01*
X83150307Y-9379980D01*
X83150010Y-9373863D01*
X83102391Y-9183387D01*
X83100051Y-9178434D01*
X83098605Y-9173153D01*
X83050986Y-9077915D01*
X83046070Y-9071580D01*
X83041620Y-9064921D01*
X82946382Y-8969683D01*
X82944299Y-8968291D01*
X82943786Y-8967265D01*
X82936825Y-8963297D01*
X82930161Y-8958844D01*
X82929013Y-8958844D01*
X82926838Y-8957604D01*
X82783981Y-8909985D01*
X82776032Y-8908982D01*
X82768170Y-8907419D01*
X82625313Y-8907419D01*
X82622856Y-8907907D01*
X82621768Y-8907545D01*
X82614040Y-8909661D01*
X82606179Y-8911225D01*
X82605367Y-8912036D01*
X82602952Y-8912698D01*
X82507714Y-8960317D01*
X82492302Y-8972278D01*
X82480201Y-9008583D01*
X82497315Y-9042811D01*
X82533620Y-9054912D01*
X82552436Y-9049759D01*
X82637117Y-9007419D01*
X82760057Y-9007419D01*
X82884018Y-9048739D01*
X82965171Y-9129892D01*
X83006708Y-9212966D01*
X83051503Y-9392145D01*
X83051503Y-9522692D01*
X83006708Y-9701870D01*
X82965171Y-9784944D01*
X82884017Y-9866098D01*
X82760057Y-9907419D01*
X82681045Y-9907419D01*
X82557085Y-9866099D01*
X82532456Y-9841469D01*
X82532456Y-9578847D01*
X82672932Y-9578847D01*
X82692066Y-9575041D01*
X82719126Y-9547981D01*
X82719126Y-9509713D01*
X82692066Y-9482653D01*
X82672932Y-9478847D01*
X82482456Y-9478847D01*
X82463322Y-9482653D01*
X82436262Y-9509713D01*
X82432456Y-9528847D01*
X82103884Y-9528847D01*
X82103884Y-8957419D01*
X82100078Y-8938285D01*
X82095223Y-8933430D01*
X82093416Y-8926804D01*
X82082171Y-8920378D01*
X82073018Y-8911225D01*
X82066152Y-8911225D01*
X82060190Y-8907818D01*
X82047698Y-8911225D01*
X82034750Y-8911225D01*
X82029894Y-8916080D01*
X82023270Y-8917887D01*
X82010472Y-8932612D01*
X81532456Y-9769140D01*
X81532456Y-8957419D01*
X81528650Y-8938285D01*
X81501590Y-8911225D01*
X81463322Y-8911225D01*
X81436262Y-8938285D01*
X81432456Y-8957419D01*
X81056265Y-8957419D01*
X81052459Y-8938285D01*
X81025399Y-8911225D01*
X81006265Y-8907419D01*
X80768170Y-8907419D01*
X80760308Y-8908982D01*
X80752358Y-8909985D01*
X80609502Y-8957604D01*
X80607327Y-8958844D01*
X80606179Y-8958844D01*
X80599518Y-8963294D01*
X80592553Y-8967265D01*
X80592039Y-8968292D01*
X80589958Y-8969683D01*
X80494720Y-9064921D01*
X80490268Y-9071582D01*
X80485353Y-9077916D01*
X80437735Y-9173153D01*
X80436288Y-9178434D01*
X80433949Y-9183387D01*
X80386330Y-9373863D01*
X80386032Y-9379980D01*
X80384837Y-9385990D01*
X79294360Y-9385990D01*
X79294360Y-8957419D01*
X79290554Y-8938285D01*
X79263494Y-8911225D01*
X79244360Y-8907419D01*
X78911027Y-8907419D01*
X78908570Y-8907907D01*
X78907482Y-8907545D01*
X78899754Y-8909661D01*
X78891893Y-8911225D01*
X78891081Y-8912036D01*
X78888666Y-8912698D01*
X78793428Y-8960317D01*
X78787099Y-8965228D01*
X78780433Y-8969683D01*
X78732815Y-9017302D01*
X78728363Y-9023963D01*
X78723448Y-9030297D01*
X78675830Y-9125534D01*
X78675168Y-9127949D01*
X78674357Y-9128761D01*
X78672793Y-9136622D01*
X78670677Y-9144350D01*
X78671039Y-9145438D01*
X78670551Y-9147895D01*
X78670551Y-9243133D01*
X78671039Y-9245589D01*
X78670677Y-9246678D01*
X78672793Y-9254405D01*
X78674357Y-9262267D01*
X78675168Y-9263078D01*
X78675830Y-9265494D01*
X78723448Y-9360731D01*
X78728363Y-9367064D01*
X78732815Y-9373726D01*
X78780433Y-9421345D01*
X78783519Y-9423407D01*
X78752359Y-9433794D01*
X78750184Y-9435034D01*
X78749035Y-9435034D01*
X78742368Y-9439488D01*
X78735410Y-9443455D01*
X78734896Y-9444481D01*
X78732814Y-9445873D01*
X78685196Y-9493492D01*
X78680744Y-9500153D01*
X78675829Y-9506487D01*
X78628211Y-9601724D01*
X78627549Y-9604139D01*
X78626738Y-9604951D01*
X78625174Y-9612812D01*
X78623058Y-9620540D01*
X78623420Y-9621628D01*
X78622932Y-9624085D01*
X78294360Y-9624085D01*
X78294360Y-8957419D01*
X78290554Y-8938285D01*
X78263494Y-8911225D01*
X78225226Y-8911225D01*
X78198166Y-8938285D01*
X78194360Y-8957419D01*
X78194360Y-9907419D01*
X77768170Y-9907419D01*
X77749036Y-9911225D01*
X77721976Y-9938285D01*
X77624020Y-9938285D01*
X77291794Y-8941608D01*
X77282133Y-8924659D01*
X77278790Y-8922987D01*
X77277120Y-8919647D01*
X77262083Y-8914634D01*
X77247904Y-8907545D01*
X77244359Y-8908726D01*
X77240816Y-8907545D01*
X77226642Y-8914632D01*
X77211600Y-8919646D01*
X77209928Y-8922989D01*
X77206587Y-8924660D01*
X77196926Y-8941608D01*
X76863593Y-9941608D01*
X76861153Y-9960963D01*
X76439460Y-9960963D01*
X76450647Y-9957234D01*
X76452822Y-9955994D01*
X76453971Y-9955994D01*
X76460641Y-9951536D01*
X76467595Y-9947573D01*
X76468107Y-9946547D01*
X76470192Y-9945155D01*
X76565430Y-9849916D01*
X76569883Y-9843250D01*
X76574795Y-9836922D01*
X76622414Y-9741684D01*
X76623860Y-9736402D01*
X76626200Y-9731450D01*
X76673819Y-9540974D01*
X76674116Y-9534856D01*
X76675312Y-9528847D01*
X76675312Y-9385990D01*
X76674116Y-9379980D01*
X76673819Y-9373863D01*
X76626200Y-9183387D01*
X76623860Y-9178434D01*
X76622414Y-9173153D01*
X76574795Y-9077915D01*
X76569879Y-9071580D01*
X76565429Y-9064921D01*
X76470191Y-8969683D01*
X76468108Y-8968291D01*
X76467595Y-8967265D01*
X76460634Y-8963297D01*
X76453970Y-8958844D01*
X76452822Y-8958844D01*
X76450647Y-8957604D01*
X76307790Y-8909985D01*
X76299841Y-8908982D01*
X76291979Y-8907419D01*
X76196741Y-8907419D01*
X76188879Y-8908982D01*
X76180929Y-8909985D01*
X76038073Y-8957604D01*
X76035898Y-8958844D01*
X76034749Y-8958844D01*
X76028082Y-8963298D01*
X76021124Y-8967265D01*
X76020610Y-8968291D01*
X76018528Y-8969683D01*
X75970910Y-9017302D01*
X75960071Y-9033523D01*
X75627693Y-9033523D01*
X75627693Y-8957419D01*
X75623887Y-8938285D01*
X75596827Y-8911225D01*
X75558559Y-8911225D01*
X75531499Y-8938285D01*
X75527693Y-8957419D01*
X75527693Y-9408137D01*
X75041620Y-8922064D01*
X75025399Y-8911225D01*
X74987131Y-8911225D01*
X74960071Y-8938285D01*
X74960071Y-8976553D01*
X74970910Y-8992774D01*
X75368817Y-9390681D01*
X74966265Y-9927419D01*
X74957829Y-9945010D01*
X74846718Y-9945010D01*
X74846718Y-8796308D01*
X83262614Y-8796308D01*
X83262614Y-10118530D01*
G37*
G36*
X80622931Y-7407419D02*
G01*
X80442949Y-7407419D01*
X80318989Y-7366099D01*
X80237833Y-7284942D01*
X80196298Y-7201872D01*
X80151503Y-7022692D01*
X80151503Y-6892145D01*
X80196298Y-6712965D01*
X80237834Y-6629893D01*
X80318987Y-6548739D01*
X80442949Y-6507419D01*
X80622931Y-6507419D01*
X80622931Y-7407419D01*
G37*
G36*
X82929280Y-7618530D02*
G01*
X74848960Y-7618530D01*
X74848960Y-6438285D01*
X74960071Y-6438285D01*
X74960071Y-6476553D01*
X74987131Y-6503613D01*
X75006265Y-6507419D01*
X75432455Y-6507419D01*
X75432455Y-6883609D01*
X75149122Y-6883609D01*
X75129988Y-6887415D01*
X75102928Y-6914475D01*
X75102928Y-6952743D01*
X75129988Y-6979803D01*
X75149122Y-6983609D01*
X75432455Y-6983609D01*
X75432455Y-7407419D01*
X75006265Y-7407419D01*
X74987131Y-7411225D01*
X74960071Y-7438285D01*
X74960071Y-7476553D01*
X74987131Y-7503613D01*
X75006265Y-7507419D01*
X75482455Y-7507419D01*
X75501589Y-7503613D01*
X75528649Y-7476553D01*
X75532455Y-7457419D01*
X75532455Y-6457419D01*
X75528649Y-6438285D01*
X75769595Y-6438285D01*
X75769595Y-6476553D01*
X75796655Y-6503613D01*
X75815789Y-6507419D01*
X76051503Y-6507419D01*
X76051503Y-7457419D01*
X76055309Y-7476553D01*
X76082369Y-7503613D01*
X76120637Y-7503613D01*
X76147697Y-7476553D01*
X76151503Y-7457419D01*
X76151503Y-6507419D01*
X76387217Y-6507419D01*
X76406351Y-6503613D01*
X76433411Y-6476553D01*
X76433411Y-6457419D01*
X76670550Y-6457419D01*
X76670550Y-7457419D01*
X76674356Y-7476553D01*
X76701416Y-7503613D01*
X76739684Y-7503613D01*
X76766744Y-7476553D01*
X76770550Y-7457419D01*
X76770550Y-6457419D01*
X77146741Y-6457419D01*
X77146741Y-7457419D01*
X77150547Y-7476553D01*
X77177607Y-7503613D01*
X77215875Y-7503613D01*
X77242935Y-7476553D01*
X77246741Y-7457419D01*
X77246741Y-6983609D01*
X77718169Y-6983609D01*
X77718169Y-7457419D01*
X77721975Y-7476553D01*
X77749035Y-7503613D01*
X77787303Y-7503613D01*
X77814363Y-7476553D01*
X77818169Y-7457419D01*
X77818169Y-6457419D01*
X77816595Y-6449505D01*
X78099752Y-6449505D01*
X78100482Y-6469000D01*
X78338577Y-7469000D01*
X78346711Y-7486732D01*
X78353080Y-7490651D01*
X78356827Y-7497123D01*
X78368772Y-7500308D01*
X78379303Y-7506789D01*
X78386578Y-7505056D01*
X78393802Y-7506983D01*
X78404500Y-7500789D01*
X78416530Y-7497925D01*
X78420449Y-7491555D01*
X78426921Y-7487809D01*
X78435529Y-7470302D01*
X78577693Y-6937186D01*
X78719857Y-7470302D01*
X78728465Y-7487810D01*
X78734937Y-7491557D01*
X78738856Y-7497925D01*
X78750882Y-7500788D01*
X78761584Y-7506984D01*
X78768809Y-7505057D01*
X78776083Y-7506789D01*
X78786612Y-7500308D01*
X78798559Y-7497123D01*
X78802305Y-7490651D01*
X78808675Y-7486732D01*
X78816809Y-7469000D01*
X78955621Y-6885990D01*
X80051503Y-6885990D01*
X80051503Y-7028847D01*
X80052698Y-7034856D01*
X80052996Y-7040974D01*
X80100615Y-7231450D01*
X80102954Y-7236402D01*
X80104401Y-7241684D01*
X80152019Y-7336921D01*
X80156930Y-7343249D01*
X80161385Y-7349916D01*
X80256624Y-7445155D01*
X80258705Y-7446545D01*
X80259219Y-7447573D01*
X80266184Y-7451543D01*
X80272845Y-7455994D01*
X80273993Y-7455994D01*
X80276168Y-7457234D01*
X80419024Y-7504853D01*
X80426974Y-7505855D01*
X80434836Y-7507419D01*
X80672931Y-7507419D01*
X80692065Y-7503613D01*
X80719125Y-7476553D01*
X80722931Y-7457419D01*
X80722931Y-6457419D01*
X81099122Y-6457419D01*
X81099122Y-7457419D01*
X81102928Y-7476553D01*
X81107782Y-7481407D01*
X81109590Y-7488034D01*
X81120834Y-7494459D01*
X81129988Y-7503613D01*
X81136854Y-7503613D01*
X81142816Y-7507020D01*
X81155309Y-7503613D01*
X81168256Y-7503613D01*
X81173110Y-7498758D01*
X81179737Y-7496951D01*
X81192534Y-7482226D01*
X81670550Y-6645697D01*
X81670550Y-7457419D01*
X81674356Y-7476553D01*
X81701416Y-7503613D01*
X81739684Y-7503613D01*
X81766744Y-7476553D01*
X81770550Y-7457419D01*
X81770550Y-7028847D01*
X82099122Y-7028847D01*
X82099122Y-7362180D01*
X82102928Y-7381314D01*
X82113766Y-7397535D01*
X82161385Y-7445155D01*
X82163467Y-7446546D01*
X82163981Y-7447573D01*
X82170939Y-7451539D01*
X82177606Y-7455994D01*
X82178755Y-7455994D01*
X82180930Y-7457234D01*
X82323786Y-7504853D01*
X82331736Y-7505855D01*
X82339598Y-7507419D01*
X82434836Y-7507419D01*
X82442698Y-7505855D01*
X82450647Y-7504853D01*
X82593504Y-7457234D01*
X82595679Y-7455994D01*
X82596828Y-7455994D01*
X82603498Y-7451536D01*
X82610452Y-7447573D01*
X82610964Y-7446547D01*
X82613049Y-7445155D01*
X82708287Y-7349916D01*
X82712740Y-7343250D01*
X82717652Y-7336922D01*
X82765271Y-7241684D01*
X82766717Y-7236402D01*
X82769057Y-7231450D01*
X82816676Y-7040974D01*
X82816973Y-7034856D01*
X82818169Y-7028847D01*
X82818169Y-6885990D01*
X82816973Y-6879980D01*
X82816676Y-6873863D01*
X82769057Y-6683387D01*
X82766717Y-6678434D01*
X82765271Y-6673153D01*
X82717652Y-6577915D01*
X82712736Y-6571580D01*
X82708286Y-6564921D01*
X82613048Y-6469683D01*
X82610965Y-6468291D01*
X82610452Y-6467265D01*
X82603491Y-6463297D01*
X82596827Y-6458844D01*
X82595679Y-6458844D01*
X82593504Y-6457604D01*
X82450647Y-6409985D01*
X82442698Y-6408982D01*
X82434836Y-6407419D01*
X82291979Y-6407419D01*
X82289522Y-6407907D01*
X82288434Y-6407545D01*
X82280706Y-6409661D01*
X82272845Y-6411225D01*
X82272033Y-6412036D01*
X82269618Y-6412698D01*
X82174380Y-6460317D01*
X82158968Y-6472278D01*
X82146867Y-6508583D01*
X82163981Y-6542811D01*
X82200286Y-6554912D01*
X82219102Y-6549759D01*
X82303783Y-6507419D01*
X82426723Y-6507419D01*
X82550684Y-6548739D01*
X82631837Y-6629892D01*
X82673374Y-6712966D01*
X82718169Y-6892145D01*
X82718169Y-7022692D01*
X82673374Y-7201870D01*
X82631837Y-7284944D01*
X82550683Y-7366098D01*
X82426723Y-7407419D01*
X82347711Y-7407419D01*
X82223751Y-7366099D01*
X82199122Y-7341469D01*
X82199122Y-7078847D01*
X82339598Y-7078847D01*
X82358732Y-7075041D01*
X82385792Y-7047981D01*
X82385792Y-7009713D01*
X82358732Y-6982653D01*
X82339598Y-6978847D01*
X82149122Y-6978847D01*
X82129988Y-6982653D01*
X82102928Y-7009713D01*
X82099122Y-7028847D01*
X81770550Y-7028847D01*
X81770550Y-6457419D01*
X81766744Y-6438285D01*
X81761889Y-6433430D01*
X81760082Y-6426804D01*
X81748837Y-6420378D01*
X81739684Y-6411225D01*
X81732818Y-6411225D01*
X81726856Y-6407818D01*
X81714364Y-6411225D01*
X81701416Y-6411225D01*
X81696560Y-6416080D01*
X81689936Y-6417887D01*
X81677138Y-6432612D01*
X81199122Y-7269140D01*
X81199122Y-6457419D01*
X81195316Y-6438285D01*
X81168256Y-6411225D01*
X81129988Y-6411225D01*
X81102928Y-6438285D01*
X81099122Y-6457419D01*
X80722931Y-6457419D01*
X80719125Y-6438285D01*
X80692065Y-6411225D01*
X80672931Y-6407419D01*
X80434836Y-6407419D01*
X80426974Y-6408982D01*
X80419024Y-6409985D01*
X80276168Y-6457604D01*
X80273993Y-6458844D01*
X80272845Y-6458844D01*
X80266184Y-6463294D01*
X80259219Y-6467265D01*
X80258705Y-6468292D01*
X80256624Y-6469683D01*
X80161386Y-6564921D01*
X80156934Y-6571582D01*
X80152019Y-6577916D01*
X80104401Y-6673153D01*
X80102954Y-6678434D01*
X80100615Y-6683387D01*
X80052996Y-6873863D01*
X80052698Y-6879980D01*
X80051503Y-6885990D01*
X78955621Y-6885990D01*
X79054904Y-6469000D01*
X79055634Y-6449505D01*
X79035577Y-6416913D01*
X78998350Y-6408049D01*
X78965758Y-6428106D01*
X78957624Y-6445838D01*
X78765424Y-7253075D01*
X78626005Y-6730250D01*
X78617397Y-6712743D01*
X78611498Y-6709327D01*
X78608083Y-6703429D01*
X78595523Y-6700079D01*
X78584278Y-6693569D01*
X78577694Y-6695324D01*
X78571108Y-6693568D01*
X78559858Y-6700080D01*
X78547303Y-6703429D01*
X78543888Y-6709326D01*
X78537989Y-6712742D01*
X78529381Y-6730250D01*
X78389961Y-7253075D01*
X78197762Y-6445838D01*
X78189628Y-6428106D01*
X78157036Y-6408049D01*
X78119809Y-6416913D01*
X78099752Y-6449505D01*
X77816595Y-6449505D01*
X77814363Y-6438285D01*
X77787303Y-6411225D01*
X77749035Y-6411225D01*
X77721975Y-6438285D01*
X77718169Y-6457419D01*
X77718169Y-6883609D01*
X77246741Y-6883609D01*
X77246741Y-6457419D01*
X77242935Y-6438285D01*
X77215875Y-6411225D01*
X77177607Y-6411225D01*
X77150547Y-6438285D01*
X77146741Y-6457419D01*
X76770550Y-6457419D01*
X76766744Y-6438285D01*
X76739684Y-6411225D01*
X76701416Y-6411225D01*
X76674356Y-6438285D01*
X76670550Y-6457419D01*
X76433411Y-6457419D01*
X76433411Y-6438285D01*
X76406351Y-6411225D01*
X76387217Y-6407419D01*
X75815789Y-6407419D01*
X75796655Y-6411225D01*
X75769595Y-6438285D01*
X75528649Y-6438285D01*
X75501589Y-6411225D01*
X75482455Y-6407419D01*
X75006265Y-6407419D01*
X74987131Y-6411225D01*
X74960071Y-6438285D01*
X74848960Y-6438285D01*
X74848960Y-6296308D01*
X82929280Y-6296308D01*
X82929280Y-7618530D01*
G37*
G36*
X78289598Y-20157419D02*
G01*
X77970450Y-20157419D01*
X77893027Y-20118708D01*
X77856881Y-20082561D01*
X77818170Y-20005139D01*
X77818170Y-19885888D01*
X77856881Y-19808464D01*
X77890417Y-19774929D01*
X78014378Y-19733609D01*
X78289598Y-19733609D01*
X78289598Y-20157419D01*
G37*
G36*
X78289598Y-19633609D02*
G01*
X78018069Y-19633609D01*
X77940645Y-19594897D01*
X77904500Y-19558753D01*
X77865789Y-19481330D01*
X77865789Y-19409698D01*
X77904500Y-19332274D01*
X77940645Y-19296130D01*
X78018069Y-19257419D01*
X78289598Y-19257419D01*
X78289598Y-19633609D01*
G37*
G36*
X82072012Y-20368530D02*
G01*
X74848960Y-20368530D01*
X74848960Y-19188285D01*
X74960071Y-19188285D01*
X74960071Y-19226553D01*
X74987131Y-19253613D01*
X75006265Y-19257419D01*
X75432455Y-19257419D01*
X75432455Y-19633609D01*
X75149122Y-19633609D01*
X75129988Y-19637415D01*
X75102928Y-19664475D01*
X75102928Y-19702743D01*
X75129988Y-19729803D01*
X75149122Y-19733609D01*
X75432455Y-19733609D01*
X75432455Y-20157419D01*
X75006265Y-20157419D01*
X74987131Y-20161225D01*
X74960071Y-20188285D01*
X74960071Y-20226553D01*
X74987131Y-20253613D01*
X75006265Y-20257419D01*
X75482455Y-20257419D01*
X75501589Y-20253613D01*
X75528649Y-20226553D01*
X75532455Y-20207419D01*
X75532455Y-19207419D01*
X75908646Y-19207419D01*
X75908646Y-20016942D01*
X75909134Y-20019398D01*
X75908772Y-20020487D01*
X75910888Y-20028214D01*
X75912452Y-20036076D01*
X75913263Y-20036887D01*
X75913925Y-20039303D01*
X75961543Y-20134540D01*
X75966454Y-20140868D01*
X75970909Y-20147535D01*
X76018528Y-20195155D01*
X76025194Y-20199609D01*
X76031523Y-20204521D01*
X76126761Y-20252140D01*
X76129176Y-20252801D01*
X76129988Y-20253613D01*
X76137849Y-20255176D01*
X76145577Y-20257293D01*
X76146665Y-20256930D01*
X76149122Y-20257419D01*
X76339598Y-20257419D01*
X76342054Y-20256930D01*
X76343143Y-20257293D01*
X76350870Y-20255176D01*
X76358732Y-20253613D01*
X76359543Y-20252801D01*
X76361959Y-20252140D01*
X76457196Y-20204522D01*
X76463523Y-20199611D01*
X76470192Y-20195155D01*
X76477062Y-20188285D01*
X76817214Y-20188285D01*
X76817214Y-20226553D01*
X76844274Y-20253613D01*
X76863408Y-20257419D01*
X77339598Y-20257419D01*
X77358732Y-20253613D01*
X77385792Y-20226553D01*
X77389598Y-20207419D01*
X77389598Y-19874085D01*
X77718170Y-19874085D01*
X77718170Y-20016942D01*
X77718658Y-20019398D01*
X77718296Y-20020487D01*
X77720412Y-20028214D01*
X77721976Y-20036076D01*
X77722787Y-20036887D01*
X77723449Y-20039303D01*
X77771067Y-20134540D01*
X77775978Y-20140868D01*
X77780433Y-20147535D01*
X77828052Y-20195155D01*
X77834718Y-20199609D01*
X77841047Y-20204521D01*
X77936285Y-20252140D01*
X77938700Y-20252801D01*
X77939512Y-20253613D01*
X77947373Y-20255176D01*
X77955101Y-20257293D01*
X77956189Y-20256930D01*
X77958646Y-20257419D01*
X78339598Y-20257419D01*
X78358732Y-20253613D01*
X78385792Y-20226553D01*
X78389598Y-20207419D01*
X78389598Y-19207419D01*
X78388893Y-19203875D01*
X79384963Y-19203875D01*
X79387403Y-19223230D01*
X79720736Y-20223230D01*
X79730397Y-20240178D01*
X79733738Y-20241848D01*
X79735410Y-20245192D01*
X79750452Y-20250205D01*
X79764626Y-20257293D01*
X79768169Y-20256111D01*
X79771714Y-20257293D01*
X79785893Y-20250203D01*
X79800930Y-20245191D01*
X79802600Y-20241850D01*
X79805943Y-20240179D01*
X79815604Y-20223230D01*
X80090716Y-19397895D01*
X80337218Y-19397895D01*
X80337218Y-19493133D01*
X80338781Y-19500995D01*
X80339784Y-19508944D01*
X80387403Y-19651801D01*
X80388643Y-19653976D01*
X80388643Y-19655124D01*
X80393096Y-19661788D01*
X80397064Y-19668749D01*
X80398090Y-19669262D01*
X80399482Y-19671345D01*
X80885555Y-20157419D01*
X80387218Y-20157419D01*
X80368084Y-20161225D01*
X80341024Y-20188285D01*
X80341024Y-20226553D01*
X80368084Y-20253613D01*
X80387218Y-20257419D01*
X81006265Y-20257419D01*
X81025399Y-20253613D01*
X81052459Y-20226553D01*
X81052459Y-20188285D01*
X81293405Y-20188285D01*
X81293405Y-20226553D01*
X81320465Y-20253613D01*
X81339599Y-20257419D01*
X81911027Y-20257419D01*
X81930161Y-20253613D01*
X81957221Y-20226553D01*
X81957221Y-20188285D01*
X81930161Y-20161225D01*
X81911027Y-20157419D01*
X81675313Y-20157419D01*
X81675313Y-19372557D01*
X81678949Y-19378011D01*
X81682445Y-19381515D01*
X81685196Y-19385631D01*
X81780434Y-19480869D01*
X81787093Y-19485319D01*
X81793428Y-19490235D01*
X81888666Y-19537854D01*
X81907482Y-19543007D01*
X81943787Y-19530905D01*
X81960901Y-19496677D01*
X81948799Y-19460373D01*
X81933387Y-19448411D01*
X81845405Y-19404420D01*
X81759410Y-19318425D01*
X81666916Y-19179684D01*
X81653135Y-19165875D01*
X81648087Y-19164865D01*
X81644447Y-19161225D01*
X81629885Y-19161225D01*
X81615610Y-19158370D01*
X81611327Y-19161225D01*
X81606179Y-19161225D01*
X81595882Y-19171521D01*
X81583769Y-19179597D01*
X81582759Y-19184644D01*
X81579119Y-19188285D01*
X81575313Y-19207419D01*
X81575313Y-20157419D01*
X81339599Y-20157419D01*
X81320465Y-20161225D01*
X81293405Y-20188285D01*
X81052459Y-20188285D01*
X81041620Y-20172064D01*
X80478538Y-19608981D01*
X80437218Y-19485019D01*
X80437218Y-19409698D01*
X80475929Y-19332274D01*
X80512074Y-19296130D01*
X80589498Y-19257419D01*
X80803986Y-19257419D01*
X80881409Y-19296130D01*
X80923290Y-19338012D01*
X80939511Y-19348851D01*
X80977780Y-19348851D01*
X81004840Y-19321791D01*
X81004840Y-19283522D01*
X80994001Y-19267301D01*
X80946382Y-19219683D01*
X80939720Y-19215231D01*
X80933387Y-19210316D01*
X80838150Y-19162698D01*
X80835734Y-19162036D01*
X80834923Y-19161225D01*
X80827061Y-19159661D01*
X80819334Y-19157545D01*
X80818245Y-19157907D01*
X80815789Y-19157419D01*
X80577694Y-19157419D01*
X80575237Y-19157907D01*
X80574149Y-19157545D01*
X80566421Y-19159661D01*
X80558560Y-19161225D01*
X80557748Y-19162036D01*
X80555333Y-19162698D01*
X80460095Y-19210317D01*
X80453766Y-19215228D01*
X80447100Y-19219683D01*
X80399482Y-19267302D01*
X80395030Y-19273963D01*
X80390115Y-19280297D01*
X80342497Y-19375534D01*
X80341835Y-19377949D01*
X80341024Y-19378761D01*
X80339460Y-19386622D01*
X80337344Y-19394350D01*
X80337706Y-19395438D01*
X80337218Y-19397895D01*
X80090716Y-19397895D01*
X80148937Y-19223231D01*
X80151377Y-19203875D01*
X80134263Y-19169647D01*
X80097959Y-19157545D01*
X80063730Y-19174660D01*
X80054069Y-19191608D01*
X79768170Y-20049305D01*
X79482271Y-19191608D01*
X79472610Y-19174659D01*
X79438381Y-19157545D01*
X79402077Y-19169646D01*
X79384963Y-19203875D01*
X78388893Y-19203875D01*
X78385792Y-19188285D01*
X78358732Y-19161225D01*
X78339598Y-19157419D01*
X78006265Y-19157419D01*
X78003808Y-19157907D01*
X78002720Y-19157545D01*
X77994992Y-19159661D01*
X77987131Y-19161225D01*
X77986319Y-19162036D01*
X77983904Y-19162698D01*
X77888666Y-19210317D01*
X77882337Y-19215228D01*
X77875671Y-19219683D01*
X77828053Y-19267302D01*
X77823601Y-19273963D01*
X77818686Y-19280297D01*
X77771068Y-19375534D01*
X77770406Y-19377949D01*
X77769595Y-19378761D01*
X77768031Y-19386622D01*
X77765915Y-19394350D01*
X77766277Y-19395438D01*
X77765789Y-19397895D01*
X77765789Y-19493133D01*
X77766277Y-19495589D01*
X77765915Y-19496678D01*
X77768031Y-19504405D01*
X77769595Y-19512267D01*
X77770406Y-19513078D01*
X77771068Y-19515494D01*
X77818686Y-19610731D01*
X77823601Y-19617064D01*
X77828053Y-19623726D01*
X77875671Y-19671345D01*
X77878757Y-19673407D01*
X77847597Y-19683794D01*
X77845422Y-19685034D01*
X77844273Y-19685034D01*
X77837606Y-19689488D01*
X77830648Y-19693455D01*
X77830134Y-19694481D01*
X77828052Y-19695873D01*
X77780434Y-19743492D01*
X77775982Y-19750153D01*
X77771067Y-19756487D01*
X77723449Y-19851724D01*
X77722787Y-19854139D01*
X77721976Y-19854951D01*
X77720412Y-19862812D01*
X77718296Y-19870540D01*
X77718658Y-19871628D01*
X77718170Y-19874085D01*
X77389598Y-19874085D01*
X77389598Y-19207419D01*
X77385792Y-19188285D01*
X77358732Y-19161225D01*
X77320464Y-19161225D01*
X77293404Y-19188285D01*
X77289598Y-19207419D01*
X77289598Y-20157419D01*
X76863408Y-20157419D01*
X76844274Y-20161225D01*
X76817214Y-20188285D01*
X76477062Y-20188285D01*
X76517811Y-20147535D01*
X76522264Y-20140869D01*
X76527176Y-20134541D01*
X76574795Y-20039303D01*
X76575456Y-20036887D01*
X76576268Y-20036076D01*
X76577831Y-20028214D01*
X76579948Y-20020487D01*
X76579585Y-20019398D01*
X76580074Y-20016942D01*
X76580074Y-19207419D01*
X76576268Y-19188285D01*
X76549208Y-19161225D01*
X76510940Y-19161225D01*
X76483880Y-19188285D01*
X76480074Y-19207419D01*
X76480074Y-20005138D01*
X76441362Y-20082561D01*
X76405216Y-20118708D01*
X76327795Y-20157419D01*
X76160926Y-20157419D01*
X76083503Y-20118708D01*
X76047357Y-20082561D01*
X76008646Y-20005139D01*
X76008646Y-19207419D01*
X76004840Y-19188285D01*
X75977780Y-19161225D01*
X75939512Y-19161225D01*
X75912452Y-19188285D01*
X75908646Y-19207419D01*
X75532455Y-19207419D01*
X75528649Y-19188285D01*
X75501589Y-19161225D01*
X75482455Y-19157419D01*
X75006265Y-19157419D01*
X74987131Y-19161225D01*
X74960071Y-19188285D01*
X74848960Y-19188285D01*
X74848960Y-19046308D01*
X82072012Y-19046308D01*
X82072012Y-20368530D01*
G37*
G36*
X75527693Y-12407419D02*
G01*
X75347711Y-12407419D01*
X75223751Y-12366099D01*
X75142595Y-12284942D01*
X75101060Y-12201872D01*
X75056265Y-12022692D01*
X75056265Y-11892145D01*
X75101060Y-11712965D01*
X75142596Y-11629893D01*
X75223749Y-11548739D01*
X75347711Y-11507419D01*
X75527693Y-11507419D01*
X75527693Y-12407419D01*
G37*
G36*
X81194360Y-12407419D02*
G01*
X80875212Y-12407419D01*
X80797789Y-12368708D01*
X80761643Y-12332561D01*
X80722932Y-12255139D01*
X80722932Y-12135888D01*
X80761643Y-12058464D01*
X80795179Y-12024929D01*
X80919140Y-11983609D01*
X81194360Y-11983609D01*
X81194360Y-12407419D01*
G37*
G36*
X81194360Y-11883609D02*
G01*
X80922831Y-11883609D01*
X80845407Y-11844897D01*
X80809262Y-11808753D01*
X80770551Y-11731330D01*
X80770551Y-11659698D01*
X80809262Y-11582274D01*
X80845407Y-11546130D01*
X80922831Y-11507419D01*
X81194360Y-11507419D01*
X81194360Y-11883609D01*
G37*
G36*
X77432455Y-11931228D02*
G01*
X77113307Y-11931228D01*
X77035883Y-11892516D01*
X76999738Y-11856372D01*
X76961027Y-11778949D01*
X76961027Y-11659698D01*
X76999738Y-11582274D01*
X77035883Y-11546130D01*
X77113307Y-11507419D01*
X77432455Y-11507419D01*
X77432455Y-11931228D01*
G37*
G36*
X81405471Y-12855675D02*
G01*
X74845154Y-12855675D01*
X74845154Y-11885990D01*
X74956265Y-11885990D01*
X74956265Y-12028847D01*
X74957460Y-12034856D01*
X74957758Y-12040974D01*
X75005377Y-12231450D01*
X75007716Y-12236402D01*
X75009163Y-12241684D01*
X75056781Y-12336921D01*
X75061692Y-12343249D01*
X75066147Y-12349916D01*
X75161386Y-12445155D01*
X75163467Y-12446545D01*
X75163981Y-12447573D01*
X75170946Y-12451543D01*
X75177607Y-12455994D01*
X75178755Y-12455994D01*
X75180930Y-12457234D01*
X75323786Y-12504853D01*
X75331736Y-12505855D01*
X75339598Y-12507419D01*
X75577693Y-12507419D01*
X75596827Y-12503613D01*
X75623887Y-12476553D01*
X75627693Y-12457419D01*
X75627693Y-11457419D01*
X75623887Y-11438285D01*
X75960071Y-11438285D01*
X75960071Y-11476553D01*
X75987131Y-11503613D01*
X76006265Y-11507419D01*
X76432455Y-11507419D01*
X76432455Y-11883609D01*
X76149122Y-11883609D01*
X76129988Y-11887415D01*
X76102928Y-11914475D01*
X76102928Y-11952743D01*
X76129988Y-11979803D01*
X76149122Y-11983609D01*
X76432455Y-11983609D01*
X76432455Y-12407419D01*
X76006265Y-12407419D01*
X75987131Y-12411225D01*
X75960071Y-12438285D01*
X75960071Y-12476553D01*
X75987131Y-12503613D01*
X76006265Y-12507419D01*
X76482455Y-12507419D01*
X76501589Y-12503613D01*
X76528649Y-12476553D01*
X76532455Y-12457419D01*
X76532455Y-11647895D01*
X76861027Y-11647895D01*
X76861027Y-11790752D01*
X76861515Y-11793208D01*
X76861153Y-11794297D01*
X76863269Y-11802024D01*
X76864833Y-11809886D01*
X76865644Y-11810697D01*
X76866306Y-11813113D01*
X76913924Y-11908350D01*
X76918839Y-11914683D01*
X76923291Y-11921345D01*
X76970909Y-11968964D01*
X76977575Y-11973418D01*
X76983904Y-11978330D01*
X77079142Y-12025949D01*
X77081557Y-12026610D01*
X77082369Y-12027422D01*
X77090230Y-12028985D01*
X77097958Y-12031102D01*
X77099046Y-12030739D01*
X77101503Y-12031228D01*
X77148327Y-12031228D01*
X76870065Y-12428746D01*
X76862211Y-12446604D01*
X76868861Y-12484290D01*
X76900212Y-12506235D01*
X76937898Y-12499585D01*
X76951989Y-12486092D01*
X77270393Y-12031228D01*
X77432455Y-12031228D01*
X77432455Y-12457419D01*
X77436261Y-12476553D01*
X77463321Y-12503613D01*
X77501589Y-12503613D01*
X77528649Y-12476553D01*
X77532455Y-12457419D01*
X77532455Y-11467122D01*
X78576264Y-11467122D01*
X78579119Y-11474035D01*
X78579119Y-11476553D01*
X78580889Y-11478323D01*
X78583710Y-11485154D01*
X79198553Y-12407419D01*
X78625313Y-12407419D01*
X78606179Y-12411225D01*
X78579119Y-12438285D01*
X78579119Y-12476553D01*
X78606179Y-12503613D01*
X78625313Y-12507419D01*
X79291979Y-12507419D01*
X79299227Y-12505977D01*
X79301682Y-12506468D01*
X79303775Y-12505072D01*
X79311113Y-12503613D01*
X79321409Y-12493316D01*
X79333523Y-12485241D01*
X79334532Y-12480193D01*
X79338173Y-12476553D01*
X79338173Y-12461991D01*
X79341028Y-12447716D01*
X79338173Y-12440802D01*
X79338173Y-12438285D01*
X79336401Y-12436513D01*
X79333581Y-12429684D01*
X78718739Y-11507419D01*
X79291979Y-11507419D01*
X79311113Y-11503613D01*
X79338173Y-11476553D01*
X79338173Y-11438285D01*
X79319391Y-11419503D01*
X79481026Y-11419503D01*
X79488472Y-11437535D01*
X80345615Y-12723249D01*
X80359395Y-12737059D01*
X80396921Y-12744564D01*
X80428762Y-12723336D01*
X80436267Y-12685811D01*
X80428820Y-12667779D01*
X80066358Y-12124085D01*
X80622932Y-12124085D01*
X80622932Y-12266942D01*
X80623420Y-12269398D01*
X80623058Y-12270487D01*
X80625174Y-12278214D01*
X80626738Y-12286076D01*
X80627549Y-12286887D01*
X80628211Y-12289303D01*
X80675829Y-12384540D01*
X80680740Y-12390868D01*
X80685195Y-12397535D01*
X80732814Y-12445155D01*
X80739480Y-12449609D01*
X80745809Y-12454521D01*
X80841047Y-12502140D01*
X80843462Y-12502801D01*
X80844274Y-12503613D01*
X80852135Y-12505176D01*
X80859863Y-12507293D01*
X80860951Y-12506930D01*
X80863408Y-12507419D01*
X81244360Y-12507419D01*
X81263494Y-12503613D01*
X81290554Y-12476553D01*
X81294360Y-12457419D01*
X81294360Y-11457419D01*
X81290554Y-11438285D01*
X81263494Y-11411225D01*
X81244360Y-11407419D01*
X80911027Y-11407419D01*
X80908570Y-11407907D01*
X80907482Y-11407545D01*
X80899754Y-11409661D01*
X80891893Y-11411225D01*
X80891081Y-11412036D01*
X80888666Y-11412698D01*
X80793428Y-11460317D01*
X80787099Y-11465228D01*
X80780433Y-11469683D01*
X80732815Y-11517302D01*
X80728363Y-11523963D01*
X80723448Y-11530297D01*
X80675830Y-11625534D01*
X80675168Y-11627949D01*
X80674357Y-11628761D01*
X80672793Y-11636622D01*
X80670677Y-11644350D01*
X80671039Y-11645438D01*
X80670551Y-11647895D01*
X80670551Y-11743133D01*
X80671039Y-11745589D01*
X80670677Y-11746678D01*
X80672793Y-11754405D01*
X80674357Y-11762267D01*
X80675168Y-11763078D01*
X80675830Y-11765494D01*
X80723448Y-11860731D01*
X80728363Y-11867064D01*
X80732815Y-11873726D01*
X80780433Y-11921345D01*
X80783519Y-11923407D01*
X80752359Y-11933794D01*
X80750184Y-11935034D01*
X80749035Y-11935034D01*
X80742368Y-11939488D01*
X80735410Y-11943455D01*
X80734896Y-11944481D01*
X80732814Y-11945873D01*
X80685196Y-11993492D01*
X80680744Y-12000153D01*
X80675829Y-12006487D01*
X80628211Y-12101724D01*
X80627549Y-12104139D01*
X80626738Y-12104951D01*
X80625174Y-12112812D01*
X80623058Y-12120540D01*
X80623420Y-12121628D01*
X80622932Y-12124085D01*
X80066358Y-12124085D01*
X79571678Y-11382065D01*
X79557897Y-11368256D01*
X79520372Y-11360751D01*
X79488531Y-11381978D01*
X79481026Y-11419503D01*
X79319391Y-11419503D01*
X79311113Y-11411225D01*
X79291979Y-11407419D01*
X78625313Y-11407419D01*
X78618064Y-11408860D01*
X78615610Y-11408370D01*
X78613516Y-11409765D01*
X78606179Y-11411225D01*
X78595882Y-11421521D01*
X78583769Y-11429597D01*
X78582759Y-11434644D01*
X78579119Y-11438285D01*
X78579119Y-11452847D01*
X78576264Y-11467122D01*
X77532455Y-11467122D01*
X77532455Y-11457419D01*
X77528649Y-11438285D01*
X77501589Y-11411225D01*
X77482455Y-11407419D01*
X77101503Y-11407419D01*
X77099046Y-11407907D01*
X77097958Y-11407545D01*
X77090230Y-11409661D01*
X77082369Y-11411225D01*
X77081557Y-11412036D01*
X77079142Y-11412698D01*
X76983904Y-11460317D01*
X76977575Y-11465228D01*
X76970909Y-11469683D01*
X76923291Y-11517302D01*
X76918839Y-11523963D01*
X76913924Y-11530297D01*
X76866306Y-11625534D01*
X76865644Y-11627949D01*
X76864833Y-11628761D01*
X76863269Y-11636622D01*
X76861153Y-11644350D01*
X76861515Y-11645438D01*
X76861027Y-11647895D01*
X76532455Y-11647895D01*
X76532455Y-11457419D01*
X76528649Y-11438285D01*
X76501589Y-11411225D01*
X76482455Y-11407419D01*
X76006265Y-11407419D01*
X75987131Y-11411225D01*
X75960071Y-11438285D01*
X75623887Y-11438285D01*
X75596827Y-11411225D01*
X75577693Y-11407419D01*
X75339598Y-11407419D01*
X75331736Y-11408982D01*
X75323786Y-11409985D01*
X75180930Y-11457604D01*
X75178755Y-11458844D01*
X75177607Y-11458844D01*
X75170946Y-11463294D01*
X75163981Y-11467265D01*
X75163467Y-11468292D01*
X75161386Y-11469683D01*
X75066148Y-11564921D01*
X75061696Y-11571582D01*
X75056781Y-11577916D01*
X75009163Y-11673153D01*
X75007716Y-11678434D01*
X75005377Y-11683387D01*
X74957758Y-11873863D01*
X74957460Y-11879980D01*
X74956265Y-11885990D01*
X74845154Y-11885990D01*
X74845154Y-11249640D01*
X81405471Y-11249640D01*
X81405471Y-12855675D01*
G37*
G36*
X12931829Y-13657419D02*
G01*
X12751847Y-13657419D01*
X12627887Y-13616099D01*
X12546731Y-13534942D01*
X12505196Y-13451872D01*
X12460401Y-13272692D01*
X12460401Y-13142145D01*
X12505196Y-12962965D01*
X12546732Y-12879893D01*
X12627885Y-12798739D01*
X12751847Y-12757419D01*
X12931829Y-12757419D01*
X12931829Y-13657419D01*
G37*
G36*
X14857226Y-13868530D02*
G01*
X11062620Y-13868530D01*
X11062620Y-13307332D01*
X11173731Y-13307332D01*
X11173731Y-13345600D01*
X11200791Y-13372660D01*
X11219925Y-13376466D01*
X11550877Y-13376466D01*
X11550877Y-13707419D01*
X11554683Y-13726553D01*
X11581743Y-13753613D01*
X11620011Y-13753613D01*
X11647071Y-13726553D01*
X11650877Y-13707419D01*
X11650877Y-13376466D01*
X11981829Y-13376466D01*
X12000963Y-13372660D01*
X12028023Y-13345600D01*
X12028023Y-13307332D01*
X12000963Y-13280272D01*
X11981829Y-13276466D01*
X11650877Y-13276466D01*
X11650877Y-13135990D01*
X12360401Y-13135990D01*
X12360401Y-13278847D01*
X12361596Y-13284856D01*
X12361894Y-13290974D01*
X12409513Y-13481450D01*
X12411852Y-13486402D01*
X12413299Y-13491684D01*
X12460917Y-13586921D01*
X12465828Y-13593249D01*
X12470283Y-13599916D01*
X12565522Y-13695155D01*
X12567603Y-13696545D01*
X12568117Y-13697573D01*
X12575082Y-13701543D01*
X12581743Y-13705994D01*
X12582891Y-13705994D01*
X12585066Y-13707234D01*
X12727922Y-13754853D01*
X12735872Y-13755855D01*
X12743734Y-13757419D01*
X12981829Y-13757419D01*
X13000963Y-13753613D01*
X13028023Y-13726553D01*
X13031829Y-13707419D01*
X13031829Y-12707419D01*
X13028023Y-12688285D01*
X13364207Y-12688285D01*
X13364207Y-12726553D01*
X13391267Y-12753613D01*
X13410401Y-12757419D01*
X13836591Y-12757419D01*
X13836591Y-13133609D01*
X13553258Y-13133609D01*
X13534124Y-13137415D01*
X13507064Y-13164475D01*
X13507064Y-13202743D01*
X13534124Y-13229803D01*
X13553258Y-13233609D01*
X13836591Y-13233609D01*
X13836591Y-13657419D01*
X13410401Y-13657419D01*
X13391267Y-13661225D01*
X13364207Y-13688285D01*
X13364207Y-13726553D01*
X13391267Y-13753613D01*
X13410401Y-13757419D01*
X13886591Y-13757419D01*
X13905725Y-13753613D01*
X13932785Y-13726553D01*
X13936591Y-13707419D01*
X13936591Y-13688285D01*
X14173731Y-13688285D01*
X14173731Y-13726553D01*
X14200791Y-13753613D01*
X14219925Y-13757419D01*
X14696115Y-13757419D01*
X14715249Y-13753613D01*
X14742309Y-13726553D01*
X14746115Y-13707419D01*
X14746115Y-12707419D01*
X14742309Y-12688285D01*
X14715249Y-12661225D01*
X14676981Y-12661225D01*
X14649921Y-12688285D01*
X14646115Y-12707419D01*
X14646115Y-13657419D01*
X14219925Y-13657419D01*
X14200791Y-13661225D01*
X14173731Y-13688285D01*
X13936591Y-13688285D01*
X13936591Y-12707419D01*
X13932785Y-12688285D01*
X13905725Y-12661225D01*
X13886591Y-12657419D01*
X13410401Y-12657419D01*
X13391267Y-12661225D01*
X13364207Y-12688285D01*
X13028023Y-12688285D01*
X13000963Y-12661225D01*
X12981829Y-12657419D01*
X12743734Y-12657419D01*
X12735872Y-12658982D01*
X12727922Y-12659985D01*
X12585066Y-12707604D01*
X12582891Y-12708844D01*
X12581743Y-12708844D01*
X12575082Y-12713294D01*
X12568117Y-12717265D01*
X12567603Y-12718292D01*
X12565522Y-12719683D01*
X12470284Y-12814921D01*
X12465832Y-12821582D01*
X12460917Y-12827916D01*
X12413299Y-12923153D01*
X12411852Y-12928434D01*
X12409513Y-12933387D01*
X12361894Y-13123863D01*
X12361596Y-13129980D01*
X12360401Y-13135990D01*
X11650877Y-13135990D01*
X11650877Y-12945514D01*
X11647071Y-12926380D01*
X11620011Y-12899320D01*
X11581743Y-12899320D01*
X11554683Y-12926380D01*
X11550877Y-12945514D01*
X11550877Y-13276466D01*
X11219925Y-13276466D01*
X11200791Y-13280272D01*
X11173731Y-13307332D01*
X11062620Y-13307332D01*
X11062620Y-12546308D01*
X14857226Y-12546308D01*
X14857226Y-13868530D01*
G37*
G36*
X9657419Y-22402288D02*
G01*
X9616099Y-22526247D01*
X9534942Y-22607403D01*
X9451872Y-22648939D01*
X9272692Y-22693734D01*
X9142145Y-22693734D01*
X8962966Y-22648939D01*
X8879892Y-22607402D01*
X8798739Y-22526249D01*
X8757419Y-22402287D01*
X8757419Y-22222306D01*
X9657419Y-22222306D01*
X9657419Y-22402288D01*
G37*
G36*
X9868530Y-22904845D02*
G01*
X8546308Y-22904845D01*
X8546308Y-22172306D01*
X8657419Y-22172306D01*
X8657419Y-22410401D01*
X8658982Y-22418263D01*
X8659985Y-22426212D01*
X8707604Y-22569069D01*
X8708844Y-22571244D01*
X8708844Y-22572392D01*
X8713297Y-22579056D01*
X8717265Y-22586017D01*
X8718291Y-22586530D01*
X8719683Y-22588613D01*
X8814921Y-22683851D01*
X8821580Y-22688301D01*
X8827915Y-22693217D01*
X8923153Y-22740836D01*
X8928434Y-22742282D01*
X8933387Y-22744622D01*
X9123863Y-22792241D01*
X9129980Y-22792538D01*
X9135990Y-22793734D01*
X9278847Y-22793734D01*
X9284856Y-22792538D01*
X9290974Y-22792241D01*
X9481450Y-22744622D01*
X9486402Y-22742282D01*
X9491684Y-22740836D01*
X9586921Y-22693218D01*
X9593249Y-22688306D01*
X9599916Y-22683852D01*
X9695155Y-22588613D01*
X9696545Y-22586531D01*
X9697573Y-22586018D01*
X9701543Y-22579052D01*
X9705994Y-22572392D01*
X9705994Y-22571244D01*
X9707234Y-22569069D01*
X9754853Y-22426213D01*
X9755855Y-22418262D01*
X9757419Y-22410401D01*
X9757419Y-22172306D01*
X9753613Y-22153172D01*
X9726553Y-22126112D01*
X9707419Y-22122306D01*
X8707419Y-22122306D01*
X8688285Y-22126112D01*
X8661225Y-22153172D01*
X8657419Y-22172306D01*
X8546308Y-22172306D01*
X8546308Y-21118381D01*
X8657818Y-21118381D01*
X8661225Y-21130873D01*
X8661225Y-21143821D01*
X8666079Y-21148675D01*
X8667887Y-21155302D01*
X8682612Y-21168099D01*
X9519141Y-21646115D01*
X8707419Y-21646115D01*
X8688285Y-21649921D01*
X8661225Y-21676981D01*
X8661225Y-21715249D01*
X8688285Y-21742309D01*
X8707419Y-21746115D01*
X9707419Y-21746115D01*
X9726553Y-21742309D01*
X9731407Y-21737454D01*
X9738034Y-21735647D01*
X9744459Y-21724402D01*
X9753613Y-21715249D01*
X9753613Y-21708383D01*
X9757020Y-21702421D01*
X9753613Y-21689928D01*
X9753613Y-21676981D01*
X9748757Y-21672125D01*
X9746951Y-21665501D01*
X9732226Y-21652703D01*
X8895697Y-21174687D01*
X9707419Y-21174687D01*
X9726553Y-21170881D01*
X9753613Y-21143821D01*
X9753613Y-21105553D01*
X9726553Y-21078493D01*
X9707419Y-21074687D01*
X8707419Y-21074687D01*
X8688285Y-21078493D01*
X8683430Y-21083347D01*
X8676804Y-21085155D01*
X8670378Y-21096399D01*
X8661225Y-21105553D01*
X8661225Y-21112418D01*
X8657818Y-21118381D01*
X8546308Y-21118381D01*
X8546308Y-20410401D01*
X8657419Y-20410401D01*
X8657419Y-20553258D01*
X8657907Y-20555714D01*
X8657545Y-20556803D01*
X8659661Y-20564530D01*
X8661225Y-20572392D01*
X8662036Y-20573203D01*
X8662698Y-20575619D01*
X8710316Y-20670856D01*
X8722278Y-20686268D01*
X8758582Y-20698370D01*
X8792810Y-20681256D01*
X8804912Y-20644951D01*
X8799759Y-20626135D01*
X8757419Y-20541455D01*
X8757419Y-20418514D01*
X8798739Y-20294552D01*
X8879892Y-20213399D01*
X8962966Y-20171862D01*
X9142145Y-20127068D01*
X9272692Y-20127068D01*
X9451872Y-20171863D01*
X9534942Y-20213398D01*
X9616099Y-20294554D01*
X9657419Y-20418514D01*
X9657419Y-20497526D01*
X9616099Y-20621485D01*
X9591469Y-20646115D01*
X9328847Y-20646115D01*
X9328847Y-20505639D01*
X9325041Y-20486505D01*
X9297981Y-20459445D01*
X9259713Y-20459445D01*
X9232653Y-20486505D01*
X9228847Y-20505639D01*
X9228847Y-20696115D01*
X9232653Y-20715249D01*
X9259713Y-20742309D01*
X9278847Y-20746115D01*
X9612180Y-20746115D01*
X9631314Y-20742309D01*
X9647535Y-20731471D01*
X9695155Y-20683852D01*
X9696546Y-20681769D01*
X9697573Y-20681256D01*
X9701539Y-20674297D01*
X9705994Y-20667631D01*
X9705994Y-20666482D01*
X9707234Y-20664307D01*
X9754853Y-20521451D01*
X9755855Y-20513500D01*
X9757419Y-20505639D01*
X9757419Y-20410401D01*
X9755855Y-20402539D01*
X9754853Y-20394589D01*
X9707234Y-20251733D01*
X9705994Y-20249557D01*
X9705994Y-20248410D01*
X9701543Y-20241749D01*
X9697573Y-20234784D01*
X9696545Y-20234270D01*
X9695155Y-20232189D01*
X9599916Y-20136950D01*
X9593249Y-20132495D01*
X9586921Y-20127584D01*
X9491684Y-20079966D01*
X9486402Y-20078519D01*
X9481450Y-20076180D01*
X9290974Y-20028561D01*
X9284856Y-20028263D01*
X9278847Y-20027068D01*
X9135990Y-20027068D01*
X9129980Y-20028263D01*
X9123863Y-20028561D01*
X8933387Y-20076180D01*
X8928434Y-20078519D01*
X8923153Y-20079966D01*
X8827915Y-20127585D01*
X8821580Y-20132500D01*
X8814921Y-20136951D01*
X8719683Y-20232189D01*
X8718291Y-20234271D01*
X8717265Y-20234785D01*
X8713297Y-20241745D01*
X8708844Y-20248410D01*
X8708844Y-20249557D01*
X8707604Y-20251733D01*
X8659985Y-20394590D01*
X8658982Y-20402538D01*
X8657419Y-20410401D01*
X8546308Y-20410401D01*
X8546308Y-19915957D01*
X9868530Y-19915957D01*
X9868530Y-22904845D01*
G37*
G36*
X82936894Y-14621704D02*
G01*
X82599446Y-14621704D01*
X82768170Y-14115532D01*
X82936894Y-14621704D01*
G37*
G36*
X78384836Y-14431228D02*
G01*
X78065688Y-14431228D01*
X77988264Y-14392516D01*
X77952119Y-14356372D01*
X77913408Y-14278949D01*
X77913408Y-14159698D01*
X77952119Y-14082274D01*
X77988264Y-14046130D01*
X78065688Y-14007419D01*
X78384836Y-14007419D01*
X78384836Y-14431228D01*
G37*
G36*
X83262488Y-15355675D02*
G01*
X74892773Y-15355675D01*
X74892773Y-13957419D01*
X75003884Y-13957419D01*
X75003884Y-14957419D01*
X75007690Y-14976553D01*
X75012544Y-14981407D01*
X75014352Y-14988034D01*
X75025596Y-14994459D01*
X75034750Y-15003613D01*
X75041616Y-15003613D01*
X75047578Y-15007020D01*
X75060071Y-15003613D01*
X75073018Y-15003613D01*
X75077872Y-14998758D01*
X75084499Y-14996951D01*
X75097296Y-14982226D01*
X75575312Y-14145697D01*
X75575312Y-14957419D01*
X75579118Y-14976553D01*
X75606178Y-15003613D01*
X75644446Y-15003613D01*
X75671506Y-14976553D01*
X75675312Y-14957419D01*
X75675312Y-13957419D01*
X75671506Y-13938285D01*
X76007690Y-13938285D01*
X76007690Y-13976553D01*
X76034750Y-14003613D01*
X76053884Y-14007419D01*
X76480074Y-14007419D01*
X76480074Y-14383609D01*
X76196741Y-14383609D01*
X76177607Y-14387415D01*
X76150547Y-14414475D01*
X76150547Y-14452743D01*
X76177607Y-14479803D01*
X76196741Y-14483609D01*
X76480074Y-14483609D01*
X76480074Y-14907419D01*
X76053884Y-14907419D01*
X76034750Y-14911225D01*
X76007690Y-14938285D01*
X76007690Y-14976553D01*
X76034750Y-15003613D01*
X76053884Y-15007419D01*
X76530074Y-15007419D01*
X76549208Y-15003613D01*
X76576268Y-14976553D01*
X76580074Y-14957419D01*
X76580074Y-13957419D01*
X76576268Y-13938285D01*
X76912452Y-13938285D01*
X76912452Y-13976553D01*
X76939512Y-14003613D01*
X76958646Y-14007419D01*
X77384836Y-14007419D01*
X77384836Y-14383609D01*
X77101503Y-14383609D01*
X77082369Y-14387415D01*
X77055309Y-14414475D01*
X77055309Y-14452743D01*
X77082369Y-14479803D01*
X77101503Y-14483609D01*
X77384836Y-14483609D01*
X77384836Y-14907419D01*
X76958646Y-14907419D01*
X76939512Y-14911225D01*
X76912452Y-14938285D01*
X76912452Y-14976553D01*
X76939512Y-15003613D01*
X76958646Y-15007419D01*
X77434836Y-15007419D01*
X77453970Y-15003613D01*
X77481030Y-14976553D01*
X77484836Y-14957419D01*
X77484836Y-14147895D01*
X77813408Y-14147895D01*
X77813408Y-14290752D01*
X77813896Y-14293208D01*
X77813534Y-14294297D01*
X77815650Y-14302024D01*
X77817214Y-14309886D01*
X77818025Y-14310697D01*
X77818687Y-14313113D01*
X77866305Y-14408350D01*
X77871220Y-14414683D01*
X77875672Y-14421345D01*
X77923290Y-14468964D01*
X77929956Y-14473418D01*
X77936285Y-14478330D01*
X78031523Y-14525949D01*
X78033938Y-14526610D01*
X78034750Y-14527422D01*
X78042611Y-14528985D01*
X78050339Y-14531102D01*
X78051427Y-14530739D01*
X78053884Y-14531228D01*
X78100708Y-14531228D01*
X77822446Y-14928746D01*
X77814592Y-14946604D01*
X77821242Y-14984290D01*
X77852593Y-15006235D01*
X77890279Y-14999585D01*
X77904370Y-14986092D01*
X78222774Y-14531228D01*
X78384836Y-14531228D01*
X78384836Y-14957419D01*
X78388642Y-14976553D01*
X78415702Y-15003613D01*
X78453970Y-15003613D01*
X78481030Y-14976553D01*
X78484836Y-14957419D01*
X78484836Y-14528847D01*
X78813408Y-14528847D01*
X78813408Y-14862180D01*
X78817214Y-14881314D01*
X78828052Y-14897535D01*
X78875671Y-14945155D01*
X78877753Y-14946546D01*
X78878267Y-14947573D01*
X78885225Y-14951539D01*
X78891892Y-14955994D01*
X78893041Y-14955994D01*
X78895216Y-14957234D01*
X79038072Y-15004853D01*
X79046022Y-15005855D01*
X79053884Y-15007419D01*
X79149122Y-15007419D01*
X79156984Y-15005855D01*
X79164933Y-15004853D01*
X79307790Y-14957234D01*
X79309965Y-14955994D01*
X79311114Y-14955994D01*
X79317784Y-14951536D01*
X79324738Y-14947573D01*
X79325250Y-14946547D01*
X79327335Y-14945155D01*
X79422573Y-14849916D01*
X79427026Y-14843250D01*
X79431938Y-14836922D01*
X79479557Y-14741684D01*
X79481003Y-14736402D01*
X79483343Y-14731450D01*
X79530962Y-14540974D01*
X79531259Y-14534856D01*
X79532455Y-14528847D01*
X79532455Y-14385990D01*
X79531259Y-14379980D01*
X79530962Y-14373863D01*
X79483343Y-14183387D01*
X79481003Y-14178434D01*
X79479557Y-14173153D01*
X79431938Y-14077915D01*
X79427022Y-14071580D01*
X79422572Y-14064921D01*
X79327334Y-13969683D01*
X79325251Y-13968291D01*
X79324738Y-13967265D01*
X79322654Y-13966077D01*
X80480830Y-13966077D01*
X80487892Y-13984263D01*
X80813408Y-14495788D01*
X80813408Y-14957419D01*
X80817214Y-14976553D01*
X80844274Y-15003613D01*
X80882542Y-15003613D01*
X80909602Y-14976553D01*
X80913408Y-14957419D01*
X80913408Y-14495788D01*
X81238924Y-13984263D01*
X81245986Y-13966077D01*
X81237684Y-13928719D01*
X81223202Y-13919503D01*
X81338169Y-13919503D01*
X81345615Y-13937535D01*
X82202758Y-15223249D01*
X82216538Y-15237059D01*
X82254064Y-15244564D01*
X82285905Y-15223336D01*
X82293410Y-15185811D01*
X82285963Y-15167779D01*
X82148086Y-14960963D01*
X82384963Y-14960963D01*
X82402077Y-14995192D01*
X82438381Y-15007293D01*
X82472610Y-14990179D01*
X82482271Y-14973230D01*
X82566113Y-14721704D01*
X82970227Y-14721704D01*
X83054069Y-14973230D01*
X83063730Y-14990178D01*
X83097959Y-15007293D01*
X83134263Y-14995191D01*
X83151377Y-14960963D01*
X83148937Y-14941607D01*
X82815604Y-13941608D01*
X82805943Y-13924659D01*
X82802600Y-13922987D01*
X82800930Y-13919647D01*
X82785893Y-13914634D01*
X82771714Y-13907545D01*
X82768169Y-13908726D01*
X82764626Y-13907545D01*
X82750452Y-13914632D01*
X82735410Y-13919646D01*
X82733738Y-13922989D01*
X82730397Y-13924660D01*
X82720736Y-13941608D01*
X82387403Y-14941608D01*
X82384963Y-14960963D01*
X82148086Y-14960963D01*
X81428821Y-13882065D01*
X81415040Y-13868256D01*
X81377515Y-13860751D01*
X81345674Y-13881978D01*
X81338169Y-13919503D01*
X81223202Y-13919503D01*
X81205399Y-13908174D01*
X81168042Y-13916476D01*
X81154558Y-13930575D01*
X80863408Y-14388096D01*
X80572258Y-13930575D01*
X80558775Y-13916476D01*
X80521417Y-13908174D01*
X80489132Y-13928719D01*
X80480830Y-13966077D01*
X79322654Y-13966077D01*
X79317777Y-13963297D01*
X79311113Y-13958844D01*
X79309965Y-13958844D01*
X79307790Y-13957604D01*
X79164933Y-13909985D01*
X79156984Y-13908982D01*
X79149122Y-13907419D01*
X79006265Y-13907419D01*
X79003808Y-13907907D01*
X79002720Y-13907545D01*
X78994992Y-13909661D01*
X78987131Y-13911225D01*
X78986319Y-13912036D01*
X78983904Y-13912698D01*
X78888666Y-13960317D01*
X78873254Y-13972278D01*
X78861153Y-14008583D01*
X78878267Y-14042811D01*
X78914572Y-14054912D01*
X78933388Y-14049759D01*
X79018069Y-14007419D01*
X79141009Y-14007419D01*
X79264970Y-14048739D01*
X79346123Y-14129892D01*
X79387660Y-14212966D01*
X79432455Y-14392145D01*
X79432455Y-14522692D01*
X79387660Y-14701870D01*
X79346123Y-14784944D01*
X79264969Y-14866098D01*
X79141009Y-14907419D01*
X79061997Y-14907419D01*
X78938037Y-14866099D01*
X78913408Y-14841469D01*
X78913408Y-14578847D01*
X79053884Y-14578847D01*
X79073018Y-14575041D01*
X79100078Y-14547981D01*
X79100078Y-14509713D01*
X79073018Y-14482653D01*
X79053884Y-14478847D01*
X78863408Y-14478847D01*
X78844274Y-14482653D01*
X78817214Y-14509713D01*
X78813408Y-14528847D01*
X78484836Y-14528847D01*
X78484836Y-13957419D01*
X78481030Y-13938285D01*
X78453970Y-13911225D01*
X78434836Y-13907419D01*
X78053884Y-13907419D01*
X78051427Y-13907907D01*
X78050339Y-13907545D01*
X78042611Y-13909661D01*
X78034750Y-13911225D01*
X78033938Y-13912036D01*
X78031523Y-13912698D01*
X77936285Y-13960317D01*
X77929956Y-13965228D01*
X77923290Y-13969683D01*
X77875672Y-14017302D01*
X77871220Y-14023963D01*
X77866305Y-14030297D01*
X77818687Y-14125534D01*
X77818025Y-14127949D01*
X77817214Y-14128761D01*
X77815650Y-14136622D01*
X77813534Y-14144350D01*
X77813896Y-14145438D01*
X77813408Y-14147895D01*
X77484836Y-14147895D01*
X77484836Y-13957419D01*
X77481030Y-13938285D01*
X77453970Y-13911225D01*
X77434836Y-13907419D01*
X76958646Y-13907419D01*
X76939512Y-13911225D01*
X76912452Y-13938285D01*
X76576268Y-13938285D01*
X76549208Y-13911225D01*
X76530074Y-13907419D01*
X76053884Y-13907419D01*
X76034750Y-13911225D01*
X76007690Y-13938285D01*
X75671506Y-13938285D01*
X75666651Y-13933430D01*
X75664844Y-13926804D01*
X75653599Y-13920378D01*
X75644446Y-13911225D01*
X75637580Y-13911225D01*
X75631618Y-13907818D01*
X75619126Y-13911225D01*
X75606178Y-13911225D01*
X75601322Y-13916080D01*
X75594698Y-13917887D01*
X75581900Y-13932612D01*
X75103884Y-14769140D01*
X75103884Y-13957419D01*
X75100078Y-13938285D01*
X75073018Y-13911225D01*
X75034750Y-13911225D01*
X75007690Y-13938285D01*
X75003884Y-13957419D01*
X74892773Y-13957419D01*
X74892773Y-13749640D01*
X83262488Y-13749640D01*
X83262488Y-15355675D01*
G37*
G36*
X77575312Y-4907419D02*
G01*
X77395330Y-4907419D01*
X77271370Y-4866099D01*
X77190214Y-4784942D01*
X77148679Y-4701872D01*
X77103884Y-4522692D01*
X77103884Y-4392145D01*
X77148679Y-4212965D01*
X77190215Y-4129893D01*
X77271368Y-4048739D01*
X77395330Y-4007419D01*
X77575312Y-4007419D01*
X77575312Y-4907419D01*
G37*
G36*
X77786423Y-5118530D02*
G01*
X74848960Y-5118530D01*
X74848960Y-4033523D01*
X74960071Y-4033523D01*
X74960071Y-4071791D01*
X74987131Y-4098851D01*
X75025399Y-4098851D01*
X75041620Y-4088012D01*
X75080893Y-4048739D01*
X75204854Y-4007419D01*
X75283866Y-4007419D01*
X75407827Y-4048739D01*
X75488980Y-4129892D01*
X75530517Y-4212966D01*
X75575312Y-4392145D01*
X75575312Y-4522692D01*
X75530517Y-4701870D01*
X75488980Y-4784944D01*
X75407826Y-4866098D01*
X75283866Y-4907419D01*
X75204854Y-4907419D01*
X75080894Y-4866099D01*
X75041621Y-4826825D01*
X75025400Y-4815986D01*
X74987131Y-4815986D01*
X74960071Y-4843045D01*
X74960071Y-4881314D01*
X74970909Y-4897535D01*
X75018528Y-4945155D01*
X75020610Y-4946546D01*
X75021124Y-4947573D01*
X75028082Y-4951539D01*
X75034749Y-4955994D01*
X75035898Y-4955994D01*
X75038073Y-4957234D01*
X75180929Y-5004853D01*
X75188879Y-5005855D01*
X75196741Y-5007419D01*
X75291979Y-5007419D01*
X75299841Y-5005855D01*
X75307790Y-5004853D01*
X75450647Y-4957234D01*
X75452822Y-4955994D01*
X75453971Y-4955994D01*
X75460641Y-4951536D01*
X75467595Y-4947573D01*
X75468107Y-4946547D01*
X75470192Y-4945155D01*
X75565430Y-4849916D01*
X75569883Y-4843250D01*
X75574795Y-4836922D01*
X75622414Y-4741684D01*
X75623860Y-4736402D01*
X75626200Y-4731450D01*
X75673819Y-4540974D01*
X75674116Y-4534856D01*
X75675312Y-4528847D01*
X75675312Y-4385990D01*
X75674116Y-4379980D01*
X75673819Y-4373863D01*
X75626200Y-4183387D01*
X75623860Y-4178434D01*
X75622414Y-4173153D01*
X75574795Y-4077915D01*
X75569879Y-4071580D01*
X75565429Y-4064921D01*
X75470191Y-3969683D01*
X75468108Y-3968291D01*
X75467595Y-3967265D01*
X75460634Y-3963297D01*
X75453970Y-3958844D01*
X75452822Y-3958844D01*
X75450647Y-3957604D01*
X75450092Y-3957419D01*
X76003884Y-3957419D01*
X76003884Y-4957419D01*
X76007690Y-4976553D01*
X76012544Y-4981407D01*
X76014352Y-4988034D01*
X76025596Y-4994459D01*
X76034750Y-5003613D01*
X76041616Y-5003613D01*
X76047578Y-5007020D01*
X76060071Y-5003613D01*
X76073018Y-5003613D01*
X76077872Y-4998758D01*
X76084499Y-4996951D01*
X76097296Y-4982226D01*
X76575312Y-4145697D01*
X76575312Y-4957419D01*
X76579118Y-4976553D01*
X76606178Y-5003613D01*
X76644446Y-5003613D01*
X76671506Y-4976553D01*
X76675312Y-4957419D01*
X76675312Y-4385990D01*
X77003884Y-4385990D01*
X77003884Y-4528847D01*
X77005079Y-4534856D01*
X77005377Y-4540974D01*
X77052996Y-4731450D01*
X77055335Y-4736402D01*
X77056782Y-4741684D01*
X77104400Y-4836921D01*
X77109311Y-4843249D01*
X77113766Y-4849916D01*
X77209005Y-4945155D01*
X77211086Y-4946545D01*
X77211600Y-4947573D01*
X77218565Y-4951543D01*
X77225226Y-4955994D01*
X77226374Y-4955994D01*
X77228549Y-4957234D01*
X77371405Y-5004853D01*
X77379355Y-5005855D01*
X77387217Y-5007419D01*
X77625312Y-5007419D01*
X77644446Y-5003613D01*
X77671506Y-4976553D01*
X77675312Y-4957419D01*
X77675312Y-3957419D01*
X77671506Y-3938285D01*
X77644446Y-3911225D01*
X77625312Y-3907419D01*
X77387217Y-3907419D01*
X77379355Y-3908982D01*
X77371405Y-3909985D01*
X77228549Y-3957604D01*
X77226374Y-3958844D01*
X77225226Y-3958844D01*
X77218565Y-3963294D01*
X77211600Y-3967265D01*
X77211086Y-3968292D01*
X77209005Y-3969683D01*
X77113767Y-4064921D01*
X77109315Y-4071582D01*
X77104400Y-4077916D01*
X77056782Y-4173153D01*
X77055335Y-4178434D01*
X77052996Y-4183387D01*
X77005377Y-4373863D01*
X77005079Y-4379980D01*
X77003884Y-4385990D01*
X76675312Y-4385990D01*
X76675312Y-3957419D01*
X76671506Y-3938285D01*
X76666651Y-3933430D01*
X76664844Y-3926804D01*
X76653599Y-3920378D01*
X76644446Y-3911225D01*
X76637580Y-3911225D01*
X76631618Y-3907818D01*
X76619126Y-3911225D01*
X76606178Y-3911225D01*
X76601322Y-3916080D01*
X76594698Y-3917887D01*
X76581900Y-3932612D01*
X76103884Y-4769140D01*
X76103884Y-3957419D01*
X76100078Y-3938285D01*
X76073018Y-3911225D01*
X76034750Y-3911225D01*
X76007690Y-3938285D01*
X76003884Y-3957419D01*
X75450092Y-3957419D01*
X75307790Y-3909985D01*
X75299841Y-3908982D01*
X75291979Y-3907419D01*
X75196741Y-3907419D01*
X75188879Y-3908982D01*
X75180929Y-3909985D01*
X75038073Y-3957604D01*
X75035898Y-3958844D01*
X75034749Y-3958844D01*
X75028082Y-3963298D01*
X75021124Y-3967265D01*
X75020610Y-3968291D01*
X75018528Y-3969683D01*
X74970910Y-4017302D01*
X74960071Y-4033523D01*
X74848960Y-4033523D01*
X74848960Y-3796308D01*
X77786423Y-3796308D01*
X77786423Y-5118530D01*
G37*
G36*
X11868530Y-22951835D02*
G01*
X10546308Y-22951835D01*
X10546308Y-21942125D01*
X10658049Y-21942125D01*
X10678106Y-21974717D01*
X10695838Y-21982851D01*
X11503075Y-22175050D01*
X10980250Y-22314470D01*
X10962743Y-22323078D01*
X10959327Y-22328976D01*
X10953429Y-22332392D01*
X10950080Y-22344950D01*
X10943569Y-22356197D01*
X10945325Y-22362782D01*
X10943569Y-22369367D01*
X10950080Y-22380613D01*
X10953429Y-22393172D01*
X10959327Y-22396587D01*
X10962743Y-22402486D01*
X10980250Y-22411094D01*
X11503075Y-22550513D01*
X10695838Y-22742714D01*
X10678106Y-22750848D01*
X10658049Y-22783440D01*
X10666913Y-22820667D01*
X10699505Y-22840724D01*
X10719000Y-22839994D01*
X11719000Y-22601898D01*
X11736732Y-22593764D01*
X11740651Y-22587394D01*
X11747123Y-22583648D01*
X11750308Y-22571701D01*
X11756789Y-22561172D01*
X11755057Y-22553898D01*
X11756984Y-22546673D01*
X11750788Y-22535971D01*
X11747925Y-22523945D01*
X11741557Y-22520026D01*
X11737810Y-22513554D01*
X11720302Y-22504946D01*
X11187186Y-22362782D01*
X11720302Y-22220618D01*
X11737810Y-22212010D01*
X11741557Y-22205537D01*
X11747925Y-22201619D01*
X11750788Y-22189592D01*
X11756984Y-22178891D01*
X11755057Y-22171665D01*
X11756789Y-22164392D01*
X11750308Y-22153862D01*
X11747123Y-22141916D01*
X11740651Y-22138169D01*
X11736732Y-22131800D01*
X11719000Y-22123666D01*
X10719000Y-21885571D01*
X10699505Y-21884841D01*
X10666913Y-21904898D01*
X10658049Y-21942125D01*
X10546308Y-21942125D01*
X10546308Y-21219925D01*
X10657419Y-21219925D01*
X10657419Y-21458020D01*
X10658982Y-21465882D01*
X10659985Y-21473831D01*
X10707604Y-21616688D01*
X10717265Y-21633636D01*
X10751494Y-21650751D01*
X10787798Y-21638649D01*
X10804912Y-21604421D01*
X10802472Y-21585065D01*
X10757419Y-21449906D01*
X10757419Y-21231728D01*
X10796130Y-21154304D01*
X10832275Y-21118160D01*
X10909699Y-21079449D01*
X10981330Y-21079449D01*
X11058753Y-21118160D01*
X11094897Y-21154305D01*
X11136433Y-21237377D01*
X11182721Y-21422528D01*
X11185060Y-21427480D01*
X11186507Y-21432762D01*
X11234125Y-21527999D01*
X11239040Y-21534332D01*
X11243492Y-21540994D01*
X11291110Y-21588613D01*
X11297776Y-21593067D01*
X11304105Y-21597979D01*
X11399343Y-21645598D01*
X11401758Y-21646259D01*
X11402570Y-21647071D01*
X11410431Y-21648634D01*
X11418159Y-21650751D01*
X11419247Y-21650388D01*
X11421704Y-21650877D01*
X11516942Y-21650877D01*
X11519398Y-21650388D01*
X11520487Y-21650751D01*
X11528214Y-21648634D01*
X11536076Y-21647071D01*
X11536887Y-21646259D01*
X11539303Y-21645598D01*
X11634540Y-21597980D01*
X11640868Y-21593068D01*
X11647535Y-21588614D01*
X11695155Y-21540995D01*
X11699609Y-21534328D01*
X11704521Y-21528000D01*
X11752140Y-21432762D01*
X11752801Y-21430346D01*
X11753613Y-21429535D01*
X11755176Y-21421673D01*
X11757293Y-21413946D01*
X11756930Y-21412857D01*
X11757419Y-21410401D01*
X11757419Y-21172306D01*
X11755855Y-21164444D01*
X11754853Y-21156494D01*
X11707234Y-21013638D01*
X11697573Y-20996689D01*
X11663344Y-20979575D01*
X11627040Y-20991676D01*
X11609926Y-21025905D01*
X11612366Y-21045260D01*
X11657419Y-21180419D01*
X11657419Y-21398597D01*
X11618708Y-21476019D01*
X11582561Y-21512165D01*
X11505139Y-21550877D01*
X11433508Y-21550877D01*
X11356084Y-21512165D01*
X11319939Y-21476021D01*
X11278404Y-21392950D01*
X11232116Y-21207798D01*
X11229776Y-21202845D01*
X11228330Y-21197564D01*
X11180711Y-21102326D01*
X11175799Y-21095997D01*
X11171345Y-21089331D01*
X11123726Y-21041713D01*
X11117064Y-21037261D01*
X11110731Y-21032346D01*
X11015494Y-20984728D01*
X11013078Y-20984066D01*
X11012267Y-20983255D01*
X11004405Y-20981691D01*
X10996678Y-20979575D01*
X10995589Y-20979937D01*
X10993133Y-20979449D01*
X10897895Y-20979449D01*
X10895438Y-20979937D01*
X10894350Y-20979575D01*
X10886622Y-20981691D01*
X10878761Y-20983255D01*
X10877949Y-20984066D01*
X10875534Y-20984728D01*
X10780296Y-21032347D01*
X10773967Y-21037258D01*
X10767301Y-21041713D01*
X10719683Y-21089332D01*
X10715231Y-21095993D01*
X10710316Y-21102327D01*
X10662698Y-21197564D01*
X10662036Y-21199979D01*
X10661225Y-21200791D01*
X10659661Y-21208652D01*
X10657545Y-21216380D01*
X10657907Y-21217468D01*
X10657419Y-21219925D01*
X10546308Y-21219925D01*
X10546308Y-20372485D01*
X10658370Y-20372485D01*
X10661225Y-20376767D01*
X10661225Y-20381916D01*
X10671521Y-20392212D01*
X10679597Y-20404326D01*
X10684644Y-20405335D01*
X10688285Y-20408976D01*
X10707419Y-20412782D01*
X11657419Y-20412782D01*
X11657419Y-20648496D01*
X11661225Y-20667630D01*
X11688285Y-20694690D01*
X11726553Y-20694690D01*
X11753613Y-20667630D01*
X11757419Y-20648496D01*
X11757419Y-20077068D01*
X11753613Y-20057934D01*
X11726553Y-20030874D01*
X11688285Y-20030874D01*
X11661225Y-20057934D01*
X11657419Y-20077068D01*
X11657419Y-20312782D01*
X10872557Y-20312782D01*
X10878011Y-20309146D01*
X10881515Y-20305649D01*
X10885631Y-20302899D01*
X10980869Y-20207661D01*
X10985319Y-20201001D01*
X10990235Y-20194667D01*
X11037854Y-20099429D01*
X11043007Y-20080613D01*
X11030905Y-20044308D01*
X10996677Y-20027194D01*
X10960373Y-20039296D01*
X10948411Y-20054708D01*
X10904420Y-20142689D01*
X10818425Y-20228685D01*
X10679684Y-20321179D01*
X10665875Y-20334960D01*
X10664865Y-20340007D01*
X10661225Y-20343648D01*
X10661225Y-20358210D01*
X10658370Y-20372485D01*
X10546308Y-20372485D01*
X10546308Y-19916083D01*
X11868530Y-19916083D01*
X11868530Y-22951835D01*
G37*
%LPC*%
D11*
%TO.C,TP101*%
X69500000Y-7000000D03*
%TD*%
D12*
%TO.C,H102*%
X3750000Y-14250000D03*
%TD*%
D13*
%TO.C,J502*%
X9750000Y-15250000D03*
D14*
X9750000Y-13250000D03*
%TD*%
D15*
%TO.C,J101*%
X73250000Y-4510000D03*
D16*
X73250000Y-7050000D03*
X73250000Y-9590000D03*
X73250000Y-12130000D03*
X73250000Y-14670000D03*
X73250000Y-17210000D03*
X73250000Y-19750000D03*
%TD*%
D12*
%TO.C,H103*%
X73250000Y-24750000D03*
%TD*%
D17*
%TO.C,J401*%
X44460000Y-7750000D03*
D18*
X47000000Y-7750000D03*
D17*
X49540000Y-7750000D03*
X44460000Y-4575000D03*
X49540000Y-4575000D03*
D18*
X45984000Y-2670000D03*
X48016000Y-2670000D03*
%TD*%
D12*
%TO.C,H101*%
X62750000Y-3250000D03*
%TD*%
D19*
%TO.C,J504*%
X3250000Y-24500000D03*
D20*
X5250000Y-24500000D03*
X7250000Y-24500000D03*
X9250000Y-24500000D03*
X11250000Y-24500000D03*
%TD*%
D21*
%TO.C,J501*%
X11250000Y-4000000D03*
D20*
X9250000Y-4000000D03*
X7250000Y-4000000D03*
X5250000Y-4000000D03*
X3250000Y-4000000D03*
%TD*%
D11*
%TO.C,TP508*%
X11750000Y-8500000D03*
%TD*%
%LPD*%
M02*
