M48
; DRILL file {KiCad 8.0.4} date 2024-09-01T09:58:53+1200
; FORMAT={-:-/ absolute / inch / decimal}
; #@! TF.CreationDate,2024-09-01T09:58:53+12:00
; #@! TF.GenerationSoftware,Kicad,Pcbnew,8.0.4
; #@! TF.FileFunction,Plated,1,2,PTH
FMAT,2
INCH
; #@! TA.AperFunction,Plated,PTH,ComponentDrill
T1C0.0079
; #@! TA.AperFunction,Plated,PTH,ViaDrill
T2C0.0118
; #@! TA.AperFunction,Plated,PTH,ViaDrill
T3C0.0157
; #@! TA.AperFunction,Plated,PTH,ComponentDrill
T4C0.0295
; #@! TA.AperFunction,Plated,PTH,ComponentDrill
T5C0.0394
%
G90
G05
T1
X4.8465Y-2.5256
X4.8465Y-2.5807
X4.874Y-2.498
X4.874Y-2.5531
X4.874Y-2.6083
X4.9016Y-2.5256
X4.9016Y-2.5807
X4.9291Y-2.498
X4.9291Y-2.5531
X4.9291Y-2.6083
X4.9567Y-2.5256
X4.9567Y-2.5807
X5.5315Y-2.9114
X5.5315Y-2.9547
T2
X3.8351Y-2.7495
X3.9449Y-2.7874
X4.276Y-2.184
X4.38Y-2.66
X4.41Y-2.52
X4.41Y-2.94
X5.5315Y-2.8248
X5.5315Y-2.8543
X6.5157Y-2.5492
X6.5157Y-2.5787
X6.5157Y-2.6083
T3
X4.1339Y-2.815
X4.4783Y-2.1752
X4.5177Y-2.1752
X4.5571Y-2.1752
X4.6957Y-2.9634
X4.7356Y-2.9148
X5.0492Y-3.06
X5.2563Y-2.2642
X5.3051Y-2.2244
X5.3539Y-2.2642
X5.3937Y-3.0709
X5.4331Y-3.0709
X5.4724Y-3.0315
X5.4724Y-3.0709
X5.5118Y-3.0315
X5.5118Y-3.0709
X5.5512Y-3.0315
X5.5512Y-3.0709
X5.5906Y-3.0315
X5.5906Y-3.0709
X5.6004Y-2.4675
X5.6299Y-3.0709
X5.6496Y-2.1457
X5.9055Y-2.7559
X5.9055Y-2.7953
X5.9055Y-2.8346
X5.9055Y-2.874
X5.9449Y-2.7559
X5.9449Y-2.7953
X5.9449Y-2.8346
X5.9449Y-2.874
X6.063Y-2.5787
X6.122Y-2.5455
X6.2894Y-2.3425
T4
X3.8287Y-2.2047
X3.8287Y-3.0118
X3.9075Y-2.2047
X3.9075Y-3.0118
X3.9862Y-2.2047
X3.9862Y-3.0118
X4.065Y-2.2047
X4.065Y-3.0118
X4.0846Y-2.5689
X4.0846Y-2.6476
X4.1437Y-2.2047
X4.1437Y-3.0118
T5
X4.1634Y-2.3819
X6.437Y-2.3228
X6.5846Y-2.2248
X6.5846Y-2.3248
X6.5846Y-2.4248
X6.5846Y-2.5248
X6.5846Y-2.6248
X6.5846Y-2.7248
X6.5846Y-2.8248
M30
