M48
; DRILL file {KiCad 8.0.4} date 2024-09-04T11:51:27+1200
; FORMAT={-:-/ absolute / inch / decimal}
; #@! TF.CreationDate,2024-09-04T11:51:27+12:00
; #@! TF.GenerationSoftware,Kicad,Pcbnew,8.0.4
; #@! TF.FileFunction,Plated,1,2,PTH
FMAT,2
INCH
; #@! TA.AperFunction,Plated,PTH,ComponentDrill
T1C0.0079
; #@! TA.AperFunction,Plated,PTH,ViaDrill
T2C0.0118
; #@! TA.AperFunction,Plated,PTH,ViaDrill
T3C0.0157
; #@! TA.AperFunction,Plated,PTH,ComponentDrill
T4C0.0295
; #@! TA.AperFunction,Plated,PTH,ComponentDrill
T5C0.0394
%
G90
G05
T1
X1.1457Y-0.4783
X1.1457Y-0.5335
X1.1732Y-0.4508
X1.1732Y-0.5059
X1.1732Y-0.561
X1.2008Y-0.4783
X1.2008Y-0.5335
X1.2283Y-0.4508
X1.2283Y-0.5059
X1.2283Y-0.561
X1.2559Y-0.4783
X1.2559Y-0.5335
T2
X0.1344Y-0.7023
X0.2441Y-0.7402
X0.5753Y-0.1367
X0.6792Y-0.6128
X0.7092Y-0.4728
X0.7092Y-0.8928
X2.815Y-0.502
X2.815Y-0.5315
X2.815Y-0.561
T3
X0.4331Y-0.7677
X0.7776Y-0.128
X0.8169Y-0.128
X0.8563Y-0.128
X0.9949Y-0.9161
X1.0348Y-0.8675
X1.3484Y-1.0128
X1.5555Y-0.2169
X1.6043Y-0.1772
X1.6531Y-0.2169
X1.8996Y-0.4203
X1.9488Y-0.0984
X2.2047Y-0.7087
X2.2047Y-0.748
X2.2047Y-0.7874
X2.2047Y-0.8268
X2.2441Y-0.7087
X2.2441Y-0.748
X2.2441Y-0.7874
X2.2441Y-0.8268
X2.3622Y-0.5315
X2.4213Y-0.4982
X2.4705Y-0.2461
X2.4705Y-0.2854
X2.4705Y-0.3248
T4
X0.128Y-0.1575
X0.128Y-0.9646
X0.2067Y-0.1575
X0.2067Y-0.9646
X0.2854Y-0.1575
X0.2854Y-0.9646
X0.3642Y-0.1575
X0.3642Y-0.9646
X0.3839Y-0.5217
X0.3839Y-0.6004
X0.4429Y-0.1575
X0.4429Y-0.9646
T5
X0.4626Y-0.3346
X2.7362Y-0.2756
X2.8839Y-0.1776
X2.8839Y-0.2776
X2.8839Y-0.3776
X2.8839Y-0.4776
X2.8839Y-0.5776
X2.8839Y-0.6776
X2.8839Y-0.7776
M30
