%TF.GenerationSoftware,KiCad,Pcbnew,8.0.4*%
%TF.CreationDate,2024-09-01T09:58:53+12:00*%
%TF.ProjectId,CDRC,43445243-2e6b-4696-9361-645f70636258,A*%
%TF.SameCoordinates,Original*%
%TF.FileFunction,Paste,Top*%
%TF.FilePolarity,Positive*%
%FSLAX46Y46*%
G04 Gerber Fmt 4.6, Leading zero omitted, Abs format (unit mm)*
G04 Created by KiCad (PCBNEW 8.0.4) date 2024-09-01 09:58:53*
%MOMM*%
%LPD*%
G01*
G04 APERTURE LIST*
G04 Aperture macros list*
%AMRoundRect*
0 Rectangle with rounded corners*
0 $1 Rounding radius*
0 $2 $3 $4 $5 $6 $7 $8 $9 X,Y pos of 4 corners*
0 Add a 4 corners polygon primitive as box body*
4,1,4,$2,$3,$4,$5,$6,$7,$8,$9,$2,$3,0*
0 Add four circle primitives for the rounded corners*
1,1,$1+$1,$2,$3*
1,1,$1+$1,$4,$5*
1,1,$1+$1,$6,$7*
1,1,$1+$1,$8,$9*
0 Add four rect primitives between the rounded corners*
20,1,$1+$1,$2,$3,$4,$5,0*
20,1,$1+$1,$4,$5,$6,$7,0*
20,1,$1+$1,$6,$7,$8,$9,0*
20,1,$1+$1,$8,$9,$2,$3,0*%
G04 Aperture macros list end*
%ADD10RoundRect,0.237500X-0.237500X0.300000X-0.237500X-0.300000X0.237500X-0.300000X0.237500X0.300000X0*%
%ADD11RoundRect,0.237500X0.300000X0.237500X-0.300000X0.237500X-0.300000X-0.237500X0.300000X-0.237500X0*%
%ADD12RoundRect,0.237500X0.237500X-0.250000X0.237500X0.250000X-0.237500X0.250000X-0.237500X-0.250000X0*%
%ADD13RoundRect,0.237500X-0.237500X0.250000X-0.237500X-0.250000X0.237500X-0.250000X0.237500X0.250000X0*%
%ADD14RoundRect,0.250000X-0.337500X-0.475000X0.337500X-0.475000X0.337500X0.475000X-0.337500X0.475000X0*%
%ADD15RoundRect,0.237500X0.250000X0.237500X-0.250000X0.237500X-0.250000X-0.237500X0.250000X-0.237500X0*%
%ADD16RoundRect,0.237500X-0.250000X-0.237500X0.250000X-0.237500X0.250000X0.237500X-0.250000X0.237500X0*%
%ADD17RoundRect,0.237500X0.237500X-0.300000X0.237500X0.300000X-0.237500X0.300000X-0.237500X-0.300000X0*%
%ADD18RoundRect,0.250000X-0.475000X0.337500X-0.475000X-0.337500X0.475000X-0.337500X0.475000X0.337500X0*%
%ADD19R,1.500000X0.900000*%
%ADD20R,0.900000X1.500000*%
%ADD21R,0.900000X0.900000*%
%ADD22RoundRect,0.150000X0.150000X-0.587500X0.150000X0.587500X-0.150000X0.587500X-0.150000X-0.587500X0*%
%ADD23RoundRect,0.250000X0.475000X-0.337500X0.475000X0.337500X-0.475000X0.337500X-0.475000X-0.337500X0*%
%ADD24R,0.250000X1.000000*%
%ADD25R,0.450000X1.000000*%
%ADD26RoundRect,0.150000X-0.825000X-0.150000X0.825000X-0.150000X0.825000X0.150000X-0.825000X0.150000X0*%
%ADD27RoundRect,0.237500X0.287500X0.237500X-0.287500X0.237500X-0.287500X-0.237500X0.287500X-0.237500X0*%
%ADD28RoundRect,0.172500X-0.262500X-0.172500X0.262500X-0.172500X0.262500X0.172500X-0.262500X0.172500X0*%
%ADD29RoundRect,0.093750X-0.093750X-0.106250X0.093750X-0.106250X0.093750X0.106250X-0.093750X0.106250X0*%
%ADD30RoundRect,0.250001X-0.624999X0.462499X-0.624999X-0.462499X0.624999X-0.462499X0.624999X0.462499X0*%
%ADD31RoundRect,0.237500X0.237500X-0.287500X0.237500X0.287500X-0.237500X0.287500X-0.237500X-0.287500X0*%
%ADD32RoundRect,0.150000X0.512500X0.150000X-0.512500X0.150000X-0.512500X-0.150000X0.512500X-0.150000X0*%
%ADD33RoundRect,0.250000X-0.650000X1.500000X-0.650000X-1.500000X0.650000X-1.500000X0.650000X1.500000X0*%
%ADD34R,1.500000X2.500000*%
%ADD35RoundRect,0.237500X-0.300000X-0.237500X0.300000X-0.237500X0.300000X0.237500X-0.300000X0.237500X0*%
%ADD36RoundRect,0.150000X-0.587500X-0.150000X0.587500X-0.150000X0.587500X0.150000X-0.587500X0.150000X0*%
%ADD37RoundRect,0.250000X0.412500X0.650000X-0.412500X0.650000X-0.412500X-0.650000X0.412500X-0.650000X0*%
%ADD38RoundRect,0.250000X0.250000X0.250000X-0.250000X0.250000X-0.250000X-0.250000X0.250000X-0.250000X0*%
G04 APERTURE END LIST*
D10*
%TO.C,C503*%
X112014000Y-61367500D03*
X112014000Y-63092500D03*
%TD*%
D11*
%TO.C,C401*%
X118862500Y-55250000D03*
X117137500Y-55250000D03*
%TD*%
D12*
%TO.C,R305*%
X142250000Y-65412500D03*
X142250000Y-63587500D03*
%TD*%
D13*
%TO.C,R505*%
X96500000Y-69837500D03*
X96500000Y-71662500D03*
%TD*%
D14*
%TO.C,C205*%
X146462500Y-72250000D03*
X148537500Y-72250000D03*
%TD*%
%TO.C,C204*%
X146462500Y-70250000D03*
X148537500Y-70250000D03*
%TD*%
D15*
%TO.C,R512*%
X110386500Y-75692000D03*
X108561500Y-75692000D03*
%TD*%
D10*
%TO.C,C501*%
X112014000Y-72035500D03*
X112014000Y-73760500D03*
%TD*%
D15*
%TO.C,R304*%
X158912500Y-63750000D03*
X157087500Y-63750000D03*
%TD*%
%TO.C,R515*%
X110386500Y-65024000D03*
X108561500Y-65024000D03*
%TD*%
D16*
%TO.C,R302*%
X157087500Y-61750000D03*
X158912500Y-61750000D03*
%TD*%
D17*
%TO.C,C505*%
X112014000Y-77316500D03*
X112014000Y-75591500D03*
%TD*%
D18*
%TO.C,C206*%
X143500000Y-73962500D03*
X143500000Y-76037500D03*
%TD*%
D19*
%TO.C,U401*%
X117250000Y-57510000D03*
X117250000Y-58780000D03*
X117250000Y-60050000D03*
X117250000Y-61320000D03*
X117250000Y-62590000D03*
X117250000Y-63860000D03*
X117250000Y-65130000D03*
X117250000Y-66400000D03*
X117250000Y-67670000D03*
X117250000Y-68940000D03*
X117250000Y-70210000D03*
X117250000Y-71480000D03*
X117250000Y-72750000D03*
X117250000Y-74020000D03*
D20*
X120285000Y-75270000D03*
X121555000Y-75270000D03*
X122825000Y-75270000D03*
X124095000Y-75270000D03*
X125365000Y-75270000D03*
X126635000Y-75270000D03*
X127905000Y-75270000D03*
X129175000Y-75270000D03*
X130445000Y-75270000D03*
X131715000Y-75270000D03*
D19*
X134750000Y-74020000D03*
X134750000Y-72750000D03*
X134750000Y-71480000D03*
X134750000Y-70210000D03*
X134750000Y-68940000D03*
X134750000Y-67670000D03*
X134750000Y-66400000D03*
X134750000Y-65130000D03*
X134750000Y-63860000D03*
X134750000Y-62590000D03*
X134750000Y-61320000D03*
X134750000Y-60050000D03*
X134750000Y-58780000D03*
X134750000Y-57510000D03*
D21*
X123100000Y-63450000D03*
X123100000Y-64850000D03*
X123100000Y-66250000D03*
X124500000Y-63450000D03*
X124500000Y-64850000D03*
X124500000Y-66250000D03*
X125900000Y-63450000D03*
X125900000Y-64850000D03*
X125900000Y-66250000D03*
%TD*%
D22*
%TO.C,Q501*%
X98300000Y-71937500D03*
X100200000Y-71937500D03*
X99250000Y-70062500D03*
%TD*%
D15*
%TO.C,R301*%
X149412500Y-58750000D03*
X147587500Y-58750000D03*
%TD*%
D16*
%TO.C,R504*%
X108561500Y-68580000D03*
X110386500Y-68580000D03*
%TD*%
D23*
%TO.C,C207*%
X137500000Y-76037500D03*
X137500000Y-73962500D03*
%TD*%
D24*
%TO.C,U501*%
X101500000Y-72625000D03*
X102000000Y-72625000D03*
D25*
X102500000Y-72550000D03*
D24*
X103000000Y-72625000D03*
X103500000Y-72625000D03*
X103500000Y-71475000D03*
X103000000Y-71475000D03*
D25*
X102500000Y-71425000D03*
D24*
X102000000Y-71475000D03*
X101500000Y-71475000D03*
%TD*%
D26*
%TO.C,IC301*%
X149025000Y-60845000D03*
X149025000Y-62115000D03*
X149025000Y-63385000D03*
X149025000Y-64655000D03*
X153975000Y-64655000D03*
X153975000Y-63385000D03*
X153975000Y-62115000D03*
X153975000Y-60845000D03*
%TD*%
D16*
%TO.C,R509*%
X108561500Y-59690000D03*
X110386500Y-59690000D03*
%TD*%
D17*
%TO.C,C502*%
X112014000Y-70204500D03*
X112014000Y-68479500D03*
%TD*%
%TO.C,C506*%
X112014000Y-66648500D03*
X112014000Y-64923500D03*
%TD*%
D16*
%TO.C,R513*%
X108561500Y-77470000D03*
X110386500Y-77470000D03*
%TD*%
%TO.C,R511*%
X108587500Y-58000000D03*
X110412500Y-58000000D03*
%TD*%
D13*
%TO.C,R503*%
X113750000Y-75337500D03*
X113750000Y-77162500D03*
%TD*%
D15*
%TO.C,R502*%
X110386500Y-72136000D03*
X108561500Y-72136000D03*
%TD*%
D11*
%TO.C,C201*%
X153862500Y-78000000D03*
X152137500Y-78000000D03*
%TD*%
D27*
%TO.C,D401*%
X126875000Y-77724000D03*
X125125000Y-77724000D03*
%TD*%
D28*
%TO.C,U202*%
X140500000Y-74100000D03*
X140500000Y-74900000D03*
D29*
X139612500Y-73850000D03*
X139612500Y-74500000D03*
X139612500Y-75150000D03*
X141387500Y-75150000D03*
X141387500Y-74500000D03*
X141387500Y-73850000D03*
%TD*%
D30*
%TO.C,F201*%
X161500000Y-72512500D03*
X161500000Y-75487500D03*
%TD*%
D31*
%TO.C,F202*%
X137500000Y-71875000D03*
X137500000Y-70125000D03*
%TD*%
D32*
%TO.C,U201*%
X154887500Y-75950000D03*
X154887500Y-75000000D03*
X154887500Y-74050000D03*
X152612500Y-74050000D03*
X152612500Y-75000000D03*
X152612500Y-75950000D03*
%TD*%
D33*
%TO.C,D202*%
X158250000Y-71500000D03*
X158250000Y-76500000D03*
%TD*%
D34*
%TO.C,L201*%
X150350000Y-76000000D03*
X146650000Y-76000000D03*
%TD*%
D16*
%TO.C,R508*%
X108561500Y-63246000D03*
X110386500Y-63246000D03*
%TD*%
%TO.C,R514*%
X108561500Y-66802000D03*
X110386500Y-66802000D03*
%TD*%
%TO.C,R401*%
X113587500Y-60250000D03*
X115412500Y-60250000D03*
%TD*%
D23*
%TO.C,C402*%
X113500000Y-58537500D03*
X113500000Y-56462500D03*
%TD*%
D35*
%TO.C,C301*%
X153887500Y-59250000D03*
X155612500Y-59250000D03*
%TD*%
D36*
%TO.C,D301*%
X162562500Y-64550000D03*
X162562500Y-66450000D03*
X164437500Y-65500000D03*
%TD*%
D12*
%TO.C,R201*%
X142748000Y-69492500D03*
X142748000Y-67667500D03*
%TD*%
D11*
%TO.C,C504*%
X110336500Y-56388000D03*
X108611500Y-56388000D03*
%TD*%
D15*
%TO.C,R510*%
X110386500Y-61468000D03*
X108561500Y-61468000D03*
%TD*%
D16*
%TO.C,R501*%
X96877500Y-61214000D03*
X98702500Y-61214000D03*
%TD*%
%TO.C,R506*%
X108561500Y-70358000D03*
X110386500Y-70358000D03*
%TD*%
D24*
%TO.C,U502*%
X103500000Y-59675000D03*
X103000000Y-59675000D03*
D25*
X102500000Y-59750000D03*
D24*
X102000000Y-59675000D03*
X101500000Y-59675000D03*
X101500000Y-60825000D03*
X102000000Y-60825000D03*
D25*
X102500000Y-60875000D03*
D24*
X103000000Y-60825000D03*
X103500000Y-60825000D03*
%TD*%
D37*
%TO.C,C203*%
X155562500Y-72000000D03*
X152437500Y-72000000D03*
%TD*%
D13*
%TO.C,R303*%
X160750000Y-63587500D03*
X160750000Y-65412500D03*
%TD*%
D16*
%TO.C,R403*%
X137587500Y-68250000D03*
X139412500Y-68250000D03*
%TD*%
D37*
%TO.C,C202*%
X155562500Y-69500000D03*
X152437500Y-69500000D03*
%TD*%
D38*
%TO.C,D201*%
X141750000Y-72000000D03*
X139250000Y-72000000D03*
%TD*%
D16*
%TO.C,R507*%
X108561500Y-73914000D03*
X110386500Y-73914000D03*
%TD*%
D13*
%TO.C,R402*%
X115250000Y-75337500D03*
X115250000Y-77162500D03*
%TD*%
D17*
%TO.C,C403*%
X115500000Y-58612500D03*
X115500000Y-56887500D03*
%TD*%
M02*
