%TF.GenerationSoftware,KiCad,Pcbnew,8.0.4*%
%TF.CreationDate,2024-11-19T13:09:34+13:00*%
%TF.ProjectId,CDRC,43445243-2e6b-4696-9361-645f70636258,B*%
%TF.SameCoordinates,Original*%
%TF.FileFunction,Legend,Bot*%
%TF.FilePolarity,Positive*%
%FSLAX46Y46*%
G04 Gerber Fmt 4.6, Leading zero omitted, Abs format (unit mm)*
G04 Created by KiCad (PCBNEW 8.0.4) date 2024-11-19 13:09:34*
%MOMM*%
%LPD*%
G01*
G04 APERTURE LIST*
%ADD10C,1.000000*%
%ADD11C,0.100000*%
%ADD12C,0.400000*%
%ADD13C,0.125000*%
%ADD14C,2.000000*%
%ADD15R,1.700000X1.700000*%
%ADD16O,1.700000X1.700000*%
%ADD17C,2.374900*%
%ADD18C,0.990600*%
%ADD19C,3.100000*%
%ADD20C,4.500000*%
G04 APERTURE END LIST*
D10*
X42500000Y-19000000D02*
X42500000Y-6500000D01*
X26500000Y-20000000D02*
X41500000Y-20000000D01*
D11*
X78500000Y-11000000D02*
X85000000Y-11000000D01*
D10*
X42500000Y-19000000D02*
G75*
G02*
X41500000Y-20000000I-1000000J0D01*
G01*
D11*
X17500000Y-2050000D02*
X26500000Y-2050000D01*
X26500000Y-36950000D01*
X17500000Y-36950000D01*
X17500000Y-2050000D01*
G36*
X17500000Y-2050000D02*
G01*
X26500000Y-2050000D01*
X26500000Y-36950000D01*
X17500000Y-36950000D01*
X17500000Y-2050000D01*
G37*
X85000000Y-29250000D02*
X78500000Y-29250000D01*
X44500000Y-4500000D02*
G75*
G02*
X40500000Y-4500000I-2000000J0D01*
G01*
X40500000Y-4500000D02*
G75*
G02*
X44500000Y-4500000I2000000J0D01*
G01*
X78500000Y-29250000D02*
X78500000Y-12250000D01*
X45250000Y-4500000D02*
G75*
G02*
X39750000Y-4500000I-2750000J0D01*
G01*
X39750000Y-4500000D02*
G75*
G02*
X45250000Y-4500000I2750000J0D01*
G01*
X78500000Y-12250000D02*
X78500000Y-11000000D01*
X3351503Y-33505038D02*
X3446741Y-33457419D01*
X3446741Y-33457419D02*
X3589598Y-33457419D01*
X3589598Y-33457419D02*
X3732455Y-33505038D01*
X3732455Y-33505038D02*
X3827693Y-33600276D01*
X3827693Y-33600276D02*
X3875312Y-33695514D01*
X3875312Y-33695514D02*
X3922931Y-33885990D01*
X3922931Y-33885990D02*
X3922931Y-34028847D01*
X3922931Y-34028847D02*
X3875312Y-34219323D01*
X3875312Y-34219323D02*
X3827693Y-34314561D01*
X3827693Y-34314561D02*
X3732455Y-34409800D01*
X3732455Y-34409800D02*
X3589598Y-34457419D01*
X3589598Y-34457419D02*
X3494360Y-34457419D01*
X3494360Y-34457419D02*
X3351503Y-34409800D01*
X3351503Y-34409800D02*
X3303884Y-34362180D01*
X3303884Y-34362180D02*
X3303884Y-34028847D01*
X3303884Y-34028847D02*
X3494360Y-34028847D01*
X2875312Y-34457419D02*
X2875312Y-33457419D01*
X2875312Y-33457419D02*
X2303884Y-34457419D01*
X2303884Y-34457419D02*
X2303884Y-33457419D01*
X1827693Y-34457419D02*
X1827693Y-33457419D01*
X1827693Y-33457419D02*
X1589598Y-33457419D01*
X1589598Y-33457419D02*
X1446741Y-33505038D01*
X1446741Y-33505038D02*
X1351503Y-33600276D01*
X1351503Y-33600276D02*
X1303884Y-33695514D01*
X1303884Y-33695514D02*
X1256265Y-33885990D01*
X1256265Y-33885990D02*
X1256265Y-34028847D01*
X1256265Y-34028847D02*
X1303884Y-34219323D01*
X1303884Y-34219323D02*
X1351503Y-34314561D01*
X1351503Y-34314561D02*
X1446741Y-34409800D01*
X1446741Y-34409800D02*
X1589598Y-34457419D01*
X1589598Y-34457419D02*
X1827693Y-34457419D01*
X76119048Y-1957419D02*
X76119048Y-2671704D01*
X76119048Y-2671704D02*
X76166667Y-2814561D01*
X76166667Y-2814561D02*
X76261905Y-2909800D01*
X76261905Y-2909800D02*
X76404762Y-2957419D01*
X76404762Y-2957419D02*
X76500000Y-2957419D01*
X75166667Y-2957419D02*
X75642857Y-2957419D01*
X75642857Y-2957419D02*
X75642857Y-1957419D01*
X74261905Y-2862180D02*
X74309524Y-2909800D01*
X74309524Y-2909800D02*
X74452381Y-2957419D01*
X74452381Y-2957419D02*
X74547619Y-2957419D01*
X74547619Y-2957419D02*
X74690476Y-2909800D01*
X74690476Y-2909800D02*
X74785714Y-2814561D01*
X74785714Y-2814561D02*
X74833333Y-2719323D01*
X74833333Y-2719323D02*
X74880952Y-2528847D01*
X74880952Y-2528847D02*
X74880952Y-2385990D01*
X74880952Y-2385990D02*
X74833333Y-2195514D01*
X74833333Y-2195514D02*
X74785714Y-2100276D01*
X74785714Y-2100276D02*
X74690476Y-2005038D01*
X74690476Y-2005038D02*
X74547619Y-1957419D01*
X74547619Y-1957419D02*
X74452381Y-1957419D01*
X74452381Y-1957419D02*
X74309524Y-2005038D01*
X74309524Y-2005038D02*
X74261905Y-2052657D01*
X73547619Y-1957419D02*
X73547619Y-2671704D01*
X73547619Y-2671704D02*
X73595238Y-2814561D01*
X73595238Y-2814561D02*
X73690476Y-2909800D01*
X73690476Y-2909800D02*
X73833333Y-2957419D01*
X73833333Y-2957419D02*
X73928571Y-2957419D01*
X72595238Y-2957419D02*
X73071428Y-2957419D01*
X73071428Y-2957419D02*
X73071428Y-1957419D01*
X71690476Y-2862180D02*
X71738095Y-2909800D01*
X71738095Y-2909800D02*
X71880952Y-2957419D01*
X71880952Y-2957419D02*
X71976190Y-2957419D01*
X71976190Y-2957419D02*
X72119047Y-2909800D01*
X72119047Y-2909800D02*
X72214285Y-2814561D01*
X72214285Y-2814561D02*
X72261904Y-2719323D01*
X72261904Y-2719323D02*
X72309523Y-2528847D01*
X72309523Y-2528847D02*
X72309523Y-2385990D01*
X72309523Y-2385990D02*
X72261904Y-2195514D01*
X72261904Y-2195514D02*
X72214285Y-2100276D01*
X72214285Y-2100276D02*
X72119047Y-2005038D01*
X72119047Y-2005038D02*
X71976190Y-1957419D01*
X71976190Y-1957419D02*
X71880952Y-1957419D01*
X71880952Y-1957419D02*
X71738095Y-2005038D01*
X71738095Y-2005038D02*
X71690476Y-2052657D01*
X70976190Y-1957419D02*
X70976190Y-2671704D01*
X70976190Y-2671704D02*
X71023809Y-2814561D01*
X71023809Y-2814561D02*
X71119047Y-2909800D01*
X71119047Y-2909800D02*
X71261904Y-2957419D01*
X71261904Y-2957419D02*
X71357142Y-2957419D01*
X70023809Y-2957419D02*
X70499999Y-2957419D01*
X70499999Y-2957419D02*
X70499999Y-1957419D01*
X69119047Y-2862180D02*
X69166666Y-2909800D01*
X69166666Y-2909800D02*
X69309523Y-2957419D01*
X69309523Y-2957419D02*
X69404761Y-2957419D01*
X69404761Y-2957419D02*
X69547618Y-2909800D01*
X69547618Y-2909800D02*
X69642856Y-2814561D01*
X69642856Y-2814561D02*
X69690475Y-2719323D01*
X69690475Y-2719323D02*
X69738094Y-2528847D01*
X69738094Y-2528847D02*
X69738094Y-2385990D01*
X69738094Y-2385990D02*
X69690475Y-2195514D01*
X69690475Y-2195514D02*
X69642856Y-2100276D01*
X69642856Y-2100276D02*
X69547618Y-2005038D01*
X69547618Y-2005038D02*
X69404761Y-1957419D01*
X69404761Y-1957419D02*
X69309523Y-1957419D01*
X69309523Y-1957419D02*
X69166666Y-2005038D01*
X69166666Y-2005038D02*
X69119047Y-2052657D01*
X68404761Y-1957419D02*
X68404761Y-2671704D01*
X68404761Y-2671704D02*
X68452380Y-2814561D01*
X68452380Y-2814561D02*
X68547618Y-2909800D01*
X68547618Y-2909800D02*
X68690475Y-2957419D01*
X68690475Y-2957419D02*
X68785713Y-2957419D01*
X67452380Y-2957419D02*
X67928570Y-2957419D01*
X67928570Y-2957419D02*
X67928570Y-1957419D01*
X66547618Y-2862180D02*
X66595237Y-2909800D01*
X66595237Y-2909800D02*
X66738094Y-2957419D01*
X66738094Y-2957419D02*
X66833332Y-2957419D01*
X66833332Y-2957419D02*
X66976189Y-2909800D01*
X66976189Y-2909800D02*
X67071427Y-2814561D01*
X67071427Y-2814561D02*
X67119046Y-2719323D01*
X67119046Y-2719323D02*
X67166665Y-2528847D01*
X67166665Y-2528847D02*
X67166665Y-2385990D01*
X67166665Y-2385990D02*
X67119046Y-2195514D01*
X67119046Y-2195514D02*
X67071427Y-2100276D01*
X67071427Y-2100276D02*
X66976189Y-2005038D01*
X66976189Y-2005038D02*
X66833332Y-1957419D01*
X66833332Y-1957419D02*
X66738094Y-1957419D01*
X66738094Y-1957419D02*
X66595237Y-2005038D01*
X66595237Y-2005038D02*
X66547618Y-2052657D01*
X83166666Y-23005038D02*
X83261904Y-22957419D01*
X83261904Y-22957419D02*
X83404761Y-22957419D01*
X83404761Y-22957419D02*
X83547618Y-23005038D01*
X83547618Y-23005038D02*
X83642856Y-23100276D01*
X83642856Y-23100276D02*
X83690475Y-23195514D01*
X83690475Y-23195514D02*
X83738094Y-23385990D01*
X83738094Y-23385990D02*
X83738094Y-23528847D01*
X83738094Y-23528847D02*
X83690475Y-23719323D01*
X83690475Y-23719323D02*
X83642856Y-23814561D01*
X83642856Y-23814561D02*
X83547618Y-23909800D01*
X83547618Y-23909800D02*
X83404761Y-23957419D01*
X83404761Y-23957419D02*
X83309523Y-23957419D01*
X83309523Y-23957419D02*
X83166666Y-23909800D01*
X83166666Y-23909800D02*
X83119047Y-23862180D01*
X83119047Y-23862180D02*
X83119047Y-23528847D01*
X83119047Y-23528847D02*
X83309523Y-23528847D01*
X82119047Y-23957419D02*
X82452380Y-23481228D01*
X82690475Y-23957419D02*
X82690475Y-22957419D01*
X82690475Y-22957419D02*
X82309523Y-22957419D01*
X82309523Y-22957419D02*
X82214285Y-23005038D01*
X82214285Y-23005038D02*
X82166666Y-23052657D01*
X82166666Y-23052657D02*
X82119047Y-23147895D01*
X82119047Y-23147895D02*
X82119047Y-23290752D01*
X82119047Y-23290752D02*
X82166666Y-23385990D01*
X82166666Y-23385990D02*
X82214285Y-23433609D01*
X82214285Y-23433609D02*
X82309523Y-23481228D01*
X82309523Y-23481228D02*
X82690475Y-23481228D01*
X81690475Y-23433609D02*
X81357142Y-23433609D01*
X81214285Y-23957419D02*
X81690475Y-23957419D01*
X81690475Y-23957419D02*
X81690475Y-22957419D01*
X81690475Y-22957419D02*
X81214285Y-22957419D01*
X80785713Y-23433609D02*
X80452380Y-23433609D01*
X80309523Y-23957419D02*
X80785713Y-23957419D01*
X80785713Y-23957419D02*
X80785713Y-22957419D01*
X80785713Y-22957419D02*
X80309523Y-22957419D01*
X79880951Y-23957419D02*
X79880951Y-22957419D01*
X79880951Y-22957419D02*
X79309523Y-23957419D01*
X79309523Y-23957419D02*
X79309523Y-22957419D01*
X3351503Y-29505038D02*
X3446741Y-29457419D01*
X3446741Y-29457419D02*
X3589598Y-29457419D01*
X3589598Y-29457419D02*
X3732455Y-29505038D01*
X3732455Y-29505038D02*
X3827693Y-29600276D01*
X3827693Y-29600276D02*
X3875312Y-29695514D01*
X3875312Y-29695514D02*
X3922931Y-29885990D01*
X3922931Y-29885990D02*
X3922931Y-30028847D01*
X3922931Y-30028847D02*
X3875312Y-30219323D01*
X3875312Y-30219323D02*
X3827693Y-30314561D01*
X3827693Y-30314561D02*
X3732455Y-30409800D01*
X3732455Y-30409800D02*
X3589598Y-30457419D01*
X3589598Y-30457419D02*
X3494360Y-30457419D01*
X3494360Y-30457419D02*
X3351503Y-30409800D01*
X3351503Y-30409800D02*
X3303884Y-30362180D01*
X3303884Y-30362180D02*
X3303884Y-30028847D01*
X3303884Y-30028847D02*
X3494360Y-30028847D01*
X2875312Y-30457419D02*
X2875312Y-29457419D01*
X2875312Y-29457419D02*
X2303884Y-30457419D01*
X2303884Y-30457419D02*
X2303884Y-29457419D01*
X1827693Y-30457419D02*
X1827693Y-29457419D01*
X1827693Y-29457419D02*
X1589598Y-29457419D01*
X1589598Y-29457419D02*
X1446741Y-29505038D01*
X1446741Y-29505038D02*
X1351503Y-29600276D01*
X1351503Y-29600276D02*
X1303884Y-29695514D01*
X1303884Y-29695514D02*
X1256265Y-29885990D01*
X1256265Y-29885990D02*
X1256265Y-30028847D01*
X1256265Y-30028847D02*
X1303884Y-30219323D01*
X1303884Y-30219323D02*
X1351503Y-30314561D01*
X1351503Y-30314561D02*
X1446741Y-30409800D01*
X1446741Y-30409800D02*
X1589598Y-30457419D01*
X1589598Y-30457419D02*
X1827693Y-30457419D01*
X7589598Y-11933609D02*
X7256265Y-11933609D01*
X7113408Y-12457419D02*
X7589598Y-12457419D01*
X7589598Y-12457419D02*
X7589598Y-11457419D01*
X7589598Y-11457419D02*
X7113408Y-11457419D01*
X6684836Y-12457419D02*
X6684836Y-11457419D01*
X6684836Y-11457419D02*
X6113408Y-12457419D01*
X6113408Y-12457419D02*
X6113408Y-11457419D01*
X5065789Y-12362180D02*
X5113408Y-12409800D01*
X5113408Y-12409800D02*
X5256265Y-12457419D01*
X5256265Y-12457419D02*
X5351503Y-12457419D01*
X5351503Y-12457419D02*
X5494360Y-12409800D01*
X5494360Y-12409800D02*
X5589598Y-12314561D01*
X5589598Y-12314561D02*
X5637217Y-12219323D01*
X5637217Y-12219323D02*
X5684836Y-12028847D01*
X5684836Y-12028847D02*
X5684836Y-11885990D01*
X5684836Y-11885990D02*
X5637217Y-11695514D01*
X5637217Y-11695514D02*
X5589598Y-11600276D01*
X5589598Y-11600276D02*
X5494360Y-11505038D01*
X5494360Y-11505038D02*
X5351503Y-11457419D01*
X5351503Y-11457419D02*
X5256265Y-11457419D01*
X5256265Y-11457419D02*
X5113408Y-11505038D01*
X5113408Y-11505038D02*
X5065789Y-11552657D01*
X4875313Y-12552657D02*
X4113408Y-12552657D01*
X3922931Y-11552657D02*
X3875312Y-11505038D01*
X3875312Y-11505038D02*
X3780074Y-11457419D01*
X3780074Y-11457419D02*
X3541979Y-11457419D01*
X3541979Y-11457419D02*
X3446741Y-11505038D01*
X3446741Y-11505038D02*
X3399122Y-11552657D01*
X3399122Y-11552657D02*
X3351503Y-11647895D01*
X3351503Y-11647895D02*
X3351503Y-11743133D01*
X3351503Y-11743133D02*
X3399122Y-11885990D01*
X3399122Y-11885990D02*
X3970550Y-12457419D01*
X3970550Y-12457419D02*
X3351503Y-12457419D01*
X2970550Y-12409800D02*
X2827693Y-12457419D01*
X2827693Y-12457419D02*
X2589598Y-12457419D01*
X2589598Y-12457419D02*
X2494360Y-12409800D01*
X2494360Y-12409800D02*
X2446741Y-12362180D01*
X2446741Y-12362180D02*
X2399122Y-12266942D01*
X2399122Y-12266942D02*
X2399122Y-12171704D01*
X2399122Y-12171704D02*
X2446741Y-12076466D01*
X2446741Y-12076466D02*
X2494360Y-12028847D01*
X2494360Y-12028847D02*
X2589598Y-11981228D01*
X2589598Y-11981228D02*
X2780074Y-11933609D01*
X2780074Y-11933609D02*
X2875312Y-11885990D01*
X2875312Y-11885990D02*
X2922931Y-11838371D01*
X2922931Y-11838371D02*
X2970550Y-11743133D01*
X2970550Y-11743133D02*
X2970550Y-11647895D01*
X2970550Y-11647895D02*
X2922931Y-11552657D01*
X2922931Y-11552657D02*
X2875312Y-11505038D01*
X2875312Y-11505038D02*
X2780074Y-11457419D01*
X2780074Y-11457419D02*
X2541979Y-11457419D01*
X2541979Y-11457419D02*
X2399122Y-11505038D01*
X2065788Y-11457419D02*
X1827693Y-12457419D01*
X1827693Y-12457419D02*
X1637217Y-11743133D01*
X1637217Y-11743133D02*
X1446741Y-12457419D01*
X1446741Y-12457419D02*
X1208646Y-11457419D01*
X82142857Y-21457419D02*
X82476190Y-20981228D01*
X82714285Y-21457419D02*
X82714285Y-20457419D01*
X82714285Y-20457419D02*
X82333333Y-20457419D01*
X82333333Y-20457419D02*
X82238095Y-20505038D01*
X82238095Y-20505038D02*
X82190476Y-20552657D01*
X82190476Y-20552657D02*
X82142857Y-20647895D01*
X82142857Y-20647895D02*
X82142857Y-20790752D01*
X82142857Y-20790752D02*
X82190476Y-20885990D01*
X82190476Y-20885990D02*
X82238095Y-20933609D01*
X82238095Y-20933609D02*
X82333333Y-20981228D01*
X82333333Y-20981228D02*
X82714285Y-20981228D01*
X81714285Y-20933609D02*
X81380952Y-20933609D01*
X81238095Y-21457419D02*
X81714285Y-21457419D01*
X81714285Y-21457419D02*
X81714285Y-20457419D01*
X81714285Y-20457419D02*
X81238095Y-20457419D01*
X80809523Y-21457419D02*
X80809523Y-20457419D01*
X80809523Y-20457419D02*
X80571428Y-20457419D01*
X80571428Y-20457419D02*
X80428571Y-20505038D01*
X80428571Y-20505038D02*
X80333333Y-20600276D01*
X80333333Y-20600276D02*
X80285714Y-20695514D01*
X80285714Y-20695514D02*
X80238095Y-20885990D01*
X80238095Y-20885990D02*
X80238095Y-21028847D01*
X80238095Y-21028847D02*
X80285714Y-21219323D01*
X80285714Y-21219323D02*
X80333333Y-21314561D01*
X80333333Y-21314561D02*
X80428571Y-21409800D01*
X80428571Y-21409800D02*
X80571428Y-21457419D01*
X80571428Y-21457419D02*
X80809523Y-21457419D01*
X4303884Y-19457419D02*
X4780074Y-19457419D01*
X4780074Y-19457419D02*
X4780074Y-18457419D01*
X3970550Y-18933609D02*
X3637217Y-18933609D01*
X3494360Y-19457419D02*
X3970550Y-19457419D01*
X3970550Y-19457419D02*
X3970550Y-18457419D01*
X3970550Y-18457419D02*
X3494360Y-18457419D01*
X3065788Y-19457419D02*
X3065788Y-18457419D01*
X3065788Y-18457419D02*
X2827693Y-18457419D01*
X2827693Y-18457419D02*
X2684836Y-18505038D01*
X2684836Y-18505038D02*
X2589598Y-18600276D01*
X2589598Y-18600276D02*
X2541979Y-18695514D01*
X2541979Y-18695514D02*
X2494360Y-18885990D01*
X2494360Y-18885990D02*
X2494360Y-19028847D01*
X2494360Y-19028847D02*
X2541979Y-19219323D01*
X2541979Y-19219323D02*
X2589598Y-19314561D01*
X2589598Y-19314561D02*
X2684836Y-19409800D01*
X2684836Y-19409800D02*
X2827693Y-19457419D01*
X2827693Y-19457419D02*
X3065788Y-19457419D01*
X2065788Y-19076466D02*
X1303884Y-19076466D01*
X65083332Y-207419D02*
X64749999Y-1207419D01*
X64749999Y-1207419D02*
X64416666Y-207419D01*
X63511904Y-1112180D02*
X63559523Y-1159800D01*
X63559523Y-1159800D02*
X63702380Y-1207419D01*
X63702380Y-1207419D02*
X63797618Y-1207419D01*
X63797618Y-1207419D02*
X63940475Y-1159800D01*
X63940475Y-1159800D02*
X64035713Y-1064561D01*
X64035713Y-1064561D02*
X64083332Y-969323D01*
X64083332Y-969323D02*
X64130951Y-778847D01*
X64130951Y-778847D02*
X64130951Y-635990D01*
X64130951Y-635990D02*
X64083332Y-445514D01*
X64083332Y-445514D02*
X64035713Y-350276D01*
X64035713Y-350276D02*
X63940475Y-255038D01*
X63940475Y-255038D02*
X63797618Y-207419D01*
X63797618Y-207419D02*
X63702380Y-207419D01*
X63702380Y-207419D02*
X63559523Y-255038D01*
X63559523Y-255038D02*
X63511904Y-302657D01*
X62511904Y-1112180D02*
X62559523Y-1159800D01*
X62559523Y-1159800D02*
X62702380Y-1207419D01*
X62702380Y-1207419D02*
X62797618Y-1207419D01*
X62797618Y-1207419D02*
X62940475Y-1159800D01*
X62940475Y-1159800D02*
X63035713Y-1064561D01*
X63035713Y-1064561D02*
X63083332Y-969323D01*
X63083332Y-969323D02*
X63130951Y-778847D01*
X63130951Y-778847D02*
X63130951Y-635990D01*
X63130951Y-635990D02*
X63083332Y-445514D01*
X63083332Y-445514D02*
X63035713Y-350276D01*
X63035713Y-350276D02*
X62940475Y-255038D01*
X62940475Y-255038D02*
X62797618Y-207419D01*
X62797618Y-207419D02*
X62702380Y-207419D01*
X62702380Y-207419D02*
X62559523Y-255038D01*
X62559523Y-255038D02*
X62511904Y-302657D01*
X3351503Y-5505038D02*
X3446741Y-5457419D01*
X3446741Y-5457419D02*
X3589598Y-5457419D01*
X3589598Y-5457419D02*
X3732455Y-5505038D01*
X3732455Y-5505038D02*
X3827693Y-5600276D01*
X3827693Y-5600276D02*
X3875312Y-5695514D01*
X3875312Y-5695514D02*
X3922931Y-5885990D01*
X3922931Y-5885990D02*
X3922931Y-6028847D01*
X3922931Y-6028847D02*
X3875312Y-6219323D01*
X3875312Y-6219323D02*
X3827693Y-6314561D01*
X3827693Y-6314561D02*
X3732455Y-6409800D01*
X3732455Y-6409800D02*
X3589598Y-6457419D01*
X3589598Y-6457419D02*
X3494360Y-6457419D01*
X3494360Y-6457419D02*
X3351503Y-6409800D01*
X3351503Y-6409800D02*
X3303884Y-6362180D01*
X3303884Y-6362180D02*
X3303884Y-6028847D01*
X3303884Y-6028847D02*
X3494360Y-6028847D01*
X2875312Y-6457419D02*
X2875312Y-5457419D01*
X2875312Y-5457419D02*
X2303884Y-6457419D01*
X2303884Y-6457419D02*
X2303884Y-5457419D01*
X1827693Y-6457419D02*
X1827693Y-5457419D01*
X1827693Y-5457419D02*
X1589598Y-5457419D01*
X1589598Y-5457419D02*
X1446741Y-5505038D01*
X1446741Y-5505038D02*
X1351503Y-5600276D01*
X1351503Y-5600276D02*
X1303884Y-5695514D01*
X1303884Y-5695514D02*
X1256265Y-5885990D01*
X1256265Y-5885990D02*
X1256265Y-6028847D01*
X1256265Y-6028847D02*
X1303884Y-6219323D01*
X1303884Y-6219323D02*
X1351503Y-6314561D01*
X1351503Y-6314561D02*
X1446741Y-6409800D01*
X1446741Y-6409800D02*
X1589598Y-6457419D01*
X1589598Y-6457419D02*
X1827693Y-6457419D01*
X6494360Y-31933609D02*
X6161027Y-31933609D01*
X6018170Y-32457419D02*
X6494360Y-32457419D01*
X6494360Y-32457419D02*
X6494360Y-31457419D01*
X6494360Y-31457419D02*
X6018170Y-31457419D01*
X5589598Y-32457419D02*
X5589598Y-31457419D01*
X5589598Y-31457419D02*
X5018170Y-32457419D01*
X5018170Y-32457419D02*
X5018170Y-31457419D01*
X3970551Y-32362180D02*
X4018170Y-32409800D01*
X4018170Y-32409800D02*
X4161027Y-32457419D01*
X4161027Y-32457419D02*
X4256265Y-32457419D01*
X4256265Y-32457419D02*
X4399122Y-32409800D01*
X4399122Y-32409800D02*
X4494360Y-32314561D01*
X4494360Y-32314561D02*
X4541979Y-32219323D01*
X4541979Y-32219323D02*
X4589598Y-32028847D01*
X4589598Y-32028847D02*
X4589598Y-31885990D01*
X4589598Y-31885990D02*
X4541979Y-31695514D01*
X4541979Y-31695514D02*
X4494360Y-31600276D01*
X4494360Y-31600276D02*
X4399122Y-31505038D01*
X4399122Y-31505038D02*
X4256265Y-31457419D01*
X4256265Y-31457419D02*
X4161027Y-31457419D01*
X4161027Y-31457419D02*
X4018170Y-31505038D01*
X4018170Y-31505038D02*
X3970551Y-31552657D01*
X3780075Y-32552657D02*
X3018170Y-32552657D01*
X2256265Y-32457419D02*
X2827693Y-32457419D01*
X2541979Y-32457419D02*
X2541979Y-31457419D01*
X2541979Y-31457419D02*
X2637217Y-31600276D01*
X2637217Y-31600276D02*
X2732455Y-31695514D01*
X2732455Y-31695514D02*
X2827693Y-31743133D01*
X1494360Y-31933609D02*
X1351503Y-31981228D01*
X1351503Y-31981228D02*
X1303884Y-32028847D01*
X1303884Y-32028847D02*
X1256265Y-32124085D01*
X1256265Y-32124085D02*
X1256265Y-32266942D01*
X1256265Y-32266942D02*
X1303884Y-32362180D01*
X1303884Y-32362180D02*
X1351503Y-32409800D01*
X1351503Y-32409800D02*
X1446741Y-32457419D01*
X1446741Y-32457419D02*
X1827693Y-32457419D01*
X1827693Y-32457419D02*
X1827693Y-31457419D01*
X1827693Y-31457419D02*
X1494360Y-31457419D01*
X1494360Y-31457419D02*
X1399122Y-31505038D01*
X1399122Y-31505038D02*
X1351503Y-31552657D01*
X1351503Y-31552657D02*
X1303884Y-31647895D01*
X1303884Y-31647895D02*
X1303884Y-31743133D01*
X1303884Y-31743133D02*
X1351503Y-31838371D01*
X1351503Y-31838371D02*
X1399122Y-31885990D01*
X1399122Y-31885990D02*
X1494360Y-31933609D01*
X1494360Y-31933609D02*
X1827693Y-31933609D01*
D12*
X63261905Y-39463961D02*
X63357143Y-39559200D01*
X63357143Y-39559200D02*
X63642857Y-39654438D01*
X63642857Y-39654438D02*
X63833333Y-39654438D01*
X63833333Y-39654438D02*
X64119048Y-39559200D01*
X64119048Y-39559200D02*
X64309524Y-39368723D01*
X64309524Y-39368723D02*
X64404762Y-39178247D01*
X64404762Y-39178247D02*
X64500000Y-38797295D01*
X64500000Y-38797295D02*
X64500000Y-38511580D01*
X64500000Y-38511580D02*
X64404762Y-38130628D01*
X64404762Y-38130628D02*
X64309524Y-37940152D01*
X64309524Y-37940152D02*
X64119048Y-37749676D01*
X64119048Y-37749676D02*
X63833333Y-37654438D01*
X63833333Y-37654438D02*
X63642857Y-37654438D01*
X63642857Y-37654438D02*
X63357143Y-37749676D01*
X63357143Y-37749676D02*
X63261905Y-37844914D01*
X61547619Y-38321104D02*
X61547619Y-39654438D01*
X62404762Y-38321104D02*
X62404762Y-39368723D01*
X62404762Y-39368723D02*
X62309524Y-39559200D01*
X62309524Y-39559200D02*
X62119048Y-39654438D01*
X62119048Y-39654438D02*
X61833333Y-39654438D01*
X61833333Y-39654438D02*
X61642857Y-39559200D01*
X61642857Y-39559200D02*
X61547619Y-39463961D01*
X60690476Y-39559200D02*
X60500000Y-39654438D01*
X60500000Y-39654438D02*
X60119048Y-39654438D01*
X60119048Y-39654438D02*
X59928571Y-39559200D01*
X59928571Y-39559200D02*
X59833333Y-39368723D01*
X59833333Y-39368723D02*
X59833333Y-39273485D01*
X59833333Y-39273485D02*
X59928571Y-39083009D01*
X59928571Y-39083009D02*
X60119048Y-38987771D01*
X60119048Y-38987771D02*
X60404762Y-38987771D01*
X60404762Y-38987771D02*
X60595238Y-38892533D01*
X60595238Y-38892533D02*
X60690476Y-38702057D01*
X60690476Y-38702057D02*
X60690476Y-38606819D01*
X60690476Y-38606819D02*
X60595238Y-38416342D01*
X60595238Y-38416342D02*
X60404762Y-38321104D01*
X60404762Y-38321104D02*
X60119048Y-38321104D01*
X60119048Y-38321104D02*
X59928571Y-38416342D01*
X59261904Y-38321104D02*
X58500000Y-38321104D01*
X58976190Y-37654438D02*
X58976190Y-39368723D01*
X58976190Y-39368723D02*
X58880952Y-39559200D01*
X58880952Y-39559200D02*
X58690476Y-39654438D01*
X58690476Y-39654438D02*
X58500000Y-39654438D01*
X57547619Y-39654438D02*
X57738095Y-39559200D01*
X57738095Y-39559200D02*
X57833333Y-39463961D01*
X57833333Y-39463961D02*
X57928571Y-39273485D01*
X57928571Y-39273485D02*
X57928571Y-38702057D01*
X57928571Y-38702057D02*
X57833333Y-38511580D01*
X57833333Y-38511580D02*
X57738095Y-38416342D01*
X57738095Y-38416342D02*
X57547619Y-38321104D01*
X57547619Y-38321104D02*
X57261904Y-38321104D01*
X57261904Y-38321104D02*
X57071428Y-38416342D01*
X57071428Y-38416342D02*
X56976190Y-38511580D01*
X56976190Y-38511580D02*
X56880952Y-38702057D01*
X56880952Y-38702057D02*
X56880952Y-39273485D01*
X56880952Y-39273485D02*
X56976190Y-39463961D01*
X56976190Y-39463961D02*
X57071428Y-39559200D01*
X57071428Y-39559200D02*
X57261904Y-39654438D01*
X57261904Y-39654438D02*
X57547619Y-39654438D01*
X56023809Y-39654438D02*
X56023809Y-38321104D01*
X56023809Y-38511580D02*
X55928571Y-38416342D01*
X55928571Y-38416342D02*
X55738095Y-38321104D01*
X55738095Y-38321104D02*
X55452380Y-38321104D01*
X55452380Y-38321104D02*
X55261904Y-38416342D01*
X55261904Y-38416342D02*
X55166666Y-38606819D01*
X55166666Y-38606819D02*
X55166666Y-39654438D01*
X55166666Y-38606819D02*
X55071428Y-38416342D01*
X55071428Y-38416342D02*
X54880952Y-38321104D01*
X54880952Y-38321104D02*
X54595238Y-38321104D01*
X54595238Y-38321104D02*
X54404761Y-38416342D01*
X54404761Y-38416342D02*
X54309523Y-38606819D01*
X54309523Y-38606819D02*
X54309523Y-39654438D01*
X51833332Y-39654438D02*
X51833332Y-37654438D01*
X51833332Y-37654438D02*
X51357142Y-37654438D01*
X51357142Y-37654438D02*
X51071427Y-37749676D01*
X51071427Y-37749676D02*
X50880951Y-37940152D01*
X50880951Y-37940152D02*
X50785713Y-38130628D01*
X50785713Y-38130628D02*
X50690475Y-38511580D01*
X50690475Y-38511580D02*
X50690475Y-38797295D01*
X50690475Y-38797295D02*
X50785713Y-39178247D01*
X50785713Y-39178247D02*
X50880951Y-39368723D01*
X50880951Y-39368723D02*
X51071427Y-39559200D01*
X51071427Y-39559200D02*
X51357142Y-39654438D01*
X51357142Y-39654438D02*
X51833332Y-39654438D01*
X48690475Y-39654438D02*
X49357142Y-38702057D01*
X49833332Y-39654438D02*
X49833332Y-37654438D01*
X49833332Y-37654438D02*
X49071427Y-37654438D01*
X49071427Y-37654438D02*
X48880951Y-37749676D01*
X48880951Y-37749676D02*
X48785713Y-37844914D01*
X48785713Y-37844914D02*
X48690475Y-38035390D01*
X48690475Y-38035390D02*
X48690475Y-38321104D01*
X48690475Y-38321104D02*
X48785713Y-38511580D01*
X48785713Y-38511580D02*
X48880951Y-38606819D01*
X48880951Y-38606819D02*
X49071427Y-38702057D01*
X49071427Y-38702057D02*
X49833332Y-38702057D01*
X46690475Y-39463961D02*
X46785713Y-39559200D01*
X46785713Y-39559200D02*
X47071427Y-39654438D01*
X47071427Y-39654438D02*
X47261903Y-39654438D01*
X47261903Y-39654438D02*
X47547618Y-39559200D01*
X47547618Y-39559200D02*
X47738094Y-39368723D01*
X47738094Y-39368723D02*
X47833332Y-39178247D01*
X47833332Y-39178247D02*
X47928570Y-38797295D01*
X47928570Y-38797295D02*
X47928570Y-38511580D01*
X47928570Y-38511580D02*
X47833332Y-38130628D01*
X47833332Y-38130628D02*
X47738094Y-37940152D01*
X47738094Y-37940152D02*
X47547618Y-37749676D01*
X47547618Y-37749676D02*
X47261903Y-37654438D01*
X47261903Y-37654438D02*
X47071427Y-37654438D01*
X47071427Y-37654438D02*
X46785713Y-37749676D01*
X46785713Y-37749676D02*
X46690475Y-37844914D01*
X45833332Y-38892533D02*
X44309523Y-38892533D01*
X42690475Y-38606819D02*
X42404761Y-38702057D01*
X42404761Y-38702057D02*
X42309523Y-38797295D01*
X42309523Y-38797295D02*
X42214285Y-38987771D01*
X42214285Y-38987771D02*
X42214285Y-39273485D01*
X42214285Y-39273485D02*
X42309523Y-39463961D01*
X42309523Y-39463961D02*
X42404761Y-39559200D01*
X42404761Y-39559200D02*
X42595237Y-39654438D01*
X42595237Y-39654438D02*
X43357142Y-39654438D01*
X43357142Y-39654438D02*
X43357142Y-37654438D01*
X43357142Y-37654438D02*
X42690475Y-37654438D01*
X42690475Y-37654438D02*
X42499999Y-37749676D01*
X42499999Y-37749676D02*
X42404761Y-37844914D01*
X42404761Y-37844914D02*
X42309523Y-38035390D01*
X42309523Y-38035390D02*
X42309523Y-38225866D01*
X42309523Y-38225866D02*
X42404761Y-38416342D01*
X42404761Y-38416342D02*
X42499999Y-38511580D01*
X42499999Y-38511580D02*
X42690475Y-38606819D01*
X42690475Y-38606819D02*
X43357142Y-38606819D01*
X38785713Y-39654438D02*
X39928570Y-39654438D01*
X39357142Y-39654438D02*
X39357142Y-37654438D01*
X39357142Y-37654438D02*
X39547618Y-37940152D01*
X39547618Y-37940152D02*
X39738094Y-38130628D01*
X39738094Y-38130628D02*
X39928570Y-38225866D01*
X37833332Y-39654438D02*
X37452380Y-39654438D01*
X37452380Y-39654438D02*
X37261903Y-39559200D01*
X37261903Y-39559200D02*
X37166665Y-39463961D01*
X37166665Y-39463961D02*
X36976189Y-39178247D01*
X36976189Y-39178247D02*
X36880951Y-38797295D01*
X36880951Y-38797295D02*
X36880951Y-38035390D01*
X36880951Y-38035390D02*
X36976189Y-37844914D01*
X36976189Y-37844914D02*
X37071427Y-37749676D01*
X37071427Y-37749676D02*
X37261903Y-37654438D01*
X37261903Y-37654438D02*
X37642856Y-37654438D01*
X37642856Y-37654438D02*
X37833332Y-37749676D01*
X37833332Y-37749676D02*
X37928570Y-37844914D01*
X37928570Y-37844914D02*
X38023808Y-38035390D01*
X38023808Y-38035390D02*
X38023808Y-38511580D01*
X38023808Y-38511580D02*
X37928570Y-38702057D01*
X37928570Y-38702057D02*
X37833332Y-38797295D01*
X37833332Y-38797295D02*
X37642856Y-38892533D01*
X37642856Y-38892533D02*
X37261903Y-38892533D01*
X37261903Y-38892533D02*
X37071427Y-38797295D01*
X37071427Y-38797295D02*
X36976189Y-38702057D01*
X36976189Y-38702057D02*
X36880951Y-38511580D01*
X36023808Y-38892533D02*
X34499999Y-38892533D01*
X32499999Y-39654438D02*
X33642856Y-39654438D01*
X33071428Y-39654438D02*
X33071428Y-37654438D01*
X33071428Y-37654438D02*
X33261904Y-37940152D01*
X33261904Y-37940152D02*
X33452380Y-38130628D01*
X33452380Y-38130628D02*
X33642856Y-38225866D01*
X30595237Y-39654438D02*
X31738094Y-39654438D01*
X31166666Y-39654438D02*
X31166666Y-37654438D01*
X31166666Y-37654438D02*
X31357142Y-37940152D01*
X31357142Y-37940152D02*
X31547618Y-38130628D01*
X31547618Y-38130628D02*
X31738094Y-38225866D01*
X29738094Y-38892533D02*
X28214285Y-38892533D01*
X27357142Y-37844914D02*
X27261904Y-37749676D01*
X27261904Y-37749676D02*
X27071428Y-37654438D01*
X27071428Y-37654438D02*
X26595237Y-37654438D01*
X26595237Y-37654438D02*
X26404761Y-37749676D01*
X26404761Y-37749676D02*
X26309523Y-37844914D01*
X26309523Y-37844914D02*
X26214285Y-38035390D01*
X26214285Y-38035390D02*
X26214285Y-38225866D01*
X26214285Y-38225866D02*
X26309523Y-38511580D01*
X26309523Y-38511580D02*
X27452380Y-39654438D01*
X27452380Y-39654438D02*
X26214285Y-39654438D01*
X24976190Y-37654438D02*
X24785713Y-37654438D01*
X24785713Y-37654438D02*
X24595237Y-37749676D01*
X24595237Y-37749676D02*
X24499999Y-37844914D01*
X24499999Y-37844914D02*
X24404761Y-38035390D01*
X24404761Y-38035390D02*
X24309523Y-38416342D01*
X24309523Y-38416342D02*
X24309523Y-38892533D01*
X24309523Y-38892533D02*
X24404761Y-39273485D01*
X24404761Y-39273485D02*
X24499999Y-39463961D01*
X24499999Y-39463961D02*
X24595237Y-39559200D01*
X24595237Y-39559200D02*
X24785713Y-39654438D01*
X24785713Y-39654438D02*
X24976190Y-39654438D01*
X24976190Y-39654438D02*
X25166666Y-39559200D01*
X25166666Y-39559200D02*
X25261904Y-39463961D01*
X25261904Y-39463961D02*
X25357142Y-39273485D01*
X25357142Y-39273485D02*
X25452380Y-38892533D01*
X25452380Y-38892533D02*
X25452380Y-38416342D01*
X25452380Y-38416342D02*
X25357142Y-38035390D01*
X25357142Y-38035390D02*
X25261904Y-37844914D01*
X25261904Y-37844914D02*
X25166666Y-37749676D01*
X25166666Y-37749676D02*
X24976190Y-37654438D01*
X23547618Y-37844914D02*
X23452380Y-37749676D01*
X23452380Y-37749676D02*
X23261904Y-37654438D01*
X23261904Y-37654438D02*
X22785713Y-37654438D01*
X22785713Y-37654438D02*
X22595237Y-37749676D01*
X22595237Y-37749676D02*
X22499999Y-37844914D01*
X22499999Y-37844914D02*
X22404761Y-38035390D01*
X22404761Y-38035390D02*
X22404761Y-38225866D01*
X22404761Y-38225866D02*
X22499999Y-38511580D01*
X22499999Y-38511580D02*
X23642856Y-39654438D01*
X23642856Y-39654438D02*
X22404761Y-39654438D01*
X20690475Y-38321104D02*
X20690475Y-39654438D01*
X21166666Y-37559200D02*
X21642856Y-38987771D01*
X21642856Y-38987771D02*
X20404761Y-38987771D01*
D11*
X57011904Y-207419D02*
X56440476Y-207419D01*
X56726190Y-1207419D02*
X56726190Y-207419D01*
X56202380Y-207419D02*
X55535714Y-1207419D01*
X55535714Y-207419D02*
X56202380Y-1207419D01*
X4303884Y-21457419D02*
X4780074Y-21457419D01*
X4780074Y-21457419D02*
X4780074Y-20457419D01*
X3970550Y-20933609D02*
X3637217Y-20933609D01*
X3494360Y-21457419D02*
X3970550Y-21457419D01*
X3970550Y-21457419D02*
X3970550Y-20457419D01*
X3970550Y-20457419D02*
X3494360Y-20457419D01*
X3065788Y-21457419D02*
X3065788Y-20457419D01*
X3065788Y-20457419D02*
X2827693Y-20457419D01*
X2827693Y-20457419D02*
X2684836Y-20505038D01*
X2684836Y-20505038D02*
X2589598Y-20600276D01*
X2589598Y-20600276D02*
X2541979Y-20695514D01*
X2541979Y-20695514D02*
X2494360Y-20885990D01*
X2494360Y-20885990D02*
X2494360Y-21028847D01*
X2494360Y-21028847D02*
X2541979Y-21219323D01*
X2541979Y-21219323D02*
X2589598Y-21314561D01*
X2589598Y-21314561D02*
X2684836Y-21409800D01*
X2684836Y-21409800D02*
X2827693Y-21457419D01*
X2827693Y-21457419D02*
X3065788Y-21457419D01*
X2065788Y-21076466D02*
X1303884Y-21076466D01*
X1684836Y-21457419D02*
X1684836Y-20695514D01*
X6494360Y-7933609D02*
X6161027Y-7933609D01*
X6018170Y-8457419D02*
X6494360Y-8457419D01*
X6494360Y-8457419D02*
X6494360Y-7457419D01*
X6494360Y-7457419D02*
X6018170Y-7457419D01*
X5589598Y-8457419D02*
X5589598Y-7457419D01*
X5589598Y-7457419D02*
X5018170Y-8457419D01*
X5018170Y-8457419D02*
X5018170Y-7457419D01*
X3970551Y-8362180D02*
X4018170Y-8409800D01*
X4018170Y-8409800D02*
X4161027Y-8457419D01*
X4161027Y-8457419D02*
X4256265Y-8457419D01*
X4256265Y-8457419D02*
X4399122Y-8409800D01*
X4399122Y-8409800D02*
X4494360Y-8314561D01*
X4494360Y-8314561D02*
X4541979Y-8219323D01*
X4541979Y-8219323D02*
X4589598Y-8028847D01*
X4589598Y-8028847D02*
X4589598Y-7885990D01*
X4589598Y-7885990D02*
X4541979Y-7695514D01*
X4541979Y-7695514D02*
X4494360Y-7600276D01*
X4494360Y-7600276D02*
X4399122Y-7505038D01*
X4399122Y-7505038D02*
X4256265Y-7457419D01*
X4256265Y-7457419D02*
X4161027Y-7457419D01*
X4161027Y-7457419D02*
X4018170Y-7505038D01*
X4018170Y-7505038D02*
X3970551Y-7552657D01*
X3780075Y-8552657D02*
X3018170Y-8552657D01*
X2827693Y-7552657D02*
X2780074Y-7505038D01*
X2780074Y-7505038D02*
X2684836Y-7457419D01*
X2684836Y-7457419D02*
X2446741Y-7457419D01*
X2446741Y-7457419D02*
X2351503Y-7505038D01*
X2351503Y-7505038D02*
X2303884Y-7552657D01*
X2303884Y-7552657D02*
X2256265Y-7647895D01*
X2256265Y-7647895D02*
X2256265Y-7743133D01*
X2256265Y-7743133D02*
X2303884Y-7885990D01*
X2303884Y-7885990D02*
X2875312Y-8457419D01*
X2875312Y-8457419D02*
X2256265Y-8457419D01*
X1494360Y-7933609D02*
X1351503Y-7981228D01*
X1351503Y-7981228D02*
X1303884Y-8028847D01*
X1303884Y-8028847D02*
X1256265Y-8124085D01*
X1256265Y-8124085D02*
X1256265Y-8266942D01*
X1256265Y-8266942D02*
X1303884Y-8362180D01*
X1303884Y-8362180D02*
X1351503Y-8409800D01*
X1351503Y-8409800D02*
X1446741Y-8457419D01*
X1446741Y-8457419D02*
X1827693Y-8457419D01*
X1827693Y-8457419D02*
X1827693Y-7457419D01*
X1827693Y-7457419D02*
X1494360Y-7457419D01*
X1494360Y-7457419D02*
X1399122Y-7505038D01*
X1399122Y-7505038D02*
X1351503Y-7552657D01*
X1351503Y-7552657D02*
X1303884Y-7647895D01*
X1303884Y-7647895D02*
X1303884Y-7743133D01*
X1303884Y-7743133D02*
X1351503Y-7838371D01*
X1351503Y-7838371D02*
X1399122Y-7885990D01*
X1399122Y-7885990D02*
X1494360Y-7933609D01*
X1494360Y-7933609D02*
X1827693Y-7933609D01*
X54857142Y-683609D02*
X54714285Y-731228D01*
X54714285Y-731228D02*
X54666666Y-778847D01*
X54666666Y-778847D02*
X54619047Y-874085D01*
X54619047Y-874085D02*
X54619047Y-1016942D01*
X54619047Y-1016942D02*
X54666666Y-1112180D01*
X54666666Y-1112180D02*
X54714285Y-1159800D01*
X54714285Y-1159800D02*
X54809523Y-1207419D01*
X54809523Y-1207419D02*
X55190475Y-1207419D01*
X55190475Y-1207419D02*
X55190475Y-207419D01*
X55190475Y-207419D02*
X54857142Y-207419D01*
X54857142Y-207419D02*
X54761904Y-255038D01*
X54761904Y-255038D02*
X54714285Y-302657D01*
X54714285Y-302657D02*
X54666666Y-397895D01*
X54666666Y-397895D02*
X54666666Y-493133D01*
X54666666Y-493133D02*
X54714285Y-588371D01*
X54714285Y-588371D02*
X54761904Y-635990D01*
X54761904Y-635990D02*
X54857142Y-683609D01*
X54857142Y-683609D02*
X55190475Y-683609D01*
X53999999Y-207419D02*
X53809523Y-207419D01*
X53809523Y-207419D02*
X53714285Y-255038D01*
X53714285Y-255038D02*
X53619047Y-350276D01*
X53619047Y-350276D02*
X53571428Y-540752D01*
X53571428Y-540752D02*
X53571428Y-874085D01*
X53571428Y-874085D02*
X53619047Y-1064561D01*
X53619047Y-1064561D02*
X53714285Y-1159800D01*
X53714285Y-1159800D02*
X53809523Y-1207419D01*
X53809523Y-1207419D02*
X53999999Y-1207419D01*
X53999999Y-1207419D02*
X54095237Y-1159800D01*
X54095237Y-1159800D02*
X54190475Y-1064561D01*
X54190475Y-1064561D02*
X54238094Y-874085D01*
X54238094Y-874085D02*
X54238094Y-540752D01*
X54238094Y-540752D02*
X54190475Y-350276D01*
X54190475Y-350276D02*
X54095237Y-255038D01*
X54095237Y-255038D02*
X53999999Y-207419D01*
X52952380Y-207419D02*
X52761904Y-207419D01*
X52761904Y-207419D02*
X52666666Y-255038D01*
X52666666Y-255038D02*
X52571428Y-350276D01*
X52571428Y-350276D02*
X52523809Y-540752D01*
X52523809Y-540752D02*
X52523809Y-874085D01*
X52523809Y-874085D02*
X52571428Y-1064561D01*
X52571428Y-1064561D02*
X52666666Y-1159800D01*
X52666666Y-1159800D02*
X52761904Y-1207419D01*
X52761904Y-1207419D02*
X52952380Y-1207419D01*
X52952380Y-1207419D02*
X53047618Y-1159800D01*
X53047618Y-1159800D02*
X53142856Y-1064561D01*
X53142856Y-1064561D02*
X53190475Y-874085D01*
X53190475Y-874085D02*
X53190475Y-540752D01*
X53190475Y-540752D02*
X53142856Y-350276D01*
X53142856Y-350276D02*
X53047618Y-255038D01*
X53047618Y-255038D02*
X52952380Y-207419D01*
X52238094Y-207419D02*
X51666666Y-207419D01*
X51952380Y-1207419D02*
X51952380Y-207419D01*
X58416666Y-1207419D02*
X58749999Y-731228D01*
X58988094Y-1207419D02*
X58988094Y-207419D01*
X58988094Y-207419D02*
X58607142Y-207419D01*
X58607142Y-207419D02*
X58511904Y-255038D01*
X58511904Y-255038D02*
X58464285Y-302657D01*
X58464285Y-302657D02*
X58416666Y-397895D01*
X58416666Y-397895D02*
X58416666Y-540752D01*
X58416666Y-540752D02*
X58464285Y-635990D01*
X58464285Y-635990D02*
X58511904Y-683609D01*
X58511904Y-683609D02*
X58607142Y-731228D01*
X58607142Y-731228D02*
X58988094Y-731228D01*
X58083332Y-207419D02*
X57416666Y-1207419D01*
X57416666Y-207419D02*
X58083332Y-1207419D01*
X78023809Y-38707419D02*
X78023809Y-39421704D01*
X78023809Y-39421704D02*
X78071428Y-39564561D01*
X78071428Y-39564561D02*
X78166666Y-39659800D01*
X78166666Y-39659800D02*
X78309523Y-39707419D01*
X78309523Y-39707419D02*
X78404761Y-39707419D01*
X77595237Y-39421704D02*
X77119047Y-39421704D01*
X77690475Y-39707419D02*
X77357142Y-38707419D01*
X77357142Y-38707419D02*
X77023809Y-39707419D01*
X76690475Y-39707419D02*
X76690475Y-38707419D01*
X76214285Y-39707419D02*
X76214285Y-38707419D01*
X76214285Y-38707419D02*
X75880952Y-39421704D01*
X75880952Y-39421704D02*
X75547619Y-38707419D01*
X75547619Y-38707419D02*
X75547619Y-39707419D01*
X75071428Y-39183609D02*
X74738095Y-39183609D01*
X74595238Y-39707419D02*
X75071428Y-39707419D01*
X75071428Y-39707419D02*
X75071428Y-38707419D01*
X75071428Y-38707419D02*
X74595238Y-38707419D01*
X73452380Y-39659800D02*
X73309523Y-39707419D01*
X73309523Y-39707419D02*
X73071428Y-39707419D01*
X73071428Y-39707419D02*
X72976190Y-39659800D01*
X72976190Y-39659800D02*
X72928571Y-39612180D01*
X72928571Y-39612180D02*
X72880952Y-39516942D01*
X72880952Y-39516942D02*
X72880952Y-39421704D01*
X72880952Y-39421704D02*
X72928571Y-39326466D01*
X72928571Y-39326466D02*
X72976190Y-39278847D01*
X72976190Y-39278847D02*
X73071428Y-39231228D01*
X73071428Y-39231228D02*
X73261904Y-39183609D01*
X73261904Y-39183609D02*
X73357142Y-39135990D01*
X73357142Y-39135990D02*
X73404761Y-39088371D01*
X73404761Y-39088371D02*
X73452380Y-38993133D01*
X73452380Y-38993133D02*
X73452380Y-38897895D01*
X73452380Y-38897895D02*
X73404761Y-38802657D01*
X73404761Y-38802657D02*
X73357142Y-38755038D01*
X73357142Y-38755038D02*
X73261904Y-38707419D01*
X73261904Y-38707419D02*
X73023809Y-38707419D01*
X73023809Y-38707419D02*
X72880952Y-38755038D01*
X72452380Y-39183609D02*
X72119047Y-39183609D01*
X71976190Y-39707419D02*
X72452380Y-39707419D01*
X72452380Y-39707419D02*
X72452380Y-38707419D01*
X72452380Y-38707419D02*
X71976190Y-38707419D01*
X70880952Y-39802657D02*
X70976190Y-39755038D01*
X70976190Y-39755038D02*
X71071428Y-39659800D01*
X71071428Y-39659800D02*
X71214285Y-39516942D01*
X71214285Y-39516942D02*
X71309523Y-39469323D01*
X71309523Y-39469323D02*
X71404761Y-39469323D01*
X71357142Y-39707419D02*
X71452380Y-39659800D01*
X71452380Y-39659800D02*
X71547618Y-39564561D01*
X71547618Y-39564561D02*
X71595237Y-39374085D01*
X71595237Y-39374085D02*
X71595237Y-39040752D01*
X71595237Y-39040752D02*
X71547618Y-38850276D01*
X71547618Y-38850276D02*
X71452380Y-38755038D01*
X71452380Y-38755038D02*
X71357142Y-38707419D01*
X71357142Y-38707419D02*
X71166666Y-38707419D01*
X71166666Y-38707419D02*
X71071428Y-38755038D01*
X71071428Y-38755038D02*
X70976190Y-38850276D01*
X70976190Y-38850276D02*
X70928571Y-39040752D01*
X70928571Y-39040752D02*
X70928571Y-39374085D01*
X70928571Y-39374085D02*
X70976190Y-39564561D01*
X70976190Y-39564561D02*
X71071428Y-39659800D01*
X71071428Y-39659800D02*
X71166666Y-39707419D01*
X71166666Y-39707419D02*
X71357142Y-39707419D01*
X70499999Y-38707419D02*
X70499999Y-39516942D01*
X70499999Y-39516942D02*
X70452380Y-39612180D01*
X70452380Y-39612180D02*
X70404761Y-39659800D01*
X70404761Y-39659800D02*
X70309523Y-39707419D01*
X70309523Y-39707419D02*
X70119047Y-39707419D01*
X70119047Y-39707419D02*
X70023809Y-39659800D01*
X70023809Y-39659800D02*
X69976190Y-39612180D01*
X69976190Y-39612180D02*
X69928571Y-39516942D01*
X69928571Y-39516942D02*
X69928571Y-38707419D01*
X69452380Y-39183609D02*
X69119047Y-39183609D01*
X68976190Y-39707419D02*
X69452380Y-39707419D01*
X69452380Y-39707419D02*
X69452380Y-38707419D01*
X69452380Y-38707419D02*
X68976190Y-38707419D01*
X68547618Y-39707419D02*
X68547618Y-38707419D01*
X67500000Y-39707419D02*
X67833333Y-39231228D01*
X68071428Y-39707419D02*
X68071428Y-38707419D01*
X68071428Y-38707419D02*
X67690476Y-38707419D01*
X67690476Y-38707419D02*
X67595238Y-38755038D01*
X67595238Y-38755038D02*
X67547619Y-38802657D01*
X67547619Y-38802657D02*
X67500000Y-38897895D01*
X67500000Y-38897895D02*
X67500000Y-39040752D01*
X67500000Y-39040752D02*
X67547619Y-39135990D01*
X67547619Y-39135990D02*
X67595238Y-39183609D01*
X67595238Y-39183609D02*
X67690476Y-39231228D01*
X67690476Y-39231228D02*
X68071428Y-39231228D01*
X67119047Y-39421704D02*
X66642857Y-39421704D01*
X67214285Y-39707419D02*
X66880952Y-38707419D01*
X66880952Y-38707419D02*
X66547619Y-39707419D01*
X82285713Y-13957419D02*
X82285713Y-12957419D01*
X82285713Y-12957419D02*
X81714285Y-13957419D01*
X81714285Y-13957419D02*
X81714285Y-12957419D01*
X80666666Y-13862180D02*
X80714285Y-13909800D01*
X80714285Y-13909800D02*
X80857142Y-13957419D01*
X80857142Y-13957419D02*
X80952380Y-13957419D01*
X80952380Y-13957419D02*
X81095237Y-13909800D01*
X81095237Y-13909800D02*
X81190475Y-13814561D01*
X81190475Y-13814561D02*
X81238094Y-13719323D01*
X81238094Y-13719323D02*
X81285713Y-13528847D01*
X81285713Y-13528847D02*
X81285713Y-13385990D01*
X81285713Y-13385990D02*
X81238094Y-13195514D01*
X81238094Y-13195514D02*
X81190475Y-13100276D01*
X81190475Y-13100276D02*
X81095237Y-13005038D01*
X81095237Y-13005038D02*
X80952380Y-12957419D01*
X80952380Y-12957419D02*
X80857142Y-12957419D01*
X80857142Y-12957419D02*
X80714285Y-13005038D01*
X80714285Y-13005038D02*
X80666666Y-13052657D01*
X3351503Y-9505038D02*
X3446741Y-9457419D01*
X3446741Y-9457419D02*
X3589598Y-9457419D01*
X3589598Y-9457419D02*
X3732455Y-9505038D01*
X3732455Y-9505038D02*
X3827693Y-9600276D01*
X3827693Y-9600276D02*
X3875312Y-9695514D01*
X3875312Y-9695514D02*
X3922931Y-9885990D01*
X3922931Y-9885990D02*
X3922931Y-10028847D01*
X3922931Y-10028847D02*
X3875312Y-10219323D01*
X3875312Y-10219323D02*
X3827693Y-10314561D01*
X3827693Y-10314561D02*
X3732455Y-10409800D01*
X3732455Y-10409800D02*
X3589598Y-10457419D01*
X3589598Y-10457419D02*
X3494360Y-10457419D01*
X3494360Y-10457419D02*
X3351503Y-10409800D01*
X3351503Y-10409800D02*
X3303884Y-10362180D01*
X3303884Y-10362180D02*
X3303884Y-10028847D01*
X3303884Y-10028847D02*
X3494360Y-10028847D01*
X2875312Y-10457419D02*
X2875312Y-9457419D01*
X2875312Y-9457419D02*
X2303884Y-10457419D01*
X2303884Y-10457419D02*
X2303884Y-9457419D01*
X1827693Y-10457419D02*
X1827693Y-9457419D01*
X1827693Y-9457419D02*
X1589598Y-9457419D01*
X1589598Y-9457419D02*
X1446741Y-9505038D01*
X1446741Y-9505038D02*
X1351503Y-9600276D01*
X1351503Y-9600276D02*
X1303884Y-9695514D01*
X1303884Y-9695514D02*
X1256265Y-9885990D01*
X1256265Y-9885990D02*
X1256265Y-10028847D01*
X1256265Y-10028847D02*
X1303884Y-10219323D01*
X1303884Y-10219323D02*
X1351503Y-10314561D01*
X1351503Y-10314561D02*
X1446741Y-10409800D01*
X1446741Y-10409800D02*
X1589598Y-10457419D01*
X1589598Y-10457419D02*
X1827693Y-10457419D01*
X27421704Y-5958020D02*
X27421704Y-6434210D01*
X27707419Y-5862782D02*
X26707419Y-6196115D01*
X26707419Y-6196115D02*
X27707419Y-6529448D01*
X27707419Y-6862782D02*
X26707419Y-6862782D01*
X26707419Y-6862782D02*
X27707419Y-7434210D01*
X27707419Y-7434210D02*
X26707419Y-7434210D01*
X26707419Y-7767544D02*
X26707419Y-8338972D01*
X27707419Y-8053258D02*
X26707419Y-8053258D01*
X51488094Y-683609D02*
X51154761Y-683609D01*
X51011904Y-1207419D02*
X51488094Y-1207419D01*
X51488094Y-1207419D02*
X51488094Y-207419D01*
X51488094Y-207419D02*
X51011904Y-207419D01*
X50583332Y-1207419D02*
X50583332Y-207419D01*
X50583332Y-207419D02*
X50011904Y-1207419D01*
X50011904Y-1207419D02*
X50011904Y-207419D01*
D13*
X82559523Y-28432309D02*
X82416666Y-28479928D01*
X82416666Y-28479928D02*
X82369047Y-28527547D01*
X82369047Y-28527547D02*
X82321428Y-28622785D01*
X82321428Y-28622785D02*
X82321428Y-28765642D01*
X82321428Y-28765642D02*
X82369047Y-28860880D01*
X82369047Y-28860880D02*
X82416666Y-28908500D01*
X82416666Y-28908500D02*
X82511904Y-28956119D01*
X82511904Y-28956119D02*
X82892856Y-28956119D01*
X82892856Y-28956119D02*
X82892856Y-27956119D01*
X82892856Y-27956119D02*
X82559523Y-27956119D01*
X82559523Y-27956119D02*
X82464285Y-28003738D01*
X82464285Y-28003738D02*
X82416666Y-28051357D01*
X82416666Y-28051357D02*
X82369047Y-28146595D01*
X82369047Y-28146595D02*
X82369047Y-28241833D01*
X82369047Y-28241833D02*
X82416666Y-28337071D01*
X82416666Y-28337071D02*
X82464285Y-28384690D01*
X82464285Y-28384690D02*
X82559523Y-28432309D01*
X82559523Y-28432309D02*
X82892856Y-28432309D01*
X81416666Y-28956119D02*
X81892856Y-28956119D01*
X81892856Y-28956119D02*
X81892856Y-27956119D01*
X81083332Y-27956119D02*
X81083332Y-28765642D01*
X81083332Y-28765642D02*
X81035713Y-28860880D01*
X81035713Y-28860880D02*
X80988094Y-28908500D01*
X80988094Y-28908500D02*
X80892856Y-28956119D01*
X80892856Y-28956119D02*
X80702380Y-28956119D01*
X80702380Y-28956119D02*
X80607142Y-28908500D01*
X80607142Y-28908500D02*
X80559523Y-28860880D01*
X80559523Y-28860880D02*
X80511904Y-28765642D01*
X80511904Y-28765642D02*
X80511904Y-27956119D01*
X80035713Y-28432309D02*
X79702380Y-28432309D01*
X79559523Y-28956119D02*
X80035713Y-28956119D01*
X80035713Y-28956119D02*
X80035713Y-27956119D01*
X80035713Y-27956119D02*
X79559523Y-27956119D01*
D11*
X83523808Y-15457419D02*
X83285713Y-16457419D01*
X83285713Y-16457419D02*
X83095237Y-15743133D01*
X83095237Y-15743133D02*
X82904761Y-16457419D01*
X82904761Y-16457419D02*
X82666666Y-15457419D01*
X82285713Y-16457419D02*
X82285713Y-15457419D01*
X82285713Y-15933609D02*
X81714285Y-15933609D01*
X81714285Y-16457419D02*
X81714285Y-15457419D01*
X81238094Y-16457419D02*
X81238094Y-15457419D01*
X80904761Y-15457419D02*
X80333333Y-15457419D01*
X80619047Y-16457419D02*
X80619047Y-15457419D01*
X79999999Y-15933609D02*
X79666666Y-15933609D01*
X79523809Y-16457419D02*
X79999999Y-16457419D01*
X79999999Y-16457419D02*
X79999999Y-15457419D01*
X79999999Y-15457419D02*
X79523809Y-15457419D01*
X83857142Y-25981228D02*
X83857142Y-26457419D01*
X84190475Y-25457419D02*
X83857142Y-25981228D01*
X83857142Y-25981228D02*
X83523809Y-25457419D01*
X83190475Y-25933609D02*
X82857142Y-25933609D01*
X82714285Y-26457419D02*
X83190475Y-26457419D01*
X83190475Y-26457419D02*
X83190475Y-25457419D01*
X83190475Y-25457419D02*
X82714285Y-25457419D01*
X81809523Y-26457419D02*
X82285713Y-26457419D01*
X82285713Y-26457419D02*
X82285713Y-25457419D01*
X80999999Y-26457419D02*
X81476189Y-26457419D01*
X81476189Y-26457419D02*
X81476189Y-25457419D01*
X80476189Y-25457419D02*
X80285713Y-25457419D01*
X80285713Y-25457419D02*
X80190475Y-25505038D01*
X80190475Y-25505038D02*
X80095237Y-25600276D01*
X80095237Y-25600276D02*
X80047618Y-25790752D01*
X80047618Y-25790752D02*
X80047618Y-26124085D01*
X80047618Y-26124085D02*
X80095237Y-26314561D01*
X80095237Y-26314561D02*
X80190475Y-26409800D01*
X80190475Y-26409800D02*
X80285713Y-26457419D01*
X80285713Y-26457419D02*
X80476189Y-26457419D01*
X80476189Y-26457419D02*
X80571427Y-26409800D01*
X80571427Y-26409800D02*
X80666665Y-26314561D01*
X80666665Y-26314561D02*
X80714284Y-26124085D01*
X80714284Y-26124085D02*
X80714284Y-25790752D01*
X80714284Y-25790752D02*
X80666665Y-25600276D01*
X80666665Y-25600276D02*
X80571427Y-25505038D01*
X80571427Y-25505038D02*
X80476189Y-25457419D01*
X79714284Y-25457419D02*
X79476189Y-26457419D01*
X79476189Y-26457419D02*
X79285713Y-25743133D01*
X79285713Y-25743133D02*
X79095237Y-26457419D01*
X79095237Y-26457419D02*
X78857142Y-25457419D01*
X83261904Y-18433609D02*
X83119047Y-18481228D01*
X83119047Y-18481228D02*
X83071428Y-18528847D01*
X83071428Y-18528847D02*
X83023809Y-18624085D01*
X83023809Y-18624085D02*
X83023809Y-18766942D01*
X83023809Y-18766942D02*
X83071428Y-18862180D01*
X83071428Y-18862180D02*
X83119047Y-18909800D01*
X83119047Y-18909800D02*
X83214285Y-18957419D01*
X83214285Y-18957419D02*
X83595237Y-18957419D01*
X83595237Y-18957419D02*
X83595237Y-17957419D01*
X83595237Y-17957419D02*
X83261904Y-17957419D01*
X83261904Y-17957419D02*
X83166666Y-18005038D01*
X83166666Y-18005038D02*
X83119047Y-18052657D01*
X83119047Y-18052657D02*
X83071428Y-18147895D01*
X83071428Y-18147895D02*
X83071428Y-18243133D01*
X83071428Y-18243133D02*
X83119047Y-18338371D01*
X83119047Y-18338371D02*
X83166666Y-18385990D01*
X83166666Y-18385990D02*
X83261904Y-18433609D01*
X83261904Y-18433609D02*
X83595237Y-18433609D01*
X82119047Y-18957419D02*
X82595237Y-18957419D01*
X82595237Y-18957419D02*
X82595237Y-17957419D01*
X81833332Y-18671704D02*
X81357142Y-18671704D01*
X81928570Y-18957419D02*
X81595237Y-17957419D01*
X81595237Y-17957419D02*
X81261904Y-18957419D01*
X80357142Y-18862180D02*
X80404761Y-18909800D01*
X80404761Y-18909800D02*
X80547618Y-18957419D01*
X80547618Y-18957419D02*
X80642856Y-18957419D01*
X80642856Y-18957419D02*
X80785713Y-18909800D01*
X80785713Y-18909800D02*
X80880951Y-18814561D01*
X80880951Y-18814561D02*
X80928570Y-18719323D01*
X80928570Y-18719323D02*
X80976189Y-18528847D01*
X80976189Y-18528847D02*
X80976189Y-18385990D01*
X80976189Y-18385990D02*
X80928570Y-18195514D01*
X80928570Y-18195514D02*
X80880951Y-18100276D01*
X80880951Y-18100276D02*
X80785713Y-18005038D01*
X80785713Y-18005038D02*
X80642856Y-17957419D01*
X80642856Y-17957419D02*
X80547618Y-17957419D01*
X80547618Y-17957419D02*
X80404761Y-18005038D01*
X80404761Y-18005038D02*
X80357142Y-18052657D01*
X79928570Y-18957419D02*
X79928570Y-17957419D01*
X79357142Y-18957419D02*
X79785713Y-18385990D01*
X79357142Y-17957419D02*
X79928570Y-18528847D01*
X7589598Y-35933609D02*
X7256265Y-35933609D01*
X7113408Y-36457419D02*
X7589598Y-36457419D01*
X7589598Y-36457419D02*
X7589598Y-35457419D01*
X7589598Y-35457419D02*
X7113408Y-35457419D01*
X6684836Y-36457419D02*
X6684836Y-35457419D01*
X6684836Y-35457419D02*
X6113408Y-36457419D01*
X6113408Y-36457419D02*
X6113408Y-35457419D01*
X5065789Y-36362180D02*
X5113408Y-36409800D01*
X5113408Y-36409800D02*
X5256265Y-36457419D01*
X5256265Y-36457419D02*
X5351503Y-36457419D01*
X5351503Y-36457419D02*
X5494360Y-36409800D01*
X5494360Y-36409800D02*
X5589598Y-36314561D01*
X5589598Y-36314561D02*
X5637217Y-36219323D01*
X5637217Y-36219323D02*
X5684836Y-36028847D01*
X5684836Y-36028847D02*
X5684836Y-35885990D01*
X5684836Y-35885990D02*
X5637217Y-35695514D01*
X5637217Y-35695514D02*
X5589598Y-35600276D01*
X5589598Y-35600276D02*
X5494360Y-35505038D01*
X5494360Y-35505038D02*
X5351503Y-35457419D01*
X5351503Y-35457419D02*
X5256265Y-35457419D01*
X5256265Y-35457419D02*
X5113408Y-35505038D01*
X5113408Y-35505038D02*
X5065789Y-35552657D01*
X4875313Y-36552657D02*
X4113408Y-36552657D01*
X3351503Y-36457419D02*
X3922931Y-36457419D01*
X3637217Y-36457419D02*
X3637217Y-35457419D01*
X3637217Y-35457419D02*
X3732455Y-35600276D01*
X3732455Y-35600276D02*
X3827693Y-35695514D01*
X3827693Y-35695514D02*
X3922931Y-35743133D01*
X2970550Y-36409800D02*
X2827693Y-36457419D01*
X2827693Y-36457419D02*
X2589598Y-36457419D01*
X2589598Y-36457419D02*
X2494360Y-36409800D01*
X2494360Y-36409800D02*
X2446741Y-36362180D01*
X2446741Y-36362180D02*
X2399122Y-36266942D01*
X2399122Y-36266942D02*
X2399122Y-36171704D01*
X2399122Y-36171704D02*
X2446741Y-36076466D01*
X2446741Y-36076466D02*
X2494360Y-36028847D01*
X2494360Y-36028847D02*
X2589598Y-35981228D01*
X2589598Y-35981228D02*
X2780074Y-35933609D01*
X2780074Y-35933609D02*
X2875312Y-35885990D01*
X2875312Y-35885990D02*
X2922931Y-35838371D01*
X2922931Y-35838371D02*
X2970550Y-35743133D01*
X2970550Y-35743133D02*
X2970550Y-35647895D01*
X2970550Y-35647895D02*
X2922931Y-35552657D01*
X2922931Y-35552657D02*
X2875312Y-35505038D01*
X2875312Y-35505038D02*
X2780074Y-35457419D01*
X2780074Y-35457419D02*
X2541979Y-35457419D01*
X2541979Y-35457419D02*
X2399122Y-35505038D01*
X2065788Y-35457419D02*
X1827693Y-36457419D01*
X1827693Y-36457419D02*
X1637217Y-35743133D01*
X1637217Y-35743133D02*
X1446741Y-36457419D01*
X1446741Y-36457419D02*
X1208646Y-35457419D01*
X6351503Y-3933609D02*
X6018170Y-3933609D01*
X5875313Y-4457419D02*
X6351503Y-4457419D01*
X6351503Y-4457419D02*
X6351503Y-3457419D01*
X6351503Y-3457419D02*
X5875313Y-3457419D01*
X5446741Y-4457419D02*
X5446741Y-3457419D01*
X5446741Y-3457419D02*
X4875313Y-4457419D01*
X4875313Y-4457419D02*
X4875313Y-3457419D01*
X3827694Y-4362180D02*
X3875313Y-4409800D01*
X3875313Y-4409800D02*
X4018170Y-4457419D01*
X4018170Y-4457419D02*
X4113408Y-4457419D01*
X4113408Y-4457419D02*
X4256265Y-4409800D01*
X4256265Y-4409800D02*
X4351503Y-4314561D01*
X4351503Y-4314561D02*
X4399122Y-4219323D01*
X4399122Y-4219323D02*
X4446741Y-4028847D01*
X4446741Y-4028847D02*
X4446741Y-3885990D01*
X4446741Y-3885990D02*
X4399122Y-3695514D01*
X4399122Y-3695514D02*
X4351503Y-3600276D01*
X4351503Y-3600276D02*
X4256265Y-3505038D01*
X4256265Y-3505038D02*
X4113408Y-3457419D01*
X4113408Y-3457419D02*
X4018170Y-3457419D01*
X4018170Y-3457419D02*
X3875313Y-3505038D01*
X3875313Y-3505038D02*
X3827694Y-3552657D01*
X3637218Y-4552657D02*
X2875313Y-4552657D01*
X2684836Y-3552657D02*
X2637217Y-3505038D01*
X2637217Y-3505038D02*
X2541979Y-3457419D01*
X2541979Y-3457419D02*
X2303884Y-3457419D01*
X2303884Y-3457419D02*
X2208646Y-3505038D01*
X2208646Y-3505038D02*
X2161027Y-3552657D01*
X2161027Y-3552657D02*
X2113408Y-3647895D01*
X2113408Y-3647895D02*
X2113408Y-3743133D01*
X2113408Y-3743133D02*
X2161027Y-3885990D01*
X2161027Y-3885990D02*
X2732455Y-4457419D01*
X2732455Y-4457419D02*
X2113408Y-4457419D01*
X1732455Y-4171704D02*
X1256265Y-4171704D01*
X1827693Y-4457419D02*
X1494360Y-3457419D01*
X1494360Y-3457419D02*
X1161027Y-4457419D01*
X6351503Y-27933609D02*
X6018170Y-27933609D01*
X5875313Y-28457419D02*
X6351503Y-28457419D01*
X6351503Y-28457419D02*
X6351503Y-27457419D01*
X6351503Y-27457419D02*
X5875313Y-27457419D01*
X5446741Y-28457419D02*
X5446741Y-27457419D01*
X5446741Y-27457419D02*
X4875313Y-28457419D01*
X4875313Y-28457419D02*
X4875313Y-27457419D01*
X3827694Y-28362180D02*
X3875313Y-28409800D01*
X3875313Y-28409800D02*
X4018170Y-28457419D01*
X4018170Y-28457419D02*
X4113408Y-28457419D01*
X4113408Y-28457419D02*
X4256265Y-28409800D01*
X4256265Y-28409800D02*
X4351503Y-28314561D01*
X4351503Y-28314561D02*
X4399122Y-28219323D01*
X4399122Y-28219323D02*
X4446741Y-28028847D01*
X4446741Y-28028847D02*
X4446741Y-27885990D01*
X4446741Y-27885990D02*
X4399122Y-27695514D01*
X4399122Y-27695514D02*
X4351503Y-27600276D01*
X4351503Y-27600276D02*
X4256265Y-27505038D01*
X4256265Y-27505038D02*
X4113408Y-27457419D01*
X4113408Y-27457419D02*
X4018170Y-27457419D01*
X4018170Y-27457419D02*
X3875313Y-27505038D01*
X3875313Y-27505038D02*
X3827694Y-27552657D01*
X3637218Y-28552657D02*
X2875313Y-28552657D01*
X2113408Y-28457419D02*
X2684836Y-28457419D01*
X2399122Y-28457419D02*
X2399122Y-27457419D01*
X2399122Y-27457419D02*
X2494360Y-27600276D01*
X2494360Y-27600276D02*
X2589598Y-27695514D01*
X2589598Y-27695514D02*
X2684836Y-27743133D01*
X1732455Y-28171704D02*
X1256265Y-28171704D01*
X1827693Y-28457419D02*
X1494360Y-27457419D01*
X1494360Y-27457419D02*
X1161027Y-28457419D01*
X61511904Y-255038D02*
X61607142Y-207419D01*
X61607142Y-207419D02*
X61749999Y-207419D01*
X61749999Y-207419D02*
X61892856Y-255038D01*
X61892856Y-255038D02*
X61988094Y-350276D01*
X61988094Y-350276D02*
X62035713Y-445514D01*
X62035713Y-445514D02*
X62083332Y-635990D01*
X62083332Y-635990D02*
X62083332Y-778847D01*
X62083332Y-778847D02*
X62035713Y-969323D01*
X62035713Y-969323D02*
X61988094Y-1064561D01*
X61988094Y-1064561D02*
X61892856Y-1159800D01*
X61892856Y-1159800D02*
X61749999Y-1207419D01*
X61749999Y-1207419D02*
X61654761Y-1207419D01*
X61654761Y-1207419D02*
X61511904Y-1159800D01*
X61511904Y-1159800D02*
X61464285Y-1112180D01*
X61464285Y-1112180D02*
X61464285Y-778847D01*
X61464285Y-778847D02*
X61654761Y-778847D01*
X61035713Y-1207419D02*
X61035713Y-207419D01*
X61035713Y-207419D02*
X60464285Y-1207419D01*
X60464285Y-1207419D02*
X60464285Y-207419D01*
X59988094Y-1207419D02*
X59988094Y-207419D01*
X59988094Y-207419D02*
X59749999Y-207419D01*
X59749999Y-207419D02*
X59607142Y-255038D01*
X59607142Y-255038D02*
X59511904Y-350276D01*
X59511904Y-350276D02*
X59464285Y-445514D01*
X59464285Y-445514D02*
X59416666Y-635990D01*
X59416666Y-635990D02*
X59416666Y-778847D01*
X59416666Y-778847D02*
X59464285Y-969323D01*
X59464285Y-969323D02*
X59511904Y-1064561D01*
X59511904Y-1064561D02*
X59607142Y-1159800D01*
X59607142Y-1159800D02*
X59749999Y-1207419D01*
X59749999Y-1207419D02*
X59988094Y-1207419D01*
%LPC*%
D14*
%TO.C,TP101*%
X67500000Y-17500000D03*
%TD*%
D15*
%TO.C,J301*%
X63500000Y-2750000D03*
D16*
X60960000Y-2750000D03*
X58420000Y-2750000D03*
X55880000Y-2750000D03*
X53340000Y-2750000D03*
X50800000Y-2750000D03*
%TD*%
D17*
%TO.C,J401*%
X53960000Y-10500000D03*
D18*
X56500000Y-10500000D03*
D17*
X59040000Y-10500000D03*
X53960000Y-7325000D03*
X59040000Y-7325000D03*
D18*
X55484000Y-5420000D03*
X57516000Y-5420000D03*
%TD*%
D14*
%TO.C,TP508*%
X14000000Y-13500000D03*
%TD*%
D19*
%TO.C,H104*%
X81500000Y-36500000D03*
D20*
X81500000Y-36500000D03*
%TD*%
D19*
%TO.C,H102*%
X81500000Y-3500000D03*
D20*
X81500000Y-3500000D03*
%TD*%
D19*
%TO.C,H103*%
X14000000Y-3500000D03*
D20*
X14000000Y-3500000D03*
%TD*%
D19*
%TO.C,H101*%
X14000000Y-36500000D03*
D20*
X14000000Y-36500000D03*
%TD*%
G36*
X86976326Y1133053D02*
G01*
X86997978Y1082539D01*
X86999978Y1000899D01*
X87000000Y999087D01*
X87000000Y-40999086D01*
X86999978Y-41000898D01*
X86997978Y-41082538D01*
X86975029Y-41134318D01*
X86922188Y-41154704D01*
X86870408Y-41131755D01*
X86850000Y-41080726D01*
X86850000Y1080727D01*
X86871674Y1133053D01*
X86924000Y1154727D01*
X86976326Y1133053D01*
G37*
G36*
X86000898Y1999978D02*
G01*
X86091882Y1997750D01*
X86104507Y1996350D01*
X86283838Y1960678D01*
X86297719Y1956467D01*
X86465802Y1886845D01*
X86478596Y1880007D01*
X86629867Y1778931D01*
X86641081Y1769728D01*
X86769727Y1641082D01*
X86778930Y1629868D01*
X86880006Y1478597D01*
X86886844Y1465803D01*
X86956466Y1297720D01*
X86960677Y1283839D01*
X86996349Y1104508D01*
X86997749Y1091883D01*
X86999978Y1000899D01*
X87000000Y999087D01*
X87000000Y-40999086D01*
X86999978Y-41000898D01*
X86997749Y-41091882D01*
X86996349Y-41104507D01*
X86960677Y-41283838D01*
X86956466Y-41297719D01*
X86886844Y-41465802D01*
X86880006Y-41478596D01*
X86778930Y-41629867D01*
X86769727Y-41641081D01*
X86641081Y-41769727D01*
X86629867Y-41778930D01*
X86478596Y-41880006D01*
X86465802Y-41886844D01*
X86297719Y-41956466D01*
X86283838Y-41960677D01*
X86104507Y-41996349D01*
X86091882Y-41997749D01*
X86000898Y-41999978D01*
X85999086Y-42000000D01*
X-999086Y-42000000D01*
X-1000898Y-41999978D01*
X-1091883Y-41997749D01*
X-1104508Y-41996349D01*
X-1283839Y-41960677D01*
X-1297720Y-41956466D01*
X-1465803Y-41886844D01*
X-1478597Y-41880006D01*
X-1629868Y-41778930D01*
X-1641082Y-41769727D01*
X-1769728Y-41641081D01*
X-1778931Y-41629867D01*
X-1880007Y-41478596D01*
X-1886845Y-41465802D01*
X-1956467Y-41297719D01*
X-1960678Y-41283838D01*
X-1996350Y-41104507D01*
X-1997750Y-41091882D01*
X-1999978Y-41000898D01*
X-2000000Y-40999086D01*
X-2000000Y-40250000D01*
X-250000Y-40250000D01*
X85250000Y-40250000D01*
X85250000Y250000D01*
X-250000Y250000D01*
X-250000Y-40250000D01*
X-2000000Y-40250000D01*
X-2000000Y999087D01*
X-1999978Y1000899D01*
X-1997750Y1091883D01*
X-1996350Y1104508D01*
X-1960678Y1283839D01*
X-1956467Y1297720D01*
X-1886845Y1465803D01*
X-1880007Y1478597D01*
X-1778931Y1629868D01*
X-1769728Y1641082D01*
X-1641082Y1769728D01*
X-1629868Y1778931D01*
X-1478597Y1880007D01*
X-1465803Y1886845D01*
X-1297720Y1956467D01*
X-1283839Y1960678D01*
X-1104508Y1996350D01*
X-1091883Y1997750D01*
X-1000898Y1999978D01*
X-999086Y2000000D01*
X85999086Y2000000D01*
X86000898Y1999978D01*
G37*
%LPD*%
M02*
