%TF.GenerationSoftware,KiCad,Pcbnew,8.0.4*%
%TF.CreationDate,2024-11-25T16:05:12+13:00*%
%TF.ProjectId,CDRC,43445243-2e6b-4696-9361-645f70636258,B*%
%TF.SameCoordinates,Original*%
%TF.FileFunction,Legend,Bot*%
%TF.FilePolarity,Positive*%
%FSLAX46Y46*%
G04 Gerber Fmt 4.6, Leading zero omitted, Abs format (unit mm)*
G04 Created by KiCad (PCBNEW 8.0.4) date 2024-11-25 16:05:12*
%MOMM*%
%LPD*%
G01*
G04 APERTURE LIST*
%ADD10C,1.000000*%
%ADD11C,0.100000*%
%ADD12C,0.125000*%
%ADD13C,0.000000*%
%ADD14C,1.200000*%
%ADD15C,2.000000*%
%ADD16R,1.700000X1.700000*%
%ADD17O,1.700000X1.700000*%
%ADD18C,2.374900*%
%ADD19C,0.990600*%
%ADD20C,3.100000*%
%ADD21C,4.500000*%
G04 APERTURE END LIST*
D10*
X44500000Y-21000000D02*
X44500000Y-8500000D01*
X28500000Y-22000000D02*
X43500000Y-22000000D01*
D11*
X80500000Y-13000000D02*
X87000000Y-13000000D01*
D10*
X44500000Y-21000000D02*
G75*
G02*
X43500000Y-22000000I-1000000J0D01*
G01*
D11*
X19500000Y-4050000D02*
X28500000Y-4050000D01*
X28500000Y-38950000D01*
X19500000Y-38950000D01*
X19500000Y-4050000D01*
G36*
X19500000Y-4050000D02*
G01*
X28500000Y-4050000D01*
X28500000Y-38950000D01*
X19500000Y-38950000D01*
X19500000Y-4050000D01*
G37*
X87000000Y-31250000D02*
X80500000Y-31250000D01*
X46500000Y-6500000D02*
G75*
G02*
X42500000Y-6500000I-2000000J0D01*
G01*
X42500000Y-6500000D02*
G75*
G02*
X46500000Y-6500000I2000000J0D01*
G01*
X80500000Y-31250000D02*
X80500000Y-14250000D01*
X47250000Y-6500000D02*
G75*
G02*
X41750000Y-6500000I-2750000J0D01*
G01*
X41750000Y-6500000D02*
G75*
G02*
X47250000Y-6500000I2750000J0D01*
G01*
X80500000Y-14250000D02*
X80500000Y-13000000D01*
X5351503Y-35505038D02*
X5446741Y-35457419D01*
X5446741Y-35457419D02*
X5589598Y-35457419D01*
X5589598Y-35457419D02*
X5732455Y-35505038D01*
X5732455Y-35505038D02*
X5827693Y-35600276D01*
X5827693Y-35600276D02*
X5875312Y-35695514D01*
X5875312Y-35695514D02*
X5922931Y-35885990D01*
X5922931Y-35885990D02*
X5922931Y-36028847D01*
X5922931Y-36028847D02*
X5875312Y-36219323D01*
X5875312Y-36219323D02*
X5827693Y-36314561D01*
X5827693Y-36314561D02*
X5732455Y-36409800D01*
X5732455Y-36409800D02*
X5589598Y-36457419D01*
X5589598Y-36457419D02*
X5494360Y-36457419D01*
X5494360Y-36457419D02*
X5351503Y-36409800D01*
X5351503Y-36409800D02*
X5303884Y-36362180D01*
X5303884Y-36362180D02*
X5303884Y-36028847D01*
X5303884Y-36028847D02*
X5494360Y-36028847D01*
X4875312Y-36457419D02*
X4875312Y-35457419D01*
X4875312Y-35457419D02*
X4303884Y-36457419D01*
X4303884Y-36457419D02*
X4303884Y-35457419D01*
X3827693Y-36457419D02*
X3827693Y-35457419D01*
X3827693Y-35457419D02*
X3589598Y-35457419D01*
X3589598Y-35457419D02*
X3446741Y-35505038D01*
X3446741Y-35505038D02*
X3351503Y-35600276D01*
X3351503Y-35600276D02*
X3303884Y-35695514D01*
X3303884Y-35695514D02*
X3256265Y-35885990D01*
X3256265Y-35885990D02*
X3256265Y-36028847D01*
X3256265Y-36028847D02*
X3303884Y-36219323D01*
X3303884Y-36219323D02*
X3351503Y-36314561D01*
X3351503Y-36314561D02*
X3446741Y-36409800D01*
X3446741Y-36409800D02*
X3589598Y-36457419D01*
X3589598Y-36457419D02*
X3827693Y-36457419D01*
X78119048Y-3957419D02*
X78119048Y-4671704D01*
X78119048Y-4671704D02*
X78166667Y-4814561D01*
X78166667Y-4814561D02*
X78261905Y-4909800D01*
X78261905Y-4909800D02*
X78404762Y-4957419D01*
X78404762Y-4957419D02*
X78500000Y-4957419D01*
X77166667Y-4957419D02*
X77642857Y-4957419D01*
X77642857Y-4957419D02*
X77642857Y-3957419D01*
X76261905Y-4862180D02*
X76309524Y-4909800D01*
X76309524Y-4909800D02*
X76452381Y-4957419D01*
X76452381Y-4957419D02*
X76547619Y-4957419D01*
X76547619Y-4957419D02*
X76690476Y-4909800D01*
X76690476Y-4909800D02*
X76785714Y-4814561D01*
X76785714Y-4814561D02*
X76833333Y-4719323D01*
X76833333Y-4719323D02*
X76880952Y-4528847D01*
X76880952Y-4528847D02*
X76880952Y-4385990D01*
X76880952Y-4385990D02*
X76833333Y-4195514D01*
X76833333Y-4195514D02*
X76785714Y-4100276D01*
X76785714Y-4100276D02*
X76690476Y-4005038D01*
X76690476Y-4005038D02*
X76547619Y-3957419D01*
X76547619Y-3957419D02*
X76452381Y-3957419D01*
X76452381Y-3957419D02*
X76309524Y-4005038D01*
X76309524Y-4005038D02*
X76261905Y-4052657D01*
X75547619Y-3957419D02*
X75547619Y-4671704D01*
X75547619Y-4671704D02*
X75595238Y-4814561D01*
X75595238Y-4814561D02*
X75690476Y-4909800D01*
X75690476Y-4909800D02*
X75833333Y-4957419D01*
X75833333Y-4957419D02*
X75928571Y-4957419D01*
X74595238Y-4957419D02*
X75071428Y-4957419D01*
X75071428Y-4957419D02*
X75071428Y-3957419D01*
X73690476Y-4862180D02*
X73738095Y-4909800D01*
X73738095Y-4909800D02*
X73880952Y-4957419D01*
X73880952Y-4957419D02*
X73976190Y-4957419D01*
X73976190Y-4957419D02*
X74119047Y-4909800D01*
X74119047Y-4909800D02*
X74214285Y-4814561D01*
X74214285Y-4814561D02*
X74261904Y-4719323D01*
X74261904Y-4719323D02*
X74309523Y-4528847D01*
X74309523Y-4528847D02*
X74309523Y-4385990D01*
X74309523Y-4385990D02*
X74261904Y-4195514D01*
X74261904Y-4195514D02*
X74214285Y-4100276D01*
X74214285Y-4100276D02*
X74119047Y-4005038D01*
X74119047Y-4005038D02*
X73976190Y-3957419D01*
X73976190Y-3957419D02*
X73880952Y-3957419D01*
X73880952Y-3957419D02*
X73738095Y-4005038D01*
X73738095Y-4005038D02*
X73690476Y-4052657D01*
X72976190Y-3957419D02*
X72976190Y-4671704D01*
X72976190Y-4671704D02*
X73023809Y-4814561D01*
X73023809Y-4814561D02*
X73119047Y-4909800D01*
X73119047Y-4909800D02*
X73261904Y-4957419D01*
X73261904Y-4957419D02*
X73357142Y-4957419D01*
X72023809Y-4957419D02*
X72499999Y-4957419D01*
X72499999Y-4957419D02*
X72499999Y-3957419D01*
X71119047Y-4862180D02*
X71166666Y-4909800D01*
X71166666Y-4909800D02*
X71309523Y-4957419D01*
X71309523Y-4957419D02*
X71404761Y-4957419D01*
X71404761Y-4957419D02*
X71547618Y-4909800D01*
X71547618Y-4909800D02*
X71642856Y-4814561D01*
X71642856Y-4814561D02*
X71690475Y-4719323D01*
X71690475Y-4719323D02*
X71738094Y-4528847D01*
X71738094Y-4528847D02*
X71738094Y-4385990D01*
X71738094Y-4385990D02*
X71690475Y-4195514D01*
X71690475Y-4195514D02*
X71642856Y-4100276D01*
X71642856Y-4100276D02*
X71547618Y-4005038D01*
X71547618Y-4005038D02*
X71404761Y-3957419D01*
X71404761Y-3957419D02*
X71309523Y-3957419D01*
X71309523Y-3957419D02*
X71166666Y-4005038D01*
X71166666Y-4005038D02*
X71119047Y-4052657D01*
X70404761Y-3957419D02*
X70404761Y-4671704D01*
X70404761Y-4671704D02*
X70452380Y-4814561D01*
X70452380Y-4814561D02*
X70547618Y-4909800D01*
X70547618Y-4909800D02*
X70690475Y-4957419D01*
X70690475Y-4957419D02*
X70785713Y-4957419D01*
X69452380Y-4957419D02*
X69928570Y-4957419D01*
X69928570Y-4957419D02*
X69928570Y-3957419D01*
X68547618Y-4862180D02*
X68595237Y-4909800D01*
X68595237Y-4909800D02*
X68738094Y-4957419D01*
X68738094Y-4957419D02*
X68833332Y-4957419D01*
X68833332Y-4957419D02*
X68976189Y-4909800D01*
X68976189Y-4909800D02*
X69071427Y-4814561D01*
X69071427Y-4814561D02*
X69119046Y-4719323D01*
X69119046Y-4719323D02*
X69166665Y-4528847D01*
X69166665Y-4528847D02*
X69166665Y-4385990D01*
X69166665Y-4385990D02*
X69119046Y-4195514D01*
X69119046Y-4195514D02*
X69071427Y-4100276D01*
X69071427Y-4100276D02*
X68976189Y-4005038D01*
X68976189Y-4005038D02*
X68833332Y-3957419D01*
X68833332Y-3957419D02*
X68738094Y-3957419D01*
X68738094Y-3957419D02*
X68595237Y-4005038D01*
X68595237Y-4005038D02*
X68547618Y-4052657D01*
X85166666Y-25005038D02*
X85261904Y-24957419D01*
X85261904Y-24957419D02*
X85404761Y-24957419D01*
X85404761Y-24957419D02*
X85547618Y-25005038D01*
X85547618Y-25005038D02*
X85642856Y-25100276D01*
X85642856Y-25100276D02*
X85690475Y-25195514D01*
X85690475Y-25195514D02*
X85738094Y-25385990D01*
X85738094Y-25385990D02*
X85738094Y-25528847D01*
X85738094Y-25528847D02*
X85690475Y-25719323D01*
X85690475Y-25719323D02*
X85642856Y-25814561D01*
X85642856Y-25814561D02*
X85547618Y-25909800D01*
X85547618Y-25909800D02*
X85404761Y-25957419D01*
X85404761Y-25957419D02*
X85309523Y-25957419D01*
X85309523Y-25957419D02*
X85166666Y-25909800D01*
X85166666Y-25909800D02*
X85119047Y-25862180D01*
X85119047Y-25862180D02*
X85119047Y-25528847D01*
X85119047Y-25528847D02*
X85309523Y-25528847D01*
X84119047Y-25957419D02*
X84452380Y-25481228D01*
X84690475Y-25957419D02*
X84690475Y-24957419D01*
X84690475Y-24957419D02*
X84309523Y-24957419D01*
X84309523Y-24957419D02*
X84214285Y-25005038D01*
X84214285Y-25005038D02*
X84166666Y-25052657D01*
X84166666Y-25052657D02*
X84119047Y-25147895D01*
X84119047Y-25147895D02*
X84119047Y-25290752D01*
X84119047Y-25290752D02*
X84166666Y-25385990D01*
X84166666Y-25385990D02*
X84214285Y-25433609D01*
X84214285Y-25433609D02*
X84309523Y-25481228D01*
X84309523Y-25481228D02*
X84690475Y-25481228D01*
X83690475Y-25433609D02*
X83357142Y-25433609D01*
X83214285Y-25957419D02*
X83690475Y-25957419D01*
X83690475Y-25957419D02*
X83690475Y-24957419D01*
X83690475Y-24957419D02*
X83214285Y-24957419D01*
X82785713Y-25433609D02*
X82452380Y-25433609D01*
X82309523Y-25957419D02*
X82785713Y-25957419D01*
X82785713Y-25957419D02*
X82785713Y-24957419D01*
X82785713Y-24957419D02*
X82309523Y-24957419D01*
X81880951Y-25957419D02*
X81880951Y-24957419D01*
X81880951Y-24957419D02*
X81309523Y-25957419D01*
X81309523Y-25957419D02*
X81309523Y-24957419D01*
X5351503Y-31505038D02*
X5446741Y-31457419D01*
X5446741Y-31457419D02*
X5589598Y-31457419D01*
X5589598Y-31457419D02*
X5732455Y-31505038D01*
X5732455Y-31505038D02*
X5827693Y-31600276D01*
X5827693Y-31600276D02*
X5875312Y-31695514D01*
X5875312Y-31695514D02*
X5922931Y-31885990D01*
X5922931Y-31885990D02*
X5922931Y-32028847D01*
X5922931Y-32028847D02*
X5875312Y-32219323D01*
X5875312Y-32219323D02*
X5827693Y-32314561D01*
X5827693Y-32314561D02*
X5732455Y-32409800D01*
X5732455Y-32409800D02*
X5589598Y-32457419D01*
X5589598Y-32457419D02*
X5494360Y-32457419D01*
X5494360Y-32457419D02*
X5351503Y-32409800D01*
X5351503Y-32409800D02*
X5303884Y-32362180D01*
X5303884Y-32362180D02*
X5303884Y-32028847D01*
X5303884Y-32028847D02*
X5494360Y-32028847D01*
X4875312Y-32457419D02*
X4875312Y-31457419D01*
X4875312Y-31457419D02*
X4303884Y-32457419D01*
X4303884Y-32457419D02*
X4303884Y-31457419D01*
X3827693Y-32457419D02*
X3827693Y-31457419D01*
X3827693Y-31457419D02*
X3589598Y-31457419D01*
X3589598Y-31457419D02*
X3446741Y-31505038D01*
X3446741Y-31505038D02*
X3351503Y-31600276D01*
X3351503Y-31600276D02*
X3303884Y-31695514D01*
X3303884Y-31695514D02*
X3256265Y-31885990D01*
X3256265Y-31885990D02*
X3256265Y-32028847D01*
X3256265Y-32028847D02*
X3303884Y-32219323D01*
X3303884Y-32219323D02*
X3351503Y-32314561D01*
X3351503Y-32314561D02*
X3446741Y-32409800D01*
X3446741Y-32409800D02*
X3589598Y-32457419D01*
X3589598Y-32457419D02*
X3827693Y-32457419D01*
X9589598Y-13933609D02*
X9256265Y-13933609D01*
X9113408Y-14457419D02*
X9589598Y-14457419D01*
X9589598Y-14457419D02*
X9589598Y-13457419D01*
X9589598Y-13457419D02*
X9113408Y-13457419D01*
X8684836Y-14457419D02*
X8684836Y-13457419D01*
X8684836Y-13457419D02*
X8113408Y-14457419D01*
X8113408Y-14457419D02*
X8113408Y-13457419D01*
X7065789Y-14362180D02*
X7113408Y-14409800D01*
X7113408Y-14409800D02*
X7256265Y-14457419D01*
X7256265Y-14457419D02*
X7351503Y-14457419D01*
X7351503Y-14457419D02*
X7494360Y-14409800D01*
X7494360Y-14409800D02*
X7589598Y-14314561D01*
X7589598Y-14314561D02*
X7637217Y-14219323D01*
X7637217Y-14219323D02*
X7684836Y-14028847D01*
X7684836Y-14028847D02*
X7684836Y-13885990D01*
X7684836Y-13885990D02*
X7637217Y-13695514D01*
X7637217Y-13695514D02*
X7589598Y-13600276D01*
X7589598Y-13600276D02*
X7494360Y-13505038D01*
X7494360Y-13505038D02*
X7351503Y-13457419D01*
X7351503Y-13457419D02*
X7256265Y-13457419D01*
X7256265Y-13457419D02*
X7113408Y-13505038D01*
X7113408Y-13505038D02*
X7065789Y-13552657D01*
X6875313Y-14552657D02*
X6113408Y-14552657D01*
X5922931Y-13552657D02*
X5875312Y-13505038D01*
X5875312Y-13505038D02*
X5780074Y-13457419D01*
X5780074Y-13457419D02*
X5541979Y-13457419D01*
X5541979Y-13457419D02*
X5446741Y-13505038D01*
X5446741Y-13505038D02*
X5399122Y-13552657D01*
X5399122Y-13552657D02*
X5351503Y-13647895D01*
X5351503Y-13647895D02*
X5351503Y-13743133D01*
X5351503Y-13743133D02*
X5399122Y-13885990D01*
X5399122Y-13885990D02*
X5970550Y-14457419D01*
X5970550Y-14457419D02*
X5351503Y-14457419D01*
X4970550Y-14409800D02*
X4827693Y-14457419D01*
X4827693Y-14457419D02*
X4589598Y-14457419D01*
X4589598Y-14457419D02*
X4494360Y-14409800D01*
X4494360Y-14409800D02*
X4446741Y-14362180D01*
X4446741Y-14362180D02*
X4399122Y-14266942D01*
X4399122Y-14266942D02*
X4399122Y-14171704D01*
X4399122Y-14171704D02*
X4446741Y-14076466D01*
X4446741Y-14076466D02*
X4494360Y-14028847D01*
X4494360Y-14028847D02*
X4589598Y-13981228D01*
X4589598Y-13981228D02*
X4780074Y-13933609D01*
X4780074Y-13933609D02*
X4875312Y-13885990D01*
X4875312Y-13885990D02*
X4922931Y-13838371D01*
X4922931Y-13838371D02*
X4970550Y-13743133D01*
X4970550Y-13743133D02*
X4970550Y-13647895D01*
X4970550Y-13647895D02*
X4922931Y-13552657D01*
X4922931Y-13552657D02*
X4875312Y-13505038D01*
X4875312Y-13505038D02*
X4780074Y-13457419D01*
X4780074Y-13457419D02*
X4541979Y-13457419D01*
X4541979Y-13457419D02*
X4399122Y-13505038D01*
X4065788Y-13457419D02*
X3827693Y-14457419D01*
X3827693Y-14457419D02*
X3637217Y-13743133D01*
X3637217Y-13743133D02*
X3446741Y-14457419D01*
X3446741Y-14457419D02*
X3208646Y-13457419D01*
X84142857Y-23457419D02*
X84476190Y-22981228D01*
X84714285Y-23457419D02*
X84714285Y-22457419D01*
X84714285Y-22457419D02*
X84333333Y-22457419D01*
X84333333Y-22457419D02*
X84238095Y-22505038D01*
X84238095Y-22505038D02*
X84190476Y-22552657D01*
X84190476Y-22552657D02*
X84142857Y-22647895D01*
X84142857Y-22647895D02*
X84142857Y-22790752D01*
X84142857Y-22790752D02*
X84190476Y-22885990D01*
X84190476Y-22885990D02*
X84238095Y-22933609D01*
X84238095Y-22933609D02*
X84333333Y-22981228D01*
X84333333Y-22981228D02*
X84714285Y-22981228D01*
X83714285Y-22933609D02*
X83380952Y-22933609D01*
X83238095Y-23457419D02*
X83714285Y-23457419D01*
X83714285Y-23457419D02*
X83714285Y-22457419D01*
X83714285Y-22457419D02*
X83238095Y-22457419D01*
X82809523Y-23457419D02*
X82809523Y-22457419D01*
X82809523Y-22457419D02*
X82571428Y-22457419D01*
X82571428Y-22457419D02*
X82428571Y-22505038D01*
X82428571Y-22505038D02*
X82333333Y-22600276D01*
X82333333Y-22600276D02*
X82285714Y-22695514D01*
X82285714Y-22695514D02*
X82238095Y-22885990D01*
X82238095Y-22885990D02*
X82238095Y-23028847D01*
X82238095Y-23028847D02*
X82285714Y-23219323D01*
X82285714Y-23219323D02*
X82333333Y-23314561D01*
X82333333Y-23314561D02*
X82428571Y-23409800D01*
X82428571Y-23409800D02*
X82571428Y-23457419D01*
X82571428Y-23457419D02*
X82809523Y-23457419D01*
X6303884Y-21457419D02*
X6780074Y-21457419D01*
X6780074Y-21457419D02*
X6780074Y-20457419D01*
X5970550Y-20933609D02*
X5637217Y-20933609D01*
X5494360Y-21457419D02*
X5970550Y-21457419D01*
X5970550Y-21457419D02*
X5970550Y-20457419D01*
X5970550Y-20457419D02*
X5494360Y-20457419D01*
X5065788Y-21457419D02*
X5065788Y-20457419D01*
X5065788Y-20457419D02*
X4827693Y-20457419D01*
X4827693Y-20457419D02*
X4684836Y-20505038D01*
X4684836Y-20505038D02*
X4589598Y-20600276D01*
X4589598Y-20600276D02*
X4541979Y-20695514D01*
X4541979Y-20695514D02*
X4494360Y-20885990D01*
X4494360Y-20885990D02*
X4494360Y-21028847D01*
X4494360Y-21028847D02*
X4541979Y-21219323D01*
X4541979Y-21219323D02*
X4589598Y-21314561D01*
X4589598Y-21314561D02*
X4684836Y-21409800D01*
X4684836Y-21409800D02*
X4827693Y-21457419D01*
X4827693Y-21457419D02*
X5065788Y-21457419D01*
X4065788Y-21076466D02*
X3303884Y-21076466D01*
X67083332Y-2207419D02*
X66749999Y-3207419D01*
X66749999Y-3207419D02*
X66416666Y-2207419D01*
X65511904Y-3112180D02*
X65559523Y-3159800D01*
X65559523Y-3159800D02*
X65702380Y-3207419D01*
X65702380Y-3207419D02*
X65797618Y-3207419D01*
X65797618Y-3207419D02*
X65940475Y-3159800D01*
X65940475Y-3159800D02*
X66035713Y-3064561D01*
X66035713Y-3064561D02*
X66083332Y-2969323D01*
X66083332Y-2969323D02*
X66130951Y-2778847D01*
X66130951Y-2778847D02*
X66130951Y-2635990D01*
X66130951Y-2635990D02*
X66083332Y-2445514D01*
X66083332Y-2445514D02*
X66035713Y-2350276D01*
X66035713Y-2350276D02*
X65940475Y-2255038D01*
X65940475Y-2255038D02*
X65797618Y-2207419D01*
X65797618Y-2207419D02*
X65702380Y-2207419D01*
X65702380Y-2207419D02*
X65559523Y-2255038D01*
X65559523Y-2255038D02*
X65511904Y-2302657D01*
X64511904Y-3112180D02*
X64559523Y-3159800D01*
X64559523Y-3159800D02*
X64702380Y-3207419D01*
X64702380Y-3207419D02*
X64797618Y-3207419D01*
X64797618Y-3207419D02*
X64940475Y-3159800D01*
X64940475Y-3159800D02*
X65035713Y-3064561D01*
X65035713Y-3064561D02*
X65083332Y-2969323D01*
X65083332Y-2969323D02*
X65130951Y-2778847D01*
X65130951Y-2778847D02*
X65130951Y-2635990D01*
X65130951Y-2635990D02*
X65083332Y-2445514D01*
X65083332Y-2445514D02*
X65035713Y-2350276D01*
X65035713Y-2350276D02*
X64940475Y-2255038D01*
X64940475Y-2255038D02*
X64797618Y-2207419D01*
X64797618Y-2207419D02*
X64702380Y-2207419D01*
X64702380Y-2207419D02*
X64559523Y-2255038D01*
X64559523Y-2255038D02*
X64511904Y-2302657D01*
X5351503Y-7505038D02*
X5446741Y-7457419D01*
X5446741Y-7457419D02*
X5589598Y-7457419D01*
X5589598Y-7457419D02*
X5732455Y-7505038D01*
X5732455Y-7505038D02*
X5827693Y-7600276D01*
X5827693Y-7600276D02*
X5875312Y-7695514D01*
X5875312Y-7695514D02*
X5922931Y-7885990D01*
X5922931Y-7885990D02*
X5922931Y-8028847D01*
X5922931Y-8028847D02*
X5875312Y-8219323D01*
X5875312Y-8219323D02*
X5827693Y-8314561D01*
X5827693Y-8314561D02*
X5732455Y-8409800D01*
X5732455Y-8409800D02*
X5589598Y-8457419D01*
X5589598Y-8457419D02*
X5494360Y-8457419D01*
X5494360Y-8457419D02*
X5351503Y-8409800D01*
X5351503Y-8409800D02*
X5303884Y-8362180D01*
X5303884Y-8362180D02*
X5303884Y-8028847D01*
X5303884Y-8028847D02*
X5494360Y-8028847D01*
X4875312Y-8457419D02*
X4875312Y-7457419D01*
X4875312Y-7457419D02*
X4303884Y-8457419D01*
X4303884Y-8457419D02*
X4303884Y-7457419D01*
X3827693Y-8457419D02*
X3827693Y-7457419D01*
X3827693Y-7457419D02*
X3589598Y-7457419D01*
X3589598Y-7457419D02*
X3446741Y-7505038D01*
X3446741Y-7505038D02*
X3351503Y-7600276D01*
X3351503Y-7600276D02*
X3303884Y-7695514D01*
X3303884Y-7695514D02*
X3256265Y-7885990D01*
X3256265Y-7885990D02*
X3256265Y-8028847D01*
X3256265Y-8028847D02*
X3303884Y-8219323D01*
X3303884Y-8219323D02*
X3351503Y-8314561D01*
X3351503Y-8314561D02*
X3446741Y-8409800D01*
X3446741Y-8409800D02*
X3589598Y-8457419D01*
X3589598Y-8457419D02*
X3827693Y-8457419D01*
X8494360Y-33933609D02*
X8161027Y-33933609D01*
X8018170Y-34457419D02*
X8494360Y-34457419D01*
X8494360Y-34457419D02*
X8494360Y-33457419D01*
X8494360Y-33457419D02*
X8018170Y-33457419D01*
X7589598Y-34457419D02*
X7589598Y-33457419D01*
X7589598Y-33457419D02*
X7018170Y-34457419D01*
X7018170Y-34457419D02*
X7018170Y-33457419D01*
X5970551Y-34362180D02*
X6018170Y-34409800D01*
X6018170Y-34409800D02*
X6161027Y-34457419D01*
X6161027Y-34457419D02*
X6256265Y-34457419D01*
X6256265Y-34457419D02*
X6399122Y-34409800D01*
X6399122Y-34409800D02*
X6494360Y-34314561D01*
X6494360Y-34314561D02*
X6541979Y-34219323D01*
X6541979Y-34219323D02*
X6589598Y-34028847D01*
X6589598Y-34028847D02*
X6589598Y-33885990D01*
X6589598Y-33885990D02*
X6541979Y-33695514D01*
X6541979Y-33695514D02*
X6494360Y-33600276D01*
X6494360Y-33600276D02*
X6399122Y-33505038D01*
X6399122Y-33505038D02*
X6256265Y-33457419D01*
X6256265Y-33457419D02*
X6161027Y-33457419D01*
X6161027Y-33457419D02*
X6018170Y-33505038D01*
X6018170Y-33505038D02*
X5970551Y-33552657D01*
X5780075Y-34552657D02*
X5018170Y-34552657D01*
X4256265Y-34457419D02*
X4827693Y-34457419D01*
X4541979Y-34457419D02*
X4541979Y-33457419D01*
X4541979Y-33457419D02*
X4637217Y-33600276D01*
X4637217Y-33600276D02*
X4732455Y-33695514D01*
X4732455Y-33695514D02*
X4827693Y-33743133D01*
X3494360Y-33933609D02*
X3351503Y-33981228D01*
X3351503Y-33981228D02*
X3303884Y-34028847D01*
X3303884Y-34028847D02*
X3256265Y-34124085D01*
X3256265Y-34124085D02*
X3256265Y-34266942D01*
X3256265Y-34266942D02*
X3303884Y-34362180D01*
X3303884Y-34362180D02*
X3351503Y-34409800D01*
X3351503Y-34409800D02*
X3446741Y-34457419D01*
X3446741Y-34457419D02*
X3827693Y-34457419D01*
X3827693Y-34457419D02*
X3827693Y-33457419D01*
X3827693Y-33457419D02*
X3494360Y-33457419D01*
X3494360Y-33457419D02*
X3399122Y-33505038D01*
X3399122Y-33505038D02*
X3351503Y-33552657D01*
X3351503Y-33552657D02*
X3303884Y-33647895D01*
X3303884Y-33647895D02*
X3303884Y-33743133D01*
X3303884Y-33743133D02*
X3351503Y-33838371D01*
X3351503Y-33838371D02*
X3399122Y-33885990D01*
X3399122Y-33885990D02*
X3494360Y-33933609D01*
X3494360Y-33933609D02*
X3827693Y-33933609D01*
D12*
X63833333Y-21305908D02*
X63880952Y-21353528D01*
X63880952Y-21353528D02*
X64023809Y-21401147D01*
X64023809Y-21401147D02*
X64119047Y-21401147D01*
X64119047Y-21401147D02*
X64261904Y-21353528D01*
X64261904Y-21353528D02*
X64357142Y-21258289D01*
X64357142Y-21258289D02*
X64404761Y-21163051D01*
X64404761Y-21163051D02*
X64452380Y-20972575D01*
X64452380Y-20972575D02*
X64452380Y-20829718D01*
X64452380Y-20829718D02*
X64404761Y-20639242D01*
X64404761Y-20639242D02*
X64357142Y-20544004D01*
X64357142Y-20544004D02*
X64261904Y-20448766D01*
X64261904Y-20448766D02*
X64119047Y-20401147D01*
X64119047Y-20401147D02*
X64023809Y-20401147D01*
X64023809Y-20401147D02*
X63880952Y-20448766D01*
X63880952Y-20448766D02*
X63833333Y-20496385D01*
X62976190Y-20734480D02*
X62976190Y-21401147D01*
X63404761Y-20734480D02*
X63404761Y-21258289D01*
X63404761Y-21258289D02*
X63357142Y-21353528D01*
X63357142Y-21353528D02*
X63261904Y-21401147D01*
X63261904Y-21401147D02*
X63119047Y-21401147D01*
X63119047Y-21401147D02*
X63023809Y-21353528D01*
X63023809Y-21353528D02*
X62976190Y-21305908D01*
X62547618Y-21353528D02*
X62452380Y-21401147D01*
X62452380Y-21401147D02*
X62261904Y-21401147D01*
X62261904Y-21401147D02*
X62166666Y-21353528D01*
X62166666Y-21353528D02*
X62119047Y-21258289D01*
X62119047Y-21258289D02*
X62119047Y-21210670D01*
X62119047Y-21210670D02*
X62166666Y-21115432D01*
X62166666Y-21115432D02*
X62261904Y-21067813D01*
X62261904Y-21067813D02*
X62404761Y-21067813D01*
X62404761Y-21067813D02*
X62499999Y-21020194D01*
X62499999Y-21020194D02*
X62547618Y-20924956D01*
X62547618Y-20924956D02*
X62547618Y-20877337D01*
X62547618Y-20877337D02*
X62499999Y-20782099D01*
X62499999Y-20782099D02*
X62404761Y-20734480D01*
X62404761Y-20734480D02*
X62261904Y-20734480D01*
X62261904Y-20734480D02*
X62166666Y-20782099D01*
X61833332Y-20734480D02*
X61452380Y-20734480D01*
X61690475Y-20401147D02*
X61690475Y-21258289D01*
X61690475Y-21258289D02*
X61642856Y-21353528D01*
X61642856Y-21353528D02*
X61547618Y-21401147D01*
X61547618Y-21401147D02*
X61452380Y-21401147D01*
X60976189Y-21401147D02*
X61071427Y-21353528D01*
X61071427Y-21353528D02*
X61119046Y-21305908D01*
X61119046Y-21305908D02*
X61166665Y-21210670D01*
X61166665Y-21210670D02*
X61166665Y-20924956D01*
X61166665Y-20924956D02*
X61119046Y-20829718D01*
X61119046Y-20829718D02*
X61071427Y-20782099D01*
X61071427Y-20782099D02*
X60976189Y-20734480D01*
X60976189Y-20734480D02*
X60833332Y-20734480D01*
X60833332Y-20734480D02*
X60738094Y-20782099D01*
X60738094Y-20782099D02*
X60690475Y-20829718D01*
X60690475Y-20829718D02*
X60642856Y-20924956D01*
X60642856Y-20924956D02*
X60642856Y-21210670D01*
X60642856Y-21210670D02*
X60690475Y-21305908D01*
X60690475Y-21305908D02*
X60738094Y-21353528D01*
X60738094Y-21353528D02*
X60833332Y-21401147D01*
X60833332Y-21401147D02*
X60976189Y-21401147D01*
X60214284Y-21401147D02*
X60214284Y-20734480D01*
X60214284Y-20829718D02*
X60166665Y-20782099D01*
X60166665Y-20782099D02*
X60071427Y-20734480D01*
X60071427Y-20734480D02*
X59928570Y-20734480D01*
X59928570Y-20734480D02*
X59833332Y-20782099D01*
X59833332Y-20782099D02*
X59785713Y-20877337D01*
X59785713Y-20877337D02*
X59785713Y-21401147D01*
X59785713Y-20877337D02*
X59738094Y-20782099D01*
X59738094Y-20782099D02*
X59642856Y-20734480D01*
X59642856Y-20734480D02*
X59499999Y-20734480D01*
X59499999Y-20734480D02*
X59404760Y-20782099D01*
X59404760Y-20782099D02*
X59357141Y-20877337D01*
X59357141Y-20877337D02*
X59357141Y-21401147D01*
X58119046Y-21401147D02*
X58119046Y-20401147D01*
X58119046Y-20401147D02*
X57880951Y-20401147D01*
X57880951Y-20401147D02*
X57738094Y-20448766D01*
X57738094Y-20448766D02*
X57642856Y-20544004D01*
X57642856Y-20544004D02*
X57595237Y-20639242D01*
X57595237Y-20639242D02*
X57547618Y-20829718D01*
X57547618Y-20829718D02*
X57547618Y-20972575D01*
X57547618Y-20972575D02*
X57595237Y-21163051D01*
X57595237Y-21163051D02*
X57642856Y-21258289D01*
X57642856Y-21258289D02*
X57738094Y-21353528D01*
X57738094Y-21353528D02*
X57880951Y-21401147D01*
X57880951Y-21401147D02*
X58119046Y-21401147D01*
X56547618Y-21401147D02*
X56880951Y-20924956D01*
X57119046Y-21401147D02*
X57119046Y-20401147D01*
X57119046Y-20401147D02*
X56738094Y-20401147D01*
X56738094Y-20401147D02*
X56642856Y-20448766D01*
X56642856Y-20448766D02*
X56595237Y-20496385D01*
X56595237Y-20496385D02*
X56547618Y-20591623D01*
X56547618Y-20591623D02*
X56547618Y-20734480D01*
X56547618Y-20734480D02*
X56595237Y-20829718D01*
X56595237Y-20829718D02*
X56642856Y-20877337D01*
X56642856Y-20877337D02*
X56738094Y-20924956D01*
X56738094Y-20924956D02*
X57119046Y-20924956D01*
X55547618Y-21305908D02*
X55595237Y-21353528D01*
X55595237Y-21353528D02*
X55738094Y-21401147D01*
X55738094Y-21401147D02*
X55833332Y-21401147D01*
X55833332Y-21401147D02*
X55976189Y-21353528D01*
X55976189Y-21353528D02*
X56071427Y-21258289D01*
X56071427Y-21258289D02*
X56119046Y-21163051D01*
X56119046Y-21163051D02*
X56166665Y-20972575D01*
X56166665Y-20972575D02*
X56166665Y-20829718D01*
X56166665Y-20829718D02*
X56119046Y-20639242D01*
X56119046Y-20639242D02*
X56071427Y-20544004D01*
X56071427Y-20544004D02*
X55976189Y-20448766D01*
X55976189Y-20448766D02*
X55833332Y-20401147D01*
X55833332Y-20401147D02*
X55738094Y-20401147D01*
X55738094Y-20401147D02*
X55595237Y-20448766D01*
X55595237Y-20448766D02*
X55547618Y-20496385D01*
X55119046Y-21020194D02*
X54357142Y-21020194D01*
X53547618Y-20877337D02*
X53404761Y-20924956D01*
X53404761Y-20924956D02*
X53357142Y-20972575D01*
X53357142Y-20972575D02*
X53309523Y-21067813D01*
X53309523Y-21067813D02*
X53309523Y-21210670D01*
X53309523Y-21210670D02*
X53357142Y-21305908D01*
X53357142Y-21305908D02*
X53404761Y-21353528D01*
X53404761Y-21353528D02*
X53499999Y-21401147D01*
X53499999Y-21401147D02*
X53880951Y-21401147D01*
X53880951Y-21401147D02*
X53880951Y-20401147D01*
X53880951Y-20401147D02*
X53547618Y-20401147D01*
X53547618Y-20401147D02*
X53452380Y-20448766D01*
X53452380Y-20448766D02*
X53404761Y-20496385D01*
X53404761Y-20496385D02*
X53357142Y-20591623D01*
X53357142Y-20591623D02*
X53357142Y-20686861D01*
X53357142Y-20686861D02*
X53404761Y-20782099D01*
X53404761Y-20782099D02*
X53452380Y-20829718D01*
X53452380Y-20829718D02*
X53547618Y-20877337D01*
X53547618Y-20877337D02*
X53880951Y-20877337D01*
X63357142Y-22106329D02*
X63309523Y-22058710D01*
X63309523Y-22058710D02*
X63214285Y-22011091D01*
X63214285Y-22011091D02*
X62976190Y-22011091D01*
X62976190Y-22011091D02*
X62880952Y-22058710D01*
X62880952Y-22058710D02*
X62833333Y-22106329D01*
X62833333Y-22106329D02*
X62785714Y-22201567D01*
X62785714Y-22201567D02*
X62785714Y-22296805D01*
X62785714Y-22296805D02*
X62833333Y-22439662D01*
X62833333Y-22439662D02*
X63404761Y-23011091D01*
X63404761Y-23011091D02*
X62785714Y-23011091D01*
X61880952Y-22011091D02*
X62357142Y-22011091D01*
X62357142Y-22011091D02*
X62404761Y-22487281D01*
X62404761Y-22487281D02*
X62357142Y-22439662D01*
X62357142Y-22439662D02*
X62261904Y-22392043D01*
X62261904Y-22392043D02*
X62023809Y-22392043D01*
X62023809Y-22392043D02*
X61928571Y-22439662D01*
X61928571Y-22439662D02*
X61880952Y-22487281D01*
X61880952Y-22487281D02*
X61833333Y-22582519D01*
X61833333Y-22582519D02*
X61833333Y-22820614D01*
X61833333Y-22820614D02*
X61880952Y-22915852D01*
X61880952Y-22915852D02*
X61928571Y-22963472D01*
X61928571Y-22963472D02*
X62023809Y-23011091D01*
X62023809Y-23011091D02*
X62261904Y-23011091D01*
X62261904Y-23011091D02*
X62357142Y-22963472D01*
X62357142Y-22963472D02*
X62404761Y-22915852D01*
X61404761Y-22630138D02*
X60642857Y-22630138D01*
X59642857Y-23011091D02*
X60214285Y-23011091D01*
X59928571Y-23011091D02*
X59928571Y-22011091D01*
X59928571Y-22011091D02*
X60023809Y-22153948D01*
X60023809Y-22153948D02*
X60119047Y-22249186D01*
X60119047Y-22249186D02*
X60214285Y-22296805D01*
X58690476Y-23011091D02*
X59261904Y-23011091D01*
X58976190Y-23011091D02*
X58976190Y-22011091D01*
X58976190Y-22011091D02*
X59071428Y-22153948D01*
X59071428Y-22153948D02*
X59166666Y-22249186D01*
X59166666Y-22249186D02*
X59261904Y-22296805D01*
X58261904Y-22630138D02*
X57500000Y-22630138D01*
X57071428Y-22106329D02*
X57023809Y-22058710D01*
X57023809Y-22058710D02*
X56928571Y-22011091D01*
X56928571Y-22011091D02*
X56690476Y-22011091D01*
X56690476Y-22011091D02*
X56595238Y-22058710D01*
X56595238Y-22058710D02*
X56547619Y-22106329D01*
X56547619Y-22106329D02*
X56500000Y-22201567D01*
X56500000Y-22201567D02*
X56500000Y-22296805D01*
X56500000Y-22296805D02*
X56547619Y-22439662D01*
X56547619Y-22439662D02*
X57119047Y-23011091D01*
X57119047Y-23011091D02*
X56500000Y-23011091D01*
X55880952Y-22011091D02*
X55785714Y-22011091D01*
X55785714Y-22011091D02*
X55690476Y-22058710D01*
X55690476Y-22058710D02*
X55642857Y-22106329D01*
X55642857Y-22106329D02*
X55595238Y-22201567D01*
X55595238Y-22201567D02*
X55547619Y-22392043D01*
X55547619Y-22392043D02*
X55547619Y-22630138D01*
X55547619Y-22630138D02*
X55595238Y-22820614D01*
X55595238Y-22820614D02*
X55642857Y-22915852D01*
X55642857Y-22915852D02*
X55690476Y-22963472D01*
X55690476Y-22963472D02*
X55785714Y-23011091D01*
X55785714Y-23011091D02*
X55880952Y-23011091D01*
X55880952Y-23011091D02*
X55976190Y-22963472D01*
X55976190Y-22963472D02*
X56023809Y-22915852D01*
X56023809Y-22915852D02*
X56071428Y-22820614D01*
X56071428Y-22820614D02*
X56119047Y-22630138D01*
X56119047Y-22630138D02*
X56119047Y-22392043D01*
X56119047Y-22392043D02*
X56071428Y-22201567D01*
X56071428Y-22201567D02*
X56023809Y-22106329D01*
X56023809Y-22106329D02*
X55976190Y-22058710D01*
X55976190Y-22058710D02*
X55880952Y-22011091D01*
X55166666Y-22106329D02*
X55119047Y-22058710D01*
X55119047Y-22058710D02*
X55023809Y-22011091D01*
X55023809Y-22011091D02*
X54785714Y-22011091D01*
X54785714Y-22011091D02*
X54690476Y-22058710D01*
X54690476Y-22058710D02*
X54642857Y-22106329D01*
X54642857Y-22106329D02*
X54595238Y-22201567D01*
X54595238Y-22201567D02*
X54595238Y-22296805D01*
X54595238Y-22296805D02*
X54642857Y-22439662D01*
X54642857Y-22439662D02*
X55214285Y-23011091D01*
X55214285Y-23011091D02*
X54595238Y-23011091D01*
X53738095Y-22344424D02*
X53738095Y-23011091D01*
X53976190Y-21963472D02*
X54214285Y-22677757D01*
X54214285Y-22677757D02*
X53595238Y-22677757D01*
D11*
X59011904Y-2207419D02*
X58440476Y-2207419D01*
X58726190Y-3207419D02*
X58726190Y-2207419D01*
X58202380Y-2207419D02*
X57535714Y-3207419D01*
X57535714Y-2207419D02*
X58202380Y-3207419D01*
X6303884Y-23457419D02*
X6780074Y-23457419D01*
X6780074Y-23457419D02*
X6780074Y-22457419D01*
X5970550Y-22933609D02*
X5637217Y-22933609D01*
X5494360Y-23457419D02*
X5970550Y-23457419D01*
X5970550Y-23457419D02*
X5970550Y-22457419D01*
X5970550Y-22457419D02*
X5494360Y-22457419D01*
X5065788Y-23457419D02*
X5065788Y-22457419D01*
X5065788Y-22457419D02*
X4827693Y-22457419D01*
X4827693Y-22457419D02*
X4684836Y-22505038D01*
X4684836Y-22505038D02*
X4589598Y-22600276D01*
X4589598Y-22600276D02*
X4541979Y-22695514D01*
X4541979Y-22695514D02*
X4494360Y-22885990D01*
X4494360Y-22885990D02*
X4494360Y-23028847D01*
X4494360Y-23028847D02*
X4541979Y-23219323D01*
X4541979Y-23219323D02*
X4589598Y-23314561D01*
X4589598Y-23314561D02*
X4684836Y-23409800D01*
X4684836Y-23409800D02*
X4827693Y-23457419D01*
X4827693Y-23457419D02*
X5065788Y-23457419D01*
X4065788Y-23076466D02*
X3303884Y-23076466D01*
X3684836Y-23457419D02*
X3684836Y-22695514D01*
X8494360Y-9933609D02*
X8161027Y-9933609D01*
X8018170Y-10457419D02*
X8494360Y-10457419D01*
X8494360Y-10457419D02*
X8494360Y-9457419D01*
X8494360Y-9457419D02*
X8018170Y-9457419D01*
X7589598Y-10457419D02*
X7589598Y-9457419D01*
X7589598Y-9457419D02*
X7018170Y-10457419D01*
X7018170Y-10457419D02*
X7018170Y-9457419D01*
X5970551Y-10362180D02*
X6018170Y-10409800D01*
X6018170Y-10409800D02*
X6161027Y-10457419D01*
X6161027Y-10457419D02*
X6256265Y-10457419D01*
X6256265Y-10457419D02*
X6399122Y-10409800D01*
X6399122Y-10409800D02*
X6494360Y-10314561D01*
X6494360Y-10314561D02*
X6541979Y-10219323D01*
X6541979Y-10219323D02*
X6589598Y-10028847D01*
X6589598Y-10028847D02*
X6589598Y-9885990D01*
X6589598Y-9885990D02*
X6541979Y-9695514D01*
X6541979Y-9695514D02*
X6494360Y-9600276D01*
X6494360Y-9600276D02*
X6399122Y-9505038D01*
X6399122Y-9505038D02*
X6256265Y-9457419D01*
X6256265Y-9457419D02*
X6161027Y-9457419D01*
X6161027Y-9457419D02*
X6018170Y-9505038D01*
X6018170Y-9505038D02*
X5970551Y-9552657D01*
X5780075Y-10552657D02*
X5018170Y-10552657D01*
X4827693Y-9552657D02*
X4780074Y-9505038D01*
X4780074Y-9505038D02*
X4684836Y-9457419D01*
X4684836Y-9457419D02*
X4446741Y-9457419D01*
X4446741Y-9457419D02*
X4351503Y-9505038D01*
X4351503Y-9505038D02*
X4303884Y-9552657D01*
X4303884Y-9552657D02*
X4256265Y-9647895D01*
X4256265Y-9647895D02*
X4256265Y-9743133D01*
X4256265Y-9743133D02*
X4303884Y-9885990D01*
X4303884Y-9885990D02*
X4875312Y-10457419D01*
X4875312Y-10457419D02*
X4256265Y-10457419D01*
X3494360Y-9933609D02*
X3351503Y-9981228D01*
X3351503Y-9981228D02*
X3303884Y-10028847D01*
X3303884Y-10028847D02*
X3256265Y-10124085D01*
X3256265Y-10124085D02*
X3256265Y-10266942D01*
X3256265Y-10266942D02*
X3303884Y-10362180D01*
X3303884Y-10362180D02*
X3351503Y-10409800D01*
X3351503Y-10409800D02*
X3446741Y-10457419D01*
X3446741Y-10457419D02*
X3827693Y-10457419D01*
X3827693Y-10457419D02*
X3827693Y-9457419D01*
X3827693Y-9457419D02*
X3494360Y-9457419D01*
X3494360Y-9457419D02*
X3399122Y-9505038D01*
X3399122Y-9505038D02*
X3351503Y-9552657D01*
X3351503Y-9552657D02*
X3303884Y-9647895D01*
X3303884Y-9647895D02*
X3303884Y-9743133D01*
X3303884Y-9743133D02*
X3351503Y-9838371D01*
X3351503Y-9838371D02*
X3399122Y-9885990D01*
X3399122Y-9885990D02*
X3494360Y-9933609D01*
X3494360Y-9933609D02*
X3827693Y-9933609D01*
X56857142Y-2683609D02*
X56714285Y-2731228D01*
X56714285Y-2731228D02*
X56666666Y-2778847D01*
X56666666Y-2778847D02*
X56619047Y-2874085D01*
X56619047Y-2874085D02*
X56619047Y-3016942D01*
X56619047Y-3016942D02*
X56666666Y-3112180D01*
X56666666Y-3112180D02*
X56714285Y-3159800D01*
X56714285Y-3159800D02*
X56809523Y-3207419D01*
X56809523Y-3207419D02*
X57190475Y-3207419D01*
X57190475Y-3207419D02*
X57190475Y-2207419D01*
X57190475Y-2207419D02*
X56857142Y-2207419D01*
X56857142Y-2207419D02*
X56761904Y-2255038D01*
X56761904Y-2255038D02*
X56714285Y-2302657D01*
X56714285Y-2302657D02*
X56666666Y-2397895D01*
X56666666Y-2397895D02*
X56666666Y-2493133D01*
X56666666Y-2493133D02*
X56714285Y-2588371D01*
X56714285Y-2588371D02*
X56761904Y-2635990D01*
X56761904Y-2635990D02*
X56857142Y-2683609D01*
X56857142Y-2683609D02*
X57190475Y-2683609D01*
X55999999Y-2207419D02*
X55809523Y-2207419D01*
X55809523Y-2207419D02*
X55714285Y-2255038D01*
X55714285Y-2255038D02*
X55619047Y-2350276D01*
X55619047Y-2350276D02*
X55571428Y-2540752D01*
X55571428Y-2540752D02*
X55571428Y-2874085D01*
X55571428Y-2874085D02*
X55619047Y-3064561D01*
X55619047Y-3064561D02*
X55714285Y-3159800D01*
X55714285Y-3159800D02*
X55809523Y-3207419D01*
X55809523Y-3207419D02*
X55999999Y-3207419D01*
X55999999Y-3207419D02*
X56095237Y-3159800D01*
X56095237Y-3159800D02*
X56190475Y-3064561D01*
X56190475Y-3064561D02*
X56238094Y-2874085D01*
X56238094Y-2874085D02*
X56238094Y-2540752D01*
X56238094Y-2540752D02*
X56190475Y-2350276D01*
X56190475Y-2350276D02*
X56095237Y-2255038D01*
X56095237Y-2255038D02*
X55999999Y-2207419D01*
X54952380Y-2207419D02*
X54761904Y-2207419D01*
X54761904Y-2207419D02*
X54666666Y-2255038D01*
X54666666Y-2255038D02*
X54571428Y-2350276D01*
X54571428Y-2350276D02*
X54523809Y-2540752D01*
X54523809Y-2540752D02*
X54523809Y-2874085D01*
X54523809Y-2874085D02*
X54571428Y-3064561D01*
X54571428Y-3064561D02*
X54666666Y-3159800D01*
X54666666Y-3159800D02*
X54761904Y-3207419D01*
X54761904Y-3207419D02*
X54952380Y-3207419D01*
X54952380Y-3207419D02*
X55047618Y-3159800D01*
X55047618Y-3159800D02*
X55142856Y-3064561D01*
X55142856Y-3064561D02*
X55190475Y-2874085D01*
X55190475Y-2874085D02*
X55190475Y-2540752D01*
X55190475Y-2540752D02*
X55142856Y-2350276D01*
X55142856Y-2350276D02*
X55047618Y-2255038D01*
X55047618Y-2255038D02*
X54952380Y-2207419D01*
X54238094Y-2207419D02*
X53666666Y-2207419D01*
X53952380Y-3207419D02*
X53952380Y-2207419D01*
X60416666Y-3207419D02*
X60749999Y-2731228D01*
X60988094Y-3207419D02*
X60988094Y-2207419D01*
X60988094Y-2207419D02*
X60607142Y-2207419D01*
X60607142Y-2207419D02*
X60511904Y-2255038D01*
X60511904Y-2255038D02*
X60464285Y-2302657D01*
X60464285Y-2302657D02*
X60416666Y-2397895D01*
X60416666Y-2397895D02*
X60416666Y-2540752D01*
X60416666Y-2540752D02*
X60464285Y-2635990D01*
X60464285Y-2635990D02*
X60511904Y-2683609D01*
X60511904Y-2683609D02*
X60607142Y-2731228D01*
X60607142Y-2731228D02*
X60988094Y-2731228D01*
X60083332Y-2207419D02*
X59416666Y-3207419D01*
X59416666Y-2207419D02*
X60083332Y-3207419D01*
X64023809Y-39457419D02*
X64023809Y-40171704D01*
X64023809Y-40171704D02*
X64071428Y-40314561D01*
X64071428Y-40314561D02*
X64166666Y-40409800D01*
X64166666Y-40409800D02*
X64309523Y-40457419D01*
X64309523Y-40457419D02*
X64404761Y-40457419D01*
X63595237Y-40171704D02*
X63119047Y-40171704D01*
X63690475Y-40457419D02*
X63357142Y-39457419D01*
X63357142Y-39457419D02*
X63023809Y-40457419D01*
X62690475Y-40457419D02*
X62690475Y-39457419D01*
X62214285Y-40457419D02*
X62214285Y-39457419D01*
X62214285Y-39457419D02*
X61880952Y-40171704D01*
X61880952Y-40171704D02*
X61547619Y-39457419D01*
X61547619Y-39457419D02*
X61547619Y-40457419D01*
X61071428Y-39933609D02*
X60738095Y-39933609D01*
X60595238Y-40457419D02*
X61071428Y-40457419D01*
X61071428Y-40457419D02*
X61071428Y-39457419D01*
X61071428Y-39457419D02*
X60595238Y-39457419D01*
X59452380Y-40409800D02*
X59309523Y-40457419D01*
X59309523Y-40457419D02*
X59071428Y-40457419D01*
X59071428Y-40457419D02*
X58976190Y-40409800D01*
X58976190Y-40409800D02*
X58928571Y-40362180D01*
X58928571Y-40362180D02*
X58880952Y-40266942D01*
X58880952Y-40266942D02*
X58880952Y-40171704D01*
X58880952Y-40171704D02*
X58928571Y-40076466D01*
X58928571Y-40076466D02*
X58976190Y-40028847D01*
X58976190Y-40028847D02*
X59071428Y-39981228D01*
X59071428Y-39981228D02*
X59261904Y-39933609D01*
X59261904Y-39933609D02*
X59357142Y-39885990D01*
X59357142Y-39885990D02*
X59404761Y-39838371D01*
X59404761Y-39838371D02*
X59452380Y-39743133D01*
X59452380Y-39743133D02*
X59452380Y-39647895D01*
X59452380Y-39647895D02*
X59404761Y-39552657D01*
X59404761Y-39552657D02*
X59357142Y-39505038D01*
X59357142Y-39505038D02*
X59261904Y-39457419D01*
X59261904Y-39457419D02*
X59023809Y-39457419D01*
X59023809Y-39457419D02*
X58880952Y-39505038D01*
X58452380Y-39933609D02*
X58119047Y-39933609D01*
X57976190Y-40457419D02*
X58452380Y-40457419D01*
X58452380Y-40457419D02*
X58452380Y-39457419D01*
X58452380Y-39457419D02*
X57976190Y-39457419D01*
X56880952Y-40552657D02*
X56976190Y-40505038D01*
X56976190Y-40505038D02*
X57071428Y-40409800D01*
X57071428Y-40409800D02*
X57214285Y-40266942D01*
X57214285Y-40266942D02*
X57309523Y-40219323D01*
X57309523Y-40219323D02*
X57404761Y-40219323D01*
X57357142Y-40457419D02*
X57452380Y-40409800D01*
X57452380Y-40409800D02*
X57547618Y-40314561D01*
X57547618Y-40314561D02*
X57595237Y-40124085D01*
X57595237Y-40124085D02*
X57595237Y-39790752D01*
X57595237Y-39790752D02*
X57547618Y-39600276D01*
X57547618Y-39600276D02*
X57452380Y-39505038D01*
X57452380Y-39505038D02*
X57357142Y-39457419D01*
X57357142Y-39457419D02*
X57166666Y-39457419D01*
X57166666Y-39457419D02*
X57071428Y-39505038D01*
X57071428Y-39505038D02*
X56976190Y-39600276D01*
X56976190Y-39600276D02*
X56928571Y-39790752D01*
X56928571Y-39790752D02*
X56928571Y-40124085D01*
X56928571Y-40124085D02*
X56976190Y-40314561D01*
X56976190Y-40314561D02*
X57071428Y-40409800D01*
X57071428Y-40409800D02*
X57166666Y-40457419D01*
X57166666Y-40457419D02*
X57357142Y-40457419D01*
X56499999Y-39457419D02*
X56499999Y-40266942D01*
X56499999Y-40266942D02*
X56452380Y-40362180D01*
X56452380Y-40362180D02*
X56404761Y-40409800D01*
X56404761Y-40409800D02*
X56309523Y-40457419D01*
X56309523Y-40457419D02*
X56119047Y-40457419D01*
X56119047Y-40457419D02*
X56023809Y-40409800D01*
X56023809Y-40409800D02*
X55976190Y-40362180D01*
X55976190Y-40362180D02*
X55928571Y-40266942D01*
X55928571Y-40266942D02*
X55928571Y-39457419D01*
X55452380Y-39933609D02*
X55119047Y-39933609D01*
X54976190Y-40457419D02*
X55452380Y-40457419D01*
X55452380Y-40457419D02*
X55452380Y-39457419D01*
X55452380Y-39457419D02*
X54976190Y-39457419D01*
X54547618Y-40457419D02*
X54547618Y-39457419D01*
X53500000Y-40457419D02*
X53833333Y-39981228D01*
X54071428Y-40457419D02*
X54071428Y-39457419D01*
X54071428Y-39457419D02*
X53690476Y-39457419D01*
X53690476Y-39457419D02*
X53595238Y-39505038D01*
X53595238Y-39505038D02*
X53547619Y-39552657D01*
X53547619Y-39552657D02*
X53500000Y-39647895D01*
X53500000Y-39647895D02*
X53500000Y-39790752D01*
X53500000Y-39790752D02*
X53547619Y-39885990D01*
X53547619Y-39885990D02*
X53595238Y-39933609D01*
X53595238Y-39933609D02*
X53690476Y-39981228D01*
X53690476Y-39981228D02*
X54071428Y-39981228D01*
X53119047Y-40171704D02*
X52642857Y-40171704D01*
X53214285Y-40457419D02*
X52880952Y-39457419D01*
X52880952Y-39457419D02*
X52547619Y-40457419D01*
X84285713Y-15957419D02*
X84285713Y-14957419D01*
X84285713Y-14957419D02*
X83714285Y-15957419D01*
X83714285Y-15957419D02*
X83714285Y-14957419D01*
X82666666Y-15862180D02*
X82714285Y-15909800D01*
X82714285Y-15909800D02*
X82857142Y-15957419D01*
X82857142Y-15957419D02*
X82952380Y-15957419D01*
X82952380Y-15957419D02*
X83095237Y-15909800D01*
X83095237Y-15909800D02*
X83190475Y-15814561D01*
X83190475Y-15814561D02*
X83238094Y-15719323D01*
X83238094Y-15719323D02*
X83285713Y-15528847D01*
X83285713Y-15528847D02*
X83285713Y-15385990D01*
X83285713Y-15385990D02*
X83238094Y-15195514D01*
X83238094Y-15195514D02*
X83190475Y-15100276D01*
X83190475Y-15100276D02*
X83095237Y-15005038D01*
X83095237Y-15005038D02*
X82952380Y-14957419D01*
X82952380Y-14957419D02*
X82857142Y-14957419D01*
X82857142Y-14957419D02*
X82714285Y-15005038D01*
X82714285Y-15005038D02*
X82666666Y-15052657D01*
X5351503Y-11505038D02*
X5446741Y-11457419D01*
X5446741Y-11457419D02*
X5589598Y-11457419D01*
X5589598Y-11457419D02*
X5732455Y-11505038D01*
X5732455Y-11505038D02*
X5827693Y-11600276D01*
X5827693Y-11600276D02*
X5875312Y-11695514D01*
X5875312Y-11695514D02*
X5922931Y-11885990D01*
X5922931Y-11885990D02*
X5922931Y-12028847D01*
X5922931Y-12028847D02*
X5875312Y-12219323D01*
X5875312Y-12219323D02*
X5827693Y-12314561D01*
X5827693Y-12314561D02*
X5732455Y-12409800D01*
X5732455Y-12409800D02*
X5589598Y-12457419D01*
X5589598Y-12457419D02*
X5494360Y-12457419D01*
X5494360Y-12457419D02*
X5351503Y-12409800D01*
X5351503Y-12409800D02*
X5303884Y-12362180D01*
X5303884Y-12362180D02*
X5303884Y-12028847D01*
X5303884Y-12028847D02*
X5494360Y-12028847D01*
X4875312Y-12457419D02*
X4875312Y-11457419D01*
X4875312Y-11457419D02*
X4303884Y-12457419D01*
X4303884Y-12457419D02*
X4303884Y-11457419D01*
X3827693Y-12457419D02*
X3827693Y-11457419D01*
X3827693Y-11457419D02*
X3589598Y-11457419D01*
X3589598Y-11457419D02*
X3446741Y-11505038D01*
X3446741Y-11505038D02*
X3351503Y-11600276D01*
X3351503Y-11600276D02*
X3303884Y-11695514D01*
X3303884Y-11695514D02*
X3256265Y-11885990D01*
X3256265Y-11885990D02*
X3256265Y-12028847D01*
X3256265Y-12028847D02*
X3303884Y-12219323D01*
X3303884Y-12219323D02*
X3351503Y-12314561D01*
X3351503Y-12314561D02*
X3446741Y-12409800D01*
X3446741Y-12409800D02*
X3589598Y-12457419D01*
X3589598Y-12457419D02*
X3827693Y-12457419D01*
X29671704Y-32600877D02*
X29671704Y-33077067D01*
X29957419Y-32505639D02*
X28957419Y-32838972D01*
X28957419Y-32838972D02*
X29957419Y-33172305D01*
X29957419Y-33505639D02*
X28957419Y-33505639D01*
X28957419Y-33505639D02*
X29957419Y-34077067D01*
X29957419Y-34077067D02*
X28957419Y-34077067D01*
X28957419Y-34410401D02*
X28957419Y-34981829D01*
X29957419Y-34696115D02*
X28957419Y-34696115D01*
X29433609Y-35315163D02*
X29433609Y-35648496D01*
X29957419Y-35791353D02*
X29957419Y-35315163D01*
X29957419Y-35315163D02*
X28957419Y-35315163D01*
X28957419Y-35315163D02*
X28957419Y-35791353D01*
X29957419Y-36219925D02*
X28957419Y-36219925D01*
X28957419Y-36219925D02*
X29957419Y-36791353D01*
X29957419Y-36791353D02*
X28957419Y-36791353D01*
X29957419Y-37267544D02*
X28957419Y-37267544D01*
X28957419Y-37267544D02*
X29957419Y-37838972D01*
X29957419Y-37838972D02*
X28957419Y-37838972D01*
X29671704Y-38267544D02*
X29671704Y-38743734D01*
X29957419Y-38172306D02*
X28957419Y-38505639D01*
X28957419Y-38505639D02*
X29957419Y-38838972D01*
X53488094Y-2683609D02*
X53154761Y-2683609D01*
X53011904Y-3207419D02*
X53488094Y-3207419D01*
X53488094Y-3207419D02*
X53488094Y-2207419D01*
X53488094Y-2207419D02*
X53011904Y-2207419D01*
X52583332Y-3207419D02*
X52583332Y-2207419D01*
X52583332Y-2207419D02*
X52011904Y-3207419D01*
X52011904Y-3207419D02*
X52011904Y-2207419D01*
D12*
X84559523Y-30432309D02*
X84416666Y-30479928D01*
X84416666Y-30479928D02*
X84369047Y-30527547D01*
X84369047Y-30527547D02*
X84321428Y-30622785D01*
X84321428Y-30622785D02*
X84321428Y-30765642D01*
X84321428Y-30765642D02*
X84369047Y-30860880D01*
X84369047Y-30860880D02*
X84416666Y-30908500D01*
X84416666Y-30908500D02*
X84511904Y-30956119D01*
X84511904Y-30956119D02*
X84892856Y-30956119D01*
X84892856Y-30956119D02*
X84892856Y-29956119D01*
X84892856Y-29956119D02*
X84559523Y-29956119D01*
X84559523Y-29956119D02*
X84464285Y-30003738D01*
X84464285Y-30003738D02*
X84416666Y-30051357D01*
X84416666Y-30051357D02*
X84369047Y-30146595D01*
X84369047Y-30146595D02*
X84369047Y-30241833D01*
X84369047Y-30241833D02*
X84416666Y-30337071D01*
X84416666Y-30337071D02*
X84464285Y-30384690D01*
X84464285Y-30384690D02*
X84559523Y-30432309D01*
X84559523Y-30432309D02*
X84892856Y-30432309D01*
X83416666Y-30956119D02*
X83892856Y-30956119D01*
X83892856Y-30956119D02*
X83892856Y-29956119D01*
X83083332Y-29956119D02*
X83083332Y-30765642D01*
X83083332Y-30765642D02*
X83035713Y-30860880D01*
X83035713Y-30860880D02*
X82988094Y-30908500D01*
X82988094Y-30908500D02*
X82892856Y-30956119D01*
X82892856Y-30956119D02*
X82702380Y-30956119D01*
X82702380Y-30956119D02*
X82607142Y-30908500D01*
X82607142Y-30908500D02*
X82559523Y-30860880D01*
X82559523Y-30860880D02*
X82511904Y-30765642D01*
X82511904Y-30765642D02*
X82511904Y-29956119D01*
X82035713Y-30432309D02*
X81702380Y-30432309D01*
X81559523Y-30956119D02*
X82035713Y-30956119D01*
X82035713Y-30956119D02*
X82035713Y-29956119D01*
X82035713Y-29956119D02*
X81559523Y-29956119D01*
D11*
X85523808Y-17457419D02*
X85285713Y-18457419D01*
X85285713Y-18457419D02*
X85095237Y-17743133D01*
X85095237Y-17743133D02*
X84904761Y-18457419D01*
X84904761Y-18457419D02*
X84666666Y-17457419D01*
X84285713Y-18457419D02*
X84285713Y-17457419D01*
X84285713Y-17933609D02*
X83714285Y-17933609D01*
X83714285Y-18457419D02*
X83714285Y-17457419D01*
X83238094Y-18457419D02*
X83238094Y-17457419D01*
X82904761Y-17457419D02*
X82333333Y-17457419D01*
X82619047Y-18457419D02*
X82619047Y-17457419D01*
X81999999Y-17933609D02*
X81666666Y-17933609D01*
X81523809Y-18457419D02*
X81999999Y-18457419D01*
X81999999Y-18457419D02*
X81999999Y-17457419D01*
X81999999Y-17457419D02*
X81523809Y-17457419D01*
X85857142Y-27981228D02*
X85857142Y-28457419D01*
X86190475Y-27457419D02*
X85857142Y-27981228D01*
X85857142Y-27981228D02*
X85523809Y-27457419D01*
X85190475Y-27933609D02*
X84857142Y-27933609D01*
X84714285Y-28457419D02*
X85190475Y-28457419D01*
X85190475Y-28457419D02*
X85190475Y-27457419D01*
X85190475Y-27457419D02*
X84714285Y-27457419D01*
X83809523Y-28457419D02*
X84285713Y-28457419D01*
X84285713Y-28457419D02*
X84285713Y-27457419D01*
X82999999Y-28457419D02*
X83476189Y-28457419D01*
X83476189Y-28457419D02*
X83476189Y-27457419D01*
X82476189Y-27457419D02*
X82285713Y-27457419D01*
X82285713Y-27457419D02*
X82190475Y-27505038D01*
X82190475Y-27505038D02*
X82095237Y-27600276D01*
X82095237Y-27600276D02*
X82047618Y-27790752D01*
X82047618Y-27790752D02*
X82047618Y-28124085D01*
X82047618Y-28124085D02*
X82095237Y-28314561D01*
X82095237Y-28314561D02*
X82190475Y-28409800D01*
X82190475Y-28409800D02*
X82285713Y-28457419D01*
X82285713Y-28457419D02*
X82476189Y-28457419D01*
X82476189Y-28457419D02*
X82571427Y-28409800D01*
X82571427Y-28409800D02*
X82666665Y-28314561D01*
X82666665Y-28314561D02*
X82714284Y-28124085D01*
X82714284Y-28124085D02*
X82714284Y-27790752D01*
X82714284Y-27790752D02*
X82666665Y-27600276D01*
X82666665Y-27600276D02*
X82571427Y-27505038D01*
X82571427Y-27505038D02*
X82476189Y-27457419D01*
X81714284Y-27457419D02*
X81476189Y-28457419D01*
X81476189Y-28457419D02*
X81285713Y-27743133D01*
X81285713Y-27743133D02*
X81095237Y-28457419D01*
X81095237Y-28457419D02*
X80857142Y-27457419D01*
X85261904Y-20433609D02*
X85119047Y-20481228D01*
X85119047Y-20481228D02*
X85071428Y-20528847D01*
X85071428Y-20528847D02*
X85023809Y-20624085D01*
X85023809Y-20624085D02*
X85023809Y-20766942D01*
X85023809Y-20766942D02*
X85071428Y-20862180D01*
X85071428Y-20862180D02*
X85119047Y-20909800D01*
X85119047Y-20909800D02*
X85214285Y-20957419D01*
X85214285Y-20957419D02*
X85595237Y-20957419D01*
X85595237Y-20957419D02*
X85595237Y-19957419D01*
X85595237Y-19957419D02*
X85261904Y-19957419D01*
X85261904Y-19957419D02*
X85166666Y-20005038D01*
X85166666Y-20005038D02*
X85119047Y-20052657D01*
X85119047Y-20052657D02*
X85071428Y-20147895D01*
X85071428Y-20147895D02*
X85071428Y-20243133D01*
X85071428Y-20243133D02*
X85119047Y-20338371D01*
X85119047Y-20338371D02*
X85166666Y-20385990D01*
X85166666Y-20385990D02*
X85261904Y-20433609D01*
X85261904Y-20433609D02*
X85595237Y-20433609D01*
X84119047Y-20957419D02*
X84595237Y-20957419D01*
X84595237Y-20957419D02*
X84595237Y-19957419D01*
X83833332Y-20671704D02*
X83357142Y-20671704D01*
X83928570Y-20957419D02*
X83595237Y-19957419D01*
X83595237Y-19957419D02*
X83261904Y-20957419D01*
X82357142Y-20862180D02*
X82404761Y-20909800D01*
X82404761Y-20909800D02*
X82547618Y-20957419D01*
X82547618Y-20957419D02*
X82642856Y-20957419D01*
X82642856Y-20957419D02*
X82785713Y-20909800D01*
X82785713Y-20909800D02*
X82880951Y-20814561D01*
X82880951Y-20814561D02*
X82928570Y-20719323D01*
X82928570Y-20719323D02*
X82976189Y-20528847D01*
X82976189Y-20528847D02*
X82976189Y-20385990D01*
X82976189Y-20385990D02*
X82928570Y-20195514D01*
X82928570Y-20195514D02*
X82880951Y-20100276D01*
X82880951Y-20100276D02*
X82785713Y-20005038D01*
X82785713Y-20005038D02*
X82642856Y-19957419D01*
X82642856Y-19957419D02*
X82547618Y-19957419D01*
X82547618Y-19957419D02*
X82404761Y-20005038D01*
X82404761Y-20005038D02*
X82357142Y-20052657D01*
X81928570Y-20957419D02*
X81928570Y-19957419D01*
X81357142Y-20957419D02*
X81785713Y-20385990D01*
X81357142Y-19957419D02*
X81928570Y-20528847D01*
X9589598Y-37933609D02*
X9256265Y-37933609D01*
X9113408Y-38457419D02*
X9589598Y-38457419D01*
X9589598Y-38457419D02*
X9589598Y-37457419D01*
X9589598Y-37457419D02*
X9113408Y-37457419D01*
X8684836Y-38457419D02*
X8684836Y-37457419D01*
X8684836Y-37457419D02*
X8113408Y-38457419D01*
X8113408Y-38457419D02*
X8113408Y-37457419D01*
X7065789Y-38362180D02*
X7113408Y-38409800D01*
X7113408Y-38409800D02*
X7256265Y-38457419D01*
X7256265Y-38457419D02*
X7351503Y-38457419D01*
X7351503Y-38457419D02*
X7494360Y-38409800D01*
X7494360Y-38409800D02*
X7589598Y-38314561D01*
X7589598Y-38314561D02*
X7637217Y-38219323D01*
X7637217Y-38219323D02*
X7684836Y-38028847D01*
X7684836Y-38028847D02*
X7684836Y-37885990D01*
X7684836Y-37885990D02*
X7637217Y-37695514D01*
X7637217Y-37695514D02*
X7589598Y-37600276D01*
X7589598Y-37600276D02*
X7494360Y-37505038D01*
X7494360Y-37505038D02*
X7351503Y-37457419D01*
X7351503Y-37457419D02*
X7256265Y-37457419D01*
X7256265Y-37457419D02*
X7113408Y-37505038D01*
X7113408Y-37505038D02*
X7065789Y-37552657D01*
X6875313Y-38552657D02*
X6113408Y-38552657D01*
X5351503Y-38457419D02*
X5922931Y-38457419D01*
X5637217Y-38457419D02*
X5637217Y-37457419D01*
X5637217Y-37457419D02*
X5732455Y-37600276D01*
X5732455Y-37600276D02*
X5827693Y-37695514D01*
X5827693Y-37695514D02*
X5922931Y-37743133D01*
X4970550Y-38409800D02*
X4827693Y-38457419D01*
X4827693Y-38457419D02*
X4589598Y-38457419D01*
X4589598Y-38457419D02*
X4494360Y-38409800D01*
X4494360Y-38409800D02*
X4446741Y-38362180D01*
X4446741Y-38362180D02*
X4399122Y-38266942D01*
X4399122Y-38266942D02*
X4399122Y-38171704D01*
X4399122Y-38171704D02*
X4446741Y-38076466D01*
X4446741Y-38076466D02*
X4494360Y-38028847D01*
X4494360Y-38028847D02*
X4589598Y-37981228D01*
X4589598Y-37981228D02*
X4780074Y-37933609D01*
X4780074Y-37933609D02*
X4875312Y-37885990D01*
X4875312Y-37885990D02*
X4922931Y-37838371D01*
X4922931Y-37838371D02*
X4970550Y-37743133D01*
X4970550Y-37743133D02*
X4970550Y-37647895D01*
X4970550Y-37647895D02*
X4922931Y-37552657D01*
X4922931Y-37552657D02*
X4875312Y-37505038D01*
X4875312Y-37505038D02*
X4780074Y-37457419D01*
X4780074Y-37457419D02*
X4541979Y-37457419D01*
X4541979Y-37457419D02*
X4399122Y-37505038D01*
X4065788Y-37457419D02*
X3827693Y-38457419D01*
X3827693Y-38457419D02*
X3637217Y-37743133D01*
X3637217Y-37743133D02*
X3446741Y-38457419D01*
X3446741Y-38457419D02*
X3208646Y-37457419D01*
X8351503Y-5933609D02*
X8018170Y-5933609D01*
X7875313Y-6457419D02*
X8351503Y-6457419D01*
X8351503Y-6457419D02*
X8351503Y-5457419D01*
X8351503Y-5457419D02*
X7875313Y-5457419D01*
X7446741Y-6457419D02*
X7446741Y-5457419D01*
X7446741Y-5457419D02*
X6875313Y-6457419D01*
X6875313Y-6457419D02*
X6875313Y-5457419D01*
X5827694Y-6362180D02*
X5875313Y-6409800D01*
X5875313Y-6409800D02*
X6018170Y-6457419D01*
X6018170Y-6457419D02*
X6113408Y-6457419D01*
X6113408Y-6457419D02*
X6256265Y-6409800D01*
X6256265Y-6409800D02*
X6351503Y-6314561D01*
X6351503Y-6314561D02*
X6399122Y-6219323D01*
X6399122Y-6219323D02*
X6446741Y-6028847D01*
X6446741Y-6028847D02*
X6446741Y-5885990D01*
X6446741Y-5885990D02*
X6399122Y-5695514D01*
X6399122Y-5695514D02*
X6351503Y-5600276D01*
X6351503Y-5600276D02*
X6256265Y-5505038D01*
X6256265Y-5505038D02*
X6113408Y-5457419D01*
X6113408Y-5457419D02*
X6018170Y-5457419D01*
X6018170Y-5457419D02*
X5875313Y-5505038D01*
X5875313Y-5505038D02*
X5827694Y-5552657D01*
X5637218Y-6552657D02*
X4875313Y-6552657D01*
X4684836Y-5552657D02*
X4637217Y-5505038D01*
X4637217Y-5505038D02*
X4541979Y-5457419D01*
X4541979Y-5457419D02*
X4303884Y-5457419D01*
X4303884Y-5457419D02*
X4208646Y-5505038D01*
X4208646Y-5505038D02*
X4161027Y-5552657D01*
X4161027Y-5552657D02*
X4113408Y-5647895D01*
X4113408Y-5647895D02*
X4113408Y-5743133D01*
X4113408Y-5743133D02*
X4161027Y-5885990D01*
X4161027Y-5885990D02*
X4732455Y-6457419D01*
X4732455Y-6457419D02*
X4113408Y-6457419D01*
X3732455Y-6171704D02*
X3256265Y-6171704D01*
X3827693Y-6457419D02*
X3494360Y-5457419D01*
X3494360Y-5457419D02*
X3161027Y-6457419D01*
X8351503Y-29933609D02*
X8018170Y-29933609D01*
X7875313Y-30457419D02*
X8351503Y-30457419D01*
X8351503Y-30457419D02*
X8351503Y-29457419D01*
X8351503Y-29457419D02*
X7875313Y-29457419D01*
X7446741Y-30457419D02*
X7446741Y-29457419D01*
X7446741Y-29457419D02*
X6875313Y-30457419D01*
X6875313Y-30457419D02*
X6875313Y-29457419D01*
X5827694Y-30362180D02*
X5875313Y-30409800D01*
X5875313Y-30409800D02*
X6018170Y-30457419D01*
X6018170Y-30457419D02*
X6113408Y-30457419D01*
X6113408Y-30457419D02*
X6256265Y-30409800D01*
X6256265Y-30409800D02*
X6351503Y-30314561D01*
X6351503Y-30314561D02*
X6399122Y-30219323D01*
X6399122Y-30219323D02*
X6446741Y-30028847D01*
X6446741Y-30028847D02*
X6446741Y-29885990D01*
X6446741Y-29885990D02*
X6399122Y-29695514D01*
X6399122Y-29695514D02*
X6351503Y-29600276D01*
X6351503Y-29600276D02*
X6256265Y-29505038D01*
X6256265Y-29505038D02*
X6113408Y-29457419D01*
X6113408Y-29457419D02*
X6018170Y-29457419D01*
X6018170Y-29457419D02*
X5875313Y-29505038D01*
X5875313Y-29505038D02*
X5827694Y-29552657D01*
X5637218Y-30552657D02*
X4875313Y-30552657D01*
X4113408Y-30457419D02*
X4684836Y-30457419D01*
X4399122Y-30457419D02*
X4399122Y-29457419D01*
X4399122Y-29457419D02*
X4494360Y-29600276D01*
X4494360Y-29600276D02*
X4589598Y-29695514D01*
X4589598Y-29695514D02*
X4684836Y-29743133D01*
X3732455Y-30171704D02*
X3256265Y-30171704D01*
X3827693Y-30457419D02*
X3494360Y-29457419D01*
X3494360Y-29457419D02*
X3161027Y-30457419D01*
X63511904Y-2255038D02*
X63607142Y-2207419D01*
X63607142Y-2207419D02*
X63749999Y-2207419D01*
X63749999Y-2207419D02*
X63892856Y-2255038D01*
X63892856Y-2255038D02*
X63988094Y-2350276D01*
X63988094Y-2350276D02*
X64035713Y-2445514D01*
X64035713Y-2445514D02*
X64083332Y-2635990D01*
X64083332Y-2635990D02*
X64083332Y-2778847D01*
X64083332Y-2778847D02*
X64035713Y-2969323D01*
X64035713Y-2969323D02*
X63988094Y-3064561D01*
X63988094Y-3064561D02*
X63892856Y-3159800D01*
X63892856Y-3159800D02*
X63749999Y-3207419D01*
X63749999Y-3207419D02*
X63654761Y-3207419D01*
X63654761Y-3207419D02*
X63511904Y-3159800D01*
X63511904Y-3159800D02*
X63464285Y-3112180D01*
X63464285Y-3112180D02*
X63464285Y-2778847D01*
X63464285Y-2778847D02*
X63654761Y-2778847D01*
X63035713Y-3207419D02*
X63035713Y-2207419D01*
X63035713Y-2207419D02*
X62464285Y-3207419D01*
X62464285Y-3207419D02*
X62464285Y-2207419D01*
X61988094Y-3207419D02*
X61988094Y-2207419D01*
X61988094Y-2207419D02*
X61749999Y-2207419D01*
X61749999Y-2207419D02*
X61607142Y-2255038D01*
X61607142Y-2255038D02*
X61511904Y-2350276D01*
X61511904Y-2350276D02*
X61464285Y-2445514D01*
X61464285Y-2445514D02*
X61416666Y-2635990D01*
X61416666Y-2635990D02*
X61416666Y-2778847D01*
X61416666Y-2778847D02*
X61464285Y-2969323D01*
X61464285Y-2969323D02*
X61511904Y-3064561D01*
X61511904Y-3064561D02*
X61607142Y-3159800D01*
X61607142Y-3159800D02*
X61749999Y-3207419D01*
X61749999Y-3207419D02*
X61988094Y-3207419D01*
D13*
%TO.C,G\u002A\u002A\u002A*%
G36*
X52495272Y-33651892D02*
G01*
X52495272Y-33892081D01*
X52255083Y-33892081D01*
X52014894Y-33892081D01*
X52014894Y-33651892D01*
X52014894Y-33411702D01*
X52255083Y-33411702D01*
X52495272Y-33411702D01*
X52495272Y-33651892D01*
G37*
G36*
X53936407Y-33171513D02*
G01*
X53936407Y-33411702D01*
X53696218Y-33411702D01*
X53456029Y-33411702D01*
X53456029Y-33171513D01*
X53456029Y-32931324D01*
X53696218Y-32931324D01*
X53936407Y-32931324D01*
X53936407Y-33171513D01*
G37*
G36*
X56338298Y-27887353D02*
G01*
X56338298Y-28127542D01*
X56098109Y-28127542D01*
X55857920Y-28127542D01*
X55857920Y-27887353D01*
X55857920Y-27647163D01*
X56098109Y-27647163D01*
X56338298Y-27647163D01*
X56338298Y-27887353D01*
G37*
G36*
X57299055Y-35093026D02*
G01*
X57299055Y-35333215D01*
X57058866Y-35333215D01*
X56818676Y-35333215D01*
X56818676Y-35093026D01*
X56818676Y-34852837D01*
X57058866Y-34852837D01*
X57299055Y-34852837D01*
X57299055Y-35093026D01*
G37*
G36*
X59700946Y-33651892D02*
G01*
X59700946Y-33892081D01*
X59460757Y-33892081D01*
X59220568Y-33892081D01*
X59220568Y-33651892D01*
X59220568Y-33411702D01*
X59460757Y-33411702D01*
X59700946Y-33411702D01*
X59700946Y-33651892D01*
G37*
G36*
X60661702Y-36534161D02*
G01*
X60661702Y-36774350D01*
X60421513Y-36774350D01*
X60181324Y-36774350D01*
X60181324Y-36534161D01*
X60181324Y-36293972D01*
X60421513Y-36293972D01*
X60661702Y-36293972D01*
X60661702Y-36534161D01*
G37*
G36*
X62583215Y-28848109D02*
G01*
X62583215Y-29088298D01*
X62343026Y-29088298D01*
X62102837Y-29088298D01*
X62102837Y-28848109D01*
X62102837Y-28607920D01*
X62343026Y-28607920D01*
X62583215Y-28607920D01*
X62583215Y-28848109D01*
G37*
G36*
X54416785Y-25005083D02*
G01*
X54416785Y-25245272D01*
X54176596Y-25245272D01*
X53936407Y-25245272D01*
X53936407Y-25485461D01*
X53936407Y-25725650D01*
X53696218Y-25725650D01*
X53456029Y-25725650D01*
X53456029Y-25485461D01*
X53456029Y-25245272D01*
X53696218Y-25245272D01*
X53936407Y-25245272D01*
X53936407Y-25005083D01*
X53936407Y-24764894D01*
X54176596Y-24764894D01*
X54416785Y-24764894D01*
X54416785Y-25005083D01*
G37*
G36*
X58259811Y-31730379D02*
G01*
X58259811Y-31970568D01*
X58740189Y-31970568D01*
X59220568Y-31970568D01*
X59220568Y-32450946D01*
X59220568Y-32931324D01*
X58740189Y-32931324D01*
X58259811Y-32931324D01*
X58259811Y-32691135D01*
X58259811Y-32450946D01*
X58019622Y-32450946D01*
X57779433Y-32450946D01*
X57779433Y-31970568D01*
X57779433Y-31490189D01*
X58019622Y-31490189D01*
X58259811Y-31490189D01*
X58259811Y-31730379D01*
G37*
G36*
X55377542Y-27406974D02*
G01*
X55377542Y-28127542D01*
X54656974Y-28127542D01*
X53936407Y-28127542D01*
X53936407Y-27406974D01*
X54416785Y-27406974D01*
X54416785Y-27647163D01*
X54656974Y-27647163D01*
X54897163Y-27647163D01*
X54897163Y-27406974D01*
X54897163Y-27166785D01*
X54656974Y-27166785D01*
X54416785Y-27166785D01*
X54416785Y-27406974D01*
X53936407Y-27406974D01*
X53936407Y-26686407D01*
X54656974Y-26686407D01*
X55377542Y-26686407D01*
X55377542Y-27406974D01*
G37*
G36*
X53456029Y-27166785D02*
G01*
X53456029Y-27647163D01*
X53215840Y-27647163D01*
X52975650Y-27647163D01*
X52975650Y-27887353D01*
X52975650Y-28127542D01*
X52735461Y-28127542D01*
X52495272Y-28127542D01*
X52495272Y-27887353D01*
X52495272Y-27647163D01*
X52735461Y-27647163D01*
X52975650Y-27647163D01*
X52975650Y-27406974D01*
X52975650Y-27166785D01*
X52735461Y-27166785D01*
X52495272Y-27166785D01*
X52495272Y-26926596D01*
X52495272Y-26686407D01*
X52975650Y-26686407D01*
X53456029Y-26686407D01*
X53456029Y-27166785D01*
G37*
G36*
X53936407Y-31970568D02*
G01*
X53936407Y-32450946D01*
X53456029Y-32450946D01*
X52975650Y-32450946D01*
X52975650Y-32691135D01*
X52975650Y-32931324D01*
X52495272Y-32931324D01*
X52014894Y-32931324D01*
X52014894Y-32691135D01*
X52014894Y-32450946D01*
X52495272Y-32450946D01*
X52975650Y-32450946D01*
X52975650Y-32210757D01*
X52975650Y-31970568D01*
X53215840Y-31970568D01*
X53456029Y-31970568D01*
X53456029Y-31730379D01*
X53456029Y-31490189D01*
X53696218Y-31490189D01*
X53936407Y-31490189D01*
X53936407Y-31970568D01*
G37*
G36*
X63784161Y-33411702D02*
G01*
X64024350Y-33411702D01*
X64024350Y-33651892D01*
X64024350Y-33892081D01*
X63784161Y-33892081D01*
X63543972Y-33892081D01*
X63543972Y-33651892D01*
X63543972Y-33411702D01*
X63784161Y-33411702D01*
G37*
G36*
X64024350Y-32691135D02*
G01*
X64024350Y-32931324D01*
X63784161Y-32931324D01*
X63543972Y-32931324D01*
X63543972Y-33171513D01*
X63543972Y-33411702D01*
X63303783Y-33411702D01*
X63063594Y-33411702D01*
X63063594Y-33171513D01*
X63063594Y-32931324D01*
X63303783Y-32931324D01*
X63543972Y-32931324D01*
X63543972Y-32691135D01*
X63543972Y-32450946D01*
X63784161Y-32450946D01*
X64024350Y-32450946D01*
X64024350Y-32691135D01*
G37*
G36*
X53936407Y-29808866D02*
G01*
X53936407Y-30049055D01*
X53456029Y-30049055D01*
X52975650Y-30049055D01*
X52975650Y-30769622D01*
X52975650Y-31490189D01*
X52735461Y-31490189D01*
X52495272Y-31490189D01*
X52495272Y-31730379D01*
X52495272Y-31970568D01*
X52255083Y-31970568D01*
X52014894Y-31970568D01*
X52014894Y-31730379D01*
X52014894Y-31490189D01*
X52255083Y-31490189D01*
X52495272Y-31490189D01*
X52495272Y-31250000D01*
X52495272Y-31009811D01*
X52255083Y-31009811D01*
X52014894Y-31009811D01*
X52014894Y-30769622D01*
X52014894Y-30529433D01*
X52255083Y-30529433D01*
X52495272Y-30529433D01*
X52495272Y-30289244D01*
X52495272Y-30049055D01*
X52735461Y-30049055D01*
X52975650Y-30049055D01*
X52975650Y-29808866D01*
X52975650Y-29568676D01*
X53456029Y-29568676D01*
X53936407Y-29568676D01*
X53936407Y-29808866D01*
G37*
G36*
X56338298Y-25005083D02*
G01*
X56338298Y-25245272D01*
X56578487Y-25245272D01*
X56818676Y-25245272D01*
X56818676Y-25725650D01*
X56818676Y-26206029D01*
X56578487Y-26206029D01*
X56338298Y-26206029D01*
X56338298Y-26446218D01*
X56338298Y-26686407D01*
X56578487Y-26686407D01*
X56818676Y-26686407D01*
X56818676Y-26446218D01*
X56818676Y-26206029D01*
X57299055Y-26206029D01*
X57779433Y-26206029D01*
X57779433Y-25965840D01*
X57779433Y-25725650D01*
X58019622Y-25725650D01*
X58259811Y-25725650D01*
X58259811Y-26206029D01*
X58259811Y-26686407D01*
X58019622Y-26686407D01*
X57779433Y-26686407D01*
X57779433Y-26926596D01*
X57779433Y-27166785D01*
X58259811Y-27166785D01*
X58740189Y-27166785D01*
X58740189Y-27647163D01*
X58740189Y-28127542D01*
X58500000Y-28127542D01*
X58259811Y-28127542D01*
X58259811Y-28367731D01*
X58259811Y-28607920D01*
X58500000Y-28607920D01*
X58740189Y-28607920D01*
X58740189Y-28367731D01*
X58740189Y-28127542D01*
X58980379Y-28127542D01*
X59220568Y-28127542D01*
X59220568Y-28607920D01*
X59220568Y-29088298D01*
X58980379Y-29088298D01*
X58740189Y-29088298D01*
X58740189Y-29568676D01*
X58740189Y-30049055D01*
X58259811Y-30049055D01*
X57779433Y-30049055D01*
X57779433Y-29808866D01*
X57779433Y-29568676D01*
X58019622Y-29568676D01*
X58259811Y-29568676D01*
X58259811Y-29328487D01*
X58259811Y-29088298D01*
X57779433Y-29088298D01*
X57299055Y-29088298D01*
X57299055Y-28848109D01*
X57299055Y-28607920D01*
X57539244Y-28607920D01*
X57779433Y-28607920D01*
X57779433Y-28127542D01*
X57779433Y-27647163D01*
X57539244Y-27647163D01*
X57299055Y-27647163D01*
X57299055Y-27887353D01*
X57299055Y-28127542D01*
X57058866Y-28127542D01*
X56818676Y-28127542D01*
X56818676Y-27647163D01*
X56818676Y-27166785D01*
X56338298Y-27166785D01*
X55857920Y-27166785D01*
X55857920Y-26686407D01*
X55857920Y-26206029D01*
X56098109Y-26206029D01*
X56338298Y-26206029D01*
X56338298Y-25965840D01*
X56338298Y-25725650D01*
X56098109Y-25725650D01*
X55857920Y-25725650D01*
X55857920Y-25245272D01*
X55857920Y-24764894D01*
X56098109Y-24764894D01*
X56338298Y-24764894D01*
X56338298Y-25005083D01*
G37*
G36*
X53247152Y-35339017D02*
G01*
X53271732Y-35339374D01*
X53504015Y-35343859D01*
X53686038Y-35351012D01*
X53826752Y-35362919D01*
X53935105Y-35381669D01*
X54020048Y-35409349D01*
X54090532Y-35448046D01*
X54155505Y-35499848D01*
X54223920Y-35566842D01*
X54282208Y-35631030D01*
X54329473Y-35697440D01*
X54364404Y-35771737D01*
X54388628Y-35862605D01*
X54403772Y-35978729D01*
X54411461Y-36128792D01*
X54413323Y-36321479D01*
X54410984Y-36565474D01*
X54410627Y-36590054D01*
X54406142Y-36822337D01*
X54398989Y-37004360D01*
X54387081Y-37145073D01*
X54368332Y-37253426D01*
X54340652Y-37338370D01*
X54301955Y-37408853D01*
X54250153Y-37473827D01*
X54183158Y-37542241D01*
X54118971Y-37600529D01*
X54052561Y-37647795D01*
X53978264Y-37682726D01*
X53887396Y-37706950D01*
X53771272Y-37722093D01*
X53621209Y-37729782D01*
X53428522Y-37731644D01*
X53215840Y-37729606D01*
X53184527Y-37729306D01*
X53006435Y-37726412D01*
X52828764Y-37722096D01*
X52695254Y-37716317D01*
X52597044Y-37708304D01*
X52525273Y-37697283D01*
X52471080Y-37682483D01*
X52425604Y-37663129D01*
X52324340Y-37601844D01*
X52176448Y-37464980D01*
X52070230Y-37300430D01*
X52067834Y-37295177D01*
X52049990Y-37249440D01*
X52036828Y-37196734D01*
X52027803Y-37128216D01*
X52022374Y-37035043D01*
X52019995Y-36908369D01*
X52020125Y-36739353D01*
X52021417Y-36603477D01*
X52505294Y-36603477D01*
X52521576Y-36714497D01*
X52566980Y-36828843D01*
X52679627Y-37004156D01*
X52827417Y-37132317D01*
X53007204Y-37210954D01*
X53215840Y-37237693D01*
X53346462Y-37227515D01*
X53537400Y-37169687D01*
X53695855Y-37065721D01*
X53816112Y-36921335D01*
X53892456Y-36742243D01*
X53919174Y-36534161D01*
X53908999Y-36403502D01*
X53851187Y-36212510D01*
X53747251Y-36054011D01*
X53602904Y-35933720D01*
X53423863Y-35857354D01*
X53215840Y-35830629D01*
X53034682Y-35850307D01*
X52850819Y-35921780D01*
X52698379Y-36043961D01*
X52580029Y-36215238D01*
X52539514Y-36324066D01*
X52512293Y-36464624D01*
X52505294Y-36603477D01*
X52021417Y-36603477D01*
X52022219Y-36519149D01*
X52022943Y-36459687D01*
X52026990Y-36232292D01*
X52033923Y-36054135D01*
X52045749Y-35916411D01*
X52064476Y-35810314D01*
X52092110Y-35727039D01*
X52130658Y-35657779D01*
X52182126Y-35593728D01*
X52248521Y-35526081D01*
X52312708Y-35467793D01*
X52379118Y-35420528D01*
X52453415Y-35385596D01*
X52544283Y-35361372D01*
X52660407Y-35346229D01*
X52810470Y-35338540D01*
X53003157Y-35336678D01*
X53247152Y-35339017D01*
G37*
G36*
X63815474Y-24770695D02*
G01*
X63840054Y-24771052D01*
X64072337Y-24775538D01*
X64254360Y-24782690D01*
X64395073Y-24794598D01*
X64503426Y-24813347D01*
X64588370Y-24841027D01*
X64658853Y-24879724D01*
X64723827Y-24931526D01*
X64792241Y-24998521D01*
X64850529Y-25062708D01*
X64897795Y-25129118D01*
X64932726Y-25203415D01*
X64956950Y-25294283D01*
X64972093Y-25410407D01*
X64979782Y-25560470D01*
X64981644Y-25753157D01*
X64979306Y-25997152D01*
X64978948Y-26021732D01*
X64974463Y-26254015D01*
X64967310Y-26436038D01*
X64955403Y-26576752D01*
X64936653Y-26685105D01*
X64908974Y-26770048D01*
X64870276Y-26840532D01*
X64818474Y-26905505D01*
X64751480Y-26973920D01*
X64687292Y-27032208D01*
X64620882Y-27079473D01*
X64546585Y-27114404D01*
X64455717Y-27138628D01*
X64339594Y-27153772D01*
X64189530Y-27161461D01*
X63996843Y-27163323D01*
X63784161Y-27161284D01*
X63752848Y-27160984D01*
X63574756Y-27158090D01*
X63397085Y-27153774D01*
X63263575Y-27147996D01*
X63165365Y-27139982D01*
X63093595Y-27128962D01*
X63039402Y-27114161D01*
X62993925Y-27094807D01*
X62892662Y-27033522D01*
X62744769Y-26896658D01*
X62638551Y-26732109D01*
X62636156Y-26726855D01*
X62618312Y-26681118D01*
X62605149Y-26628413D01*
X62596125Y-26559895D01*
X62590695Y-26466721D01*
X62588317Y-26340048D01*
X62588446Y-26171031D01*
X62589738Y-26035156D01*
X63073615Y-26035156D01*
X63089897Y-26146176D01*
X63135302Y-26260521D01*
X63247948Y-26435835D01*
X63395739Y-26563996D01*
X63575526Y-26642632D01*
X63784161Y-26669372D01*
X63914784Y-26659194D01*
X64105722Y-26601365D01*
X64264176Y-26497400D01*
X64384433Y-26353013D01*
X64460778Y-26173921D01*
X64487496Y-25965840D01*
X64477320Y-25835180D01*
X64419508Y-25644188D01*
X64315572Y-25485689D01*
X64171226Y-25365399D01*
X63992184Y-25289033D01*
X63784161Y-25262307D01*
X63603004Y-25281986D01*
X63419141Y-25353458D01*
X63266700Y-25475640D01*
X63148350Y-25646917D01*
X63107835Y-25755744D01*
X63080614Y-25896302D01*
X63073615Y-26035156D01*
X62589738Y-26035156D01*
X62590540Y-25950828D01*
X62591265Y-25891365D01*
X62595311Y-25663970D01*
X62602244Y-25485814D01*
X62614071Y-25348090D01*
X62632798Y-25241993D01*
X62660432Y-25158717D01*
X62698979Y-25089457D01*
X62750447Y-25025406D01*
X62816842Y-24957760D01*
X62881030Y-24899472D01*
X62947440Y-24852206D01*
X63021737Y-24817275D01*
X63112605Y-24793051D01*
X63228729Y-24777908D01*
X63378792Y-24770218D01*
X63571479Y-24768356D01*
X63815474Y-24770695D01*
G37*
G36*
X63815474Y-35339017D02*
G01*
X63840054Y-35339374D01*
X64072337Y-35343859D01*
X64254360Y-35351012D01*
X64395073Y-35362919D01*
X64503426Y-35381669D01*
X64588370Y-35409349D01*
X64658853Y-35448046D01*
X64723827Y-35499848D01*
X64792241Y-35566842D01*
X64850529Y-35631030D01*
X64897795Y-35697440D01*
X64932726Y-35771737D01*
X64956950Y-35862605D01*
X64972093Y-35978729D01*
X64979782Y-36128792D01*
X64981644Y-36321479D01*
X64979306Y-36565474D01*
X64978948Y-36590054D01*
X64974463Y-36822337D01*
X64967310Y-37004360D01*
X64955403Y-37145073D01*
X64936653Y-37253426D01*
X64908974Y-37338370D01*
X64870276Y-37408853D01*
X64818474Y-37473827D01*
X64751480Y-37542241D01*
X64687292Y-37600529D01*
X64620882Y-37647795D01*
X64546585Y-37682726D01*
X64455717Y-37706950D01*
X64339594Y-37722093D01*
X64189530Y-37729782D01*
X63996843Y-37731644D01*
X63784161Y-37729606D01*
X63752848Y-37729306D01*
X63574756Y-37726412D01*
X63397085Y-37722096D01*
X63263575Y-37716317D01*
X63165365Y-37708304D01*
X63093595Y-37697283D01*
X63039402Y-37682483D01*
X62993925Y-37663129D01*
X62892662Y-37601844D01*
X62744769Y-37464980D01*
X62638551Y-37300430D01*
X62636156Y-37295177D01*
X62618312Y-37249440D01*
X62605149Y-37196734D01*
X62596125Y-37128216D01*
X62590695Y-37035043D01*
X62588317Y-36908369D01*
X62588446Y-36739353D01*
X62589738Y-36603477D01*
X63073615Y-36603477D01*
X63089897Y-36714497D01*
X63135302Y-36828843D01*
X63247948Y-37004156D01*
X63395739Y-37132317D01*
X63575526Y-37210954D01*
X63784161Y-37237693D01*
X63914784Y-37227515D01*
X64105722Y-37169687D01*
X64264176Y-37065721D01*
X64384433Y-36921335D01*
X64460778Y-36742243D01*
X64487496Y-36534161D01*
X64477320Y-36403502D01*
X64419508Y-36212510D01*
X64315572Y-36054011D01*
X64171226Y-35933720D01*
X63992184Y-35857354D01*
X63784161Y-35830629D01*
X63603004Y-35850307D01*
X63419141Y-35921780D01*
X63266700Y-36043961D01*
X63148350Y-36215238D01*
X63107835Y-36324066D01*
X63080614Y-36464624D01*
X63073615Y-36603477D01*
X62589738Y-36603477D01*
X62590540Y-36519149D01*
X62591265Y-36459687D01*
X62595311Y-36232292D01*
X62602244Y-36054135D01*
X62614071Y-35916411D01*
X62632798Y-35810314D01*
X62660432Y-35727039D01*
X62698979Y-35657779D01*
X62750447Y-35593728D01*
X62816842Y-35526081D01*
X62881030Y-35467793D01*
X62947440Y-35420528D01*
X63021737Y-35385596D01*
X63112605Y-35361372D01*
X63228729Y-35346229D01*
X63378792Y-35338540D01*
X63571479Y-35336678D01*
X63815474Y-35339017D01*
G37*
G36*
X58019622Y-37254728D02*
G01*
X58259811Y-37254728D01*
X58259811Y-37494918D01*
X58259811Y-37735107D01*
X58019622Y-37735107D01*
X57779433Y-37735107D01*
X57779433Y-37494918D01*
X57779433Y-37254728D01*
X58019622Y-37254728D01*
G37*
G36*
X59700946Y-29808866D02*
G01*
X59700946Y-30049055D01*
X59941135Y-30049055D01*
X60181324Y-30049055D01*
X60181324Y-29808866D01*
X60181324Y-29568676D01*
X60421513Y-29568676D01*
X60661702Y-29568676D01*
X60661702Y-29808866D01*
X60661702Y-30049055D01*
X61382270Y-30049055D01*
X62102837Y-30049055D01*
X62102837Y-29808866D01*
X62102837Y-29568676D01*
X62343026Y-29568676D01*
X62583215Y-29568676D01*
X62583215Y-29808866D01*
X62583215Y-30049055D01*
X62343026Y-30049055D01*
X62102837Y-30049055D01*
X62102837Y-30289244D01*
X62102837Y-30529433D01*
X62343026Y-30529433D01*
X62583215Y-30529433D01*
X62583215Y-30289244D01*
X62583215Y-30049055D01*
X62823405Y-30049055D01*
X63063594Y-30049055D01*
X63063594Y-30289244D01*
X63063594Y-30529433D01*
X62823405Y-30529433D01*
X62583215Y-30529433D01*
X62583215Y-30769622D01*
X62583215Y-31009811D01*
X62343026Y-31009811D01*
X62102837Y-31009811D01*
X62102837Y-30769622D01*
X62102837Y-30529433D01*
X61862648Y-30529433D01*
X61622459Y-30529433D01*
X61622459Y-31009811D01*
X61622459Y-31490189D01*
X61382270Y-31490189D01*
X61142081Y-31490189D01*
X61142081Y-31970568D01*
X61142081Y-32450946D01*
X60901892Y-32450946D01*
X60661702Y-32450946D01*
X60661702Y-32691135D01*
X60661702Y-32931324D01*
X60901892Y-32931324D01*
X61142081Y-32931324D01*
X61142081Y-33171513D01*
X61142081Y-33411702D01*
X60901892Y-33411702D01*
X60661702Y-33411702D01*
X60661702Y-33892081D01*
X60661702Y-34372459D01*
X60421513Y-34372459D01*
X60181324Y-34372459D01*
X60181324Y-34852837D01*
X60181324Y-35333215D01*
X59941135Y-35333215D01*
X59700946Y-35333215D01*
X59700946Y-35573405D01*
X59700946Y-35813594D01*
X59460757Y-35813594D01*
X59220568Y-35813594D01*
X59220568Y-36293972D01*
X59220568Y-36774350D01*
X58500000Y-36774350D01*
X57779433Y-36774350D01*
X57779433Y-37014539D01*
X57779433Y-37254728D01*
X57058866Y-37254728D01*
X56338298Y-37254728D01*
X56338298Y-37014539D01*
X56338298Y-36774350D01*
X56098109Y-36774350D01*
X55857920Y-36774350D01*
X55857920Y-36534161D01*
X55857920Y-36293972D01*
X56098109Y-36293972D01*
X56338298Y-36293972D01*
X56818676Y-36293972D01*
X56818676Y-36534161D01*
X56818676Y-36774350D01*
X57299055Y-36774350D01*
X57779433Y-36774350D01*
X57779433Y-36534161D01*
X57779433Y-36293972D01*
X58019622Y-36293972D01*
X58259811Y-36293972D01*
X58259811Y-36053783D01*
X58259811Y-35813594D01*
X58019622Y-35813594D01*
X57779433Y-35813594D01*
X57779433Y-36053783D01*
X57779433Y-36293972D01*
X57299055Y-36293972D01*
X56818676Y-36293972D01*
X56338298Y-36293972D01*
X56338298Y-36053783D01*
X56338298Y-35813594D01*
X56818676Y-35813594D01*
X57299055Y-35813594D01*
X57299055Y-35573405D01*
X57299055Y-35333215D01*
X57539244Y-35333215D01*
X57779433Y-35333215D01*
X57779433Y-35093026D01*
X57779433Y-34852837D01*
X58019622Y-34852837D01*
X58259811Y-34852837D01*
X58259811Y-35093026D01*
X58259811Y-35333215D01*
X58500000Y-35333215D01*
X58740189Y-35333215D01*
X58740189Y-35573405D01*
X58740189Y-35813594D01*
X58980379Y-35813594D01*
X59220568Y-35813594D01*
X59220568Y-35573405D01*
X59220568Y-35333215D01*
X59460757Y-35333215D01*
X59700946Y-35333215D01*
X59700946Y-35093026D01*
X59700946Y-34852837D01*
X59460757Y-34852837D01*
X59220568Y-34852837D01*
X59220568Y-35093026D01*
X59220568Y-35333215D01*
X58980379Y-35333215D01*
X58740189Y-35333215D01*
X58740189Y-35093026D01*
X58740189Y-34852837D01*
X58980379Y-34852837D01*
X59220568Y-34852837D01*
X59220568Y-34612648D01*
X59220568Y-34372459D01*
X59700946Y-34372459D01*
X60181324Y-34372459D01*
X60181324Y-33411702D01*
X60181324Y-32450946D01*
X59941135Y-32450946D01*
X59700946Y-32450946D01*
X59700946Y-32210757D01*
X59700946Y-31970568D01*
X60181324Y-31970568D01*
X60661702Y-31970568D01*
X60661702Y-31730379D01*
X60661702Y-31490189D01*
X60421513Y-31490189D01*
X60181324Y-31490189D01*
X60181324Y-31250000D01*
X60181324Y-31009811D01*
X59941135Y-31009811D01*
X59700946Y-31009811D01*
X59700946Y-31250000D01*
X59700946Y-31490189D01*
X59220568Y-31490189D01*
X58740189Y-31490189D01*
X58740189Y-31250000D01*
X58740189Y-31009811D01*
X58259811Y-31009811D01*
X57779433Y-31009811D01*
X57779433Y-30769622D01*
X60661702Y-30769622D01*
X60661702Y-31009811D01*
X60901892Y-31009811D01*
X61142081Y-31009811D01*
X61142081Y-30769622D01*
X61142081Y-30529433D01*
X60901892Y-30529433D01*
X60661702Y-30529433D01*
X60661702Y-30769622D01*
X57779433Y-30769622D01*
X57779433Y-30529433D01*
X58500000Y-30529433D01*
X59220568Y-30529433D01*
X59220568Y-30049055D01*
X59220568Y-29568676D01*
X59460757Y-29568676D01*
X59700946Y-29568676D01*
X59700946Y-29808866D01*
G37*
G36*
X59460757Y-36774350D02*
G01*
X59700946Y-36774350D01*
X59700946Y-37014539D01*
X59700946Y-37254728D01*
X59460757Y-37254728D01*
X59220568Y-37254728D01*
X59220568Y-37014539D01*
X59220568Y-36774350D01*
X59460757Y-36774350D01*
G37*
G36*
X59941135Y-35813594D02*
G01*
X60181324Y-35813594D01*
X60181324Y-36053783D01*
X60181324Y-36293972D01*
X59941135Y-36293972D01*
X59700946Y-36293972D01*
X59700946Y-36053783D01*
X59700946Y-35813594D01*
X59941135Y-35813594D01*
G37*
G36*
X66005910Y-31250000D02*
G01*
X66005910Y-38755910D01*
X63852463Y-38755910D01*
X60181324Y-38755910D01*
X58500000Y-38755910D01*
X53284142Y-38755910D01*
X50994090Y-38755910D01*
X50994090Y-36721754D01*
X51541494Y-36721754D01*
X51544206Y-36930994D01*
X51552316Y-37098835D01*
X51567236Y-37234531D01*
X51590380Y-37347336D01*
X51623160Y-37446501D01*
X51666991Y-37541280D01*
X51723285Y-37640927D01*
X51856392Y-37821441D01*
X52031997Y-37976663D01*
X52255083Y-38106627D01*
X52450237Y-38200473D01*
X53115424Y-38210442D01*
X53284142Y-38212361D01*
X53520591Y-38211549D01*
X53712108Y-38204537D01*
X53868033Y-38189902D01*
X53997705Y-38166225D01*
X54110465Y-38132083D01*
X54215652Y-38086054D01*
X54322605Y-38026718D01*
X54503117Y-37893611D01*
X54658341Y-37718005D01*
X54788306Y-37494918D01*
X54882152Y-37299764D01*
X54892121Y-36634577D01*
X54894039Y-36465859D01*
X54893227Y-36229410D01*
X54886215Y-36037893D01*
X54871581Y-35881968D01*
X54847903Y-35752296D01*
X54813761Y-35639536D01*
X54767733Y-35534349D01*
X54708397Y-35427395D01*
X54575290Y-35246884D01*
X54399683Y-35091659D01*
X54176596Y-34961695D01*
X53981442Y-34867849D01*
X53316255Y-34857880D01*
X53147537Y-34855961D01*
X52911089Y-34856773D01*
X52719572Y-34863786D01*
X52563647Y-34878420D01*
X52433974Y-34902097D01*
X52321214Y-34936240D01*
X52216027Y-34982268D01*
X52109074Y-35041604D01*
X51928562Y-35174711D01*
X51773338Y-35350317D01*
X51643374Y-35573405D01*
X51549528Y-35768558D01*
X51542793Y-36459102D01*
X51542766Y-36461863D01*
X51541494Y-36721754D01*
X50994090Y-36721754D01*
X50994090Y-31250000D01*
X50994090Y-27647163D01*
X51534516Y-27647163D01*
X51534516Y-27887353D01*
X51534516Y-28127542D01*
X51774705Y-28127542D01*
X52014894Y-28127542D01*
X52014894Y-28367731D01*
X52014894Y-28607920D01*
X51774705Y-28607920D01*
X51534516Y-28607920D01*
X51534516Y-28848109D01*
X51534516Y-29088298D01*
X51774705Y-29088298D01*
X52014894Y-29088298D01*
X52014894Y-28848109D01*
X52014894Y-28607920D01*
X52255083Y-28607920D01*
X52495272Y-28607920D01*
X52495272Y-29328487D01*
X52495272Y-30049055D01*
X52014894Y-30049055D01*
X51534516Y-30049055D01*
X51534516Y-31490189D01*
X51534516Y-32931324D01*
X51774705Y-32931324D01*
X52014894Y-32931324D01*
X52014894Y-33171513D01*
X52014894Y-33411702D01*
X51774705Y-33411702D01*
X51534516Y-33411702D01*
X51534516Y-33651892D01*
X51534516Y-33892081D01*
X51774705Y-33892081D01*
X52014894Y-33892081D01*
X52014894Y-34132270D01*
X52014894Y-34372459D01*
X52495272Y-34372459D01*
X52975650Y-34372459D01*
X52975650Y-34132270D01*
X52975650Y-33892081D01*
X54656974Y-33892081D01*
X56338298Y-33892081D01*
X56338298Y-33651892D01*
X56338298Y-33411702D01*
X55617731Y-33411702D01*
X55137353Y-33411702D01*
X54897163Y-33411702D01*
X54897163Y-33171513D01*
X54897163Y-32931324D01*
X54656974Y-32931324D01*
X54416785Y-32931324D01*
X54416785Y-32450946D01*
X54416785Y-32210757D01*
X54897163Y-32210757D01*
X54897163Y-32450946D01*
X55137353Y-32450946D01*
X55377542Y-32450946D01*
X55377542Y-32210757D01*
X55377542Y-31970568D01*
X55137353Y-31970568D01*
X54897163Y-31970568D01*
X54897163Y-32210757D01*
X54416785Y-32210757D01*
X54416785Y-31970568D01*
X54656974Y-31970568D01*
X54897163Y-31970568D01*
X54897163Y-31730379D01*
X54897163Y-31490189D01*
X54656974Y-31490189D01*
X54416785Y-31490189D01*
X54416785Y-31250000D01*
X54416785Y-31009811D01*
X54176596Y-31009811D01*
X53936407Y-31009811D01*
X53936407Y-30769622D01*
X53936407Y-30529433D01*
X54176596Y-30529433D01*
X54416785Y-30529433D01*
X54416785Y-30049055D01*
X54416785Y-29568676D01*
X54656974Y-29568676D01*
X54897163Y-29568676D01*
X54897163Y-29328487D01*
X54897163Y-29088298D01*
X55137353Y-29088298D01*
X55377542Y-29088298D01*
X55377542Y-28848109D01*
X55377542Y-28607920D01*
X55857920Y-28607920D01*
X56338298Y-28607920D01*
X56338298Y-28848109D01*
X56338298Y-29088298D01*
X56818676Y-29088298D01*
X57299055Y-29088298D01*
X57299055Y-30049055D01*
X57299055Y-31009811D01*
X57539244Y-31009811D01*
X57779433Y-31009811D01*
X57779433Y-31250000D01*
X57779433Y-31490189D01*
X57058866Y-31490189D01*
X56578487Y-31490189D01*
X56338298Y-31490189D01*
X56338298Y-31009811D01*
X56338298Y-30529433D01*
X56098109Y-30529433D01*
X55857920Y-30529433D01*
X55857920Y-30049055D01*
X55857920Y-29808866D01*
X56338298Y-29808866D01*
X56338298Y-30049055D01*
X56578487Y-30049055D01*
X56818676Y-30049055D01*
X56818676Y-29808866D01*
X56818676Y-29568676D01*
X56578487Y-29568676D01*
X56338298Y-29568676D01*
X56338298Y-29808866D01*
X55857920Y-29808866D01*
X55857920Y-29568676D01*
X55617731Y-29568676D01*
X55377542Y-29568676D01*
X55377542Y-29808866D01*
X55377542Y-30049055D01*
X55137353Y-30049055D01*
X54897163Y-30049055D01*
X54897163Y-30289244D01*
X54897163Y-30529433D01*
X55137353Y-30529433D01*
X55377542Y-30529433D01*
X55377542Y-31009811D01*
X55377542Y-31490189D01*
X55617731Y-31490189D01*
X55857920Y-31490189D01*
X55857920Y-32210757D01*
X55857920Y-32931324D01*
X56098109Y-32931324D01*
X56338298Y-32931324D01*
X56338298Y-32450946D01*
X56338298Y-31970568D01*
X56578487Y-31970568D01*
X56818676Y-31970568D01*
X56818676Y-32210757D01*
X56818676Y-32450946D01*
X57299055Y-32450946D01*
X57779433Y-32450946D01*
X57779433Y-33171513D01*
X57779433Y-33892081D01*
X58019622Y-33892081D01*
X58259811Y-33892081D01*
X58259811Y-33651892D01*
X58259811Y-33411702D01*
X58500000Y-33411702D01*
X58740189Y-33411702D01*
X58740189Y-33651892D01*
X58740189Y-33892081D01*
X58980379Y-33892081D01*
X59220568Y-33892081D01*
X59220568Y-34132270D01*
X59220568Y-34372459D01*
X58500000Y-34372459D01*
X57779433Y-34372459D01*
X57779433Y-34612648D01*
X57779433Y-34852837D01*
X57539244Y-34852837D01*
X57299055Y-34852837D01*
X57299055Y-33892081D01*
X57299055Y-32931324D01*
X57058866Y-32931324D01*
X56818676Y-32931324D01*
X56818676Y-33892081D01*
X56818676Y-34852837D01*
X56578487Y-34852837D01*
X56338298Y-34852837D01*
X56338298Y-35093026D01*
X56338298Y-35333215D01*
X56098109Y-35333215D01*
X55857920Y-35333215D01*
X55857920Y-34852837D01*
X55857920Y-34372459D01*
X55617731Y-34372459D01*
X55377542Y-34372459D01*
X55377542Y-35093026D01*
X55377542Y-35813594D01*
X55617731Y-35813594D01*
X55857920Y-35813594D01*
X55857920Y-36053783D01*
X55857920Y-36293972D01*
X55617731Y-36293972D01*
X55377542Y-36293972D01*
X55377542Y-36534161D01*
X55377542Y-36774350D01*
X55617731Y-36774350D01*
X55857920Y-36774350D01*
X55857920Y-37014539D01*
X55857920Y-37254728D01*
X56098109Y-37254728D01*
X56338298Y-37254728D01*
X56338298Y-37494918D01*
X56338298Y-37735107D01*
X55857920Y-37735107D01*
X55377542Y-37735107D01*
X55377542Y-37975296D01*
X55377542Y-38215485D01*
X56098109Y-38215485D01*
X56818676Y-38215485D01*
X56818676Y-37975296D01*
X56818676Y-37735107D01*
X57299055Y-37735107D01*
X57779433Y-37735107D01*
X57779433Y-37975296D01*
X57779433Y-38215485D01*
X58259811Y-38215485D01*
X58740189Y-38215485D01*
X58740189Y-37735107D01*
X58740189Y-37254728D01*
X58980379Y-37254728D01*
X59220568Y-37254728D01*
X59220568Y-37494918D01*
X59220568Y-37735107D01*
X59460757Y-37735107D01*
X59700946Y-37735107D01*
X59700946Y-37975296D01*
X59700946Y-38215485D01*
X59941135Y-38215485D01*
X60181324Y-38215485D01*
X60181324Y-37975296D01*
X60181324Y-37735107D01*
X60901892Y-37735107D01*
X61622459Y-37735107D01*
X61622459Y-37254728D01*
X61622459Y-36774350D01*
X61382270Y-36774350D01*
X61142081Y-36774350D01*
X61142081Y-36721754D01*
X62109815Y-36721754D01*
X62112528Y-36930994D01*
X62120637Y-37098835D01*
X62135557Y-37234531D01*
X62158701Y-37347336D01*
X62191482Y-37446501D01*
X62235312Y-37541280D01*
X62291606Y-37640927D01*
X62424713Y-37821441D01*
X62600318Y-37976663D01*
X62823405Y-38106627D01*
X63018558Y-38200473D01*
X63683746Y-38210442D01*
X63852463Y-38212361D01*
X64088912Y-38211549D01*
X64280429Y-38204537D01*
X64436354Y-38189902D01*
X64566027Y-38166225D01*
X64678786Y-38132083D01*
X64783973Y-38086054D01*
X64890927Y-38026718D01*
X65071439Y-37893611D01*
X65226663Y-37718005D01*
X65356627Y-37494918D01*
X65450473Y-37299764D01*
X65460442Y-36634577D01*
X65462361Y-36465859D01*
X65461549Y-36229410D01*
X65454537Y-36037893D01*
X65439902Y-35881968D01*
X65416225Y-35752296D01*
X65382083Y-35639536D01*
X65336054Y-35534349D01*
X65276718Y-35427395D01*
X65143611Y-35246884D01*
X64968005Y-35091659D01*
X64744918Y-34961695D01*
X64549764Y-34867849D01*
X63884577Y-34857880D01*
X63715859Y-34855961D01*
X63479410Y-34856773D01*
X63287893Y-34863786D01*
X63131968Y-34878420D01*
X63002296Y-34902097D01*
X62889536Y-34936240D01*
X62784349Y-34982268D01*
X62677395Y-35041604D01*
X62496884Y-35174711D01*
X62341659Y-35350317D01*
X62211695Y-35573405D01*
X62117849Y-35768558D01*
X62111114Y-36459102D01*
X62111087Y-36461863D01*
X62109815Y-36721754D01*
X61142081Y-36721754D01*
X61142081Y-36293972D01*
X61142081Y-35813594D01*
X60661702Y-35813594D01*
X60181324Y-35813594D01*
X60181324Y-35573405D01*
X60181324Y-35333215D01*
X60421513Y-35333215D01*
X60661702Y-35333215D01*
X60661702Y-35093026D01*
X60661702Y-34852837D01*
X60901892Y-34852837D01*
X61142081Y-34852837D01*
X61142081Y-35093026D01*
X61142081Y-35333215D01*
X61382270Y-35333215D01*
X61622459Y-35333215D01*
X61622459Y-35093026D01*
X61622459Y-34852837D01*
X61382270Y-34852837D01*
X61142081Y-34852837D01*
X61142081Y-34372459D01*
X61142081Y-33892081D01*
X61382270Y-33892081D01*
X61622459Y-33892081D01*
X61622459Y-33651892D01*
X61622459Y-33411702D01*
X62102837Y-33411702D01*
X62583215Y-33411702D01*
X62583215Y-33651892D01*
X62583215Y-33892081D01*
X62343026Y-33892081D01*
X62102837Y-33892081D01*
X62102837Y-34132270D01*
X62102837Y-34372459D01*
X62583215Y-34372459D01*
X63063594Y-34372459D01*
X63063594Y-34132270D01*
X63063594Y-33892081D01*
X63303783Y-33892081D01*
X63543972Y-33892081D01*
X63543972Y-34132270D01*
X63543972Y-34372459D01*
X64264539Y-34372459D01*
X64985107Y-34372459D01*
X64985107Y-34132270D01*
X64985107Y-33892081D01*
X64744918Y-33892081D01*
X64504728Y-33892081D01*
X64504728Y-33651892D01*
X64504728Y-33411702D01*
X64744918Y-33411702D01*
X64985107Y-33411702D01*
X64985107Y-33171513D01*
X64985107Y-32931324D01*
X65225296Y-32931324D01*
X65465485Y-32931324D01*
X65465485Y-32691135D01*
X65465485Y-32450946D01*
X65225296Y-32450946D01*
X64985107Y-32450946D01*
X64504728Y-32450946D01*
X64504728Y-32210757D01*
X64504728Y-31970568D01*
X63784161Y-31970568D01*
X63063594Y-31970568D01*
X63063594Y-32450946D01*
X63063594Y-32931324D01*
X62102837Y-32931324D01*
X61142081Y-32931324D01*
X61142081Y-32691135D01*
X61142081Y-32450946D01*
X61382270Y-32450946D01*
X61622459Y-32450946D01*
X61622459Y-32210757D01*
X61622459Y-31970568D01*
X61862648Y-31970568D01*
X62102837Y-31970568D01*
X62102837Y-32210757D01*
X62102837Y-32450946D01*
X62343026Y-32450946D01*
X62583215Y-32450946D01*
X62583215Y-32210757D01*
X62583215Y-31970568D01*
X62343026Y-31970568D01*
X62102837Y-31970568D01*
X62102837Y-31730379D01*
X64985107Y-31730379D01*
X64985107Y-31970568D01*
X65225296Y-31970568D01*
X65465485Y-31970568D01*
X65465485Y-31730379D01*
X65465485Y-31490189D01*
X65225296Y-31490189D01*
X64985107Y-31490189D01*
X64985107Y-31730379D01*
X62102837Y-31730379D01*
X62102837Y-31490189D01*
X62343026Y-31490189D01*
X62583215Y-31490189D01*
X62583215Y-31250000D01*
X62583215Y-31009811D01*
X62823405Y-31009811D01*
X63063594Y-31009811D01*
X63543972Y-31009811D01*
X63543972Y-31250000D01*
X63543972Y-31490189D01*
X63784161Y-31490189D01*
X64024350Y-31490189D01*
X64024350Y-31250000D01*
X64024350Y-31009811D01*
X64744918Y-31009811D01*
X65465485Y-31009811D01*
X65465485Y-30529433D01*
X65465485Y-30049055D01*
X65225296Y-30049055D01*
X64985107Y-30049055D01*
X64985107Y-30289244D01*
X64985107Y-30529433D01*
X64504728Y-30529433D01*
X64024350Y-30529433D01*
X64024350Y-30769622D01*
X64024350Y-31009811D01*
X63784161Y-31009811D01*
X63543972Y-31009811D01*
X63063594Y-31009811D01*
X63063594Y-30769622D01*
X63063594Y-30529433D01*
X63303783Y-30529433D01*
X63543972Y-30529433D01*
X63543972Y-30289244D01*
X63543972Y-30049055D01*
X63784161Y-30049055D01*
X64024350Y-30049055D01*
X64024350Y-29808866D01*
X64024350Y-29568676D01*
X64264539Y-29568676D01*
X64504728Y-29568676D01*
X64504728Y-29808866D01*
X64504728Y-30049055D01*
X64744918Y-30049055D01*
X64985107Y-30049055D01*
X64985107Y-29808866D01*
X64985107Y-29568676D01*
X65225296Y-29568676D01*
X65465485Y-29568676D01*
X65465485Y-29328487D01*
X65465485Y-29088298D01*
X65225296Y-29088298D01*
X64985107Y-29088298D01*
X64985107Y-29328487D01*
X64985107Y-29568676D01*
X64744918Y-29568676D01*
X64504728Y-29568676D01*
X64504728Y-29088298D01*
X64504728Y-28607920D01*
X64744918Y-28607920D01*
X64985107Y-28607920D01*
X64985107Y-28367731D01*
X64985107Y-28127542D01*
X64744918Y-28127542D01*
X64504728Y-28127542D01*
X64504728Y-28367731D01*
X64504728Y-28607920D01*
X64264539Y-28607920D01*
X64024350Y-28607920D01*
X64024350Y-28848109D01*
X64024350Y-29088298D01*
X63852463Y-29088298D01*
X63784161Y-29088298D01*
X63543972Y-29088298D01*
X63543972Y-29328487D01*
X63543972Y-29568676D01*
X63063594Y-29568676D01*
X62583215Y-29568676D01*
X62583215Y-29328487D01*
X62583215Y-29088298D01*
X62823405Y-29088298D01*
X63063594Y-29088298D01*
X63063594Y-28848109D01*
X63063594Y-28607920D01*
X63303783Y-28607920D01*
X63543972Y-28607920D01*
X63543972Y-28367731D01*
X63543972Y-28127542D01*
X63303783Y-28127542D01*
X63063594Y-28127542D01*
X63063594Y-28367731D01*
X63063594Y-28607920D01*
X62823405Y-28607920D01*
X62583215Y-28607920D01*
X62583215Y-28367731D01*
X62583215Y-28127542D01*
X62343026Y-28127542D01*
X62102837Y-28127542D01*
X62102837Y-28367731D01*
X62102837Y-28607920D01*
X61862648Y-28607920D01*
X61622459Y-28607920D01*
X61622459Y-28848109D01*
X61622459Y-29088298D01*
X61862648Y-29088298D01*
X62102837Y-29088298D01*
X62102837Y-29328487D01*
X62102837Y-29568676D01*
X61622459Y-29568676D01*
X61142081Y-29568676D01*
X61142081Y-29328487D01*
X61142081Y-29088298D01*
X60421513Y-29088298D01*
X59700946Y-29088298D01*
X59700946Y-28607920D01*
X59700946Y-28127542D01*
X60661702Y-28127542D01*
X60661702Y-28607920D01*
X60901892Y-28607920D01*
X61142081Y-28607920D01*
X61142081Y-28367731D01*
X61142081Y-28127542D01*
X61382270Y-28127542D01*
X61622459Y-28127542D01*
X61622459Y-27887353D01*
X61622459Y-27647163D01*
X61142081Y-27647163D01*
X60661702Y-27647163D01*
X60661702Y-28127542D01*
X59700946Y-28127542D01*
X59460757Y-28127542D01*
X59220568Y-28127542D01*
X59220568Y-27887353D01*
X59220568Y-27647163D01*
X59700946Y-27647163D01*
X60181324Y-27647163D01*
X60181324Y-27406974D01*
X60181324Y-27166785D01*
X60901892Y-27166785D01*
X61622459Y-27166785D01*
X61622459Y-26926596D01*
X61622459Y-26686407D01*
X61382270Y-26686407D01*
X60901892Y-26686407D01*
X60181324Y-26686407D01*
X60181324Y-26206029D01*
X60181324Y-25725650D01*
X59700946Y-25725650D01*
X59220568Y-25725650D01*
X59220568Y-26206029D01*
X59220568Y-26686407D01*
X58980379Y-26686407D01*
X58740189Y-26686407D01*
X58740189Y-26206029D01*
X58740189Y-25725650D01*
X58500000Y-25725650D01*
X58259811Y-25725650D01*
X58259811Y-25485461D01*
X58259811Y-25245272D01*
X58019622Y-25245272D01*
X57779433Y-25245272D01*
X57779433Y-25005083D01*
X57779433Y-24764894D01*
X58259811Y-24764894D01*
X58740189Y-24764894D01*
X58740189Y-25005083D01*
X58740189Y-25245272D01*
X59220568Y-25245272D01*
X59700946Y-25245272D01*
X59700946Y-25005083D01*
X60181324Y-25005083D01*
X60181324Y-25245272D01*
X60661702Y-25245272D01*
X61142081Y-25245272D01*
X61142081Y-25725650D01*
X61142081Y-26206029D01*
X61382270Y-26206029D01*
X61622459Y-26206029D01*
X61622459Y-26153432D01*
X62109815Y-26153432D01*
X62112528Y-26362672D01*
X62120637Y-26530513D01*
X62135557Y-26666210D01*
X62158701Y-26779014D01*
X62191482Y-26878179D01*
X62235312Y-26972959D01*
X62291606Y-27072605D01*
X62424713Y-27253119D01*
X62600318Y-27408342D01*
X62823405Y-27538306D01*
X63018558Y-27632152D01*
X63683746Y-27642121D01*
X63852463Y-27644039D01*
X64088912Y-27643227D01*
X64280429Y-27636215D01*
X64436354Y-27621581D01*
X64566027Y-27597903D01*
X64678786Y-27563761D01*
X64783973Y-27517733D01*
X64890927Y-27458397D01*
X65071439Y-27325290D01*
X65226663Y-27149683D01*
X65356627Y-26926596D01*
X65450473Y-26731442D01*
X65460442Y-26066255D01*
X65462361Y-25897537D01*
X65461549Y-25661089D01*
X65454537Y-25469572D01*
X65439902Y-25313647D01*
X65416225Y-25183974D01*
X65382083Y-25071214D01*
X65336054Y-24966027D01*
X65276718Y-24859074D01*
X65143611Y-24678562D01*
X64968005Y-24523338D01*
X64744918Y-24393374D01*
X64549764Y-24299528D01*
X63884577Y-24289558D01*
X63715859Y-24287640D01*
X63479410Y-24288452D01*
X63287893Y-24295464D01*
X63131968Y-24310098D01*
X63002296Y-24333776D01*
X62889536Y-24367918D01*
X62784349Y-24413946D01*
X62677395Y-24473282D01*
X62496884Y-24606389D01*
X62341659Y-24781996D01*
X62211695Y-25005083D01*
X62117849Y-25200237D01*
X62111114Y-25890780D01*
X62111087Y-25893542D01*
X62109815Y-26153432D01*
X61622459Y-26153432D01*
X61622459Y-25485461D01*
X61622459Y-24764894D01*
X60901892Y-24764894D01*
X60181324Y-24764894D01*
X60181324Y-25005083D01*
X59700946Y-25005083D01*
X59700946Y-24764894D01*
X59941135Y-24764894D01*
X60181324Y-24764894D01*
X60181324Y-24524705D01*
X60181324Y-24284516D01*
X59941135Y-24284516D01*
X59700946Y-24284516D01*
X59700946Y-24524705D01*
X59700946Y-24764894D01*
X59460757Y-24764894D01*
X59220568Y-24764894D01*
X59220568Y-24524705D01*
X59220568Y-24284516D01*
X58500000Y-24284516D01*
X57779433Y-24284516D01*
X57779433Y-24524705D01*
X57779433Y-24764894D01*
X57539244Y-24764894D01*
X57299055Y-24764894D01*
X57299055Y-25005083D01*
X57299055Y-25245272D01*
X57058866Y-25245272D01*
X56818676Y-25245272D01*
X56818676Y-25005083D01*
X56818676Y-24764894D01*
X56578487Y-24764894D01*
X56338298Y-24764894D01*
X56338298Y-24524705D01*
X56338298Y-24284516D01*
X55857920Y-24284516D01*
X55377542Y-24284516D01*
X55377542Y-25005083D01*
X55377542Y-25725650D01*
X55617731Y-25725650D01*
X55857920Y-25725650D01*
X55857920Y-25965840D01*
X55857920Y-26206029D01*
X54897163Y-26206029D01*
X53936407Y-26206029D01*
X53936407Y-25965840D01*
X53936407Y-25725650D01*
X54176596Y-25725650D01*
X54416785Y-25725650D01*
X54416785Y-25485461D01*
X54416785Y-25245272D01*
X54656974Y-25245272D01*
X54897163Y-25245272D01*
X54897163Y-24764894D01*
X54897163Y-24284516D01*
X54416785Y-24284516D01*
X53936407Y-24284516D01*
X53936407Y-24524705D01*
X53936407Y-24764894D01*
X53456029Y-24764894D01*
X52975650Y-24764894D01*
X52975650Y-25485461D01*
X52975650Y-26206029D01*
X52735461Y-26206029D01*
X52495272Y-26206029D01*
X52495272Y-25965840D01*
X52495272Y-25725650D01*
X52255083Y-25725650D01*
X52014894Y-25725650D01*
X52014894Y-26686407D01*
X52014894Y-27647163D01*
X51774705Y-27647163D01*
X51534516Y-27647163D01*
X50994090Y-27647163D01*
X50994090Y-25245272D01*
X51534516Y-25245272D01*
X51534516Y-25485461D01*
X51534516Y-25725650D01*
X51774705Y-25725650D01*
X52014894Y-25725650D01*
X52014894Y-25485461D01*
X52014894Y-25245272D01*
X52255083Y-25245272D01*
X52495272Y-25245272D01*
X52495272Y-24764894D01*
X52495272Y-24284516D01*
X52255083Y-24284516D01*
X52014894Y-24284516D01*
X52014894Y-24764894D01*
X52014894Y-25245272D01*
X51774705Y-25245272D01*
X51534516Y-25245272D01*
X50994090Y-25245272D01*
X50994090Y-23744090D01*
X58500000Y-23744090D01*
X66005910Y-23744090D01*
X66005910Y-31250000D01*
G37*
%TD*%
%LPC*%
D14*
X88000000Y-1000000D02*
X1000000Y-1000000D01*
X88000000Y-43000000D02*
X88000000Y-31750000D01*
D11*
X88000000Y-1000000D02*
X87750000Y-1000000D01*
D14*
X1000000Y-1000000D02*
X1000000Y-43000000D01*
X1000000Y-43000000D02*
X88000000Y-43000000D01*
X88000000Y-12250000D02*
X88000000Y-1000000D01*
D15*
%TO.C,TP101*%
X69500000Y-19500000D03*
%TD*%
D16*
%TO.C,J301*%
X65500000Y-4750000D03*
D17*
X62960000Y-4750000D03*
X60420000Y-4750000D03*
X57880000Y-4750000D03*
X55340000Y-4750000D03*
X52800000Y-4750000D03*
%TD*%
D18*
%TO.C,J401*%
X55960000Y-12500000D03*
D19*
X58500000Y-12500000D03*
D18*
X61040000Y-12500000D03*
X55960000Y-9325000D03*
X61040000Y-9325000D03*
D19*
X57484000Y-7420000D03*
X59516000Y-7420000D03*
%TD*%
D15*
%TO.C,TP508*%
X16000000Y-15500000D03*
%TD*%
D20*
%TO.C,H104*%
X83500000Y-38500000D03*
D21*
X83500000Y-38500000D03*
%TD*%
D20*
%TO.C,H102*%
X83500000Y-5500000D03*
D21*
X83500000Y-5500000D03*
%TD*%
D20*
%TO.C,H103*%
X16000000Y-5500000D03*
D21*
X16000000Y-5500000D03*
%TD*%
D20*
%TO.C,H101*%
X16000000Y-38500000D03*
D21*
X16000000Y-38500000D03*
%TD*%
%LPD*%
M02*
