%TF.GenerationSoftware,KiCad,Pcbnew,8.0.4*%
%TF.CreationDate,2024-09-01T09:58:53+12:00*%
%TF.ProjectId,CDRC,43445243-2e6b-4696-9361-645f70636258,A*%
%TF.SameCoordinates,Original*%
%TF.FileFunction,Copper,L2,Bot*%
%TF.FilePolarity,Positive*%
%FSLAX46Y46*%
G04 Gerber Fmt 4.6, Leading zero omitted, Abs format (unit mm)*
G04 Created by KiCad (PCBNEW 8.0.4) date 2024-09-01 09:58:53*
%MOMM*%
%LPD*%
G01*
G04 APERTURE LIST*
G04 Aperture macros list*
%AMRoundRect*
0 Rectangle with rounded corners*
0 $1 Rounding radius*
0 $2 $3 $4 $5 $6 $7 $8 $9 X,Y pos of 4 corners*
0 Add a 4 corners polygon primitive as box body*
4,1,4,$2,$3,$4,$5,$6,$7,$8,$9,$2,$3,0*
0 Add four circle primitives for the rounded corners*
1,1,$1+$1,$2,$3*
1,1,$1+$1,$4,$5*
1,1,$1+$1,$6,$7*
1,1,$1+$1,$8,$9*
0 Add four rect primitives between the rounded corners*
20,1,$1+$1,$2,$3,$4,$5,0*
20,1,$1+$1,$4,$5,$6,$7,0*
20,1,$1+$1,$6,$7,$8,$9,0*
20,1,$1+$1,$8,$9,$2,$3,0*%
G04 Aperture macros list end*
%TA.AperFunction,ComponentPad*%
%ADD10C,2.000000*%
%TD*%
%TA.AperFunction,HeatsinkPad*%
%ADD11C,0.600000*%
%TD*%
%TA.AperFunction,ComponentPad*%
%ADD12RoundRect,0.250000X0.625000X-0.350000X0.625000X0.350000X-0.625000X0.350000X-0.625000X-0.350000X0*%
%TD*%
%TA.AperFunction,ComponentPad*%
%ADD13O,1.750000X1.200000*%
%TD*%
%TA.AperFunction,ComponentPad*%
%ADD14R,1.700000X1.700000*%
%TD*%
%TA.AperFunction,ComponentPad*%
%ADD15O,1.700000X1.700000*%
%TD*%
%TA.AperFunction,HeatsinkPad*%
%ADD16C,0.500000*%
%TD*%
%TA.AperFunction,HeatsinkPad*%
%ADD17R,0.500000X1.600000*%
%TD*%
%TA.AperFunction,ComponentPad*%
%ADD18RoundRect,0.250000X-0.350000X-0.625000X0.350000X-0.625000X0.350000X0.625000X-0.350000X0.625000X0*%
%TD*%
%TA.AperFunction,ComponentPad*%
%ADD19O,1.200000X1.750000*%
%TD*%
%TA.AperFunction,ComponentPad*%
%ADD20RoundRect,0.250000X0.350000X0.625000X-0.350000X0.625000X-0.350000X-0.625000X0.350000X-0.625000X0*%
%TD*%
%TA.AperFunction,ViaPad*%
%ADD21C,0.800000*%
%TD*%
%TA.AperFunction,ViaPad*%
%ADD22C,0.600000*%
%TD*%
%TA.AperFunction,ViaPad*%
%ADD23C,0.700000*%
%TD*%
G04 APERTURE END LIST*
D10*
%TO.P,TP101,1,1*%
%TO.N,GND*%
X163500000Y-59000000D03*
%TD*%
D11*
%TO.P,U401,39,GND*%
%TO.N,GND*%
X123100000Y-64150000D03*
X123100000Y-65550000D03*
X123800000Y-63450000D03*
X123800000Y-64850000D03*
X123800000Y-66250000D03*
X124500000Y-64150000D03*
X124500000Y-65550000D03*
X125200000Y-63450000D03*
X125200000Y-64850000D03*
X125200000Y-66250000D03*
X125900000Y-64150000D03*
X125900000Y-65550000D03*
%TD*%
D12*
%TO.P,J502,1,Pin_1*%
%TO.N,Net-(J502-Pin_1)*%
X103750000Y-67250000D03*
D13*
%TO.P,J502,2,Pin_2*%
%TO.N,Net-(J502-Pin_2)*%
X103750000Y-65250000D03*
%TD*%
D14*
%TO.P,J101,1,Pin_1*%
%TO.N,unconnected-(J101-Pin_1-Pad1)*%
X167250000Y-56510000D03*
D15*
%TO.P,J101,2,Pin_2*%
%TO.N,GND*%
X167250000Y-59050000D03*
%TO.P,J101,3,Pin_3*%
X167250000Y-61590000D03*
%TO.P,J101,4,Pin_4*%
%TO.N,/DSP_RS485_B{slash}Z*%
X167250000Y-64130000D03*
%TO.P,J101,5,Pin_5*%
%TO.N,/DSP_RS485_A{slash}Y*%
X167250000Y-66670000D03*
%TO.P,J101,6,Pin_6*%
%TO.N,/DSP_POWER_EN*%
X167250000Y-69210000D03*
%TO.P,J101,7,Pin_7*%
%TO.N,/DSP_CONST_12V*%
X167250000Y-71750000D03*
%TD*%
D16*
%TO.P,U202,7,PAD*%
%TO.N,GND*%
X140500000Y-73950000D03*
D17*
X140500000Y-74500000D03*
D16*
X140500000Y-75050000D03*
%TD*%
D18*
%TO.P,J504,1,Pin_1*%
%TO.N,/USER_INTERFACE/ENC_1_A*%
X97250000Y-76500000D03*
D19*
%TO.P,J504,2,Pin_2*%
%TO.N,GND*%
X99250000Y-76500000D03*
%TO.P,J504,3,Pin_3*%
%TO.N,/USER_INTERFACE/ENC_1_B*%
X101250000Y-76500000D03*
%TO.P,J504,4,Pin_4*%
%TO.N,GND*%
X103250000Y-76500000D03*
%TO.P,J504,5,Pin_5*%
%TO.N,/USER_INTERFACE/ENC_1_SW*%
X105250000Y-76500000D03*
%TD*%
D20*
%TO.P,J501,1,Pin_1*%
%TO.N,/USER_INTERFACE/ENC_2_A*%
X105250000Y-56000000D03*
D19*
%TO.P,J501,2,Pin_2*%
%TO.N,GND*%
X103250000Y-56000000D03*
%TO.P,J501,3,Pin_3*%
%TO.N,/USER_INTERFACE/ENC_2_B*%
X101250000Y-56000000D03*
%TO.P,J501,4,Pin_4*%
%TO.N,GND*%
X99250000Y-56000000D03*
%TO.P,J501,5,Pin_5*%
%TO.N,/USER_INTERFACE/ENC_2_SW*%
X97250000Y-56000000D03*
%TD*%
D10*
%TO.P,TP508,1,1*%
%TO.N,GND*%
X105750000Y-60500000D03*
%TD*%
D21*
%TO.N,GND*%
X142000000Y-77000000D03*
X137000000Y-78000000D03*
X120285000Y-74035000D03*
X159750000Y-59500000D03*
X150000000Y-73000000D03*
X139000000Y-78000000D03*
D22*
X165500000Y-66250000D03*
D21*
X141000000Y-78000000D03*
D22*
X165500000Y-64750000D03*
D21*
X140000000Y-77000000D03*
D22*
X100200000Y-70800000D03*
D21*
X113750000Y-55250000D03*
X119270000Y-75270000D03*
X151000000Y-72000000D03*
D22*
X165500000Y-65500000D03*
D21*
X140000000Y-78000000D03*
X128250000Y-77724000D03*
D23*
X112014000Y-64008000D03*
D21*
X114750000Y-55250000D03*
D23*
X112014000Y-74676000D03*
D21*
X143000000Y-78000000D03*
X142000000Y-78000000D03*
X154000000Y-65500000D03*
X150000000Y-70000000D03*
D23*
X111252000Y-67564000D03*
D21*
X155500000Y-64655000D03*
X151000000Y-73000000D03*
X134750000Y-56500000D03*
D22*
X97412500Y-69837500D03*
D21*
X150000000Y-72000000D03*
D22*
X108611500Y-55472500D03*
D21*
X115750000Y-55250000D03*
D22*
X140500000Y-71750000D03*
D21*
X138000000Y-78000000D03*
X143500000Y-54500000D03*
X142250000Y-62675000D03*
X151000000Y-70000000D03*
X105000000Y-71500000D03*
X135990000Y-57510000D03*
X133510000Y-57510000D03*
D22*
X140500000Y-72500000D03*
D21*
X150000000Y-71000000D03*
X151000000Y-71000000D03*
X139000000Y-77000000D03*
X141000000Y-77000000D03*
%TD*%
%TA.AperFunction,Conductor*%
%TO.N,GND*%
G36*
X167500000Y-61156988D02*
G01*
X167442993Y-61124075D01*
X167315826Y-61090000D01*
X167184174Y-61090000D01*
X167057007Y-61124075D01*
X167000000Y-61156988D01*
X167000000Y-59483012D01*
X167057007Y-59515925D01*
X167184174Y-59550000D01*
X167315826Y-59550000D01*
X167442993Y-59515925D01*
X167500000Y-59483012D01*
X167500000Y-61156988D01*
G37*
%TD.AperFunction*%
%TA.AperFunction,Conductor*%
G36*
X177505394Y-52400971D02*
G01*
X177680116Y-52416258D01*
X177701401Y-52420011D01*
X177759499Y-52435578D01*
X177865577Y-52464001D01*
X177885878Y-52471390D01*
X178039920Y-52543221D01*
X178058636Y-52554027D01*
X178197858Y-52651511D01*
X178214416Y-52665405D01*
X178334594Y-52785583D01*
X178348488Y-52802141D01*
X178445972Y-52941363D01*
X178456779Y-52960081D01*
X178528606Y-53114114D01*
X178535999Y-53134426D01*
X178579988Y-53298598D01*
X178583741Y-53319883D01*
X178599028Y-53494604D01*
X178599500Y-53505412D01*
X178599500Y-78994587D01*
X178599028Y-79005395D01*
X178583741Y-79180116D01*
X178579988Y-79201401D01*
X178535999Y-79365573D01*
X178528606Y-79385885D01*
X178456779Y-79539918D01*
X178445972Y-79558636D01*
X178348488Y-79697858D01*
X178334594Y-79714416D01*
X178214416Y-79834594D01*
X178197858Y-79848488D01*
X178058636Y-79945972D01*
X178039918Y-79956779D01*
X177885885Y-80028606D01*
X177865573Y-80035999D01*
X177701401Y-80079988D01*
X177680116Y-80083741D01*
X177524395Y-80097365D01*
X177505393Y-80099028D01*
X177494588Y-80099500D01*
X95505412Y-80099500D01*
X95494606Y-80099028D01*
X95473433Y-80097175D01*
X95319883Y-80083741D01*
X95298598Y-80079988D01*
X95134426Y-80035999D01*
X95114114Y-80028606D01*
X94960081Y-79956779D01*
X94941363Y-79945972D01*
X94802141Y-79848488D01*
X94785583Y-79834594D01*
X94665405Y-79714416D01*
X94651511Y-79697858D01*
X94554027Y-79558636D01*
X94543220Y-79539918D01*
X94471390Y-79385878D01*
X94464000Y-79365573D01*
X94420011Y-79201401D01*
X94416258Y-79180115D01*
X94400972Y-79005394D01*
X94400500Y-78994587D01*
X94400500Y-75827135D01*
X96399500Y-75827135D01*
X96399500Y-77172870D01*
X96399501Y-77172876D01*
X96405908Y-77232483D01*
X96456202Y-77367328D01*
X96456206Y-77367335D01*
X96542452Y-77482544D01*
X96542455Y-77482547D01*
X96657664Y-77568793D01*
X96657671Y-77568797D01*
X96792517Y-77619091D01*
X96792516Y-77619091D01*
X96799444Y-77619835D01*
X96852127Y-77625500D01*
X97647872Y-77625499D01*
X97707483Y-77619091D01*
X97842331Y-77568796D01*
X97957546Y-77482546D01*
X98043796Y-77367331D01*
X98060778Y-77321800D01*
X98102648Y-77265866D01*
X98168112Y-77241448D01*
X98236385Y-77256299D01*
X98285791Y-77305703D01*
X98287444Y-77308836D01*
X98309194Y-77351521D01*
X98410967Y-77491602D01*
X98533397Y-77614032D01*
X98673475Y-77715804D01*
X98827744Y-77794408D01*
X98992415Y-77847914D01*
X98992414Y-77847914D01*
X98999999Y-77849115D01*
X99000000Y-77849114D01*
X99000000Y-76780330D01*
X99019745Y-76800075D01*
X99105255Y-76849444D01*
X99200630Y-76875000D01*
X99299370Y-76875000D01*
X99394745Y-76849444D01*
X99480255Y-76800075D01*
X99500000Y-76780330D01*
X99500000Y-77849115D01*
X99507584Y-77847914D01*
X99672255Y-77794408D01*
X99826524Y-77715804D01*
X99966602Y-77614032D01*
X100089032Y-77491602D01*
X100190804Y-77351524D01*
X100269411Y-77197251D01*
X100271271Y-77192760D01*
X100272475Y-77193258D01*
X100308540Y-77140512D01*
X100372898Y-77113311D01*
X100441745Y-77125222D01*
X100493223Y-77172464D01*
X100496254Y-77177798D01*
X100589373Y-77317162D01*
X100707837Y-77435626D01*
X100778055Y-77482544D01*
X100847137Y-77528703D01*
X101001918Y-77592816D01*
X101166223Y-77625498D01*
X101166228Y-77625499D01*
X101166232Y-77625500D01*
X101166233Y-77625500D01*
X101333768Y-77625500D01*
X101333769Y-77625499D01*
X101498082Y-77592816D01*
X101652863Y-77528703D01*
X101792162Y-77435626D01*
X101910626Y-77317162D01*
X102003703Y-77177863D01*
X102003703Y-77177861D01*
X102007087Y-77172798D01*
X102008099Y-77173474D01*
X102052557Y-77128209D01*
X102120693Y-77112743D01*
X102186375Y-77136570D01*
X102228748Y-77192124D01*
X102230406Y-77196810D01*
X102230588Y-77197251D01*
X102309195Y-77351524D01*
X102410967Y-77491602D01*
X102533397Y-77614032D01*
X102673475Y-77715804D01*
X102827744Y-77794408D01*
X102992415Y-77847914D01*
X102992414Y-77847914D01*
X102999999Y-77849115D01*
X103000000Y-77849114D01*
X103000000Y-76780330D01*
X103019745Y-76800075D01*
X103105255Y-76849444D01*
X103200630Y-76875000D01*
X103299370Y-76875000D01*
X103394745Y-76849444D01*
X103480255Y-76800075D01*
X103500000Y-76780330D01*
X103500000Y-77849115D01*
X103507584Y-77847914D01*
X103672255Y-77794408D01*
X103826524Y-77715804D01*
X103966602Y-77614032D01*
X104089032Y-77491602D01*
X104190804Y-77351524D01*
X104269411Y-77197251D01*
X104271271Y-77192760D01*
X104272475Y-77193258D01*
X104308540Y-77140512D01*
X104372898Y-77113311D01*
X104441745Y-77125222D01*
X104493223Y-77172464D01*
X104496254Y-77177798D01*
X104589373Y-77317162D01*
X104707837Y-77435626D01*
X104778055Y-77482544D01*
X104847137Y-77528703D01*
X105001918Y-77592816D01*
X105166223Y-77625498D01*
X105166228Y-77625499D01*
X105166232Y-77625500D01*
X105166233Y-77625500D01*
X105333768Y-77625500D01*
X105333769Y-77625499D01*
X105498082Y-77592816D01*
X105652863Y-77528703D01*
X105792162Y-77435626D01*
X105910626Y-77317162D01*
X106003703Y-77177863D01*
X106067816Y-77023082D01*
X106100500Y-76858767D01*
X106100500Y-76624038D01*
X165649500Y-76624038D01*
X165649500Y-76875961D01*
X165688910Y-77124785D01*
X165766760Y-77364383D01*
X165881132Y-77588848D01*
X166029201Y-77792649D01*
X166029205Y-77792654D01*
X166207345Y-77970794D01*
X166207350Y-77970798D01*
X166385117Y-78099952D01*
X166411155Y-78118870D01*
X166554184Y-78191747D01*
X166635616Y-78233239D01*
X166635618Y-78233239D01*
X166635621Y-78233241D01*
X166875215Y-78311090D01*
X167124038Y-78350500D01*
X167124039Y-78350500D01*
X167375961Y-78350500D01*
X167375962Y-78350500D01*
X167624785Y-78311090D01*
X167864379Y-78233241D01*
X168088845Y-78118870D01*
X168292656Y-77970793D01*
X168470793Y-77792656D01*
X168618870Y-77588845D01*
X168733241Y-77364379D01*
X168811090Y-77124785D01*
X168850500Y-76875962D01*
X168850500Y-76624038D01*
X168811090Y-76375215D01*
X168733241Y-76135621D01*
X168733239Y-76135618D01*
X168733239Y-76135616D01*
X168652381Y-75976925D01*
X168618870Y-75911155D01*
X168554195Y-75822137D01*
X168470798Y-75707350D01*
X168470794Y-75707345D01*
X168292654Y-75529205D01*
X168292649Y-75529201D01*
X168088848Y-75381132D01*
X168088847Y-75381131D01*
X168088845Y-75381130D01*
X168018747Y-75345413D01*
X167864383Y-75266760D01*
X167624785Y-75188910D01*
X167375962Y-75149500D01*
X167124038Y-75149500D01*
X166999626Y-75169205D01*
X166875214Y-75188910D01*
X166635616Y-75266760D01*
X166411151Y-75381132D01*
X166207350Y-75529201D01*
X166207345Y-75529205D01*
X166029205Y-75707345D01*
X166029201Y-75707350D01*
X165881132Y-75911151D01*
X165766760Y-76135616D01*
X165688910Y-76375214D01*
X165649500Y-76624038D01*
X106100500Y-76624038D01*
X106100500Y-76141233D01*
X106067816Y-75976918D01*
X106005773Y-75827135D01*
X106003704Y-75822139D01*
X105992082Y-75804746D01*
X105946291Y-75736214D01*
X105942317Y-75730266D01*
X140173285Y-75730266D01*
X140332056Y-75785824D01*
X140499996Y-75804746D01*
X140500004Y-75804746D01*
X140667943Y-75785824D01*
X140826713Y-75730267D01*
X140826714Y-75730266D01*
X140500001Y-75403553D01*
X140500000Y-75403553D01*
X140173285Y-75730266D01*
X105942317Y-75730266D01*
X105910626Y-75682837D01*
X105792162Y-75564373D01*
X105652860Y-75471295D01*
X105498082Y-75407184D01*
X105498074Y-75407182D01*
X105333771Y-75374500D01*
X105333767Y-75374500D01*
X105166233Y-75374500D01*
X105166228Y-75374500D01*
X105001925Y-75407182D01*
X105001917Y-75407184D01*
X104847139Y-75471295D01*
X104707837Y-75564373D01*
X104589373Y-75682837D01*
X104492913Y-75827202D01*
X104491904Y-75826528D01*
X104447417Y-75871804D01*
X104379277Y-75887254D01*
X104313601Y-75863412D01*
X104271241Y-75807848D01*
X104269588Y-75803177D01*
X104269411Y-75802748D01*
X104190804Y-75648475D01*
X104089032Y-75508397D01*
X103966602Y-75385967D01*
X103826524Y-75284195D01*
X103672257Y-75205591D01*
X103507589Y-75152087D01*
X103507581Y-75152085D01*
X103500000Y-75150884D01*
X103500000Y-76219670D01*
X103480255Y-76199925D01*
X103394745Y-76150556D01*
X103299370Y-76125000D01*
X103200630Y-76125000D01*
X103105255Y-76150556D01*
X103019745Y-76199925D01*
X103000000Y-76219670D01*
X103000000Y-75150884D01*
X102999999Y-75150884D01*
X102992418Y-75152085D01*
X102992410Y-75152087D01*
X102827742Y-75205591D01*
X102673475Y-75284195D01*
X102533397Y-75385967D01*
X102410967Y-75508397D01*
X102309195Y-75648475D01*
X102230588Y-75802748D01*
X102228729Y-75807240D01*
X102227531Y-75806743D01*
X102191428Y-75859513D01*
X102127061Y-75886693D01*
X102058218Y-75874759D01*
X102006756Y-75827501D01*
X102003742Y-75822196D01*
X101992082Y-75804746D01*
X101942317Y-75730266D01*
X101910626Y-75682837D01*
X101792162Y-75564373D01*
X101652860Y-75471295D01*
X101498082Y-75407184D01*
X101498074Y-75407182D01*
X101333771Y-75374500D01*
X101333767Y-75374500D01*
X101166233Y-75374500D01*
X101166228Y-75374500D01*
X101001925Y-75407182D01*
X101001917Y-75407184D01*
X100847139Y-75471295D01*
X100707837Y-75564373D01*
X100589373Y-75682837D01*
X100492913Y-75827202D01*
X100491904Y-75826528D01*
X100447417Y-75871804D01*
X100379277Y-75887254D01*
X100313601Y-75863412D01*
X100271241Y-75807848D01*
X100269588Y-75803177D01*
X100269411Y-75802748D01*
X100190804Y-75648475D01*
X100089032Y-75508397D01*
X99966602Y-75385967D01*
X99826524Y-75284195D01*
X99672257Y-75205591D01*
X99507589Y-75152087D01*
X99507581Y-75152085D01*
X99500000Y-75150884D01*
X99500000Y-76219670D01*
X99480255Y-76199925D01*
X99394745Y-76150556D01*
X99299370Y-76125000D01*
X99200630Y-76125000D01*
X99105255Y-76150556D01*
X99019745Y-76199925D01*
X99000000Y-76219670D01*
X99000000Y-75150884D01*
X98999999Y-75150884D01*
X98992418Y-75152085D01*
X98992410Y-75152087D01*
X98827742Y-75205591D01*
X98673475Y-75284195D01*
X98533397Y-75385967D01*
X98410967Y-75508397D01*
X98309195Y-75648475D01*
X98287444Y-75691164D01*
X98239469Y-75741959D01*
X98171647Y-75758753D01*
X98105513Y-75736214D01*
X98062062Y-75681499D01*
X98060778Y-75678199D01*
X98043798Y-75632673D01*
X98043793Y-75632664D01*
X97957547Y-75517455D01*
X97957544Y-75517452D01*
X97842335Y-75431206D01*
X97842328Y-75431202D01*
X97707482Y-75380908D01*
X97707483Y-75380908D01*
X97647883Y-75374501D01*
X97647881Y-75374500D01*
X97647873Y-75374500D01*
X97647864Y-75374500D01*
X96852129Y-75374500D01*
X96852123Y-75374501D01*
X96792516Y-75380908D01*
X96657671Y-75431202D01*
X96657664Y-75431206D01*
X96542455Y-75517452D01*
X96542452Y-75517455D01*
X96456206Y-75632664D01*
X96456202Y-75632671D01*
X96405908Y-75767517D01*
X96399501Y-75827116D01*
X96399500Y-75827135D01*
X94400500Y-75827135D01*
X94400500Y-75049996D01*
X139745254Y-75049996D01*
X139745254Y-75050003D01*
X139764175Y-75217938D01*
X139764176Y-75217943D01*
X139819732Y-75376714D01*
X140146447Y-75050000D01*
X140126556Y-75030109D01*
X140400000Y-75030109D01*
X140400000Y-75069891D01*
X140415224Y-75106645D01*
X140443355Y-75134776D01*
X140480109Y-75150000D01*
X140519891Y-75150000D01*
X140556645Y-75134776D01*
X140584776Y-75106645D01*
X140600000Y-75069891D01*
X140600000Y-75049999D01*
X140853553Y-75049999D01*
X140853553Y-75050001D01*
X141180266Y-75376714D01*
X141180267Y-75376713D01*
X141235824Y-75217943D01*
X141254746Y-75050003D01*
X141254746Y-75049996D01*
X141235824Y-74882056D01*
X141180266Y-74723285D01*
X140853553Y-75049999D01*
X140600000Y-75049999D01*
X140600000Y-75030109D01*
X140584776Y-74993355D01*
X140556645Y-74965224D01*
X140519891Y-74950000D01*
X140480109Y-74950000D01*
X140443355Y-74965224D01*
X140415224Y-74993355D01*
X140400000Y-75030109D01*
X140126556Y-75030109D01*
X139819732Y-74723285D01*
X139764176Y-74882053D01*
X139764175Y-74882058D01*
X139745254Y-75049996D01*
X94400500Y-75049996D01*
X94400500Y-74500000D01*
X140303553Y-74500000D01*
X140500000Y-74696447D01*
X140696447Y-74500000D01*
X140500000Y-74303553D01*
X140303553Y-74500000D01*
X94400500Y-74500000D01*
X94400500Y-73949996D01*
X139745254Y-73949996D01*
X139745254Y-73950003D01*
X139764175Y-74117938D01*
X139764176Y-74117943D01*
X139819732Y-74276714D01*
X140146447Y-73950000D01*
X140126556Y-73930109D01*
X140400000Y-73930109D01*
X140400000Y-73969891D01*
X140415224Y-74006645D01*
X140443355Y-74034776D01*
X140480109Y-74050000D01*
X140519891Y-74050000D01*
X140556645Y-74034776D01*
X140584776Y-74006645D01*
X140600000Y-73969891D01*
X140600000Y-73949999D01*
X140853553Y-73949999D01*
X140853553Y-73950001D01*
X141180266Y-74276714D01*
X141180267Y-74276713D01*
X141235824Y-74117943D01*
X141254746Y-73950003D01*
X141254746Y-73949996D01*
X141235824Y-73782056D01*
X141180266Y-73623285D01*
X140853553Y-73949999D01*
X140600000Y-73949999D01*
X140600000Y-73930109D01*
X140584776Y-73893355D01*
X140556645Y-73865224D01*
X140519891Y-73850000D01*
X140480109Y-73850000D01*
X140443355Y-73865224D01*
X140415224Y-73893355D01*
X140400000Y-73930109D01*
X140126556Y-73930109D01*
X139819732Y-73623285D01*
X139764176Y-73782053D01*
X139764175Y-73782058D01*
X139745254Y-73949996D01*
X94400500Y-73949996D01*
X94400500Y-73269732D01*
X140173285Y-73269732D01*
X140500000Y-73596447D01*
X140500001Y-73596447D01*
X140826714Y-73269732D01*
X140667943Y-73214176D01*
X140667938Y-73214175D01*
X140500004Y-73195254D01*
X140499996Y-73195254D01*
X140332058Y-73214175D01*
X140332053Y-73214176D01*
X140173285Y-73269732D01*
X94400500Y-73269732D01*
X94400500Y-71749999D01*
X166144785Y-71749999D01*
X166144785Y-71750000D01*
X166163602Y-71953082D01*
X166219417Y-72149247D01*
X166219422Y-72149260D01*
X166310327Y-72331821D01*
X166433237Y-72494581D01*
X166583958Y-72631980D01*
X166583960Y-72631982D01*
X166683141Y-72693392D01*
X166757363Y-72739348D01*
X166947544Y-72813024D01*
X167148024Y-72850500D01*
X167148026Y-72850500D01*
X167351974Y-72850500D01*
X167351976Y-72850500D01*
X167552456Y-72813024D01*
X167742637Y-72739348D01*
X167916041Y-72631981D01*
X168066764Y-72494579D01*
X168189673Y-72331821D01*
X168280582Y-72149250D01*
X168336397Y-71953083D01*
X168355215Y-71750000D01*
X168336397Y-71546917D01*
X168280582Y-71350750D01*
X168189673Y-71168179D01*
X168066764Y-71005421D01*
X168066762Y-71005418D01*
X167916041Y-70868019D01*
X167916039Y-70868017D01*
X167742642Y-70760655D01*
X167742635Y-70760651D01*
X167647546Y-70723814D01*
X167552456Y-70686976D01*
X167351976Y-70649500D01*
X167148024Y-70649500D01*
X166947544Y-70686976D01*
X166947541Y-70686976D01*
X166947541Y-70686977D01*
X166757364Y-70760651D01*
X166757357Y-70760655D01*
X166583960Y-70868017D01*
X166583958Y-70868019D01*
X166433237Y-71005418D01*
X166310327Y-71168178D01*
X166219422Y-71350739D01*
X166219417Y-71350752D01*
X166163602Y-71546917D01*
X166144785Y-71749999D01*
X94400500Y-71749999D01*
X94400500Y-69209999D01*
X166144785Y-69209999D01*
X166144785Y-69210000D01*
X166163602Y-69413082D01*
X166219417Y-69609247D01*
X166219422Y-69609260D01*
X166310327Y-69791821D01*
X166433237Y-69954581D01*
X166583958Y-70091980D01*
X166583960Y-70091982D01*
X166683141Y-70153392D01*
X166757363Y-70199348D01*
X166947544Y-70273024D01*
X167148024Y-70310500D01*
X167148026Y-70310500D01*
X167351974Y-70310500D01*
X167351976Y-70310500D01*
X167552456Y-70273024D01*
X167742637Y-70199348D01*
X167916041Y-70091981D01*
X168066764Y-69954579D01*
X168189673Y-69791821D01*
X168280582Y-69609250D01*
X168336397Y-69413083D01*
X168355215Y-69210000D01*
X168336397Y-69006917D01*
X168280582Y-68810750D01*
X168189673Y-68628179D01*
X168066764Y-68465421D01*
X168066762Y-68465418D01*
X167916041Y-68328019D01*
X167916039Y-68328017D01*
X167742642Y-68220655D01*
X167742635Y-68220651D01*
X167647546Y-68183814D01*
X167552456Y-68146976D01*
X167351976Y-68109500D01*
X167148024Y-68109500D01*
X166947544Y-68146976D01*
X166947541Y-68146976D01*
X166947541Y-68146977D01*
X166757364Y-68220651D01*
X166757357Y-68220655D01*
X166583960Y-68328017D01*
X166583958Y-68328019D01*
X166433237Y-68465418D01*
X166310327Y-68628178D01*
X166219422Y-68810739D01*
X166219417Y-68810752D01*
X166163602Y-69006917D01*
X166144785Y-69209999D01*
X94400500Y-69209999D01*
X94400500Y-66124038D01*
X96149500Y-66124038D01*
X96149500Y-66375962D01*
X96185547Y-66603553D01*
X96188910Y-66624785D01*
X96266760Y-66864383D01*
X96318874Y-66966661D01*
X96371144Y-67069247D01*
X96381132Y-67088848D01*
X96529201Y-67292649D01*
X96529205Y-67292654D01*
X96707345Y-67470794D01*
X96707350Y-67470798D01*
X96819090Y-67551981D01*
X96911155Y-67618870D01*
X96990598Y-67659348D01*
X97135616Y-67733239D01*
X97135618Y-67733239D01*
X97135621Y-67733241D01*
X97375215Y-67811090D01*
X97624038Y-67850500D01*
X97624039Y-67850500D01*
X97875961Y-67850500D01*
X97875962Y-67850500D01*
X98124785Y-67811090D01*
X98364379Y-67733241D01*
X98588845Y-67618870D01*
X98792656Y-67470793D01*
X98970793Y-67292656D01*
X99118870Y-67088845D01*
X99233241Y-66864379D01*
X99237219Y-66852135D01*
X102624500Y-66852135D01*
X102624500Y-67647870D01*
X102624501Y-67647876D01*
X102630908Y-67707483D01*
X102681202Y-67842328D01*
X102681206Y-67842335D01*
X102767452Y-67957544D01*
X102767455Y-67957547D01*
X102882664Y-68043793D01*
X102882671Y-68043797D01*
X103017517Y-68094091D01*
X103017516Y-68094091D01*
X103024444Y-68094835D01*
X103077127Y-68100500D01*
X104422872Y-68100499D01*
X104482483Y-68094091D01*
X104617331Y-68043796D01*
X104732546Y-67957546D01*
X104818796Y-67842331D01*
X104869091Y-67707483D01*
X104875500Y-67647873D01*
X104875499Y-66966660D01*
X123436892Y-66966660D01*
X123436892Y-66966661D01*
X123450692Y-66975333D01*
X123450691Y-66975333D01*
X123620861Y-67034878D01*
X123799997Y-67055062D01*
X123800003Y-67055062D01*
X123979138Y-67034878D01*
X123979141Y-67034877D01*
X124149305Y-66975334D01*
X124149306Y-66975334D01*
X124163106Y-66966661D01*
X124163106Y-66966660D01*
X124836892Y-66966660D01*
X124836892Y-66966661D01*
X124850692Y-66975333D01*
X124850691Y-66975333D01*
X125020861Y-67034878D01*
X125199997Y-67055062D01*
X125200003Y-67055062D01*
X125379138Y-67034878D01*
X125379141Y-67034877D01*
X125549305Y-66975334D01*
X125549306Y-66975334D01*
X125563106Y-66966661D01*
X125563106Y-66966660D01*
X125266447Y-66669999D01*
X166144785Y-66669999D01*
X166144785Y-66670000D01*
X166163602Y-66873082D01*
X166219417Y-67069247D01*
X166219422Y-67069260D01*
X166310327Y-67251821D01*
X166433237Y-67414581D01*
X166583958Y-67551980D01*
X166583960Y-67551982D01*
X166683141Y-67613392D01*
X166757363Y-67659348D01*
X166947544Y-67733024D01*
X167148024Y-67770500D01*
X167148026Y-67770500D01*
X167351974Y-67770500D01*
X167351976Y-67770500D01*
X167552456Y-67733024D01*
X167742637Y-67659348D01*
X167916041Y-67551981D01*
X168066764Y-67414579D01*
X168189673Y-67251821D01*
X168280582Y-67069250D01*
X168336397Y-66873083D01*
X168355215Y-66670000D01*
X168343396Y-66542455D01*
X168336397Y-66466917D01*
X168333348Y-66456202D01*
X168280582Y-66270750D01*
X168280154Y-66269891D01*
X168220456Y-66150000D01*
X168189673Y-66088179D01*
X168125880Y-66003703D01*
X168066762Y-65925418D01*
X167916041Y-65788019D01*
X167916039Y-65788017D01*
X167742642Y-65680655D01*
X167742635Y-65680651D01*
X167626385Y-65635616D01*
X167552456Y-65606976D01*
X167351976Y-65569500D01*
X167148024Y-65569500D01*
X166947544Y-65606976D01*
X166947541Y-65606976D01*
X166947541Y-65606977D01*
X166757364Y-65680651D01*
X166757357Y-65680655D01*
X166583960Y-65788017D01*
X166583958Y-65788019D01*
X166433237Y-65925418D01*
X166310327Y-66088178D01*
X166219422Y-66270739D01*
X166219417Y-66270752D01*
X166163602Y-66466917D01*
X166144785Y-66669999D01*
X125266447Y-66669999D01*
X125200001Y-66603553D01*
X125200000Y-66603553D01*
X124836892Y-66966660D01*
X124163106Y-66966660D01*
X123800001Y-66603553D01*
X123800000Y-66603553D01*
X123436892Y-66966660D01*
X104875499Y-66966660D01*
X104875499Y-66852128D01*
X104869091Y-66792517D01*
X104818796Y-66657669D01*
X104818795Y-66657668D01*
X104818793Y-66657664D01*
X104732547Y-66542455D01*
X104732544Y-66542452D01*
X104617335Y-66456206D01*
X104617328Y-66456202D01*
X104482482Y-66405908D01*
X104482483Y-66405908D01*
X104422883Y-66399501D01*
X104422881Y-66399500D01*
X104422873Y-66399500D01*
X104422864Y-66399500D01*
X103077129Y-66399500D01*
X103077123Y-66399501D01*
X103017516Y-66405908D01*
X102882671Y-66456202D01*
X102882664Y-66456206D01*
X102767455Y-66542452D01*
X102767452Y-66542455D01*
X102681206Y-66657664D01*
X102681202Y-66657671D01*
X102630908Y-66792517D01*
X102624501Y-66852116D01*
X102624501Y-66852123D01*
X102624500Y-66852135D01*
X99237219Y-66852135D01*
X99311090Y-66624785D01*
X99350500Y-66375962D01*
X99350500Y-66266660D01*
X122736892Y-66266660D01*
X122736892Y-66266661D01*
X122750692Y-66275333D01*
X122750691Y-66275333D01*
X122920862Y-66334878D01*
X122921644Y-66335057D01*
X122922097Y-66335310D01*
X122927431Y-66337177D01*
X122927104Y-66338111D01*
X122982623Y-66369166D01*
X123011952Y-66422874D01*
X123012822Y-66422570D01*
X123014670Y-66427852D01*
X123014940Y-66428346D01*
X123015121Y-66429142D01*
X123074663Y-66599300D01*
X123074663Y-66599301D01*
X123083338Y-66613107D01*
X123446446Y-66250000D01*
X123426555Y-66230109D01*
X123700000Y-66230109D01*
X123700000Y-66269891D01*
X123715224Y-66306645D01*
X123743355Y-66334776D01*
X123780109Y-66350000D01*
X123819891Y-66350000D01*
X123856645Y-66334776D01*
X123884776Y-66306645D01*
X123900000Y-66269891D01*
X123900000Y-66249999D01*
X124153553Y-66249999D01*
X124153553Y-66250000D01*
X124500000Y-66596446D01*
X124500001Y-66596446D01*
X124846446Y-66250000D01*
X124826555Y-66230109D01*
X125100000Y-66230109D01*
X125100000Y-66269891D01*
X125115224Y-66306645D01*
X125143355Y-66334776D01*
X125180109Y-66350000D01*
X125219891Y-66350000D01*
X125256645Y-66334776D01*
X125284776Y-66306645D01*
X125300000Y-66269891D01*
X125300000Y-66249999D01*
X125553553Y-66249999D01*
X125553553Y-66250000D01*
X125916660Y-66613106D01*
X125916661Y-66613106D01*
X125925334Y-66599306D01*
X125925334Y-66599305D01*
X125984876Y-66429144D01*
X125985056Y-66428358D01*
X125985311Y-66427901D01*
X125987177Y-66422570D01*
X125988110Y-66422896D01*
X126019164Y-66367379D01*
X126072875Y-66338049D01*
X126072570Y-66337177D01*
X126077870Y-66335322D01*
X126078358Y-66335056D01*
X126079144Y-66334876D01*
X126249305Y-66275334D01*
X126249306Y-66275334D01*
X126263106Y-66266661D01*
X126263106Y-66266660D01*
X125900000Y-65903553D01*
X125834240Y-65969314D01*
X125834239Y-65969314D01*
X125553553Y-66249999D01*
X125300000Y-66249999D01*
X125300000Y-66230109D01*
X125284776Y-66193355D01*
X125256645Y-66165224D01*
X125219891Y-66150000D01*
X125180109Y-66150000D01*
X125143355Y-66165224D01*
X125115224Y-66193355D01*
X125100000Y-66230109D01*
X124826555Y-66230109D01*
X124565760Y-65969314D01*
X124500000Y-65903553D01*
X124434240Y-65969314D01*
X124434239Y-65969314D01*
X124153553Y-66249999D01*
X123900000Y-66249999D01*
X123900000Y-66230109D01*
X123884776Y-66193355D01*
X123856645Y-66165224D01*
X123819891Y-66150000D01*
X123780109Y-66150000D01*
X123743355Y-66165224D01*
X123715224Y-66193355D01*
X123700000Y-66230109D01*
X123426555Y-66230109D01*
X123099999Y-65903553D01*
X123099998Y-65903553D01*
X122736892Y-66266660D01*
X99350500Y-66266660D01*
X99350500Y-66124038D01*
X99311090Y-65875215D01*
X99233241Y-65635621D01*
X99233239Y-65635618D01*
X99233239Y-65635616D01*
X99138662Y-65450000D01*
X99118870Y-65411155D01*
X99089593Y-65370858D01*
X98970798Y-65207350D01*
X98970794Y-65207345D01*
X98929677Y-65166228D01*
X102624500Y-65166228D01*
X102624500Y-65333771D01*
X102657182Y-65498074D01*
X102657184Y-65498082D01*
X102721295Y-65652860D01*
X102814373Y-65792162D01*
X102932837Y-65910626D01*
X103020670Y-65969314D01*
X103072137Y-66003703D01*
X103226918Y-66067816D01*
X103329286Y-66088178D01*
X103391228Y-66100499D01*
X103391232Y-66100500D01*
X103391233Y-66100500D01*
X104108768Y-66100500D01*
X104108769Y-66100499D01*
X104273082Y-66067816D01*
X104427863Y-66003703D01*
X104567162Y-65910626D01*
X104685626Y-65792162D01*
X104778703Y-65652863D01*
X104821312Y-65549997D01*
X122294938Y-65549997D01*
X122294938Y-65550002D01*
X122315121Y-65729138D01*
X122374665Y-65899304D01*
X122383338Y-65913107D01*
X122746446Y-65550000D01*
X122746446Y-65549999D01*
X122726556Y-65530109D01*
X123000000Y-65530109D01*
X123000000Y-65569891D01*
X123015224Y-65606645D01*
X123043355Y-65634776D01*
X123080109Y-65650000D01*
X123119891Y-65650000D01*
X123156645Y-65634776D01*
X123184776Y-65606645D01*
X123200000Y-65569891D01*
X123200000Y-65550000D01*
X123453553Y-65550000D01*
X123510530Y-65606976D01*
X123800000Y-65896446D01*
X124146446Y-65550000D01*
X124126555Y-65530109D01*
X124400000Y-65530109D01*
X124400000Y-65569891D01*
X124415224Y-65606645D01*
X124443355Y-65634776D01*
X124480109Y-65650000D01*
X124519891Y-65650000D01*
X124556645Y-65634776D01*
X124584776Y-65606645D01*
X124600000Y-65569891D01*
X124600000Y-65550000D01*
X124853553Y-65550000D01*
X124910530Y-65606976D01*
X125200000Y-65896446D01*
X125546446Y-65550000D01*
X125526555Y-65530109D01*
X125800000Y-65530109D01*
X125800000Y-65569891D01*
X125815224Y-65606645D01*
X125843355Y-65634776D01*
X125880109Y-65650000D01*
X125919891Y-65650000D01*
X125956645Y-65634776D01*
X125984776Y-65606645D01*
X126000000Y-65569891D01*
X126000000Y-65550000D01*
X126253552Y-65550000D01*
X126616660Y-65913106D01*
X126616661Y-65913106D01*
X126625334Y-65899306D01*
X126625334Y-65899305D01*
X126684877Y-65729141D01*
X126684878Y-65729138D01*
X126705062Y-65550002D01*
X126705062Y-65549997D01*
X126684878Y-65370861D01*
X126625333Y-65200692D01*
X126616661Y-65186892D01*
X126616660Y-65186892D01*
X126253552Y-65550000D01*
X126000000Y-65550000D01*
X126000000Y-65530109D01*
X125984776Y-65493355D01*
X125956645Y-65465224D01*
X125919891Y-65450000D01*
X125880109Y-65450000D01*
X125843355Y-65465224D01*
X125815224Y-65493355D01*
X125800000Y-65530109D01*
X125526555Y-65530109D01*
X125265760Y-65269314D01*
X125200000Y-65203553D01*
X125134240Y-65269314D01*
X125134239Y-65269314D01*
X124853553Y-65550000D01*
X124600000Y-65550000D01*
X124600000Y-65530109D01*
X124584776Y-65493355D01*
X124556645Y-65465224D01*
X124519891Y-65450000D01*
X124480109Y-65450000D01*
X124443355Y-65465224D01*
X124415224Y-65493355D01*
X124400000Y-65530109D01*
X124126555Y-65530109D01*
X123865760Y-65269314D01*
X123800000Y-65203553D01*
X123734240Y-65269314D01*
X123734239Y-65269314D01*
X123453553Y-65550000D01*
X123200000Y-65550000D01*
X123200000Y-65530109D01*
X123184776Y-65493355D01*
X123156645Y-65465224D01*
X123119891Y-65450000D01*
X123080109Y-65450000D01*
X123043355Y-65465224D01*
X123015224Y-65493355D01*
X123000000Y-65530109D01*
X122726556Y-65530109D01*
X122383338Y-65186891D01*
X122383337Y-65186891D01*
X122374667Y-65200691D01*
X122374662Y-65200701D01*
X122315122Y-65370858D01*
X122315121Y-65370861D01*
X122294938Y-65549997D01*
X104821312Y-65549997D01*
X104842816Y-65498082D01*
X104875500Y-65333767D01*
X104875500Y-65166233D01*
X104842816Y-65001918D01*
X104792784Y-64881132D01*
X104779889Y-64849999D01*
X122753553Y-64849999D01*
X122753553Y-64850001D01*
X123099998Y-65196446D01*
X123099999Y-65196446D01*
X123375869Y-64920577D01*
X123446446Y-64850000D01*
X123426555Y-64830109D01*
X123700000Y-64830109D01*
X123700000Y-64869891D01*
X123715224Y-64906645D01*
X123743355Y-64934776D01*
X123780109Y-64950000D01*
X123819891Y-64950000D01*
X123856645Y-64934776D01*
X123884776Y-64906645D01*
X123900000Y-64869891D01*
X123900000Y-64849999D01*
X124153553Y-64849999D01*
X124500000Y-65196446D01*
X124846446Y-64850000D01*
X124826555Y-64830109D01*
X125100000Y-64830109D01*
X125100000Y-64869891D01*
X125115224Y-64906645D01*
X125143355Y-64934776D01*
X125180109Y-64950000D01*
X125219891Y-64950000D01*
X125256645Y-64934776D01*
X125284776Y-64906645D01*
X125300000Y-64869891D01*
X125300000Y-64849999D01*
X125553553Y-64849999D01*
X125900000Y-65196446D01*
X126246446Y-64850000D01*
X126246446Y-64849999D01*
X125900000Y-64503553D01*
X125834240Y-64569314D01*
X125834239Y-64569314D01*
X125553553Y-64849999D01*
X125300000Y-64849999D01*
X125300000Y-64830109D01*
X125284776Y-64793355D01*
X125256645Y-64765224D01*
X125219891Y-64750000D01*
X125180109Y-64750000D01*
X125143355Y-64765224D01*
X125115224Y-64793355D01*
X125100000Y-64830109D01*
X124826555Y-64830109D01*
X124565760Y-64569314D01*
X124500000Y-64503553D01*
X124434240Y-64569314D01*
X124434239Y-64569314D01*
X124153553Y-64849999D01*
X123900000Y-64849999D01*
X123900000Y-64830109D01*
X123884776Y-64793355D01*
X123856645Y-64765224D01*
X123819891Y-64750000D01*
X123780109Y-64750000D01*
X123743355Y-64765224D01*
X123715224Y-64793355D01*
X123700000Y-64830109D01*
X123426555Y-64830109D01*
X123099999Y-64503553D01*
X123099998Y-64503553D01*
X122753553Y-64849999D01*
X104779889Y-64849999D01*
X104778704Y-64847139D01*
X104685626Y-64707837D01*
X104567162Y-64589373D01*
X104427860Y-64496295D01*
X104273082Y-64432184D01*
X104273074Y-64432182D01*
X104108771Y-64399500D01*
X104108767Y-64399500D01*
X103391233Y-64399500D01*
X103391228Y-64399500D01*
X103226925Y-64432182D01*
X103226917Y-64432184D01*
X103072139Y-64496295D01*
X102932837Y-64589373D01*
X102814373Y-64707837D01*
X102721295Y-64847139D01*
X102657184Y-65001917D01*
X102657182Y-65001925D01*
X102624500Y-65166228D01*
X98929677Y-65166228D01*
X98792654Y-65029205D01*
X98792649Y-65029201D01*
X98588848Y-64881132D01*
X98588847Y-64881131D01*
X98588845Y-64881130D01*
X98488711Y-64830109D01*
X98364383Y-64766760D01*
X98124785Y-64688910D01*
X97875962Y-64649500D01*
X97624038Y-64649500D01*
X97499626Y-64669205D01*
X97375214Y-64688910D01*
X97135616Y-64766760D01*
X96911151Y-64881132D01*
X96707350Y-65029201D01*
X96707345Y-65029205D01*
X96529205Y-65207345D01*
X96529201Y-65207350D01*
X96381132Y-65411151D01*
X96266760Y-65635616D01*
X96188910Y-65875214D01*
X96180958Y-65925421D01*
X96149500Y-66124038D01*
X94400500Y-66124038D01*
X94400500Y-64149997D01*
X122294938Y-64149997D01*
X122294938Y-64150002D01*
X122315121Y-64329138D01*
X122374665Y-64499304D01*
X122383338Y-64513107D01*
X122746446Y-64150000D01*
X122746446Y-64149999D01*
X122726556Y-64130109D01*
X123000000Y-64130109D01*
X123000000Y-64169891D01*
X123015224Y-64206645D01*
X123043355Y-64234776D01*
X123080109Y-64250000D01*
X123119891Y-64250000D01*
X123156645Y-64234776D01*
X123184776Y-64206645D01*
X123200000Y-64169891D01*
X123200000Y-64149999D01*
X123453553Y-64149999D01*
X123800000Y-64496446D01*
X124146446Y-64150000D01*
X124126555Y-64130109D01*
X124400000Y-64130109D01*
X124400000Y-64169891D01*
X124415224Y-64206645D01*
X124443355Y-64234776D01*
X124480109Y-64250000D01*
X124519891Y-64250000D01*
X124556645Y-64234776D01*
X124584776Y-64206645D01*
X124600000Y-64169891D01*
X124600000Y-64149999D01*
X124853553Y-64149999D01*
X125200000Y-64496446D01*
X125546446Y-64150000D01*
X125526555Y-64130109D01*
X125800000Y-64130109D01*
X125800000Y-64169891D01*
X125815224Y-64206645D01*
X125843355Y-64234776D01*
X125880109Y-64250000D01*
X125919891Y-64250000D01*
X125956645Y-64234776D01*
X125984776Y-64206645D01*
X126000000Y-64169891D01*
X126000000Y-64150000D01*
X126253552Y-64150000D01*
X126616660Y-64513106D01*
X126616661Y-64513106D01*
X126625334Y-64499306D01*
X126625334Y-64499305D01*
X126684877Y-64329141D01*
X126684878Y-64329138D01*
X126705062Y-64150002D01*
X126705062Y-64149997D01*
X126684878Y-63970861D01*
X126625333Y-63800692D01*
X126616661Y-63786892D01*
X126616660Y-63786892D01*
X126253552Y-64150000D01*
X126000000Y-64150000D01*
X126000000Y-64130109D01*
X125984776Y-64093355D01*
X125956645Y-64065224D01*
X125919891Y-64050000D01*
X125880109Y-64050000D01*
X125843355Y-64065224D01*
X125815224Y-64093355D01*
X125800000Y-64130109D01*
X125526555Y-64130109D01*
X125265760Y-63869314D01*
X125200000Y-63803553D01*
X125134240Y-63869314D01*
X125134239Y-63869314D01*
X124853553Y-64149999D01*
X124600000Y-64149999D01*
X124600000Y-64130109D01*
X124584776Y-64093355D01*
X124556645Y-64065224D01*
X124519891Y-64050000D01*
X124480109Y-64050000D01*
X124443355Y-64065224D01*
X124415224Y-64093355D01*
X124400000Y-64130109D01*
X124126555Y-64130109D01*
X123865760Y-63869314D01*
X123800000Y-63803553D01*
X123734240Y-63869314D01*
X123734239Y-63869314D01*
X123453553Y-64149999D01*
X123200000Y-64149999D01*
X123200000Y-64130109D01*
X123184776Y-64093355D01*
X123156645Y-64065224D01*
X123119891Y-64050000D01*
X123080109Y-64050000D01*
X123043355Y-64065224D01*
X123015224Y-64093355D01*
X123000000Y-64130109D01*
X122726556Y-64130109D01*
X122383338Y-63786891D01*
X122383337Y-63786891D01*
X122374667Y-63800691D01*
X122374662Y-63800701D01*
X122315122Y-63970858D01*
X122315121Y-63970861D01*
X122294938Y-64149997D01*
X94400500Y-64149997D01*
X94400500Y-63433337D01*
X122736891Y-63433337D01*
X122736891Y-63433338D01*
X123099998Y-63796446D01*
X123099999Y-63796446D01*
X123375868Y-63520577D01*
X123446446Y-63449998D01*
X123426557Y-63430109D01*
X123700000Y-63430109D01*
X123700000Y-63469891D01*
X123715224Y-63506645D01*
X123743355Y-63534776D01*
X123780109Y-63550000D01*
X123819891Y-63550000D01*
X123856645Y-63534776D01*
X123884776Y-63506645D01*
X123900000Y-63469891D01*
X123900000Y-63449998D01*
X124153553Y-63449998D01*
X124153553Y-63449999D01*
X124500000Y-63796446D01*
X124775870Y-63520577D01*
X124846446Y-63449999D01*
X124846446Y-63449998D01*
X124826557Y-63430109D01*
X125100000Y-63430109D01*
X125100000Y-63469891D01*
X125115224Y-63506645D01*
X125143355Y-63534776D01*
X125180109Y-63550000D01*
X125219891Y-63550000D01*
X125256645Y-63534776D01*
X125284776Y-63506645D01*
X125300000Y-63469891D01*
X125300000Y-63449998D01*
X125553553Y-63449998D01*
X125553553Y-63449999D01*
X125900000Y-63796446D01*
X125900001Y-63796446D01*
X126263107Y-63433338D01*
X126249301Y-63424663D01*
X126079142Y-63365121D01*
X126078346Y-63364940D01*
X126077883Y-63364681D01*
X126072570Y-63362822D01*
X126072895Y-63361890D01*
X126017370Y-63330827D01*
X125988049Y-63277125D01*
X125987177Y-63277431D01*
X125985321Y-63272128D01*
X125985057Y-63271644D01*
X125984878Y-63270862D01*
X125925333Y-63100692D01*
X125916661Y-63086892D01*
X125916660Y-63086892D01*
X125553553Y-63449998D01*
X125300000Y-63449998D01*
X125300000Y-63430109D01*
X125284776Y-63393355D01*
X125256645Y-63365224D01*
X125219891Y-63350000D01*
X125180109Y-63350000D01*
X125143355Y-63365224D01*
X125115224Y-63393355D01*
X125100000Y-63430109D01*
X124826557Y-63430109D01*
X124500001Y-63103553D01*
X124500000Y-63103553D01*
X124153553Y-63449998D01*
X123900000Y-63449998D01*
X123900000Y-63430109D01*
X123884776Y-63393355D01*
X123856645Y-63365224D01*
X123819891Y-63350000D01*
X123780109Y-63350000D01*
X123743355Y-63365224D01*
X123715224Y-63393355D01*
X123700000Y-63430109D01*
X123426557Y-63430109D01*
X123083338Y-63086891D01*
X123083337Y-63086891D01*
X123074667Y-63100691D01*
X123074662Y-63100701D01*
X123015119Y-63270866D01*
X123014939Y-63271656D01*
X123014682Y-63272113D01*
X123012823Y-63277429D01*
X123011891Y-63277103D01*
X122980824Y-63332631D01*
X122927124Y-63361952D01*
X122927429Y-63362823D01*
X122922145Y-63364671D01*
X122921656Y-63364939D01*
X122920866Y-63365119D01*
X122750701Y-63424662D01*
X122750691Y-63424667D01*
X122736891Y-63433337D01*
X94400500Y-63433337D01*
X94400500Y-62733337D01*
X123436891Y-62733337D01*
X123436891Y-62733338D01*
X123800000Y-63096446D01*
X123800001Y-63096446D01*
X124163107Y-62733338D01*
X124163105Y-62733337D01*
X124836891Y-62733337D01*
X124836891Y-62733338D01*
X125200000Y-63096446D01*
X125200001Y-63096446D01*
X125563107Y-62733338D01*
X125549304Y-62724665D01*
X125379138Y-62665121D01*
X125200003Y-62644938D01*
X125199997Y-62644938D01*
X125020861Y-62665121D01*
X125020858Y-62665122D01*
X124850701Y-62724662D01*
X124850691Y-62724667D01*
X124836891Y-62733337D01*
X124163105Y-62733337D01*
X124149304Y-62724665D01*
X123979138Y-62665121D01*
X123800003Y-62644938D01*
X123799997Y-62644938D01*
X123620861Y-62665121D01*
X123620858Y-62665122D01*
X123450701Y-62724662D01*
X123450691Y-62724667D01*
X123436891Y-62733337D01*
X94400500Y-62733337D01*
X94400500Y-60499994D01*
X104244859Y-60499994D01*
X104244859Y-60500000D01*
X104265385Y-60747729D01*
X104265387Y-60747738D01*
X104326412Y-60988717D01*
X104426266Y-61216364D01*
X104526564Y-61369882D01*
X105267037Y-60629409D01*
X105284075Y-60692993D01*
X105349901Y-60807007D01*
X105442993Y-60900099D01*
X105557007Y-60965925D01*
X105620590Y-60982962D01*
X104879942Y-61723609D01*
X104926768Y-61760055D01*
X104926770Y-61760056D01*
X105145385Y-61878364D01*
X105145396Y-61878369D01*
X105380506Y-61959083D01*
X105625707Y-62000000D01*
X105874293Y-62000000D01*
X106119493Y-61959083D01*
X106354603Y-61878369D01*
X106354614Y-61878364D01*
X106573228Y-61760057D01*
X106573231Y-61760055D01*
X106620056Y-61723609D01*
X105879409Y-60982962D01*
X105942993Y-60965925D01*
X106057007Y-60900099D01*
X106150099Y-60807007D01*
X106215925Y-60692993D01*
X106232962Y-60629410D01*
X106973434Y-61369882D01*
X107073731Y-61216369D01*
X107173587Y-60988717D01*
X107234612Y-60747738D01*
X107234614Y-60747729D01*
X107255141Y-60500000D01*
X107255141Y-60499994D01*
X107234614Y-60252270D01*
X107234612Y-60252261D01*
X107173587Y-60011282D01*
X107073731Y-59783630D01*
X106977821Y-59636831D01*
X137022050Y-59636831D01*
X137022050Y-59863168D01*
X137057458Y-60086722D01*
X137057458Y-60086725D01*
X137127398Y-60301978D01*
X137127400Y-60301981D01*
X137230155Y-60503650D01*
X137363193Y-60686761D01*
X137523239Y-60846807D01*
X137706350Y-60979845D01*
X137908019Y-61082600D01*
X137908021Y-61082601D01*
X138108801Y-61147837D01*
X138123279Y-61152542D01*
X138346831Y-61187950D01*
X138346832Y-61187950D01*
X138573168Y-61187950D01*
X138573169Y-61187950D01*
X138796721Y-61152542D01*
X138796724Y-61152541D01*
X138796725Y-61152541D01*
X139011978Y-61082601D01*
X139011978Y-61082600D01*
X139011981Y-61082600D01*
X139213650Y-60979845D01*
X139396761Y-60846807D01*
X139556807Y-60686761D01*
X139689845Y-60503650D01*
X139792600Y-60301981D01*
X139794056Y-60297499D01*
X139862541Y-60086725D01*
X139862541Y-60086724D01*
X139862542Y-60086721D01*
X139897950Y-59863169D01*
X139897950Y-59676540D01*
X140254200Y-59676540D01*
X140254200Y-59823459D01*
X140282858Y-59967534D01*
X140282861Y-59967544D01*
X140339078Y-60103266D01*
X140339083Y-60103275D01*
X140420698Y-60225419D01*
X140420701Y-60225423D01*
X140524576Y-60329298D01*
X140524580Y-60329301D01*
X140646724Y-60410916D01*
X140646730Y-60410919D01*
X140646731Y-60410920D01*
X140782458Y-60467140D01*
X140926540Y-60495799D01*
X140926544Y-60495800D01*
X140926545Y-60495800D01*
X141073456Y-60495800D01*
X141073457Y-60495799D01*
X141217542Y-60467140D01*
X141353269Y-60410920D01*
X141475420Y-60329301D01*
X141579301Y-60225420D01*
X141660920Y-60103269D01*
X141717140Y-59967542D01*
X141745800Y-59823455D01*
X141745800Y-59676545D01*
X141737901Y-59636831D01*
X142102050Y-59636831D01*
X142102050Y-59863168D01*
X142137458Y-60086722D01*
X142137458Y-60086725D01*
X142207398Y-60301978D01*
X142207400Y-60301981D01*
X142310155Y-60503650D01*
X142443193Y-60686761D01*
X142603239Y-60846807D01*
X142786350Y-60979845D01*
X142988019Y-61082600D01*
X142988021Y-61082601D01*
X143188801Y-61147837D01*
X143203279Y-61152542D01*
X143426831Y-61187950D01*
X143426832Y-61187950D01*
X143653168Y-61187950D01*
X143653169Y-61187950D01*
X143876721Y-61152542D01*
X143876724Y-61152541D01*
X143876725Y-61152541D01*
X144091978Y-61082601D01*
X144091978Y-61082600D01*
X144091981Y-61082600D01*
X144293650Y-60979845D01*
X144476761Y-60846807D01*
X144636807Y-60686761D01*
X144769845Y-60503650D01*
X144872600Y-60301981D01*
X144874056Y-60297499D01*
X144942541Y-60086725D01*
X144942541Y-60086724D01*
X144942542Y-60086721D01*
X144977950Y-59863169D01*
X144977950Y-59636831D01*
X144942542Y-59413279D01*
X144942541Y-59413275D01*
X144942541Y-59413274D01*
X144872601Y-59198021D01*
X144872599Y-59198018D01*
X144858681Y-59170701D01*
X144771702Y-58999994D01*
X161994859Y-58999994D01*
X161994859Y-59000000D01*
X162015385Y-59247729D01*
X162015387Y-59247738D01*
X162076412Y-59488717D01*
X162176266Y-59716364D01*
X162276564Y-59869882D01*
X163017037Y-59129409D01*
X163034075Y-59192993D01*
X163099901Y-59307007D01*
X163192993Y-59400099D01*
X163307007Y-59465925D01*
X163370590Y-59482962D01*
X162629942Y-60223609D01*
X162676768Y-60260055D01*
X162676770Y-60260056D01*
X162895385Y-60378364D01*
X162895396Y-60378369D01*
X163130506Y-60459083D01*
X163375707Y-60500000D01*
X163624293Y-60500000D01*
X163869493Y-60459083D01*
X164104603Y-60378369D01*
X164104614Y-60378364D01*
X164323228Y-60260057D01*
X164323231Y-60260055D01*
X164370056Y-60223609D01*
X163629409Y-59482962D01*
X163692993Y-59465925D01*
X163807007Y-59400099D01*
X163900099Y-59307007D01*
X163965925Y-59192993D01*
X163982962Y-59129410D01*
X164723434Y-59869882D01*
X164823731Y-59716369D01*
X164923587Y-59488717D01*
X164984612Y-59247738D01*
X164984614Y-59247729D01*
X165005141Y-59000000D01*
X165005141Y-58999994D01*
X164988569Y-58799999D01*
X165919364Y-58799999D01*
X165919364Y-58800000D01*
X166816988Y-58800000D01*
X166784075Y-58857007D01*
X166750000Y-58984174D01*
X166750000Y-59115826D01*
X166784075Y-59242993D01*
X166816988Y-59300000D01*
X165919364Y-59300000D01*
X165976567Y-59513486D01*
X165976570Y-59513492D01*
X166076399Y-59727578D01*
X166211894Y-59921082D01*
X166378917Y-60088105D01*
X166565031Y-60218425D01*
X166608656Y-60273003D01*
X166615848Y-60342501D01*
X166584326Y-60404856D01*
X166565031Y-60421575D01*
X166378922Y-60551890D01*
X166378920Y-60551891D01*
X166211891Y-60718920D01*
X166211886Y-60718926D01*
X166076400Y-60912420D01*
X166076399Y-60912422D01*
X165976570Y-61126507D01*
X165976567Y-61126513D01*
X165919364Y-61339999D01*
X165919364Y-61340000D01*
X166816988Y-61340000D01*
X166784075Y-61397007D01*
X166750000Y-61524174D01*
X166750000Y-61655826D01*
X166784075Y-61782993D01*
X166816988Y-61840000D01*
X165919364Y-61840000D01*
X165976567Y-62053486D01*
X165976570Y-62053492D01*
X166076399Y-62267578D01*
X166211894Y-62461082D01*
X166378917Y-62628105D01*
X166572421Y-62763600D01*
X166786507Y-62863429D01*
X166786516Y-62863433D01*
X166825583Y-62873901D01*
X166885244Y-62910266D01*
X166915773Y-62973113D01*
X166907479Y-63042488D01*
X166862993Y-63096366D01*
X166838284Y-63109302D01*
X166757373Y-63140647D01*
X166757357Y-63140655D01*
X166583960Y-63248017D01*
X166583958Y-63248019D01*
X166433237Y-63385418D01*
X166310327Y-63548178D01*
X166219422Y-63730739D01*
X166219417Y-63730752D01*
X166163602Y-63926917D01*
X166144785Y-64129999D01*
X166144785Y-64130000D01*
X166163602Y-64333082D01*
X166219417Y-64529247D01*
X166219422Y-64529260D01*
X166310327Y-64711821D01*
X166433237Y-64874581D01*
X166583958Y-65011980D01*
X166583960Y-65011982D01*
X166611780Y-65029207D01*
X166757363Y-65119348D01*
X166947544Y-65193024D01*
X167148024Y-65230500D01*
X167148026Y-65230500D01*
X167351974Y-65230500D01*
X167351976Y-65230500D01*
X167552456Y-65193024D01*
X167742637Y-65119348D01*
X167916041Y-65011981D01*
X168066764Y-64874579D01*
X168189673Y-64711821D01*
X168280582Y-64529250D01*
X168336397Y-64333083D01*
X168355215Y-64130000D01*
X168336397Y-63926917D01*
X168280582Y-63730750D01*
X168189673Y-63548179D01*
X168102949Y-63433338D01*
X168066762Y-63385418D01*
X167916041Y-63248019D01*
X167916039Y-63248017D01*
X167742642Y-63140655D01*
X167742635Y-63140651D01*
X167661715Y-63109303D01*
X167606313Y-63066730D01*
X167582723Y-63000963D01*
X167598434Y-62932883D01*
X167648458Y-62884104D01*
X167674417Y-62873901D01*
X167713481Y-62863434D01*
X167713492Y-62863429D01*
X167927578Y-62763600D01*
X168121082Y-62628105D01*
X168288105Y-62461082D01*
X168423600Y-62267578D01*
X168523429Y-62053492D01*
X168523432Y-62053486D01*
X168580636Y-61840000D01*
X167683012Y-61840000D01*
X167715925Y-61782993D01*
X167750000Y-61655826D01*
X167750000Y-61524174D01*
X167715925Y-61397007D01*
X167683012Y-61340000D01*
X168580636Y-61340000D01*
X168580635Y-61339999D01*
X168523432Y-61126513D01*
X168523429Y-61126507D01*
X168423600Y-60912422D01*
X168423599Y-60912420D01*
X168288113Y-60718926D01*
X168288108Y-60718920D01*
X168121082Y-60551894D01*
X167934968Y-60421575D01*
X167891344Y-60366998D01*
X167884151Y-60297499D01*
X167915673Y-60235145D01*
X167934968Y-60218425D01*
X168121082Y-60088105D01*
X168288105Y-59921082D01*
X168423600Y-59727578D01*
X168523429Y-59513492D01*
X168523432Y-59513486D01*
X168580636Y-59300000D01*
X167683012Y-59300000D01*
X167715925Y-59242993D01*
X167750000Y-59115826D01*
X167750000Y-58984174D01*
X167715925Y-58857007D01*
X167683012Y-58800000D01*
X168580636Y-58800000D01*
X168580635Y-58799999D01*
X168523432Y-58586513D01*
X168523429Y-58586507D01*
X168423600Y-58372422D01*
X168423599Y-58372420D01*
X168288113Y-58178926D01*
X168288108Y-58178920D01*
X168121082Y-58011894D01*
X167927578Y-57876399D01*
X167864277Y-57846882D01*
X167811838Y-57800710D01*
X167792686Y-57733516D01*
X167812902Y-57666635D01*
X167866067Y-57621300D01*
X167916682Y-57610500D01*
X168124676Y-57610500D01*
X168124677Y-57610499D01*
X168197740Y-57595966D01*
X168280601Y-57540601D01*
X168335966Y-57457740D01*
X168350500Y-57384674D01*
X168350500Y-55635326D01*
X168350500Y-55635323D01*
X168350499Y-55635321D01*
X168335967Y-55562264D01*
X168335966Y-55562260D01*
X168280601Y-55479399D01*
X168197740Y-55424034D01*
X168197739Y-55424033D01*
X168197735Y-55424032D01*
X168124677Y-55409500D01*
X168124674Y-55409500D01*
X166375326Y-55409500D01*
X166375323Y-55409500D01*
X166302264Y-55424032D01*
X166302260Y-55424033D01*
X166219399Y-55479399D01*
X166164033Y-55562260D01*
X166164032Y-55562264D01*
X166149500Y-55635321D01*
X166149500Y-57384678D01*
X166164032Y-57457735D01*
X166164033Y-57457739D01*
X166164034Y-57457740D01*
X166219399Y-57540601D01*
X166302260Y-57595966D01*
X166302264Y-57595967D01*
X166375321Y-57610499D01*
X166375324Y-57610500D01*
X166583318Y-57610500D01*
X166650357Y-57630185D01*
X166696112Y-57682989D01*
X166706056Y-57752147D01*
X166677031Y-57815703D01*
X166635723Y-57846882D01*
X166572422Y-57876399D01*
X166572420Y-57876400D01*
X166378926Y-58011886D01*
X166378920Y-58011891D01*
X166211891Y-58178920D01*
X166211886Y-58178926D01*
X166076400Y-58372420D01*
X166076399Y-58372422D01*
X165976570Y-58586507D01*
X165976567Y-58586513D01*
X165919364Y-58799999D01*
X164988569Y-58799999D01*
X164984614Y-58752270D01*
X164984612Y-58752261D01*
X164923587Y-58511282D01*
X164823731Y-58283630D01*
X164723434Y-58130116D01*
X163982962Y-58870589D01*
X163965925Y-58807007D01*
X163900099Y-58692993D01*
X163807007Y-58599901D01*
X163692993Y-58534075D01*
X163629410Y-58517037D01*
X164370057Y-57776390D01*
X164370056Y-57776389D01*
X164323229Y-57739943D01*
X164104614Y-57621635D01*
X164104603Y-57621630D01*
X163869493Y-57540916D01*
X163624293Y-57500000D01*
X163375707Y-57500000D01*
X163130506Y-57540916D01*
X162895396Y-57621630D01*
X162895390Y-57621632D01*
X162676761Y-57739949D01*
X162629942Y-57776388D01*
X162629942Y-57776390D01*
X163370590Y-58517037D01*
X163307007Y-58534075D01*
X163192993Y-58599901D01*
X163099901Y-58692993D01*
X163034075Y-58807007D01*
X163017037Y-58870589D01*
X162276564Y-58130116D01*
X162176267Y-58283632D01*
X162076412Y-58511282D01*
X162015387Y-58752261D01*
X162015385Y-58752270D01*
X161994859Y-58999994D01*
X144771702Y-58999994D01*
X144769845Y-58996350D01*
X144636807Y-58813239D01*
X144476761Y-58653193D01*
X144293650Y-58520155D01*
X144091981Y-58417400D01*
X144091978Y-58417398D01*
X143876723Y-58347458D01*
X143727686Y-58323852D01*
X143653169Y-58312050D01*
X143426831Y-58312050D01*
X143352313Y-58323852D01*
X143203277Y-58347458D01*
X143203274Y-58347458D01*
X142988021Y-58417398D01*
X142988018Y-58417400D01*
X142786349Y-58520155D01*
X142698372Y-58584075D01*
X142603239Y-58653193D01*
X142603237Y-58653195D01*
X142603236Y-58653195D01*
X142443195Y-58813236D01*
X142443195Y-58813237D01*
X142443193Y-58813239D01*
X142411394Y-58857007D01*
X142310155Y-58996349D01*
X142207400Y-59198018D01*
X142207398Y-59198021D01*
X142137458Y-59413274D01*
X142137458Y-59413277D01*
X142102050Y-59636831D01*
X141737901Y-59636831D01*
X141717140Y-59532458D01*
X141660920Y-59396731D01*
X141660919Y-59396730D01*
X141660916Y-59396724D01*
X141579301Y-59274580D01*
X141579298Y-59274576D01*
X141475423Y-59170701D01*
X141475419Y-59170698D01*
X141353275Y-59089083D01*
X141353266Y-59089078D01*
X141217544Y-59032861D01*
X141217545Y-59032861D01*
X141217542Y-59032860D01*
X141217538Y-59032859D01*
X141217534Y-59032858D01*
X141073459Y-59004200D01*
X141073455Y-59004200D01*
X140926545Y-59004200D01*
X140926540Y-59004200D01*
X140782465Y-59032858D01*
X140782455Y-59032861D01*
X140646733Y-59089078D01*
X140646724Y-59089083D01*
X140524580Y-59170698D01*
X140524576Y-59170701D01*
X140420701Y-59274576D01*
X140420698Y-59274580D01*
X140339083Y-59396724D01*
X140339078Y-59396733D01*
X140282861Y-59532455D01*
X140282858Y-59532465D01*
X140254200Y-59676540D01*
X139897950Y-59676540D01*
X139897950Y-59636831D01*
X139862542Y-59413279D01*
X139862541Y-59413275D01*
X139862541Y-59413274D01*
X139792601Y-59198021D01*
X139792599Y-59198018D01*
X139778681Y-59170701D01*
X139689845Y-58996350D01*
X139556807Y-58813239D01*
X139396761Y-58653193D01*
X139213650Y-58520155D01*
X139011981Y-58417400D01*
X139011978Y-58417398D01*
X138796723Y-58347458D01*
X138647686Y-58323852D01*
X138573169Y-58312050D01*
X138346831Y-58312050D01*
X138272313Y-58323852D01*
X138123277Y-58347458D01*
X138123274Y-58347458D01*
X137908021Y-58417398D01*
X137908018Y-58417400D01*
X137706349Y-58520155D01*
X137618372Y-58584075D01*
X137523239Y-58653193D01*
X137523237Y-58653195D01*
X137523236Y-58653195D01*
X137363195Y-58813236D01*
X137363195Y-58813237D01*
X137363193Y-58813239D01*
X137331394Y-58857007D01*
X137230155Y-58996349D01*
X137127400Y-59198018D01*
X137127398Y-59198021D01*
X137057458Y-59413274D01*
X137057458Y-59413277D01*
X137022050Y-59636831D01*
X106977821Y-59636831D01*
X106973434Y-59630116D01*
X106232962Y-60370589D01*
X106215925Y-60307007D01*
X106150099Y-60192993D01*
X106057007Y-60099901D01*
X105942993Y-60034075D01*
X105879410Y-60017037D01*
X106620057Y-59276390D01*
X106620056Y-59276389D01*
X106573229Y-59239943D01*
X106354614Y-59121635D01*
X106354603Y-59121630D01*
X106119493Y-59040916D01*
X105874293Y-59000000D01*
X105625707Y-59000000D01*
X105380506Y-59040916D01*
X105145396Y-59121630D01*
X105145390Y-59121632D01*
X104926761Y-59239949D01*
X104879942Y-59276388D01*
X104879942Y-59276390D01*
X105620590Y-60017037D01*
X105557007Y-60034075D01*
X105442993Y-60099901D01*
X105349901Y-60192993D01*
X105284075Y-60307007D01*
X105267037Y-60370589D01*
X104526564Y-59630116D01*
X104426267Y-59783632D01*
X104326412Y-60011282D01*
X104265387Y-60252261D01*
X104265385Y-60252270D01*
X104244859Y-60499994D01*
X94400500Y-60499994D01*
X94400500Y-55641228D01*
X96399500Y-55641228D01*
X96399500Y-56358771D01*
X96432182Y-56523074D01*
X96432184Y-56523082D01*
X96496295Y-56677860D01*
X96589373Y-56817162D01*
X96707837Y-56935626D01*
X96778055Y-56982544D01*
X96847137Y-57028703D01*
X97001918Y-57092816D01*
X97166223Y-57125498D01*
X97166228Y-57125499D01*
X97166232Y-57125500D01*
X97166233Y-57125500D01*
X97333768Y-57125500D01*
X97333769Y-57125499D01*
X97498082Y-57092816D01*
X97652863Y-57028703D01*
X97792162Y-56935626D01*
X97910626Y-56817162D01*
X98003703Y-56677863D01*
X98003703Y-56677861D01*
X98007087Y-56672798D01*
X98008099Y-56673474D01*
X98052557Y-56628209D01*
X98120693Y-56612743D01*
X98186375Y-56636570D01*
X98228748Y-56692124D01*
X98230406Y-56696810D01*
X98230588Y-56697251D01*
X98309195Y-56851524D01*
X98410967Y-56991602D01*
X98533397Y-57114032D01*
X98673475Y-57215804D01*
X98827744Y-57294408D01*
X98992415Y-57347914D01*
X98992414Y-57347914D01*
X98999999Y-57349115D01*
X99000000Y-57349114D01*
X99000000Y-56280330D01*
X99019745Y-56300075D01*
X99105255Y-56349444D01*
X99200630Y-56375000D01*
X99299370Y-56375000D01*
X99394745Y-56349444D01*
X99480255Y-56300075D01*
X99500000Y-56280330D01*
X99500000Y-57349115D01*
X99507584Y-57347914D01*
X99672255Y-57294408D01*
X99826524Y-57215804D01*
X99966602Y-57114032D01*
X100089032Y-56991602D01*
X100190804Y-56851524D01*
X100269411Y-56697251D01*
X100271271Y-56692760D01*
X100272475Y-56693258D01*
X100308540Y-56640512D01*
X100372898Y-56613311D01*
X100441745Y-56625222D01*
X100493223Y-56672464D01*
X100496254Y-56677798D01*
X100496296Y-56677861D01*
X100496297Y-56677863D01*
X100505826Y-56692124D01*
X100589373Y-56817162D01*
X100707837Y-56935626D01*
X100778055Y-56982544D01*
X100847137Y-57028703D01*
X101001918Y-57092816D01*
X101166223Y-57125498D01*
X101166228Y-57125499D01*
X101166232Y-57125500D01*
X101166233Y-57125500D01*
X101333768Y-57125500D01*
X101333769Y-57125499D01*
X101498082Y-57092816D01*
X101652863Y-57028703D01*
X101792162Y-56935626D01*
X101910626Y-56817162D01*
X102003703Y-56677863D01*
X102003703Y-56677861D01*
X102007087Y-56672798D01*
X102008099Y-56673474D01*
X102052557Y-56628209D01*
X102120693Y-56612743D01*
X102186375Y-56636570D01*
X102228748Y-56692124D01*
X102230406Y-56696810D01*
X102230588Y-56697251D01*
X102309195Y-56851524D01*
X102410967Y-56991602D01*
X102533397Y-57114032D01*
X102673475Y-57215804D01*
X102827744Y-57294408D01*
X102992415Y-57347914D01*
X102992414Y-57347914D01*
X102999999Y-57349115D01*
X103000000Y-57349114D01*
X103000000Y-56280330D01*
X103019745Y-56300075D01*
X103105255Y-56349444D01*
X103200630Y-56375000D01*
X103299370Y-56375000D01*
X103394745Y-56349444D01*
X103480255Y-56300075D01*
X103500000Y-56280330D01*
X103500000Y-57349115D01*
X103507584Y-57347914D01*
X103672255Y-57294408D01*
X103826524Y-57215804D01*
X103966602Y-57114032D01*
X104089032Y-56991602D01*
X104190805Y-56851522D01*
X104212554Y-56808838D01*
X104260528Y-56758042D01*
X104328349Y-56741246D01*
X104394484Y-56763783D01*
X104437936Y-56818498D01*
X104439221Y-56821798D01*
X104456203Y-56867330D01*
X104456206Y-56867335D01*
X104542452Y-56982544D01*
X104542455Y-56982547D01*
X104657664Y-57068793D01*
X104657671Y-57068797D01*
X104792517Y-57119091D01*
X104792516Y-57119091D01*
X104799444Y-57119835D01*
X104852127Y-57125500D01*
X105647872Y-57125499D01*
X105707483Y-57119091D01*
X105842331Y-57068796D01*
X105957546Y-56982546D01*
X106043796Y-56867331D01*
X106094091Y-56732483D01*
X106100500Y-56672873D01*
X106100500Y-56461831D01*
X137022050Y-56461831D01*
X137022050Y-56688169D01*
X137029069Y-56732482D01*
X137057458Y-56911722D01*
X137057458Y-56911725D01*
X137127398Y-57126978D01*
X137127400Y-57126981D01*
X137230155Y-57328650D01*
X137363193Y-57511761D01*
X137523239Y-57671807D01*
X137706350Y-57804845D01*
X137908019Y-57907600D01*
X137908021Y-57907601D01*
X138108801Y-57972837D01*
X138123279Y-57977542D01*
X138346831Y-58012950D01*
X138346832Y-58012950D01*
X138573168Y-58012950D01*
X138573169Y-58012950D01*
X138796721Y-57977542D01*
X138796724Y-57977541D01*
X138796725Y-57977541D01*
X139011978Y-57907601D01*
X139011978Y-57907600D01*
X139011981Y-57907600D01*
X139213650Y-57804845D01*
X139396761Y-57671807D01*
X139556807Y-57511761D01*
X139689845Y-57328650D01*
X139792600Y-57126981D01*
X139824532Y-57028704D01*
X139862541Y-56911725D01*
X139862541Y-56911724D01*
X139862542Y-56911721D01*
X139897950Y-56688169D01*
X139897950Y-56461831D01*
X142102050Y-56461831D01*
X142102050Y-56688169D01*
X142109069Y-56732482D01*
X142137458Y-56911722D01*
X142137458Y-56911725D01*
X142207398Y-57126978D01*
X142207400Y-57126981D01*
X142310155Y-57328650D01*
X142443193Y-57511761D01*
X142603239Y-57671807D01*
X142786350Y-57804845D01*
X142988019Y-57907600D01*
X142988021Y-57907601D01*
X143188801Y-57972837D01*
X143203279Y-57977542D01*
X143426831Y-58012950D01*
X143426832Y-58012950D01*
X143653168Y-58012950D01*
X143653169Y-58012950D01*
X143876721Y-57977542D01*
X143876724Y-57977541D01*
X143876725Y-57977541D01*
X144091978Y-57907601D01*
X144091978Y-57907600D01*
X144091981Y-57907600D01*
X144293650Y-57804845D01*
X144476761Y-57671807D01*
X144636807Y-57511761D01*
X144769845Y-57328650D01*
X144872600Y-57126981D01*
X144904532Y-57028704D01*
X144942541Y-56911725D01*
X144942541Y-56911724D01*
X144942542Y-56911721D01*
X144977950Y-56688169D01*
X144977950Y-56461831D01*
X144942542Y-56238279D01*
X144942541Y-56238275D01*
X144942541Y-56238274D01*
X144872601Y-56023021D01*
X144872599Y-56023018D01*
X144769844Y-55821349D01*
X144636807Y-55638239D01*
X144476761Y-55478193D01*
X144293650Y-55345155D01*
X144091981Y-55242400D01*
X144091978Y-55242398D01*
X143876723Y-55172458D01*
X143725302Y-55148475D01*
X143653169Y-55137050D01*
X143426831Y-55137050D01*
X143354698Y-55148475D01*
X143203277Y-55172458D01*
X143203274Y-55172458D01*
X142988021Y-55242398D01*
X142988018Y-55242400D01*
X142786349Y-55345155D01*
X142681878Y-55421058D01*
X142603239Y-55478193D01*
X142603237Y-55478195D01*
X142603236Y-55478195D01*
X142443195Y-55638236D01*
X142443195Y-55638237D01*
X142443193Y-55638239D01*
X142386058Y-55716878D01*
X142310155Y-55821349D01*
X142207400Y-56023018D01*
X142207398Y-56023021D01*
X142137458Y-56238274D01*
X142137458Y-56238277D01*
X142128845Y-56292656D01*
X142102050Y-56461831D01*
X139897950Y-56461831D01*
X139862542Y-56238279D01*
X139862541Y-56238275D01*
X139862541Y-56238274D01*
X139792601Y-56023021D01*
X139792599Y-56023018D01*
X139689844Y-55821349D01*
X139556807Y-55638239D01*
X139396761Y-55478193D01*
X139213650Y-55345155D01*
X139011981Y-55242400D01*
X139011978Y-55242398D01*
X138796723Y-55172458D01*
X138645302Y-55148475D01*
X138573169Y-55137050D01*
X138346831Y-55137050D01*
X138274698Y-55148475D01*
X138123277Y-55172458D01*
X138123274Y-55172458D01*
X137908021Y-55242398D01*
X137908018Y-55242400D01*
X137706349Y-55345155D01*
X137601878Y-55421058D01*
X137523239Y-55478193D01*
X137523237Y-55478195D01*
X137523236Y-55478195D01*
X137363195Y-55638236D01*
X137363195Y-55638237D01*
X137363193Y-55638239D01*
X137306058Y-55716878D01*
X137230155Y-55821349D01*
X137127400Y-56023018D01*
X137127398Y-56023021D01*
X137057458Y-56238274D01*
X137057458Y-56238277D01*
X137048845Y-56292656D01*
X137022050Y-56461831D01*
X106100500Y-56461831D01*
X106100499Y-55327128D01*
X106094091Y-55267517D01*
X106085207Y-55243699D01*
X106043797Y-55132671D01*
X106043793Y-55132664D01*
X105957547Y-55017455D01*
X105957544Y-55017452D01*
X105842335Y-54931206D01*
X105842328Y-54931202D01*
X105707482Y-54880908D01*
X105707483Y-54880908D01*
X105647883Y-54874501D01*
X105647881Y-54874500D01*
X105647873Y-54874500D01*
X105647864Y-54874500D01*
X104852129Y-54874500D01*
X104852123Y-54874501D01*
X104792516Y-54880908D01*
X104657671Y-54931202D01*
X104657664Y-54931206D01*
X104542455Y-55017452D01*
X104542452Y-55017455D01*
X104456206Y-55132664D01*
X104456203Y-55132670D01*
X104439221Y-55178201D01*
X104397349Y-55234135D01*
X104331884Y-55258551D01*
X104263612Y-55243699D01*
X104214206Y-55194293D01*
X104212554Y-55191162D01*
X104190804Y-55148475D01*
X104089032Y-55008397D01*
X103966602Y-54885967D01*
X103826524Y-54784195D01*
X103672257Y-54705591D01*
X103507589Y-54652087D01*
X103507581Y-54652085D01*
X103500000Y-54650884D01*
X103500000Y-55719670D01*
X103480255Y-55699925D01*
X103394745Y-55650556D01*
X103299370Y-55625000D01*
X103200630Y-55625000D01*
X103105255Y-55650556D01*
X103019745Y-55699925D01*
X103000000Y-55719670D01*
X103000000Y-54650884D01*
X102999999Y-54650884D01*
X102992418Y-54652085D01*
X102992410Y-54652087D01*
X102827742Y-54705591D01*
X102673475Y-54784195D01*
X102533397Y-54885967D01*
X102410967Y-55008397D01*
X102309195Y-55148475D01*
X102230588Y-55302748D01*
X102228729Y-55307240D01*
X102227531Y-55306743D01*
X102191428Y-55359513D01*
X102127061Y-55386693D01*
X102058218Y-55374759D01*
X102006756Y-55327501D01*
X102003742Y-55322196D01*
X101990747Y-55302748D01*
X101944902Y-55234135D01*
X101910626Y-55182837D01*
X101792162Y-55064373D01*
X101652860Y-54971295D01*
X101498082Y-54907184D01*
X101498074Y-54907182D01*
X101333771Y-54874500D01*
X101333767Y-54874500D01*
X101166233Y-54874500D01*
X101166228Y-54874500D01*
X101001925Y-54907182D01*
X101001917Y-54907184D01*
X100847139Y-54971295D01*
X100707837Y-55064373D01*
X100589373Y-55182837D01*
X100492913Y-55327202D01*
X100491904Y-55326528D01*
X100447417Y-55371804D01*
X100379277Y-55387254D01*
X100313601Y-55363412D01*
X100271241Y-55307848D01*
X100269588Y-55303177D01*
X100269411Y-55302748D01*
X100190804Y-55148475D01*
X100089032Y-55008397D01*
X99966602Y-54885967D01*
X99826524Y-54784195D01*
X99672257Y-54705591D01*
X99507589Y-54652087D01*
X99507581Y-54652085D01*
X99500000Y-54650884D01*
X99500000Y-55719670D01*
X99480255Y-55699925D01*
X99394745Y-55650556D01*
X99299370Y-55625000D01*
X99200630Y-55625000D01*
X99105255Y-55650556D01*
X99019745Y-55699925D01*
X99000000Y-55719670D01*
X99000000Y-54650884D01*
X98999999Y-54650884D01*
X98992418Y-54652085D01*
X98992410Y-54652087D01*
X98827742Y-54705591D01*
X98673475Y-54784195D01*
X98533397Y-54885967D01*
X98410967Y-55008397D01*
X98309195Y-55148475D01*
X98230588Y-55302748D01*
X98228729Y-55307240D01*
X98227531Y-55306743D01*
X98191428Y-55359513D01*
X98127061Y-55386693D01*
X98058218Y-55374759D01*
X98006756Y-55327501D01*
X98003742Y-55322196D01*
X97990747Y-55302748D01*
X97944902Y-55234135D01*
X97910626Y-55182837D01*
X97792162Y-55064373D01*
X97652860Y-54971295D01*
X97498082Y-54907184D01*
X97498074Y-54907182D01*
X97333771Y-54874500D01*
X97333767Y-54874500D01*
X97166233Y-54874500D01*
X97166228Y-54874500D01*
X97001925Y-54907182D01*
X97001917Y-54907184D01*
X96847139Y-54971295D01*
X96707837Y-55064373D01*
X96589373Y-55182837D01*
X96496295Y-55322139D01*
X96432184Y-55476917D01*
X96432182Y-55476925D01*
X96399500Y-55641228D01*
X94400500Y-55641228D01*
X94400500Y-54596540D01*
X139238200Y-54596540D01*
X139238200Y-54743459D01*
X139266858Y-54887534D01*
X139266861Y-54887544D01*
X139323078Y-55023266D01*
X139323083Y-55023275D01*
X139404698Y-55145419D01*
X139404701Y-55145423D01*
X139508576Y-55249298D01*
X139508580Y-55249301D01*
X139630724Y-55330916D01*
X139630730Y-55330919D01*
X139630731Y-55330920D01*
X139766458Y-55387140D01*
X139878872Y-55409500D01*
X139910540Y-55415799D01*
X139910544Y-55415800D01*
X139910545Y-55415800D01*
X140057456Y-55415800D01*
X140057457Y-55415799D01*
X140201542Y-55387140D01*
X140337269Y-55330920D01*
X140459420Y-55249301D01*
X140563301Y-55145420D01*
X140644920Y-55023269D01*
X140701140Y-54887542D01*
X140729800Y-54743455D01*
X140729800Y-54596545D01*
X140729799Y-54596540D01*
X141270200Y-54596540D01*
X141270200Y-54743459D01*
X141298858Y-54887534D01*
X141298861Y-54887544D01*
X141355078Y-55023266D01*
X141355083Y-55023275D01*
X141436698Y-55145419D01*
X141436701Y-55145423D01*
X141540576Y-55249298D01*
X141540580Y-55249301D01*
X141662724Y-55330916D01*
X141662730Y-55330919D01*
X141662731Y-55330920D01*
X141798458Y-55387140D01*
X141910872Y-55409500D01*
X141942540Y-55415799D01*
X141942544Y-55415800D01*
X141942545Y-55415800D01*
X142089456Y-55415800D01*
X142089457Y-55415799D01*
X142233542Y-55387140D01*
X142369269Y-55330920D01*
X142491420Y-55249301D01*
X142595301Y-55145420D01*
X142609588Y-55124038D01*
X155149500Y-55124038D01*
X155149500Y-55375962D01*
X155154812Y-55409500D01*
X155188910Y-55624785D01*
X155266760Y-55864383D01*
X155381132Y-56088848D01*
X155529201Y-56292649D01*
X155529205Y-56292654D01*
X155707345Y-56470794D01*
X155707350Y-56470798D01*
X155885117Y-56599952D01*
X155911155Y-56618870D01*
X156047160Y-56688168D01*
X156135616Y-56733239D01*
X156135618Y-56733239D01*
X156135621Y-56733241D01*
X156375215Y-56811090D01*
X156624038Y-56850500D01*
X156624039Y-56850500D01*
X156875961Y-56850500D01*
X156875962Y-56850500D01*
X157124785Y-56811090D01*
X157364379Y-56733241D01*
X157588845Y-56618870D01*
X157792656Y-56470793D01*
X157970793Y-56292656D01*
X158118870Y-56088845D01*
X158233241Y-55864379D01*
X158311090Y-55624785D01*
X158350500Y-55375962D01*
X158350500Y-55124038D01*
X158311090Y-54875215D01*
X158233241Y-54635621D01*
X158233239Y-54635618D01*
X158233239Y-54635616D01*
X158139918Y-54452465D01*
X158118870Y-54411155D01*
X158050262Y-54316724D01*
X157970798Y-54207350D01*
X157970794Y-54207345D01*
X157792654Y-54029205D01*
X157792649Y-54029201D01*
X157588848Y-53881132D01*
X157588847Y-53881131D01*
X157588845Y-53881130D01*
X157518747Y-53845413D01*
X157364383Y-53766760D01*
X157124785Y-53688910D01*
X156875962Y-53649500D01*
X156624038Y-53649500D01*
X156499626Y-53669205D01*
X156375214Y-53688910D01*
X156135616Y-53766760D01*
X155911151Y-53881132D01*
X155707350Y-54029201D01*
X155707345Y-54029205D01*
X155529205Y-54207345D01*
X155529201Y-54207350D01*
X155381132Y-54411151D01*
X155266760Y-54635616D01*
X155188910Y-54875214D01*
X155180042Y-54931202D01*
X155149500Y-55124038D01*
X142609588Y-55124038D01*
X142676920Y-55023269D01*
X142733140Y-54887542D01*
X142761800Y-54743455D01*
X142761800Y-54596545D01*
X142733140Y-54452458D01*
X142676920Y-54316731D01*
X142676919Y-54316730D01*
X142676916Y-54316724D01*
X142595301Y-54194580D01*
X142595298Y-54194576D01*
X142491423Y-54090701D01*
X142491419Y-54090698D01*
X142369275Y-54009083D01*
X142369266Y-54009078D01*
X142233544Y-53952861D01*
X142233545Y-53952861D01*
X142233542Y-53952860D01*
X142233538Y-53952859D01*
X142233534Y-53952858D01*
X142089459Y-53924200D01*
X142089455Y-53924200D01*
X141942545Y-53924200D01*
X141942540Y-53924200D01*
X141798465Y-53952858D01*
X141798455Y-53952861D01*
X141662733Y-54009078D01*
X141662724Y-54009083D01*
X141540580Y-54090698D01*
X141540576Y-54090701D01*
X141436701Y-54194576D01*
X141436698Y-54194580D01*
X141355083Y-54316724D01*
X141355078Y-54316733D01*
X141298861Y-54452455D01*
X141298858Y-54452465D01*
X141270200Y-54596540D01*
X140729799Y-54596540D01*
X140701140Y-54452458D01*
X140644920Y-54316731D01*
X140644919Y-54316730D01*
X140644916Y-54316724D01*
X140563301Y-54194580D01*
X140563298Y-54194576D01*
X140459423Y-54090701D01*
X140459419Y-54090698D01*
X140337275Y-54009083D01*
X140337266Y-54009078D01*
X140201544Y-53952861D01*
X140201545Y-53952861D01*
X140201542Y-53952860D01*
X140201538Y-53952859D01*
X140201534Y-53952858D01*
X140057459Y-53924200D01*
X140057455Y-53924200D01*
X139910545Y-53924200D01*
X139910540Y-53924200D01*
X139766465Y-53952858D01*
X139766455Y-53952861D01*
X139630733Y-54009078D01*
X139630724Y-54009083D01*
X139508580Y-54090698D01*
X139508576Y-54090701D01*
X139404701Y-54194576D01*
X139404698Y-54194580D01*
X139323083Y-54316724D01*
X139323078Y-54316733D01*
X139266861Y-54452455D01*
X139266858Y-54452465D01*
X139238200Y-54596540D01*
X94400500Y-54596540D01*
X94400500Y-53505412D01*
X94400972Y-53494605D01*
X94416258Y-53319884D01*
X94420011Y-53298598D01*
X94464002Y-53134418D01*
X94471388Y-53114125D01*
X94543223Y-52960074D01*
X94554023Y-52941369D01*
X94651516Y-52802134D01*
X94665399Y-52785589D01*
X94785589Y-52665399D01*
X94802134Y-52651516D01*
X94941369Y-52554023D01*
X94960074Y-52543223D01*
X95114125Y-52471388D01*
X95134418Y-52464002D01*
X95298598Y-52420010D01*
X95319881Y-52416258D01*
X95494605Y-52400971D01*
X95505412Y-52400500D01*
X95557583Y-52400500D01*
X177442417Y-52400500D01*
X177494588Y-52400500D01*
X177505394Y-52400971D01*
G37*
%TD.AperFunction*%
%TD*%
M02*
