ISO-10303-21;
HEADER;
/* Generated by software containing ST-Developer
 * from STEP Tools, Inc. (www.steptools.com) 
 */

FILE_DESCRIPTION(
/* description */ (''),
/* implementation_level */ '2;1');

FILE_NAME(
/* name */ 'CustomDRC_Cover.step',
/* time_stamp */ '2025-12-12T20:38:37+13:00',
/* author */ (''),
/* organization */ (''),
/* preprocessor_version */ 'ST-DEVELOPER v20.1',
/* originating_system */ 'Autodesk Translation Framework v14.21.0.0',
/* authorisation */ '');

FILE_SCHEMA (('AUTOMOTIVE_DESIGN { 1 0 10303 214 3 1 1 }'));
ENDSEC;

DATA;
#10=MECHANICAL_DESIGN_GEOMETRIC_PRESENTATION_REPRESENTATION('',(#13),#1847);
#11=SHAPE_REPRESENTATION_RELATIONSHIP('SRR','None',#1853,#12);
#12=ADVANCED_BREP_SHAPE_REPRESENTATION('',(#14),#1846);
#13=STYLED_ITEM('',(#1862),#14);
#14=MANIFOLD_SOLID_BREP('CustomDRC_Cover',#1083);
#15=FACE_BOUND('',#186,.T.);
#16=FACE_BOUND('',#187,.T.);
#17=FACE_BOUND('',#188,.T.);
#18=FACE_BOUND('',#189,.T.);
#19=FACE_BOUND('',#190,.T.);
#20=FACE_BOUND('',#231,.T.);
#21=FACE_BOUND('',#233,.T.);
#22=FACE_BOUND('',#235,.T.);
#23=FACE_BOUND('',#237,.T.);
#24=CYLINDRICAL_SURFACE('',#1101,1.1999992529226);
#25=CYLINDRICAL_SURFACE('',#1104,1.19999925292262);
#26=CYLINDRICAL_SURFACE('',#1116,3.1);
#27=CYLINDRICAL_SURFACE('',#1120,3.1);
#28=CYLINDRICAL_SURFACE('',#1124,3.1);
#29=CYLINDRICAL_SURFACE('',#1128,3.1);
#30=CYLINDRICAL_SURFACE('',#1133,1.);
#31=CYLINDRICAL_SURFACE('',#1139,1.);
#32=CYLINDRICAL_SURFACE('',#1145,1.);
#33=CYLINDRICAL_SURFACE('',#1151,1.);
#34=CYLINDRICAL_SURFACE('',#1162,2.55019817596006);
#35=CYLINDRICAL_SURFACE('',#1165,2.55019817596006);
#36=CYLINDRICAL_SURFACE('',#1192,1.19999925292495);
#37=CYLINDRICAL_SURFACE('',#1193,1.19999925292762);
#38=CYLINDRICAL_SURFACE('',#1196,3.19999925292784);
#39=CYLINDRICAL_SURFACE('',#1198,3.19999925292508);
#40=CYLINDRICAL_SURFACE('',#1200,3.19999925292275);
#41=CYLINDRICAL_SURFACE('',#1201,3.19999925292274);
#42=CIRCLE('',#1087,0.699999252922621);
#43=CIRCLE('',#1088,1.19999925292262);
#44=CIRCLE('',#1091,0.699999252922603);
#45=CIRCLE('',#1092,1.1999992529226);
#46=CIRCLE('',#1095,0.699999252927617);
#47=CIRCLE('',#1096,1.19999925292762);
#48=CIRCLE('',#1099,0.699999252924951);
#49=CIRCLE('',#1100,1.19999925292495);
#50=CIRCLE('',#1102,1.1999992529226);
#51=CIRCLE('',#1105,1.19999925292262);
#52=CIRCLE('',#1108,5.1);
#53=CIRCLE('',#1109,5.1);
#54=CIRCLE('',#1110,2.55019817596006);
#55=CIRCLE('',#1111,2.55019817596006);
#56=CIRCLE('',#1112,5.1);
#57=CIRCLE('',#1113,5.1);
#58=CIRCLE('',#1115,3.1);
#59=CIRCLE('',#1117,3.1);
#60=CIRCLE('',#1119,3.1);
#61=CIRCLE('',#1121,3.1);
#62=CIRCLE('',#1123,3.1);
#63=CIRCLE('',#1125,3.1);
#64=CIRCLE('',#1127,3.1);
#65=CIRCLE('',#1129,3.1);
#66=CIRCLE('',#1131,2.);
#67=CIRCLE('',#1132,1.);
#68=CIRCLE('',#1134,1.);
#69=CIRCLE('',#1137,2.);
#70=CIRCLE('',#1138,1.);
#71=CIRCLE('',#1140,1.);
#72=CIRCLE('',#1143,2.);
#73=CIRCLE('',#1144,1.);
#74=CIRCLE('',#1146,1.);
#75=CIRCLE('',#1149,2.);
#76=CIRCLE('',#1150,1.);
#77=CIRCLE('',#1152,1.);
#78=CIRCLE('',#1156,1.55019817596006);
#79=CIRCLE('',#1157,2.55019817596006);
#80=CIRCLE('',#1160,1.55019817596006);
#81=CIRCLE('',#1161,2.55019817596006);
#82=CIRCLE('',#1172,3.19999925292508);
#83=CIRCLE('',#1173,3.19999925292275);
#84=CIRCLE('',#1174,1.19999925292495);
#85=CIRCLE('',#1179,1.19999925292762);
#86=CIRCLE('',#1180,3.19999925292274);
#87=CIRCLE('',#1181,3.19999925292784);
#88=CIRCLE('',#1188,3.19999925292274);
#89=CIRCLE('',#1189,3.19999925292275);
#90=CIRCLE('',#1190,3.19999925292508);
#91=CIRCLE('',#1191,3.19999925292784);
#92=CONICAL_SURFACE('',#1086,0.94999925292262,0.785398163397446);
#93=CONICAL_SURFACE('',#1090,0.949999252922603,0.785398163397447);
#94=CONICAL_SURFACE('',#1094,0.949999252927617,0.785398163397447);
#95=CONICAL_SURFACE('',#1098,0.94999925292495,0.785398163397444);
#96=CONICAL_SURFACE('',#1114,4.1,0.785398163397449);
#97=CONICAL_SURFACE('',#1118,4.1,0.785398163397446);
#98=CONICAL_SURFACE('',#1122,4.1,0.785398163397446);
#99=CONICAL_SURFACE('',#1126,4.1,0.785398163397449);
#100=CONICAL_SURFACE('',#1130,1.5,0.785398163397448);
#101=CONICAL_SURFACE('',#1136,1.5,0.785398163397448);
#102=CONICAL_SURFACE('',#1142,1.5,0.785398163397448);
#103=CONICAL_SURFACE('',#1148,1.5,0.785398163397448);
#104=CONICAL_SURFACE('',#1155,2.05019817596006,0.785398163397448);
#105=CONICAL_SURFACE('',#1159,2.05019817596006,0.785398163397448);
#106=FACE_OUTER_BOUND('',#173,.T.);
#107=FACE_OUTER_BOUND('',#174,.T.);
#108=FACE_OUTER_BOUND('',#175,.T.);
#109=FACE_OUTER_BOUND('',#176,.T.);
#110=FACE_OUTER_BOUND('',#177,.T.);
#111=FACE_OUTER_BOUND('',#178,.T.);
#112=FACE_OUTER_BOUND('',#179,.T.);
#113=FACE_OUTER_BOUND('',#180,.T.);
#114=FACE_OUTER_BOUND('',#181,.T.);
#115=FACE_OUTER_BOUND('',#182,.T.);
#116=FACE_OUTER_BOUND('',#183,.T.);
#117=FACE_OUTER_BOUND('',#184,.T.);
#118=FACE_OUTER_BOUND('',#185,.T.);
#119=FACE_OUTER_BOUND('',#191,.T.);
#120=FACE_OUTER_BOUND('',#192,.T.);
#121=FACE_OUTER_BOUND('',#193,.T.);
#122=FACE_OUTER_BOUND('',#194,.T.);
#123=FACE_OUTER_BOUND('',#195,.T.);
#124=FACE_OUTER_BOUND('',#196,.T.);
#125=FACE_OUTER_BOUND('',#197,.T.);
#126=FACE_OUTER_BOUND('',#198,.T.);
#127=FACE_OUTER_BOUND('',#199,.T.);
#128=FACE_OUTER_BOUND('',#200,.T.);
#129=FACE_OUTER_BOUND('',#201,.T.);
#130=FACE_OUTER_BOUND('',#202,.T.);
#131=FACE_OUTER_BOUND('',#203,.T.);
#132=FACE_OUTER_BOUND('',#204,.T.);
#133=FACE_OUTER_BOUND('',#205,.T.);
#134=FACE_OUTER_BOUND('',#206,.T.);
#135=FACE_OUTER_BOUND('',#207,.T.);
#136=FACE_OUTER_BOUND('',#208,.T.);
#137=FACE_OUTER_BOUND('',#209,.T.);
#138=FACE_OUTER_BOUND('',#210,.T.);
#139=FACE_OUTER_BOUND('',#211,.T.);
#140=FACE_OUTER_BOUND('',#212,.T.);
#141=FACE_OUTER_BOUND('',#213,.T.);
#142=FACE_OUTER_BOUND('',#214,.T.);
#143=FACE_OUTER_BOUND('',#215,.T.);
#144=FACE_OUTER_BOUND('',#216,.T.);
#145=FACE_OUTER_BOUND('',#217,.T.);
#146=FACE_OUTER_BOUND('',#218,.T.);
#147=FACE_OUTER_BOUND('',#219,.T.);
#148=FACE_OUTER_BOUND('',#220,.T.);
#149=FACE_OUTER_BOUND('',#221,.T.);
#150=FACE_OUTER_BOUND('',#222,.T.);
#151=FACE_OUTER_BOUND('',#223,.T.);
#152=FACE_OUTER_BOUND('',#224,.T.);
#153=FACE_OUTER_BOUND('',#225,.T.);
#154=FACE_OUTER_BOUND('',#226,.T.);
#155=FACE_OUTER_BOUND('',#227,.T.);
#156=FACE_OUTER_BOUND('',#228,.T.);
#157=FACE_OUTER_BOUND('',#229,.T.);
#158=FACE_OUTER_BOUND('',#230,.T.);
#159=FACE_OUTER_BOUND('',#232,.T.);
#160=FACE_OUTER_BOUND('',#234,.T.);
#161=FACE_OUTER_BOUND('',#236,.T.);
#162=FACE_OUTER_BOUND('',#238,.T.);
#163=FACE_OUTER_BOUND('',#239,.T.);
#164=FACE_OUTER_BOUND('',#240,.T.);
#165=FACE_OUTER_BOUND('',#241,.T.);
#166=FACE_OUTER_BOUND('',#242,.T.);
#167=FACE_OUTER_BOUND('',#243,.T.);
#168=FACE_OUTER_BOUND('',#244,.T.);
#169=FACE_OUTER_BOUND('',#245,.T.);
#170=FACE_OUTER_BOUND('',#246,.T.);
#171=FACE_OUTER_BOUND('',#247,.T.);
#172=FACE_OUTER_BOUND('',#248,.T.);
#173=EDGE_LOOP('',(#685,#686,#687,#688));
#174=EDGE_LOOP('',(#689,#690,#691,#692));
#175=EDGE_LOOP('',(#693,#694,#695,#696));
#176=EDGE_LOOP('',(#697,#698,#699,#700));
#177=EDGE_LOOP('',(#701,#702,#703,#704));
#178=EDGE_LOOP('',(#705,#706,#707,#708));
#179=EDGE_LOOP('',(#709,#710,#711,#712));
#180=EDGE_LOOP('',(#713,#714,#715,#716));
#181=EDGE_LOOP('',(#717,#718,#719,#720));
#182=EDGE_LOOP('',(#721,#722,#723,#724,#725,#726,#727,#728));
#183=EDGE_LOOP('',(#729,#730,#731,#732));
#184=EDGE_LOOP('',(#733,#734,#735,#736));
#185=EDGE_LOOP('',(#737,#738,#739,#740,#741,#742,#743,#744));
#186=EDGE_LOOP('',(#745));
#187=EDGE_LOOP('',(#746));
#188=EDGE_LOOP('',(#747,#748,#749,#750));
#189=EDGE_LOOP('',(#751));
#190=EDGE_LOOP('',(#752));
#191=EDGE_LOOP('',(#753,#754,#755,#756));
#192=EDGE_LOOP('',(#757,#758,#759,#760));
#193=EDGE_LOOP('',(#761,#762,#763,#764));
#194=EDGE_LOOP('',(#765,#766,#767,#768));
#195=EDGE_LOOP('',(#769,#770,#771,#772));
#196=EDGE_LOOP('',(#773,#774,#775,#776));
#197=EDGE_LOOP('',(#777,#778,#779,#780));
#198=EDGE_LOOP('',(#781,#782,#783,#784));
#199=EDGE_LOOP('',(#785,#786,#787,#788));
#200=EDGE_LOOP('',(#789,#790,#791,#792));
#201=EDGE_LOOP('',(#793));
#202=EDGE_LOOP('',(#794,#795,#796,#797));
#203=EDGE_LOOP('',(#798,#799,#800,#801));
#204=EDGE_LOOP('',(#802));
#205=EDGE_LOOP('',(#803,#804,#805,#806));
#206=EDGE_LOOP('',(#807,#808,#809,#810));
#207=EDGE_LOOP('',(#811));
#208=EDGE_LOOP('',(#812,#813,#814,#815));
#209=EDGE_LOOP('',(#816,#817,#818,#819));
#210=EDGE_LOOP('',(#820));
#211=EDGE_LOOP('',(#821,#822,#823,#824));
#212=EDGE_LOOP('',(#825,#826,#827,#828));
#213=EDGE_LOOP('',(#829,#830,#831,#832));
#214=EDGE_LOOP('',(#833,#834,#835,#836));
#215=EDGE_LOOP('',(#837,#838,#839,#840));
#216=EDGE_LOOP('',(#841,#842,#843,#844));
#217=EDGE_LOOP('',(#845,#846,#847,#848));
#218=EDGE_LOOP('',(#849,#850,#851,#852));
#219=EDGE_LOOP('',(#853,#854,#855,#856));
#220=EDGE_LOOP('',(#857,#858,#859,#860));
#221=EDGE_LOOP('',(#861,#862,#863,#864));
#222=EDGE_LOOP('',(#865,#866,#867,#868));
#223=EDGE_LOOP('',(#869,#870,#871,#872,#873,#874,#875,#876));
#224=EDGE_LOOP('',(#877,#878,#879,#880,#881,#882,#883,#884,#885,#886,#887,
#888));
#225=EDGE_LOOP('',(#889,#890,#891,#892));
#226=EDGE_LOOP('',(#893,#894,#895,#896));
#227=EDGE_LOOP('',(#897,#898,#899,#900));
#228=EDGE_LOOP('',(#901,#902,#903,#904,#905,#906,#907,#908,#909,#910,#911,
#912));
#229=EDGE_LOOP('',(#913,#914,#915,#916,#917,#918,#919,#920));
#230=EDGE_LOOP('',(#921));
#231=EDGE_LOOP('',(#922));
#232=EDGE_LOOP('',(#923));
#233=EDGE_LOOP('',(#924));
#234=EDGE_LOOP('',(#925));
#235=EDGE_LOOP('',(#926));
#236=EDGE_LOOP('',(#927));
#237=EDGE_LOOP('',(#928));
#238=EDGE_LOOP('',(#929,#930,#931,#932,#933,#934,#935,#936));
#239=EDGE_LOOP('',(#937,#938,#939,#940));
#240=EDGE_LOOP('',(#941,#942,#943,#944));
#241=EDGE_LOOP('',(#945,#946,#947,#948));
#242=EDGE_LOOP('',(#949,#950,#951,#952));
#243=EDGE_LOOP('',(#953,#954,#955,#956));
#244=EDGE_LOOP('',(#957,#958,#959,#960,#961,#962,#963,#964));
#245=EDGE_LOOP('',(#965,#966,#967,#968));
#246=EDGE_LOOP('',(#969,#970,#971,#972));
#247=EDGE_LOOP('',(#973,#974,#975,#976));
#248=EDGE_LOOP('',(#977,#978,#979,#980));
#249=LINE('',#1540,#347);
#250=LINE('',#1542,#348);
#251=LINE('',#1544,#349);
#252=LINE('',#1545,#350);
#253=LINE('',#1549,#351);
#254=LINE('',#1555,#352);
#255=LINE('',#1556,#353);
#256=LINE('',#1557,#354);
#257=LINE('',#1561,#355);
#258=LINE('',#1567,#356);
#259=LINE('',#1568,#357);
#260=LINE('',#1569,#358);
#261=LINE('',#1573,#359);
#262=LINE('',#1579,#360);
#263=LINE('',#1580,#361);
#264=LINE('',#1581,#362);
#265=LINE('',#1587,#363);
#266=LINE('',#1590,#364);
#267=LINE('',#1593,#365);
#268=LINE('',#1595,#366);
#269=LINE('',#1597,#367);
#270=LINE('',#1599,#368);
#271=LINE('',#1601,#369);
#272=LINE('',#1602,#370);
#273=LINE('',#1605,#371);
#274=LINE('',#1609,#372);
#275=LINE('',#1610,#373);
#276=LINE('',#1618,#374);
#277=LINE('',#1622,#375);
#278=LINE('',#1630,#376);
#279=LINE('',#1635,#377);
#280=LINE('',#1638,#378);
#281=LINE('',#1643,#379);
#282=LINE('',#1646,#380);
#283=LINE('',#1651,#381);
#284=LINE('',#1654,#382);
#285=LINE('',#1659,#383);
#286=LINE('',#1664,#384);
#287=LINE('',#1668,#385);
#288=LINE('',#1675,#386);
#289=LINE('',#1679,#387);
#290=LINE('',#1686,#388);
#291=LINE('',#1690,#389);
#292=LINE('',#1697,#390);
#293=LINE('',#1701,#391);
#294=LINE('',#1707,#392);
#295=LINE('',#1709,#393);
#296=LINE('',#1711,#394);
#297=LINE('',#1712,#395);
#298=LINE('',#1716,#396);
#299=LINE('',#1722,#397);
#300=LINE('',#1723,#398);
#301=LINE('',#1724,#399);
#302=LINE('',#1729,#400);
#303=LINE('',#1730,#401);
#304=LINE('',#1732,#402);
#305=LINE('',#1735,#403);
#306=LINE('',#1740,#404);
#307=LINE('',#1742,#405);
#308=LINE('',#1744,#406);
#309=LINE('',#1745,#407);
#310=LINE('',#1748,#408);
#311=LINE('',#1750,#409);
#312=LINE('',#1751,#410);
#313=LINE('',#1754,#411);
#314=LINE('',#1756,#412);
#315=LINE('',#1757,#413);
#316=LINE('',#1760,#414);
#317=LINE('',#1761,#415);
#318=LINE('',#1763,#416);
#319=LINE('',#1764,#417);
#320=LINE('',#1767,#418);
#321=LINE('',#1771,#419);
#322=LINE('',#1775,#420);
#323=LINE('',#1776,#421);
#324=LINE('',#1780,#422);
#325=LINE('',#1782,#423);
#326=LINE('',#1783,#424);
#327=LINE('',#1786,#425);
#328=LINE('',#1787,#426);
#329=LINE('',#1789,#427);
#330=LINE('',#1793,#428);
#331=LINE('',#1795,#429);
#332=LINE('',#1799,#430);
#333=LINE('',#1802,#431);
#334=LINE('',#1805,#432);
#335=LINE('',#1807,#433);
#336=LINE('',#1808,#434);
#337=LINE('',#1816,#435);
#338=LINE('',#1821,#436);
#339=LINE('',#1825,#437);
#340=LINE('',#1829,#438);
#341=LINE('',#1832,#439);
#342=LINE('',#1833,#440);
#343=LINE('',#1835,#441);
#344=LINE('',#1837,#442);
#345=LINE('',#1839,#443);
#346=LINE('',#1841,#444);
#347=VECTOR('',#1206,10.);
#348=VECTOR('',#1207,10.);
#349=VECTOR('',#1208,10.);
#350=VECTOR('',#1209,10.);
#351=VECTOR('',#1212,10.);
#352=VECTOR('',#1219,10.);
#353=VECTOR('',#1220,10.);
#354=VECTOR('',#1221,10.);
#355=VECTOR('',#1224,10.);
#356=VECTOR('',#1231,10.);
#357=VECTOR('',#1232,10.);
#358=VECTOR('',#1233,10.);
#359=VECTOR('',#1236,10.);
#360=VECTOR('',#1243,10.);
#361=VECTOR('',#1244,10.);
#362=VECTOR('',#1245,10.);
#363=VECTOR('',#1254,10.);
#364=VECTOR('',#1257,10.);
#365=VECTOR('',#1260,10.);
#366=VECTOR('',#1261,10.);
#367=VECTOR('',#1262,10.);
#368=VECTOR('',#1263,10.);
#369=VECTOR('',#1264,10.);
#370=VECTOR('',#1265,10.);
#371=VECTOR('',#1268,10.);
#372=VECTOR('',#1273,10.);
#373=VECTOR('',#1274,10.);
#374=VECTOR('',#1281,10.);
#375=VECTOR('',#1284,10.);
#376=VECTOR('',#1293,4.1);
#377=VECTOR('',#1300,3.1);
#378=VECTOR('',#1303,4.1);
#379=VECTOR('',#1310,3.1);
#380=VECTOR('',#1313,4.1);
#381=VECTOR('',#1320,3.1);
#382=VECTOR('',#1323,4.1);
#383=VECTOR('',#1330,3.1);
#384=VECTOR('',#1335,1.5);
#385=VECTOR('',#1340,1.);
#386=VECTOR('',#1349,1.5);
#387=VECTOR('',#1354,1.);
#388=VECTOR('',#1363,1.5);
#389=VECTOR('',#1368,1.);
#390=VECTOR('',#1377,1.5);
#391=VECTOR('',#1382,1.);
#392=VECTOR('',#1389,10.);
#393=VECTOR('',#1390,10.);
#394=VECTOR('',#1391,10.);
#395=VECTOR('',#1392,10.);
#396=VECTOR('',#1395,10.);
#397=VECTOR('',#1402,10.);
#398=VECTOR('',#1403,10.);
#399=VECTOR('',#1404,10.);
#400=VECTOR('',#1413,10.);
#401=VECTOR('',#1414,10.);
#402=VECTOR('',#1417,10.);
#403=VECTOR('',#1422,10.);
#404=VECTOR('',#1427,10.);
#405=VECTOR('',#1428,10.);
#406=VECTOR('',#1429,10.);
#407=VECTOR('',#1430,10.);
#408=VECTOR('',#1433,10.);
#409=VECTOR('',#1434,10.);
#410=VECTOR('',#1435,10.);
#411=VECTOR('',#1438,10.);
#412=VECTOR('',#1439,10.);
#413=VECTOR('',#1440,10.);
#414=VECTOR('',#1443,10.);
#415=VECTOR('',#1444,10.);
#416=VECTOR('',#1445,10.);
#417=VECTOR('',#1446,10.);
#418=VECTOR('',#1449,10.);
#419=VECTOR('',#1452,10.);
#420=VECTOR('',#1455,10.);
#421=VECTOR('',#1456,10.);
#422=VECTOR('',#1461,10.);
#423=VECTOR('',#1462,10.);
#424=VECTOR('',#1463,10.);
#425=VECTOR('',#1466,10.);
#426=VECTOR('',#1467,10.);
#427=VECTOR('',#1470,10.);
#428=VECTOR('',#1475,10.);
#429=VECTOR('',#1476,10.);
#430=VECTOR('',#1479,10.);
#431=VECTOR('',#1482,10.);
#432=VECTOR('',#1485,10.);
#433=VECTOR('',#1486,10.);
#434=VECTOR('',#1487,10.);
#435=VECTOR('',#1498,10.);
#436=VECTOR('',#1503,10.);
#437=VECTOR('',#1506,10.);
#438=VECTOR('',#1513,10.);
#439=VECTOR('',#1518,10.);
#440=VECTOR('',#1519,10.);
#441=VECTOR('',#1522,10.);
#442=VECTOR('',#1525,10.);
#443=VECTOR('',#1528,10.);
#444=VECTOR('',#1531,10.);
#445=VERTEX_POINT('',#1538);
#446=VERTEX_POINT('',#1539);
#447=VERTEX_POINT('',#1541);
#448=VERTEX_POINT('',#1543);
#449=VERTEX_POINT('',#1547);
#450=VERTEX_POINT('',#1548);
#451=VERTEX_POINT('',#1553);
#452=VERTEX_POINT('',#1554);
#453=VERTEX_POINT('',#1559);
#454=VERTEX_POINT('',#1560);
#455=VERTEX_POINT('',#1565);
#456=VERTEX_POINT('',#1566);
#457=VERTEX_POINT('',#1571);
#458=VERTEX_POINT('',#1572);
#459=VERTEX_POINT('',#1577);
#460=VERTEX_POINT('',#1578);
#461=VERTEX_POINT('',#1586);
#462=VERTEX_POINT('',#1588);
#463=VERTEX_POINT('',#1592);
#464=VERTEX_POINT('',#1594);
#465=VERTEX_POINT('',#1596);
#466=VERTEX_POINT('',#1598);
#467=VERTEX_POINT('',#1600);
#468=VERTEX_POINT('',#1604);
#469=VERTEX_POINT('',#1608);
#470=VERTEX_POINT('',#1612);
#471=VERTEX_POINT('',#1614);
#472=VERTEX_POINT('',#1616);
#473=VERTEX_POINT('',#1617);
#474=VERTEX_POINT('',#1619);
#475=VERTEX_POINT('',#1621);
#476=VERTEX_POINT('',#1624);
#477=VERTEX_POINT('',#1626);
#478=VERTEX_POINT('',#1629);
#479=VERTEX_POINT('',#1633);
#480=VERTEX_POINT('',#1637);
#481=VERTEX_POINT('',#1641);
#482=VERTEX_POINT('',#1645);
#483=VERTEX_POINT('',#1649);
#484=VERTEX_POINT('',#1653);
#485=VERTEX_POINT('',#1657);
#486=VERTEX_POINT('',#1661);
#487=VERTEX_POINT('',#1663);
#488=VERTEX_POINT('',#1667);
#489=VERTEX_POINT('',#1672);
#490=VERTEX_POINT('',#1674);
#491=VERTEX_POINT('',#1678);
#492=VERTEX_POINT('',#1683);
#493=VERTEX_POINT('',#1685);
#494=VERTEX_POINT('',#1689);
#495=VERTEX_POINT('',#1694);
#496=VERTEX_POINT('',#1696);
#497=VERTEX_POINT('',#1700);
#498=VERTEX_POINT('',#1705);
#499=VERTEX_POINT('',#1706);
#500=VERTEX_POINT('',#1708);
#501=VERTEX_POINT('',#1710);
#502=VERTEX_POINT('',#1714);
#503=VERTEX_POINT('',#1715);
#504=VERTEX_POINT('',#1720);
#505=VERTEX_POINT('',#1721);
#506=VERTEX_POINT('',#1738);
#507=VERTEX_POINT('',#1739);
#508=VERTEX_POINT('',#1741);
#509=VERTEX_POINT('',#1743);
#510=VERTEX_POINT('',#1747);
#511=VERTEX_POINT('',#1749);
#512=VERTEX_POINT('',#1753);
#513=VERTEX_POINT('',#1755);
#514=VERTEX_POINT('',#1759);
#515=VERTEX_POINT('',#1762);
#516=VERTEX_POINT('',#1766);
#517=VERTEX_POINT('',#1768);
#518=VERTEX_POINT('',#1770);
#519=VERTEX_POINT('',#1772);
#520=VERTEX_POINT('',#1774);
#521=VERTEX_POINT('',#1779);
#522=VERTEX_POINT('',#1781);
#523=VERTEX_POINT('',#1785);
#524=VERTEX_POINT('',#1791);
#525=VERTEX_POINT('',#1794);
#526=VERTEX_POINT('',#1796);
#527=VERTEX_POINT('',#1798);
#528=VERTEX_POINT('',#1800);
#529=VERTEX_POINT('',#1804);
#530=VERTEX_POINT('',#1806);
#531=VERTEX_POINT('',#1814);
#532=VERTEX_POINT('',#1815);
#533=VERTEX_POINT('',#1818);
#534=VERTEX_POINT('',#1820);
#535=VERTEX_POINT('',#1822);
#536=VERTEX_POINT('',#1824);
#537=EDGE_CURVE('',#445,#446,#249,.T.);
#538=EDGE_CURVE('',#446,#447,#250,.T.);
#539=EDGE_CURVE('',#447,#448,#251,.T.);
#540=EDGE_CURVE('',#448,#445,#252,.T.);
#541=EDGE_CURVE('',#449,#450,#253,.T.);
#542=EDGE_CURVE('',#450,#446,#42,.T.);
#543=EDGE_CURVE('',#445,#449,#43,.T.);
#544=EDGE_CURVE('',#451,#452,#254,.T.);
#545=EDGE_CURVE('',#452,#450,#255,.T.);
#546=EDGE_CURVE('',#449,#451,#256,.T.);
#547=EDGE_CURVE('',#453,#454,#257,.T.);
#548=EDGE_CURVE('',#454,#452,#44,.T.);
#549=EDGE_CURVE('',#451,#453,#45,.T.);
#550=EDGE_CURVE('',#455,#456,#258,.T.);
#551=EDGE_CURVE('',#456,#454,#259,.T.);
#552=EDGE_CURVE('',#453,#455,#260,.T.);
#553=EDGE_CURVE('',#457,#458,#261,.T.);
#554=EDGE_CURVE('',#458,#456,#46,.T.);
#555=EDGE_CURVE('',#455,#457,#47,.T.);
#556=EDGE_CURVE('',#459,#460,#262,.T.);
#557=EDGE_CURVE('',#460,#458,#263,.T.);
#558=EDGE_CURVE('',#457,#459,#264,.T.);
#559=EDGE_CURVE('',#447,#460,#48,.T.);
#560=EDGE_CURVE('',#459,#448,#49,.T.);
#561=EDGE_CURVE('',#461,#451,#265,.T.);
#562=EDGE_CURVE('',#461,#462,#50,.T.);
#563=EDGE_CURVE('',#462,#453,#266,.T.);
#564=EDGE_CURVE('',#463,#449,#267,.T.);
#565=EDGE_CURVE('',#463,#464,#268,.T.);
#566=EDGE_CURVE('',#464,#465,#269,.T.);
#567=EDGE_CURVE('',#465,#466,#270,.T.);
#568=EDGE_CURVE('',#466,#467,#271,.T.);
#569=EDGE_CURVE('',#467,#461,#272,.T.);
#570=EDGE_CURVE('',#468,#445,#273,.T.);
#571=EDGE_CURVE('',#468,#463,#51,.T.);
#572=EDGE_CURVE('',#469,#448,#274,.T.);
#573=EDGE_CURVE('',#469,#468,#275,.T.);
#574=EDGE_CURVE('',#470,#470,#52,.T.);
#575=EDGE_CURVE('',#471,#471,#53,.T.);
#576=EDGE_CURVE('',#472,#473,#276,.T.);
#577=EDGE_CURVE('',#473,#474,#54,.T.);
#578=EDGE_CURVE('',#474,#475,#277,.T.);
#579=EDGE_CURVE('',#475,#472,#55,.T.);
#580=EDGE_CURVE('',#476,#476,#56,.T.);
#581=EDGE_CURVE('',#477,#477,#57,.T.);
#582=EDGE_CURVE('',#470,#478,#278,.T.);
#583=EDGE_CURVE('',#478,#478,#58,.T.);
#584=EDGE_CURVE('',#479,#479,#59,.T.);
#585=EDGE_CURVE('',#479,#478,#279,.T.);
#586=EDGE_CURVE('',#477,#480,#280,.T.);
#587=EDGE_CURVE('',#480,#480,#60,.T.);
#588=EDGE_CURVE('',#481,#481,#61,.T.);
#589=EDGE_CURVE('',#481,#480,#281,.T.);
#590=EDGE_CURVE('',#471,#482,#282,.T.);
#591=EDGE_CURVE('',#482,#482,#62,.T.);
#592=EDGE_CURVE('',#483,#483,#63,.T.);
#593=EDGE_CURVE('',#483,#482,#283,.T.);
#594=EDGE_CURVE('',#476,#484,#284,.T.);
#595=EDGE_CURVE('',#484,#484,#64,.T.);
#596=EDGE_CURVE('',#485,#485,#65,.T.);
#597=EDGE_CURVE('',#485,#484,#285,.T.);
#598=EDGE_CURVE('',#486,#486,#66,.T.);
#599=EDGE_CURVE('',#486,#487,#286,.T.);
#600=EDGE_CURVE('',#487,#487,#67,.T.);
#601=EDGE_CURVE('',#487,#488,#287,.T.);
#602=EDGE_CURVE('',#488,#488,#68,.T.);
#603=EDGE_CURVE('',#489,#489,#69,.T.);
#604=EDGE_CURVE('',#489,#490,#288,.T.);
#605=EDGE_CURVE('',#490,#490,#70,.T.);
#606=EDGE_CURVE('',#490,#491,#289,.T.);
#607=EDGE_CURVE('',#491,#491,#71,.T.);
#608=EDGE_CURVE('',#492,#492,#72,.T.);
#609=EDGE_CURVE('',#492,#493,#290,.T.);
#610=EDGE_CURVE('',#493,#493,#73,.T.);
#611=EDGE_CURVE('',#493,#494,#291,.T.);
#612=EDGE_CURVE('',#494,#494,#74,.T.);
#613=EDGE_CURVE('',#495,#495,#75,.T.);
#614=EDGE_CURVE('',#495,#496,#292,.T.);
#615=EDGE_CURVE('',#496,#496,#76,.T.);
#616=EDGE_CURVE('',#496,#497,#293,.T.);
#617=EDGE_CURVE('',#497,#497,#77,.T.);
#618=EDGE_CURVE('',#498,#499,#294,.T.);
#619=EDGE_CURVE('',#499,#500,#295,.T.);
#620=EDGE_CURVE('',#500,#501,#296,.T.);
#621=EDGE_CURVE('',#501,#498,#297,.T.);
#622=EDGE_CURVE('',#502,#503,#298,.T.);
#623=EDGE_CURVE('',#503,#499,#78,.T.);
#624=EDGE_CURVE('',#498,#502,#79,.T.);
#625=EDGE_CURVE('',#504,#505,#299,.T.);
#626=EDGE_CURVE('',#505,#503,#300,.T.);
#627=EDGE_CURVE('',#502,#504,#301,.T.);
#628=EDGE_CURVE('',#500,#505,#80,.T.);
#629=EDGE_CURVE('',#504,#501,#81,.T.);
#630=EDGE_CURVE('',#474,#498,#302,.T.);
#631=EDGE_CURVE('',#473,#502,#303,.T.);
#632=EDGE_CURVE('',#475,#501,#304,.T.);
#633=EDGE_CURVE('',#472,#504,#305,.T.);
#634=EDGE_CURVE('',#506,#507,#306,.T.);
#635=EDGE_CURVE('',#508,#506,#307,.T.);
#636=EDGE_CURVE('',#509,#508,#308,.T.);
#637=EDGE_CURVE('',#509,#507,#309,.T.);
#638=EDGE_CURVE('',#507,#510,#310,.T.);
#639=EDGE_CURVE('',#511,#509,#311,.T.);
#640=EDGE_CURVE('',#510,#511,#312,.T.);
#641=EDGE_CURVE('',#512,#506,#313,.T.);
#642=EDGE_CURVE('',#513,#512,#314,.T.);
#643=EDGE_CURVE('',#508,#513,#315,.T.);
#644=EDGE_CURVE('',#514,#457,#316,.T.);
#645=EDGE_CURVE('',#514,#512,#317,.T.);
#646=EDGE_CURVE('',#510,#515,#318,.T.);
#647=EDGE_CURVE('',#515,#459,#319,.T.);
#648=EDGE_CURVE('',#511,#516,#320,.T.);
#649=EDGE_CURVE('',#517,#516,#82,.T.);
#650=EDGE_CURVE('',#517,#518,#321,.T.);
#651=EDGE_CURVE('',#519,#518,#83,.T.);
#652=EDGE_CURVE('',#519,#520,#322,.T.);
#653=EDGE_CURVE('',#520,#464,#323,.T.);
#654=EDGE_CURVE('',#515,#469,#84,.T.);
#655=EDGE_CURVE('',#521,#466,#324,.T.);
#656=EDGE_CURVE('',#522,#521,#325,.T.);
#657=EDGE_CURVE('',#467,#522,#326,.T.);
#658=EDGE_CURVE('',#523,#520,#327,.T.);
#659=EDGE_CURVE('',#523,#465,#328,.T.);
#660=EDGE_CURVE('',#521,#523,#329,.T.);
#661=EDGE_CURVE('',#524,#514,#85,.T.);
#662=EDGE_CURVE('',#462,#524,#330,.T.);
#663=EDGE_CURVE('',#522,#525,#331,.T.);
#664=EDGE_CURVE('',#526,#525,#86,.T.);
#665=EDGE_CURVE('',#526,#527,#332,.T.);
#666=EDGE_CURVE('',#528,#527,#87,.T.);
#667=EDGE_CURVE('',#528,#513,#333,.T.);
#668=EDGE_CURVE('',#519,#529,#334,.T.);
#669=EDGE_CURVE('',#530,#529,#335,.T.);
#670=EDGE_CURVE('',#525,#530,#336,.T.);
#671=EDGE_CURVE('',#531,#532,#337,.T.);
#672=EDGE_CURVE('',#532,#530,#88,.T.);
#673=EDGE_CURVE('',#529,#533,#89,.T.);
#674=EDGE_CURVE('',#533,#534,#338,.T.);
#675=EDGE_CURVE('',#534,#535,#90,.T.);
#676=EDGE_CURVE('',#535,#536,#339,.T.);
#677=EDGE_CURVE('',#536,#531,#91,.T.);
#678=EDGE_CURVE('',#524,#455,#340,.T.);
#679=EDGE_CURVE('',#526,#532,#341,.T.);
#680=EDGE_CURVE('',#527,#531,#342,.T.);
#681=EDGE_CURVE('',#528,#536,#343,.T.);
#682=EDGE_CURVE('',#516,#535,#344,.T.);
#683=EDGE_CURVE('',#517,#534,#345,.T.);
#684=EDGE_CURVE('',#518,#533,#346,.T.);
#685=ORIENTED_EDGE('',*,*,#537,.T.);
#686=ORIENTED_EDGE('',*,*,#538,.T.);
#687=ORIENTED_EDGE('',*,*,#539,.T.);
#688=ORIENTED_EDGE('',*,*,#540,.T.);
#689=ORIENTED_EDGE('',*,*,#541,.T.);
#690=ORIENTED_EDGE('',*,*,#542,.T.);
#691=ORIENTED_EDGE('',*,*,#537,.F.);
#692=ORIENTED_EDGE('',*,*,#543,.T.);
#693=ORIENTED_EDGE('',*,*,#544,.T.);
#694=ORIENTED_EDGE('',*,*,#545,.T.);
#695=ORIENTED_EDGE('',*,*,#541,.F.);
#696=ORIENTED_EDGE('',*,*,#546,.T.);
#697=ORIENTED_EDGE('',*,*,#547,.T.);
#698=ORIENTED_EDGE('',*,*,#548,.T.);
#699=ORIENTED_EDGE('',*,*,#544,.F.);
#700=ORIENTED_EDGE('',*,*,#549,.T.);
#701=ORIENTED_EDGE('',*,*,#550,.T.);
#702=ORIENTED_EDGE('',*,*,#551,.T.);
#703=ORIENTED_EDGE('',*,*,#547,.F.);
#704=ORIENTED_EDGE('',*,*,#552,.T.);
#705=ORIENTED_EDGE('',*,*,#553,.T.);
#706=ORIENTED_EDGE('',*,*,#554,.T.);
#707=ORIENTED_EDGE('',*,*,#550,.F.);
#708=ORIENTED_EDGE('',*,*,#555,.T.);
#709=ORIENTED_EDGE('',*,*,#556,.T.);
#710=ORIENTED_EDGE('',*,*,#557,.T.);
#711=ORIENTED_EDGE('',*,*,#553,.F.);
#712=ORIENTED_EDGE('',*,*,#558,.T.);
#713=ORIENTED_EDGE('',*,*,#539,.F.);
#714=ORIENTED_EDGE('',*,*,#559,.T.);
#715=ORIENTED_EDGE('',*,*,#556,.F.);
#716=ORIENTED_EDGE('',*,*,#560,.T.);
#717=ORIENTED_EDGE('',*,*,#549,.F.);
#718=ORIENTED_EDGE('',*,*,#561,.F.);
#719=ORIENTED_EDGE('',*,*,#562,.T.);
#720=ORIENTED_EDGE('',*,*,#563,.T.);
#721=ORIENTED_EDGE('',*,*,#546,.F.);
#722=ORIENTED_EDGE('',*,*,#564,.F.);
#723=ORIENTED_EDGE('',*,*,#565,.T.);
#724=ORIENTED_EDGE('',*,*,#566,.T.);
#725=ORIENTED_EDGE('',*,*,#567,.T.);
#726=ORIENTED_EDGE('',*,*,#568,.T.);
#727=ORIENTED_EDGE('',*,*,#569,.T.);
#728=ORIENTED_EDGE('',*,*,#561,.T.);
#729=ORIENTED_EDGE('',*,*,#543,.F.);
#730=ORIENTED_EDGE('',*,*,#570,.F.);
#731=ORIENTED_EDGE('',*,*,#571,.T.);
#732=ORIENTED_EDGE('',*,*,#564,.T.);
#733=ORIENTED_EDGE('',*,*,#540,.F.);
#734=ORIENTED_EDGE('',*,*,#572,.F.);
#735=ORIENTED_EDGE('',*,*,#573,.T.);
#736=ORIENTED_EDGE('',*,*,#570,.T.);
#737=ORIENTED_EDGE('',*,*,#538,.F.);
#738=ORIENTED_EDGE('',*,*,#542,.F.);
#739=ORIENTED_EDGE('',*,*,#545,.F.);
#740=ORIENTED_EDGE('',*,*,#548,.F.);
#741=ORIENTED_EDGE('',*,*,#551,.F.);
#742=ORIENTED_EDGE('',*,*,#554,.F.);
#743=ORIENTED_EDGE('',*,*,#557,.F.);
#744=ORIENTED_EDGE('',*,*,#559,.F.);
#745=ORIENTED_EDGE('',*,*,#574,.F.);
#746=ORIENTED_EDGE('',*,*,#575,.F.);
#747=ORIENTED_EDGE('',*,*,#576,.T.);
#748=ORIENTED_EDGE('',*,*,#577,.T.);
#749=ORIENTED_EDGE('',*,*,#578,.T.);
#750=ORIENTED_EDGE('',*,*,#579,.T.);
#751=ORIENTED_EDGE('',*,*,#580,.F.);
#752=ORIENTED_EDGE('',*,*,#581,.F.);
#753=ORIENTED_EDGE('',*,*,#574,.T.);
#754=ORIENTED_EDGE('',*,*,#582,.T.);
#755=ORIENTED_EDGE('',*,*,#583,.T.);
#756=ORIENTED_EDGE('',*,*,#582,.F.);
#757=ORIENTED_EDGE('',*,*,#584,.F.);
#758=ORIENTED_EDGE('',*,*,#585,.T.);
#759=ORIENTED_EDGE('',*,*,#583,.F.);
#760=ORIENTED_EDGE('',*,*,#585,.F.);
#761=ORIENTED_EDGE('',*,*,#581,.T.);
#762=ORIENTED_EDGE('',*,*,#586,.T.);
#763=ORIENTED_EDGE('',*,*,#587,.T.);
#764=ORIENTED_EDGE('',*,*,#586,.F.);
#765=ORIENTED_EDGE('',*,*,#588,.F.);
#766=ORIENTED_EDGE('',*,*,#589,.T.);
#767=ORIENTED_EDGE('',*,*,#587,.F.);
#768=ORIENTED_EDGE('',*,*,#589,.F.);
#769=ORIENTED_EDGE('',*,*,#575,.T.);
#770=ORIENTED_EDGE('',*,*,#590,.T.);
#771=ORIENTED_EDGE('',*,*,#591,.T.);
#772=ORIENTED_EDGE('',*,*,#590,.F.);
#773=ORIENTED_EDGE('',*,*,#592,.F.);
#774=ORIENTED_EDGE('',*,*,#593,.T.);
#775=ORIENTED_EDGE('',*,*,#591,.F.);
#776=ORIENTED_EDGE('',*,*,#593,.F.);
#777=ORIENTED_EDGE('',*,*,#580,.T.);
#778=ORIENTED_EDGE('',*,*,#594,.T.);
#779=ORIENTED_EDGE('',*,*,#595,.T.);
#780=ORIENTED_EDGE('',*,*,#594,.F.);
#781=ORIENTED_EDGE('',*,*,#596,.F.);
#782=ORIENTED_EDGE('',*,*,#597,.T.);
#783=ORIENTED_EDGE('',*,*,#595,.F.);
#784=ORIENTED_EDGE('',*,*,#597,.F.);
#785=ORIENTED_EDGE('',*,*,#598,.F.);
#786=ORIENTED_EDGE('',*,*,#599,.T.);
#787=ORIENTED_EDGE('',*,*,#600,.T.);
#788=ORIENTED_EDGE('',*,*,#599,.F.);
#789=ORIENTED_EDGE('',*,*,#600,.F.);
#790=ORIENTED_EDGE('',*,*,#601,.T.);
#791=ORIENTED_EDGE('',*,*,#602,.T.);
#792=ORIENTED_EDGE('',*,*,#601,.F.);
#793=ORIENTED_EDGE('',*,*,#602,.F.);
#794=ORIENTED_EDGE('',*,*,#603,.F.);
#795=ORIENTED_EDGE('',*,*,#604,.T.);
#796=ORIENTED_EDGE('',*,*,#605,.T.);
#797=ORIENTED_EDGE('',*,*,#604,.F.);
#798=ORIENTED_EDGE('',*,*,#605,.F.);
#799=ORIENTED_EDGE('',*,*,#606,.T.);
#800=ORIENTED_EDGE('',*,*,#607,.T.);
#801=ORIENTED_EDGE('',*,*,#606,.F.);
#802=ORIENTED_EDGE('',*,*,#607,.F.);
#803=ORIENTED_EDGE('',*,*,#608,.F.);
#804=ORIENTED_EDGE('',*,*,#609,.T.);
#805=ORIENTED_EDGE('',*,*,#610,.T.);
#806=ORIENTED_EDGE('',*,*,#609,.F.);
#807=ORIENTED_EDGE('',*,*,#610,.F.);
#808=ORIENTED_EDGE('',*,*,#611,.T.);
#809=ORIENTED_EDGE('',*,*,#612,.T.);
#810=ORIENTED_EDGE('',*,*,#611,.F.);
#811=ORIENTED_EDGE('',*,*,#612,.F.);
#812=ORIENTED_EDGE('',*,*,#613,.F.);
#813=ORIENTED_EDGE('',*,*,#614,.T.);
#814=ORIENTED_EDGE('',*,*,#615,.T.);
#815=ORIENTED_EDGE('',*,*,#614,.F.);
#816=ORIENTED_EDGE('',*,*,#615,.F.);
#817=ORIENTED_EDGE('',*,*,#616,.T.);
#818=ORIENTED_EDGE('',*,*,#617,.T.);
#819=ORIENTED_EDGE('',*,*,#616,.F.);
#820=ORIENTED_EDGE('',*,*,#617,.F.);
#821=ORIENTED_EDGE('',*,*,#618,.T.);
#822=ORIENTED_EDGE('',*,*,#619,.T.);
#823=ORIENTED_EDGE('',*,*,#620,.T.);
#824=ORIENTED_EDGE('',*,*,#621,.T.);
#825=ORIENTED_EDGE('',*,*,#622,.T.);
#826=ORIENTED_EDGE('',*,*,#623,.T.);
#827=ORIENTED_EDGE('',*,*,#618,.F.);
#828=ORIENTED_EDGE('',*,*,#624,.T.);
#829=ORIENTED_EDGE('',*,*,#625,.T.);
#830=ORIENTED_EDGE('',*,*,#626,.T.);
#831=ORIENTED_EDGE('',*,*,#622,.F.);
#832=ORIENTED_EDGE('',*,*,#627,.T.);
#833=ORIENTED_EDGE('',*,*,#620,.F.);
#834=ORIENTED_EDGE('',*,*,#628,.T.);
#835=ORIENTED_EDGE('',*,*,#625,.F.);
#836=ORIENTED_EDGE('',*,*,#629,.T.);
#837=ORIENTED_EDGE('',*,*,#624,.F.);
#838=ORIENTED_EDGE('',*,*,#630,.F.);
#839=ORIENTED_EDGE('',*,*,#577,.F.);
#840=ORIENTED_EDGE('',*,*,#631,.T.);
#841=ORIENTED_EDGE('',*,*,#621,.F.);
#842=ORIENTED_EDGE('',*,*,#632,.F.);
#843=ORIENTED_EDGE('',*,*,#578,.F.);
#844=ORIENTED_EDGE('',*,*,#630,.T.);
#845=ORIENTED_EDGE('',*,*,#619,.F.);
#846=ORIENTED_EDGE('',*,*,#623,.F.);
#847=ORIENTED_EDGE('',*,*,#626,.F.);
#848=ORIENTED_EDGE('',*,*,#628,.F.);
#849=ORIENTED_EDGE('',*,*,#629,.F.);
#850=ORIENTED_EDGE('',*,*,#633,.F.);
#851=ORIENTED_EDGE('',*,*,#579,.F.);
#852=ORIENTED_EDGE('',*,*,#632,.T.);
#853=ORIENTED_EDGE('',*,*,#627,.F.);
#854=ORIENTED_EDGE('',*,*,#631,.F.);
#855=ORIENTED_EDGE('',*,*,#576,.F.);
#856=ORIENTED_EDGE('',*,*,#633,.T.);
#857=ORIENTED_EDGE('',*,*,#634,.F.);
#858=ORIENTED_EDGE('',*,*,#635,.F.);
#859=ORIENTED_EDGE('',*,*,#636,.F.);
#860=ORIENTED_EDGE('',*,*,#637,.T.);
#861=ORIENTED_EDGE('',*,*,#638,.F.);
#862=ORIENTED_EDGE('',*,*,#637,.F.);
#863=ORIENTED_EDGE('',*,*,#639,.F.);
#864=ORIENTED_EDGE('',*,*,#640,.F.);
#865=ORIENTED_EDGE('',*,*,#641,.F.);
#866=ORIENTED_EDGE('',*,*,#642,.F.);
#867=ORIENTED_EDGE('',*,*,#643,.F.);
#868=ORIENTED_EDGE('',*,*,#635,.T.);
#869=ORIENTED_EDGE('',*,*,#558,.F.);
#870=ORIENTED_EDGE('',*,*,#644,.F.);
#871=ORIENTED_EDGE('',*,*,#645,.T.);
#872=ORIENTED_EDGE('',*,*,#641,.T.);
#873=ORIENTED_EDGE('',*,*,#634,.T.);
#874=ORIENTED_EDGE('',*,*,#638,.T.);
#875=ORIENTED_EDGE('',*,*,#646,.T.);
#876=ORIENTED_EDGE('',*,*,#647,.T.);
#877=ORIENTED_EDGE('',*,*,#640,.T.);
#878=ORIENTED_EDGE('',*,*,#648,.T.);
#879=ORIENTED_EDGE('',*,*,#649,.F.);
#880=ORIENTED_EDGE('',*,*,#650,.T.);
#881=ORIENTED_EDGE('',*,*,#651,.F.);
#882=ORIENTED_EDGE('',*,*,#652,.T.);
#883=ORIENTED_EDGE('',*,*,#653,.T.);
#884=ORIENTED_EDGE('',*,*,#565,.F.);
#885=ORIENTED_EDGE('',*,*,#571,.F.);
#886=ORIENTED_EDGE('',*,*,#573,.F.);
#887=ORIENTED_EDGE('',*,*,#654,.F.);
#888=ORIENTED_EDGE('',*,*,#646,.F.);
#889=ORIENTED_EDGE('',*,*,#568,.F.);
#890=ORIENTED_EDGE('',*,*,#655,.F.);
#891=ORIENTED_EDGE('',*,*,#656,.F.);
#892=ORIENTED_EDGE('',*,*,#657,.F.);
#893=ORIENTED_EDGE('',*,*,#566,.F.);
#894=ORIENTED_EDGE('',*,*,#653,.F.);
#895=ORIENTED_EDGE('',*,*,#658,.F.);
#896=ORIENTED_EDGE('',*,*,#659,.T.);
#897=ORIENTED_EDGE('',*,*,#567,.F.);
#898=ORIENTED_EDGE('',*,*,#659,.F.);
#899=ORIENTED_EDGE('',*,*,#660,.F.);
#900=ORIENTED_EDGE('',*,*,#655,.T.);
#901=ORIENTED_EDGE('',*,*,#642,.T.);
#902=ORIENTED_EDGE('',*,*,#645,.F.);
#903=ORIENTED_EDGE('',*,*,#661,.F.);
#904=ORIENTED_EDGE('',*,*,#662,.F.);
#905=ORIENTED_EDGE('',*,*,#562,.F.);
#906=ORIENTED_EDGE('',*,*,#569,.F.);
#907=ORIENTED_EDGE('',*,*,#657,.T.);
#908=ORIENTED_EDGE('',*,*,#663,.T.);
#909=ORIENTED_EDGE('',*,*,#664,.F.);
#910=ORIENTED_EDGE('',*,*,#665,.T.);
#911=ORIENTED_EDGE('',*,*,#666,.F.);
#912=ORIENTED_EDGE('',*,*,#667,.T.);
#913=ORIENTED_EDGE('',*,*,#656,.T.);
#914=ORIENTED_EDGE('',*,*,#660,.T.);
#915=ORIENTED_EDGE('',*,*,#658,.T.);
#916=ORIENTED_EDGE('',*,*,#652,.F.);
#917=ORIENTED_EDGE('',*,*,#668,.T.);
#918=ORIENTED_EDGE('',*,*,#669,.F.);
#919=ORIENTED_EDGE('',*,*,#670,.F.);
#920=ORIENTED_EDGE('',*,*,#663,.F.);
#921=ORIENTED_EDGE('',*,*,#584,.T.);
#922=ORIENTED_EDGE('',*,*,#608,.T.);
#923=ORIENTED_EDGE('',*,*,#596,.T.);
#924=ORIENTED_EDGE('',*,*,#603,.T.);
#925=ORIENTED_EDGE('',*,*,#588,.T.);
#926=ORIENTED_EDGE('',*,*,#598,.T.);
#927=ORIENTED_EDGE('',*,*,#592,.T.);
#928=ORIENTED_EDGE('',*,*,#613,.T.);
#929=ORIENTED_EDGE('',*,*,#671,.T.);
#930=ORIENTED_EDGE('',*,*,#672,.T.);
#931=ORIENTED_EDGE('',*,*,#669,.T.);
#932=ORIENTED_EDGE('',*,*,#673,.T.);
#933=ORIENTED_EDGE('',*,*,#674,.T.);
#934=ORIENTED_EDGE('',*,*,#675,.T.);
#935=ORIENTED_EDGE('',*,*,#676,.T.);
#936=ORIENTED_EDGE('',*,*,#677,.T.);
#937=ORIENTED_EDGE('',*,*,#560,.F.);
#938=ORIENTED_EDGE('',*,*,#647,.F.);
#939=ORIENTED_EDGE('',*,*,#654,.T.);
#940=ORIENTED_EDGE('',*,*,#572,.T.);
#941=ORIENTED_EDGE('',*,*,#555,.F.);
#942=ORIENTED_EDGE('',*,*,#678,.F.);
#943=ORIENTED_EDGE('',*,*,#661,.T.);
#944=ORIENTED_EDGE('',*,*,#644,.T.);
#945=ORIENTED_EDGE('',*,*,#552,.F.);
#946=ORIENTED_EDGE('',*,*,#563,.F.);
#947=ORIENTED_EDGE('',*,*,#662,.T.);
#948=ORIENTED_EDGE('',*,*,#678,.T.);
#949=ORIENTED_EDGE('',*,*,#665,.F.);
#950=ORIENTED_EDGE('',*,*,#679,.T.);
#951=ORIENTED_EDGE('',*,*,#671,.F.);
#952=ORIENTED_EDGE('',*,*,#680,.F.);
#953=ORIENTED_EDGE('',*,*,#666,.T.);
#954=ORIENTED_EDGE('',*,*,#680,.T.);
#955=ORIENTED_EDGE('',*,*,#677,.F.);
#956=ORIENTED_EDGE('',*,*,#681,.F.);
#957=ORIENTED_EDGE('',*,*,#643,.T.);
#958=ORIENTED_EDGE('',*,*,#667,.F.);
#959=ORIENTED_EDGE('',*,*,#681,.T.);
#960=ORIENTED_EDGE('',*,*,#676,.F.);
#961=ORIENTED_EDGE('',*,*,#682,.F.);
#962=ORIENTED_EDGE('',*,*,#648,.F.);
#963=ORIENTED_EDGE('',*,*,#639,.T.);
#964=ORIENTED_EDGE('',*,*,#636,.T.);
#965=ORIENTED_EDGE('',*,*,#649,.T.);
#966=ORIENTED_EDGE('',*,*,#682,.T.);
#967=ORIENTED_EDGE('',*,*,#675,.F.);
#968=ORIENTED_EDGE('',*,*,#683,.F.);
#969=ORIENTED_EDGE('',*,*,#650,.F.);
#970=ORIENTED_EDGE('',*,*,#683,.T.);
#971=ORIENTED_EDGE('',*,*,#674,.F.);
#972=ORIENTED_EDGE('',*,*,#684,.F.);
#973=ORIENTED_EDGE('',*,*,#651,.T.);
#974=ORIENTED_EDGE('',*,*,#684,.T.);
#975=ORIENTED_EDGE('',*,*,#673,.F.);
#976=ORIENTED_EDGE('',*,*,#668,.F.);
#977=ORIENTED_EDGE('',*,*,#664,.T.);
#978=ORIENTED_EDGE('',*,*,#670,.T.);
#979=ORIENTED_EDGE('',*,*,#672,.F.);
#980=ORIENTED_EDGE('',*,*,#679,.F.);
#981=PLANE('',#1085);
#982=PLANE('',#1089);
#983=PLANE('',#1093);
#984=PLANE('',#1097);
#985=PLANE('',#1103);
#986=PLANE('',#1106);
#987=PLANE('',#1107);
#988=PLANE('',#1135);
#989=PLANE('',#1141);
#990=PLANE('',#1147);
#991=PLANE('',#1153);
#992=PLANE('',#1154);
#993=PLANE('',#1158);
#994=PLANE('',#1163);
#995=PLANE('',#1164);
#996=PLANE('',#1166);
#997=PLANE('',#1167);
#998=PLANE('',#1168);
#999=PLANE('',#1169);
#1000=PLANE('',#1170);
#1001=PLANE('',#1171);
#1002=PLANE('',#1175);
#1003=PLANE('',#1176);
#1004=PLANE('',#1177);
#1005=PLANE('',#1178);
#1006=PLANE('',#1182);
#1007=PLANE('',#1183);
#1008=PLANE('',#1184);
#1009=PLANE('',#1185);
#1010=PLANE('',#1186);
#1011=PLANE('',#1187);
#1012=PLANE('',#1194);
#1013=PLANE('',#1195);
#1014=PLANE('',#1197);
#1015=PLANE('',#1199);
#1016=ADVANCED_FACE('',(#106),#981,.T.);
#1017=ADVANCED_FACE('',(#107),#92,.F.);
#1018=ADVANCED_FACE('',(#108),#982,.T.);
#1019=ADVANCED_FACE('',(#109),#93,.F.);
#1020=ADVANCED_FACE('',(#110),#983,.T.);
#1021=ADVANCED_FACE('',(#111),#94,.F.);
#1022=ADVANCED_FACE('',(#112),#984,.T.);
#1023=ADVANCED_FACE('',(#113),#95,.F.);
#1024=ADVANCED_FACE('',(#114),#24,.F.);
#1025=ADVANCED_FACE('',(#115),#985,.T.);
#1026=ADVANCED_FACE('',(#116),#25,.F.);
#1027=ADVANCED_FACE('',(#117),#986,.T.);
#1028=ADVANCED_FACE('',(#118,#15,#16,#17,#18,#19),#987,.F.);
#1029=ADVANCED_FACE('',(#119),#96,.T.);
#1030=ADVANCED_FACE('',(#120),#26,.T.);
#1031=ADVANCED_FACE('',(#121),#97,.T.);
#1032=ADVANCED_FACE('',(#122),#27,.T.);
#1033=ADVANCED_FACE('',(#123),#98,.T.);
#1034=ADVANCED_FACE('',(#124),#28,.T.);
#1035=ADVANCED_FACE('',(#125),#99,.T.);
#1036=ADVANCED_FACE('',(#126),#29,.T.);
#1037=ADVANCED_FACE('',(#127),#100,.F.);
#1038=ADVANCED_FACE('',(#128),#30,.F.);
#1039=ADVANCED_FACE('',(#129),#988,.F.);
#1040=ADVANCED_FACE('',(#130),#101,.F.);
#1041=ADVANCED_FACE('',(#131),#31,.F.);
#1042=ADVANCED_FACE('',(#132),#989,.F.);
#1043=ADVANCED_FACE('',(#133),#102,.F.);
#1044=ADVANCED_FACE('',(#134),#32,.F.);
#1045=ADVANCED_FACE('',(#135),#990,.F.);
#1046=ADVANCED_FACE('',(#136),#103,.F.);
#1047=ADVANCED_FACE('',(#137),#33,.F.);
#1048=ADVANCED_FACE('',(#138),#991,.F.);
#1049=ADVANCED_FACE('',(#139),#992,.T.);
#1050=ADVANCED_FACE('',(#140),#104,.F.);
#1051=ADVANCED_FACE('',(#141),#993,.T.);
#1052=ADVANCED_FACE('',(#142),#105,.F.);
#1053=ADVANCED_FACE('',(#143),#34,.F.);
#1054=ADVANCED_FACE('',(#144),#994,.F.);
#1055=ADVANCED_FACE('',(#145),#995,.F.);
#1056=ADVANCED_FACE('',(#146),#35,.F.);
#1057=ADVANCED_FACE('',(#147),#996,.F.);
#1058=ADVANCED_FACE('',(#148),#997,.F.);
#1059=ADVANCED_FACE('',(#149),#998,.F.);
#1060=ADVANCED_FACE('',(#150),#999,.F.);
#1061=ADVANCED_FACE('',(#151),#1000,.T.);
#1062=ADVANCED_FACE('',(#152),#1001,.F.);
#1063=ADVANCED_FACE('',(#153),#1002,.F.);
#1064=ADVANCED_FACE('',(#154),#1003,.F.);
#1065=ADVANCED_FACE('',(#155),#1004,.F.);
#1066=ADVANCED_FACE('',(#156),#1005,.F.);
#1067=ADVANCED_FACE('',(#157),#1006,.T.);
#1068=ADVANCED_FACE('',(#158,#20),#1007,.T.);
#1069=ADVANCED_FACE('',(#159,#21),#1008,.T.);
#1070=ADVANCED_FACE('',(#160,#22),#1009,.T.);
#1071=ADVANCED_FACE('',(#161,#23),#1010,.T.);
#1072=ADVANCED_FACE('',(#162),#1011,.T.);
#1073=ADVANCED_FACE('',(#163),#36,.F.);
#1074=ADVANCED_FACE('',(#164),#37,.F.);
#1075=ADVANCED_FACE('',(#165),#1012,.T.);
#1076=ADVANCED_FACE('',(#166),#1013,.T.);
#1077=ADVANCED_FACE('',(#167),#38,.T.);
#1078=ADVANCED_FACE('',(#168),#1014,.T.);
#1079=ADVANCED_FACE('',(#169),#39,.T.);
#1080=ADVANCED_FACE('',(#170),#1015,.T.);
#1081=ADVANCED_FACE('',(#171),#40,.T.);
#1082=ADVANCED_FACE('',(#172),#41,.T.);
#1083=CLOSED_SHELL('',(#1016,#1017,#1018,#1019,#1020,#1021,#1022,#1023,
#1024,#1025,#1026,#1027,#1028,#1029,#1030,#1031,#1032,#1033,#1034,#1035,
#1036,#1037,#1038,#1039,#1040,#1041,#1042,#1043,#1044,#1045,#1046,#1047,
#1048,#1049,#1050,#1051,#1052,#1053,#1054,#1055,#1056,#1057,#1058,#1059,
#1060,#1061,#1062,#1063,#1064,#1065,#1066,#1067,#1068,#1069,#1070,#1071,
#1072,#1073,#1074,#1075,#1076,#1077,#1078,#1079,#1080,#1081,#1082));
#1084=AXIS2_PLACEMENT_3D('',#1536,#1202,#1203);
#1085=AXIS2_PLACEMENT_3D('',#1537,#1204,#1205);
#1086=AXIS2_PLACEMENT_3D('',#1546,#1210,#1211);
#1087=AXIS2_PLACEMENT_3D('',#1550,#1213,#1214);
#1088=AXIS2_PLACEMENT_3D('',#1551,#1215,#1216);
#1089=AXIS2_PLACEMENT_3D('',#1552,#1217,#1218);
#1090=AXIS2_PLACEMENT_3D('',#1558,#1222,#1223);
#1091=AXIS2_PLACEMENT_3D('',#1562,#1225,#1226);
#1092=AXIS2_PLACEMENT_3D('',#1563,#1227,#1228);
#1093=AXIS2_PLACEMENT_3D('',#1564,#1229,#1230);
#1094=AXIS2_PLACEMENT_3D('',#1570,#1234,#1235);
#1095=AXIS2_PLACEMENT_3D('',#1574,#1237,#1238);
#1096=AXIS2_PLACEMENT_3D('',#1575,#1239,#1240);
#1097=AXIS2_PLACEMENT_3D('',#1576,#1241,#1242);
#1098=AXIS2_PLACEMENT_3D('',#1582,#1246,#1247);
#1099=AXIS2_PLACEMENT_3D('',#1583,#1248,#1249);
#1100=AXIS2_PLACEMENT_3D('',#1584,#1250,#1251);
#1101=AXIS2_PLACEMENT_3D('',#1585,#1252,#1253);
#1102=AXIS2_PLACEMENT_3D('',#1589,#1255,#1256);
#1103=AXIS2_PLACEMENT_3D('',#1591,#1258,#1259);
#1104=AXIS2_PLACEMENT_3D('',#1603,#1266,#1267);
#1105=AXIS2_PLACEMENT_3D('',#1606,#1269,#1270);
#1106=AXIS2_PLACEMENT_3D('',#1607,#1271,#1272);
#1107=AXIS2_PLACEMENT_3D('',#1611,#1275,#1276);
#1108=AXIS2_PLACEMENT_3D('',#1613,#1277,#1278);
#1109=AXIS2_PLACEMENT_3D('',#1615,#1279,#1280);
#1110=AXIS2_PLACEMENT_3D('',#1620,#1282,#1283);
#1111=AXIS2_PLACEMENT_3D('',#1623,#1285,#1286);
#1112=AXIS2_PLACEMENT_3D('',#1625,#1287,#1288);
#1113=AXIS2_PLACEMENT_3D('',#1627,#1289,#1290);
#1114=AXIS2_PLACEMENT_3D('',#1628,#1291,#1292);
#1115=AXIS2_PLACEMENT_3D('',#1631,#1294,#1295);
#1116=AXIS2_PLACEMENT_3D('',#1632,#1296,#1297);
#1117=AXIS2_PLACEMENT_3D('',#1634,#1298,#1299);
#1118=AXIS2_PLACEMENT_3D('',#1636,#1301,#1302);
#1119=AXIS2_PLACEMENT_3D('',#1639,#1304,#1305);
#1120=AXIS2_PLACEMENT_3D('',#1640,#1306,#1307);
#1121=AXIS2_PLACEMENT_3D('',#1642,#1308,#1309);
#1122=AXIS2_PLACEMENT_3D('',#1644,#1311,#1312);
#1123=AXIS2_PLACEMENT_3D('',#1647,#1314,#1315);
#1124=AXIS2_PLACEMENT_3D('',#1648,#1316,#1317);
#1125=AXIS2_PLACEMENT_3D('',#1650,#1318,#1319);
#1126=AXIS2_PLACEMENT_3D('',#1652,#1321,#1322);
#1127=AXIS2_PLACEMENT_3D('',#1655,#1324,#1325);
#1128=AXIS2_PLACEMENT_3D('',#1656,#1326,#1327);
#1129=AXIS2_PLACEMENT_3D('',#1658,#1328,#1329);
#1130=AXIS2_PLACEMENT_3D('',#1660,#1331,#1332);
#1131=AXIS2_PLACEMENT_3D('',#1662,#1333,#1334);
#1132=AXIS2_PLACEMENT_3D('',#1665,#1336,#1337);
#1133=AXIS2_PLACEMENT_3D('',#1666,#1338,#1339);
#1134=AXIS2_PLACEMENT_3D('',#1669,#1341,#1342);
#1135=AXIS2_PLACEMENT_3D('',#1670,#1343,#1344);
#1136=AXIS2_PLACEMENT_3D('',#1671,#1345,#1346);
#1137=AXIS2_PLACEMENT_3D('',#1673,#1347,#1348);
#1138=AXIS2_PLACEMENT_3D('',#1676,#1350,#1351);
#1139=AXIS2_PLACEMENT_3D('',#1677,#1352,#1353);
#1140=AXIS2_PLACEMENT_3D('',#1680,#1355,#1356);
#1141=AXIS2_PLACEMENT_3D('',#1681,#1357,#1358);
#1142=AXIS2_PLACEMENT_3D('',#1682,#1359,#1360);
#1143=AXIS2_PLACEMENT_3D('',#1684,#1361,#1362);
#1144=AXIS2_PLACEMENT_3D('',#1687,#1364,#1365);
#1145=AXIS2_PLACEMENT_3D('',#1688,#1366,#1367);
#1146=AXIS2_PLACEMENT_3D('',#1691,#1369,#1370);
#1147=AXIS2_PLACEMENT_3D('',#1692,#1371,#1372);
#1148=AXIS2_PLACEMENT_3D('',#1693,#1373,#1374);
#1149=AXIS2_PLACEMENT_3D('',#1695,#1375,#1376);
#1150=AXIS2_PLACEMENT_3D('',#1698,#1378,#1379);
#1151=AXIS2_PLACEMENT_3D('',#1699,#1380,#1381);
#1152=AXIS2_PLACEMENT_3D('',#1702,#1383,#1384);
#1153=AXIS2_PLACEMENT_3D('',#1703,#1385,#1386);
#1154=AXIS2_PLACEMENT_3D('',#1704,#1387,#1388);
#1155=AXIS2_PLACEMENT_3D('',#1713,#1393,#1394);
#1156=AXIS2_PLACEMENT_3D('',#1717,#1396,#1397);
#1157=AXIS2_PLACEMENT_3D('',#1718,#1398,#1399);
#1158=AXIS2_PLACEMENT_3D('',#1719,#1400,#1401);
#1159=AXIS2_PLACEMENT_3D('',#1725,#1405,#1406);
#1160=AXIS2_PLACEMENT_3D('',#1726,#1407,#1408);
#1161=AXIS2_PLACEMENT_3D('',#1727,#1409,#1410);
#1162=AXIS2_PLACEMENT_3D('',#1728,#1411,#1412);
#1163=AXIS2_PLACEMENT_3D('',#1731,#1415,#1416);
#1164=AXIS2_PLACEMENT_3D('',#1733,#1418,#1419);
#1165=AXIS2_PLACEMENT_3D('',#1734,#1420,#1421);
#1166=AXIS2_PLACEMENT_3D('',#1736,#1423,#1424);
#1167=AXIS2_PLACEMENT_3D('',#1737,#1425,#1426);
#1168=AXIS2_PLACEMENT_3D('',#1746,#1431,#1432);
#1169=AXIS2_PLACEMENT_3D('',#1752,#1436,#1437);
#1170=AXIS2_PLACEMENT_3D('',#1758,#1441,#1442);
#1171=AXIS2_PLACEMENT_3D('',#1765,#1447,#1448);
#1172=AXIS2_PLACEMENT_3D('',#1769,#1450,#1451);
#1173=AXIS2_PLACEMENT_3D('',#1773,#1453,#1454);
#1174=AXIS2_PLACEMENT_3D('',#1777,#1457,#1458);
#1175=AXIS2_PLACEMENT_3D('',#1778,#1459,#1460);
#1176=AXIS2_PLACEMENT_3D('',#1784,#1464,#1465);
#1177=AXIS2_PLACEMENT_3D('',#1788,#1468,#1469);
#1178=AXIS2_PLACEMENT_3D('',#1790,#1471,#1472);
#1179=AXIS2_PLACEMENT_3D('',#1792,#1473,#1474);
#1180=AXIS2_PLACEMENT_3D('',#1797,#1477,#1478);
#1181=AXIS2_PLACEMENT_3D('',#1801,#1480,#1481);
#1182=AXIS2_PLACEMENT_3D('',#1803,#1483,#1484);
#1183=AXIS2_PLACEMENT_3D('',#1809,#1488,#1489);
#1184=AXIS2_PLACEMENT_3D('',#1810,#1490,#1491);
#1185=AXIS2_PLACEMENT_3D('',#1811,#1492,#1493);
#1186=AXIS2_PLACEMENT_3D('',#1812,#1494,#1495);
#1187=AXIS2_PLACEMENT_3D('',#1813,#1496,#1497);
#1188=AXIS2_PLACEMENT_3D('',#1817,#1499,#1500);
#1189=AXIS2_PLACEMENT_3D('',#1819,#1501,#1502);
#1190=AXIS2_PLACEMENT_3D('',#1823,#1504,#1505);
#1191=AXIS2_PLACEMENT_3D('',#1826,#1507,#1508);
#1192=AXIS2_PLACEMENT_3D('',#1827,#1509,#1510);
#1193=AXIS2_PLACEMENT_3D('',#1828,#1511,#1512);
#1194=AXIS2_PLACEMENT_3D('',#1830,#1514,#1515);
#1195=AXIS2_PLACEMENT_3D('',#1831,#1516,#1517);
#1196=AXIS2_PLACEMENT_3D('',#1834,#1520,#1521);
#1197=AXIS2_PLACEMENT_3D('',#1836,#1523,#1524);
#1198=AXIS2_PLACEMENT_3D('',#1838,#1526,#1527);
#1199=AXIS2_PLACEMENT_3D('',#1840,#1529,#1530);
#1200=AXIS2_PLACEMENT_3D('',#1842,#1532,#1533);
#1201=AXIS2_PLACEMENT_3D('',#1843,#1534,#1535);
#1202=DIRECTION('axis',(0.,0.,1.));
#1203=DIRECTION('refdir',(1.,0.,0.));
#1204=DIRECTION('center_axis',(2.16564477245798E-16,-0.707106781186546,
-0.707106781186549));
#1205=DIRECTION('ref_axis',(-1.,0.,-3.06268420849247E-16));
#1206=DIRECTION('',(0.,0.707106781186552,-0.707106781186543));
#1207=DIRECTION('',(1.,0.,3.06268420849247E-16));
#1208=DIRECTION('',(0.,-0.707106781186552,0.707106781186543));
#1209=DIRECTION('',(-1.,0.,-3.06268420849247E-16));
#1210=DIRECTION('center_axis',(0.,-1.,0.));
#1211=DIRECTION('ref_axis',(-0.999999999999806,0.,-6.22500402045088E-7));
#1212=DIRECTION('',(0.707106781186409,0.707106781186549,4.40174252643208E-7));
#1213=DIRECTION('center_axis',(0.,1.,0.));
#1214=DIRECTION('ref_axis',(-0.999999999999806,0.,-6.22500402045088E-7));
#1215=DIRECTION('center_axis',(0.,-1.,0.));
#1216=DIRECTION('ref_axis',(-0.999999999999806,0.,-6.22500402045089E-7));
#1217=DIRECTION('center_axis',(0.707106781186545,-0.70710678118655,4.77803435077326E-16));
#1218=DIRECTION('ref_axis',(6.75716098034809E-16,0.,-1.));
#1219=DIRECTION('',(0.70710678118655,0.707106781186545,-6.28036983473507E-15));
#1220=DIRECTION('',(-6.75716098034809E-16,0.,1.));
#1221=DIRECTION('',(6.75716098034809E-16,0.,-1.));
#1222=DIRECTION('center_axis',(0.,-1.,0.));
#1223=DIRECTION('ref_axis',(6.22567043339287E-7,0.,-0.999999999999806));
#1224=DIRECTION('',(-4.40221378183309E-7,0.70710678118655,0.707106781186408));
#1225=DIRECTION('center_axis',(0.,1.,0.));
#1226=DIRECTION('ref_axis',(6.22567043339287E-7,0.,-0.999999999999806));
#1227=DIRECTION('center_axis',(0.,-1.,0.));
#1228=DIRECTION('ref_axis',(6.22567043339287E-7,0.,-0.999999999999806));
#1229=DIRECTION('center_axis',(-1.44376318163864E-16,-0.707106781186546,
0.707106781186549));
#1230=DIRECTION('ref_axis',(1.,0.,2.04178947232829E-16));
#1231=DIRECTION('',(0.,0.707106781186549,0.707106781186546));
#1232=DIRECTION('',(-1.,0.,-2.04178947232829E-16));
#1233=DIRECTION('',(1.,0.,2.04178947232829E-16));
#1234=DIRECTION('center_axis',(0.,-1.,0.));
#1235=DIRECTION('ref_axis',(0.999999999999806,0.,6.2256704507141E-7));
#1236=DIRECTION('',(-0.707106781186408,0.70710678118655,-4.40221380538448E-7));
#1237=DIRECTION('center_axis',(0.,1.,0.));
#1238=DIRECTION('ref_axis',(0.999999999999806,0.,6.2256704507141E-7));
#1239=DIRECTION('center_axis',(0.,-1.,0.));
#1240=DIRECTION('ref_axis',(0.999999999999806,0.,6.2256704507141E-7));
#1241=DIRECTION('center_axis',(-0.707106781186543,-0.707106781186552,-1.19626092302955E-15));
#1242=DIRECTION('ref_axis',(-1.69176842148536E-15,0.,1.));
#1243=DIRECTION('',(-0.707106781186552,0.707106781186543,6.28036983473505E-15));
#1244=DIRECTION('',(1.69176842148536E-15,0.,-1.));
#1245=DIRECTION('',(-1.69176842148536E-15,0.,1.));
#1246=DIRECTION('center_axis',(0.,-1.,0.));
#1247=DIRECTION('ref_axis',(-6.22558733197909E-7,0.,0.999999999999806));
#1248=DIRECTION('center_axis',(0.,1.,0.));
#1249=DIRECTION('ref_axis',(-6.22558733197909E-7,0.,0.999999999999806));
#1250=DIRECTION('center_axis',(0.,-1.,0.));
#1251=DIRECTION('ref_axis',(-6.22558733197909E-7,0.,0.999999999999806));
#1252=DIRECTION('center_axis',(0.,1.,0.));
#1253=DIRECTION('ref_axis',(6.22567043339287E-7,0.,-0.999999999999806));
#1254=DIRECTION('',(0.,1.,0.));
#1255=DIRECTION('center_axis',(0.,-1.,0.));
#1256=DIRECTION('ref_axis',(6.22567043339287E-7,0.,-0.999999999999806));
#1257=DIRECTION('',(0.,1.,0.));
#1258=DIRECTION('center_axis',(1.,0.,6.75716098034809E-16));
#1259=DIRECTION('ref_axis',(6.75716098034809E-16,0.,-1.));
#1260=DIRECTION('',(0.,1.,0.));
#1261=DIRECTION('',(6.75716098034809E-16,0.,-1.));
#1262=DIRECTION('',(0.,1.,0.));
#1263=DIRECTION('',(6.75716098034809E-16,-5.82794238648376E-17,-1.));
#1264=DIRECTION('',(0.,-1.,0.));
#1265=DIRECTION('',(6.75716098034809E-16,0.,-1.));
#1266=DIRECTION('center_axis',(0.,1.,0.));
#1267=DIRECTION('ref_axis',(-0.999999999999806,0.,-6.22500402045089E-7));
#1268=DIRECTION('',(0.,1.,0.));
#1269=DIRECTION('center_axis',(0.,-1.,0.));
#1270=DIRECTION('ref_axis',(-0.999999999999806,0.,-6.22500402045089E-7));
#1271=DIRECTION('center_axis',(3.06268420849247E-16,0.,-1.));
#1272=DIRECTION('ref_axis',(-1.,0.,-3.06268420849247E-16));
#1273=DIRECTION('',(0.,1.,0.));
#1274=DIRECTION('',(-1.,0.,-3.06268420849247E-16));
#1275=DIRECTION('center_axis',(0.,1.,0.));
#1276=DIRECTION('ref_axis',(0.,0.,1.));
#1277=DIRECTION('center_axis',(0.,-1.,0.));
#1278=DIRECTION('ref_axis',(1.,0.,0.));
#1279=DIRECTION('center_axis',(0.,-1.,0.));
#1280=DIRECTION('ref_axis',(1.,0.,0.));
#1281=DIRECTION('',(0.,0.,-1.));
#1282=DIRECTION('center_axis',(0.,1.,0.));
#1283=DIRECTION('ref_axis',(-1.,0.,4.35347744771716E-16));
#1284=DIRECTION('',(0.,0.,1.));
#1285=DIRECTION('center_axis',(0.,1.,0.));
#1286=DIRECTION('ref_axis',(1.,0.,-4.35347744771716E-16));
#1287=DIRECTION('center_axis',(0.,-1.,0.));
#1288=DIRECTION('ref_axis',(1.,0.,0.));
#1289=DIRECTION('center_axis',(0.,-1.,0.));
#1290=DIRECTION('ref_axis',(1.,0.,0.));
#1291=DIRECTION('center_axis',(0.,1.,0.));
#1292=DIRECTION('ref_axis',(1.,0.,0.));
#1293=DIRECTION('',(0.707106781186548,-0.707106781186547,-8.65956056235494E-17));
#1294=DIRECTION('center_axis',(0.,1.,0.));
#1295=DIRECTION('ref_axis',(1.,0.,0.));
#1296=DIRECTION('center_axis',(0.,-1.,0.));
#1297=DIRECTION('ref_axis',(1.,0.,0.));
#1298=DIRECTION('center_axis',(0.,-1.,0.));
#1299=DIRECTION('ref_axis',(1.,0.,0.));
#1300=DIRECTION('',(0.,1.,0.));
#1301=DIRECTION('center_axis',(0.,1.,0.));
#1302=DIRECTION('ref_axis',(1.,0.,0.));
#1303=DIRECTION('',(0.707106781186546,-0.707106781186549,-8.65956056235492E-17));
#1304=DIRECTION('center_axis',(0.,1.,0.));
#1305=DIRECTION('ref_axis',(1.,0.,0.));
#1306=DIRECTION('center_axis',(0.,-1.,0.));
#1307=DIRECTION('ref_axis',(1.,0.,0.));
#1308=DIRECTION('center_axis',(0.,-1.,0.));
#1309=DIRECTION('ref_axis',(1.,0.,0.));
#1310=DIRECTION('',(0.,1.,0.));
#1311=DIRECTION('center_axis',(0.,1.,0.));
#1312=DIRECTION('ref_axis',(1.,0.,0.));
#1313=DIRECTION('',(0.707106781186546,-0.707106781186549,-8.65956056235492E-17));
#1314=DIRECTION('center_axis',(0.,1.,0.));
#1315=DIRECTION('ref_axis',(1.,0.,0.));
#1316=DIRECTION('center_axis',(0.,-1.,0.));
#1317=DIRECTION('ref_axis',(1.,0.,0.));
#1318=DIRECTION('center_axis',(0.,-1.,0.));
#1319=DIRECTION('ref_axis',(1.,0.,0.));
#1320=DIRECTION('',(0.,1.,0.));
#1321=DIRECTION('center_axis',(0.,1.,0.));
#1322=DIRECTION('ref_axis',(1.,0.,0.));
#1323=DIRECTION('',(0.707106781186548,-0.707106781186547,-8.65956056235494E-17));
#1324=DIRECTION('center_axis',(0.,1.,0.));
#1325=DIRECTION('ref_axis',(1.,0.,0.));
#1326=DIRECTION('center_axis',(0.,-1.,0.));
#1327=DIRECTION('ref_axis',(1.,0.,0.));
#1328=DIRECTION('center_axis',(0.,-1.,0.));
#1329=DIRECTION('ref_axis',(1.,0.,0.));
#1330=DIRECTION('',(0.,1.,0.));
#1331=DIRECTION('center_axis',(0.,-1.,0.));
#1332=DIRECTION('ref_axis',(0.,0.,-1.));
#1333=DIRECTION('center_axis',(0.,1.,0.));
#1334=DIRECTION('ref_axis',(0.,0.,-1.));
#1335=DIRECTION('',(-8.65956056235493E-17,0.707106781186548,-0.707106781186547));
#1336=DIRECTION('center_axis',(0.,1.,0.));
#1337=DIRECTION('ref_axis',(0.,0.,-1.));
#1338=DIRECTION('center_axis',(0.,1.,0.));
#1339=DIRECTION('ref_axis',(0.,0.,-1.));
#1340=DIRECTION('',(0.,1.,0.));
#1341=DIRECTION('center_axis',(0.,1.,0.));
#1342=DIRECTION('ref_axis',(0.,0.,-1.));
#1343=DIRECTION('center_axis',(0.,1.,0.));
#1344=DIRECTION('ref_axis',(0.,0.,-1.));
#1345=DIRECTION('center_axis',(0.,-1.,0.));
#1346=DIRECTION('ref_axis',(0.,0.,-1.));
#1347=DIRECTION('center_axis',(0.,1.,0.));
#1348=DIRECTION('ref_axis',(0.,0.,-1.));
#1349=DIRECTION('',(-8.65956056235493E-17,0.707106781186548,-0.707106781186547));
#1350=DIRECTION('center_axis',(0.,1.,0.));
#1351=DIRECTION('ref_axis',(0.,0.,-1.));
#1352=DIRECTION('center_axis',(0.,1.,0.));
#1353=DIRECTION('ref_axis',(0.,0.,-1.));
#1354=DIRECTION('',(0.,1.,0.));
#1355=DIRECTION('center_axis',(0.,1.,0.));
#1356=DIRECTION('ref_axis',(0.,0.,-1.));
#1357=DIRECTION('center_axis',(0.,1.,0.));
#1358=DIRECTION('ref_axis',(0.,0.,-1.));
#1359=DIRECTION('center_axis',(0.,-1.,0.));
#1360=DIRECTION('ref_axis',(0.,0.,-1.));
#1361=DIRECTION('center_axis',(0.,1.,0.));
#1362=DIRECTION('ref_axis',(0.,0.,-1.));
#1363=DIRECTION('',(-8.65956056235493E-17,0.707106781186548,-0.707106781186547));
#1364=DIRECTION('center_axis',(0.,1.,0.));
#1365=DIRECTION('ref_axis',(0.,0.,-1.));
#1366=DIRECTION('center_axis',(0.,1.,0.));
#1367=DIRECTION('ref_axis',(0.,0.,-1.));
#1368=DIRECTION('',(0.,1.,0.));
#1369=DIRECTION('center_axis',(0.,1.,0.));
#1370=DIRECTION('ref_axis',(0.,0.,-1.));
#1371=DIRECTION('center_axis',(0.,1.,0.));
#1372=DIRECTION('ref_axis',(0.,0.,-1.));
#1373=DIRECTION('center_axis',(0.,-1.,0.));
#1374=DIRECTION('ref_axis',(0.,0.,-1.));
#1375=DIRECTION('center_axis',(0.,1.,0.));
#1376=DIRECTION('ref_axis',(0.,0.,-1.));
#1377=DIRECTION('',(-8.65956056235493E-17,0.707106781186548,-0.707106781186547));
#1378=DIRECTION('center_axis',(0.,1.,0.));
#1379=DIRECTION('ref_axis',(0.,0.,-1.));
#1380=DIRECTION('center_axis',(0.,1.,0.));
#1381=DIRECTION('ref_axis',(0.,0.,-1.));
#1382=DIRECTION('',(0.,1.,0.));
#1383=DIRECTION('center_axis',(0.,1.,0.));
#1384=DIRECTION('ref_axis',(0.,0.,-1.));
#1385=DIRECTION('center_axis',(0.,1.,0.));
#1386=DIRECTION('ref_axis',(0.,0.,-1.));
#1387=DIRECTION('center_axis',(0.707106781186548,-0.707106781186548,0.));
#1388=DIRECTION('ref_axis',(0.,0.,-1.));
#1389=DIRECTION('',(0.707106781186547,0.707106781186547,0.));
#1390=DIRECTION('',(0.,0.,1.));
#1391=DIRECTION('',(-0.707106781186547,-0.707106781186547,0.));
#1392=DIRECTION('',(0.,0.,-1.));
#1393=DIRECTION('center_axis',(0.,-1.,0.));
#1394=DIRECTION('ref_axis',(-1.,0.,4.35347744771716E-16));
#1395=DIRECTION('',(-0.707106781186548,0.707106781186547,0.));
#1396=DIRECTION('center_axis',(0.,1.,0.));
#1397=DIRECTION('ref_axis',(-1.,0.,4.35347744771716E-16));
#1398=DIRECTION('center_axis',(0.,-1.,0.));
#1399=DIRECTION('ref_axis',(-1.,0.,4.35347744771716E-16));
#1400=DIRECTION('center_axis',(-0.707106781186548,-0.707106781186548,0.));
#1401=DIRECTION('ref_axis',(0.,0.,1.));
#1402=DIRECTION('',(-0.707106781186547,0.707106781186547,0.));
#1403=DIRECTION('',(0.,0.,-1.));
#1404=DIRECTION('',(0.,0.,1.));
#1405=DIRECTION('center_axis',(0.,-1.,0.));
#1406=DIRECTION('ref_axis',(1.,0.,-4.35347744771716E-16));
#1407=DIRECTION('center_axis',(0.,1.,0.));
#1408=DIRECTION('ref_axis',(1.,0.,-4.35347744771716E-16));
#1409=DIRECTION('center_axis',(0.,-1.,0.));
#1410=DIRECTION('ref_axis',(1.,0.,-4.35347744771716E-16));
#1411=DIRECTION('center_axis',(0.,1.,0.));
#1412=DIRECTION('ref_axis',(-1.,0.,4.35347744771716E-16));
#1413=DIRECTION('',(0.,1.,0.));
#1414=DIRECTION('',(0.,1.,0.));
#1415=DIRECTION('center_axis',(-1.,0.,0.));
#1416=DIRECTION('ref_axis',(0.,0.,1.));
#1417=DIRECTION('',(0.,1.,0.));
#1418=DIRECTION('center_axis',(0.,1.,0.));
#1419=DIRECTION('ref_axis',(0.,0.,1.));
#1420=DIRECTION('center_axis',(0.,1.,0.));
#1421=DIRECTION('ref_axis',(1.,0.,-4.35347744771716E-16));
#1422=DIRECTION('',(0.,1.,0.));
#1423=DIRECTION('center_axis',(1.,0.,0.));
#1424=DIRECTION('ref_axis',(0.,0.,-1.));
#1425=DIRECTION('center_axis',(5.24827624747859E-31,1.,-2.89422060642637E-17));
#1426=DIRECTION('ref_axis',(1.81865111778882E-14,-2.89422060642637E-17,
-1.));
#1427=DIRECTION('',(-1.69176842148536E-15,2.89422060642637E-17,1.));
#1428=DIRECTION('',(-1.,0.,-1.81336427355442E-14));
#1429=DIRECTION('',(1.81865111778882E-14,-2.89422060642637E-17,-1.));
#1430=DIRECTION('',(-1.,0.,-1.81336427355442E-14));
#1431=DIRECTION('center_axis',(-1.81336427355442E-14,-3.65204942310907E-16,
1.));
#1432=DIRECTION('ref_axis',(-6.64180376555733E-30,1.,3.65204942310907E-16));
#1433=DIRECTION('',(6.17842188771975E-31,-1.,-3.65204942310907E-16));
#1434=DIRECTION('',(-6.64180376555733E-30,1.,3.65204942310907E-16));
#1435=DIRECTION('',(1.,0.,1.81336427355442E-14));
#1436=DIRECTION('center_axis',(1.81336427355442E-14,-6.93889390390725E-16,
-1.));
#1437=DIRECTION('ref_axis',(-1.2619427154559E-29,-1.,6.93889390390725E-16));
#1438=DIRECTION('',(1.17390015866676E-30,1.,-6.93889390390725E-16));
#1439=DIRECTION('',(-1.,0.,-1.81336427355442E-14));
#1440=DIRECTION('',(-1.2619427154559E-29,-1.,6.93889390390725E-16));
#1441=DIRECTION('center_axis',(-1.,0.,-1.69176842148536E-15));
#1442=DIRECTION('ref_axis',(-1.69176842148536E-15,0.,1.));
#1443=DIRECTION('',(0.,1.,0.));
#1444=DIRECTION('',(-1.69176842148536E-15,0.,1.));
#1445=DIRECTION('',(-1.69176842148536E-15,0.,1.));
#1446=DIRECTION('',(0.,1.,0.));
#1447=DIRECTION('center_axis',(0.,1.,0.));
#1448=DIRECTION('ref_axis',(1.,0.,0.));
#1449=DIRECTION('',(-1.81865111778882E-14,0.,1.));
#1450=DIRECTION('center_axis',(0.,1.,0.));
#1451=DIRECTION('ref_axis',(-2.33459434109712E-7,0.,0.999999999999973));
#1452=DIRECTION('',(-1.,0.,-6.737905374402E-15));
#1453=DIRECTION('center_axis',(0.,1.,0.));
#1454=DIRECTION('ref_axis',(-0.999999999999973,0.,-2.33437629324588E-7));
#1455=DIRECTION('',(1.39438730325211E-14,0.,-1.));
#1456=DIRECTION('',(1.,0.,1.40628249785853E-14));
#1457=DIRECTION('center_axis',(0.,-1.,0.));
#1458=DIRECTION('ref_axis',(-6.22558733197909E-7,0.,0.999999999999806));
#1459=DIRECTION('center_axis',(1.40628249785853E-14,0.,-1.));
#1460=DIRECTION('ref_axis',(0.,1.,0.));
#1461=DIRECTION('',(1.,0.,1.40628249785853E-14));
#1462=DIRECTION('',(0.,1.,0.));
#1463=DIRECTION('',(-1.,0.,-1.40628249785853E-14));
#1464=DIRECTION('center_axis',(-1.40628249785853E-14,0.,1.));
#1465=DIRECTION('ref_axis',(0.,-1.,0.));
#1466=DIRECTION('',(0.,-1.,0.));
#1467=DIRECTION('',(1.,0.,1.40628249785853E-14));
#1468=DIRECTION('center_axis',(8.19573337663999E-31,1.,-5.82794238648376E-17));
#1469=DIRECTION('ref_axis',(-1.39438730325211E-14,5.82794238648376E-17,
1.));
#1470=DIRECTION('',(-1.39438730325211E-14,5.82794238648376E-17,1.));
#1471=DIRECTION('center_axis',(0.,1.,0.));
#1472=DIRECTION('ref_axis',(1.,0.,0.));
#1473=DIRECTION('center_axis',(0.,-1.,0.));
#1474=DIRECTION('ref_axis',(0.999999999999806,0.,6.2256704507141E-7));
#1475=DIRECTION('',(1.,0.,2.04178947232829E-16));
#1476=DIRECTION('',(1.39438730325211E-14,0.,-1.));
#1477=DIRECTION('center_axis',(0.,1.,0.));
#1478=DIRECTION('ref_axis',(2.33462584498556E-7,0.,-0.999999999999973));
#1479=DIRECTION('',(1.,0.,6.63581589903068E-15));
#1480=DIRECTION('center_axis',(0.,1.,0.));
#1481=DIRECTION('ref_axis',(0.999999999999973,0.,2.33462473345751E-7));
#1482=DIRECTION('',(-1.81865111778882E-14,0.,1.));
#1483=DIRECTION('center_axis',(-1.,0.,-1.39438730325211E-14));
#1484=DIRECTION('ref_axis',(-1.39438730325211E-14,0.,1.));
#1485=DIRECTION('',(0.,1.,0.));
#1486=DIRECTION('',(-1.39438730325211E-14,0.,1.));
#1487=DIRECTION('',(0.,1.,0.));
#1488=DIRECTION('center_axis',(0.,-1.,0.));
#1489=DIRECTION('ref_axis',(0.,0.,-1.));
#1490=DIRECTION('center_axis',(0.,-1.,0.));
#1491=DIRECTION('ref_axis',(0.,0.,-1.));
#1492=DIRECTION('center_axis',(0.,-1.,0.));
#1493=DIRECTION('ref_axis',(0.,0.,-1.));
#1494=DIRECTION('center_axis',(0.,-1.,0.));
#1495=DIRECTION('ref_axis',(0.,0.,-1.));
#1496=DIRECTION('center_axis',(0.,1.,0.));
#1497=DIRECTION('ref_axis',(0.,0.,1.));
#1498=DIRECTION('',(-1.,0.,-6.63581589903068E-15));
#1499=DIRECTION('center_axis',(0.,1.,0.));
#1500=DIRECTION('ref_axis',(2.33462584498556E-7,0.,-0.999999999999973));
#1501=DIRECTION('center_axis',(0.,1.,0.));
#1502=DIRECTION('ref_axis',(-0.999999999999973,0.,-2.33437629324588E-7));
#1503=DIRECTION('',(1.,0.,6.737905374402E-15));
#1504=DIRECTION('center_axis',(0.,1.,0.));
#1505=DIRECTION('ref_axis',(-2.33459434109712E-7,0.,0.999999999999973));
#1506=DIRECTION('',(1.81865111778882E-14,0.,-1.));
#1507=DIRECTION('center_axis',(0.,1.,0.));
#1508=DIRECTION('ref_axis',(0.999999999999973,0.,2.33462473345751E-7));
#1509=DIRECTION('center_axis',(0.,1.,0.));
#1510=DIRECTION('ref_axis',(-6.22558733197909E-7,0.,0.999999999999806));
#1511=DIRECTION('center_axis',(0.,1.,0.));
#1512=DIRECTION('ref_axis',(0.999999999999806,0.,6.2256704507141E-7));
#1513=DIRECTION('',(0.,1.,0.));
#1514=DIRECTION('center_axis',(-2.04178947232829E-16,0.,1.));
#1515=DIRECTION('ref_axis',(1.,0.,2.04178947232829E-16));
#1516=DIRECTION('center_axis',(6.63581589903068E-15,0.,-1.));
#1517=DIRECTION('ref_axis',(-1.,0.,-6.63581589903068E-15));
#1518=DIRECTION('',(0.,1.,0.));
#1519=DIRECTION('',(0.,1.,0.));
#1520=DIRECTION('center_axis',(0.,1.,0.));
#1521=DIRECTION('ref_axis',(0.999999999999973,0.,2.33462473345751E-7));
#1522=DIRECTION('',(0.,1.,0.));
#1523=DIRECTION('center_axis',(1.,0.,1.81865111778882E-14));
#1524=DIRECTION('ref_axis',(1.81865111778882E-14,0.,-1.));
#1525=DIRECTION('',(0.,1.,0.));
#1526=DIRECTION('center_axis',(0.,1.,0.));
#1527=DIRECTION('ref_axis',(-2.33459434109712E-7,0.,0.999999999999973));
#1528=DIRECTION('',(0.,1.,0.));
#1529=DIRECTION('center_axis',(-6.737905374402E-15,0.,1.));
#1530=DIRECTION('ref_axis',(1.,0.,6.737905374402E-15));
#1531=DIRECTION('',(0.,1.,0.));
#1532=DIRECTION('center_axis',(0.,1.,0.));
#1533=DIRECTION('ref_axis',(-0.999999999999973,0.,-2.33437629324588E-7));
#1534=DIRECTION('center_axis',(0.,1.,0.));
#1535=DIRECTION('ref_axis',(2.33462584498556E-7,0.,-0.999999999999973));
#1536=CARTESIAN_POINT('',(0.,0.,0.));
#1537=CARTESIAN_POINT('Origin',(66.2499999999988,8.35,21.9499999999248));
#1538=CARTESIAN_POINT('',(1.00000007470806,8.1,22.1999999999247));
#1539=CARTESIAN_POINT('',(1.00000007470806,8.6,21.6999999999248));
#1540=CARTESIAN_POINT('',(1.00000007470806,8.1,22.1999999999247));
#1541=CARTESIAN_POINT('',(88.,8.6,21.6999999999248));
#1542=CARTESIAN_POINT('',(66.2499999999988,8.6,21.6999999999248));
#1543=CARTESIAN_POINT('',(88.,8.1,22.1999999999248));
#1544=CARTESIAN_POINT('',(88.,8.6,21.6999999999248));
#1545=CARTESIAN_POINT('',(66.2499999999988,8.1,22.1999999999248));
#1546=CARTESIAN_POINT('Origin',(0.99999925292002,8.35,21.000000747));
#1547=CARTESIAN_POINT('',(-0.200000000002366,8.1,21.));
#1548=CARTESIAN_POINT('',(0.299999999997535,8.6,21.0000003112502));
#1549=CARTESIAN_POINT('',(-0.200000000002366,8.1,21.));
#1550=CARTESIAN_POINT('Origin',(0.99999925292002,8.6,21.000000747));
#1551=CARTESIAN_POINT('Origin',(0.99999925292002,8.1,21.000000747));
#1552=CARTESIAN_POINT('Origin',(0.0499999999976425,8.35,10.4999999999793));
#1553=CARTESIAN_POINT('',(-0.200000000002338,8.1,-20.9999999252919));
#1554=CARTESIAN_POINT('',(0.299999999997666,8.6,-20.9999999252919));
#1555=CARTESIAN_POINT('',(-0.200000000002338,8.1,-20.9999999252919));
#1556=CARTESIAN_POINT('',(0.299999999997644,8.6,10.4999999999793));
#1557=CARTESIAN_POINT('',(-0.200000000002359,8.1,10.4999999999793));
#1558=CARTESIAN_POINT('Origin',(0.999999252920015,8.35,-21.00000074708));
#1559=CARTESIAN_POINT('',(1.,8.1,-22.2000000000024));
#1560=CARTESIAN_POINT('',(0.99999968871648,8.6,-21.7000000000025));
#1561=CARTESIAN_POINT('',(1.,8.1,-22.2000000000024));
#1562=CARTESIAN_POINT('Origin',(0.999999252920015,8.6,-21.00000074708));
#1563=CARTESIAN_POINT('Origin',(0.999999252920015,8.1,-21.00000074708));
#1564=CARTESIAN_POINT('Origin',(22.7499999999988,8.35,-21.9500000000024));
#1565=CARTESIAN_POINT('',(87.999999925293,8.1,-22.2000000000023));
#1566=CARTESIAN_POINT('',(87.999999925293,8.6,-21.7000000000023));
#1567=CARTESIAN_POINT('',(87.999999925293,8.1,-22.2000000000023));
#1568=CARTESIAN_POINT('',(22.7499999999988,8.6,-21.7000000000024));
#1569=CARTESIAN_POINT('',(22.7499999999988,8.1,-22.2000000000024));
#1570=CARTESIAN_POINT('Origin',(88.00000074707,8.35,-21.00000074708));
#1571=CARTESIAN_POINT('',(89.1999999999974,8.1,-21.));
#1572=CARTESIAN_POINT('',(88.6999999999975,8.6,-21.0000003112835));
#1573=CARTESIAN_POINT('',(89.1999999999974,8.1,-21.));
#1574=CARTESIAN_POINT('Origin',(88.00000074707,8.6,-21.00000074708));
#1575=CARTESIAN_POINT('Origin',(88.00000074707,8.1,-21.00000074708));
#1576=CARTESIAN_POINT('Origin',(88.9499999999974,8.35,-10.5000000000206));
#1577=CARTESIAN_POINT('',(89.1999999999973,8.1,20.9999999253));
#1578=CARTESIAN_POINT('',(88.6999999999973,8.6,20.9999999253));
#1579=CARTESIAN_POINT('',(89.1999999999973,8.1,20.9999999253));
#1580=CARTESIAN_POINT('',(88.6999999999974,8.6,-10.5000000000206));
#1581=CARTESIAN_POINT('',(89.1999999999974,8.1,-10.5000000000206));
#1582=CARTESIAN_POINT('Origin',(88.00000074707,8.35,21.0000007470001));
#1583=CARTESIAN_POINT('Origin',(88.00000074707,8.6,21.0000007470001));
#1584=CARTESIAN_POINT('Origin',(88.00000074707,8.1,21.0000007470001));
#1585=CARTESIAN_POINT('Origin',(0.999999252920015,0.,-21.00000074708));
#1586=CARTESIAN_POINT('',(-0.200000000002338,0.,-20.9999999252919));
#1587=CARTESIAN_POINT('',(-0.200000000002338,0.,-20.9999999252919));
#1588=CARTESIAN_POINT('',(1.,0.,-22.2000000000024));
#1589=CARTESIAN_POINT('Origin',(0.999999252920015,0.,-21.00000074708));
#1590=CARTESIAN_POINT('',(1.,0.,-22.2000000000024));
#1591=CARTESIAN_POINT('Origin',(-0.200000000002367,0.,21.));
#1592=CARTESIAN_POINT('',(-0.200000000002366,0.,21.));
#1593=CARTESIAN_POINT('',(-0.200000000002366,0.,21.));
#1594=CARTESIAN_POINT('',(-0.200000000002365,0.,19.));
#1595=CARTESIAN_POINT('',(-0.200000000002367,0.,21.));
#1596=CARTESIAN_POINT('',(-0.200000000002365,7.2,19.));
#1597=CARTESIAN_POINT('',(-0.200000000002365,3.6,19.));
#1598=CARTESIAN_POINT('',(-0.200000000002339,7.2,-19.1));
#1599=CARTESIAN_POINT('',(-0.200000000002353,7.2,0.94999999999997));
#1600=CARTESIAN_POINT('',(-0.200000000002339,1.11022302462516E-15,-19.1));
#1601=CARTESIAN_POINT('',(-0.200000000002339,5.55111512312578E-16,-19.1000000000001));
#1602=CARTESIAN_POINT('',(-0.200000000002367,0.,21.));
#1603=CARTESIAN_POINT('Origin',(0.99999925292002,0.,21.000000747));
#1604=CARTESIAN_POINT('',(1.00000007470806,0.,22.1999999999247));
#1605=CARTESIAN_POINT('',(1.00000007470806,0.,22.1999999999247));
#1606=CARTESIAN_POINT('Origin',(0.99999925292002,0.,21.000000747));
#1607=CARTESIAN_POINT('Origin',(88.,0.,22.1999999999248));
#1608=CARTESIAN_POINT('',(88.,0.,22.1999999999248));
#1609=CARTESIAN_POINT('',(88.,0.,22.1999999999248));
#1610=CARTESIAN_POINT('',(88.,0.,22.1999999999248));
#1611=CARTESIAN_POINT('Origin',(44.4999999999976,8.6,-4.13424849909916E-11));
#1612=CARTESIAN_POINT('',(10.89999995,8.6,-16.50000005));
#1613=CARTESIAN_POINT('Origin',(15.99999995,8.6,-16.50000005));
#1614=CARTESIAN_POINT('',(78.4,8.6,16.5));
#1615=CARTESIAN_POINT('Origin',(83.5,8.6,16.5));
#1616=CARTESIAN_POINT('',(27.0501981759601,8.6,5.3062441856512));
#1617=CARTESIAN_POINT('',(27.0501981759601,8.6,-5.30624418565121));
#1618=CARTESIAN_POINT('',(27.0501981759601,8.6,2.65312209280493));
#1619=CARTESIAN_POINT('',(21.9498018240399,8.6,-5.30624418565121));
#1620=CARTESIAN_POINT('Origin',(24.5,8.6,-5.30624418565121));
#1621=CARTESIAN_POINT('',(21.9498018240399,8.6,5.30624418565121));
#1622=CARTESIAN_POINT('',(21.9498018240399,8.6,-2.65312209284627));
#1623=CARTESIAN_POINT('Origin',(24.5,8.6,5.30624418565121));
#1624=CARTESIAN_POINT('',(10.9,8.6,16.5));
#1625=CARTESIAN_POINT('Origin',(16.,8.6,16.5));
#1626=CARTESIAN_POINT('',(78.39999995,8.6,-16.50000005));
#1627=CARTESIAN_POINT('Origin',(83.49999995,8.6,-16.50000005));
#1628=CARTESIAN_POINT('Origin',(15.99999995,7.6,-16.50000005));
#1629=CARTESIAN_POINT('',(12.89999995,6.6,-16.50000005));
#1630=CARTESIAN_POINT('',(11.89999995,7.6,-16.50000005));
#1631=CARTESIAN_POINT('Origin',(15.99999995,6.6,-16.50000005));
#1632=CARTESIAN_POINT('Origin',(15.99999995,8.6,-16.50000005));
#1633=CARTESIAN_POINT('',(12.89999995,1.7,-16.50000005));
#1634=CARTESIAN_POINT('Origin',(15.99999995,1.7,-16.50000005));
#1635=CARTESIAN_POINT('',(12.89999995,8.6,-16.50000005));
#1636=CARTESIAN_POINT('Origin',(83.49999995,7.6,-16.50000005));
#1637=CARTESIAN_POINT('',(80.39999995,6.6,-16.50000005));
#1638=CARTESIAN_POINT('',(79.39999995,7.6,-16.50000005));
#1639=CARTESIAN_POINT('Origin',(83.49999995,6.6,-16.50000005));
#1640=CARTESIAN_POINT('Origin',(83.49999995,8.6,-16.50000005));
#1641=CARTESIAN_POINT('',(80.39999995,1.7,-16.50000005));
#1642=CARTESIAN_POINT('Origin',(83.49999995,1.7,-16.50000005));
#1643=CARTESIAN_POINT('',(80.39999995,8.6,-16.50000005));
#1644=CARTESIAN_POINT('Origin',(83.5,7.6,16.5));
#1645=CARTESIAN_POINT('',(80.4,6.6,16.5));
#1646=CARTESIAN_POINT('',(79.4,7.6,16.5));
#1647=CARTESIAN_POINT('Origin',(83.5,6.6,16.5));
#1648=CARTESIAN_POINT('Origin',(83.5,8.6,16.5));
#1649=CARTESIAN_POINT('',(80.4,1.7,16.5));
#1650=CARTESIAN_POINT('Origin',(83.5,1.7,16.5));
#1651=CARTESIAN_POINT('',(80.4,8.6,16.5));
#1652=CARTESIAN_POINT('Origin',(16.,7.6,16.5));
#1653=CARTESIAN_POINT('',(12.9,6.6,16.5));
#1654=CARTESIAN_POINT('',(11.9,7.6,16.5));
#1655=CARTESIAN_POINT('Origin',(16.,6.6,16.5));
#1656=CARTESIAN_POINT('Origin',(16.,8.6,16.5));
#1657=CARTESIAN_POINT('',(12.9,1.7,16.5));
#1658=CARTESIAN_POINT('Origin',(16.,1.7,16.5));
#1659=CARTESIAN_POINT('',(12.9,8.6,16.5));
#1660=CARTESIAN_POINT('Origin',(83.49999995,2.2,-16.50000005));
#1661=CARTESIAN_POINT('',(83.49999995,1.7,-14.50000005));
#1662=CARTESIAN_POINT('Origin',(83.49999995,1.7,-16.50000005));
#1663=CARTESIAN_POINT('',(83.49999995,2.7,-15.50000005));
#1664=CARTESIAN_POINT('',(83.49999995,2.2,-15.00000005));
#1665=CARTESIAN_POINT('Origin',(83.49999995,2.7,-16.50000005));
#1666=CARTESIAN_POINT('Origin',(83.49999995,5.2,-16.50000005));
#1667=CARTESIAN_POINT('',(83.49999995,8.7,-15.50000005));
#1668=CARTESIAN_POINT('',(83.49999995,5.2,-15.50000005));
#1669=CARTESIAN_POINT('Origin',(83.49999995,8.7,-16.50000005));
#1670=CARTESIAN_POINT('Origin',(83.49999995,8.7,-16.50000005));
#1671=CARTESIAN_POINT('Origin',(16.,2.2,16.5));
#1672=CARTESIAN_POINT('',(16.,1.7,18.5));
#1673=CARTESIAN_POINT('Origin',(16.,1.7,16.5));
#1674=CARTESIAN_POINT('',(16.,2.7,17.5));
#1675=CARTESIAN_POINT('',(16.,2.2,18.));
#1676=CARTESIAN_POINT('Origin',(16.,2.7,16.5));
#1677=CARTESIAN_POINT('Origin',(16.,5.2,16.5));
#1678=CARTESIAN_POINT('',(16.,8.7,17.5));
#1679=CARTESIAN_POINT('',(16.,5.2,17.5));
#1680=CARTESIAN_POINT('Origin',(16.,8.7,16.5));
#1681=CARTESIAN_POINT('Origin',(16.,8.7,16.5));
#1682=CARTESIAN_POINT('Origin',(15.99999995,2.2,-16.50000005));
#1683=CARTESIAN_POINT('',(15.99999995,1.7,-14.50000005));
#1684=CARTESIAN_POINT('Origin',(15.99999995,1.7,-16.50000005));
#1685=CARTESIAN_POINT('',(15.99999995,2.7,-15.50000005));
#1686=CARTESIAN_POINT('',(15.99999995,2.2,-15.00000005));
#1687=CARTESIAN_POINT('Origin',(15.99999995,2.7,-16.50000005));
#1688=CARTESIAN_POINT('Origin',(15.99999995,5.2,-16.50000005));
#1689=CARTESIAN_POINT('',(15.99999995,8.7,-15.50000005));
#1690=CARTESIAN_POINT('',(15.99999995,5.2,-15.50000005));
#1691=CARTESIAN_POINT('Origin',(15.99999995,8.7,-16.50000005));
#1692=CARTESIAN_POINT('Origin',(15.99999995,8.7,-16.50000005));
#1693=CARTESIAN_POINT('Origin',(83.5,2.2,16.5));
#1694=CARTESIAN_POINT('',(83.5,1.7,18.5));
#1695=CARTESIAN_POINT('Origin',(83.5,1.7,16.5));
#1696=CARTESIAN_POINT('',(83.5,2.7,17.5));
#1697=CARTESIAN_POINT('',(83.5,2.2,18.));
#1698=CARTESIAN_POINT('Origin',(83.5,2.7,16.5));
#1699=CARTESIAN_POINT('Origin',(83.5,5.2,16.5));
#1700=CARTESIAN_POINT('',(83.5,8.7,17.5));
#1701=CARTESIAN_POINT('',(83.5,5.2,17.5));
#1702=CARTESIAN_POINT('Origin',(83.5,8.7,16.5));
#1703=CARTESIAN_POINT('Origin',(83.5,8.7,16.5));
#1704=CARTESIAN_POINT('Origin',(22.4498018240399,9.9,-2.6531220928256));
#1705=CARTESIAN_POINT('',(21.9498018240399,9.4,-5.30624418565121));
#1706=CARTESIAN_POINT('',(22.9498018240399,10.4,-5.30624418565121));
#1707=CARTESIAN_POINT('',(21.9498018240399,9.4,-5.30624418565121));
#1708=CARTESIAN_POINT('',(22.9498018240399,10.4,5.30624418565121));
#1709=CARTESIAN_POINT('',(22.9498018240399,10.4,-2.6531220928256));
#1710=CARTESIAN_POINT('',(21.9498018240399,9.4,5.30624418565121));
#1711=CARTESIAN_POINT('',(22.9498018240399,10.4,5.30624418565121));
#1712=CARTESIAN_POINT('',(21.9498018240399,9.4,-2.6531220928256));
#1713=CARTESIAN_POINT('Origin',(24.5,9.9,-5.30624418565121));
#1714=CARTESIAN_POINT('',(27.0501981759601,9.4,-5.30624418565121));
#1715=CARTESIAN_POINT('',(26.0501981759601,10.4,-5.30624418565121));
#1716=CARTESIAN_POINT('',(27.0501981759601,9.4,-5.30624418565121));
#1717=CARTESIAN_POINT('Origin',(24.5,10.4,-5.30624418565121));
#1718=CARTESIAN_POINT('Origin',(24.5,9.4,-5.30624418565121));
#1719=CARTESIAN_POINT('Origin',(26.5501981759601,9.9,2.6531220928256));
#1720=CARTESIAN_POINT('',(27.0501981759601,9.4,5.3062441856512));
#1721=CARTESIAN_POINT('',(26.0501981759601,10.4,5.3062441856512));
#1722=CARTESIAN_POINT('',(27.0501981759601,9.4,5.3062441856512));
#1723=CARTESIAN_POINT('',(26.0501981759601,10.4,2.6531220928256));
#1724=CARTESIAN_POINT('',(27.0501981759601,9.4,2.6531220928256));
#1725=CARTESIAN_POINT('Origin',(24.5,9.9,5.30624418565121));
#1726=CARTESIAN_POINT('Origin',(24.5,10.4,5.30624418565121));
#1727=CARTESIAN_POINT('Origin',(24.5,9.4,5.30624418565121));
#1728=CARTESIAN_POINT('Origin',(24.5,1.7,-5.30624418565121));
#1729=CARTESIAN_POINT('',(21.9498018240399,1.7,-5.30624418565121));
#1730=CARTESIAN_POINT('',(27.0501981759601,1.7,-5.30624418565121));
#1731=CARTESIAN_POINT('Origin',(21.9498018240399,1.7,-5.30624418565121));
#1732=CARTESIAN_POINT('',(21.9498018240399,1.7,5.30624418565121));
#1733=CARTESIAN_POINT('Origin',(24.5,10.4,-5.55111512312578E-16));
#1734=CARTESIAN_POINT('Origin',(24.5,1.7,5.30624418565121));
#1735=CARTESIAN_POINT('',(27.0501981759601,1.7,5.3062441856512));
#1736=CARTESIAN_POINT('Origin',(27.0501981759601,1.7,5.3062441856512));
#1737=CARTESIAN_POINT('Origin',(91.1999999999972,4.63999999999999,9.62000000000011));
#1738=CARTESIAN_POINT('',(89.1999999999974,4.63999999999999,-9.55999999999993));
#1739=CARTESIAN_POINT('',(89.1999999999973,4.63999999999999,9.62000000000008));
#1740=CARTESIAN_POINT('',(89.1999999999974,4.63999999999999,-5.68999999999995));
#1741=CARTESIAN_POINT('',(91.1999999999976,4.63999999999999,-9.55999999999989));
#1742=CARTESIAN_POINT('',(91.1999999999976,4.63999999999999,-9.55999999999989));
#1743=CARTESIAN_POINT('',(91.1999999999972,4.63999999999999,9.62000000000011));
#1744=CARTESIAN_POINT('',(91.1999999999971,4.63999999999999,15.3099992156495));
#1745=CARTESIAN_POINT('',(91.1999999999972,4.63999999999999,9.62000000000011));
#1746=CARTESIAN_POINT('Origin',(91.1999999999972,0.,9.62000000000011));
#1747=CARTESIAN_POINT('',(89.1999999999973,0.,9.62000000000007));
#1748=CARTESIAN_POINT('',(89.1999999999973,-5.59128766677999E-15,9.62000000000007));
#1749=CARTESIAN_POINT('',(91.1999999999972,0.,9.62000000000011));
#1750=CARTESIAN_POINT('',(91.1999999999972,2.07801583530032E-15,9.62000000000011));
#1751=CARTESIAN_POINT('',(67.8499999999973,0.,9.61999999999969));
#1752=CARTESIAN_POINT('Origin',(91.1999999999976,4.63999999999999,-9.55999999999989));
#1753=CARTESIAN_POINT('',(89.1999999999974,-2.77555756156289E-16,-9.55999999999993));
#1754=CARTESIAN_POINT('',(89.1999999999974,2.32,-9.55999999999993));
#1755=CARTESIAN_POINT('',(91.1999999999976,-2.77555756156289E-16,-9.55999999999989));
#1756=CARTESIAN_POINT('',(67.8499999999977,0.,-9.56000000000031));
#1757=CARTESIAN_POINT('',(91.1999999999976,2.31999999999999,-9.55999999999989));
#1758=CARTESIAN_POINT('Origin',(89.1999999999974,0.,-21.));
#1759=CARTESIAN_POINT('',(89.1999999999974,0.,-21.));
#1760=CARTESIAN_POINT('',(89.1999999999974,0.,-21.));
#1761=CARTESIAN_POINT('',(89.1999999999974,0.,-21.));
#1762=CARTESIAN_POINT('',(89.1999999999973,0.,20.9999999253));
#1763=CARTESIAN_POINT('',(89.1999999999974,0.,-21.));
#1764=CARTESIAN_POINT('',(89.1999999999973,0.,20.9999999253));
#1765=CARTESIAN_POINT('Origin',(44.4999999999976,0.,-4.13402645449423E-11));
#1766=CARTESIAN_POINT('',(91.199999999997,0.,20.9999984312988));
#1767=CARTESIAN_POINT('',(91.1999999999978,0.,-21.0000000000002));
#1768=CARTESIAN_POINT('',(88.,0.,24.1999999999251));
#1769=CARTESIAN_POINT('Origin',(88.00000074707,0.,21.0000007470001));
#1770=CARTESIAN_POINT('',(1.00000156886912,0.,24.1999999999245));
#1771=CARTESIAN_POINT('',(88.,0.,24.1999999999251));
#1772=CARTESIAN_POINT('',(-2.20000000000265,0.,20.9999999999998));
#1773=CARTESIAN_POINT('Origin',(0.99999925292002,0.,21.000000747));
#1774=CARTESIAN_POINT('',(-2.20000000000262,0.,18.9999999999999));
#1775=CARTESIAN_POINT('',(-2.20000000000265,0.,20.9999999999998));
#1776=CARTESIAN_POINT('',(21.1499999999973,0.,19.0000000000003));
#1777=CARTESIAN_POINT('Origin',(88.00000074707,0.,21.0000007470001));
#1778=CARTESIAN_POINT('Origin',(-2.20000000000209,1.11022302462516E-15,
-19.1000000000001));
#1779=CARTESIAN_POINT('',(-2.20000000000209,7.2,-19.1000000000001));
#1780=CARTESIAN_POINT('',(-2.20000000000209,7.2,-19.1000000000001));
#1781=CARTESIAN_POINT('',(-2.20000000000209,1.11022302462516E-15,-19.1000000000001));
#1782=CARTESIAN_POINT('',(-2.20000000000209,5.55111512312578E-16,-19.1000000000001));
#1783=CARTESIAN_POINT('',(21.1499999999979,0.,-19.0999999999997));
#1784=CARTESIAN_POINT('Origin',(-2.20000000000262,7.2,18.9999999999999));
#1785=CARTESIAN_POINT('',(-2.20000000000262,7.2,18.9999999999999));
#1786=CARTESIAN_POINT('',(-2.20000000000262,3.6,18.9999999999999));
#1787=CARTESIAN_POINT('',(-2.20000000000262,7.2,18.9999999999999));
#1788=CARTESIAN_POINT('Origin',(-2.20000000000209,7.2,-19.1000000000001));
#1789=CARTESIAN_POINT('',(-2.20000000000207,7.2,-20.0499992155654));
#1790=CARTESIAN_POINT('Origin',(44.4999999999976,0.,-4.13402645449423E-11));
#1791=CARTESIAN_POINT('',(87.999999925293,0.,-22.2000000000023));
#1792=CARTESIAN_POINT('Origin',(88.00000074707,0.,-21.00000074708));
#1793=CARTESIAN_POINT('',(1.,0.,-22.2000000000024));
#1794=CARTESIAN_POINT('',(-2.20000000000206,0.,-20.9999984311308));
#1795=CARTESIAN_POINT('',(-2.20000000000265,0.,20.9999999999998));
#1796=CARTESIAN_POINT('',(1.00000000000011,0.,-24.2000000000026));
#1797=CARTESIAN_POINT('Origin',(0.999999252920015,0.,-21.00000074708));
#1798=CARTESIAN_POINT('',(87.9999984311519,0.,-24.2000000000021));
#1799=CARTESIAN_POINT('',(1.00000000000011,0.,-24.2000000000026));
#1800=CARTESIAN_POINT('',(91.1999999999978,0.,-21.0000000000002));
#1801=CARTESIAN_POINT('Origin',(88.00000074707,0.,-21.00000074708));
#1802=CARTESIAN_POINT('',(91.1999999999978,0.,-21.0000000000002));
#1803=CARTESIAN_POINT('Origin',(-2.20000000000206,0.,-20.9999984311308));
#1804=CARTESIAN_POINT('',(-2.20000000000265,10.6,20.9999999999998));
#1805=CARTESIAN_POINT('',(-2.20000000000265,0.,20.9999999999998));
#1806=CARTESIAN_POINT('',(-2.20000000000206,10.6,-20.9999984311308));
#1807=CARTESIAN_POINT('',(-2.2000000000022,10.6,-10.4999992155864));
#1808=CARTESIAN_POINT('',(-2.20000000000206,0.,-20.9999984311308));
#1809=CARTESIAN_POINT('Origin',(49.749999975,1.7,-2.49999754231567E-8));
#1810=CARTESIAN_POINT('Origin',(49.749999975,1.7,-2.49999754231567E-8));
#1811=CARTESIAN_POINT('Origin',(49.749999975,1.7,-2.49999754231567E-8));
#1812=CARTESIAN_POINT('Origin',(49.749999975,1.7,-2.49999754231567E-8));
#1813=CARTESIAN_POINT('Origin',(44.4999999999976,10.6,-4.13424849909916E-11));
#1814=CARTESIAN_POINT('',(87.9999984311519,10.6,-24.2000000000021));
#1815=CARTESIAN_POINT('',(1.00000000000011,10.6,-24.2000000000026));
#1816=CARTESIAN_POINT('',(66.2499992155748,10.6,-24.2000000000022));
#1817=CARTESIAN_POINT('Origin',(0.999999252920015,10.6,-21.00000074708));
#1818=CARTESIAN_POINT('',(1.00000156886912,10.6,24.1999999999245));
#1819=CARTESIAN_POINT('Origin',(0.99999925292002,10.6,21.000000747));
#1820=CARTESIAN_POINT('',(88.,10.6,24.1999999999251));
#1821=CARTESIAN_POINT('',(22.7500007844333,10.6,24.1999999999246));
#1822=CARTESIAN_POINT('',(91.199999999997,10.6,20.9999984312988));
#1823=CARTESIAN_POINT('Origin',(88.00000074707,10.6,21.0000007470001));
#1824=CARTESIAN_POINT('',(91.1999999999978,10.6,-21.0000000000002));
#1825=CARTESIAN_POINT('',(91.1999999999972,10.6,10.4999992156292));
#1826=CARTESIAN_POINT('Origin',(88.00000074707,10.6,-21.00000074708));
#1827=CARTESIAN_POINT('Origin',(88.00000074707,0.,21.0000007470001));
#1828=CARTESIAN_POINT('Origin',(88.00000074707,0.,-21.00000074708));
#1829=CARTESIAN_POINT('',(87.999999925293,0.,-22.2000000000023));
#1830=CARTESIAN_POINT('Origin',(1.,0.,-22.2000000000024));
#1831=CARTESIAN_POINT('Origin',(87.9999984311519,0.,-24.2000000000021));
#1832=CARTESIAN_POINT('',(1.00000000000011,0.,-24.2000000000026));
#1833=CARTESIAN_POINT('',(87.9999984311519,0.,-24.2000000000021));
#1834=CARTESIAN_POINT('Origin',(88.00000074707,0.,-21.00000074708));
#1835=CARTESIAN_POINT('',(91.1999999999978,0.,-21.0000000000002));
#1836=CARTESIAN_POINT('Origin',(91.199999999997,0.,20.9999984312988));
#1837=CARTESIAN_POINT('',(91.199999999997,0.,20.9999984312988));
#1838=CARTESIAN_POINT('Origin',(88.00000074707,0.,21.0000007470001));
#1839=CARTESIAN_POINT('',(88.,0.,24.1999999999251));
#1840=CARTESIAN_POINT('Origin',(1.00000156886912,0.,24.1999999999245));
#1841=CARTESIAN_POINT('',(1.00000156886912,0.,24.1999999999245));
#1842=CARTESIAN_POINT('Origin',(0.99999925292002,0.,21.000000747));
#1843=CARTESIAN_POINT('Origin',(0.999999252920015,0.,-21.00000074708));
#1844=UNCERTAINTY_MEASURE_WITH_UNIT(LENGTH_MEASURE(0.01),#1848,
'DISTANCE_ACCURACY_VALUE',
'Maximum model space distance between geometric entities at asserted c
onnectivities');
#1845=UNCERTAINTY_MEASURE_WITH_UNIT(LENGTH_MEASURE(0.01),#1848,
'DISTANCE_ACCURACY_VALUE',
'Maximum model space distance between geometric entities at asserted c
onnectivities');
#1846=(
GEOMETRIC_REPRESENTATION_CONTEXT(3)
GLOBAL_UNCERTAINTY_ASSIGNED_CONTEXT((#1844))
GLOBAL_UNIT_ASSIGNED_CONTEXT((#1848,#1849,#1850))
REPRESENTATION_CONTEXT('','3D')
);
#1847=(
GEOMETRIC_REPRESENTATION_CONTEXT(3)
GLOBAL_UNCERTAINTY_ASSIGNED_CONTEXT((#1845))
GLOBAL_UNIT_ASSIGNED_CONTEXT((#1848,#1849,#1850))
REPRESENTATION_CONTEXT('','3D')
);
#1848=(
LENGTH_UNIT()
NAMED_UNIT(*)
SI_UNIT(.MILLI.,.METRE.)
);
#1849=(
NAMED_UNIT(*)
PLANE_ANGLE_UNIT()
SI_UNIT($,.RADIAN.)
);
#1850=(
NAMED_UNIT(*)
SI_UNIT($,.STERADIAN.)
SOLID_ANGLE_UNIT()
);
#1851=SHAPE_DEFINITION_REPRESENTATION(#1852,#1853);
#1852=PRODUCT_DEFINITION_SHAPE('',$,#1855);
#1853=SHAPE_REPRESENTATION('',(#1084),#1846);
#1854=PRODUCT_DEFINITION_CONTEXT('part definition',#1859,'design');
#1855=PRODUCT_DEFINITION('CDRC_RevB_Assembly','CDRC_RevB_Assembly v14',
#1856,#1854);
#1856=PRODUCT_DEFINITION_FORMATION('',$,#1861);
#1857=PRODUCT_RELATED_PRODUCT_CATEGORY('CDRC_RevB_Assembly v14',
'CDRC_RevB_Assembly v14',(#1861));
#1858=APPLICATION_PROTOCOL_DEFINITION('international standard',
'automotive_design',2009,#1859);
#1859=APPLICATION_CONTEXT(
'Core Data for Automotive Mechanical Design Process');
#1860=PRODUCT_CONTEXT('part definition',#1859,'mechanical');
#1861=PRODUCT('CDRC_RevB_Assembly','CDRC_RevB_Assembly v14',$,(#1860));
#1862=PRESENTATION_STYLE_ASSIGNMENT((#1864));
#1863=PRESENTATION_STYLE_ASSIGNMENT((#1865));
#1864=SURFACE_STYLE_USAGE(.BOTH.,#1866);
#1865=SURFACE_STYLE_USAGE(.BOTH.,#1867);
#1866=SURFACE_SIDE_STYLE('',(#1868));
#1867=SURFACE_SIDE_STYLE('',(#1869));
#1868=SURFACE_STYLE_FILL_AREA(#1870);
#1869=SURFACE_STYLE_FILL_AREA(#1871);
#1870=FILL_AREA_STYLE('Steel - Satin',(#1872));
#1871=FILL_AREA_STYLE('Opaque(51,153,102)',(#1873));
#1872=FILL_AREA_STYLE_COLOUR('Steel - Satin',#1874);
#1873=FILL_AREA_STYLE_COLOUR('Opaque(51,153,102)',#1875);
#1874=COLOUR_RGB('Steel - Satin',0.627450980392157,0.627450980392157,0.627450980392157);
#1875=COLOUR_RGB('Opaque(51,153,102)',0.0431372549019608,0.0431372549019608,
0.0431372549019608);
ENDSEC;
END-ISO-10303-21;
